G04 #@! TF.GenerationSoftware,KiCad,Pcbnew,5.1.5*
G04 #@! TF.CreationDate,2020-01-13T20:43:58-05:00*
G04 #@! TF.ProjectId,stm32f0_usb,73746d33-3266-4305-9f75-73622e6b6963,0*
G04 #@! TF.SameCoordinates,Original*
G04 #@! TF.FileFunction,Soldermask,Top*
G04 #@! TF.FilePolarity,Negative*
%FSLAX46Y46*%
G04 Gerber Fmt 4.6, Leading zero omitted, Abs format (unit mm)*
G04 Created by KiCad (PCBNEW 5.1.5) date 2020-01-13 20:43:58*
%MOMM*%
%LPD*%
G04 APERTURE LIST*
%ADD10C,0.100000*%
G04 APERTURE END LIST*
D10*
G36*
X117351000Y-139201000D02*
G01*
X115949000Y-139201000D01*
X115949000Y-137549000D01*
X117351000Y-137549000D01*
X117351000Y-139201000D01*
G37*
G36*
X112851000Y-139201000D02*
G01*
X111449000Y-139201000D01*
X111449000Y-137549000D01*
X112851000Y-137549000D01*
X112851000Y-139201000D01*
G37*
G36*
X165634239Y-131811467D02*
G01*
X165948282Y-131873934D01*
X166539926Y-132119001D01*
X167072392Y-132474784D01*
X167525216Y-132927608D01*
X167880999Y-133460074D01*
X168126066Y-134051718D01*
X168251000Y-134679804D01*
X168251000Y-135320196D01*
X168126066Y-135948282D01*
X167880999Y-136539926D01*
X167525216Y-137072392D01*
X167072392Y-137525216D01*
X166539926Y-137880999D01*
X165948282Y-138126066D01*
X165634239Y-138188533D01*
X165320197Y-138251000D01*
X164679803Y-138251000D01*
X164365761Y-138188533D01*
X164051718Y-138126066D01*
X163460074Y-137880999D01*
X162927608Y-137525216D01*
X162474784Y-137072392D01*
X162119001Y-136539926D01*
X161873934Y-135948282D01*
X161749000Y-135320196D01*
X161749000Y-134679804D01*
X161873934Y-134051718D01*
X162119001Y-133460074D01*
X162474784Y-132927608D01*
X162927608Y-132474784D01*
X163460074Y-132119001D01*
X164051718Y-131873934D01*
X164365761Y-131811467D01*
X164679803Y-131749000D01*
X165320197Y-131749000D01*
X165634239Y-131811467D01*
G37*
G36*
X105634239Y-131811467D02*
G01*
X105948282Y-131873934D01*
X106539926Y-132119001D01*
X107072392Y-132474784D01*
X107525216Y-132927608D01*
X107880999Y-133460074D01*
X108126066Y-134051718D01*
X108251000Y-134679804D01*
X108251000Y-135320196D01*
X108126066Y-135948282D01*
X107880999Y-136539926D01*
X107525216Y-137072392D01*
X107072392Y-137525216D01*
X106539926Y-137880999D01*
X105948282Y-138126066D01*
X105634239Y-138188533D01*
X105320197Y-138251000D01*
X104679803Y-138251000D01*
X104365761Y-138188533D01*
X104051718Y-138126066D01*
X103460074Y-137880999D01*
X102927608Y-137525216D01*
X102474784Y-137072392D01*
X102119001Y-136539926D01*
X101873934Y-135948282D01*
X101749000Y-135320196D01*
X101749000Y-134679804D01*
X101873934Y-134051718D01*
X102119001Y-133460074D01*
X102474784Y-132927608D01*
X102927608Y-132474784D01*
X103460074Y-132119001D01*
X104051718Y-131873934D01*
X104365761Y-131811467D01*
X104679803Y-131749000D01*
X105320197Y-131749000D01*
X105634239Y-131811467D01*
G37*
G36*
X125653512Y-134103927D02*
G01*
X125802812Y-134133624D01*
X125966784Y-134201544D01*
X126114354Y-134300147D01*
X126239853Y-134425646D01*
X126338456Y-134573216D01*
X126406376Y-134737188D01*
X126441000Y-134911259D01*
X126441000Y-135088741D01*
X126406376Y-135262812D01*
X126338456Y-135426784D01*
X126239853Y-135574354D01*
X126114354Y-135699853D01*
X125966784Y-135798456D01*
X125802812Y-135866376D01*
X125653512Y-135896073D01*
X125628742Y-135901000D01*
X125451258Y-135901000D01*
X125426488Y-135896073D01*
X125277188Y-135866376D01*
X125113216Y-135798456D01*
X124965646Y-135699853D01*
X124840147Y-135574354D01*
X124741544Y-135426784D01*
X124673624Y-135262812D01*
X124639000Y-135088741D01*
X124639000Y-134911259D01*
X124673624Y-134737188D01*
X124741544Y-134573216D01*
X124840147Y-134425646D01*
X124965646Y-134300147D01*
X125113216Y-134201544D01*
X125277188Y-134133624D01*
X125426488Y-134103927D01*
X125451258Y-134099000D01*
X125628742Y-134099000D01*
X125653512Y-134103927D01*
G37*
G36*
X156133512Y-134103927D02*
G01*
X156282812Y-134133624D01*
X156446784Y-134201544D01*
X156594354Y-134300147D01*
X156719853Y-134425646D01*
X156818456Y-134573216D01*
X156886376Y-134737188D01*
X156921000Y-134911259D01*
X156921000Y-135088741D01*
X156886376Y-135262812D01*
X156818456Y-135426784D01*
X156719853Y-135574354D01*
X156594354Y-135699853D01*
X156446784Y-135798456D01*
X156282812Y-135866376D01*
X156133512Y-135896073D01*
X156108742Y-135901000D01*
X155931258Y-135901000D01*
X155906488Y-135896073D01*
X155757188Y-135866376D01*
X155593216Y-135798456D01*
X155445646Y-135699853D01*
X155320147Y-135574354D01*
X155221544Y-135426784D01*
X155153624Y-135262812D01*
X155119000Y-135088741D01*
X155119000Y-134911259D01*
X155153624Y-134737188D01*
X155221544Y-134573216D01*
X155320147Y-134425646D01*
X155445646Y-134300147D01*
X155593216Y-134201544D01*
X155757188Y-134133624D01*
X155906488Y-134103927D01*
X155931258Y-134099000D01*
X156108742Y-134099000D01*
X156133512Y-134103927D01*
G37*
G36*
X153593512Y-134103927D02*
G01*
X153742812Y-134133624D01*
X153906784Y-134201544D01*
X154054354Y-134300147D01*
X154179853Y-134425646D01*
X154278456Y-134573216D01*
X154346376Y-134737188D01*
X154381000Y-134911259D01*
X154381000Y-135088741D01*
X154346376Y-135262812D01*
X154278456Y-135426784D01*
X154179853Y-135574354D01*
X154054354Y-135699853D01*
X153906784Y-135798456D01*
X153742812Y-135866376D01*
X153593512Y-135896073D01*
X153568742Y-135901000D01*
X153391258Y-135901000D01*
X153366488Y-135896073D01*
X153217188Y-135866376D01*
X153053216Y-135798456D01*
X152905646Y-135699853D01*
X152780147Y-135574354D01*
X152681544Y-135426784D01*
X152613624Y-135262812D01*
X152579000Y-135088741D01*
X152579000Y-134911259D01*
X152613624Y-134737188D01*
X152681544Y-134573216D01*
X152780147Y-134425646D01*
X152905646Y-134300147D01*
X153053216Y-134201544D01*
X153217188Y-134133624D01*
X153366488Y-134103927D01*
X153391258Y-134099000D01*
X153568742Y-134099000D01*
X153593512Y-134103927D01*
G37*
G36*
X151053512Y-134103927D02*
G01*
X151202812Y-134133624D01*
X151366784Y-134201544D01*
X151514354Y-134300147D01*
X151639853Y-134425646D01*
X151738456Y-134573216D01*
X151806376Y-134737188D01*
X151841000Y-134911259D01*
X151841000Y-135088741D01*
X151806376Y-135262812D01*
X151738456Y-135426784D01*
X151639853Y-135574354D01*
X151514354Y-135699853D01*
X151366784Y-135798456D01*
X151202812Y-135866376D01*
X151053512Y-135896073D01*
X151028742Y-135901000D01*
X150851258Y-135901000D01*
X150826488Y-135896073D01*
X150677188Y-135866376D01*
X150513216Y-135798456D01*
X150365646Y-135699853D01*
X150240147Y-135574354D01*
X150141544Y-135426784D01*
X150073624Y-135262812D01*
X150039000Y-135088741D01*
X150039000Y-134911259D01*
X150073624Y-134737188D01*
X150141544Y-134573216D01*
X150240147Y-134425646D01*
X150365646Y-134300147D01*
X150513216Y-134201544D01*
X150677188Y-134133624D01*
X150826488Y-134103927D01*
X150851258Y-134099000D01*
X151028742Y-134099000D01*
X151053512Y-134103927D01*
G37*
G36*
X148513512Y-134103927D02*
G01*
X148662812Y-134133624D01*
X148826784Y-134201544D01*
X148974354Y-134300147D01*
X149099853Y-134425646D01*
X149198456Y-134573216D01*
X149266376Y-134737188D01*
X149301000Y-134911259D01*
X149301000Y-135088741D01*
X149266376Y-135262812D01*
X149198456Y-135426784D01*
X149099853Y-135574354D01*
X148974354Y-135699853D01*
X148826784Y-135798456D01*
X148662812Y-135866376D01*
X148513512Y-135896073D01*
X148488742Y-135901000D01*
X148311258Y-135901000D01*
X148286488Y-135896073D01*
X148137188Y-135866376D01*
X147973216Y-135798456D01*
X147825646Y-135699853D01*
X147700147Y-135574354D01*
X147601544Y-135426784D01*
X147533624Y-135262812D01*
X147499000Y-135088741D01*
X147499000Y-134911259D01*
X147533624Y-134737188D01*
X147601544Y-134573216D01*
X147700147Y-134425646D01*
X147825646Y-134300147D01*
X147973216Y-134201544D01*
X148137188Y-134133624D01*
X148286488Y-134103927D01*
X148311258Y-134099000D01*
X148488742Y-134099000D01*
X148513512Y-134103927D01*
G37*
G36*
X145973512Y-134103927D02*
G01*
X146122812Y-134133624D01*
X146286784Y-134201544D01*
X146434354Y-134300147D01*
X146559853Y-134425646D01*
X146658456Y-134573216D01*
X146726376Y-134737188D01*
X146761000Y-134911259D01*
X146761000Y-135088741D01*
X146726376Y-135262812D01*
X146658456Y-135426784D01*
X146559853Y-135574354D01*
X146434354Y-135699853D01*
X146286784Y-135798456D01*
X146122812Y-135866376D01*
X145973512Y-135896073D01*
X145948742Y-135901000D01*
X145771258Y-135901000D01*
X145746488Y-135896073D01*
X145597188Y-135866376D01*
X145433216Y-135798456D01*
X145285646Y-135699853D01*
X145160147Y-135574354D01*
X145061544Y-135426784D01*
X144993624Y-135262812D01*
X144959000Y-135088741D01*
X144959000Y-134911259D01*
X144993624Y-134737188D01*
X145061544Y-134573216D01*
X145160147Y-134425646D01*
X145285646Y-134300147D01*
X145433216Y-134201544D01*
X145597188Y-134133624D01*
X145746488Y-134103927D01*
X145771258Y-134099000D01*
X145948742Y-134099000D01*
X145973512Y-134103927D01*
G37*
G36*
X143433512Y-134103927D02*
G01*
X143582812Y-134133624D01*
X143746784Y-134201544D01*
X143894354Y-134300147D01*
X144019853Y-134425646D01*
X144118456Y-134573216D01*
X144186376Y-134737188D01*
X144221000Y-134911259D01*
X144221000Y-135088741D01*
X144186376Y-135262812D01*
X144118456Y-135426784D01*
X144019853Y-135574354D01*
X143894354Y-135699853D01*
X143746784Y-135798456D01*
X143582812Y-135866376D01*
X143433512Y-135896073D01*
X143408742Y-135901000D01*
X143231258Y-135901000D01*
X143206488Y-135896073D01*
X143057188Y-135866376D01*
X142893216Y-135798456D01*
X142745646Y-135699853D01*
X142620147Y-135574354D01*
X142521544Y-135426784D01*
X142453624Y-135262812D01*
X142419000Y-135088741D01*
X142419000Y-134911259D01*
X142453624Y-134737188D01*
X142521544Y-134573216D01*
X142620147Y-134425646D01*
X142745646Y-134300147D01*
X142893216Y-134201544D01*
X143057188Y-134133624D01*
X143206488Y-134103927D01*
X143231258Y-134099000D01*
X143408742Y-134099000D01*
X143433512Y-134103927D01*
G37*
G36*
X138353512Y-134103927D02*
G01*
X138502812Y-134133624D01*
X138666784Y-134201544D01*
X138814354Y-134300147D01*
X138939853Y-134425646D01*
X139038456Y-134573216D01*
X139106376Y-134737188D01*
X139141000Y-134911259D01*
X139141000Y-135088741D01*
X139106376Y-135262812D01*
X139038456Y-135426784D01*
X138939853Y-135574354D01*
X138814354Y-135699853D01*
X138666784Y-135798456D01*
X138502812Y-135866376D01*
X138353512Y-135896073D01*
X138328742Y-135901000D01*
X138151258Y-135901000D01*
X138126488Y-135896073D01*
X137977188Y-135866376D01*
X137813216Y-135798456D01*
X137665646Y-135699853D01*
X137540147Y-135574354D01*
X137441544Y-135426784D01*
X137373624Y-135262812D01*
X137339000Y-135088741D01*
X137339000Y-134911259D01*
X137373624Y-134737188D01*
X137441544Y-134573216D01*
X137540147Y-134425646D01*
X137665646Y-134300147D01*
X137813216Y-134201544D01*
X137977188Y-134133624D01*
X138126488Y-134103927D01*
X138151258Y-134099000D01*
X138328742Y-134099000D01*
X138353512Y-134103927D01*
G37*
G36*
X135813512Y-134103927D02*
G01*
X135962812Y-134133624D01*
X136126784Y-134201544D01*
X136274354Y-134300147D01*
X136399853Y-134425646D01*
X136498456Y-134573216D01*
X136566376Y-134737188D01*
X136601000Y-134911259D01*
X136601000Y-135088741D01*
X136566376Y-135262812D01*
X136498456Y-135426784D01*
X136399853Y-135574354D01*
X136274354Y-135699853D01*
X136126784Y-135798456D01*
X135962812Y-135866376D01*
X135813512Y-135896073D01*
X135788742Y-135901000D01*
X135611258Y-135901000D01*
X135586488Y-135896073D01*
X135437188Y-135866376D01*
X135273216Y-135798456D01*
X135125646Y-135699853D01*
X135000147Y-135574354D01*
X134901544Y-135426784D01*
X134833624Y-135262812D01*
X134799000Y-135088741D01*
X134799000Y-134911259D01*
X134833624Y-134737188D01*
X134901544Y-134573216D01*
X135000147Y-134425646D01*
X135125646Y-134300147D01*
X135273216Y-134201544D01*
X135437188Y-134133624D01*
X135586488Y-134103927D01*
X135611258Y-134099000D01*
X135788742Y-134099000D01*
X135813512Y-134103927D01*
G37*
G36*
X133273512Y-134103927D02*
G01*
X133422812Y-134133624D01*
X133586784Y-134201544D01*
X133734354Y-134300147D01*
X133859853Y-134425646D01*
X133958456Y-134573216D01*
X134026376Y-134737188D01*
X134061000Y-134911259D01*
X134061000Y-135088741D01*
X134026376Y-135262812D01*
X133958456Y-135426784D01*
X133859853Y-135574354D01*
X133734354Y-135699853D01*
X133586784Y-135798456D01*
X133422812Y-135866376D01*
X133273512Y-135896073D01*
X133248742Y-135901000D01*
X133071258Y-135901000D01*
X133046488Y-135896073D01*
X132897188Y-135866376D01*
X132733216Y-135798456D01*
X132585646Y-135699853D01*
X132460147Y-135574354D01*
X132361544Y-135426784D01*
X132293624Y-135262812D01*
X132259000Y-135088741D01*
X132259000Y-134911259D01*
X132293624Y-134737188D01*
X132361544Y-134573216D01*
X132460147Y-134425646D01*
X132585646Y-134300147D01*
X132733216Y-134201544D01*
X132897188Y-134133624D01*
X133046488Y-134103927D01*
X133071258Y-134099000D01*
X133248742Y-134099000D01*
X133273512Y-134103927D01*
G37*
G36*
X130733512Y-134103927D02*
G01*
X130882812Y-134133624D01*
X131046784Y-134201544D01*
X131194354Y-134300147D01*
X131319853Y-134425646D01*
X131418456Y-134573216D01*
X131486376Y-134737188D01*
X131521000Y-134911259D01*
X131521000Y-135088741D01*
X131486376Y-135262812D01*
X131418456Y-135426784D01*
X131319853Y-135574354D01*
X131194354Y-135699853D01*
X131046784Y-135798456D01*
X130882812Y-135866376D01*
X130733512Y-135896073D01*
X130708742Y-135901000D01*
X130531258Y-135901000D01*
X130506488Y-135896073D01*
X130357188Y-135866376D01*
X130193216Y-135798456D01*
X130045646Y-135699853D01*
X129920147Y-135574354D01*
X129821544Y-135426784D01*
X129753624Y-135262812D01*
X129719000Y-135088741D01*
X129719000Y-134911259D01*
X129753624Y-134737188D01*
X129821544Y-134573216D01*
X129920147Y-134425646D01*
X130045646Y-134300147D01*
X130193216Y-134201544D01*
X130357188Y-134133624D01*
X130506488Y-134103927D01*
X130531258Y-134099000D01*
X130708742Y-134099000D01*
X130733512Y-134103927D01*
G37*
G36*
X123901000Y-135901000D02*
G01*
X122099000Y-135901000D01*
X122099000Y-134099000D01*
X123901000Y-134099000D01*
X123901000Y-135901000D01*
G37*
G36*
X128193512Y-134103927D02*
G01*
X128342812Y-134133624D01*
X128506784Y-134201544D01*
X128654354Y-134300147D01*
X128779853Y-134425646D01*
X128878456Y-134573216D01*
X128946376Y-134737188D01*
X128981000Y-134911259D01*
X128981000Y-135088741D01*
X128946376Y-135262812D01*
X128878456Y-135426784D01*
X128779853Y-135574354D01*
X128654354Y-135699853D01*
X128506784Y-135798456D01*
X128342812Y-135866376D01*
X128193512Y-135896073D01*
X128168742Y-135901000D01*
X127991258Y-135901000D01*
X127966488Y-135896073D01*
X127817188Y-135866376D01*
X127653216Y-135798456D01*
X127505646Y-135699853D01*
X127380147Y-135574354D01*
X127281544Y-135426784D01*
X127213624Y-135262812D01*
X127179000Y-135088741D01*
X127179000Y-134911259D01*
X127213624Y-134737188D01*
X127281544Y-134573216D01*
X127380147Y-134425646D01*
X127505646Y-134300147D01*
X127653216Y-134201544D01*
X127817188Y-134133624D01*
X127966488Y-134103927D01*
X127991258Y-134099000D01*
X128168742Y-134099000D01*
X128193512Y-134103927D01*
G37*
G36*
X140893512Y-134103927D02*
G01*
X141042812Y-134133624D01*
X141206784Y-134201544D01*
X141354354Y-134300147D01*
X141479853Y-134425646D01*
X141578456Y-134573216D01*
X141646376Y-134737188D01*
X141681000Y-134911259D01*
X141681000Y-135088741D01*
X141646376Y-135262812D01*
X141578456Y-135426784D01*
X141479853Y-135574354D01*
X141354354Y-135699853D01*
X141206784Y-135798456D01*
X141042812Y-135866376D01*
X140893512Y-135896073D01*
X140868742Y-135901000D01*
X140691258Y-135901000D01*
X140666488Y-135896073D01*
X140517188Y-135866376D01*
X140353216Y-135798456D01*
X140205646Y-135699853D01*
X140080147Y-135574354D01*
X139981544Y-135426784D01*
X139913624Y-135262812D01*
X139879000Y-135088741D01*
X139879000Y-134911259D01*
X139913624Y-134737188D01*
X139981544Y-134573216D01*
X140080147Y-134425646D01*
X140205646Y-134300147D01*
X140353216Y-134201544D01*
X140517188Y-134133624D01*
X140666488Y-134103927D01*
X140691258Y-134099000D01*
X140868742Y-134099000D01*
X140893512Y-134103927D01*
G37*
G36*
X112851000Y-131251000D02*
G01*
X111449000Y-131251000D01*
X111449000Y-129599000D01*
X112851000Y-129599000D01*
X112851000Y-131251000D01*
G37*
G36*
X117351000Y-131251000D02*
G01*
X115949000Y-131251000D01*
X115949000Y-129599000D01*
X117351000Y-129599000D01*
X117351000Y-131251000D01*
G37*
G36*
X108201000Y-130421000D02*
G01*
X105699000Y-130421000D01*
X105699000Y-129579000D01*
X108201000Y-129579000D01*
X108201000Y-130421000D01*
G37*
G36*
X104301000Y-130421000D02*
G01*
X101799000Y-130421000D01*
X101799000Y-129579000D01*
X104301000Y-129579000D01*
X104301000Y-130421000D01*
G37*
G36*
X104301000Y-129151000D02*
G01*
X101799000Y-129151000D01*
X101799000Y-128309000D01*
X104301000Y-128309000D01*
X104301000Y-129151000D01*
G37*
G36*
X108201000Y-129151000D02*
G01*
X105699000Y-129151000D01*
X105699000Y-128309000D01*
X108201000Y-128309000D01*
X108201000Y-129151000D01*
G37*
G36*
X112954591Y-127878085D02*
G01*
X112988569Y-127888393D01*
X113019890Y-127905134D01*
X113047339Y-127927661D01*
X113069866Y-127955110D01*
X113086607Y-127986431D01*
X113096915Y-128020409D01*
X113101000Y-128061890D01*
X113101000Y-128738110D01*
X113096915Y-128779591D01*
X113086607Y-128813569D01*
X113069866Y-128844890D01*
X113047339Y-128872339D01*
X113019890Y-128894866D01*
X112988569Y-128911607D01*
X112954591Y-128921915D01*
X112913110Y-128926000D01*
X112311890Y-128926000D01*
X112270409Y-128921915D01*
X112236431Y-128911607D01*
X112205110Y-128894866D01*
X112177661Y-128872339D01*
X112155134Y-128844890D01*
X112138393Y-128813569D01*
X112128085Y-128779591D01*
X112124000Y-128738110D01*
X112124000Y-128061890D01*
X112128085Y-128020409D01*
X112138393Y-127986431D01*
X112155134Y-127955110D01*
X112177661Y-127927661D01*
X112205110Y-127905134D01*
X112236431Y-127888393D01*
X112270409Y-127878085D01*
X112311890Y-127874000D01*
X112913110Y-127874000D01*
X112954591Y-127878085D01*
G37*
G36*
X114529591Y-127878085D02*
G01*
X114563569Y-127888393D01*
X114594890Y-127905134D01*
X114622339Y-127927661D01*
X114644866Y-127955110D01*
X114661607Y-127986431D01*
X114671915Y-128020409D01*
X114676000Y-128061890D01*
X114676000Y-128738110D01*
X114671915Y-128779591D01*
X114661607Y-128813569D01*
X114644866Y-128844890D01*
X114622339Y-128872339D01*
X114594890Y-128894866D01*
X114563569Y-128911607D01*
X114529591Y-128921915D01*
X114488110Y-128926000D01*
X113886890Y-128926000D01*
X113845409Y-128921915D01*
X113811431Y-128911607D01*
X113780110Y-128894866D01*
X113752661Y-128872339D01*
X113730134Y-128844890D01*
X113713393Y-128813569D01*
X113703085Y-128779591D01*
X113699000Y-128738110D01*
X113699000Y-128061890D01*
X113703085Y-128020409D01*
X113713393Y-127986431D01*
X113730134Y-127955110D01*
X113752661Y-127927661D01*
X113780110Y-127905134D01*
X113811431Y-127888393D01*
X113845409Y-127878085D01*
X113886890Y-127874000D01*
X114488110Y-127874000D01*
X114529591Y-127878085D01*
G37*
G36*
X151629591Y-127803085D02*
G01*
X151663569Y-127813393D01*
X151694890Y-127830134D01*
X151722339Y-127852661D01*
X151744866Y-127880110D01*
X151761607Y-127911431D01*
X151771915Y-127945409D01*
X151776000Y-127986890D01*
X151776000Y-128588110D01*
X151771915Y-128629591D01*
X151761607Y-128663569D01*
X151744866Y-128694890D01*
X151722339Y-128722339D01*
X151694890Y-128744866D01*
X151663569Y-128761607D01*
X151629591Y-128771915D01*
X151588110Y-128776000D01*
X150911890Y-128776000D01*
X150870409Y-128771915D01*
X150836431Y-128761607D01*
X150805110Y-128744866D01*
X150777661Y-128722339D01*
X150755134Y-128694890D01*
X150738393Y-128663569D01*
X150728085Y-128629591D01*
X150724000Y-128588110D01*
X150724000Y-127986890D01*
X150728085Y-127945409D01*
X150738393Y-127911431D01*
X150755134Y-127880110D01*
X150777661Y-127852661D01*
X150805110Y-127830134D01*
X150836431Y-127813393D01*
X150870409Y-127803085D01*
X150911890Y-127799000D01*
X151588110Y-127799000D01*
X151629591Y-127803085D01*
G37*
G36*
X104301000Y-127881000D02*
G01*
X101799000Y-127881000D01*
X101799000Y-127039000D01*
X104301000Y-127039000D01*
X104301000Y-127881000D01*
G37*
G36*
X108201000Y-127881000D02*
G01*
X105699000Y-127881000D01*
X105699000Y-127039000D01*
X108201000Y-127039000D01*
X108201000Y-127881000D01*
G37*
G36*
X169101000Y-127851000D02*
G01*
X167449000Y-127851000D01*
X167449000Y-126449000D01*
X169101000Y-126449000D01*
X169101000Y-127851000D01*
G37*
G36*
X161151000Y-127851000D02*
G01*
X159499000Y-127851000D01*
X159499000Y-126449000D01*
X161151000Y-126449000D01*
X161151000Y-127851000D01*
G37*
G36*
X151629591Y-126228085D02*
G01*
X151663569Y-126238393D01*
X151694890Y-126255134D01*
X151722339Y-126277661D01*
X151744866Y-126305110D01*
X151761607Y-126336431D01*
X151771915Y-126370409D01*
X151776000Y-126411890D01*
X151776000Y-127013110D01*
X151771915Y-127054591D01*
X151761607Y-127088569D01*
X151744866Y-127119890D01*
X151722339Y-127147339D01*
X151694890Y-127169866D01*
X151663569Y-127186607D01*
X151629591Y-127196915D01*
X151588110Y-127201000D01*
X150911890Y-127201000D01*
X150870409Y-127196915D01*
X150836431Y-127186607D01*
X150805110Y-127169866D01*
X150777661Y-127147339D01*
X150755134Y-127119890D01*
X150738393Y-127088569D01*
X150728085Y-127054591D01*
X150724000Y-127013110D01*
X150724000Y-126411890D01*
X150728085Y-126370409D01*
X150738393Y-126336431D01*
X150755134Y-126305110D01*
X150777661Y-126277661D01*
X150805110Y-126255134D01*
X150836431Y-126238393D01*
X150870409Y-126228085D01*
X150911890Y-126224000D01*
X151588110Y-126224000D01*
X151629591Y-126228085D01*
G37*
G36*
X108201000Y-126611000D02*
G01*
X105699000Y-126611000D01*
X105699000Y-125769000D01*
X108201000Y-125769000D01*
X108201000Y-126611000D01*
G37*
G36*
X104301000Y-126611000D02*
G01*
X101799000Y-126611000D01*
X101799000Y-125769000D01*
X104301000Y-125769000D01*
X104301000Y-126611000D01*
G37*
G36*
X145554591Y-124728085D02*
G01*
X145588569Y-124738393D01*
X145619890Y-124755134D01*
X145647339Y-124777661D01*
X145669866Y-124805110D01*
X145686607Y-124836431D01*
X145696915Y-124870409D01*
X145701000Y-124911890D01*
X145701000Y-125588110D01*
X145696915Y-125629591D01*
X145686607Y-125663569D01*
X145669866Y-125694890D01*
X145647339Y-125722339D01*
X145619890Y-125744866D01*
X145588569Y-125761607D01*
X145554591Y-125771915D01*
X145513110Y-125776000D01*
X144911890Y-125776000D01*
X144870409Y-125771915D01*
X144836431Y-125761607D01*
X144805110Y-125744866D01*
X144777661Y-125722339D01*
X144755134Y-125694890D01*
X144738393Y-125663569D01*
X144728085Y-125629591D01*
X144724000Y-125588110D01*
X144724000Y-124911890D01*
X144728085Y-124870409D01*
X144738393Y-124836431D01*
X144755134Y-124805110D01*
X144777661Y-124777661D01*
X144805110Y-124755134D01*
X144836431Y-124738393D01*
X144870409Y-124728085D01*
X144911890Y-124724000D01*
X145513110Y-124724000D01*
X145554591Y-124728085D01*
G37*
G36*
X151629591Y-124803085D02*
G01*
X151663569Y-124813393D01*
X151694890Y-124830134D01*
X151722339Y-124852661D01*
X151744866Y-124880110D01*
X151761607Y-124911431D01*
X151771915Y-124945409D01*
X151776000Y-124986890D01*
X151776000Y-125588110D01*
X151771915Y-125629591D01*
X151761607Y-125663569D01*
X151744866Y-125694890D01*
X151722339Y-125722339D01*
X151694890Y-125744866D01*
X151663569Y-125761607D01*
X151629591Y-125771915D01*
X151588110Y-125776000D01*
X150911890Y-125776000D01*
X150870409Y-125771915D01*
X150836431Y-125761607D01*
X150805110Y-125744866D01*
X150777661Y-125722339D01*
X150755134Y-125694890D01*
X150738393Y-125663569D01*
X150728085Y-125629591D01*
X150724000Y-125588110D01*
X150724000Y-124986890D01*
X150728085Y-124945409D01*
X150738393Y-124911431D01*
X150755134Y-124880110D01*
X150777661Y-124852661D01*
X150805110Y-124830134D01*
X150836431Y-124813393D01*
X150870409Y-124803085D01*
X150911890Y-124799000D01*
X151588110Y-124799000D01*
X151629591Y-124803085D01*
G37*
G36*
X147129591Y-124728085D02*
G01*
X147163569Y-124738393D01*
X147194890Y-124755134D01*
X147222339Y-124777661D01*
X147244866Y-124805110D01*
X147261607Y-124836431D01*
X147271915Y-124870409D01*
X147276000Y-124911890D01*
X147276000Y-125588110D01*
X147271915Y-125629591D01*
X147261607Y-125663569D01*
X147244866Y-125694890D01*
X147222339Y-125722339D01*
X147194890Y-125744866D01*
X147163569Y-125761607D01*
X147129591Y-125771915D01*
X147088110Y-125776000D01*
X146486890Y-125776000D01*
X146445409Y-125771915D01*
X146411431Y-125761607D01*
X146380110Y-125744866D01*
X146352661Y-125722339D01*
X146330134Y-125694890D01*
X146313393Y-125663569D01*
X146303085Y-125629591D01*
X146299000Y-125588110D01*
X146299000Y-124911890D01*
X146303085Y-124870409D01*
X146313393Y-124836431D01*
X146330134Y-124805110D01*
X146352661Y-124777661D01*
X146380110Y-124755134D01*
X146411431Y-124738393D01*
X146445409Y-124728085D01*
X146486890Y-124724000D01*
X147088110Y-124724000D01*
X147129591Y-124728085D01*
G37*
G36*
X140695568Y-120231775D02*
G01*
X140711960Y-120236748D01*
X140727072Y-120244825D01*
X140745081Y-120259605D01*
X140784926Y-120299450D01*
X140784937Y-120299459D01*
X141704883Y-121219405D01*
X141704892Y-121219416D01*
X141744737Y-121259261D01*
X141759517Y-121277270D01*
X141767594Y-121292382D01*
X141772567Y-121308774D01*
X141774246Y-121325825D01*
X141772567Y-121342876D01*
X141767594Y-121359268D01*
X141759517Y-121374380D01*
X141744737Y-121392389D01*
X141704892Y-121432234D01*
X141704883Y-121432245D01*
X141492043Y-121645085D01*
X141492032Y-121645094D01*
X141452187Y-121684939D01*
X141434178Y-121699719D01*
X141419066Y-121707796D01*
X141402674Y-121712769D01*
X141385623Y-121714448D01*
X141368575Y-121712769D01*
X141360261Y-121710247D01*
X141336227Y-121705467D01*
X141311723Y-121705467D01*
X141287690Y-121710248D01*
X141265051Y-121719625D01*
X141244677Y-121733239D01*
X141227350Y-121750566D01*
X141213736Y-121770941D01*
X141204359Y-121793579D01*
X141199579Y-121817613D01*
X141199579Y-121842117D01*
X141204360Y-121866150D01*
X141206881Y-121874459D01*
X141208560Y-121891510D01*
X141206881Y-121908561D01*
X141201908Y-121924953D01*
X141193831Y-121940065D01*
X141179051Y-121958074D01*
X141139206Y-121997919D01*
X141139197Y-121997930D01*
X140926357Y-122210770D01*
X140926346Y-122210779D01*
X140886501Y-122250624D01*
X140868492Y-122265404D01*
X140853380Y-122273481D01*
X140836988Y-122278454D01*
X140819937Y-122280133D01*
X140802886Y-122278454D01*
X140794577Y-122275933D01*
X140770544Y-122271152D01*
X140746040Y-122271152D01*
X140722007Y-122275932D01*
X140699368Y-122285309D01*
X140678993Y-122298923D01*
X140661666Y-122316250D01*
X140648052Y-122336624D01*
X140638675Y-122359263D01*
X140633894Y-122383296D01*
X140633894Y-122407800D01*
X140638674Y-122431834D01*
X140641196Y-122440148D01*
X140642875Y-122457196D01*
X140641196Y-122474247D01*
X140636223Y-122490639D01*
X140628146Y-122505751D01*
X140613366Y-122523760D01*
X140573521Y-122563605D01*
X140573512Y-122563616D01*
X140360672Y-122776456D01*
X140360661Y-122776465D01*
X140320816Y-122816310D01*
X140302807Y-122831090D01*
X140287695Y-122839167D01*
X140271303Y-122844140D01*
X140254252Y-122845819D01*
X140237201Y-122844140D01*
X140228892Y-122841619D01*
X140204859Y-122836838D01*
X140180355Y-122836838D01*
X140156322Y-122841618D01*
X140133683Y-122850995D01*
X140113308Y-122864609D01*
X140095981Y-122881936D01*
X140082367Y-122902310D01*
X140072990Y-122924949D01*
X140068209Y-122948982D01*
X140068209Y-122973486D01*
X140072990Y-122997521D01*
X140075511Y-123005830D01*
X140077190Y-123022881D01*
X140075511Y-123039932D01*
X140070538Y-123056324D01*
X140062461Y-123071436D01*
X140047681Y-123089445D01*
X140007836Y-123129290D01*
X140007827Y-123129301D01*
X139794987Y-123342141D01*
X139794976Y-123342150D01*
X139755131Y-123381995D01*
X139737122Y-123396775D01*
X139722010Y-123404852D01*
X139705618Y-123409825D01*
X139688567Y-123411504D01*
X139671519Y-123409825D01*
X139663205Y-123407303D01*
X139639171Y-123402523D01*
X139614667Y-123402523D01*
X139590634Y-123407304D01*
X139567995Y-123416681D01*
X139547621Y-123430295D01*
X139530294Y-123447622D01*
X139516680Y-123467997D01*
X139507303Y-123490635D01*
X139502523Y-123514669D01*
X139502523Y-123539173D01*
X139507303Y-123563205D01*
X139509825Y-123571519D01*
X139511504Y-123588567D01*
X139509825Y-123605618D01*
X139504852Y-123622010D01*
X139496775Y-123637122D01*
X139481995Y-123655131D01*
X139442150Y-123694976D01*
X139442141Y-123694987D01*
X139229301Y-123907827D01*
X139229290Y-123907836D01*
X139189445Y-123947681D01*
X139171436Y-123962461D01*
X139156324Y-123970538D01*
X139139932Y-123975511D01*
X139122881Y-123977190D01*
X139105830Y-123975511D01*
X139097521Y-123972990D01*
X139073488Y-123968209D01*
X139048984Y-123968209D01*
X139024951Y-123972989D01*
X139002312Y-123982366D01*
X138981937Y-123995980D01*
X138964610Y-124013307D01*
X138950996Y-124033681D01*
X138941619Y-124056320D01*
X138936838Y-124080353D01*
X138936838Y-124104857D01*
X138941619Y-124128892D01*
X138944140Y-124137201D01*
X138945819Y-124154252D01*
X138944140Y-124171303D01*
X138939167Y-124187695D01*
X138931090Y-124202807D01*
X138916310Y-124220816D01*
X138876465Y-124260661D01*
X138876456Y-124260672D01*
X138663616Y-124473512D01*
X138663605Y-124473521D01*
X138623760Y-124513366D01*
X138605751Y-124528146D01*
X138590639Y-124536223D01*
X138574247Y-124541196D01*
X138557196Y-124542875D01*
X138540148Y-124541196D01*
X138531834Y-124538674D01*
X138507800Y-124533894D01*
X138483296Y-124533894D01*
X138459263Y-124538675D01*
X138436624Y-124548052D01*
X138416250Y-124561666D01*
X138398923Y-124578993D01*
X138385309Y-124599368D01*
X138375932Y-124622006D01*
X138371152Y-124646040D01*
X138371152Y-124670544D01*
X138375933Y-124694577D01*
X138378454Y-124702886D01*
X138380133Y-124719937D01*
X138378454Y-124736988D01*
X138373481Y-124753380D01*
X138365404Y-124768492D01*
X138350624Y-124786501D01*
X138310779Y-124826346D01*
X138310770Y-124826357D01*
X138097930Y-125039197D01*
X138097919Y-125039206D01*
X138058074Y-125079051D01*
X138040065Y-125093831D01*
X138024953Y-125101908D01*
X138008561Y-125106881D01*
X137991510Y-125108560D01*
X137974459Y-125106881D01*
X137966150Y-125104360D01*
X137942117Y-125099579D01*
X137917613Y-125099579D01*
X137893580Y-125104359D01*
X137870941Y-125113736D01*
X137850566Y-125127350D01*
X137833239Y-125144677D01*
X137819625Y-125165051D01*
X137810248Y-125187690D01*
X137805467Y-125211723D01*
X137805467Y-125236227D01*
X137810247Y-125260261D01*
X137812769Y-125268575D01*
X137814448Y-125285623D01*
X137812769Y-125302674D01*
X137807796Y-125319066D01*
X137799719Y-125334178D01*
X137784939Y-125352187D01*
X137745094Y-125392032D01*
X137745085Y-125392043D01*
X137532245Y-125604883D01*
X137532234Y-125604892D01*
X137492389Y-125644737D01*
X137474380Y-125659517D01*
X137459268Y-125667594D01*
X137442876Y-125672567D01*
X137425825Y-125674246D01*
X137408774Y-125672567D01*
X137392382Y-125667594D01*
X137377270Y-125659517D01*
X137359261Y-125644737D01*
X137319416Y-125604892D01*
X137319405Y-125604883D01*
X136399459Y-124684937D01*
X136399450Y-124684926D01*
X136359605Y-124645081D01*
X136344825Y-124627072D01*
X136336748Y-124611960D01*
X136331775Y-124595568D01*
X136330096Y-124578517D01*
X136331775Y-124561466D01*
X136336748Y-124545074D01*
X136344825Y-124529962D01*
X136359605Y-124511953D01*
X136399450Y-124472108D01*
X136399459Y-124472097D01*
X136612299Y-124259257D01*
X136612310Y-124259248D01*
X136652155Y-124219403D01*
X136670164Y-124204623D01*
X136685276Y-124196546D01*
X136701668Y-124191573D01*
X136718719Y-124189894D01*
X136735770Y-124191573D01*
X136744079Y-124194094D01*
X136768112Y-124198875D01*
X136792616Y-124198875D01*
X136816649Y-124194095D01*
X136839288Y-124184718D01*
X136859663Y-124171104D01*
X136876990Y-124153777D01*
X136890604Y-124133403D01*
X136899981Y-124110764D01*
X136904762Y-124086731D01*
X136904762Y-124062227D01*
X136899982Y-124038193D01*
X136897460Y-124029879D01*
X136895781Y-124012831D01*
X136897460Y-123995780D01*
X136902433Y-123979388D01*
X136910510Y-123964276D01*
X136925290Y-123946267D01*
X136965135Y-123906422D01*
X136965144Y-123906411D01*
X137177984Y-123693571D01*
X137177995Y-123693562D01*
X137217840Y-123653717D01*
X137235849Y-123638937D01*
X137250961Y-123630860D01*
X137267353Y-123625887D01*
X137284404Y-123624208D01*
X137301452Y-123625887D01*
X137309766Y-123628409D01*
X137333800Y-123633189D01*
X137358304Y-123633189D01*
X137382337Y-123628408D01*
X137404976Y-123619031D01*
X137425350Y-123605417D01*
X137442677Y-123588090D01*
X137456291Y-123567715D01*
X137465668Y-123545077D01*
X137470448Y-123521043D01*
X137470448Y-123496539D01*
X137465667Y-123472506D01*
X137463146Y-123464197D01*
X137461467Y-123447146D01*
X137463146Y-123430095D01*
X137468119Y-123413703D01*
X137476196Y-123398591D01*
X137490976Y-123380582D01*
X137530821Y-123340737D01*
X137530830Y-123340726D01*
X137743670Y-123127886D01*
X137743681Y-123127877D01*
X137783526Y-123088032D01*
X137801535Y-123073252D01*
X137816647Y-123065175D01*
X137833039Y-123060202D01*
X137850090Y-123058523D01*
X137867141Y-123060202D01*
X137875450Y-123062723D01*
X137899483Y-123067504D01*
X137923987Y-123067504D01*
X137948020Y-123062724D01*
X137970659Y-123053347D01*
X137991034Y-123039733D01*
X138008361Y-123022406D01*
X138021975Y-123002032D01*
X138031352Y-122979393D01*
X138036133Y-122955360D01*
X138036133Y-122930856D01*
X138031352Y-122906821D01*
X138028831Y-122898512D01*
X138027152Y-122881461D01*
X138028831Y-122864410D01*
X138033804Y-122848018D01*
X138041881Y-122832906D01*
X138056661Y-122814897D01*
X138096506Y-122775052D01*
X138096515Y-122775041D01*
X138309355Y-122562201D01*
X138309366Y-122562192D01*
X138349211Y-122522347D01*
X138367220Y-122507567D01*
X138382332Y-122499490D01*
X138398724Y-122494517D01*
X138415775Y-122492838D01*
X138432823Y-122494517D01*
X138441137Y-122497039D01*
X138465171Y-122501819D01*
X138489675Y-122501819D01*
X138513708Y-122497038D01*
X138536347Y-122487661D01*
X138556721Y-122474047D01*
X138574048Y-122456720D01*
X138587662Y-122436345D01*
X138597039Y-122413707D01*
X138601819Y-122389673D01*
X138601819Y-122365169D01*
X138597039Y-122341137D01*
X138594517Y-122332823D01*
X138592838Y-122315775D01*
X138594517Y-122298724D01*
X138599490Y-122282332D01*
X138607567Y-122267220D01*
X138622347Y-122249211D01*
X138662192Y-122209366D01*
X138662201Y-122209355D01*
X138875041Y-121996515D01*
X138875052Y-121996506D01*
X138914897Y-121956661D01*
X138932906Y-121941881D01*
X138948018Y-121933804D01*
X138964410Y-121928831D01*
X138981461Y-121927152D01*
X138998512Y-121928831D01*
X139006821Y-121931352D01*
X139030854Y-121936133D01*
X139055358Y-121936133D01*
X139079391Y-121931353D01*
X139102030Y-121921976D01*
X139122405Y-121908362D01*
X139139732Y-121891035D01*
X139153346Y-121870661D01*
X139162723Y-121848022D01*
X139167504Y-121823989D01*
X139167504Y-121799485D01*
X139162723Y-121775450D01*
X139160202Y-121767141D01*
X139158523Y-121750090D01*
X139160202Y-121733039D01*
X139165175Y-121716647D01*
X139173252Y-121701535D01*
X139188032Y-121683526D01*
X139227877Y-121643681D01*
X139227886Y-121643670D01*
X139440726Y-121430830D01*
X139440737Y-121430821D01*
X139480582Y-121390976D01*
X139498591Y-121376196D01*
X139513703Y-121368119D01*
X139530095Y-121363146D01*
X139547146Y-121361467D01*
X139564197Y-121363146D01*
X139572506Y-121365667D01*
X139596539Y-121370448D01*
X139621043Y-121370448D01*
X139645076Y-121365668D01*
X139667715Y-121356291D01*
X139688090Y-121342677D01*
X139705417Y-121325350D01*
X139719031Y-121304976D01*
X139728408Y-121282337D01*
X139733189Y-121258304D01*
X139733189Y-121233800D01*
X139728409Y-121209766D01*
X139725887Y-121201452D01*
X139724208Y-121184404D01*
X139725887Y-121167353D01*
X139730860Y-121150961D01*
X139738937Y-121135849D01*
X139753717Y-121117840D01*
X139793562Y-121077995D01*
X139793571Y-121077984D01*
X140006411Y-120865144D01*
X140006422Y-120865135D01*
X140046267Y-120825290D01*
X140064276Y-120810510D01*
X140079388Y-120802433D01*
X140095780Y-120797460D01*
X140112831Y-120795781D01*
X140129879Y-120797460D01*
X140138193Y-120799982D01*
X140162227Y-120804762D01*
X140186731Y-120804762D01*
X140210764Y-120799981D01*
X140233403Y-120790604D01*
X140253777Y-120776990D01*
X140271104Y-120759663D01*
X140284718Y-120739288D01*
X140294095Y-120716650D01*
X140298875Y-120692616D01*
X140298875Y-120668112D01*
X140294094Y-120644079D01*
X140291573Y-120635770D01*
X140289894Y-120618719D01*
X140291573Y-120601668D01*
X140296546Y-120585276D01*
X140304623Y-120570164D01*
X140319403Y-120552155D01*
X140359248Y-120512310D01*
X140359257Y-120512299D01*
X140572097Y-120299459D01*
X140572108Y-120299450D01*
X140611953Y-120259605D01*
X140629962Y-120244825D01*
X140645074Y-120236748D01*
X140661466Y-120231775D01*
X140678517Y-120230096D01*
X140695568Y-120231775D01*
G37*
G36*
X131538534Y-120231775D02*
G01*
X131554926Y-120236748D01*
X131570038Y-120244825D01*
X131588047Y-120259605D01*
X131627892Y-120299450D01*
X131627903Y-120299459D01*
X131840743Y-120512299D01*
X131840752Y-120512310D01*
X131880597Y-120552155D01*
X131895377Y-120570164D01*
X131903454Y-120585276D01*
X131908427Y-120601668D01*
X131910106Y-120618719D01*
X131908427Y-120635770D01*
X131905906Y-120644079D01*
X131901125Y-120668112D01*
X131901125Y-120692616D01*
X131905905Y-120716649D01*
X131915282Y-120739288D01*
X131928896Y-120759663D01*
X131946223Y-120776990D01*
X131966597Y-120790604D01*
X131989236Y-120799981D01*
X132013269Y-120804762D01*
X132037773Y-120804762D01*
X132061807Y-120799982D01*
X132070121Y-120797460D01*
X132087169Y-120795781D01*
X132104220Y-120797460D01*
X132120612Y-120802433D01*
X132135724Y-120810510D01*
X132153733Y-120825290D01*
X132193578Y-120865135D01*
X132193589Y-120865144D01*
X132406429Y-121077984D01*
X132406438Y-121077995D01*
X132446283Y-121117840D01*
X132461063Y-121135849D01*
X132469140Y-121150961D01*
X132474113Y-121167353D01*
X132475792Y-121184404D01*
X132474113Y-121201452D01*
X132471591Y-121209766D01*
X132466811Y-121233800D01*
X132466811Y-121258304D01*
X132471592Y-121282337D01*
X132480969Y-121304976D01*
X132494583Y-121325350D01*
X132511910Y-121342677D01*
X132532285Y-121356291D01*
X132554923Y-121365668D01*
X132578957Y-121370448D01*
X132603461Y-121370448D01*
X132627494Y-121365667D01*
X132635803Y-121363146D01*
X132652854Y-121361467D01*
X132669905Y-121363146D01*
X132686297Y-121368119D01*
X132701409Y-121376196D01*
X132719418Y-121390976D01*
X132759263Y-121430821D01*
X132759274Y-121430830D01*
X132972114Y-121643670D01*
X132972123Y-121643681D01*
X133011968Y-121683526D01*
X133026748Y-121701535D01*
X133034825Y-121716647D01*
X133039798Y-121733039D01*
X133041477Y-121750090D01*
X133039798Y-121767141D01*
X133037277Y-121775450D01*
X133032496Y-121799483D01*
X133032496Y-121823987D01*
X133037276Y-121848020D01*
X133046653Y-121870659D01*
X133060267Y-121891034D01*
X133077594Y-121908361D01*
X133097968Y-121921975D01*
X133120607Y-121931352D01*
X133144640Y-121936133D01*
X133169144Y-121936133D01*
X133193179Y-121931352D01*
X133201488Y-121928831D01*
X133218539Y-121927152D01*
X133235590Y-121928831D01*
X133251982Y-121933804D01*
X133267094Y-121941881D01*
X133285103Y-121956661D01*
X133324948Y-121996506D01*
X133324959Y-121996515D01*
X133537799Y-122209355D01*
X133537808Y-122209366D01*
X133577653Y-122249211D01*
X133592433Y-122267220D01*
X133600510Y-122282332D01*
X133605483Y-122298724D01*
X133607162Y-122315775D01*
X133605483Y-122332823D01*
X133602961Y-122341137D01*
X133598181Y-122365171D01*
X133598181Y-122389675D01*
X133602962Y-122413708D01*
X133612339Y-122436347D01*
X133625953Y-122456721D01*
X133643280Y-122474048D01*
X133663655Y-122487662D01*
X133686293Y-122497039D01*
X133710327Y-122501819D01*
X133734831Y-122501819D01*
X133758863Y-122497039D01*
X133767177Y-122494517D01*
X133784225Y-122492838D01*
X133801276Y-122494517D01*
X133817668Y-122499490D01*
X133832780Y-122507567D01*
X133850789Y-122522347D01*
X133890634Y-122562192D01*
X133890645Y-122562201D01*
X134103485Y-122775041D01*
X134103494Y-122775052D01*
X134143339Y-122814897D01*
X134158119Y-122832906D01*
X134166196Y-122848018D01*
X134171169Y-122864410D01*
X134172848Y-122881461D01*
X134171169Y-122898512D01*
X134168648Y-122906821D01*
X134163867Y-122930854D01*
X134163867Y-122955358D01*
X134168647Y-122979391D01*
X134178024Y-123002030D01*
X134191638Y-123022405D01*
X134208965Y-123039732D01*
X134229339Y-123053346D01*
X134251978Y-123062723D01*
X134276011Y-123067504D01*
X134300515Y-123067504D01*
X134324550Y-123062723D01*
X134332859Y-123060202D01*
X134349910Y-123058523D01*
X134366961Y-123060202D01*
X134383353Y-123065175D01*
X134398465Y-123073252D01*
X134416474Y-123088032D01*
X134456319Y-123127877D01*
X134456330Y-123127886D01*
X134669170Y-123340726D01*
X134669179Y-123340737D01*
X134709024Y-123380582D01*
X134723804Y-123398591D01*
X134731881Y-123413703D01*
X134736854Y-123430095D01*
X134738533Y-123447146D01*
X134736854Y-123464197D01*
X134734333Y-123472506D01*
X134729552Y-123496539D01*
X134729552Y-123521043D01*
X134734332Y-123545076D01*
X134743709Y-123567715D01*
X134757323Y-123588090D01*
X134774650Y-123605417D01*
X134795024Y-123619031D01*
X134817663Y-123628408D01*
X134841696Y-123633189D01*
X134866200Y-123633189D01*
X134890234Y-123628409D01*
X134898548Y-123625887D01*
X134915596Y-123624208D01*
X134932647Y-123625887D01*
X134949039Y-123630860D01*
X134964151Y-123638937D01*
X134982160Y-123653717D01*
X135022005Y-123693562D01*
X135022016Y-123693571D01*
X135234856Y-123906411D01*
X135234865Y-123906422D01*
X135274710Y-123946267D01*
X135289490Y-123964276D01*
X135297567Y-123979388D01*
X135302540Y-123995780D01*
X135304219Y-124012831D01*
X135302540Y-124029879D01*
X135300018Y-124038193D01*
X135295238Y-124062227D01*
X135295238Y-124086731D01*
X135300019Y-124110764D01*
X135309396Y-124133403D01*
X135323010Y-124153777D01*
X135340337Y-124171104D01*
X135360712Y-124184718D01*
X135383350Y-124194095D01*
X135407384Y-124198875D01*
X135431888Y-124198875D01*
X135455921Y-124194094D01*
X135464230Y-124191573D01*
X135481281Y-124189894D01*
X135498332Y-124191573D01*
X135514724Y-124196546D01*
X135529836Y-124204623D01*
X135547845Y-124219403D01*
X135587690Y-124259248D01*
X135587701Y-124259257D01*
X135800541Y-124472097D01*
X135800550Y-124472108D01*
X135840395Y-124511953D01*
X135855175Y-124529962D01*
X135863252Y-124545074D01*
X135868225Y-124561466D01*
X135869904Y-124578517D01*
X135868225Y-124595568D01*
X135863252Y-124611960D01*
X135855175Y-124627072D01*
X135840395Y-124645081D01*
X135800550Y-124684926D01*
X135800541Y-124684937D01*
X134880595Y-125604883D01*
X134880584Y-125604892D01*
X134840739Y-125644737D01*
X134822730Y-125659517D01*
X134807618Y-125667594D01*
X134791226Y-125672567D01*
X134774175Y-125674246D01*
X134757124Y-125672567D01*
X134740732Y-125667594D01*
X134725620Y-125659517D01*
X134707611Y-125644737D01*
X134667766Y-125604892D01*
X134667755Y-125604883D01*
X134454915Y-125392043D01*
X134454906Y-125392032D01*
X134415061Y-125352187D01*
X134400281Y-125334178D01*
X134392204Y-125319066D01*
X134387231Y-125302674D01*
X134385552Y-125285623D01*
X134387231Y-125268575D01*
X134389753Y-125260261D01*
X134394533Y-125236227D01*
X134394533Y-125211723D01*
X134389752Y-125187690D01*
X134380375Y-125165051D01*
X134366761Y-125144677D01*
X134349434Y-125127350D01*
X134329059Y-125113736D01*
X134306421Y-125104359D01*
X134282387Y-125099579D01*
X134257883Y-125099579D01*
X134233850Y-125104360D01*
X134225541Y-125106881D01*
X134208490Y-125108560D01*
X134191439Y-125106881D01*
X134175047Y-125101908D01*
X134159935Y-125093831D01*
X134141926Y-125079051D01*
X134102081Y-125039206D01*
X134102070Y-125039197D01*
X133889230Y-124826357D01*
X133889221Y-124826346D01*
X133849376Y-124786501D01*
X133834596Y-124768492D01*
X133826519Y-124753380D01*
X133821546Y-124736988D01*
X133819867Y-124719937D01*
X133821546Y-124702886D01*
X133824067Y-124694577D01*
X133828848Y-124670544D01*
X133828848Y-124646040D01*
X133824068Y-124622007D01*
X133814691Y-124599368D01*
X133801077Y-124578993D01*
X133783750Y-124561666D01*
X133763376Y-124548052D01*
X133740737Y-124538675D01*
X133716704Y-124533894D01*
X133692200Y-124533894D01*
X133668166Y-124538674D01*
X133659852Y-124541196D01*
X133642804Y-124542875D01*
X133625753Y-124541196D01*
X133609361Y-124536223D01*
X133594249Y-124528146D01*
X133576240Y-124513366D01*
X133536395Y-124473521D01*
X133536384Y-124473512D01*
X133323544Y-124260672D01*
X133323535Y-124260661D01*
X133283690Y-124220816D01*
X133268910Y-124202807D01*
X133260833Y-124187695D01*
X133255860Y-124171303D01*
X133254181Y-124154252D01*
X133255860Y-124137201D01*
X133258381Y-124128892D01*
X133263162Y-124104859D01*
X133263162Y-124080355D01*
X133258382Y-124056322D01*
X133249005Y-124033683D01*
X133235391Y-124013308D01*
X133218064Y-123995981D01*
X133197690Y-123982367D01*
X133175051Y-123972990D01*
X133151018Y-123968209D01*
X133126514Y-123968209D01*
X133102479Y-123972990D01*
X133094170Y-123975511D01*
X133077119Y-123977190D01*
X133060068Y-123975511D01*
X133043676Y-123970538D01*
X133028564Y-123962461D01*
X133010555Y-123947681D01*
X132970710Y-123907836D01*
X132970699Y-123907827D01*
X132757859Y-123694987D01*
X132757850Y-123694976D01*
X132718005Y-123655131D01*
X132703225Y-123637122D01*
X132695148Y-123622010D01*
X132690175Y-123605618D01*
X132688496Y-123588567D01*
X132690175Y-123571519D01*
X132692697Y-123563205D01*
X132697477Y-123539171D01*
X132697477Y-123514667D01*
X132692696Y-123490634D01*
X132683319Y-123467995D01*
X132669705Y-123447621D01*
X132652378Y-123430294D01*
X132632003Y-123416680D01*
X132609365Y-123407303D01*
X132585331Y-123402523D01*
X132560827Y-123402523D01*
X132536795Y-123407303D01*
X132528481Y-123409825D01*
X132511433Y-123411504D01*
X132494382Y-123409825D01*
X132477990Y-123404852D01*
X132462878Y-123396775D01*
X132444869Y-123381995D01*
X132405024Y-123342150D01*
X132405013Y-123342141D01*
X132192173Y-123129301D01*
X132192164Y-123129290D01*
X132152319Y-123089445D01*
X132137539Y-123071436D01*
X132129462Y-123056324D01*
X132124489Y-123039932D01*
X132122810Y-123022881D01*
X132124489Y-123005830D01*
X132127010Y-122997521D01*
X132131791Y-122973488D01*
X132131791Y-122948984D01*
X132127011Y-122924951D01*
X132117634Y-122902312D01*
X132104020Y-122881937D01*
X132086693Y-122864610D01*
X132066319Y-122850996D01*
X132043680Y-122841619D01*
X132019647Y-122836838D01*
X131995143Y-122836838D01*
X131971108Y-122841619D01*
X131962799Y-122844140D01*
X131945748Y-122845819D01*
X131928697Y-122844140D01*
X131912305Y-122839167D01*
X131897193Y-122831090D01*
X131879184Y-122816310D01*
X131839339Y-122776465D01*
X131839328Y-122776456D01*
X131626488Y-122563616D01*
X131626479Y-122563605D01*
X131586634Y-122523760D01*
X131571854Y-122505751D01*
X131563777Y-122490639D01*
X131558804Y-122474247D01*
X131557125Y-122457196D01*
X131558804Y-122440148D01*
X131561326Y-122431834D01*
X131566106Y-122407800D01*
X131566106Y-122383296D01*
X131561325Y-122359263D01*
X131551948Y-122336624D01*
X131538334Y-122316250D01*
X131521007Y-122298923D01*
X131500632Y-122285309D01*
X131477994Y-122275932D01*
X131453960Y-122271152D01*
X131429456Y-122271152D01*
X131405423Y-122275933D01*
X131397114Y-122278454D01*
X131380063Y-122280133D01*
X131363012Y-122278454D01*
X131346620Y-122273481D01*
X131331508Y-122265404D01*
X131313499Y-122250624D01*
X131273654Y-122210779D01*
X131273643Y-122210770D01*
X131060803Y-121997930D01*
X131060794Y-121997919D01*
X131020949Y-121958074D01*
X131006169Y-121940065D01*
X130998092Y-121924953D01*
X130993119Y-121908561D01*
X130991440Y-121891510D01*
X130993119Y-121874459D01*
X130995640Y-121866150D01*
X131000421Y-121842117D01*
X131000421Y-121817613D01*
X130995641Y-121793580D01*
X130986264Y-121770941D01*
X130972650Y-121750566D01*
X130955323Y-121733239D01*
X130934949Y-121719625D01*
X130912310Y-121710248D01*
X130888277Y-121705467D01*
X130863773Y-121705467D01*
X130839739Y-121710247D01*
X130831425Y-121712769D01*
X130814377Y-121714448D01*
X130797326Y-121712769D01*
X130780934Y-121707796D01*
X130765822Y-121699719D01*
X130747813Y-121684939D01*
X130707968Y-121645094D01*
X130707957Y-121645085D01*
X130495117Y-121432245D01*
X130495108Y-121432234D01*
X130455263Y-121392389D01*
X130440483Y-121374380D01*
X130432406Y-121359268D01*
X130427433Y-121342876D01*
X130425754Y-121325825D01*
X130427433Y-121308774D01*
X130432406Y-121292382D01*
X130440483Y-121277270D01*
X130455263Y-121259261D01*
X130495108Y-121219416D01*
X130495117Y-121219405D01*
X131415063Y-120299459D01*
X131415074Y-120299450D01*
X131454919Y-120259605D01*
X131472928Y-120244825D01*
X131488040Y-120236748D01*
X131504432Y-120231775D01*
X131521483Y-120230096D01*
X131538534Y-120231775D01*
G37*
G36*
X108201000Y-125341000D02*
G01*
X105699000Y-125341000D01*
X105699000Y-124499000D01*
X108201000Y-124499000D01*
X108201000Y-125341000D01*
G37*
G36*
X104301000Y-125341000D02*
G01*
X101799000Y-125341000D01*
X101799000Y-124499000D01*
X104301000Y-124499000D01*
X104301000Y-125341000D01*
G37*
G36*
X151629591Y-123228085D02*
G01*
X151663569Y-123238393D01*
X151694890Y-123255134D01*
X151722339Y-123277661D01*
X151744866Y-123305110D01*
X151761607Y-123336431D01*
X151771915Y-123370409D01*
X151776000Y-123411890D01*
X151776000Y-124013110D01*
X151771915Y-124054591D01*
X151761607Y-124088569D01*
X151744866Y-124119890D01*
X151722339Y-124147339D01*
X151694890Y-124169866D01*
X151663569Y-124186607D01*
X151629591Y-124196915D01*
X151588110Y-124201000D01*
X150911890Y-124201000D01*
X150870409Y-124196915D01*
X150836431Y-124186607D01*
X150805110Y-124169866D01*
X150777661Y-124147339D01*
X150755134Y-124119890D01*
X150738393Y-124088569D01*
X150728085Y-124054591D01*
X150724000Y-124013110D01*
X150724000Y-123411890D01*
X150728085Y-123370409D01*
X150738393Y-123336431D01*
X150755134Y-123305110D01*
X150777661Y-123277661D01*
X150805110Y-123255134D01*
X150836431Y-123238393D01*
X150870409Y-123228085D01*
X150911890Y-123224000D01*
X151588110Y-123224000D01*
X151629591Y-123228085D01*
G37*
G36*
X161151000Y-123351000D02*
G01*
X159499000Y-123351000D01*
X159499000Y-121949000D01*
X161151000Y-121949000D01*
X161151000Y-123351000D01*
G37*
G36*
X169101000Y-123351000D02*
G01*
X167449000Y-123351000D01*
X167449000Y-121949000D01*
X169101000Y-121949000D01*
X169101000Y-123351000D01*
G37*
G36*
X152951000Y-121791000D02*
G01*
X150849000Y-121791000D01*
X150849000Y-119889000D01*
X152951000Y-119889000D01*
X152951000Y-121791000D01*
G37*
G36*
X148951000Y-121791000D02*
G01*
X146849000Y-121791000D01*
X146849000Y-119889000D01*
X148951000Y-119889000D01*
X148951000Y-121791000D01*
G37*
G36*
X127934468Y-120403565D02*
G01*
X127973138Y-120415296D01*
X128008777Y-120434346D01*
X128040017Y-120459983D01*
X128065654Y-120491223D01*
X128084704Y-120526862D01*
X128096435Y-120565532D01*
X128101000Y-120611888D01*
X128101000Y-121263112D01*
X128096435Y-121309468D01*
X128084704Y-121348138D01*
X128065654Y-121383777D01*
X128040017Y-121415017D01*
X128008777Y-121440654D01*
X127973138Y-121459704D01*
X127934468Y-121471435D01*
X127888112Y-121476000D01*
X126811888Y-121476000D01*
X126765532Y-121471435D01*
X126726862Y-121459704D01*
X126691223Y-121440654D01*
X126659983Y-121415017D01*
X126634346Y-121383777D01*
X126615296Y-121348138D01*
X126603565Y-121309468D01*
X126599000Y-121263112D01*
X126599000Y-120611888D01*
X126603565Y-120565532D01*
X126615296Y-120526862D01*
X126634346Y-120491223D01*
X126659983Y-120459983D01*
X126691223Y-120434346D01*
X126726862Y-120415296D01*
X126765532Y-120403565D01*
X126811888Y-120399000D01*
X127888112Y-120399000D01*
X127934468Y-120403565D01*
G37*
G36*
X129479591Y-120303085D02*
G01*
X129513569Y-120313393D01*
X129544890Y-120330134D01*
X129572339Y-120352661D01*
X129594866Y-120380110D01*
X129611607Y-120411431D01*
X129621915Y-120445409D01*
X129626000Y-120486890D01*
X129626000Y-121088110D01*
X129621915Y-121129591D01*
X129611607Y-121163569D01*
X129594866Y-121194890D01*
X129572339Y-121222339D01*
X129544890Y-121244866D01*
X129513569Y-121261607D01*
X129479591Y-121271915D01*
X129438110Y-121276000D01*
X128761890Y-121276000D01*
X128720409Y-121271915D01*
X128686431Y-121261607D01*
X128655110Y-121244866D01*
X128627661Y-121222339D01*
X128605134Y-121194890D01*
X128588393Y-121163569D01*
X128578085Y-121129591D01*
X128574000Y-121088110D01*
X128574000Y-120486890D01*
X128578085Y-120445409D01*
X128588393Y-120411431D01*
X128605134Y-120380110D01*
X128627661Y-120352661D01*
X128655110Y-120330134D01*
X128686431Y-120313393D01*
X128720409Y-120303085D01*
X128761890Y-120299000D01*
X129438110Y-120299000D01*
X129479591Y-120303085D01*
G37*
G36*
X143479591Y-120303085D02*
G01*
X143513569Y-120313393D01*
X143544890Y-120330134D01*
X143572339Y-120352661D01*
X143594866Y-120380110D01*
X143611607Y-120411431D01*
X143621915Y-120445409D01*
X143626000Y-120486890D01*
X143626000Y-121088110D01*
X143621915Y-121129591D01*
X143611607Y-121163569D01*
X143594866Y-121194890D01*
X143572339Y-121222339D01*
X143544890Y-121244866D01*
X143513569Y-121261607D01*
X143479591Y-121271915D01*
X143438110Y-121276000D01*
X142761890Y-121276000D01*
X142720409Y-121271915D01*
X142686431Y-121261607D01*
X142655110Y-121244866D01*
X142627661Y-121222339D01*
X142605134Y-121194890D01*
X142588393Y-121163569D01*
X142578085Y-121129591D01*
X142574000Y-121088110D01*
X142574000Y-120486890D01*
X142578085Y-120445409D01*
X142588393Y-120411431D01*
X142605134Y-120380110D01*
X142627661Y-120352661D01*
X142655110Y-120330134D01*
X142686431Y-120313393D01*
X142720409Y-120303085D01*
X142761890Y-120299000D01*
X143438110Y-120299000D01*
X143479591Y-120303085D01*
G37*
G36*
X103401000Y-120451000D02*
G01*
X100799000Y-120451000D01*
X100799000Y-118349000D01*
X103401000Y-118349000D01*
X103401000Y-120451000D01*
G37*
G36*
X108901000Y-120451000D02*
G01*
X106299000Y-120451000D01*
X106299000Y-118349000D01*
X108901000Y-118349000D01*
X108901000Y-120451000D01*
G37*
G36*
X164679591Y-119378085D02*
G01*
X164713569Y-119388393D01*
X164744890Y-119405134D01*
X164772339Y-119427661D01*
X164794866Y-119455110D01*
X164811607Y-119486431D01*
X164821915Y-119520409D01*
X164826000Y-119561890D01*
X164826000Y-120238110D01*
X164821915Y-120279591D01*
X164811607Y-120313569D01*
X164794866Y-120344890D01*
X164772339Y-120372339D01*
X164744890Y-120394866D01*
X164713569Y-120411607D01*
X164679591Y-120421915D01*
X164638110Y-120426000D01*
X164036890Y-120426000D01*
X163995409Y-120421915D01*
X163961431Y-120411607D01*
X163930110Y-120394866D01*
X163902661Y-120372339D01*
X163880134Y-120344890D01*
X163863393Y-120313569D01*
X163853085Y-120279591D01*
X163849000Y-120238110D01*
X163849000Y-119561890D01*
X163853085Y-119520409D01*
X163863393Y-119486431D01*
X163880134Y-119455110D01*
X163902661Y-119427661D01*
X163930110Y-119405134D01*
X163961431Y-119388393D01*
X163995409Y-119378085D01*
X164036890Y-119374000D01*
X164638110Y-119374000D01*
X164679591Y-119378085D01*
G37*
G36*
X163104591Y-119378085D02*
G01*
X163138569Y-119388393D01*
X163169890Y-119405134D01*
X163197339Y-119427661D01*
X163219866Y-119455110D01*
X163236607Y-119486431D01*
X163246915Y-119520409D01*
X163251000Y-119561890D01*
X163251000Y-120238110D01*
X163246915Y-120279591D01*
X163236607Y-120313569D01*
X163219866Y-120344890D01*
X163197339Y-120372339D01*
X163169890Y-120394866D01*
X163138569Y-120411607D01*
X163104591Y-120421915D01*
X163063110Y-120426000D01*
X162461890Y-120426000D01*
X162420409Y-120421915D01*
X162386431Y-120411607D01*
X162355110Y-120394866D01*
X162327661Y-120372339D01*
X162305134Y-120344890D01*
X162288393Y-120313569D01*
X162278085Y-120279591D01*
X162274000Y-120238110D01*
X162274000Y-119561890D01*
X162278085Y-119520409D01*
X162288393Y-119486431D01*
X162305134Y-119455110D01*
X162327661Y-119427661D01*
X162355110Y-119405134D01*
X162386431Y-119388393D01*
X162420409Y-119378085D01*
X162461890Y-119374000D01*
X163063110Y-119374000D01*
X163104591Y-119378085D01*
G37*
G36*
X161717091Y-119378085D02*
G01*
X161751069Y-119388393D01*
X161782390Y-119405134D01*
X161809839Y-119427661D01*
X161832366Y-119455110D01*
X161849107Y-119486431D01*
X161859415Y-119520409D01*
X161863500Y-119561890D01*
X161863500Y-120238110D01*
X161859415Y-120279591D01*
X161849107Y-120313569D01*
X161832366Y-120344890D01*
X161809839Y-120372339D01*
X161782390Y-120394866D01*
X161751069Y-120411607D01*
X161717091Y-120421915D01*
X161675610Y-120426000D01*
X161074390Y-120426000D01*
X161032909Y-120421915D01*
X160998931Y-120411607D01*
X160967610Y-120394866D01*
X160940161Y-120372339D01*
X160917634Y-120344890D01*
X160900893Y-120313569D01*
X160890585Y-120279591D01*
X160886500Y-120238110D01*
X160886500Y-119561890D01*
X160890585Y-119520409D01*
X160900893Y-119486431D01*
X160917634Y-119455110D01*
X160940161Y-119427661D01*
X160967610Y-119405134D01*
X160998931Y-119388393D01*
X161032909Y-119378085D01*
X161074390Y-119374000D01*
X161675610Y-119374000D01*
X161717091Y-119378085D01*
G37*
G36*
X160142091Y-119378085D02*
G01*
X160176069Y-119388393D01*
X160207390Y-119405134D01*
X160234839Y-119427661D01*
X160257366Y-119455110D01*
X160274107Y-119486431D01*
X160284415Y-119520409D01*
X160288500Y-119561890D01*
X160288500Y-120238110D01*
X160284415Y-120279591D01*
X160274107Y-120313569D01*
X160257366Y-120344890D01*
X160234839Y-120372339D01*
X160207390Y-120394866D01*
X160176069Y-120411607D01*
X160142091Y-120421915D01*
X160100610Y-120426000D01*
X159499390Y-120426000D01*
X159457909Y-120421915D01*
X159423931Y-120411607D01*
X159392610Y-120394866D01*
X159365161Y-120372339D01*
X159342634Y-120344890D01*
X159325893Y-120313569D01*
X159315585Y-120279591D01*
X159311500Y-120238110D01*
X159311500Y-119561890D01*
X159315585Y-119520409D01*
X159325893Y-119486431D01*
X159342634Y-119455110D01*
X159365161Y-119427661D01*
X159392610Y-119405134D01*
X159423931Y-119388393D01*
X159457909Y-119378085D01*
X159499390Y-119374000D01*
X160100610Y-119374000D01*
X160142091Y-119378085D01*
G37*
G36*
X134791226Y-114327433D02*
G01*
X134807618Y-114332406D01*
X134822730Y-114340483D01*
X134840739Y-114355263D01*
X134880584Y-114395108D01*
X134880595Y-114395117D01*
X135800541Y-115315063D01*
X135800550Y-115315074D01*
X135840395Y-115354919D01*
X135855175Y-115372928D01*
X135863252Y-115388040D01*
X135868225Y-115404432D01*
X135869904Y-115421483D01*
X135868225Y-115438534D01*
X135863252Y-115454926D01*
X135855175Y-115470038D01*
X135840395Y-115488047D01*
X135800550Y-115527892D01*
X135800541Y-115527903D01*
X135587701Y-115740743D01*
X135587690Y-115740752D01*
X135547845Y-115780597D01*
X135529836Y-115795377D01*
X135514724Y-115803454D01*
X135498332Y-115808427D01*
X135481281Y-115810106D01*
X135464230Y-115808427D01*
X135455921Y-115805906D01*
X135431888Y-115801125D01*
X135407384Y-115801125D01*
X135383351Y-115805905D01*
X135360712Y-115815282D01*
X135340337Y-115828896D01*
X135323010Y-115846223D01*
X135309396Y-115866597D01*
X135300019Y-115889236D01*
X135295238Y-115913269D01*
X135295238Y-115937773D01*
X135300018Y-115961807D01*
X135302540Y-115970121D01*
X135304219Y-115987169D01*
X135302540Y-116004220D01*
X135297567Y-116020612D01*
X135289490Y-116035724D01*
X135274710Y-116053733D01*
X135234865Y-116093578D01*
X135234856Y-116093589D01*
X135022016Y-116306429D01*
X135022005Y-116306438D01*
X134982160Y-116346283D01*
X134964151Y-116361063D01*
X134949039Y-116369140D01*
X134932647Y-116374113D01*
X134915596Y-116375792D01*
X134898548Y-116374113D01*
X134890234Y-116371591D01*
X134866200Y-116366811D01*
X134841696Y-116366811D01*
X134817663Y-116371592D01*
X134795024Y-116380969D01*
X134774650Y-116394583D01*
X134757323Y-116411910D01*
X134743709Y-116432285D01*
X134734332Y-116454923D01*
X134729552Y-116478957D01*
X134729552Y-116503461D01*
X134734333Y-116527494D01*
X134736854Y-116535803D01*
X134738533Y-116552854D01*
X134736854Y-116569905D01*
X134731881Y-116586297D01*
X134723804Y-116601409D01*
X134709024Y-116619418D01*
X134669179Y-116659263D01*
X134669170Y-116659274D01*
X134456330Y-116872114D01*
X134456319Y-116872123D01*
X134416474Y-116911968D01*
X134398465Y-116926748D01*
X134383353Y-116934825D01*
X134366961Y-116939798D01*
X134349910Y-116941477D01*
X134332859Y-116939798D01*
X134324550Y-116937277D01*
X134300517Y-116932496D01*
X134276013Y-116932496D01*
X134251980Y-116937276D01*
X134229341Y-116946653D01*
X134208966Y-116960267D01*
X134191639Y-116977594D01*
X134178025Y-116997968D01*
X134168648Y-117020607D01*
X134163867Y-117044640D01*
X134163867Y-117069144D01*
X134168648Y-117093179D01*
X134171169Y-117101488D01*
X134172848Y-117118539D01*
X134171169Y-117135590D01*
X134166196Y-117151982D01*
X134158119Y-117167094D01*
X134143339Y-117185103D01*
X134103494Y-117224948D01*
X134103485Y-117224959D01*
X133890645Y-117437799D01*
X133890634Y-117437808D01*
X133850789Y-117477653D01*
X133832780Y-117492433D01*
X133817668Y-117500510D01*
X133801276Y-117505483D01*
X133784225Y-117507162D01*
X133767177Y-117505483D01*
X133758863Y-117502961D01*
X133734829Y-117498181D01*
X133710325Y-117498181D01*
X133686292Y-117502962D01*
X133663653Y-117512339D01*
X133643279Y-117525953D01*
X133625952Y-117543280D01*
X133612338Y-117563655D01*
X133602961Y-117586293D01*
X133598181Y-117610327D01*
X133598181Y-117634831D01*
X133602961Y-117658863D01*
X133605483Y-117667177D01*
X133607162Y-117684225D01*
X133605483Y-117701276D01*
X133600510Y-117717668D01*
X133592433Y-117732780D01*
X133577653Y-117750789D01*
X133537808Y-117790634D01*
X133537799Y-117790645D01*
X133324959Y-118003485D01*
X133324948Y-118003494D01*
X133285103Y-118043339D01*
X133267094Y-118058119D01*
X133251982Y-118066196D01*
X133235590Y-118071169D01*
X133218539Y-118072848D01*
X133201488Y-118071169D01*
X133193179Y-118068648D01*
X133169146Y-118063867D01*
X133144642Y-118063867D01*
X133120609Y-118068647D01*
X133097970Y-118078024D01*
X133077595Y-118091638D01*
X133060268Y-118108965D01*
X133046654Y-118129339D01*
X133037277Y-118151978D01*
X133032496Y-118176011D01*
X133032496Y-118200515D01*
X133037277Y-118224550D01*
X133039798Y-118232859D01*
X133041477Y-118249910D01*
X133039798Y-118266961D01*
X133034825Y-118283353D01*
X133026748Y-118298465D01*
X133011968Y-118316474D01*
X132972123Y-118356319D01*
X132972114Y-118356330D01*
X132759274Y-118569170D01*
X132759263Y-118569179D01*
X132719418Y-118609024D01*
X132701409Y-118623804D01*
X132686297Y-118631881D01*
X132669905Y-118636854D01*
X132652854Y-118638533D01*
X132635803Y-118636854D01*
X132627494Y-118634333D01*
X132603461Y-118629552D01*
X132578957Y-118629552D01*
X132554924Y-118634332D01*
X132532285Y-118643709D01*
X132511910Y-118657323D01*
X132494583Y-118674650D01*
X132480969Y-118695024D01*
X132471592Y-118717663D01*
X132466811Y-118741696D01*
X132466811Y-118766200D01*
X132471591Y-118790234D01*
X132474113Y-118798548D01*
X132475792Y-118815596D01*
X132474113Y-118832647D01*
X132469140Y-118849039D01*
X132461063Y-118864151D01*
X132446283Y-118882160D01*
X132406438Y-118922005D01*
X132406429Y-118922016D01*
X132193589Y-119134856D01*
X132193578Y-119134865D01*
X132153733Y-119174710D01*
X132135724Y-119189490D01*
X132120612Y-119197567D01*
X132104220Y-119202540D01*
X132087169Y-119204219D01*
X132070121Y-119202540D01*
X132061807Y-119200018D01*
X132037773Y-119195238D01*
X132013269Y-119195238D01*
X131989236Y-119200019D01*
X131966597Y-119209396D01*
X131946223Y-119223010D01*
X131928896Y-119240337D01*
X131915282Y-119260712D01*
X131905905Y-119283350D01*
X131901125Y-119307384D01*
X131901125Y-119331888D01*
X131905906Y-119355921D01*
X131908427Y-119364230D01*
X131910106Y-119381281D01*
X131908427Y-119398332D01*
X131903454Y-119414724D01*
X131895377Y-119429836D01*
X131880597Y-119447845D01*
X131840752Y-119487690D01*
X131840743Y-119487701D01*
X131627903Y-119700541D01*
X131627892Y-119700550D01*
X131588047Y-119740395D01*
X131570038Y-119755175D01*
X131554926Y-119763252D01*
X131538534Y-119768225D01*
X131521483Y-119769904D01*
X131504432Y-119768225D01*
X131488040Y-119763252D01*
X131472928Y-119755175D01*
X131454919Y-119740395D01*
X131415074Y-119700550D01*
X131415063Y-119700541D01*
X130495117Y-118780595D01*
X130495108Y-118780584D01*
X130455263Y-118740739D01*
X130440483Y-118722730D01*
X130432406Y-118707618D01*
X130427433Y-118691226D01*
X130425754Y-118674175D01*
X130427433Y-118657124D01*
X130432406Y-118640732D01*
X130440483Y-118625620D01*
X130455263Y-118607611D01*
X130495108Y-118567766D01*
X130495117Y-118567755D01*
X130707957Y-118354915D01*
X130707968Y-118354906D01*
X130747813Y-118315061D01*
X130765822Y-118300281D01*
X130780934Y-118292204D01*
X130797326Y-118287231D01*
X130814377Y-118285552D01*
X130831425Y-118287231D01*
X130839739Y-118289753D01*
X130863773Y-118294533D01*
X130888277Y-118294533D01*
X130912310Y-118289752D01*
X130934949Y-118280375D01*
X130955323Y-118266761D01*
X130972650Y-118249434D01*
X130986264Y-118229059D01*
X130995641Y-118206421D01*
X131000421Y-118182387D01*
X131000421Y-118157883D01*
X130995640Y-118133850D01*
X130993119Y-118125541D01*
X130991440Y-118108490D01*
X130993119Y-118091439D01*
X130998092Y-118075047D01*
X131006169Y-118059935D01*
X131020949Y-118041926D01*
X131060794Y-118002081D01*
X131060803Y-118002070D01*
X131273643Y-117789230D01*
X131273654Y-117789221D01*
X131313499Y-117749376D01*
X131331508Y-117734596D01*
X131346620Y-117726519D01*
X131363012Y-117721546D01*
X131380063Y-117719867D01*
X131397114Y-117721546D01*
X131405423Y-117724067D01*
X131429456Y-117728848D01*
X131453960Y-117728848D01*
X131477993Y-117724068D01*
X131500632Y-117714691D01*
X131521007Y-117701077D01*
X131538334Y-117683750D01*
X131551948Y-117663376D01*
X131561325Y-117640737D01*
X131566106Y-117616704D01*
X131566106Y-117592200D01*
X131561326Y-117568166D01*
X131558804Y-117559852D01*
X131557125Y-117542804D01*
X131558804Y-117525753D01*
X131563777Y-117509361D01*
X131571854Y-117494249D01*
X131586634Y-117476240D01*
X131626479Y-117436395D01*
X131626488Y-117436384D01*
X131839328Y-117223544D01*
X131839339Y-117223535D01*
X131879184Y-117183690D01*
X131897193Y-117168910D01*
X131912305Y-117160833D01*
X131928697Y-117155860D01*
X131945748Y-117154181D01*
X131962799Y-117155860D01*
X131971108Y-117158381D01*
X131995141Y-117163162D01*
X132019645Y-117163162D01*
X132043678Y-117158382D01*
X132066317Y-117149005D01*
X132086692Y-117135391D01*
X132104019Y-117118064D01*
X132117633Y-117097690D01*
X132127010Y-117075051D01*
X132131791Y-117051018D01*
X132131791Y-117026514D01*
X132127010Y-117002479D01*
X132124489Y-116994170D01*
X132122810Y-116977119D01*
X132124489Y-116960068D01*
X132129462Y-116943676D01*
X132137539Y-116928564D01*
X132152319Y-116910555D01*
X132192164Y-116870710D01*
X132192173Y-116870699D01*
X132405013Y-116657859D01*
X132405024Y-116657850D01*
X132444869Y-116618005D01*
X132462878Y-116603225D01*
X132477990Y-116595148D01*
X132494382Y-116590175D01*
X132511433Y-116588496D01*
X132528481Y-116590175D01*
X132536795Y-116592697D01*
X132560829Y-116597477D01*
X132585333Y-116597477D01*
X132609366Y-116592696D01*
X132632005Y-116583319D01*
X132652379Y-116569705D01*
X132669706Y-116552378D01*
X132683320Y-116532003D01*
X132692697Y-116509365D01*
X132697477Y-116485331D01*
X132697477Y-116460827D01*
X132692697Y-116436795D01*
X132690175Y-116428481D01*
X132688496Y-116411433D01*
X132690175Y-116394382D01*
X132695148Y-116377990D01*
X132703225Y-116362878D01*
X132718005Y-116344869D01*
X132757850Y-116305024D01*
X132757859Y-116305013D01*
X132970699Y-116092173D01*
X132970710Y-116092164D01*
X133010555Y-116052319D01*
X133028564Y-116037539D01*
X133043676Y-116029462D01*
X133060068Y-116024489D01*
X133077119Y-116022810D01*
X133094170Y-116024489D01*
X133102479Y-116027010D01*
X133126512Y-116031791D01*
X133151016Y-116031791D01*
X133175049Y-116027011D01*
X133197688Y-116017634D01*
X133218063Y-116004020D01*
X133235390Y-115986693D01*
X133249004Y-115966319D01*
X133258381Y-115943680D01*
X133263162Y-115919647D01*
X133263162Y-115895143D01*
X133258381Y-115871108D01*
X133255860Y-115862799D01*
X133254181Y-115845748D01*
X133255860Y-115828697D01*
X133260833Y-115812305D01*
X133268910Y-115797193D01*
X133283690Y-115779184D01*
X133323535Y-115739339D01*
X133323544Y-115739328D01*
X133536384Y-115526488D01*
X133536395Y-115526479D01*
X133576240Y-115486634D01*
X133594249Y-115471854D01*
X133609361Y-115463777D01*
X133625753Y-115458804D01*
X133642804Y-115457125D01*
X133659852Y-115458804D01*
X133668166Y-115461326D01*
X133692200Y-115466106D01*
X133716704Y-115466106D01*
X133740737Y-115461325D01*
X133763376Y-115451948D01*
X133783750Y-115438334D01*
X133801077Y-115421007D01*
X133814691Y-115400632D01*
X133824068Y-115377994D01*
X133828848Y-115353960D01*
X133828848Y-115329456D01*
X133824067Y-115305423D01*
X133821546Y-115297114D01*
X133819867Y-115280063D01*
X133821546Y-115263012D01*
X133826519Y-115246620D01*
X133834596Y-115231508D01*
X133849376Y-115213499D01*
X133889221Y-115173654D01*
X133889230Y-115173643D01*
X134102070Y-114960803D01*
X134102081Y-114960794D01*
X134141926Y-114920949D01*
X134159935Y-114906169D01*
X134175047Y-114898092D01*
X134191439Y-114893119D01*
X134208490Y-114891440D01*
X134225541Y-114893119D01*
X134233850Y-114895640D01*
X134257883Y-114900421D01*
X134282387Y-114900421D01*
X134306420Y-114895641D01*
X134329059Y-114886264D01*
X134349434Y-114872650D01*
X134366761Y-114855323D01*
X134380375Y-114834949D01*
X134389752Y-114812310D01*
X134394533Y-114788277D01*
X134394533Y-114763773D01*
X134389753Y-114739739D01*
X134387231Y-114731425D01*
X134385552Y-114714377D01*
X134387231Y-114697326D01*
X134392204Y-114680934D01*
X134400281Y-114665822D01*
X134415061Y-114647813D01*
X134454906Y-114607968D01*
X134454915Y-114607957D01*
X134667755Y-114395117D01*
X134667766Y-114395108D01*
X134707611Y-114355263D01*
X134725620Y-114340483D01*
X134740732Y-114332406D01*
X134757124Y-114327433D01*
X134774175Y-114325754D01*
X134791226Y-114327433D01*
G37*
G36*
X137442876Y-114327433D02*
G01*
X137459268Y-114332406D01*
X137474380Y-114340483D01*
X137492389Y-114355263D01*
X137532234Y-114395108D01*
X137532245Y-114395117D01*
X137745085Y-114607957D01*
X137745094Y-114607968D01*
X137784939Y-114647813D01*
X137799719Y-114665822D01*
X137807796Y-114680934D01*
X137812769Y-114697326D01*
X137814448Y-114714377D01*
X137812769Y-114731425D01*
X137810247Y-114739739D01*
X137805467Y-114763773D01*
X137805467Y-114788277D01*
X137810248Y-114812310D01*
X137819625Y-114834949D01*
X137833239Y-114855323D01*
X137850566Y-114872650D01*
X137870941Y-114886264D01*
X137893579Y-114895641D01*
X137917613Y-114900421D01*
X137942117Y-114900421D01*
X137966150Y-114895640D01*
X137974459Y-114893119D01*
X137991510Y-114891440D01*
X138008561Y-114893119D01*
X138024953Y-114898092D01*
X138040065Y-114906169D01*
X138058074Y-114920949D01*
X138097919Y-114960794D01*
X138097930Y-114960803D01*
X138310770Y-115173643D01*
X138310779Y-115173654D01*
X138350624Y-115213499D01*
X138365404Y-115231508D01*
X138373481Y-115246620D01*
X138378454Y-115263012D01*
X138380133Y-115280063D01*
X138378454Y-115297114D01*
X138375933Y-115305423D01*
X138371152Y-115329456D01*
X138371152Y-115353960D01*
X138375932Y-115377993D01*
X138385309Y-115400632D01*
X138398923Y-115421007D01*
X138416250Y-115438334D01*
X138436624Y-115451948D01*
X138459263Y-115461325D01*
X138483296Y-115466106D01*
X138507800Y-115466106D01*
X138531834Y-115461326D01*
X138540148Y-115458804D01*
X138557196Y-115457125D01*
X138574247Y-115458804D01*
X138590639Y-115463777D01*
X138605751Y-115471854D01*
X138623760Y-115486634D01*
X138663605Y-115526479D01*
X138663616Y-115526488D01*
X138876456Y-115739328D01*
X138876465Y-115739339D01*
X138916310Y-115779184D01*
X138931090Y-115797193D01*
X138939167Y-115812305D01*
X138944140Y-115828697D01*
X138945819Y-115845748D01*
X138944140Y-115862799D01*
X138941619Y-115871108D01*
X138936838Y-115895141D01*
X138936838Y-115919645D01*
X138941618Y-115943678D01*
X138950995Y-115966317D01*
X138964609Y-115986692D01*
X138981936Y-116004019D01*
X139002310Y-116017633D01*
X139024949Y-116027010D01*
X139048982Y-116031791D01*
X139073486Y-116031791D01*
X139097521Y-116027010D01*
X139105830Y-116024489D01*
X139122881Y-116022810D01*
X139139932Y-116024489D01*
X139156324Y-116029462D01*
X139171436Y-116037539D01*
X139189445Y-116052319D01*
X139229290Y-116092164D01*
X139229301Y-116092173D01*
X139442141Y-116305013D01*
X139442150Y-116305024D01*
X139481995Y-116344869D01*
X139496775Y-116362878D01*
X139504852Y-116377990D01*
X139509825Y-116394382D01*
X139511504Y-116411433D01*
X139509825Y-116428481D01*
X139507303Y-116436795D01*
X139502523Y-116460829D01*
X139502523Y-116485333D01*
X139507304Y-116509366D01*
X139516681Y-116532005D01*
X139530295Y-116552379D01*
X139547622Y-116569706D01*
X139567997Y-116583320D01*
X139590635Y-116592697D01*
X139614669Y-116597477D01*
X139639173Y-116597477D01*
X139663205Y-116592697D01*
X139671519Y-116590175D01*
X139688567Y-116588496D01*
X139705618Y-116590175D01*
X139722010Y-116595148D01*
X139737122Y-116603225D01*
X139755131Y-116618005D01*
X139794976Y-116657850D01*
X139794987Y-116657859D01*
X140007827Y-116870699D01*
X140007836Y-116870710D01*
X140047681Y-116910555D01*
X140062461Y-116928564D01*
X140070538Y-116943676D01*
X140075511Y-116960068D01*
X140077190Y-116977119D01*
X140075511Y-116994170D01*
X140072990Y-117002479D01*
X140068209Y-117026512D01*
X140068209Y-117051016D01*
X140072989Y-117075049D01*
X140082366Y-117097688D01*
X140095980Y-117118063D01*
X140113307Y-117135390D01*
X140133681Y-117149004D01*
X140156320Y-117158381D01*
X140180353Y-117163162D01*
X140204857Y-117163162D01*
X140228892Y-117158381D01*
X140237201Y-117155860D01*
X140254252Y-117154181D01*
X140271303Y-117155860D01*
X140287695Y-117160833D01*
X140302807Y-117168910D01*
X140320816Y-117183690D01*
X140360661Y-117223535D01*
X140360672Y-117223544D01*
X140573512Y-117436384D01*
X140573521Y-117436395D01*
X140613366Y-117476240D01*
X140628146Y-117494249D01*
X140636223Y-117509361D01*
X140641196Y-117525753D01*
X140642875Y-117542804D01*
X140641196Y-117559852D01*
X140638674Y-117568166D01*
X140633894Y-117592200D01*
X140633894Y-117616704D01*
X140638675Y-117640737D01*
X140648052Y-117663376D01*
X140661666Y-117683750D01*
X140678993Y-117701077D01*
X140699368Y-117714691D01*
X140722006Y-117724068D01*
X140746040Y-117728848D01*
X140770544Y-117728848D01*
X140794577Y-117724067D01*
X140802886Y-117721546D01*
X140819937Y-117719867D01*
X140836988Y-117721546D01*
X140853380Y-117726519D01*
X140868492Y-117734596D01*
X140886501Y-117749376D01*
X140926346Y-117789221D01*
X140926357Y-117789230D01*
X141139197Y-118002070D01*
X141139206Y-118002081D01*
X141179051Y-118041926D01*
X141193831Y-118059935D01*
X141201908Y-118075047D01*
X141206881Y-118091439D01*
X141208560Y-118108490D01*
X141206881Y-118125541D01*
X141204360Y-118133850D01*
X141199579Y-118157883D01*
X141199579Y-118182387D01*
X141204359Y-118206420D01*
X141213736Y-118229059D01*
X141227350Y-118249434D01*
X141244677Y-118266761D01*
X141265051Y-118280375D01*
X141287690Y-118289752D01*
X141311723Y-118294533D01*
X141336227Y-118294533D01*
X141360261Y-118289753D01*
X141368575Y-118287231D01*
X141385623Y-118285552D01*
X141402674Y-118287231D01*
X141419066Y-118292204D01*
X141434178Y-118300281D01*
X141452187Y-118315061D01*
X141492032Y-118354906D01*
X141492043Y-118354915D01*
X141704883Y-118567755D01*
X141704892Y-118567766D01*
X141744737Y-118607611D01*
X141759517Y-118625620D01*
X141767594Y-118640732D01*
X141772567Y-118657124D01*
X141774246Y-118674175D01*
X141772567Y-118691226D01*
X141767594Y-118707618D01*
X141759517Y-118722730D01*
X141744737Y-118740739D01*
X141704892Y-118780584D01*
X141704883Y-118780595D01*
X140784937Y-119700541D01*
X140784926Y-119700550D01*
X140745081Y-119740395D01*
X140727072Y-119755175D01*
X140711960Y-119763252D01*
X140695568Y-119768225D01*
X140678517Y-119769904D01*
X140661466Y-119768225D01*
X140645074Y-119763252D01*
X140629962Y-119755175D01*
X140611953Y-119740395D01*
X140572108Y-119700550D01*
X140572097Y-119700541D01*
X140359257Y-119487701D01*
X140359248Y-119487690D01*
X140319403Y-119447845D01*
X140304623Y-119429836D01*
X140296546Y-119414724D01*
X140291573Y-119398332D01*
X140289894Y-119381281D01*
X140291573Y-119364230D01*
X140294094Y-119355921D01*
X140298875Y-119331888D01*
X140298875Y-119307384D01*
X140294095Y-119283351D01*
X140284718Y-119260712D01*
X140271104Y-119240337D01*
X140253777Y-119223010D01*
X140233403Y-119209396D01*
X140210764Y-119200019D01*
X140186731Y-119195238D01*
X140162227Y-119195238D01*
X140138193Y-119200018D01*
X140129879Y-119202540D01*
X140112831Y-119204219D01*
X140095780Y-119202540D01*
X140079388Y-119197567D01*
X140064276Y-119189490D01*
X140046267Y-119174710D01*
X140006422Y-119134865D01*
X140006411Y-119134856D01*
X139793571Y-118922016D01*
X139793562Y-118922005D01*
X139753717Y-118882160D01*
X139738937Y-118864151D01*
X139730860Y-118849039D01*
X139725887Y-118832647D01*
X139724208Y-118815596D01*
X139725887Y-118798548D01*
X139728409Y-118790234D01*
X139733189Y-118766200D01*
X139733189Y-118741696D01*
X139728408Y-118717663D01*
X139719031Y-118695024D01*
X139705417Y-118674650D01*
X139688090Y-118657323D01*
X139667715Y-118643709D01*
X139645077Y-118634332D01*
X139621043Y-118629552D01*
X139596539Y-118629552D01*
X139572506Y-118634333D01*
X139564197Y-118636854D01*
X139547146Y-118638533D01*
X139530095Y-118636854D01*
X139513703Y-118631881D01*
X139498591Y-118623804D01*
X139480582Y-118609024D01*
X139440737Y-118569179D01*
X139440726Y-118569170D01*
X139227886Y-118356330D01*
X139227877Y-118356319D01*
X139188032Y-118316474D01*
X139173252Y-118298465D01*
X139165175Y-118283353D01*
X139160202Y-118266961D01*
X139158523Y-118249910D01*
X139160202Y-118232859D01*
X139162723Y-118224550D01*
X139167504Y-118200517D01*
X139167504Y-118176013D01*
X139162724Y-118151980D01*
X139153347Y-118129341D01*
X139139733Y-118108966D01*
X139122406Y-118091639D01*
X139102032Y-118078025D01*
X139079393Y-118068648D01*
X139055360Y-118063867D01*
X139030856Y-118063867D01*
X139006821Y-118068648D01*
X138998512Y-118071169D01*
X138981461Y-118072848D01*
X138964410Y-118071169D01*
X138948018Y-118066196D01*
X138932906Y-118058119D01*
X138914897Y-118043339D01*
X138875052Y-118003494D01*
X138875041Y-118003485D01*
X138662201Y-117790645D01*
X138662192Y-117790634D01*
X138622347Y-117750789D01*
X138607567Y-117732780D01*
X138599490Y-117717668D01*
X138594517Y-117701276D01*
X138592838Y-117684225D01*
X138594517Y-117667177D01*
X138597039Y-117658863D01*
X138601819Y-117634829D01*
X138601819Y-117610325D01*
X138597038Y-117586292D01*
X138587661Y-117563653D01*
X138574047Y-117543279D01*
X138556720Y-117525952D01*
X138536345Y-117512338D01*
X138513707Y-117502961D01*
X138489673Y-117498181D01*
X138465169Y-117498181D01*
X138441137Y-117502961D01*
X138432823Y-117505483D01*
X138415775Y-117507162D01*
X138398724Y-117505483D01*
X138382332Y-117500510D01*
X138367220Y-117492433D01*
X138349211Y-117477653D01*
X138309366Y-117437808D01*
X138309355Y-117437799D01*
X138096515Y-117224959D01*
X138096506Y-117224948D01*
X138056661Y-117185103D01*
X138041881Y-117167094D01*
X138033804Y-117151982D01*
X138028831Y-117135590D01*
X138027152Y-117118539D01*
X138028831Y-117101488D01*
X138031352Y-117093179D01*
X138036133Y-117069146D01*
X138036133Y-117044642D01*
X138031353Y-117020609D01*
X138021976Y-116997970D01*
X138008362Y-116977595D01*
X137991035Y-116960268D01*
X137970661Y-116946654D01*
X137948022Y-116937277D01*
X137923989Y-116932496D01*
X137899485Y-116932496D01*
X137875450Y-116937277D01*
X137867141Y-116939798D01*
X137850090Y-116941477D01*
X137833039Y-116939798D01*
X137816647Y-116934825D01*
X137801535Y-116926748D01*
X137783526Y-116911968D01*
X137743681Y-116872123D01*
X137743670Y-116872114D01*
X137530830Y-116659274D01*
X137530821Y-116659263D01*
X137490976Y-116619418D01*
X137476196Y-116601409D01*
X137468119Y-116586297D01*
X137463146Y-116569905D01*
X137461467Y-116552854D01*
X137463146Y-116535803D01*
X137465667Y-116527494D01*
X137470448Y-116503461D01*
X137470448Y-116478957D01*
X137465668Y-116454924D01*
X137456291Y-116432285D01*
X137442677Y-116411910D01*
X137425350Y-116394583D01*
X137404976Y-116380969D01*
X137382337Y-116371592D01*
X137358304Y-116366811D01*
X137333800Y-116366811D01*
X137309766Y-116371591D01*
X137301452Y-116374113D01*
X137284404Y-116375792D01*
X137267353Y-116374113D01*
X137250961Y-116369140D01*
X137235849Y-116361063D01*
X137217840Y-116346283D01*
X137177995Y-116306438D01*
X137177984Y-116306429D01*
X136965144Y-116093589D01*
X136965135Y-116093578D01*
X136925290Y-116053733D01*
X136910510Y-116035724D01*
X136902433Y-116020612D01*
X136897460Y-116004220D01*
X136895781Y-115987169D01*
X136897460Y-115970121D01*
X136899982Y-115961807D01*
X136904762Y-115937773D01*
X136904762Y-115913269D01*
X136899981Y-115889236D01*
X136890604Y-115866597D01*
X136876990Y-115846223D01*
X136859663Y-115828896D01*
X136839288Y-115815282D01*
X136816650Y-115805905D01*
X136792616Y-115801125D01*
X136768112Y-115801125D01*
X136744079Y-115805906D01*
X136735770Y-115808427D01*
X136718719Y-115810106D01*
X136701668Y-115808427D01*
X136685276Y-115803454D01*
X136670164Y-115795377D01*
X136652155Y-115780597D01*
X136612310Y-115740752D01*
X136612299Y-115740743D01*
X136399459Y-115527903D01*
X136399450Y-115527892D01*
X136359605Y-115488047D01*
X136344825Y-115470038D01*
X136336748Y-115454926D01*
X136331775Y-115438534D01*
X136330096Y-115421483D01*
X136331775Y-115404432D01*
X136336748Y-115388040D01*
X136344825Y-115372928D01*
X136359605Y-115354919D01*
X136399450Y-115315074D01*
X136399459Y-115315063D01*
X137319405Y-114395117D01*
X137319416Y-114395108D01*
X137359261Y-114355263D01*
X137377270Y-114340483D01*
X137392382Y-114332406D01*
X137408774Y-114327433D01*
X137425825Y-114325754D01*
X137442876Y-114327433D01*
G37*
G36*
X129479591Y-118728085D02*
G01*
X129513569Y-118738393D01*
X129544890Y-118755134D01*
X129572339Y-118777661D01*
X129594866Y-118805110D01*
X129611607Y-118836431D01*
X129621915Y-118870409D01*
X129626000Y-118911890D01*
X129626000Y-119513110D01*
X129621915Y-119554591D01*
X129611607Y-119588569D01*
X129594866Y-119619890D01*
X129572339Y-119647339D01*
X129544890Y-119669866D01*
X129513569Y-119686607D01*
X129479591Y-119696915D01*
X129438110Y-119701000D01*
X128761890Y-119701000D01*
X128720409Y-119696915D01*
X128686431Y-119686607D01*
X128655110Y-119669866D01*
X128627661Y-119647339D01*
X128605134Y-119619890D01*
X128588393Y-119588569D01*
X128578085Y-119554591D01*
X128574000Y-119513110D01*
X128574000Y-118911890D01*
X128578085Y-118870409D01*
X128588393Y-118836431D01*
X128605134Y-118805110D01*
X128627661Y-118777661D01*
X128655110Y-118755134D01*
X128686431Y-118738393D01*
X128720409Y-118728085D01*
X128761890Y-118724000D01*
X129438110Y-118724000D01*
X129479591Y-118728085D01*
G37*
G36*
X143479591Y-118728085D02*
G01*
X143513569Y-118738393D01*
X143544890Y-118755134D01*
X143572339Y-118777661D01*
X143594866Y-118805110D01*
X143611607Y-118836431D01*
X143621915Y-118870409D01*
X143626000Y-118911890D01*
X143626000Y-119513110D01*
X143621915Y-119554591D01*
X143611607Y-119588569D01*
X143594866Y-119619890D01*
X143572339Y-119647339D01*
X143544890Y-119669866D01*
X143513569Y-119686607D01*
X143479591Y-119696915D01*
X143438110Y-119701000D01*
X142761890Y-119701000D01*
X142720409Y-119696915D01*
X142686431Y-119686607D01*
X142655110Y-119669866D01*
X142627661Y-119647339D01*
X142605134Y-119619890D01*
X142588393Y-119588569D01*
X142578085Y-119554591D01*
X142574000Y-119513110D01*
X142574000Y-118911890D01*
X142578085Y-118870409D01*
X142588393Y-118836431D01*
X142605134Y-118805110D01*
X142627661Y-118777661D01*
X142655110Y-118755134D01*
X142686431Y-118738393D01*
X142720409Y-118728085D01*
X142761890Y-118724000D01*
X143438110Y-118724000D01*
X143479591Y-118728085D01*
G37*
G36*
X127934468Y-118528565D02*
G01*
X127973138Y-118540296D01*
X128008777Y-118559346D01*
X128040017Y-118584983D01*
X128065654Y-118616223D01*
X128084704Y-118651862D01*
X128096435Y-118690532D01*
X128101000Y-118736888D01*
X128101000Y-119388112D01*
X128096435Y-119434468D01*
X128084704Y-119473138D01*
X128065654Y-119508777D01*
X128040017Y-119540017D01*
X128008777Y-119565654D01*
X127973138Y-119584704D01*
X127934468Y-119596435D01*
X127888112Y-119601000D01*
X126811888Y-119601000D01*
X126765532Y-119596435D01*
X126726862Y-119584704D01*
X126691223Y-119565654D01*
X126659983Y-119540017D01*
X126634346Y-119508777D01*
X126615296Y-119473138D01*
X126603565Y-119434468D01*
X126599000Y-119388112D01*
X126599000Y-118736888D01*
X126603565Y-118690532D01*
X126615296Y-118651862D01*
X126634346Y-118616223D01*
X126659983Y-118584983D01*
X126691223Y-118559346D01*
X126726862Y-118540296D01*
X126765532Y-118528565D01*
X126811888Y-118524000D01*
X127888112Y-118524000D01*
X127934468Y-118528565D01*
G37*
G36*
X123801000Y-119451000D02*
G01*
X121199000Y-119451000D01*
X121199000Y-117549000D01*
X123801000Y-117549000D01*
X123801000Y-119451000D01*
G37*
G36*
X119801000Y-119451000D02*
G01*
X117199000Y-119451000D01*
X117199000Y-117549000D01*
X119801000Y-117549000D01*
X119801000Y-119451000D01*
G37*
G36*
X154779591Y-116815585D02*
G01*
X154813569Y-116825893D01*
X154844890Y-116842634D01*
X154872339Y-116865161D01*
X154894866Y-116892610D01*
X154911607Y-116923931D01*
X154921915Y-116957909D01*
X154926000Y-116999390D01*
X154926000Y-117600610D01*
X154921915Y-117642091D01*
X154911607Y-117676069D01*
X154894866Y-117707390D01*
X154872339Y-117734839D01*
X154844890Y-117757366D01*
X154813569Y-117774107D01*
X154779591Y-117784415D01*
X154738110Y-117788500D01*
X154061890Y-117788500D01*
X154020409Y-117784415D01*
X153986431Y-117774107D01*
X153955110Y-117757366D01*
X153927661Y-117734839D01*
X153905134Y-117707390D01*
X153888393Y-117676069D01*
X153878085Y-117642091D01*
X153874000Y-117600610D01*
X153874000Y-116999390D01*
X153878085Y-116957909D01*
X153888393Y-116923931D01*
X153905134Y-116892610D01*
X153927661Y-116865161D01*
X153955110Y-116842634D01*
X153986431Y-116825893D01*
X154020409Y-116815585D01*
X154061890Y-116811500D01*
X154738110Y-116811500D01*
X154779591Y-116815585D01*
G37*
G36*
X105097740Y-116708626D02*
G01*
X105146136Y-116718253D01*
X105183902Y-116733896D01*
X105237311Y-116756019D01*
X105237312Y-116756020D01*
X105319369Y-116810848D01*
X105389152Y-116880631D01*
X105409146Y-116910555D01*
X105443981Y-116962689D01*
X105481747Y-117053865D01*
X105501000Y-117150655D01*
X105501000Y-117249345D01*
X105481747Y-117346135D01*
X105443981Y-117437311D01*
X105417025Y-117477653D01*
X105389152Y-117519369D01*
X105319369Y-117589152D01*
X105287681Y-117610325D01*
X105237311Y-117643981D01*
X105201382Y-117658863D01*
X105146136Y-117681747D01*
X105097740Y-117691373D01*
X105049345Y-117701000D01*
X104950655Y-117701000D01*
X104902260Y-117691373D01*
X104853864Y-117681747D01*
X104798618Y-117658863D01*
X104762689Y-117643981D01*
X104712319Y-117610325D01*
X104680631Y-117589152D01*
X104610848Y-117519369D01*
X104582975Y-117477653D01*
X104556019Y-117437311D01*
X104518253Y-117346135D01*
X104499000Y-117249345D01*
X104499000Y-117150655D01*
X104518253Y-117053865D01*
X104556019Y-116962689D01*
X104590854Y-116910555D01*
X104610848Y-116880631D01*
X104680631Y-116810848D01*
X104762688Y-116756020D01*
X104762689Y-116756019D01*
X104816098Y-116733896D01*
X104853864Y-116718253D01*
X104902260Y-116708626D01*
X104950655Y-116699000D01*
X105049345Y-116699000D01*
X105097740Y-116708626D01*
G37*
G36*
X108901000Y-116901000D02*
G01*
X106299000Y-116901000D01*
X106299000Y-113099000D01*
X108901000Y-113099000D01*
X108901000Y-116901000D01*
G37*
G36*
X152951000Y-116711000D02*
G01*
X150849000Y-116711000D01*
X150849000Y-114809000D01*
X152951000Y-114809000D01*
X152951000Y-116711000D01*
G37*
G36*
X148951000Y-116711000D02*
G01*
X146849000Y-116711000D01*
X146849000Y-114809000D01*
X148951000Y-114809000D01*
X148951000Y-116711000D01*
G37*
G36*
X164554591Y-115378085D02*
G01*
X164588569Y-115388393D01*
X164619890Y-115405134D01*
X164647339Y-115427661D01*
X164669866Y-115455110D01*
X164686607Y-115486431D01*
X164696915Y-115520409D01*
X164701000Y-115561890D01*
X164701000Y-116238110D01*
X164696915Y-116279591D01*
X164686607Y-116313569D01*
X164669866Y-116344890D01*
X164647339Y-116372339D01*
X164619890Y-116394866D01*
X164588569Y-116411607D01*
X164554591Y-116421915D01*
X164513110Y-116426000D01*
X163911890Y-116426000D01*
X163870409Y-116421915D01*
X163836431Y-116411607D01*
X163805110Y-116394866D01*
X163777661Y-116372339D01*
X163755134Y-116344890D01*
X163738393Y-116313569D01*
X163728085Y-116279591D01*
X163724000Y-116238110D01*
X163724000Y-115561890D01*
X163728085Y-115520409D01*
X163738393Y-115486431D01*
X163755134Y-115455110D01*
X163777661Y-115427661D01*
X163805110Y-115405134D01*
X163836431Y-115388393D01*
X163870409Y-115378085D01*
X163911890Y-115374000D01*
X164513110Y-115374000D01*
X164554591Y-115378085D01*
G37*
G36*
X166129591Y-115378085D02*
G01*
X166163569Y-115388393D01*
X166194890Y-115405134D01*
X166222339Y-115427661D01*
X166244866Y-115455110D01*
X166261607Y-115486431D01*
X166271915Y-115520409D01*
X166276000Y-115561890D01*
X166276000Y-116238110D01*
X166271915Y-116279591D01*
X166261607Y-116313569D01*
X166244866Y-116344890D01*
X166222339Y-116372339D01*
X166194890Y-116394866D01*
X166163569Y-116411607D01*
X166129591Y-116421915D01*
X166088110Y-116426000D01*
X165486890Y-116426000D01*
X165445409Y-116421915D01*
X165411431Y-116411607D01*
X165380110Y-116394866D01*
X165352661Y-116372339D01*
X165330134Y-116344890D01*
X165313393Y-116313569D01*
X165303085Y-116279591D01*
X165299000Y-116238110D01*
X165299000Y-115561890D01*
X165303085Y-115520409D01*
X165313393Y-115486431D01*
X165330134Y-115455110D01*
X165352661Y-115427661D01*
X165380110Y-115405134D01*
X165411431Y-115388393D01*
X165445409Y-115378085D01*
X165486890Y-115374000D01*
X166088110Y-115374000D01*
X166129591Y-115378085D01*
G37*
G36*
X111481000Y-116326000D02*
G01*
X110319000Y-116326000D01*
X110319000Y-113674000D01*
X111481000Y-113674000D01*
X111481000Y-116326000D01*
G37*
G36*
X113681000Y-116326000D02*
G01*
X112519000Y-116326000D01*
X112519000Y-113674000D01*
X113681000Y-113674000D01*
X113681000Y-116326000D01*
G37*
G36*
X119379591Y-115228085D02*
G01*
X119413569Y-115238393D01*
X119444890Y-115255134D01*
X119472339Y-115277661D01*
X119494866Y-115305110D01*
X119511607Y-115336431D01*
X119521915Y-115370409D01*
X119526000Y-115411890D01*
X119526000Y-116088110D01*
X119521915Y-116129591D01*
X119511607Y-116163569D01*
X119494866Y-116194890D01*
X119472339Y-116222339D01*
X119444890Y-116244866D01*
X119413569Y-116261607D01*
X119379591Y-116271915D01*
X119338110Y-116276000D01*
X118736890Y-116276000D01*
X118695409Y-116271915D01*
X118661431Y-116261607D01*
X118630110Y-116244866D01*
X118602661Y-116222339D01*
X118580134Y-116194890D01*
X118563393Y-116163569D01*
X118553085Y-116129591D01*
X118549000Y-116088110D01*
X118549000Y-115411890D01*
X118553085Y-115370409D01*
X118563393Y-115336431D01*
X118580134Y-115305110D01*
X118602661Y-115277661D01*
X118630110Y-115255134D01*
X118661431Y-115238393D01*
X118695409Y-115228085D01*
X118736890Y-115224000D01*
X119338110Y-115224000D01*
X119379591Y-115228085D01*
G37*
G36*
X117804591Y-115228085D02*
G01*
X117838569Y-115238393D01*
X117869890Y-115255134D01*
X117897339Y-115277661D01*
X117919866Y-115305110D01*
X117936607Y-115336431D01*
X117946915Y-115370409D01*
X117951000Y-115411890D01*
X117951000Y-116088110D01*
X117946915Y-116129591D01*
X117936607Y-116163569D01*
X117919866Y-116194890D01*
X117897339Y-116222339D01*
X117869890Y-116244866D01*
X117838569Y-116261607D01*
X117804591Y-116271915D01*
X117763110Y-116276000D01*
X117161890Y-116276000D01*
X117120409Y-116271915D01*
X117086431Y-116261607D01*
X117055110Y-116244866D01*
X117027661Y-116222339D01*
X117005134Y-116194890D01*
X116988393Y-116163569D01*
X116978085Y-116129591D01*
X116974000Y-116088110D01*
X116974000Y-115411890D01*
X116978085Y-115370409D01*
X116988393Y-115336431D01*
X117005134Y-115305110D01*
X117027661Y-115277661D01*
X117055110Y-115255134D01*
X117086431Y-115238393D01*
X117120409Y-115228085D01*
X117161890Y-115224000D01*
X117763110Y-115224000D01*
X117804591Y-115228085D01*
G37*
G36*
X116379591Y-115303085D02*
G01*
X116413569Y-115313393D01*
X116444890Y-115330134D01*
X116472339Y-115352661D01*
X116494866Y-115380110D01*
X116511607Y-115411431D01*
X116521915Y-115445409D01*
X116526000Y-115486890D01*
X116526000Y-116088110D01*
X116521915Y-116129591D01*
X116511607Y-116163569D01*
X116494866Y-116194890D01*
X116472339Y-116222339D01*
X116444890Y-116244866D01*
X116413569Y-116261607D01*
X116379591Y-116271915D01*
X116338110Y-116276000D01*
X115661890Y-116276000D01*
X115620409Y-116271915D01*
X115586431Y-116261607D01*
X115555110Y-116244866D01*
X115527661Y-116222339D01*
X115505134Y-116194890D01*
X115488393Y-116163569D01*
X115478085Y-116129591D01*
X115474000Y-116088110D01*
X115474000Y-115486890D01*
X115478085Y-115445409D01*
X115488393Y-115411431D01*
X115505134Y-115380110D01*
X115527661Y-115352661D01*
X115555110Y-115330134D01*
X115586431Y-115313393D01*
X115620409Y-115303085D01*
X115661890Y-115299000D01*
X116338110Y-115299000D01*
X116379591Y-115303085D01*
G37*
G36*
X140108824Y-114962008D02*
G01*
X140142802Y-114972316D01*
X140174123Y-114989057D01*
X140206337Y-115015495D01*
X140246188Y-115055346D01*
X140246194Y-115055351D01*
X140644649Y-115453806D01*
X140644654Y-115453812D01*
X140684505Y-115493663D01*
X140710943Y-115525877D01*
X140727684Y-115557198D01*
X140737992Y-115591176D01*
X140741472Y-115626517D01*
X140737992Y-115661858D01*
X140727684Y-115695836D01*
X140710943Y-115727157D01*
X140684505Y-115759371D01*
X140644654Y-115799222D01*
X140644649Y-115799228D01*
X140299228Y-116144649D01*
X140299222Y-116144654D01*
X140259371Y-116184505D01*
X140227157Y-116210943D01*
X140195836Y-116227684D01*
X140161858Y-116237992D01*
X140126517Y-116241472D01*
X140091176Y-116237992D01*
X140057198Y-116227684D01*
X140025877Y-116210943D01*
X139993663Y-116184505D01*
X139953812Y-116144654D01*
X139953806Y-116144649D01*
X139555351Y-115746194D01*
X139555346Y-115746188D01*
X139515495Y-115706337D01*
X139489057Y-115674123D01*
X139472316Y-115642802D01*
X139462008Y-115608824D01*
X139458528Y-115573483D01*
X139462008Y-115538142D01*
X139472316Y-115504164D01*
X139489057Y-115472843D01*
X139515495Y-115440629D01*
X139555346Y-115400778D01*
X139555351Y-115400772D01*
X139900772Y-115055351D01*
X139900778Y-115055346D01*
X139940629Y-115015495D01*
X139972843Y-114989057D01*
X140004164Y-114972316D01*
X140038142Y-114962008D01*
X140073483Y-114958528D01*
X140108824Y-114962008D01*
G37*
G36*
X154779591Y-115240585D02*
G01*
X154813569Y-115250893D01*
X154844890Y-115267634D01*
X154872339Y-115290161D01*
X154894866Y-115317610D01*
X154911607Y-115348931D01*
X154921915Y-115382909D01*
X154926000Y-115424390D01*
X154926000Y-116025610D01*
X154921915Y-116067091D01*
X154911607Y-116101069D01*
X154894866Y-116132390D01*
X154872339Y-116159839D01*
X154844890Y-116182366D01*
X154813569Y-116199107D01*
X154779591Y-116209415D01*
X154738110Y-116213500D01*
X154061890Y-116213500D01*
X154020409Y-116209415D01*
X153986431Y-116199107D01*
X153955110Y-116182366D01*
X153927661Y-116159839D01*
X153905134Y-116132390D01*
X153888393Y-116101069D01*
X153878085Y-116067091D01*
X153874000Y-116025610D01*
X153874000Y-115424390D01*
X153878085Y-115382909D01*
X153888393Y-115348931D01*
X153905134Y-115317610D01*
X153927661Y-115290161D01*
X153955110Y-115267634D01*
X153986431Y-115250893D01*
X154020409Y-115240585D01*
X154061890Y-115236500D01*
X154738110Y-115236500D01*
X154779591Y-115240585D01*
G37*
G36*
X143264132Y-113704215D02*
G01*
X143302802Y-113715946D01*
X143338441Y-113734996D01*
X143374447Y-113764545D01*
X143414297Y-113804395D01*
X143414303Y-113804400D01*
X144095600Y-114485697D01*
X144095605Y-114485703D01*
X144135455Y-114525553D01*
X144165004Y-114561559D01*
X144184054Y-114597198D01*
X144195785Y-114635868D01*
X144199745Y-114676086D01*
X144195785Y-114716304D01*
X144184054Y-114754974D01*
X144165004Y-114790613D01*
X144135455Y-114826619D01*
X144095605Y-114866469D01*
X144095600Y-114866475D01*
X143714823Y-115247252D01*
X143714817Y-115247257D01*
X143674967Y-115287107D01*
X143638961Y-115316656D01*
X143603322Y-115335706D01*
X143564652Y-115347437D01*
X143524434Y-115351397D01*
X143484216Y-115347437D01*
X143445546Y-115335706D01*
X143409907Y-115316656D01*
X143373901Y-115287107D01*
X143334051Y-115247257D01*
X143334045Y-115247252D01*
X142652748Y-114565955D01*
X142652743Y-114565949D01*
X142612893Y-114526099D01*
X142583344Y-114490093D01*
X142564294Y-114454454D01*
X142552563Y-114415784D01*
X142548603Y-114375566D01*
X142552563Y-114335348D01*
X142564294Y-114296678D01*
X142583344Y-114261039D01*
X142612893Y-114225033D01*
X142652743Y-114185183D01*
X142652748Y-114185177D01*
X143033525Y-113804400D01*
X143033531Y-113804395D01*
X143073381Y-113764545D01*
X143109387Y-113734996D01*
X143145026Y-113715946D01*
X143183696Y-113704215D01*
X143223914Y-113700255D01*
X143264132Y-113704215D01*
G37*
G36*
X141222518Y-113848314D02*
G01*
X141256496Y-113858622D01*
X141287817Y-113875363D01*
X141320031Y-113901801D01*
X141359882Y-113941652D01*
X141359888Y-113941657D01*
X141758343Y-114340112D01*
X141758348Y-114340118D01*
X141798199Y-114379969D01*
X141824637Y-114412183D01*
X141841378Y-114443504D01*
X141851686Y-114477482D01*
X141855166Y-114512823D01*
X141851686Y-114548164D01*
X141841378Y-114582142D01*
X141824637Y-114613463D01*
X141798199Y-114645677D01*
X141758348Y-114685528D01*
X141758343Y-114685534D01*
X141412922Y-115030955D01*
X141412916Y-115030960D01*
X141373065Y-115070811D01*
X141340851Y-115097249D01*
X141309530Y-115113990D01*
X141275552Y-115124298D01*
X141240211Y-115127778D01*
X141204870Y-115124298D01*
X141170892Y-115113990D01*
X141139571Y-115097249D01*
X141107357Y-115070811D01*
X141067506Y-115030960D01*
X141067500Y-115030955D01*
X140669045Y-114632500D01*
X140669040Y-114632494D01*
X140629189Y-114592643D01*
X140602751Y-114560429D01*
X140586010Y-114529108D01*
X140575702Y-114495130D01*
X140572222Y-114459789D01*
X140575702Y-114424448D01*
X140586010Y-114390470D01*
X140602751Y-114359149D01*
X140629189Y-114326935D01*
X140669040Y-114287084D01*
X140669045Y-114287078D01*
X141014466Y-113941657D01*
X141014472Y-113941652D01*
X141054323Y-113901801D01*
X141086537Y-113875363D01*
X141117858Y-113858622D01*
X141151836Y-113848314D01*
X141187177Y-113844834D01*
X141222518Y-113848314D01*
G37*
G36*
X166384618Y-113827965D02*
G01*
X166417433Y-113837919D01*
X166447665Y-113854079D01*
X166474170Y-113875830D01*
X166495921Y-113902335D01*
X166512081Y-113932567D01*
X166522035Y-113965382D01*
X166526000Y-114005640D01*
X166526000Y-114594360D01*
X166522035Y-114634618D01*
X166512081Y-114667433D01*
X166495921Y-114697665D01*
X166474170Y-114724170D01*
X166447665Y-114745921D01*
X166417433Y-114762081D01*
X166384618Y-114772035D01*
X166344360Y-114776000D01*
X165380640Y-114776000D01*
X165340382Y-114772035D01*
X165307567Y-114762081D01*
X165277335Y-114745921D01*
X165250830Y-114724170D01*
X165229079Y-114697665D01*
X165212919Y-114667433D01*
X165202965Y-114634618D01*
X165199000Y-114594360D01*
X165199000Y-114005640D01*
X165202965Y-113965382D01*
X165212919Y-113932567D01*
X165229079Y-113902335D01*
X165250830Y-113875830D01*
X165277335Y-113854079D01*
X165307567Y-113837919D01*
X165340382Y-113827965D01*
X165380640Y-113824000D01*
X166344360Y-113824000D01*
X166384618Y-113827965D01*
G37*
G36*
X117804591Y-113728085D02*
G01*
X117838569Y-113738393D01*
X117869890Y-113755134D01*
X117897339Y-113777661D01*
X117919866Y-113805110D01*
X117936607Y-113836431D01*
X117946915Y-113870409D01*
X117951000Y-113911890D01*
X117951000Y-114588110D01*
X117946915Y-114629591D01*
X117936607Y-114663569D01*
X117919866Y-114694890D01*
X117897339Y-114722339D01*
X117869890Y-114744866D01*
X117838569Y-114761607D01*
X117804591Y-114771915D01*
X117763110Y-114776000D01*
X117161890Y-114776000D01*
X117120409Y-114771915D01*
X117086431Y-114761607D01*
X117055110Y-114744866D01*
X117027661Y-114722339D01*
X117005134Y-114694890D01*
X116988393Y-114663569D01*
X116978085Y-114629591D01*
X116974000Y-114588110D01*
X116974000Y-113911890D01*
X116978085Y-113870409D01*
X116988393Y-113836431D01*
X117005134Y-113805110D01*
X117027661Y-113777661D01*
X117055110Y-113755134D01*
X117086431Y-113738393D01*
X117120409Y-113728085D01*
X117161890Y-113724000D01*
X117763110Y-113724000D01*
X117804591Y-113728085D01*
G37*
G36*
X119379591Y-113728085D02*
G01*
X119413569Y-113738393D01*
X119444890Y-113755134D01*
X119472339Y-113777661D01*
X119494866Y-113805110D01*
X119511607Y-113836431D01*
X119521915Y-113870409D01*
X119526000Y-113911890D01*
X119526000Y-114588110D01*
X119521915Y-114629591D01*
X119511607Y-114663569D01*
X119494866Y-114694890D01*
X119472339Y-114722339D01*
X119444890Y-114744866D01*
X119413569Y-114761607D01*
X119379591Y-114771915D01*
X119338110Y-114776000D01*
X118736890Y-114776000D01*
X118695409Y-114771915D01*
X118661431Y-114761607D01*
X118630110Y-114744866D01*
X118602661Y-114722339D01*
X118580134Y-114694890D01*
X118563393Y-114663569D01*
X118553085Y-114629591D01*
X118549000Y-114588110D01*
X118549000Y-113911890D01*
X118553085Y-113870409D01*
X118563393Y-113836431D01*
X118580134Y-113805110D01*
X118602661Y-113777661D01*
X118630110Y-113755134D01*
X118661431Y-113738393D01*
X118695409Y-113728085D01*
X118736890Y-113724000D01*
X119338110Y-113724000D01*
X119379591Y-113728085D01*
G37*
G36*
X164759618Y-113827965D02*
G01*
X164792433Y-113837919D01*
X164822665Y-113854079D01*
X164849170Y-113875830D01*
X164870921Y-113902335D01*
X164887081Y-113932567D01*
X164897035Y-113965382D01*
X164901000Y-114005640D01*
X164901000Y-114594360D01*
X164897035Y-114634618D01*
X164887081Y-114667433D01*
X164870921Y-114697665D01*
X164849170Y-114724170D01*
X164822665Y-114745921D01*
X164792433Y-114762081D01*
X164759618Y-114772035D01*
X164719360Y-114776000D01*
X163755640Y-114776000D01*
X163715382Y-114772035D01*
X163682567Y-114762081D01*
X163652335Y-114745921D01*
X163625830Y-114724170D01*
X163604079Y-114697665D01*
X163587919Y-114667433D01*
X163577965Y-114634618D01*
X163574000Y-114594360D01*
X163574000Y-114005640D01*
X163577965Y-113965382D01*
X163587919Y-113932567D01*
X163604079Y-113902335D01*
X163625830Y-113875830D01*
X163652335Y-113854079D01*
X163682567Y-113837919D01*
X163715382Y-113827965D01*
X163755640Y-113824000D01*
X164719360Y-113824000D01*
X164759618Y-113827965D01*
G37*
G36*
X116379591Y-113728085D02*
G01*
X116413569Y-113738393D01*
X116444890Y-113755134D01*
X116472339Y-113777661D01*
X116494866Y-113805110D01*
X116511607Y-113836431D01*
X116521915Y-113870409D01*
X116526000Y-113911890D01*
X116526000Y-114513110D01*
X116521915Y-114554591D01*
X116511607Y-114588569D01*
X116494866Y-114619890D01*
X116472339Y-114647339D01*
X116444890Y-114669866D01*
X116413569Y-114686607D01*
X116379591Y-114696915D01*
X116338110Y-114701000D01*
X115661890Y-114701000D01*
X115620409Y-114696915D01*
X115586431Y-114686607D01*
X115555110Y-114669866D01*
X115527661Y-114647339D01*
X115505134Y-114619890D01*
X115488393Y-114588569D01*
X115478085Y-114554591D01*
X115474000Y-114513110D01*
X115474000Y-113911890D01*
X115478085Y-113870409D01*
X115488393Y-113836431D01*
X115505134Y-113805110D01*
X115527661Y-113777661D01*
X115555110Y-113755134D01*
X115586431Y-113738393D01*
X115620409Y-113728085D01*
X115661890Y-113724000D01*
X116338110Y-113724000D01*
X116379591Y-113728085D01*
G37*
G36*
X144589958Y-112378389D02*
G01*
X144628628Y-112390120D01*
X144664267Y-112409170D01*
X144700273Y-112438719D01*
X144740123Y-112478569D01*
X144740129Y-112478574D01*
X145421426Y-113159871D01*
X145421431Y-113159877D01*
X145461281Y-113199727D01*
X145490830Y-113235733D01*
X145509880Y-113271372D01*
X145521611Y-113310042D01*
X145525571Y-113350260D01*
X145521611Y-113390478D01*
X145509880Y-113429148D01*
X145490830Y-113464787D01*
X145461281Y-113500793D01*
X145421431Y-113540643D01*
X145421426Y-113540649D01*
X145040649Y-113921426D01*
X145040643Y-113921431D01*
X145000793Y-113961281D01*
X144964787Y-113990830D01*
X144929148Y-114009880D01*
X144890478Y-114021611D01*
X144850260Y-114025571D01*
X144810042Y-114021611D01*
X144771372Y-114009880D01*
X144735733Y-113990830D01*
X144699727Y-113961281D01*
X144659877Y-113921431D01*
X144659871Y-113921426D01*
X143978574Y-113240129D01*
X143978569Y-113240123D01*
X143938719Y-113200273D01*
X143909170Y-113164267D01*
X143890120Y-113128628D01*
X143878389Y-113089958D01*
X143874429Y-113049740D01*
X143878389Y-113009522D01*
X143890120Y-112970852D01*
X143909170Y-112935213D01*
X143938719Y-112899207D01*
X143978569Y-112859357D01*
X143978574Y-112859351D01*
X144359351Y-112478574D01*
X144359357Y-112478569D01*
X144399207Y-112438719D01*
X144435213Y-112409170D01*
X144470852Y-112390120D01*
X144509522Y-112378389D01*
X144549740Y-112374429D01*
X144589958Y-112378389D01*
G37*
G36*
X105097740Y-112308627D02*
G01*
X105146136Y-112318253D01*
X105160010Y-112324000D01*
X105237311Y-112356019D01*
X105266960Y-112375830D01*
X105319369Y-112410848D01*
X105389152Y-112480631D01*
X105416752Y-112521938D01*
X105443981Y-112562689D01*
X105481747Y-112653865D01*
X105501000Y-112750655D01*
X105501000Y-112849345D01*
X105491373Y-112897740D01*
X105481747Y-112946136D01*
X105471509Y-112970852D01*
X105443981Y-113037311D01*
X105435676Y-113049740D01*
X105389152Y-113119369D01*
X105319369Y-113189152D01*
X105306628Y-113197665D01*
X105237311Y-113243981D01*
X105203748Y-113257883D01*
X105146136Y-113281747D01*
X105097740Y-113291373D01*
X105049345Y-113301000D01*
X104950655Y-113301000D01*
X104902260Y-113291373D01*
X104853864Y-113281747D01*
X104796252Y-113257883D01*
X104762689Y-113243981D01*
X104693372Y-113197665D01*
X104680631Y-113189152D01*
X104610848Y-113119369D01*
X104564324Y-113049740D01*
X104556019Y-113037311D01*
X104528491Y-112970852D01*
X104518253Y-112946136D01*
X104508627Y-112897740D01*
X104499000Y-112849345D01*
X104499000Y-112750655D01*
X104518253Y-112653865D01*
X104556019Y-112562689D01*
X104583248Y-112521938D01*
X104610848Y-112480631D01*
X104680631Y-112410848D01*
X104733040Y-112375830D01*
X104762689Y-112356019D01*
X104839990Y-112324000D01*
X104853864Y-112318253D01*
X104902260Y-112308627D01*
X104950655Y-112299000D01*
X105049345Y-112299000D01*
X105097740Y-112308627D01*
G37*
G36*
X166384618Y-112327965D02*
G01*
X166417433Y-112337919D01*
X166447665Y-112354079D01*
X166474170Y-112375830D01*
X166495921Y-112402335D01*
X166512081Y-112432567D01*
X166522035Y-112465382D01*
X166526000Y-112505640D01*
X166526000Y-113094360D01*
X166522035Y-113134618D01*
X166512081Y-113167433D01*
X166495921Y-113197665D01*
X166474170Y-113224170D01*
X166447665Y-113245921D01*
X166417433Y-113262081D01*
X166384618Y-113272035D01*
X166344360Y-113276000D01*
X165380640Y-113276000D01*
X165340382Y-113272035D01*
X165307567Y-113262081D01*
X165277335Y-113245921D01*
X165250830Y-113224170D01*
X165229079Y-113197665D01*
X165212919Y-113167433D01*
X165202965Y-113134618D01*
X165199000Y-113094360D01*
X165199000Y-112505640D01*
X165202965Y-112465382D01*
X165212919Y-112432567D01*
X165229079Y-112402335D01*
X165250830Y-112375830D01*
X165277335Y-112354079D01*
X165307567Y-112337919D01*
X165340382Y-112327965D01*
X165380640Y-112324000D01*
X166344360Y-112324000D01*
X166384618Y-112327965D01*
G37*
G36*
X164759618Y-112327965D02*
G01*
X164792433Y-112337919D01*
X164822665Y-112354079D01*
X164849170Y-112375830D01*
X164870921Y-112402335D01*
X164887081Y-112432567D01*
X164897035Y-112465382D01*
X164901000Y-112505640D01*
X164901000Y-113094360D01*
X164897035Y-113134618D01*
X164887081Y-113167433D01*
X164870921Y-113197665D01*
X164849170Y-113224170D01*
X164822665Y-113245921D01*
X164792433Y-113262081D01*
X164759618Y-113272035D01*
X164719360Y-113276000D01*
X163755640Y-113276000D01*
X163715382Y-113272035D01*
X163682567Y-113262081D01*
X163652335Y-113245921D01*
X163625830Y-113224170D01*
X163604079Y-113197665D01*
X163587919Y-113167433D01*
X163577965Y-113134618D01*
X163574000Y-113094360D01*
X163574000Y-112505640D01*
X163577965Y-112465382D01*
X163587919Y-112432567D01*
X163604079Y-112402335D01*
X163625830Y-112375830D01*
X163652335Y-112354079D01*
X163682567Y-112337919D01*
X163715382Y-112327965D01*
X163755640Y-112324000D01*
X164719360Y-112324000D01*
X164759618Y-112327965D01*
G37*
G36*
X166129591Y-110678085D02*
G01*
X166163569Y-110688393D01*
X166194890Y-110705134D01*
X166222339Y-110727661D01*
X166244866Y-110755110D01*
X166261607Y-110786431D01*
X166271915Y-110820409D01*
X166276000Y-110861890D01*
X166276000Y-111538110D01*
X166271915Y-111579591D01*
X166261607Y-111613569D01*
X166244866Y-111644890D01*
X166222339Y-111672339D01*
X166194890Y-111694866D01*
X166163569Y-111711607D01*
X166129591Y-111721915D01*
X166088110Y-111726000D01*
X165486890Y-111726000D01*
X165445409Y-111721915D01*
X165411431Y-111711607D01*
X165380110Y-111694866D01*
X165352661Y-111672339D01*
X165330134Y-111644890D01*
X165313393Y-111613569D01*
X165303085Y-111579591D01*
X165299000Y-111538110D01*
X165299000Y-110861890D01*
X165303085Y-110820409D01*
X165313393Y-110786431D01*
X165330134Y-110755110D01*
X165352661Y-110727661D01*
X165380110Y-110705134D01*
X165411431Y-110688393D01*
X165445409Y-110678085D01*
X165486890Y-110674000D01*
X166088110Y-110674000D01*
X166129591Y-110678085D01*
G37*
G36*
X164554591Y-110678085D02*
G01*
X164588569Y-110688393D01*
X164619890Y-110705134D01*
X164647339Y-110727661D01*
X164669866Y-110755110D01*
X164686607Y-110786431D01*
X164696915Y-110820409D01*
X164701000Y-110861890D01*
X164701000Y-111538110D01*
X164696915Y-111579591D01*
X164686607Y-111613569D01*
X164669866Y-111644890D01*
X164647339Y-111672339D01*
X164619890Y-111694866D01*
X164588569Y-111711607D01*
X164554591Y-111721915D01*
X164513110Y-111726000D01*
X163911890Y-111726000D01*
X163870409Y-111721915D01*
X163836431Y-111711607D01*
X163805110Y-111694866D01*
X163777661Y-111672339D01*
X163755134Y-111644890D01*
X163738393Y-111613569D01*
X163728085Y-111579591D01*
X163724000Y-111538110D01*
X163724000Y-110861890D01*
X163728085Y-110820409D01*
X163738393Y-110786431D01*
X163755134Y-110755110D01*
X163777661Y-110727661D01*
X163805110Y-110705134D01*
X163836431Y-110688393D01*
X163870409Y-110678085D01*
X163911890Y-110674000D01*
X164513110Y-110674000D01*
X164554591Y-110678085D01*
G37*
G36*
X108901000Y-111651000D02*
G01*
X106299000Y-111651000D01*
X106299000Y-109549000D01*
X108901000Y-109549000D01*
X108901000Y-111651000D01*
G37*
G36*
X103401000Y-111651000D02*
G01*
X100799000Y-111651000D01*
X100799000Y-109549000D01*
X103401000Y-109549000D01*
X103401000Y-111651000D01*
G37*
G36*
X120684468Y-110403565D02*
G01*
X120723138Y-110415296D01*
X120758777Y-110434346D01*
X120790017Y-110459983D01*
X120815654Y-110491223D01*
X120834704Y-110526862D01*
X120846435Y-110565532D01*
X120851000Y-110611888D01*
X120851000Y-111263112D01*
X120846435Y-111309468D01*
X120834704Y-111348138D01*
X120815654Y-111383777D01*
X120790017Y-111415017D01*
X120758777Y-111440654D01*
X120723138Y-111459704D01*
X120684468Y-111471435D01*
X120638112Y-111476000D01*
X119561888Y-111476000D01*
X119515532Y-111471435D01*
X119476862Y-111459704D01*
X119441223Y-111440654D01*
X119409983Y-111415017D01*
X119384346Y-111383777D01*
X119365296Y-111348138D01*
X119353565Y-111309468D01*
X119349000Y-111263112D01*
X119349000Y-110611888D01*
X119353565Y-110565532D01*
X119365296Y-110526862D01*
X119384346Y-110491223D01*
X119409983Y-110459983D01*
X119441223Y-110434346D01*
X119476862Y-110415296D01*
X119515532Y-110403565D01*
X119561888Y-110399000D01*
X120638112Y-110399000D01*
X120684468Y-110403565D01*
G37*
G36*
X114184468Y-110341065D02*
G01*
X114223138Y-110352796D01*
X114258777Y-110371846D01*
X114290017Y-110397483D01*
X114315654Y-110428723D01*
X114334704Y-110464362D01*
X114346435Y-110503032D01*
X114351000Y-110549388D01*
X114351000Y-111200612D01*
X114346435Y-111246968D01*
X114334704Y-111285638D01*
X114315654Y-111321277D01*
X114290017Y-111352517D01*
X114258777Y-111378154D01*
X114223138Y-111397204D01*
X114184468Y-111408935D01*
X114138112Y-111413500D01*
X113061888Y-111413500D01*
X113015532Y-111408935D01*
X112976862Y-111397204D01*
X112941223Y-111378154D01*
X112909983Y-111352517D01*
X112884346Y-111321277D01*
X112865296Y-111285638D01*
X112853565Y-111246968D01*
X112849000Y-111200612D01*
X112849000Y-110549388D01*
X112853565Y-110503032D01*
X112865296Y-110464362D01*
X112884346Y-110428723D01*
X112909983Y-110397483D01*
X112941223Y-110371846D01*
X112976862Y-110352796D01*
X113015532Y-110341065D01*
X113061888Y-110336500D01*
X114138112Y-110336500D01*
X114184468Y-110341065D01*
G37*
G36*
X116201000Y-111326000D02*
G01*
X114879000Y-111326000D01*
X114879000Y-110574000D01*
X116201000Y-110574000D01*
X116201000Y-111326000D01*
G37*
G36*
X118821000Y-111326000D02*
G01*
X117499000Y-111326000D01*
X117499000Y-108674000D01*
X118821000Y-108674000D01*
X118821000Y-111326000D01*
G37*
G36*
X120684468Y-108528565D02*
G01*
X120723138Y-108540296D01*
X120758777Y-108559346D01*
X120790017Y-108584983D01*
X120815654Y-108616223D01*
X120834704Y-108651862D01*
X120846435Y-108690532D01*
X120851000Y-108736888D01*
X120851000Y-109388112D01*
X120846435Y-109434468D01*
X120834704Y-109473138D01*
X120815654Y-109508777D01*
X120790017Y-109540017D01*
X120758777Y-109565654D01*
X120723138Y-109584704D01*
X120684468Y-109596435D01*
X120638112Y-109601000D01*
X119561888Y-109601000D01*
X119515532Y-109596435D01*
X119476862Y-109584704D01*
X119441223Y-109565654D01*
X119409983Y-109540017D01*
X119384346Y-109508777D01*
X119365296Y-109473138D01*
X119353565Y-109434468D01*
X119349000Y-109388112D01*
X119349000Y-108736888D01*
X119353565Y-108690532D01*
X119365296Y-108651862D01*
X119384346Y-108616223D01*
X119409983Y-108584983D01*
X119441223Y-108559346D01*
X119476862Y-108540296D01*
X119515532Y-108528565D01*
X119561888Y-108524000D01*
X120638112Y-108524000D01*
X120684468Y-108528565D01*
G37*
G36*
X114184468Y-108466065D02*
G01*
X114223138Y-108477796D01*
X114258777Y-108496846D01*
X114290017Y-108522483D01*
X114315654Y-108553723D01*
X114334704Y-108589362D01*
X114346435Y-108628032D01*
X114351000Y-108674388D01*
X114351000Y-109325612D01*
X114346435Y-109371968D01*
X114334704Y-109410638D01*
X114315654Y-109446277D01*
X114290017Y-109477517D01*
X114258777Y-109503154D01*
X114223138Y-109522204D01*
X114184468Y-109533935D01*
X114138112Y-109538500D01*
X113061888Y-109538500D01*
X113015532Y-109533935D01*
X112976862Y-109522204D01*
X112941223Y-109503154D01*
X112909983Y-109477517D01*
X112884346Y-109446277D01*
X112865296Y-109410638D01*
X112853565Y-109371968D01*
X112849000Y-109325612D01*
X112849000Y-108674388D01*
X112853565Y-108628032D01*
X112865296Y-108589362D01*
X112884346Y-108553723D01*
X112909983Y-108522483D01*
X112941223Y-108496846D01*
X112976862Y-108477796D01*
X113015532Y-108466065D01*
X113061888Y-108461500D01*
X114138112Y-108461500D01*
X114184468Y-108466065D01*
G37*
G36*
X116201000Y-109426000D02*
G01*
X114879000Y-109426000D01*
X114879000Y-108674000D01*
X116201000Y-108674000D01*
X116201000Y-109426000D01*
G37*
G36*
X165634239Y-101811467D02*
G01*
X165948282Y-101873934D01*
X166539926Y-102119001D01*
X167072392Y-102474784D01*
X167525216Y-102927608D01*
X167880999Y-103460074D01*
X168126066Y-104051718D01*
X168251000Y-104679804D01*
X168251000Y-105320196D01*
X168126066Y-105948282D01*
X167880999Y-106539926D01*
X167525216Y-107072392D01*
X167072392Y-107525216D01*
X166539926Y-107880999D01*
X165948282Y-108126066D01*
X165634239Y-108188533D01*
X165320197Y-108251000D01*
X164679803Y-108251000D01*
X164365761Y-108188533D01*
X164051718Y-108126066D01*
X163460074Y-107880999D01*
X162927608Y-107525216D01*
X162474784Y-107072392D01*
X162119001Y-106539926D01*
X161873934Y-105948282D01*
X161749000Y-105320196D01*
X161749000Y-104679804D01*
X161873934Y-104051718D01*
X162119001Y-103460074D01*
X162474784Y-102927608D01*
X162927608Y-102474784D01*
X163460074Y-102119001D01*
X164051718Y-101873934D01*
X164365761Y-101811467D01*
X164679803Y-101749000D01*
X165320197Y-101749000D01*
X165634239Y-101811467D01*
G37*
G36*
X105634239Y-101811467D02*
G01*
X105948282Y-101873934D01*
X106539926Y-102119001D01*
X107072392Y-102474784D01*
X107525216Y-102927608D01*
X107880999Y-103460074D01*
X108126066Y-104051718D01*
X108251000Y-104679804D01*
X108251000Y-105320196D01*
X108126066Y-105948282D01*
X107880999Y-106539926D01*
X107525216Y-107072392D01*
X107072392Y-107525216D01*
X106539926Y-107880999D01*
X105948282Y-108126066D01*
X105634239Y-108188533D01*
X105320197Y-108251000D01*
X104679803Y-108251000D01*
X104365761Y-108188533D01*
X104051718Y-108126066D01*
X103460074Y-107880999D01*
X102927608Y-107525216D01*
X102474784Y-107072392D01*
X102119001Y-106539926D01*
X101873934Y-105948282D01*
X101749000Y-105320196D01*
X101749000Y-104679804D01*
X101873934Y-104051718D01*
X102119001Y-103460074D01*
X102474784Y-102927608D01*
X102927608Y-102474784D01*
X103460074Y-102119001D01*
X104051718Y-101873934D01*
X104365761Y-101811467D01*
X104679803Y-101749000D01*
X105320197Y-101749000D01*
X105634239Y-101811467D01*
G37*
G36*
X115867091Y-105878085D02*
G01*
X115901069Y-105888393D01*
X115932390Y-105905134D01*
X115959839Y-105927661D01*
X115982366Y-105955110D01*
X115999107Y-105986431D01*
X116009415Y-106020409D01*
X116013500Y-106061890D01*
X116013500Y-106738110D01*
X116009415Y-106779591D01*
X115999107Y-106813569D01*
X115982366Y-106844890D01*
X115959839Y-106872339D01*
X115932390Y-106894866D01*
X115901069Y-106911607D01*
X115867091Y-106921915D01*
X115825610Y-106926000D01*
X115224390Y-106926000D01*
X115182909Y-106921915D01*
X115148931Y-106911607D01*
X115117610Y-106894866D01*
X115090161Y-106872339D01*
X115067634Y-106844890D01*
X115050893Y-106813569D01*
X115040585Y-106779591D01*
X115036500Y-106738110D01*
X115036500Y-106061890D01*
X115040585Y-106020409D01*
X115050893Y-105986431D01*
X115067634Y-105955110D01*
X115090161Y-105927661D01*
X115117610Y-105905134D01*
X115148931Y-105888393D01*
X115182909Y-105878085D01*
X115224390Y-105874000D01*
X115825610Y-105874000D01*
X115867091Y-105878085D01*
G37*
G36*
X117442091Y-105878085D02*
G01*
X117476069Y-105888393D01*
X117507390Y-105905134D01*
X117534839Y-105927661D01*
X117557366Y-105955110D01*
X117574107Y-105986431D01*
X117584415Y-106020409D01*
X117588500Y-106061890D01*
X117588500Y-106738110D01*
X117584415Y-106779591D01*
X117574107Y-106813569D01*
X117557366Y-106844890D01*
X117534839Y-106872339D01*
X117507390Y-106894866D01*
X117476069Y-106911607D01*
X117442091Y-106921915D01*
X117400610Y-106926000D01*
X116799390Y-106926000D01*
X116757909Y-106921915D01*
X116723931Y-106911607D01*
X116692610Y-106894866D01*
X116665161Y-106872339D01*
X116642634Y-106844890D01*
X116625893Y-106813569D01*
X116615585Y-106779591D01*
X116611500Y-106738110D01*
X116611500Y-106061890D01*
X116615585Y-106020409D01*
X116625893Y-105986431D01*
X116642634Y-105955110D01*
X116665161Y-105927661D01*
X116692610Y-105905134D01*
X116723931Y-105888393D01*
X116757909Y-105878085D01*
X116799390Y-105874000D01*
X117400610Y-105874000D01*
X117442091Y-105878085D01*
G37*
G36*
X114434618Y-105927965D02*
G01*
X114467433Y-105937919D01*
X114497665Y-105954079D01*
X114524170Y-105975830D01*
X114545921Y-106002335D01*
X114562081Y-106032567D01*
X114572035Y-106065382D01*
X114576000Y-106105640D01*
X114576000Y-106694360D01*
X114572035Y-106734618D01*
X114562081Y-106767433D01*
X114545921Y-106797665D01*
X114524170Y-106824170D01*
X114497665Y-106845921D01*
X114467433Y-106862081D01*
X114434618Y-106872035D01*
X114394360Y-106876000D01*
X113430640Y-106876000D01*
X113390382Y-106872035D01*
X113357567Y-106862081D01*
X113327335Y-106845921D01*
X113300830Y-106824170D01*
X113279079Y-106797665D01*
X113262919Y-106767433D01*
X113252965Y-106734618D01*
X113249000Y-106694360D01*
X113249000Y-106105640D01*
X113252965Y-106065382D01*
X113262919Y-106032567D01*
X113279079Y-106002335D01*
X113300830Y-105975830D01*
X113327335Y-105954079D01*
X113357567Y-105937919D01*
X113390382Y-105927965D01*
X113430640Y-105924000D01*
X114394360Y-105924000D01*
X114434618Y-105927965D01*
G37*
G36*
X112809618Y-105927965D02*
G01*
X112842433Y-105937919D01*
X112872665Y-105954079D01*
X112899170Y-105975830D01*
X112920921Y-106002335D01*
X112937081Y-106032567D01*
X112947035Y-106065382D01*
X112951000Y-106105640D01*
X112951000Y-106694360D01*
X112947035Y-106734618D01*
X112937081Y-106767433D01*
X112920921Y-106797665D01*
X112899170Y-106824170D01*
X112872665Y-106845921D01*
X112842433Y-106862081D01*
X112809618Y-106872035D01*
X112769360Y-106876000D01*
X111805640Y-106876000D01*
X111765382Y-106872035D01*
X111732567Y-106862081D01*
X111702335Y-106845921D01*
X111675830Y-106824170D01*
X111654079Y-106797665D01*
X111637919Y-106767433D01*
X111627965Y-106734618D01*
X111624000Y-106694360D01*
X111624000Y-106105640D01*
X111627965Y-106065382D01*
X111637919Y-106032567D01*
X111654079Y-106002335D01*
X111675830Y-105975830D01*
X111702335Y-105954079D01*
X111732567Y-105937919D01*
X111765382Y-105927965D01*
X111805640Y-105924000D01*
X112769360Y-105924000D01*
X112809618Y-105927965D01*
G37*
G36*
X143433512Y-104103927D02*
G01*
X143582812Y-104133624D01*
X143746784Y-104201544D01*
X143894354Y-104300147D01*
X144019853Y-104425646D01*
X144118456Y-104573216D01*
X144186376Y-104737188D01*
X144221000Y-104911259D01*
X144221000Y-105088741D01*
X144186376Y-105262812D01*
X144118456Y-105426784D01*
X144019853Y-105574354D01*
X143894354Y-105699853D01*
X143746784Y-105798456D01*
X143582812Y-105866376D01*
X143433512Y-105896073D01*
X143408742Y-105901000D01*
X143231258Y-105901000D01*
X143206488Y-105896073D01*
X143057188Y-105866376D01*
X142893216Y-105798456D01*
X142745646Y-105699853D01*
X142620147Y-105574354D01*
X142521544Y-105426784D01*
X142453624Y-105262812D01*
X142419000Y-105088741D01*
X142419000Y-104911259D01*
X142453624Y-104737188D01*
X142521544Y-104573216D01*
X142620147Y-104425646D01*
X142745646Y-104300147D01*
X142893216Y-104201544D01*
X143057188Y-104133624D01*
X143206488Y-104103927D01*
X143231258Y-104099000D01*
X143408742Y-104099000D01*
X143433512Y-104103927D01*
G37*
G36*
X123901000Y-105901000D02*
G01*
X122099000Y-105901000D01*
X122099000Y-104099000D01*
X123901000Y-104099000D01*
X123901000Y-105901000D01*
G37*
G36*
X125653512Y-104103927D02*
G01*
X125802812Y-104133624D01*
X125966784Y-104201544D01*
X126114354Y-104300147D01*
X126239853Y-104425646D01*
X126338456Y-104573216D01*
X126406376Y-104737188D01*
X126441000Y-104911259D01*
X126441000Y-105088741D01*
X126406376Y-105262812D01*
X126338456Y-105426784D01*
X126239853Y-105574354D01*
X126114354Y-105699853D01*
X125966784Y-105798456D01*
X125802812Y-105866376D01*
X125653512Y-105896073D01*
X125628742Y-105901000D01*
X125451258Y-105901000D01*
X125426488Y-105896073D01*
X125277188Y-105866376D01*
X125113216Y-105798456D01*
X124965646Y-105699853D01*
X124840147Y-105574354D01*
X124741544Y-105426784D01*
X124673624Y-105262812D01*
X124639000Y-105088741D01*
X124639000Y-104911259D01*
X124673624Y-104737188D01*
X124741544Y-104573216D01*
X124840147Y-104425646D01*
X124965646Y-104300147D01*
X125113216Y-104201544D01*
X125277188Y-104133624D01*
X125426488Y-104103927D01*
X125451258Y-104099000D01*
X125628742Y-104099000D01*
X125653512Y-104103927D01*
G37*
G36*
X128193512Y-104103927D02*
G01*
X128342812Y-104133624D01*
X128506784Y-104201544D01*
X128654354Y-104300147D01*
X128779853Y-104425646D01*
X128878456Y-104573216D01*
X128946376Y-104737188D01*
X128981000Y-104911259D01*
X128981000Y-105088741D01*
X128946376Y-105262812D01*
X128878456Y-105426784D01*
X128779853Y-105574354D01*
X128654354Y-105699853D01*
X128506784Y-105798456D01*
X128342812Y-105866376D01*
X128193512Y-105896073D01*
X128168742Y-105901000D01*
X127991258Y-105901000D01*
X127966488Y-105896073D01*
X127817188Y-105866376D01*
X127653216Y-105798456D01*
X127505646Y-105699853D01*
X127380147Y-105574354D01*
X127281544Y-105426784D01*
X127213624Y-105262812D01*
X127179000Y-105088741D01*
X127179000Y-104911259D01*
X127213624Y-104737188D01*
X127281544Y-104573216D01*
X127380147Y-104425646D01*
X127505646Y-104300147D01*
X127653216Y-104201544D01*
X127817188Y-104133624D01*
X127966488Y-104103927D01*
X127991258Y-104099000D01*
X128168742Y-104099000D01*
X128193512Y-104103927D01*
G37*
G36*
X130733512Y-104103927D02*
G01*
X130882812Y-104133624D01*
X131046784Y-104201544D01*
X131194354Y-104300147D01*
X131319853Y-104425646D01*
X131418456Y-104573216D01*
X131486376Y-104737188D01*
X131521000Y-104911259D01*
X131521000Y-105088741D01*
X131486376Y-105262812D01*
X131418456Y-105426784D01*
X131319853Y-105574354D01*
X131194354Y-105699853D01*
X131046784Y-105798456D01*
X130882812Y-105866376D01*
X130733512Y-105896073D01*
X130708742Y-105901000D01*
X130531258Y-105901000D01*
X130506488Y-105896073D01*
X130357188Y-105866376D01*
X130193216Y-105798456D01*
X130045646Y-105699853D01*
X129920147Y-105574354D01*
X129821544Y-105426784D01*
X129753624Y-105262812D01*
X129719000Y-105088741D01*
X129719000Y-104911259D01*
X129753624Y-104737188D01*
X129821544Y-104573216D01*
X129920147Y-104425646D01*
X130045646Y-104300147D01*
X130193216Y-104201544D01*
X130357188Y-104133624D01*
X130506488Y-104103927D01*
X130531258Y-104099000D01*
X130708742Y-104099000D01*
X130733512Y-104103927D01*
G37*
G36*
X133273512Y-104103927D02*
G01*
X133422812Y-104133624D01*
X133586784Y-104201544D01*
X133734354Y-104300147D01*
X133859853Y-104425646D01*
X133958456Y-104573216D01*
X134026376Y-104737188D01*
X134061000Y-104911259D01*
X134061000Y-105088741D01*
X134026376Y-105262812D01*
X133958456Y-105426784D01*
X133859853Y-105574354D01*
X133734354Y-105699853D01*
X133586784Y-105798456D01*
X133422812Y-105866376D01*
X133273512Y-105896073D01*
X133248742Y-105901000D01*
X133071258Y-105901000D01*
X133046488Y-105896073D01*
X132897188Y-105866376D01*
X132733216Y-105798456D01*
X132585646Y-105699853D01*
X132460147Y-105574354D01*
X132361544Y-105426784D01*
X132293624Y-105262812D01*
X132259000Y-105088741D01*
X132259000Y-104911259D01*
X132293624Y-104737188D01*
X132361544Y-104573216D01*
X132460147Y-104425646D01*
X132585646Y-104300147D01*
X132733216Y-104201544D01*
X132897188Y-104133624D01*
X133046488Y-104103927D01*
X133071258Y-104099000D01*
X133248742Y-104099000D01*
X133273512Y-104103927D01*
G37*
G36*
X135813512Y-104103927D02*
G01*
X135962812Y-104133624D01*
X136126784Y-104201544D01*
X136274354Y-104300147D01*
X136399853Y-104425646D01*
X136498456Y-104573216D01*
X136566376Y-104737188D01*
X136601000Y-104911259D01*
X136601000Y-105088741D01*
X136566376Y-105262812D01*
X136498456Y-105426784D01*
X136399853Y-105574354D01*
X136274354Y-105699853D01*
X136126784Y-105798456D01*
X135962812Y-105866376D01*
X135813512Y-105896073D01*
X135788742Y-105901000D01*
X135611258Y-105901000D01*
X135586488Y-105896073D01*
X135437188Y-105866376D01*
X135273216Y-105798456D01*
X135125646Y-105699853D01*
X135000147Y-105574354D01*
X134901544Y-105426784D01*
X134833624Y-105262812D01*
X134799000Y-105088741D01*
X134799000Y-104911259D01*
X134833624Y-104737188D01*
X134901544Y-104573216D01*
X135000147Y-104425646D01*
X135125646Y-104300147D01*
X135273216Y-104201544D01*
X135437188Y-104133624D01*
X135586488Y-104103927D01*
X135611258Y-104099000D01*
X135788742Y-104099000D01*
X135813512Y-104103927D01*
G37*
G36*
X138353512Y-104103927D02*
G01*
X138502812Y-104133624D01*
X138666784Y-104201544D01*
X138814354Y-104300147D01*
X138939853Y-104425646D01*
X139038456Y-104573216D01*
X139106376Y-104737188D01*
X139141000Y-104911259D01*
X139141000Y-105088741D01*
X139106376Y-105262812D01*
X139038456Y-105426784D01*
X138939853Y-105574354D01*
X138814354Y-105699853D01*
X138666784Y-105798456D01*
X138502812Y-105866376D01*
X138353512Y-105896073D01*
X138328742Y-105901000D01*
X138151258Y-105901000D01*
X138126488Y-105896073D01*
X137977188Y-105866376D01*
X137813216Y-105798456D01*
X137665646Y-105699853D01*
X137540147Y-105574354D01*
X137441544Y-105426784D01*
X137373624Y-105262812D01*
X137339000Y-105088741D01*
X137339000Y-104911259D01*
X137373624Y-104737188D01*
X137441544Y-104573216D01*
X137540147Y-104425646D01*
X137665646Y-104300147D01*
X137813216Y-104201544D01*
X137977188Y-104133624D01*
X138126488Y-104103927D01*
X138151258Y-104099000D01*
X138328742Y-104099000D01*
X138353512Y-104103927D01*
G37*
G36*
X145973512Y-104103927D02*
G01*
X146122812Y-104133624D01*
X146286784Y-104201544D01*
X146434354Y-104300147D01*
X146559853Y-104425646D01*
X146658456Y-104573216D01*
X146726376Y-104737188D01*
X146761000Y-104911259D01*
X146761000Y-105088741D01*
X146726376Y-105262812D01*
X146658456Y-105426784D01*
X146559853Y-105574354D01*
X146434354Y-105699853D01*
X146286784Y-105798456D01*
X146122812Y-105866376D01*
X145973512Y-105896073D01*
X145948742Y-105901000D01*
X145771258Y-105901000D01*
X145746488Y-105896073D01*
X145597188Y-105866376D01*
X145433216Y-105798456D01*
X145285646Y-105699853D01*
X145160147Y-105574354D01*
X145061544Y-105426784D01*
X144993624Y-105262812D01*
X144959000Y-105088741D01*
X144959000Y-104911259D01*
X144993624Y-104737188D01*
X145061544Y-104573216D01*
X145160147Y-104425646D01*
X145285646Y-104300147D01*
X145433216Y-104201544D01*
X145597188Y-104133624D01*
X145746488Y-104103927D01*
X145771258Y-104099000D01*
X145948742Y-104099000D01*
X145973512Y-104103927D01*
G37*
G36*
X148513512Y-104103927D02*
G01*
X148662812Y-104133624D01*
X148826784Y-104201544D01*
X148974354Y-104300147D01*
X149099853Y-104425646D01*
X149198456Y-104573216D01*
X149266376Y-104737188D01*
X149301000Y-104911259D01*
X149301000Y-105088741D01*
X149266376Y-105262812D01*
X149198456Y-105426784D01*
X149099853Y-105574354D01*
X148974354Y-105699853D01*
X148826784Y-105798456D01*
X148662812Y-105866376D01*
X148513512Y-105896073D01*
X148488742Y-105901000D01*
X148311258Y-105901000D01*
X148286488Y-105896073D01*
X148137188Y-105866376D01*
X147973216Y-105798456D01*
X147825646Y-105699853D01*
X147700147Y-105574354D01*
X147601544Y-105426784D01*
X147533624Y-105262812D01*
X147499000Y-105088741D01*
X147499000Y-104911259D01*
X147533624Y-104737188D01*
X147601544Y-104573216D01*
X147700147Y-104425646D01*
X147825646Y-104300147D01*
X147973216Y-104201544D01*
X148137188Y-104133624D01*
X148286488Y-104103927D01*
X148311258Y-104099000D01*
X148488742Y-104099000D01*
X148513512Y-104103927D01*
G37*
G36*
X153593512Y-104103927D02*
G01*
X153742812Y-104133624D01*
X153906784Y-104201544D01*
X154054354Y-104300147D01*
X154179853Y-104425646D01*
X154278456Y-104573216D01*
X154346376Y-104737188D01*
X154381000Y-104911259D01*
X154381000Y-105088741D01*
X154346376Y-105262812D01*
X154278456Y-105426784D01*
X154179853Y-105574354D01*
X154054354Y-105699853D01*
X153906784Y-105798456D01*
X153742812Y-105866376D01*
X153593512Y-105896073D01*
X153568742Y-105901000D01*
X153391258Y-105901000D01*
X153366488Y-105896073D01*
X153217188Y-105866376D01*
X153053216Y-105798456D01*
X152905646Y-105699853D01*
X152780147Y-105574354D01*
X152681544Y-105426784D01*
X152613624Y-105262812D01*
X152579000Y-105088741D01*
X152579000Y-104911259D01*
X152613624Y-104737188D01*
X152681544Y-104573216D01*
X152780147Y-104425646D01*
X152905646Y-104300147D01*
X153053216Y-104201544D01*
X153217188Y-104133624D01*
X153366488Y-104103927D01*
X153391258Y-104099000D01*
X153568742Y-104099000D01*
X153593512Y-104103927D01*
G37*
G36*
X151053512Y-104103927D02*
G01*
X151202812Y-104133624D01*
X151366784Y-104201544D01*
X151514354Y-104300147D01*
X151639853Y-104425646D01*
X151738456Y-104573216D01*
X151806376Y-104737188D01*
X151841000Y-104911259D01*
X151841000Y-105088741D01*
X151806376Y-105262812D01*
X151738456Y-105426784D01*
X151639853Y-105574354D01*
X151514354Y-105699853D01*
X151366784Y-105798456D01*
X151202812Y-105866376D01*
X151053512Y-105896073D01*
X151028742Y-105901000D01*
X150851258Y-105901000D01*
X150826488Y-105896073D01*
X150677188Y-105866376D01*
X150513216Y-105798456D01*
X150365646Y-105699853D01*
X150240147Y-105574354D01*
X150141544Y-105426784D01*
X150073624Y-105262812D01*
X150039000Y-105088741D01*
X150039000Y-104911259D01*
X150073624Y-104737188D01*
X150141544Y-104573216D01*
X150240147Y-104425646D01*
X150365646Y-104300147D01*
X150513216Y-104201544D01*
X150677188Y-104133624D01*
X150826488Y-104103927D01*
X150851258Y-104099000D01*
X151028742Y-104099000D01*
X151053512Y-104103927D01*
G37*
G36*
X140893512Y-104103927D02*
G01*
X141042812Y-104133624D01*
X141206784Y-104201544D01*
X141354354Y-104300147D01*
X141479853Y-104425646D01*
X141578456Y-104573216D01*
X141646376Y-104737188D01*
X141681000Y-104911259D01*
X141681000Y-105088741D01*
X141646376Y-105262812D01*
X141578456Y-105426784D01*
X141479853Y-105574354D01*
X141354354Y-105699853D01*
X141206784Y-105798456D01*
X141042812Y-105866376D01*
X140893512Y-105896073D01*
X140868742Y-105901000D01*
X140691258Y-105901000D01*
X140666488Y-105896073D01*
X140517188Y-105866376D01*
X140353216Y-105798456D01*
X140205646Y-105699853D01*
X140080147Y-105574354D01*
X139981544Y-105426784D01*
X139913624Y-105262812D01*
X139879000Y-105088741D01*
X139879000Y-104911259D01*
X139913624Y-104737188D01*
X139981544Y-104573216D01*
X140080147Y-104425646D01*
X140205646Y-104300147D01*
X140353216Y-104201544D01*
X140517188Y-104133624D01*
X140666488Y-104103927D01*
X140691258Y-104099000D01*
X140868742Y-104099000D01*
X140893512Y-104103927D01*
G37*
G36*
X156133512Y-104103927D02*
G01*
X156282812Y-104133624D01*
X156446784Y-104201544D01*
X156594354Y-104300147D01*
X156719853Y-104425646D01*
X156818456Y-104573216D01*
X156886376Y-104737188D01*
X156921000Y-104911259D01*
X156921000Y-105088741D01*
X156886376Y-105262812D01*
X156818456Y-105426784D01*
X156719853Y-105574354D01*
X156594354Y-105699853D01*
X156446784Y-105798456D01*
X156282812Y-105866376D01*
X156133512Y-105896073D01*
X156108742Y-105901000D01*
X155931258Y-105901000D01*
X155906488Y-105896073D01*
X155757188Y-105866376D01*
X155593216Y-105798456D01*
X155445646Y-105699853D01*
X155320147Y-105574354D01*
X155221544Y-105426784D01*
X155153624Y-105262812D01*
X155119000Y-105088741D01*
X155119000Y-104911259D01*
X155153624Y-104737188D01*
X155221544Y-104573216D01*
X155320147Y-104425646D01*
X155445646Y-104300147D01*
X155593216Y-104201544D01*
X155757188Y-104133624D01*
X155906488Y-104103927D01*
X155931258Y-104099000D01*
X156108742Y-104099000D01*
X156133512Y-104103927D01*
G37*
G36*
X114501000Y-104501000D02*
G01*
X112699000Y-104501000D01*
X112699000Y-102699000D01*
X114501000Y-102699000D01*
X114501000Y-104501000D01*
G37*
G36*
X116253512Y-102703927D02*
G01*
X116402812Y-102733624D01*
X116566784Y-102801544D01*
X116714354Y-102900147D01*
X116839853Y-103025646D01*
X116938456Y-103173216D01*
X117006376Y-103337188D01*
X117041000Y-103511259D01*
X117041000Y-103688741D01*
X117006376Y-103862812D01*
X116938456Y-104026784D01*
X116839853Y-104174354D01*
X116714354Y-104299853D01*
X116566784Y-104398456D01*
X116402812Y-104466376D01*
X116253512Y-104496073D01*
X116228742Y-104501000D01*
X116051258Y-104501000D01*
X116026488Y-104496073D01*
X115877188Y-104466376D01*
X115713216Y-104398456D01*
X115565646Y-104299853D01*
X115440147Y-104174354D01*
X115341544Y-104026784D01*
X115273624Y-103862812D01*
X115239000Y-103688741D01*
X115239000Y-103511259D01*
X115273624Y-103337188D01*
X115341544Y-103173216D01*
X115440147Y-103025646D01*
X115565646Y-102900147D01*
X115713216Y-102801544D01*
X115877188Y-102733624D01*
X116026488Y-102703927D01*
X116051258Y-102699000D01*
X116228742Y-102699000D01*
X116253512Y-102703927D01*
G37*
M02*
