G04 #@! TF.GenerationSoftware,KiCad,Pcbnew,5.1.5*
G04 #@! TF.CreationDate,2020-01-13T20:43:58-05:00*
G04 #@! TF.ProjectId,stm32f0_usb,73746d33-3266-4305-9f75-73622e6b6963,0*
G04 #@! TF.SameCoordinates,Original*
G04 #@! TF.FileFunction,Paste,Top*
G04 #@! TF.FilePolarity,Positive*
%FSLAX46Y46*%
G04 Gerber Fmt 4.6, Leading zero omitted, Abs format (unit mm)*
G04 Created by KiCad (PCBNEW 5.1.5) date 2020-01-13 20:43:58*
%MOMM*%
%LPD*%
G04 APERTURE LIST*
%ADD10C,0.100000*%
%ADD11R,2.000000X1.800000*%
%ADD12R,1.060000X0.650000*%
%ADD13R,1.220000X0.650000*%
%ADD14R,1.550000X1.300000*%
%ADD15R,1.300000X1.550000*%
%ADD16R,2.400000X0.740000*%
%ADD17R,2.500000X0.500000*%
%ADD18R,2.500000X2.000000*%
%ADD19R,2.500000X1.800000*%
G04 APERTURE END LIST*
D10*
G36*
X151527691Y-126276053D02*
G01*
X151548926Y-126279203D01*
X151569750Y-126284419D01*
X151589962Y-126291651D01*
X151609368Y-126300830D01*
X151627781Y-126311866D01*
X151645024Y-126324654D01*
X151660930Y-126339070D01*
X151675346Y-126354976D01*
X151688134Y-126372219D01*
X151699170Y-126390632D01*
X151708349Y-126410038D01*
X151715581Y-126430250D01*
X151720797Y-126451074D01*
X151723947Y-126472309D01*
X151725000Y-126493750D01*
X151725000Y-126931250D01*
X151723947Y-126952691D01*
X151720797Y-126973926D01*
X151715581Y-126994750D01*
X151708349Y-127014962D01*
X151699170Y-127034368D01*
X151688134Y-127052781D01*
X151675346Y-127070024D01*
X151660930Y-127085930D01*
X151645024Y-127100346D01*
X151627781Y-127113134D01*
X151609368Y-127124170D01*
X151589962Y-127133349D01*
X151569750Y-127140581D01*
X151548926Y-127145797D01*
X151527691Y-127148947D01*
X151506250Y-127150000D01*
X150993750Y-127150000D01*
X150972309Y-127148947D01*
X150951074Y-127145797D01*
X150930250Y-127140581D01*
X150910038Y-127133349D01*
X150890632Y-127124170D01*
X150872219Y-127113134D01*
X150854976Y-127100346D01*
X150839070Y-127085930D01*
X150824654Y-127070024D01*
X150811866Y-127052781D01*
X150800830Y-127034368D01*
X150791651Y-127014962D01*
X150784419Y-126994750D01*
X150779203Y-126973926D01*
X150776053Y-126952691D01*
X150775000Y-126931250D01*
X150775000Y-126493750D01*
X150776053Y-126472309D01*
X150779203Y-126451074D01*
X150784419Y-126430250D01*
X150791651Y-126410038D01*
X150800830Y-126390632D01*
X150811866Y-126372219D01*
X150824654Y-126354976D01*
X150839070Y-126339070D01*
X150854976Y-126324654D01*
X150872219Y-126311866D01*
X150890632Y-126300830D01*
X150910038Y-126291651D01*
X150930250Y-126284419D01*
X150951074Y-126279203D01*
X150972309Y-126276053D01*
X150993750Y-126275000D01*
X151506250Y-126275000D01*
X151527691Y-126276053D01*
G37*
G36*
X151527691Y-127851053D02*
G01*
X151548926Y-127854203D01*
X151569750Y-127859419D01*
X151589962Y-127866651D01*
X151609368Y-127875830D01*
X151627781Y-127886866D01*
X151645024Y-127899654D01*
X151660930Y-127914070D01*
X151675346Y-127929976D01*
X151688134Y-127947219D01*
X151699170Y-127965632D01*
X151708349Y-127985038D01*
X151715581Y-128005250D01*
X151720797Y-128026074D01*
X151723947Y-128047309D01*
X151725000Y-128068750D01*
X151725000Y-128506250D01*
X151723947Y-128527691D01*
X151720797Y-128548926D01*
X151715581Y-128569750D01*
X151708349Y-128589962D01*
X151699170Y-128609368D01*
X151688134Y-128627781D01*
X151675346Y-128645024D01*
X151660930Y-128660930D01*
X151645024Y-128675346D01*
X151627781Y-128688134D01*
X151609368Y-128699170D01*
X151589962Y-128708349D01*
X151569750Y-128715581D01*
X151548926Y-128720797D01*
X151527691Y-128723947D01*
X151506250Y-128725000D01*
X150993750Y-128725000D01*
X150972309Y-128723947D01*
X150951074Y-128720797D01*
X150930250Y-128715581D01*
X150910038Y-128708349D01*
X150890632Y-128699170D01*
X150872219Y-128688134D01*
X150854976Y-128675346D01*
X150839070Y-128660930D01*
X150824654Y-128645024D01*
X150811866Y-128627781D01*
X150800830Y-128609368D01*
X150791651Y-128589962D01*
X150784419Y-128569750D01*
X150779203Y-128548926D01*
X150776053Y-128527691D01*
X150775000Y-128506250D01*
X150775000Y-128068750D01*
X150776053Y-128047309D01*
X150779203Y-128026074D01*
X150784419Y-128005250D01*
X150791651Y-127985038D01*
X150800830Y-127965632D01*
X150811866Y-127947219D01*
X150824654Y-127929976D01*
X150839070Y-127914070D01*
X150854976Y-127899654D01*
X150872219Y-127886866D01*
X150890632Y-127875830D01*
X150910038Y-127866651D01*
X150930250Y-127859419D01*
X150951074Y-127854203D01*
X150972309Y-127851053D01*
X150993750Y-127850000D01*
X151506250Y-127850000D01*
X151527691Y-127851053D01*
G37*
G36*
X151527691Y-123276053D02*
G01*
X151548926Y-123279203D01*
X151569750Y-123284419D01*
X151589962Y-123291651D01*
X151609368Y-123300830D01*
X151627781Y-123311866D01*
X151645024Y-123324654D01*
X151660930Y-123339070D01*
X151675346Y-123354976D01*
X151688134Y-123372219D01*
X151699170Y-123390632D01*
X151708349Y-123410038D01*
X151715581Y-123430250D01*
X151720797Y-123451074D01*
X151723947Y-123472309D01*
X151725000Y-123493750D01*
X151725000Y-123931250D01*
X151723947Y-123952691D01*
X151720797Y-123973926D01*
X151715581Y-123994750D01*
X151708349Y-124014962D01*
X151699170Y-124034368D01*
X151688134Y-124052781D01*
X151675346Y-124070024D01*
X151660930Y-124085930D01*
X151645024Y-124100346D01*
X151627781Y-124113134D01*
X151609368Y-124124170D01*
X151589962Y-124133349D01*
X151569750Y-124140581D01*
X151548926Y-124145797D01*
X151527691Y-124148947D01*
X151506250Y-124150000D01*
X150993750Y-124150000D01*
X150972309Y-124148947D01*
X150951074Y-124145797D01*
X150930250Y-124140581D01*
X150910038Y-124133349D01*
X150890632Y-124124170D01*
X150872219Y-124113134D01*
X150854976Y-124100346D01*
X150839070Y-124085930D01*
X150824654Y-124070024D01*
X150811866Y-124052781D01*
X150800830Y-124034368D01*
X150791651Y-124014962D01*
X150784419Y-123994750D01*
X150779203Y-123973926D01*
X150776053Y-123952691D01*
X150775000Y-123931250D01*
X150775000Y-123493750D01*
X150776053Y-123472309D01*
X150779203Y-123451074D01*
X150784419Y-123430250D01*
X150791651Y-123410038D01*
X150800830Y-123390632D01*
X150811866Y-123372219D01*
X150824654Y-123354976D01*
X150839070Y-123339070D01*
X150854976Y-123324654D01*
X150872219Y-123311866D01*
X150890632Y-123300830D01*
X150910038Y-123291651D01*
X150930250Y-123284419D01*
X150951074Y-123279203D01*
X150972309Y-123276053D01*
X150993750Y-123275000D01*
X151506250Y-123275000D01*
X151527691Y-123276053D01*
G37*
G36*
X151527691Y-124851053D02*
G01*
X151548926Y-124854203D01*
X151569750Y-124859419D01*
X151589962Y-124866651D01*
X151609368Y-124875830D01*
X151627781Y-124886866D01*
X151645024Y-124899654D01*
X151660930Y-124914070D01*
X151675346Y-124929976D01*
X151688134Y-124947219D01*
X151699170Y-124965632D01*
X151708349Y-124985038D01*
X151715581Y-125005250D01*
X151720797Y-125026074D01*
X151723947Y-125047309D01*
X151725000Y-125068750D01*
X151725000Y-125506250D01*
X151723947Y-125527691D01*
X151720797Y-125548926D01*
X151715581Y-125569750D01*
X151708349Y-125589962D01*
X151699170Y-125609368D01*
X151688134Y-125627781D01*
X151675346Y-125645024D01*
X151660930Y-125660930D01*
X151645024Y-125675346D01*
X151627781Y-125688134D01*
X151609368Y-125699170D01*
X151589962Y-125708349D01*
X151569750Y-125715581D01*
X151548926Y-125720797D01*
X151527691Y-125723947D01*
X151506250Y-125725000D01*
X150993750Y-125725000D01*
X150972309Y-125723947D01*
X150951074Y-125720797D01*
X150930250Y-125715581D01*
X150910038Y-125708349D01*
X150890632Y-125699170D01*
X150872219Y-125688134D01*
X150854976Y-125675346D01*
X150839070Y-125660930D01*
X150824654Y-125645024D01*
X150811866Y-125627781D01*
X150800830Y-125609368D01*
X150791651Y-125589962D01*
X150784419Y-125569750D01*
X150779203Y-125548926D01*
X150776053Y-125527691D01*
X150775000Y-125506250D01*
X150775000Y-125068750D01*
X150776053Y-125047309D01*
X150779203Y-125026074D01*
X150784419Y-125005250D01*
X150791651Y-124985038D01*
X150800830Y-124965632D01*
X150811866Y-124947219D01*
X150824654Y-124929976D01*
X150839070Y-124914070D01*
X150854976Y-124899654D01*
X150872219Y-124886866D01*
X150890632Y-124875830D01*
X150910038Y-124866651D01*
X150930250Y-124859419D01*
X150951074Y-124854203D01*
X150972309Y-124851053D01*
X150993750Y-124850000D01*
X151506250Y-124850000D01*
X151527691Y-124851053D01*
G37*
G36*
X164658329Y-112376023D02*
G01*
X164678957Y-112379083D01*
X164699185Y-112384150D01*
X164718820Y-112391176D01*
X164737672Y-112400092D01*
X164755559Y-112410813D01*
X164772309Y-112423235D01*
X164787760Y-112437240D01*
X164801765Y-112452691D01*
X164814187Y-112469441D01*
X164824908Y-112487328D01*
X164833824Y-112506180D01*
X164840850Y-112525815D01*
X164845917Y-112546043D01*
X164848977Y-112566671D01*
X164850000Y-112587500D01*
X164850000Y-113012500D01*
X164848977Y-113033329D01*
X164845917Y-113053957D01*
X164840850Y-113074185D01*
X164833824Y-113093820D01*
X164824908Y-113112672D01*
X164814187Y-113130559D01*
X164801765Y-113147309D01*
X164787760Y-113162760D01*
X164772309Y-113176765D01*
X164755559Y-113189187D01*
X164737672Y-113199908D01*
X164718820Y-113208824D01*
X164699185Y-113215850D01*
X164678957Y-113220917D01*
X164658329Y-113223977D01*
X164637500Y-113225000D01*
X163837500Y-113225000D01*
X163816671Y-113223977D01*
X163796043Y-113220917D01*
X163775815Y-113215850D01*
X163756180Y-113208824D01*
X163737328Y-113199908D01*
X163719441Y-113189187D01*
X163702691Y-113176765D01*
X163687240Y-113162760D01*
X163673235Y-113147309D01*
X163660813Y-113130559D01*
X163650092Y-113112672D01*
X163641176Y-113093820D01*
X163634150Y-113074185D01*
X163629083Y-113053957D01*
X163626023Y-113033329D01*
X163625000Y-113012500D01*
X163625000Y-112587500D01*
X163626023Y-112566671D01*
X163629083Y-112546043D01*
X163634150Y-112525815D01*
X163641176Y-112506180D01*
X163650092Y-112487328D01*
X163660813Y-112469441D01*
X163673235Y-112452691D01*
X163687240Y-112437240D01*
X163702691Y-112423235D01*
X163719441Y-112410813D01*
X163737328Y-112400092D01*
X163756180Y-112391176D01*
X163775815Y-112384150D01*
X163796043Y-112379083D01*
X163816671Y-112376023D01*
X163837500Y-112375000D01*
X164637500Y-112375000D01*
X164658329Y-112376023D01*
G37*
G36*
X166283329Y-112376023D02*
G01*
X166303957Y-112379083D01*
X166324185Y-112384150D01*
X166343820Y-112391176D01*
X166362672Y-112400092D01*
X166380559Y-112410813D01*
X166397309Y-112423235D01*
X166412760Y-112437240D01*
X166426765Y-112452691D01*
X166439187Y-112469441D01*
X166449908Y-112487328D01*
X166458824Y-112506180D01*
X166465850Y-112525815D01*
X166470917Y-112546043D01*
X166473977Y-112566671D01*
X166475000Y-112587500D01*
X166475000Y-113012500D01*
X166473977Y-113033329D01*
X166470917Y-113053957D01*
X166465850Y-113074185D01*
X166458824Y-113093820D01*
X166449908Y-113112672D01*
X166439187Y-113130559D01*
X166426765Y-113147309D01*
X166412760Y-113162760D01*
X166397309Y-113176765D01*
X166380559Y-113189187D01*
X166362672Y-113199908D01*
X166343820Y-113208824D01*
X166324185Y-113215850D01*
X166303957Y-113220917D01*
X166283329Y-113223977D01*
X166262500Y-113225000D01*
X165462500Y-113225000D01*
X165441671Y-113223977D01*
X165421043Y-113220917D01*
X165400815Y-113215850D01*
X165381180Y-113208824D01*
X165362328Y-113199908D01*
X165344441Y-113189187D01*
X165327691Y-113176765D01*
X165312240Y-113162760D01*
X165298235Y-113147309D01*
X165285813Y-113130559D01*
X165275092Y-113112672D01*
X165266176Y-113093820D01*
X165259150Y-113074185D01*
X165254083Y-113053957D01*
X165251023Y-113033329D01*
X165250000Y-113012500D01*
X165250000Y-112587500D01*
X165251023Y-112566671D01*
X165254083Y-112546043D01*
X165259150Y-112525815D01*
X165266176Y-112506180D01*
X165275092Y-112487328D01*
X165285813Y-112469441D01*
X165298235Y-112452691D01*
X165312240Y-112437240D01*
X165327691Y-112423235D01*
X165344441Y-112410813D01*
X165362328Y-112400092D01*
X165381180Y-112391176D01*
X165400815Y-112384150D01*
X165421043Y-112379083D01*
X165441671Y-112376023D01*
X165462500Y-112375000D01*
X166262500Y-112375000D01*
X166283329Y-112376023D01*
G37*
G36*
X164658329Y-113876023D02*
G01*
X164678957Y-113879083D01*
X164699185Y-113884150D01*
X164718820Y-113891176D01*
X164737672Y-113900092D01*
X164755559Y-113910813D01*
X164772309Y-113923235D01*
X164787760Y-113937240D01*
X164801765Y-113952691D01*
X164814187Y-113969441D01*
X164824908Y-113987328D01*
X164833824Y-114006180D01*
X164840850Y-114025815D01*
X164845917Y-114046043D01*
X164848977Y-114066671D01*
X164850000Y-114087500D01*
X164850000Y-114512500D01*
X164848977Y-114533329D01*
X164845917Y-114553957D01*
X164840850Y-114574185D01*
X164833824Y-114593820D01*
X164824908Y-114612672D01*
X164814187Y-114630559D01*
X164801765Y-114647309D01*
X164787760Y-114662760D01*
X164772309Y-114676765D01*
X164755559Y-114689187D01*
X164737672Y-114699908D01*
X164718820Y-114708824D01*
X164699185Y-114715850D01*
X164678957Y-114720917D01*
X164658329Y-114723977D01*
X164637500Y-114725000D01*
X163837500Y-114725000D01*
X163816671Y-114723977D01*
X163796043Y-114720917D01*
X163775815Y-114715850D01*
X163756180Y-114708824D01*
X163737328Y-114699908D01*
X163719441Y-114689187D01*
X163702691Y-114676765D01*
X163687240Y-114662760D01*
X163673235Y-114647309D01*
X163660813Y-114630559D01*
X163650092Y-114612672D01*
X163641176Y-114593820D01*
X163634150Y-114574185D01*
X163629083Y-114553957D01*
X163626023Y-114533329D01*
X163625000Y-114512500D01*
X163625000Y-114087500D01*
X163626023Y-114066671D01*
X163629083Y-114046043D01*
X163634150Y-114025815D01*
X163641176Y-114006180D01*
X163650092Y-113987328D01*
X163660813Y-113969441D01*
X163673235Y-113952691D01*
X163687240Y-113937240D01*
X163702691Y-113923235D01*
X163719441Y-113910813D01*
X163737328Y-113900092D01*
X163756180Y-113891176D01*
X163775815Y-113884150D01*
X163796043Y-113879083D01*
X163816671Y-113876023D01*
X163837500Y-113875000D01*
X164637500Y-113875000D01*
X164658329Y-113876023D01*
G37*
G36*
X166283329Y-113876023D02*
G01*
X166303957Y-113879083D01*
X166324185Y-113884150D01*
X166343820Y-113891176D01*
X166362672Y-113900092D01*
X166380559Y-113910813D01*
X166397309Y-113923235D01*
X166412760Y-113937240D01*
X166426765Y-113952691D01*
X166439187Y-113969441D01*
X166449908Y-113987328D01*
X166458824Y-114006180D01*
X166465850Y-114025815D01*
X166470917Y-114046043D01*
X166473977Y-114066671D01*
X166475000Y-114087500D01*
X166475000Y-114512500D01*
X166473977Y-114533329D01*
X166470917Y-114553957D01*
X166465850Y-114574185D01*
X166458824Y-114593820D01*
X166449908Y-114612672D01*
X166439187Y-114630559D01*
X166426765Y-114647309D01*
X166412760Y-114662760D01*
X166397309Y-114676765D01*
X166380559Y-114689187D01*
X166362672Y-114699908D01*
X166343820Y-114708824D01*
X166324185Y-114715850D01*
X166303957Y-114720917D01*
X166283329Y-114723977D01*
X166262500Y-114725000D01*
X165462500Y-114725000D01*
X165441671Y-114723977D01*
X165421043Y-114720917D01*
X165400815Y-114715850D01*
X165381180Y-114708824D01*
X165362328Y-114699908D01*
X165344441Y-114689187D01*
X165327691Y-114676765D01*
X165312240Y-114662760D01*
X165298235Y-114647309D01*
X165285813Y-114630559D01*
X165275092Y-114612672D01*
X165266176Y-114593820D01*
X165259150Y-114574185D01*
X165254083Y-114553957D01*
X165251023Y-114533329D01*
X165250000Y-114512500D01*
X165250000Y-114087500D01*
X165251023Y-114066671D01*
X165254083Y-114046043D01*
X165259150Y-114025815D01*
X165266176Y-114006180D01*
X165275092Y-113987328D01*
X165285813Y-113969441D01*
X165298235Y-113952691D01*
X165312240Y-113937240D01*
X165327691Y-113923235D01*
X165344441Y-113910813D01*
X165362328Y-113900092D01*
X165381180Y-113891176D01*
X165400815Y-113884150D01*
X165421043Y-113879083D01*
X165441671Y-113876023D01*
X165462500Y-113875000D01*
X166262500Y-113875000D01*
X166283329Y-113876023D01*
G37*
G36*
X164452691Y-110726053D02*
G01*
X164473926Y-110729203D01*
X164494750Y-110734419D01*
X164514962Y-110741651D01*
X164534368Y-110750830D01*
X164552781Y-110761866D01*
X164570024Y-110774654D01*
X164585930Y-110789070D01*
X164600346Y-110804976D01*
X164613134Y-110822219D01*
X164624170Y-110840632D01*
X164633349Y-110860038D01*
X164640581Y-110880250D01*
X164645797Y-110901074D01*
X164648947Y-110922309D01*
X164650000Y-110943750D01*
X164650000Y-111456250D01*
X164648947Y-111477691D01*
X164645797Y-111498926D01*
X164640581Y-111519750D01*
X164633349Y-111539962D01*
X164624170Y-111559368D01*
X164613134Y-111577781D01*
X164600346Y-111595024D01*
X164585930Y-111610930D01*
X164570024Y-111625346D01*
X164552781Y-111638134D01*
X164534368Y-111649170D01*
X164514962Y-111658349D01*
X164494750Y-111665581D01*
X164473926Y-111670797D01*
X164452691Y-111673947D01*
X164431250Y-111675000D01*
X163993750Y-111675000D01*
X163972309Y-111673947D01*
X163951074Y-111670797D01*
X163930250Y-111665581D01*
X163910038Y-111658349D01*
X163890632Y-111649170D01*
X163872219Y-111638134D01*
X163854976Y-111625346D01*
X163839070Y-111610930D01*
X163824654Y-111595024D01*
X163811866Y-111577781D01*
X163800830Y-111559368D01*
X163791651Y-111539962D01*
X163784419Y-111519750D01*
X163779203Y-111498926D01*
X163776053Y-111477691D01*
X163775000Y-111456250D01*
X163775000Y-110943750D01*
X163776053Y-110922309D01*
X163779203Y-110901074D01*
X163784419Y-110880250D01*
X163791651Y-110860038D01*
X163800830Y-110840632D01*
X163811866Y-110822219D01*
X163824654Y-110804976D01*
X163839070Y-110789070D01*
X163854976Y-110774654D01*
X163872219Y-110761866D01*
X163890632Y-110750830D01*
X163910038Y-110741651D01*
X163930250Y-110734419D01*
X163951074Y-110729203D01*
X163972309Y-110726053D01*
X163993750Y-110725000D01*
X164431250Y-110725000D01*
X164452691Y-110726053D01*
G37*
G36*
X166027691Y-110726053D02*
G01*
X166048926Y-110729203D01*
X166069750Y-110734419D01*
X166089962Y-110741651D01*
X166109368Y-110750830D01*
X166127781Y-110761866D01*
X166145024Y-110774654D01*
X166160930Y-110789070D01*
X166175346Y-110804976D01*
X166188134Y-110822219D01*
X166199170Y-110840632D01*
X166208349Y-110860038D01*
X166215581Y-110880250D01*
X166220797Y-110901074D01*
X166223947Y-110922309D01*
X166225000Y-110943750D01*
X166225000Y-111456250D01*
X166223947Y-111477691D01*
X166220797Y-111498926D01*
X166215581Y-111519750D01*
X166208349Y-111539962D01*
X166199170Y-111559368D01*
X166188134Y-111577781D01*
X166175346Y-111595024D01*
X166160930Y-111610930D01*
X166145024Y-111625346D01*
X166127781Y-111638134D01*
X166109368Y-111649170D01*
X166089962Y-111658349D01*
X166069750Y-111665581D01*
X166048926Y-111670797D01*
X166027691Y-111673947D01*
X166006250Y-111675000D01*
X165568750Y-111675000D01*
X165547309Y-111673947D01*
X165526074Y-111670797D01*
X165505250Y-111665581D01*
X165485038Y-111658349D01*
X165465632Y-111649170D01*
X165447219Y-111638134D01*
X165429976Y-111625346D01*
X165414070Y-111610930D01*
X165399654Y-111595024D01*
X165386866Y-111577781D01*
X165375830Y-111559368D01*
X165366651Y-111539962D01*
X165359419Y-111519750D01*
X165354203Y-111498926D01*
X165351053Y-111477691D01*
X165350000Y-111456250D01*
X165350000Y-110943750D01*
X165351053Y-110922309D01*
X165354203Y-110901074D01*
X165359419Y-110880250D01*
X165366651Y-110860038D01*
X165375830Y-110840632D01*
X165386866Y-110822219D01*
X165399654Y-110804976D01*
X165414070Y-110789070D01*
X165429976Y-110774654D01*
X165447219Y-110761866D01*
X165465632Y-110750830D01*
X165485038Y-110741651D01*
X165505250Y-110734419D01*
X165526074Y-110729203D01*
X165547309Y-110726053D01*
X165568750Y-110725000D01*
X166006250Y-110725000D01*
X166027691Y-110726053D01*
G37*
G36*
X164452691Y-115426053D02*
G01*
X164473926Y-115429203D01*
X164494750Y-115434419D01*
X164514962Y-115441651D01*
X164534368Y-115450830D01*
X164552781Y-115461866D01*
X164570024Y-115474654D01*
X164585930Y-115489070D01*
X164600346Y-115504976D01*
X164613134Y-115522219D01*
X164624170Y-115540632D01*
X164633349Y-115560038D01*
X164640581Y-115580250D01*
X164645797Y-115601074D01*
X164648947Y-115622309D01*
X164650000Y-115643750D01*
X164650000Y-116156250D01*
X164648947Y-116177691D01*
X164645797Y-116198926D01*
X164640581Y-116219750D01*
X164633349Y-116239962D01*
X164624170Y-116259368D01*
X164613134Y-116277781D01*
X164600346Y-116295024D01*
X164585930Y-116310930D01*
X164570024Y-116325346D01*
X164552781Y-116338134D01*
X164534368Y-116349170D01*
X164514962Y-116358349D01*
X164494750Y-116365581D01*
X164473926Y-116370797D01*
X164452691Y-116373947D01*
X164431250Y-116375000D01*
X163993750Y-116375000D01*
X163972309Y-116373947D01*
X163951074Y-116370797D01*
X163930250Y-116365581D01*
X163910038Y-116358349D01*
X163890632Y-116349170D01*
X163872219Y-116338134D01*
X163854976Y-116325346D01*
X163839070Y-116310930D01*
X163824654Y-116295024D01*
X163811866Y-116277781D01*
X163800830Y-116259368D01*
X163791651Y-116239962D01*
X163784419Y-116219750D01*
X163779203Y-116198926D01*
X163776053Y-116177691D01*
X163775000Y-116156250D01*
X163775000Y-115643750D01*
X163776053Y-115622309D01*
X163779203Y-115601074D01*
X163784419Y-115580250D01*
X163791651Y-115560038D01*
X163800830Y-115540632D01*
X163811866Y-115522219D01*
X163824654Y-115504976D01*
X163839070Y-115489070D01*
X163854976Y-115474654D01*
X163872219Y-115461866D01*
X163890632Y-115450830D01*
X163910038Y-115441651D01*
X163930250Y-115434419D01*
X163951074Y-115429203D01*
X163972309Y-115426053D01*
X163993750Y-115425000D01*
X164431250Y-115425000D01*
X164452691Y-115426053D01*
G37*
G36*
X166027691Y-115426053D02*
G01*
X166048926Y-115429203D01*
X166069750Y-115434419D01*
X166089962Y-115441651D01*
X166109368Y-115450830D01*
X166127781Y-115461866D01*
X166145024Y-115474654D01*
X166160930Y-115489070D01*
X166175346Y-115504976D01*
X166188134Y-115522219D01*
X166199170Y-115540632D01*
X166208349Y-115560038D01*
X166215581Y-115580250D01*
X166220797Y-115601074D01*
X166223947Y-115622309D01*
X166225000Y-115643750D01*
X166225000Y-116156250D01*
X166223947Y-116177691D01*
X166220797Y-116198926D01*
X166215581Y-116219750D01*
X166208349Y-116239962D01*
X166199170Y-116259368D01*
X166188134Y-116277781D01*
X166175346Y-116295024D01*
X166160930Y-116310930D01*
X166145024Y-116325346D01*
X166127781Y-116338134D01*
X166109368Y-116349170D01*
X166089962Y-116358349D01*
X166069750Y-116365581D01*
X166048926Y-116370797D01*
X166027691Y-116373947D01*
X166006250Y-116375000D01*
X165568750Y-116375000D01*
X165547309Y-116373947D01*
X165526074Y-116370797D01*
X165505250Y-116365581D01*
X165485038Y-116358349D01*
X165465632Y-116349170D01*
X165447219Y-116338134D01*
X165429976Y-116325346D01*
X165414070Y-116310930D01*
X165399654Y-116295024D01*
X165386866Y-116277781D01*
X165375830Y-116259368D01*
X165366651Y-116239962D01*
X165359419Y-116219750D01*
X165354203Y-116198926D01*
X165351053Y-116177691D01*
X165350000Y-116156250D01*
X165350000Y-115643750D01*
X165351053Y-115622309D01*
X165354203Y-115601074D01*
X165359419Y-115580250D01*
X165366651Y-115560038D01*
X165375830Y-115540632D01*
X165386866Y-115522219D01*
X165399654Y-115504976D01*
X165414070Y-115489070D01*
X165429976Y-115474654D01*
X165447219Y-115461866D01*
X165465632Y-115450830D01*
X165485038Y-115441651D01*
X165505250Y-115434419D01*
X165526074Y-115429203D01*
X165547309Y-115426053D01*
X165568750Y-115425000D01*
X166006250Y-115425000D01*
X166027691Y-115426053D01*
G37*
G36*
X112708329Y-105976023D02*
G01*
X112728957Y-105979083D01*
X112749185Y-105984150D01*
X112768820Y-105991176D01*
X112787672Y-106000092D01*
X112805559Y-106010813D01*
X112822309Y-106023235D01*
X112837760Y-106037240D01*
X112851765Y-106052691D01*
X112864187Y-106069441D01*
X112874908Y-106087328D01*
X112883824Y-106106180D01*
X112890850Y-106125815D01*
X112895917Y-106146043D01*
X112898977Y-106166671D01*
X112900000Y-106187500D01*
X112900000Y-106612500D01*
X112898977Y-106633329D01*
X112895917Y-106653957D01*
X112890850Y-106674185D01*
X112883824Y-106693820D01*
X112874908Y-106712672D01*
X112864187Y-106730559D01*
X112851765Y-106747309D01*
X112837760Y-106762760D01*
X112822309Y-106776765D01*
X112805559Y-106789187D01*
X112787672Y-106799908D01*
X112768820Y-106808824D01*
X112749185Y-106815850D01*
X112728957Y-106820917D01*
X112708329Y-106823977D01*
X112687500Y-106825000D01*
X111887500Y-106825000D01*
X111866671Y-106823977D01*
X111846043Y-106820917D01*
X111825815Y-106815850D01*
X111806180Y-106808824D01*
X111787328Y-106799908D01*
X111769441Y-106789187D01*
X111752691Y-106776765D01*
X111737240Y-106762760D01*
X111723235Y-106747309D01*
X111710813Y-106730559D01*
X111700092Y-106712672D01*
X111691176Y-106693820D01*
X111684150Y-106674185D01*
X111679083Y-106653957D01*
X111676023Y-106633329D01*
X111675000Y-106612500D01*
X111675000Y-106187500D01*
X111676023Y-106166671D01*
X111679083Y-106146043D01*
X111684150Y-106125815D01*
X111691176Y-106106180D01*
X111700092Y-106087328D01*
X111710813Y-106069441D01*
X111723235Y-106052691D01*
X111737240Y-106037240D01*
X111752691Y-106023235D01*
X111769441Y-106010813D01*
X111787328Y-106000092D01*
X111806180Y-105991176D01*
X111825815Y-105984150D01*
X111846043Y-105979083D01*
X111866671Y-105976023D01*
X111887500Y-105975000D01*
X112687500Y-105975000D01*
X112708329Y-105976023D01*
G37*
G36*
X114333329Y-105976023D02*
G01*
X114353957Y-105979083D01*
X114374185Y-105984150D01*
X114393820Y-105991176D01*
X114412672Y-106000092D01*
X114430559Y-106010813D01*
X114447309Y-106023235D01*
X114462760Y-106037240D01*
X114476765Y-106052691D01*
X114489187Y-106069441D01*
X114499908Y-106087328D01*
X114508824Y-106106180D01*
X114515850Y-106125815D01*
X114520917Y-106146043D01*
X114523977Y-106166671D01*
X114525000Y-106187500D01*
X114525000Y-106612500D01*
X114523977Y-106633329D01*
X114520917Y-106653957D01*
X114515850Y-106674185D01*
X114508824Y-106693820D01*
X114499908Y-106712672D01*
X114489187Y-106730559D01*
X114476765Y-106747309D01*
X114462760Y-106762760D01*
X114447309Y-106776765D01*
X114430559Y-106789187D01*
X114412672Y-106799908D01*
X114393820Y-106808824D01*
X114374185Y-106815850D01*
X114353957Y-106820917D01*
X114333329Y-106823977D01*
X114312500Y-106825000D01*
X113512500Y-106825000D01*
X113491671Y-106823977D01*
X113471043Y-106820917D01*
X113450815Y-106815850D01*
X113431180Y-106808824D01*
X113412328Y-106799908D01*
X113394441Y-106789187D01*
X113377691Y-106776765D01*
X113362240Y-106762760D01*
X113348235Y-106747309D01*
X113335813Y-106730559D01*
X113325092Y-106712672D01*
X113316176Y-106693820D01*
X113309150Y-106674185D01*
X113304083Y-106653957D01*
X113301023Y-106633329D01*
X113300000Y-106612500D01*
X113300000Y-106187500D01*
X113301023Y-106166671D01*
X113304083Y-106146043D01*
X113309150Y-106125815D01*
X113316176Y-106106180D01*
X113325092Y-106087328D01*
X113335813Y-106069441D01*
X113348235Y-106052691D01*
X113362240Y-106037240D01*
X113377691Y-106023235D01*
X113394441Y-106010813D01*
X113412328Y-106000092D01*
X113431180Y-105991176D01*
X113450815Y-105984150D01*
X113471043Y-105979083D01*
X113491671Y-105976023D01*
X113512500Y-105975000D01*
X114312500Y-105975000D01*
X114333329Y-105976023D01*
G37*
G36*
X117340191Y-105926053D02*
G01*
X117361426Y-105929203D01*
X117382250Y-105934419D01*
X117402462Y-105941651D01*
X117421868Y-105950830D01*
X117440281Y-105961866D01*
X117457524Y-105974654D01*
X117473430Y-105989070D01*
X117487846Y-106004976D01*
X117500634Y-106022219D01*
X117511670Y-106040632D01*
X117520849Y-106060038D01*
X117528081Y-106080250D01*
X117533297Y-106101074D01*
X117536447Y-106122309D01*
X117537500Y-106143750D01*
X117537500Y-106656250D01*
X117536447Y-106677691D01*
X117533297Y-106698926D01*
X117528081Y-106719750D01*
X117520849Y-106739962D01*
X117511670Y-106759368D01*
X117500634Y-106777781D01*
X117487846Y-106795024D01*
X117473430Y-106810930D01*
X117457524Y-106825346D01*
X117440281Y-106838134D01*
X117421868Y-106849170D01*
X117402462Y-106858349D01*
X117382250Y-106865581D01*
X117361426Y-106870797D01*
X117340191Y-106873947D01*
X117318750Y-106875000D01*
X116881250Y-106875000D01*
X116859809Y-106873947D01*
X116838574Y-106870797D01*
X116817750Y-106865581D01*
X116797538Y-106858349D01*
X116778132Y-106849170D01*
X116759719Y-106838134D01*
X116742476Y-106825346D01*
X116726570Y-106810930D01*
X116712154Y-106795024D01*
X116699366Y-106777781D01*
X116688330Y-106759368D01*
X116679151Y-106739962D01*
X116671919Y-106719750D01*
X116666703Y-106698926D01*
X116663553Y-106677691D01*
X116662500Y-106656250D01*
X116662500Y-106143750D01*
X116663553Y-106122309D01*
X116666703Y-106101074D01*
X116671919Y-106080250D01*
X116679151Y-106060038D01*
X116688330Y-106040632D01*
X116699366Y-106022219D01*
X116712154Y-106004976D01*
X116726570Y-105989070D01*
X116742476Y-105974654D01*
X116759719Y-105961866D01*
X116778132Y-105950830D01*
X116797538Y-105941651D01*
X116817750Y-105934419D01*
X116838574Y-105929203D01*
X116859809Y-105926053D01*
X116881250Y-105925000D01*
X117318750Y-105925000D01*
X117340191Y-105926053D01*
G37*
G36*
X115765191Y-105926053D02*
G01*
X115786426Y-105929203D01*
X115807250Y-105934419D01*
X115827462Y-105941651D01*
X115846868Y-105950830D01*
X115865281Y-105961866D01*
X115882524Y-105974654D01*
X115898430Y-105989070D01*
X115912846Y-106004976D01*
X115925634Y-106022219D01*
X115936670Y-106040632D01*
X115945849Y-106060038D01*
X115953081Y-106080250D01*
X115958297Y-106101074D01*
X115961447Y-106122309D01*
X115962500Y-106143750D01*
X115962500Y-106656250D01*
X115961447Y-106677691D01*
X115958297Y-106698926D01*
X115953081Y-106719750D01*
X115945849Y-106739962D01*
X115936670Y-106759368D01*
X115925634Y-106777781D01*
X115912846Y-106795024D01*
X115898430Y-106810930D01*
X115882524Y-106825346D01*
X115865281Y-106838134D01*
X115846868Y-106849170D01*
X115827462Y-106858349D01*
X115807250Y-106865581D01*
X115786426Y-106870797D01*
X115765191Y-106873947D01*
X115743750Y-106875000D01*
X115306250Y-106875000D01*
X115284809Y-106873947D01*
X115263574Y-106870797D01*
X115242750Y-106865581D01*
X115222538Y-106858349D01*
X115203132Y-106849170D01*
X115184719Y-106838134D01*
X115167476Y-106825346D01*
X115151570Y-106810930D01*
X115137154Y-106795024D01*
X115124366Y-106777781D01*
X115113330Y-106759368D01*
X115104151Y-106739962D01*
X115096919Y-106719750D01*
X115091703Y-106698926D01*
X115088553Y-106677691D01*
X115087500Y-106656250D01*
X115087500Y-106143750D01*
X115088553Y-106122309D01*
X115091703Y-106101074D01*
X115096919Y-106080250D01*
X115104151Y-106060038D01*
X115113330Y-106040632D01*
X115124366Y-106022219D01*
X115137154Y-106004976D01*
X115151570Y-105989070D01*
X115167476Y-105974654D01*
X115184719Y-105961866D01*
X115203132Y-105950830D01*
X115222538Y-105941651D01*
X115242750Y-105934419D01*
X115263574Y-105929203D01*
X115284809Y-105926053D01*
X115306250Y-105925000D01*
X115743750Y-105925000D01*
X115765191Y-105926053D01*
G37*
G36*
X154677691Y-115288553D02*
G01*
X154698926Y-115291703D01*
X154719750Y-115296919D01*
X154739962Y-115304151D01*
X154759368Y-115313330D01*
X154777781Y-115324366D01*
X154795024Y-115337154D01*
X154810930Y-115351570D01*
X154825346Y-115367476D01*
X154838134Y-115384719D01*
X154849170Y-115403132D01*
X154858349Y-115422538D01*
X154865581Y-115442750D01*
X154870797Y-115463574D01*
X154873947Y-115484809D01*
X154875000Y-115506250D01*
X154875000Y-115943750D01*
X154873947Y-115965191D01*
X154870797Y-115986426D01*
X154865581Y-116007250D01*
X154858349Y-116027462D01*
X154849170Y-116046868D01*
X154838134Y-116065281D01*
X154825346Y-116082524D01*
X154810930Y-116098430D01*
X154795024Y-116112846D01*
X154777781Y-116125634D01*
X154759368Y-116136670D01*
X154739962Y-116145849D01*
X154719750Y-116153081D01*
X154698926Y-116158297D01*
X154677691Y-116161447D01*
X154656250Y-116162500D01*
X154143750Y-116162500D01*
X154122309Y-116161447D01*
X154101074Y-116158297D01*
X154080250Y-116153081D01*
X154060038Y-116145849D01*
X154040632Y-116136670D01*
X154022219Y-116125634D01*
X154004976Y-116112846D01*
X153989070Y-116098430D01*
X153974654Y-116082524D01*
X153961866Y-116065281D01*
X153950830Y-116046868D01*
X153941651Y-116027462D01*
X153934419Y-116007250D01*
X153929203Y-115986426D01*
X153926053Y-115965191D01*
X153925000Y-115943750D01*
X153925000Y-115506250D01*
X153926053Y-115484809D01*
X153929203Y-115463574D01*
X153934419Y-115442750D01*
X153941651Y-115422538D01*
X153950830Y-115403132D01*
X153961866Y-115384719D01*
X153974654Y-115367476D01*
X153989070Y-115351570D01*
X154004976Y-115337154D01*
X154022219Y-115324366D01*
X154040632Y-115313330D01*
X154060038Y-115304151D01*
X154080250Y-115296919D01*
X154101074Y-115291703D01*
X154122309Y-115288553D01*
X154143750Y-115287500D01*
X154656250Y-115287500D01*
X154677691Y-115288553D01*
G37*
G36*
X154677691Y-116863553D02*
G01*
X154698926Y-116866703D01*
X154719750Y-116871919D01*
X154739962Y-116879151D01*
X154759368Y-116888330D01*
X154777781Y-116899366D01*
X154795024Y-116912154D01*
X154810930Y-116926570D01*
X154825346Y-116942476D01*
X154838134Y-116959719D01*
X154849170Y-116978132D01*
X154858349Y-116997538D01*
X154865581Y-117017750D01*
X154870797Y-117038574D01*
X154873947Y-117059809D01*
X154875000Y-117081250D01*
X154875000Y-117518750D01*
X154873947Y-117540191D01*
X154870797Y-117561426D01*
X154865581Y-117582250D01*
X154858349Y-117602462D01*
X154849170Y-117621868D01*
X154838134Y-117640281D01*
X154825346Y-117657524D01*
X154810930Y-117673430D01*
X154795024Y-117687846D01*
X154777781Y-117700634D01*
X154759368Y-117711670D01*
X154739962Y-117720849D01*
X154719750Y-117728081D01*
X154698926Y-117733297D01*
X154677691Y-117736447D01*
X154656250Y-117737500D01*
X154143750Y-117737500D01*
X154122309Y-117736447D01*
X154101074Y-117733297D01*
X154080250Y-117728081D01*
X154060038Y-117720849D01*
X154040632Y-117711670D01*
X154022219Y-117700634D01*
X154004976Y-117687846D01*
X153989070Y-117673430D01*
X153974654Y-117657524D01*
X153961866Y-117640281D01*
X153950830Y-117621868D01*
X153941651Y-117602462D01*
X153934419Y-117582250D01*
X153929203Y-117561426D01*
X153926053Y-117540191D01*
X153925000Y-117518750D01*
X153925000Y-117081250D01*
X153926053Y-117059809D01*
X153929203Y-117038574D01*
X153934419Y-117017750D01*
X153941651Y-116997538D01*
X153950830Y-116978132D01*
X153961866Y-116959719D01*
X153974654Y-116942476D01*
X153989070Y-116926570D01*
X154004976Y-116912154D01*
X154022219Y-116899366D01*
X154040632Y-116888330D01*
X154060038Y-116879151D01*
X154080250Y-116871919D01*
X154101074Y-116866703D01*
X154122309Y-116863553D01*
X154143750Y-116862500D01*
X154656250Y-116862500D01*
X154677691Y-116863553D01*
G37*
D11*
X147900000Y-120840000D03*
X147900000Y-115760000D03*
X151900000Y-115760000D03*
X151900000Y-120840000D03*
D10*
G36*
X140690769Y-120317544D02*
G01*
X140702903Y-120319344D01*
X140714803Y-120322324D01*
X140726352Y-120326457D01*
X140737442Y-120331702D01*
X140747963Y-120338008D01*
X140757816Y-120345316D01*
X140766905Y-120353554D01*
X141650788Y-121237437D01*
X141659026Y-121246526D01*
X141666334Y-121256379D01*
X141672640Y-121266900D01*
X141677885Y-121277990D01*
X141682018Y-121289539D01*
X141684998Y-121301439D01*
X141686798Y-121313573D01*
X141687400Y-121325825D01*
X141686798Y-121338077D01*
X141684998Y-121350211D01*
X141682018Y-121362111D01*
X141677885Y-121373660D01*
X141672640Y-121384750D01*
X141666334Y-121395271D01*
X141659026Y-121405124D01*
X141650788Y-121414213D01*
X141474011Y-121590990D01*
X141464922Y-121599228D01*
X141455069Y-121606536D01*
X141444548Y-121612842D01*
X141433458Y-121618087D01*
X141421909Y-121622220D01*
X141410009Y-121625200D01*
X141397875Y-121627000D01*
X141385623Y-121627602D01*
X141373371Y-121627000D01*
X141361237Y-121625200D01*
X141349337Y-121622220D01*
X141337788Y-121618087D01*
X141326698Y-121612842D01*
X141316177Y-121606536D01*
X141306324Y-121599228D01*
X141297235Y-121590990D01*
X140413352Y-120707107D01*
X140405114Y-120698018D01*
X140397806Y-120688165D01*
X140391500Y-120677644D01*
X140386255Y-120666554D01*
X140382122Y-120655005D01*
X140379142Y-120643105D01*
X140377342Y-120630971D01*
X140376740Y-120618719D01*
X140377342Y-120606467D01*
X140379142Y-120594333D01*
X140382122Y-120582433D01*
X140386255Y-120570884D01*
X140391500Y-120559794D01*
X140397806Y-120549273D01*
X140405114Y-120539420D01*
X140413352Y-120530331D01*
X140590129Y-120353554D01*
X140599218Y-120345316D01*
X140609071Y-120338008D01*
X140619592Y-120331702D01*
X140630682Y-120326457D01*
X140642231Y-120322324D01*
X140654131Y-120319344D01*
X140666265Y-120317544D01*
X140678517Y-120316942D01*
X140690769Y-120317544D01*
G37*
G36*
X140125083Y-120883229D02*
G01*
X140137217Y-120885029D01*
X140149117Y-120888009D01*
X140160666Y-120892142D01*
X140171756Y-120897387D01*
X140182277Y-120903693D01*
X140192130Y-120911001D01*
X140201219Y-120919239D01*
X141085102Y-121803122D01*
X141093340Y-121812211D01*
X141100648Y-121822064D01*
X141106954Y-121832585D01*
X141112199Y-121843675D01*
X141116332Y-121855224D01*
X141119312Y-121867124D01*
X141121112Y-121879258D01*
X141121714Y-121891510D01*
X141121112Y-121903762D01*
X141119312Y-121915896D01*
X141116332Y-121927796D01*
X141112199Y-121939345D01*
X141106954Y-121950435D01*
X141100648Y-121960956D01*
X141093340Y-121970809D01*
X141085102Y-121979898D01*
X140908325Y-122156675D01*
X140899236Y-122164913D01*
X140889383Y-122172221D01*
X140878862Y-122178527D01*
X140867772Y-122183772D01*
X140856223Y-122187905D01*
X140844323Y-122190885D01*
X140832189Y-122192685D01*
X140819937Y-122193287D01*
X140807685Y-122192685D01*
X140795551Y-122190885D01*
X140783651Y-122187905D01*
X140772102Y-122183772D01*
X140761012Y-122178527D01*
X140750491Y-122172221D01*
X140740638Y-122164913D01*
X140731549Y-122156675D01*
X139847666Y-121272792D01*
X139839428Y-121263703D01*
X139832120Y-121253850D01*
X139825814Y-121243329D01*
X139820569Y-121232239D01*
X139816436Y-121220690D01*
X139813456Y-121208790D01*
X139811656Y-121196656D01*
X139811054Y-121184404D01*
X139811656Y-121172152D01*
X139813456Y-121160018D01*
X139816436Y-121148118D01*
X139820569Y-121136569D01*
X139825814Y-121125479D01*
X139832120Y-121114958D01*
X139839428Y-121105105D01*
X139847666Y-121096016D01*
X140024443Y-120919239D01*
X140033532Y-120911001D01*
X140043385Y-120903693D01*
X140053906Y-120897387D01*
X140064996Y-120892142D01*
X140076545Y-120888009D01*
X140088445Y-120885029D01*
X140100579Y-120883229D01*
X140112831Y-120882627D01*
X140125083Y-120883229D01*
G37*
G36*
X139559398Y-121448915D02*
G01*
X139571532Y-121450715D01*
X139583432Y-121453695D01*
X139594981Y-121457828D01*
X139606071Y-121463073D01*
X139616592Y-121469379D01*
X139626445Y-121476687D01*
X139635534Y-121484925D01*
X140519417Y-122368808D01*
X140527655Y-122377897D01*
X140534963Y-122387750D01*
X140541269Y-122398271D01*
X140546514Y-122409361D01*
X140550647Y-122420910D01*
X140553627Y-122432810D01*
X140555427Y-122444944D01*
X140556029Y-122457196D01*
X140555427Y-122469448D01*
X140553627Y-122481582D01*
X140550647Y-122493482D01*
X140546514Y-122505031D01*
X140541269Y-122516121D01*
X140534963Y-122526642D01*
X140527655Y-122536495D01*
X140519417Y-122545584D01*
X140342640Y-122722361D01*
X140333551Y-122730599D01*
X140323698Y-122737907D01*
X140313177Y-122744213D01*
X140302087Y-122749458D01*
X140290538Y-122753591D01*
X140278638Y-122756571D01*
X140266504Y-122758371D01*
X140254252Y-122758973D01*
X140242000Y-122758371D01*
X140229866Y-122756571D01*
X140217966Y-122753591D01*
X140206417Y-122749458D01*
X140195327Y-122744213D01*
X140184806Y-122737907D01*
X140174953Y-122730599D01*
X140165864Y-122722361D01*
X139281981Y-121838478D01*
X139273743Y-121829389D01*
X139266435Y-121819536D01*
X139260129Y-121809015D01*
X139254884Y-121797925D01*
X139250751Y-121786376D01*
X139247771Y-121774476D01*
X139245971Y-121762342D01*
X139245369Y-121750090D01*
X139245971Y-121737838D01*
X139247771Y-121725704D01*
X139250751Y-121713804D01*
X139254884Y-121702255D01*
X139260129Y-121691165D01*
X139266435Y-121680644D01*
X139273743Y-121670791D01*
X139281981Y-121661702D01*
X139458758Y-121484925D01*
X139467847Y-121476687D01*
X139477700Y-121469379D01*
X139488221Y-121463073D01*
X139499311Y-121457828D01*
X139510860Y-121453695D01*
X139522760Y-121450715D01*
X139534894Y-121448915D01*
X139547146Y-121448313D01*
X139559398Y-121448915D01*
G37*
G36*
X138993713Y-122014600D02*
G01*
X139005847Y-122016400D01*
X139017747Y-122019380D01*
X139029296Y-122023513D01*
X139040386Y-122028758D01*
X139050907Y-122035064D01*
X139060760Y-122042372D01*
X139069849Y-122050610D01*
X139953732Y-122934493D01*
X139961970Y-122943582D01*
X139969278Y-122953435D01*
X139975584Y-122963956D01*
X139980829Y-122975046D01*
X139984962Y-122986595D01*
X139987942Y-122998495D01*
X139989742Y-123010629D01*
X139990344Y-123022881D01*
X139989742Y-123035133D01*
X139987942Y-123047267D01*
X139984962Y-123059167D01*
X139980829Y-123070716D01*
X139975584Y-123081806D01*
X139969278Y-123092327D01*
X139961970Y-123102180D01*
X139953732Y-123111269D01*
X139776955Y-123288046D01*
X139767866Y-123296284D01*
X139758013Y-123303592D01*
X139747492Y-123309898D01*
X139736402Y-123315143D01*
X139724853Y-123319276D01*
X139712953Y-123322256D01*
X139700819Y-123324056D01*
X139688567Y-123324658D01*
X139676315Y-123324056D01*
X139664181Y-123322256D01*
X139652281Y-123319276D01*
X139640732Y-123315143D01*
X139629642Y-123309898D01*
X139619121Y-123303592D01*
X139609268Y-123296284D01*
X139600179Y-123288046D01*
X138716296Y-122404163D01*
X138708058Y-122395074D01*
X138700750Y-122385221D01*
X138694444Y-122374700D01*
X138689199Y-122363610D01*
X138685066Y-122352061D01*
X138682086Y-122340161D01*
X138680286Y-122328027D01*
X138679684Y-122315775D01*
X138680286Y-122303523D01*
X138682086Y-122291389D01*
X138685066Y-122279489D01*
X138689199Y-122267940D01*
X138694444Y-122256850D01*
X138700750Y-122246329D01*
X138708058Y-122236476D01*
X138716296Y-122227387D01*
X138893073Y-122050610D01*
X138902162Y-122042372D01*
X138912015Y-122035064D01*
X138922536Y-122028758D01*
X138933626Y-122023513D01*
X138945175Y-122019380D01*
X138957075Y-122016400D01*
X138969209Y-122014600D01*
X138981461Y-122013998D01*
X138993713Y-122014600D01*
G37*
G36*
X138428027Y-122580286D02*
G01*
X138440161Y-122582086D01*
X138452061Y-122585066D01*
X138463610Y-122589199D01*
X138474700Y-122594444D01*
X138485221Y-122600750D01*
X138495074Y-122608058D01*
X138504163Y-122616296D01*
X139388046Y-123500179D01*
X139396284Y-123509268D01*
X139403592Y-123519121D01*
X139409898Y-123529642D01*
X139415143Y-123540732D01*
X139419276Y-123552281D01*
X139422256Y-123564181D01*
X139424056Y-123576315D01*
X139424658Y-123588567D01*
X139424056Y-123600819D01*
X139422256Y-123612953D01*
X139419276Y-123624853D01*
X139415143Y-123636402D01*
X139409898Y-123647492D01*
X139403592Y-123658013D01*
X139396284Y-123667866D01*
X139388046Y-123676955D01*
X139211269Y-123853732D01*
X139202180Y-123861970D01*
X139192327Y-123869278D01*
X139181806Y-123875584D01*
X139170716Y-123880829D01*
X139159167Y-123884962D01*
X139147267Y-123887942D01*
X139135133Y-123889742D01*
X139122881Y-123890344D01*
X139110629Y-123889742D01*
X139098495Y-123887942D01*
X139086595Y-123884962D01*
X139075046Y-123880829D01*
X139063956Y-123875584D01*
X139053435Y-123869278D01*
X139043582Y-123861970D01*
X139034493Y-123853732D01*
X138150610Y-122969849D01*
X138142372Y-122960760D01*
X138135064Y-122950907D01*
X138128758Y-122940386D01*
X138123513Y-122929296D01*
X138119380Y-122917747D01*
X138116400Y-122905847D01*
X138114600Y-122893713D01*
X138113998Y-122881461D01*
X138114600Y-122869209D01*
X138116400Y-122857075D01*
X138119380Y-122845175D01*
X138123513Y-122833626D01*
X138128758Y-122822536D01*
X138135064Y-122812015D01*
X138142372Y-122802162D01*
X138150610Y-122793073D01*
X138327387Y-122616296D01*
X138336476Y-122608058D01*
X138346329Y-122600750D01*
X138356850Y-122594444D01*
X138367940Y-122589199D01*
X138379489Y-122585066D01*
X138391389Y-122582086D01*
X138403523Y-122580286D01*
X138415775Y-122579684D01*
X138428027Y-122580286D01*
G37*
G36*
X137862342Y-123145971D02*
G01*
X137874476Y-123147771D01*
X137886376Y-123150751D01*
X137897925Y-123154884D01*
X137909015Y-123160129D01*
X137919536Y-123166435D01*
X137929389Y-123173743D01*
X137938478Y-123181981D01*
X138822361Y-124065864D01*
X138830599Y-124074953D01*
X138837907Y-124084806D01*
X138844213Y-124095327D01*
X138849458Y-124106417D01*
X138853591Y-124117966D01*
X138856571Y-124129866D01*
X138858371Y-124142000D01*
X138858973Y-124154252D01*
X138858371Y-124166504D01*
X138856571Y-124178638D01*
X138853591Y-124190538D01*
X138849458Y-124202087D01*
X138844213Y-124213177D01*
X138837907Y-124223698D01*
X138830599Y-124233551D01*
X138822361Y-124242640D01*
X138645584Y-124419417D01*
X138636495Y-124427655D01*
X138626642Y-124434963D01*
X138616121Y-124441269D01*
X138605031Y-124446514D01*
X138593482Y-124450647D01*
X138581582Y-124453627D01*
X138569448Y-124455427D01*
X138557196Y-124456029D01*
X138544944Y-124455427D01*
X138532810Y-124453627D01*
X138520910Y-124450647D01*
X138509361Y-124446514D01*
X138498271Y-124441269D01*
X138487750Y-124434963D01*
X138477897Y-124427655D01*
X138468808Y-124419417D01*
X137584925Y-123535534D01*
X137576687Y-123526445D01*
X137569379Y-123516592D01*
X137563073Y-123506071D01*
X137557828Y-123494981D01*
X137553695Y-123483432D01*
X137550715Y-123471532D01*
X137548915Y-123459398D01*
X137548313Y-123447146D01*
X137548915Y-123434894D01*
X137550715Y-123422760D01*
X137553695Y-123410860D01*
X137557828Y-123399311D01*
X137563073Y-123388221D01*
X137569379Y-123377700D01*
X137576687Y-123367847D01*
X137584925Y-123358758D01*
X137761702Y-123181981D01*
X137770791Y-123173743D01*
X137780644Y-123166435D01*
X137791165Y-123160129D01*
X137802255Y-123154884D01*
X137813804Y-123150751D01*
X137825704Y-123147771D01*
X137837838Y-123145971D01*
X137850090Y-123145369D01*
X137862342Y-123145971D01*
G37*
G36*
X137296656Y-123711656D02*
G01*
X137308790Y-123713456D01*
X137320690Y-123716436D01*
X137332239Y-123720569D01*
X137343329Y-123725814D01*
X137353850Y-123732120D01*
X137363703Y-123739428D01*
X137372792Y-123747666D01*
X138256675Y-124631549D01*
X138264913Y-124640638D01*
X138272221Y-124650491D01*
X138278527Y-124661012D01*
X138283772Y-124672102D01*
X138287905Y-124683651D01*
X138290885Y-124695551D01*
X138292685Y-124707685D01*
X138293287Y-124719937D01*
X138292685Y-124732189D01*
X138290885Y-124744323D01*
X138287905Y-124756223D01*
X138283772Y-124767772D01*
X138278527Y-124778862D01*
X138272221Y-124789383D01*
X138264913Y-124799236D01*
X138256675Y-124808325D01*
X138079898Y-124985102D01*
X138070809Y-124993340D01*
X138060956Y-125000648D01*
X138050435Y-125006954D01*
X138039345Y-125012199D01*
X138027796Y-125016332D01*
X138015896Y-125019312D01*
X138003762Y-125021112D01*
X137991510Y-125021714D01*
X137979258Y-125021112D01*
X137967124Y-125019312D01*
X137955224Y-125016332D01*
X137943675Y-125012199D01*
X137932585Y-125006954D01*
X137922064Y-125000648D01*
X137912211Y-124993340D01*
X137903122Y-124985102D01*
X137019239Y-124101219D01*
X137011001Y-124092130D01*
X137003693Y-124082277D01*
X136997387Y-124071756D01*
X136992142Y-124060666D01*
X136988009Y-124049117D01*
X136985029Y-124037217D01*
X136983229Y-124025083D01*
X136982627Y-124012831D01*
X136983229Y-124000579D01*
X136985029Y-123988445D01*
X136988009Y-123976545D01*
X136992142Y-123964996D01*
X136997387Y-123953906D01*
X137003693Y-123943385D01*
X137011001Y-123933532D01*
X137019239Y-123924443D01*
X137196016Y-123747666D01*
X137205105Y-123739428D01*
X137214958Y-123732120D01*
X137225479Y-123725814D01*
X137236569Y-123720569D01*
X137248118Y-123716436D01*
X137260018Y-123713456D01*
X137272152Y-123711656D01*
X137284404Y-123711054D01*
X137296656Y-123711656D01*
G37*
G36*
X136730971Y-124277342D02*
G01*
X136743105Y-124279142D01*
X136755005Y-124282122D01*
X136766554Y-124286255D01*
X136777644Y-124291500D01*
X136788165Y-124297806D01*
X136798018Y-124305114D01*
X136807107Y-124313352D01*
X137690990Y-125197235D01*
X137699228Y-125206324D01*
X137706536Y-125216177D01*
X137712842Y-125226698D01*
X137718087Y-125237788D01*
X137722220Y-125249337D01*
X137725200Y-125261237D01*
X137727000Y-125273371D01*
X137727602Y-125285623D01*
X137727000Y-125297875D01*
X137725200Y-125310009D01*
X137722220Y-125321909D01*
X137718087Y-125333458D01*
X137712842Y-125344548D01*
X137706536Y-125355069D01*
X137699228Y-125364922D01*
X137690990Y-125374011D01*
X137514213Y-125550788D01*
X137505124Y-125559026D01*
X137495271Y-125566334D01*
X137484750Y-125572640D01*
X137473660Y-125577885D01*
X137462111Y-125582018D01*
X137450211Y-125584998D01*
X137438077Y-125586798D01*
X137425825Y-125587400D01*
X137413573Y-125586798D01*
X137401439Y-125584998D01*
X137389539Y-125582018D01*
X137377990Y-125577885D01*
X137366900Y-125572640D01*
X137356379Y-125566334D01*
X137346526Y-125559026D01*
X137337437Y-125550788D01*
X136453554Y-124666905D01*
X136445316Y-124657816D01*
X136438008Y-124647963D01*
X136431702Y-124637442D01*
X136426457Y-124626352D01*
X136422324Y-124614803D01*
X136419344Y-124602903D01*
X136417544Y-124590769D01*
X136416942Y-124578517D01*
X136417544Y-124566265D01*
X136419344Y-124554131D01*
X136422324Y-124542231D01*
X136426457Y-124530682D01*
X136431702Y-124519592D01*
X136438008Y-124509071D01*
X136445316Y-124499218D01*
X136453554Y-124490129D01*
X136630331Y-124313352D01*
X136639420Y-124305114D01*
X136649273Y-124297806D01*
X136659794Y-124291500D01*
X136670884Y-124286255D01*
X136682433Y-124282122D01*
X136694333Y-124279142D01*
X136706467Y-124277342D01*
X136718719Y-124276740D01*
X136730971Y-124277342D01*
G37*
G36*
X135493533Y-124277342D02*
G01*
X135505667Y-124279142D01*
X135517567Y-124282122D01*
X135529116Y-124286255D01*
X135540206Y-124291500D01*
X135550727Y-124297806D01*
X135560580Y-124305114D01*
X135569669Y-124313352D01*
X135746446Y-124490129D01*
X135754684Y-124499218D01*
X135761992Y-124509071D01*
X135768298Y-124519592D01*
X135773543Y-124530682D01*
X135777676Y-124542231D01*
X135780656Y-124554131D01*
X135782456Y-124566265D01*
X135783058Y-124578517D01*
X135782456Y-124590769D01*
X135780656Y-124602903D01*
X135777676Y-124614803D01*
X135773543Y-124626352D01*
X135768298Y-124637442D01*
X135761992Y-124647963D01*
X135754684Y-124657816D01*
X135746446Y-124666905D01*
X134862563Y-125550788D01*
X134853474Y-125559026D01*
X134843621Y-125566334D01*
X134833100Y-125572640D01*
X134822010Y-125577885D01*
X134810461Y-125582018D01*
X134798561Y-125584998D01*
X134786427Y-125586798D01*
X134774175Y-125587400D01*
X134761923Y-125586798D01*
X134749789Y-125584998D01*
X134737889Y-125582018D01*
X134726340Y-125577885D01*
X134715250Y-125572640D01*
X134704729Y-125566334D01*
X134694876Y-125559026D01*
X134685787Y-125550788D01*
X134509010Y-125374011D01*
X134500772Y-125364922D01*
X134493464Y-125355069D01*
X134487158Y-125344548D01*
X134481913Y-125333458D01*
X134477780Y-125321909D01*
X134474800Y-125310009D01*
X134473000Y-125297875D01*
X134472398Y-125285623D01*
X134473000Y-125273371D01*
X134474800Y-125261237D01*
X134477780Y-125249337D01*
X134481913Y-125237788D01*
X134487158Y-125226698D01*
X134493464Y-125216177D01*
X134500772Y-125206324D01*
X134509010Y-125197235D01*
X135392893Y-124313352D01*
X135401982Y-124305114D01*
X135411835Y-124297806D01*
X135422356Y-124291500D01*
X135433446Y-124286255D01*
X135444995Y-124282122D01*
X135456895Y-124279142D01*
X135469029Y-124277342D01*
X135481281Y-124276740D01*
X135493533Y-124277342D01*
G37*
G36*
X134927848Y-123711656D02*
G01*
X134939982Y-123713456D01*
X134951882Y-123716436D01*
X134963431Y-123720569D01*
X134974521Y-123725814D01*
X134985042Y-123732120D01*
X134994895Y-123739428D01*
X135003984Y-123747666D01*
X135180761Y-123924443D01*
X135188999Y-123933532D01*
X135196307Y-123943385D01*
X135202613Y-123953906D01*
X135207858Y-123964996D01*
X135211991Y-123976545D01*
X135214971Y-123988445D01*
X135216771Y-124000579D01*
X135217373Y-124012831D01*
X135216771Y-124025083D01*
X135214971Y-124037217D01*
X135211991Y-124049117D01*
X135207858Y-124060666D01*
X135202613Y-124071756D01*
X135196307Y-124082277D01*
X135188999Y-124092130D01*
X135180761Y-124101219D01*
X134296878Y-124985102D01*
X134287789Y-124993340D01*
X134277936Y-125000648D01*
X134267415Y-125006954D01*
X134256325Y-125012199D01*
X134244776Y-125016332D01*
X134232876Y-125019312D01*
X134220742Y-125021112D01*
X134208490Y-125021714D01*
X134196238Y-125021112D01*
X134184104Y-125019312D01*
X134172204Y-125016332D01*
X134160655Y-125012199D01*
X134149565Y-125006954D01*
X134139044Y-125000648D01*
X134129191Y-124993340D01*
X134120102Y-124985102D01*
X133943325Y-124808325D01*
X133935087Y-124799236D01*
X133927779Y-124789383D01*
X133921473Y-124778862D01*
X133916228Y-124767772D01*
X133912095Y-124756223D01*
X133909115Y-124744323D01*
X133907315Y-124732189D01*
X133906713Y-124719937D01*
X133907315Y-124707685D01*
X133909115Y-124695551D01*
X133912095Y-124683651D01*
X133916228Y-124672102D01*
X133921473Y-124661012D01*
X133927779Y-124650491D01*
X133935087Y-124640638D01*
X133943325Y-124631549D01*
X134827208Y-123747666D01*
X134836297Y-123739428D01*
X134846150Y-123732120D01*
X134856671Y-123725814D01*
X134867761Y-123720569D01*
X134879310Y-123716436D01*
X134891210Y-123713456D01*
X134903344Y-123711656D01*
X134915596Y-123711054D01*
X134927848Y-123711656D01*
G37*
G36*
X134362162Y-123145971D02*
G01*
X134374296Y-123147771D01*
X134386196Y-123150751D01*
X134397745Y-123154884D01*
X134408835Y-123160129D01*
X134419356Y-123166435D01*
X134429209Y-123173743D01*
X134438298Y-123181981D01*
X134615075Y-123358758D01*
X134623313Y-123367847D01*
X134630621Y-123377700D01*
X134636927Y-123388221D01*
X134642172Y-123399311D01*
X134646305Y-123410860D01*
X134649285Y-123422760D01*
X134651085Y-123434894D01*
X134651687Y-123447146D01*
X134651085Y-123459398D01*
X134649285Y-123471532D01*
X134646305Y-123483432D01*
X134642172Y-123494981D01*
X134636927Y-123506071D01*
X134630621Y-123516592D01*
X134623313Y-123526445D01*
X134615075Y-123535534D01*
X133731192Y-124419417D01*
X133722103Y-124427655D01*
X133712250Y-124434963D01*
X133701729Y-124441269D01*
X133690639Y-124446514D01*
X133679090Y-124450647D01*
X133667190Y-124453627D01*
X133655056Y-124455427D01*
X133642804Y-124456029D01*
X133630552Y-124455427D01*
X133618418Y-124453627D01*
X133606518Y-124450647D01*
X133594969Y-124446514D01*
X133583879Y-124441269D01*
X133573358Y-124434963D01*
X133563505Y-124427655D01*
X133554416Y-124419417D01*
X133377639Y-124242640D01*
X133369401Y-124233551D01*
X133362093Y-124223698D01*
X133355787Y-124213177D01*
X133350542Y-124202087D01*
X133346409Y-124190538D01*
X133343429Y-124178638D01*
X133341629Y-124166504D01*
X133341027Y-124154252D01*
X133341629Y-124142000D01*
X133343429Y-124129866D01*
X133346409Y-124117966D01*
X133350542Y-124106417D01*
X133355787Y-124095327D01*
X133362093Y-124084806D01*
X133369401Y-124074953D01*
X133377639Y-124065864D01*
X134261522Y-123181981D01*
X134270611Y-123173743D01*
X134280464Y-123166435D01*
X134290985Y-123160129D01*
X134302075Y-123154884D01*
X134313624Y-123150751D01*
X134325524Y-123147771D01*
X134337658Y-123145971D01*
X134349910Y-123145369D01*
X134362162Y-123145971D01*
G37*
G36*
X133796477Y-122580286D02*
G01*
X133808611Y-122582086D01*
X133820511Y-122585066D01*
X133832060Y-122589199D01*
X133843150Y-122594444D01*
X133853671Y-122600750D01*
X133863524Y-122608058D01*
X133872613Y-122616296D01*
X134049390Y-122793073D01*
X134057628Y-122802162D01*
X134064936Y-122812015D01*
X134071242Y-122822536D01*
X134076487Y-122833626D01*
X134080620Y-122845175D01*
X134083600Y-122857075D01*
X134085400Y-122869209D01*
X134086002Y-122881461D01*
X134085400Y-122893713D01*
X134083600Y-122905847D01*
X134080620Y-122917747D01*
X134076487Y-122929296D01*
X134071242Y-122940386D01*
X134064936Y-122950907D01*
X134057628Y-122960760D01*
X134049390Y-122969849D01*
X133165507Y-123853732D01*
X133156418Y-123861970D01*
X133146565Y-123869278D01*
X133136044Y-123875584D01*
X133124954Y-123880829D01*
X133113405Y-123884962D01*
X133101505Y-123887942D01*
X133089371Y-123889742D01*
X133077119Y-123890344D01*
X133064867Y-123889742D01*
X133052733Y-123887942D01*
X133040833Y-123884962D01*
X133029284Y-123880829D01*
X133018194Y-123875584D01*
X133007673Y-123869278D01*
X132997820Y-123861970D01*
X132988731Y-123853732D01*
X132811954Y-123676955D01*
X132803716Y-123667866D01*
X132796408Y-123658013D01*
X132790102Y-123647492D01*
X132784857Y-123636402D01*
X132780724Y-123624853D01*
X132777744Y-123612953D01*
X132775944Y-123600819D01*
X132775342Y-123588567D01*
X132775944Y-123576315D01*
X132777744Y-123564181D01*
X132780724Y-123552281D01*
X132784857Y-123540732D01*
X132790102Y-123529642D01*
X132796408Y-123519121D01*
X132803716Y-123509268D01*
X132811954Y-123500179D01*
X133695837Y-122616296D01*
X133704926Y-122608058D01*
X133714779Y-122600750D01*
X133725300Y-122594444D01*
X133736390Y-122589199D01*
X133747939Y-122585066D01*
X133759839Y-122582086D01*
X133771973Y-122580286D01*
X133784225Y-122579684D01*
X133796477Y-122580286D01*
G37*
G36*
X133230791Y-122014600D02*
G01*
X133242925Y-122016400D01*
X133254825Y-122019380D01*
X133266374Y-122023513D01*
X133277464Y-122028758D01*
X133287985Y-122035064D01*
X133297838Y-122042372D01*
X133306927Y-122050610D01*
X133483704Y-122227387D01*
X133491942Y-122236476D01*
X133499250Y-122246329D01*
X133505556Y-122256850D01*
X133510801Y-122267940D01*
X133514934Y-122279489D01*
X133517914Y-122291389D01*
X133519714Y-122303523D01*
X133520316Y-122315775D01*
X133519714Y-122328027D01*
X133517914Y-122340161D01*
X133514934Y-122352061D01*
X133510801Y-122363610D01*
X133505556Y-122374700D01*
X133499250Y-122385221D01*
X133491942Y-122395074D01*
X133483704Y-122404163D01*
X132599821Y-123288046D01*
X132590732Y-123296284D01*
X132580879Y-123303592D01*
X132570358Y-123309898D01*
X132559268Y-123315143D01*
X132547719Y-123319276D01*
X132535819Y-123322256D01*
X132523685Y-123324056D01*
X132511433Y-123324658D01*
X132499181Y-123324056D01*
X132487047Y-123322256D01*
X132475147Y-123319276D01*
X132463598Y-123315143D01*
X132452508Y-123309898D01*
X132441987Y-123303592D01*
X132432134Y-123296284D01*
X132423045Y-123288046D01*
X132246268Y-123111269D01*
X132238030Y-123102180D01*
X132230722Y-123092327D01*
X132224416Y-123081806D01*
X132219171Y-123070716D01*
X132215038Y-123059167D01*
X132212058Y-123047267D01*
X132210258Y-123035133D01*
X132209656Y-123022881D01*
X132210258Y-123010629D01*
X132212058Y-122998495D01*
X132215038Y-122986595D01*
X132219171Y-122975046D01*
X132224416Y-122963956D01*
X132230722Y-122953435D01*
X132238030Y-122943582D01*
X132246268Y-122934493D01*
X133130151Y-122050610D01*
X133139240Y-122042372D01*
X133149093Y-122035064D01*
X133159614Y-122028758D01*
X133170704Y-122023513D01*
X133182253Y-122019380D01*
X133194153Y-122016400D01*
X133206287Y-122014600D01*
X133218539Y-122013998D01*
X133230791Y-122014600D01*
G37*
G36*
X132665106Y-121448915D02*
G01*
X132677240Y-121450715D01*
X132689140Y-121453695D01*
X132700689Y-121457828D01*
X132711779Y-121463073D01*
X132722300Y-121469379D01*
X132732153Y-121476687D01*
X132741242Y-121484925D01*
X132918019Y-121661702D01*
X132926257Y-121670791D01*
X132933565Y-121680644D01*
X132939871Y-121691165D01*
X132945116Y-121702255D01*
X132949249Y-121713804D01*
X132952229Y-121725704D01*
X132954029Y-121737838D01*
X132954631Y-121750090D01*
X132954029Y-121762342D01*
X132952229Y-121774476D01*
X132949249Y-121786376D01*
X132945116Y-121797925D01*
X132939871Y-121809015D01*
X132933565Y-121819536D01*
X132926257Y-121829389D01*
X132918019Y-121838478D01*
X132034136Y-122722361D01*
X132025047Y-122730599D01*
X132015194Y-122737907D01*
X132004673Y-122744213D01*
X131993583Y-122749458D01*
X131982034Y-122753591D01*
X131970134Y-122756571D01*
X131958000Y-122758371D01*
X131945748Y-122758973D01*
X131933496Y-122758371D01*
X131921362Y-122756571D01*
X131909462Y-122753591D01*
X131897913Y-122749458D01*
X131886823Y-122744213D01*
X131876302Y-122737907D01*
X131866449Y-122730599D01*
X131857360Y-122722361D01*
X131680583Y-122545584D01*
X131672345Y-122536495D01*
X131665037Y-122526642D01*
X131658731Y-122516121D01*
X131653486Y-122505031D01*
X131649353Y-122493482D01*
X131646373Y-122481582D01*
X131644573Y-122469448D01*
X131643971Y-122457196D01*
X131644573Y-122444944D01*
X131646373Y-122432810D01*
X131649353Y-122420910D01*
X131653486Y-122409361D01*
X131658731Y-122398271D01*
X131665037Y-122387750D01*
X131672345Y-122377897D01*
X131680583Y-122368808D01*
X132564466Y-121484925D01*
X132573555Y-121476687D01*
X132583408Y-121469379D01*
X132593929Y-121463073D01*
X132605019Y-121457828D01*
X132616568Y-121453695D01*
X132628468Y-121450715D01*
X132640602Y-121448915D01*
X132652854Y-121448313D01*
X132665106Y-121448915D01*
G37*
G36*
X132099421Y-120883229D02*
G01*
X132111555Y-120885029D01*
X132123455Y-120888009D01*
X132135004Y-120892142D01*
X132146094Y-120897387D01*
X132156615Y-120903693D01*
X132166468Y-120911001D01*
X132175557Y-120919239D01*
X132352334Y-121096016D01*
X132360572Y-121105105D01*
X132367880Y-121114958D01*
X132374186Y-121125479D01*
X132379431Y-121136569D01*
X132383564Y-121148118D01*
X132386544Y-121160018D01*
X132388344Y-121172152D01*
X132388946Y-121184404D01*
X132388344Y-121196656D01*
X132386544Y-121208790D01*
X132383564Y-121220690D01*
X132379431Y-121232239D01*
X132374186Y-121243329D01*
X132367880Y-121253850D01*
X132360572Y-121263703D01*
X132352334Y-121272792D01*
X131468451Y-122156675D01*
X131459362Y-122164913D01*
X131449509Y-122172221D01*
X131438988Y-122178527D01*
X131427898Y-122183772D01*
X131416349Y-122187905D01*
X131404449Y-122190885D01*
X131392315Y-122192685D01*
X131380063Y-122193287D01*
X131367811Y-122192685D01*
X131355677Y-122190885D01*
X131343777Y-122187905D01*
X131332228Y-122183772D01*
X131321138Y-122178527D01*
X131310617Y-122172221D01*
X131300764Y-122164913D01*
X131291675Y-122156675D01*
X131114898Y-121979898D01*
X131106660Y-121970809D01*
X131099352Y-121960956D01*
X131093046Y-121950435D01*
X131087801Y-121939345D01*
X131083668Y-121927796D01*
X131080688Y-121915896D01*
X131078888Y-121903762D01*
X131078286Y-121891510D01*
X131078888Y-121879258D01*
X131080688Y-121867124D01*
X131083668Y-121855224D01*
X131087801Y-121843675D01*
X131093046Y-121832585D01*
X131099352Y-121822064D01*
X131106660Y-121812211D01*
X131114898Y-121803122D01*
X131998781Y-120919239D01*
X132007870Y-120911001D01*
X132017723Y-120903693D01*
X132028244Y-120897387D01*
X132039334Y-120892142D01*
X132050883Y-120888009D01*
X132062783Y-120885029D01*
X132074917Y-120883229D01*
X132087169Y-120882627D01*
X132099421Y-120883229D01*
G37*
G36*
X131533735Y-120317544D02*
G01*
X131545869Y-120319344D01*
X131557769Y-120322324D01*
X131569318Y-120326457D01*
X131580408Y-120331702D01*
X131590929Y-120338008D01*
X131600782Y-120345316D01*
X131609871Y-120353554D01*
X131786648Y-120530331D01*
X131794886Y-120539420D01*
X131802194Y-120549273D01*
X131808500Y-120559794D01*
X131813745Y-120570884D01*
X131817878Y-120582433D01*
X131820858Y-120594333D01*
X131822658Y-120606467D01*
X131823260Y-120618719D01*
X131822658Y-120630971D01*
X131820858Y-120643105D01*
X131817878Y-120655005D01*
X131813745Y-120666554D01*
X131808500Y-120677644D01*
X131802194Y-120688165D01*
X131794886Y-120698018D01*
X131786648Y-120707107D01*
X130902765Y-121590990D01*
X130893676Y-121599228D01*
X130883823Y-121606536D01*
X130873302Y-121612842D01*
X130862212Y-121618087D01*
X130850663Y-121622220D01*
X130838763Y-121625200D01*
X130826629Y-121627000D01*
X130814377Y-121627602D01*
X130802125Y-121627000D01*
X130789991Y-121625200D01*
X130778091Y-121622220D01*
X130766542Y-121618087D01*
X130755452Y-121612842D01*
X130744931Y-121606536D01*
X130735078Y-121599228D01*
X130725989Y-121590990D01*
X130549212Y-121414213D01*
X130540974Y-121405124D01*
X130533666Y-121395271D01*
X130527360Y-121384750D01*
X130522115Y-121373660D01*
X130517982Y-121362111D01*
X130515002Y-121350211D01*
X130513202Y-121338077D01*
X130512600Y-121325825D01*
X130513202Y-121313573D01*
X130515002Y-121301439D01*
X130517982Y-121289539D01*
X130522115Y-121277990D01*
X130527360Y-121266900D01*
X130533666Y-121256379D01*
X130540974Y-121246526D01*
X130549212Y-121237437D01*
X131433095Y-120353554D01*
X131442184Y-120345316D01*
X131452037Y-120338008D01*
X131462558Y-120331702D01*
X131473648Y-120326457D01*
X131485197Y-120322324D01*
X131497097Y-120319344D01*
X131509231Y-120317544D01*
X131521483Y-120316942D01*
X131533735Y-120317544D01*
G37*
G36*
X130826629Y-118373000D02*
G01*
X130838763Y-118374800D01*
X130850663Y-118377780D01*
X130862212Y-118381913D01*
X130873302Y-118387158D01*
X130883823Y-118393464D01*
X130893676Y-118400772D01*
X130902765Y-118409010D01*
X131786648Y-119292893D01*
X131794886Y-119301982D01*
X131802194Y-119311835D01*
X131808500Y-119322356D01*
X131813745Y-119333446D01*
X131817878Y-119344995D01*
X131820858Y-119356895D01*
X131822658Y-119369029D01*
X131823260Y-119381281D01*
X131822658Y-119393533D01*
X131820858Y-119405667D01*
X131817878Y-119417567D01*
X131813745Y-119429116D01*
X131808500Y-119440206D01*
X131802194Y-119450727D01*
X131794886Y-119460580D01*
X131786648Y-119469669D01*
X131609871Y-119646446D01*
X131600782Y-119654684D01*
X131590929Y-119661992D01*
X131580408Y-119668298D01*
X131569318Y-119673543D01*
X131557769Y-119677676D01*
X131545869Y-119680656D01*
X131533735Y-119682456D01*
X131521483Y-119683058D01*
X131509231Y-119682456D01*
X131497097Y-119680656D01*
X131485197Y-119677676D01*
X131473648Y-119673543D01*
X131462558Y-119668298D01*
X131452037Y-119661992D01*
X131442184Y-119654684D01*
X131433095Y-119646446D01*
X130549212Y-118762563D01*
X130540974Y-118753474D01*
X130533666Y-118743621D01*
X130527360Y-118733100D01*
X130522115Y-118722010D01*
X130517982Y-118710461D01*
X130515002Y-118698561D01*
X130513202Y-118686427D01*
X130512600Y-118674175D01*
X130513202Y-118661923D01*
X130515002Y-118649789D01*
X130517982Y-118637889D01*
X130522115Y-118626340D01*
X130527360Y-118615250D01*
X130533666Y-118604729D01*
X130540974Y-118594876D01*
X130549212Y-118585787D01*
X130725989Y-118409010D01*
X130735078Y-118400772D01*
X130744931Y-118393464D01*
X130755452Y-118387158D01*
X130766542Y-118381913D01*
X130778091Y-118377780D01*
X130789991Y-118374800D01*
X130802125Y-118373000D01*
X130814377Y-118372398D01*
X130826629Y-118373000D01*
G37*
G36*
X131392315Y-117807315D02*
G01*
X131404449Y-117809115D01*
X131416349Y-117812095D01*
X131427898Y-117816228D01*
X131438988Y-117821473D01*
X131449509Y-117827779D01*
X131459362Y-117835087D01*
X131468451Y-117843325D01*
X132352334Y-118727208D01*
X132360572Y-118736297D01*
X132367880Y-118746150D01*
X132374186Y-118756671D01*
X132379431Y-118767761D01*
X132383564Y-118779310D01*
X132386544Y-118791210D01*
X132388344Y-118803344D01*
X132388946Y-118815596D01*
X132388344Y-118827848D01*
X132386544Y-118839982D01*
X132383564Y-118851882D01*
X132379431Y-118863431D01*
X132374186Y-118874521D01*
X132367880Y-118885042D01*
X132360572Y-118894895D01*
X132352334Y-118903984D01*
X132175557Y-119080761D01*
X132166468Y-119088999D01*
X132156615Y-119096307D01*
X132146094Y-119102613D01*
X132135004Y-119107858D01*
X132123455Y-119111991D01*
X132111555Y-119114971D01*
X132099421Y-119116771D01*
X132087169Y-119117373D01*
X132074917Y-119116771D01*
X132062783Y-119114971D01*
X132050883Y-119111991D01*
X132039334Y-119107858D01*
X132028244Y-119102613D01*
X132017723Y-119096307D01*
X132007870Y-119088999D01*
X131998781Y-119080761D01*
X131114898Y-118196878D01*
X131106660Y-118187789D01*
X131099352Y-118177936D01*
X131093046Y-118167415D01*
X131087801Y-118156325D01*
X131083668Y-118144776D01*
X131080688Y-118132876D01*
X131078888Y-118120742D01*
X131078286Y-118108490D01*
X131078888Y-118096238D01*
X131080688Y-118084104D01*
X131083668Y-118072204D01*
X131087801Y-118060655D01*
X131093046Y-118049565D01*
X131099352Y-118039044D01*
X131106660Y-118029191D01*
X131114898Y-118020102D01*
X131291675Y-117843325D01*
X131300764Y-117835087D01*
X131310617Y-117827779D01*
X131321138Y-117821473D01*
X131332228Y-117816228D01*
X131343777Y-117812095D01*
X131355677Y-117809115D01*
X131367811Y-117807315D01*
X131380063Y-117806713D01*
X131392315Y-117807315D01*
G37*
G36*
X131958000Y-117241629D02*
G01*
X131970134Y-117243429D01*
X131982034Y-117246409D01*
X131993583Y-117250542D01*
X132004673Y-117255787D01*
X132015194Y-117262093D01*
X132025047Y-117269401D01*
X132034136Y-117277639D01*
X132918019Y-118161522D01*
X132926257Y-118170611D01*
X132933565Y-118180464D01*
X132939871Y-118190985D01*
X132945116Y-118202075D01*
X132949249Y-118213624D01*
X132952229Y-118225524D01*
X132954029Y-118237658D01*
X132954631Y-118249910D01*
X132954029Y-118262162D01*
X132952229Y-118274296D01*
X132949249Y-118286196D01*
X132945116Y-118297745D01*
X132939871Y-118308835D01*
X132933565Y-118319356D01*
X132926257Y-118329209D01*
X132918019Y-118338298D01*
X132741242Y-118515075D01*
X132732153Y-118523313D01*
X132722300Y-118530621D01*
X132711779Y-118536927D01*
X132700689Y-118542172D01*
X132689140Y-118546305D01*
X132677240Y-118549285D01*
X132665106Y-118551085D01*
X132652854Y-118551687D01*
X132640602Y-118551085D01*
X132628468Y-118549285D01*
X132616568Y-118546305D01*
X132605019Y-118542172D01*
X132593929Y-118536927D01*
X132583408Y-118530621D01*
X132573555Y-118523313D01*
X132564466Y-118515075D01*
X131680583Y-117631192D01*
X131672345Y-117622103D01*
X131665037Y-117612250D01*
X131658731Y-117601729D01*
X131653486Y-117590639D01*
X131649353Y-117579090D01*
X131646373Y-117567190D01*
X131644573Y-117555056D01*
X131643971Y-117542804D01*
X131644573Y-117530552D01*
X131646373Y-117518418D01*
X131649353Y-117506518D01*
X131653486Y-117494969D01*
X131658731Y-117483879D01*
X131665037Y-117473358D01*
X131672345Y-117463505D01*
X131680583Y-117454416D01*
X131857360Y-117277639D01*
X131866449Y-117269401D01*
X131876302Y-117262093D01*
X131886823Y-117255787D01*
X131897913Y-117250542D01*
X131909462Y-117246409D01*
X131921362Y-117243429D01*
X131933496Y-117241629D01*
X131945748Y-117241027D01*
X131958000Y-117241629D01*
G37*
G36*
X132523685Y-116675944D02*
G01*
X132535819Y-116677744D01*
X132547719Y-116680724D01*
X132559268Y-116684857D01*
X132570358Y-116690102D01*
X132580879Y-116696408D01*
X132590732Y-116703716D01*
X132599821Y-116711954D01*
X133483704Y-117595837D01*
X133491942Y-117604926D01*
X133499250Y-117614779D01*
X133505556Y-117625300D01*
X133510801Y-117636390D01*
X133514934Y-117647939D01*
X133517914Y-117659839D01*
X133519714Y-117671973D01*
X133520316Y-117684225D01*
X133519714Y-117696477D01*
X133517914Y-117708611D01*
X133514934Y-117720511D01*
X133510801Y-117732060D01*
X133505556Y-117743150D01*
X133499250Y-117753671D01*
X133491942Y-117763524D01*
X133483704Y-117772613D01*
X133306927Y-117949390D01*
X133297838Y-117957628D01*
X133287985Y-117964936D01*
X133277464Y-117971242D01*
X133266374Y-117976487D01*
X133254825Y-117980620D01*
X133242925Y-117983600D01*
X133230791Y-117985400D01*
X133218539Y-117986002D01*
X133206287Y-117985400D01*
X133194153Y-117983600D01*
X133182253Y-117980620D01*
X133170704Y-117976487D01*
X133159614Y-117971242D01*
X133149093Y-117964936D01*
X133139240Y-117957628D01*
X133130151Y-117949390D01*
X132246268Y-117065507D01*
X132238030Y-117056418D01*
X132230722Y-117046565D01*
X132224416Y-117036044D01*
X132219171Y-117024954D01*
X132215038Y-117013405D01*
X132212058Y-117001505D01*
X132210258Y-116989371D01*
X132209656Y-116977119D01*
X132210258Y-116964867D01*
X132212058Y-116952733D01*
X132215038Y-116940833D01*
X132219171Y-116929284D01*
X132224416Y-116918194D01*
X132230722Y-116907673D01*
X132238030Y-116897820D01*
X132246268Y-116888731D01*
X132423045Y-116711954D01*
X132432134Y-116703716D01*
X132441987Y-116696408D01*
X132452508Y-116690102D01*
X132463598Y-116684857D01*
X132475147Y-116680724D01*
X132487047Y-116677744D01*
X132499181Y-116675944D01*
X132511433Y-116675342D01*
X132523685Y-116675944D01*
G37*
G36*
X133089371Y-116110258D02*
G01*
X133101505Y-116112058D01*
X133113405Y-116115038D01*
X133124954Y-116119171D01*
X133136044Y-116124416D01*
X133146565Y-116130722D01*
X133156418Y-116138030D01*
X133165507Y-116146268D01*
X134049390Y-117030151D01*
X134057628Y-117039240D01*
X134064936Y-117049093D01*
X134071242Y-117059614D01*
X134076487Y-117070704D01*
X134080620Y-117082253D01*
X134083600Y-117094153D01*
X134085400Y-117106287D01*
X134086002Y-117118539D01*
X134085400Y-117130791D01*
X134083600Y-117142925D01*
X134080620Y-117154825D01*
X134076487Y-117166374D01*
X134071242Y-117177464D01*
X134064936Y-117187985D01*
X134057628Y-117197838D01*
X134049390Y-117206927D01*
X133872613Y-117383704D01*
X133863524Y-117391942D01*
X133853671Y-117399250D01*
X133843150Y-117405556D01*
X133832060Y-117410801D01*
X133820511Y-117414934D01*
X133808611Y-117417914D01*
X133796477Y-117419714D01*
X133784225Y-117420316D01*
X133771973Y-117419714D01*
X133759839Y-117417914D01*
X133747939Y-117414934D01*
X133736390Y-117410801D01*
X133725300Y-117405556D01*
X133714779Y-117399250D01*
X133704926Y-117391942D01*
X133695837Y-117383704D01*
X132811954Y-116499821D01*
X132803716Y-116490732D01*
X132796408Y-116480879D01*
X132790102Y-116470358D01*
X132784857Y-116459268D01*
X132780724Y-116447719D01*
X132777744Y-116435819D01*
X132775944Y-116423685D01*
X132775342Y-116411433D01*
X132775944Y-116399181D01*
X132777744Y-116387047D01*
X132780724Y-116375147D01*
X132784857Y-116363598D01*
X132790102Y-116352508D01*
X132796408Y-116341987D01*
X132803716Y-116332134D01*
X132811954Y-116323045D01*
X132988731Y-116146268D01*
X132997820Y-116138030D01*
X133007673Y-116130722D01*
X133018194Y-116124416D01*
X133029284Y-116119171D01*
X133040833Y-116115038D01*
X133052733Y-116112058D01*
X133064867Y-116110258D01*
X133077119Y-116109656D01*
X133089371Y-116110258D01*
G37*
G36*
X133655056Y-115544573D02*
G01*
X133667190Y-115546373D01*
X133679090Y-115549353D01*
X133690639Y-115553486D01*
X133701729Y-115558731D01*
X133712250Y-115565037D01*
X133722103Y-115572345D01*
X133731192Y-115580583D01*
X134615075Y-116464466D01*
X134623313Y-116473555D01*
X134630621Y-116483408D01*
X134636927Y-116493929D01*
X134642172Y-116505019D01*
X134646305Y-116516568D01*
X134649285Y-116528468D01*
X134651085Y-116540602D01*
X134651687Y-116552854D01*
X134651085Y-116565106D01*
X134649285Y-116577240D01*
X134646305Y-116589140D01*
X134642172Y-116600689D01*
X134636927Y-116611779D01*
X134630621Y-116622300D01*
X134623313Y-116632153D01*
X134615075Y-116641242D01*
X134438298Y-116818019D01*
X134429209Y-116826257D01*
X134419356Y-116833565D01*
X134408835Y-116839871D01*
X134397745Y-116845116D01*
X134386196Y-116849249D01*
X134374296Y-116852229D01*
X134362162Y-116854029D01*
X134349910Y-116854631D01*
X134337658Y-116854029D01*
X134325524Y-116852229D01*
X134313624Y-116849249D01*
X134302075Y-116845116D01*
X134290985Y-116839871D01*
X134280464Y-116833565D01*
X134270611Y-116826257D01*
X134261522Y-116818019D01*
X133377639Y-115934136D01*
X133369401Y-115925047D01*
X133362093Y-115915194D01*
X133355787Y-115904673D01*
X133350542Y-115893583D01*
X133346409Y-115882034D01*
X133343429Y-115870134D01*
X133341629Y-115858000D01*
X133341027Y-115845748D01*
X133341629Y-115833496D01*
X133343429Y-115821362D01*
X133346409Y-115809462D01*
X133350542Y-115797913D01*
X133355787Y-115786823D01*
X133362093Y-115776302D01*
X133369401Y-115766449D01*
X133377639Y-115757360D01*
X133554416Y-115580583D01*
X133563505Y-115572345D01*
X133573358Y-115565037D01*
X133583879Y-115558731D01*
X133594969Y-115553486D01*
X133606518Y-115549353D01*
X133618418Y-115546373D01*
X133630552Y-115544573D01*
X133642804Y-115543971D01*
X133655056Y-115544573D01*
G37*
G36*
X134220742Y-114978888D02*
G01*
X134232876Y-114980688D01*
X134244776Y-114983668D01*
X134256325Y-114987801D01*
X134267415Y-114993046D01*
X134277936Y-114999352D01*
X134287789Y-115006660D01*
X134296878Y-115014898D01*
X135180761Y-115898781D01*
X135188999Y-115907870D01*
X135196307Y-115917723D01*
X135202613Y-115928244D01*
X135207858Y-115939334D01*
X135211991Y-115950883D01*
X135214971Y-115962783D01*
X135216771Y-115974917D01*
X135217373Y-115987169D01*
X135216771Y-115999421D01*
X135214971Y-116011555D01*
X135211991Y-116023455D01*
X135207858Y-116035004D01*
X135202613Y-116046094D01*
X135196307Y-116056615D01*
X135188999Y-116066468D01*
X135180761Y-116075557D01*
X135003984Y-116252334D01*
X134994895Y-116260572D01*
X134985042Y-116267880D01*
X134974521Y-116274186D01*
X134963431Y-116279431D01*
X134951882Y-116283564D01*
X134939982Y-116286544D01*
X134927848Y-116288344D01*
X134915596Y-116288946D01*
X134903344Y-116288344D01*
X134891210Y-116286544D01*
X134879310Y-116283564D01*
X134867761Y-116279431D01*
X134856671Y-116274186D01*
X134846150Y-116267880D01*
X134836297Y-116260572D01*
X134827208Y-116252334D01*
X133943325Y-115368451D01*
X133935087Y-115359362D01*
X133927779Y-115349509D01*
X133921473Y-115338988D01*
X133916228Y-115327898D01*
X133912095Y-115316349D01*
X133909115Y-115304449D01*
X133907315Y-115292315D01*
X133906713Y-115280063D01*
X133907315Y-115267811D01*
X133909115Y-115255677D01*
X133912095Y-115243777D01*
X133916228Y-115232228D01*
X133921473Y-115221138D01*
X133927779Y-115210617D01*
X133935087Y-115200764D01*
X133943325Y-115191675D01*
X134120102Y-115014898D01*
X134129191Y-115006660D01*
X134139044Y-114999352D01*
X134149565Y-114993046D01*
X134160655Y-114987801D01*
X134172204Y-114983668D01*
X134184104Y-114980688D01*
X134196238Y-114978888D01*
X134208490Y-114978286D01*
X134220742Y-114978888D01*
G37*
G36*
X134786427Y-114413202D02*
G01*
X134798561Y-114415002D01*
X134810461Y-114417982D01*
X134822010Y-114422115D01*
X134833100Y-114427360D01*
X134843621Y-114433666D01*
X134853474Y-114440974D01*
X134862563Y-114449212D01*
X135746446Y-115333095D01*
X135754684Y-115342184D01*
X135761992Y-115352037D01*
X135768298Y-115362558D01*
X135773543Y-115373648D01*
X135777676Y-115385197D01*
X135780656Y-115397097D01*
X135782456Y-115409231D01*
X135783058Y-115421483D01*
X135782456Y-115433735D01*
X135780656Y-115445869D01*
X135777676Y-115457769D01*
X135773543Y-115469318D01*
X135768298Y-115480408D01*
X135761992Y-115490929D01*
X135754684Y-115500782D01*
X135746446Y-115509871D01*
X135569669Y-115686648D01*
X135560580Y-115694886D01*
X135550727Y-115702194D01*
X135540206Y-115708500D01*
X135529116Y-115713745D01*
X135517567Y-115717878D01*
X135505667Y-115720858D01*
X135493533Y-115722658D01*
X135481281Y-115723260D01*
X135469029Y-115722658D01*
X135456895Y-115720858D01*
X135444995Y-115717878D01*
X135433446Y-115713745D01*
X135422356Y-115708500D01*
X135411835Y-115702194D01*
X135401982Y-115694886D01*
X135392893Y-115686648D01*
X134509010Y-114802765D01*
X134500772Y-114793676D01*
X134493464Y-114783823D01*
X134487158Y-114773302D01*
X134481913Y-114762212D01*
X134477780Y-114750663D01*
X134474800Y-114738763D01*
X134473000Y-114726629D01*
X134472398Y-114714377D01*
X134473000Y-114702125D01*
X134474800Y-114689991D01*
X134477780Y-114678091D01*
X134481913Y-114666542D01*
X134487158Y-114655452D01*
X134493464Y-114644931D01*
X134500772Y-114635078D01*
X134509010Y-114625989D01*
X134685787Y-114449212D01*
X134694876Y-114440974D01*
X134704729Y-114433666D01*
X134715250Y-114427360D01*
X134726340Y-114422115D01*
X134737889Y-114417982D01*
X134749789Y-114415002D01*
X134761923Y-114413202D01*
X134774175Y-114412600D01*
X134786427Y-114413202D01*
G37*
G36*
X137438077Y-114413202D02*
G01*
X137450211Y-114415002D01*
X137462111Y-114417982D01*
X137473660Y-114422115D01*
X137484750Y-114427360D01*
X137495271Y-114433666D01*
X137505124Y-114440974D01*
X137514213Y-114449212D01*
X137690990Y-114625989D01*
X137699228Y-114635078D01*
X137706536Y-114644931D01*
X137712842Y-114655452D01*
X137718087Y-114666542D01*
X137722220Y-114678091D01*
X137725200Y-114689991D01*
X137727000Y-114702125D01*
X137727602Y-114714377D01*
X137727000Y-114726629D01*
X137725200Y-114738763D01*
X137722220Y-114750663D01*
X137718087Y-114762212D01*
X137712842Y-114773302D01*
X137706536Y-114783823D01*
X137699228Y-114793676D01*
X137690990Y-114802765D01*
X136807107Y-115686648D01*
X136798018Y-115694886D01*
X136788165Y-115702194D01*
X136777644Y-115708500D01*
X136766554Y-115713745D01*
X136755005Y-115717878D01*
X136743105Y-115720858D01*
X136730971Y-115722658D01*
X136718719Y-115723260D01*
X136706467Y-115722658D01*
X136694333Y-115720858D01*
X136682433Y-115717878D01*
X136670884Y-115713745D01*
X136659794Y-115708500D01*
X136649273Y-115702194D01*
X136639420Y-115694886D01*
X136630331Y-115686648D01*
X136453554Y-115509871D01*
X136445316Y-115500782D01*
X136438008Y-115490929D01*
X136431702Y-115480408D01*
X136426457Y-115469318D01*
X136422324Y-115457769D01*
X136419344Y-115445869D01*
X136417544Y-115433735D01*
X136416942Y-115421483D01*
X136417544Y-115409231D01*
X136419344Y-115397097D01*
X136422324Y-115385197D01*
X136426457Y-115373648D01*
X136431702Y-115362558D01*
X136438008Y-115352037D01*
X136445316Y-115342184D01*
X136453554Y-115333095D01*
X137337437Y-114449212D01*
X137346526Y-114440974D01*
X137356379Y-114433666D01*
X137366900Y-114427360D01*
X137377990Y-114422115D01*
X137389539Y-114417982D01*
X137401439Y-114415002D01*
X137413573Y-114413202D01*
X137425825Y-114412600D01*
X137438077Y-114413202D01*
G37*
G36*
X138003762Y-114978888D02*
G01*
X138015896Y-114980688D01*
X138027796Y-114983668D01*
X138039345Y-114987801D01*
X138050435Y-114993046D01*
X138060956Y-114999352D01*
X138070809Y-115006660D01*
X138079898Y-115014898D01*
X138256675Y-115191675D01*
X138264913Y-115200764D01*
X138272221Y-115210617D01*
X138278527Y-115221138D01*
X138283772Y-115232228D01*
X138287905Y-115243777D01*
X138290885Y-115255677D01*
X138292685Y-115267811D01*
X138293287Y-115280063D01*
X138292685Y-115292315D01*
X138290885Y-115304449D01*
X138287905Y-115316349D01*
X138283772Y-115327898D01*
X138278527Y-115338988D01*
X138272221Y-115349509D01*
X138264913Y-115359362D01*
X138256675Y-115368451D01*
X137372792Y-116252334D01*
X137363703Y-116260572D01*
X137353850Y-116267880D01*
X137343329Y-116274186D01*
X137332239Y-116279431D01*
X137320690Y-116283564D01*
X137308790Y-116286544D01*
X137296656Y-116288344D01*
X137284404Y-116288946D01*
X137272152Y-116288344D01*
X137260018Y-116286544D01*
X137248118Y-116283564D01*
X137236569Y-116279431D01*
X137225479Y-116274186D01*
X137214958Y-116267880D01*
X137205105Y-116260572D01*
X137196016Y-116252334D01*
X137019239Y-116075557D01*
X137011001Y-116066468D01*
X137003693Y-116056615D01*
X136997387Y-116046094D01*
X136992142Y-116035004D01*
X136988009Y-116023455D01*
X136985029Y-116011555D01*
X136983229Y-115999421D01*
X136982627Y-115987169D01*
X136983229Y-115974917D01*
X136985029Y-115962783D01*
X136988009Y-115950883D01*
X136992142Y-115939334D01*
X136997387Y-115928244D01*
X137003693Y-115917723D01*
X137011001Y-115907870D01*
X137019239Y-115898781D01*
X137903122Y-115014898D01*
X137912211Y-115006660D01*
X137922064Y-114999352D01*
X137932585Y-114993046D01*
X137943675Y-114987801D01*
X137955224Y-114983668D01*
X137967124Y-114980688D01*
X137979258Y-114978888D01*
X137991510Y-114978286D01*
X138003762Y-114978888D01*
G37*
G36*
X138569448Y-115544573D02*
G01*
X138581582Y-115546373D01*
X138593482Y-115549353D01*
X138605031Y-115553486D01*
X138616121Y-115558731D01*
X138626642Y-115565037D01*
X138636495Y-115572345D01*
X138645584Y-115580583D01*
X138822361Y-115757360D01*
X138830599Y-115766449D01*
X138837907Y-115776302D01*
X138844213Y-115786823D01*
X138849458Y-115797913D01*
X138853591Y-115809462D01*
X138856571Y-115821362D01*
X138858371Y-115833496D01*
X138858973Y-115845748D01*
X138858371Y-115858000D01*
X138856571Y-115870134D01*
X138853591Y-115882034D01*
X138849458Y-115893583D01*
X138844213Y-115904673D01*
X138837907Y-115915194D01*
X138830599Y-115925047D01*
X138822361Y-115934136D01*
X137938478Y-116818019D01*
X137929389Y-116826257D01*
X137919536Y-116833565D01*
X137909015Y-116839871D01*
X137897925Y-116845116D01*
X137886376Y-116849249D01*
X137874476Y-116852229D01*
X137862342Y-116854029D01*
X137850090Y-116854631D01*
X137837838Y-116854029D01*
X137825704Y-116852229D01*
X137813804Y-116849249D01*
X137802255Y-116845116D01*
X137791165Y-116839871D01*
X137780644Y-116833565D01*
X137770791Y-116826257D01*
X137761702Y-116818019D01*
X137584925Y-116641242D01*
X137576687Y-116632153D01*
X137569379Y-116622300D01*
X137563073Y-116611779D01*
X137557828Y-116600689D01*
X137553695Y-116589140D01*
X137550715Y-116577240D01*
X137548915Y-116565106D01*
X137548313Y-116552854D01*
X137548915Y-116540602D01*
X137550715Y-116528468D01*
X137553695Y-116516568D01*
X137557828Y-116505019D01*
X137563073Y-116493929D01*
X137569379Y-116483408D01*
X137576687Y-116473555D01*
X137584925Y-116464466D01*
X138468808Y-115580583D01*
X138477897Y-115572345D01*
X138487750Y-115565037D01*
X138498271Y-115558731D01*
X138509361Y-115553486D01*
X138520910Y-115549353D01*
X138532810Y-115546373D01*
X138544944Y-115544573D01*
X138557196Y-115543971D01*
X138569448Y-115544573D01*
G37*
G36*
X139135133Y-116110258D02*
G01*
X139147267Y-116112058D01*
X139159167Y-116115038D01*
X139170716Y-116119171D01*
X139181806Y-116124416D01*
X139192327Y-116130722D01*
X139202180Y-116138030D01*
X139211269Y-116146268D01*
X139388046Y-116323045D01*
X139396284Y-116332134D01*
X139403592Y-116341987D01*
X139409898Y-116352508D01*
X139415143Y-116363598D01*
X139419276Y-116375147D01*
X139422256Y-116387047D01*
X139424056Y-116399181D01*
X139424658Y-116411433D01*
X139424056Y-116423685D01*
X139422256Y-116435819D01*
X139419276Y-116447719D01*
X139415143Y-116459268D01*
X139409898Y-116470358D01*
X139403592Y-116480879D01*
X139396284Y-116490732D01*
X139388046Y-116499821D01*
X138504163Y-117383704D01*
X138495074Y-117391942D01*
X138485221Y-117399250D01*
X138474700Y-117405556D01*
X138463610Y-117410801D01*
X138452061Y-117414934D01*
X138440161Y-117417914D01*
X138428027Y-117419714D01*
X138415775Y-117420316D01*
X138403523Y-117419714D01*
X138391389Y-117417914D01*
X138379489Y-117414934D01*
X138367940Y-117410801D01*
X138356850Y-117405556D01*
X138346329Y-117399250D01*
X138336476Y-117391942D01*
X138327387Y-117383704D01*
X138150610Y-117206927D01*
X138142372Y-117197838D01*
X138135064Y-117187985D01*
X138128758Y-117177464D01*
X138123513Y-117166374D01*
X138119380Y-117154825D01*
X138116400Y-117142925D01*
X138114600Y-117130791D01*
X138113998Y-117118539D01*
X138114600Y-117106287D01*
X138116400Y-117094153D01*
X138119380Y-117082253D01*
X138123513Y-117070704D01*
X138128758Y-117059614D01*
X138135064Y-117049093D01*
X138142372Y-117039240D01*
X138150610Y-117030151D01*
X139034493Y-116146268D01*
X139043582Y-116138030D01*
X139053435Y-116130722D01*
X139063956Y-116124416D01*
X139075046Y-116119171D01*
X139086595Y-116115038D01*
X139098495Y-116112058D01*
X139110629Y-116110258D01*
X139122881Y-116109656D01*
X139135133Y-116110258D01*
G37*
G36*
X139700819Y-116675944D02*
G01*
X139712953Y-116677744D01*
X139724853Y-116680724D01*
X139736402Y-116684857D01*
X139747492Y-116690102D01*
X139758013Y-116696408D01*
X139767866Y-116703716D01*
X139776955Y-116711954D01*
X139953732Y-116888731D01*
X139961970Y-116897820D01*
X139969278Y-116907673D01*
X139975584Y-116918194D01*
X139980829Y-116929284D01*
X139984962Y-116940833D01*
X139987942Y-116952733D01*
X139989742Y-116964867D01*
X139990344Y-116977119D01*
X139989742Y-116989371D01*
X139987942Y-117001505D01*
X139984962Y-117013405D01*
X139980829Y-117024954D01*
X139975584Y-117036044D01*
X139969278Y-117046565D01*
X139961970Y-117056418D01*
X139953732Y-117065507D01*
X139069849Y-117949390D01*
X139060760Y-117957628D01*
X139050907Y-117964936D01*
X139040386Y-117971242D01*
X139029296Y-117976487D01*
X139017747Y-117980620D01*
X139005847Y-117983600D01*
X138993713Y-117985400D01*
X138981461Y-117986002D01*
X138969209Y-117985400D01*
X138957075Y-117983600D01*
X138945175Y-117980620D01*
X138933626Y-117976487D01*
X138922536Y-117971242D01*
X138912015Y-117964936D01*
X138902162Y-117957628D01*
X138893073Y-117949390D01*
X138716296Y-117772613D01*
X138708058Y-117763524D01*
X138700750Y-117753671D01*
X138694444Y-117743150D01*
X138689199Y-117732060D01*
X138685066Y-117720511D01*
X138682086Y-117708611D01*
X138680286Y-117696477D01*
X138679684Y-117684225D01*
X138680286Y-117671973D01*
X138682086Y-117659839D01*
X138685066Y-117647939D01*
X138689199Y-117636390D01*
X138694444Y-117625300D01*
X138700750Y-117614779D01*
X138708058Y-117604926D01*
X138716296Y-117595837D01*
X139600179Y-116711954D01*
X139609268Y-116703716D01*
X139619121Y-116696408D01*
X139629642Y-116690102D01*
X139640732Y-116684857D01*
X139652281Y-116680724D01*
X139664181Y-116677744D01*
X139676315Y-116675944D01*
X139688567Y-116675342D01*
X139700819Y-116675944D01*
G37*
G36*
X140266504Y-117241629D02*
G01*
X140278638Y-117243429D01*
X140290538Y-117246409D01*
X140302087Y-117250542D01*
X140313177Y-117255787D01*
X140323698Y-117262093D01*
X140333551Y-117269401D01*
X140342640Y-117277639D01*
X140519417Y-117454416D01*
X140527655Y-117463505D01*
X140534963Y-117473358D01*
X140541269Y-117483879D01*
X140546514Y-117494969D01*
X140550647Y-117506518D01*
X140553627Y-117518418D01*
X140555427Y-117530552D01*
X140556029Y-117542804D01*
X140555427Y-117555056D01*
X140553627Y-117567190D01*
X140550647Y-117579090D01*
X140546514Y-117590639D01*
X140541269Y-117601729D01*
X140534963Y-117612250D01*
X140527655Y-117622103D01*
X140519417Y-117631192D01*
X139635534Y-118515075D01*
X139626445Y-118523313D01*
X139616592Y-118530621D01*
X139606071Y-118536927D01*
X139594981Y-118542172D01*
X139583432Y-118546305D01*
X139571532Y-118549285D01*
X139559398Y-118551085D01*
X139547146Y-118551687D01*
X139534894Y-118551085D01*
X139522760Y-118549285D01*
X139510860Y-118546305D01*
X139499311Y-118542172D01*
X139488221Y-118536927D01*
X139477700Y-118530621D01*
X139467847Y-118523313D01*
X139458758Y-118515075D01*
X139281981Y-118338298D01*
X139273743Y-118329209D01*
X139266435Y-118319356D01*
X139260129Y-118308835D01*
X139254884Y-118297745D01*
X139250751Y-118286196D01*
X139247771Y-118274296D01*
X139245971Y-118262162D01*
X139245369Y-118249910D01*
X139245971Y-118237658D01*
X139247771Y-118225524D01*
X139250751Y-118213624D01*
X139254884Y-118202075D01*
X139260129Y-118190985D01*
X139266435Y-118180464D01*
X139273743Y-118170611D01*
X139281981Y-118161522D01*
X140165864Y-117277639D01*
X140174953Y-117269401D01*
X140184806Y-117262093D01*
X140195327Y-117255787D01*
X140206417Y-117250542D01*
X140217966Y-117246409D01*
X140229866Y-117243429D01*
X140242000Y-117241629D01*
X140254252Y-117241027D01*
X140266504Y-117241629D01*
G37*
G36*
X140832189Y-117807315D02*
G01*
X140844323Y-117809115D01*
X140856223Y-117812095D01*
X140867772Y-117816228D01*
X140878862Y-117821473D01*
X140889383Y-117827779D01*
X140899236Y-117835087D01*
X140908325Y-117843325D01*
X141085102Y-118020102D01*
X141093340Y-118029191D01*
X141100648Y-118039044D01*
X141106954Y-118049565D01*
X141112199Y-118060655D01*
X141116332Y-118072204D01*
X141119312Y-118084104D01*
X141121112Y-118096238D01*
X141121714Y-118108490D01*
X141121112Y-118120742D01*
X141119312Y-118132876D01*
X141116332Y-118144776D01*
X141112199Y-118156325D01*
X141106954Y-118167415D01*
X141100648Y-118177936D01*
X141093340Y-118187789D01*
X141085102Y-118196878D01*
X140201219Y-119080761D01*
X140192130Y-119088999D01*
X140182277Y-119096307D01*
X140171756Y-119102613D01*
X140160666Y-119107858D01*
X140149117Y-119111991D01*
X140137217Y-119114971D01*
X140125083Y-119116771D01*
X140112831Y-119117373D01*
X140100579Y-119116771D01*
X140088445Y-119114971D01*
X140076545Y-119111991D01*
X140064996Y-119107858D01*
X140053906Y-119102613D01*
X140043385Y-119096307D01*
X140033532Y-119088999D01*
X140024443Y-119080761D01*
X139847666Y-118903984D01*
X139839428Y-118894895D01*
X139832120Y-118885042D01*
X139825814Y-118874521D01*
X139820569Y-118863431D01*
X139816436Y-118851882D01*
X139813456Y-118839982D01*
X139811656Y-118827848D01*
X139811054Y-118815596D01*
X139811656Y-118803344D01*
X139813456Y-118791210D01*
X139816436Y-118779310D01*
X139820569Y-118767761D01*
X139825814Y-118756671D01*
X139832120Y-118746150D01*
X139839428Y-118736297D01*
X139847666Y-118727208D01*
X140731549Y-117843325D01*
X140740638Y-117835087D01*
X140750491Y-117827779D01*
X140761012Y-117821473D01*
X140772102Y-117816228D01*
X140783651Y-117812095D01*
X140795551Y-117809115D01*
X140807685Y-117807315D01*
X140819937Y-117806713D01*
X140832189Y-117807315D01*
G37*
G36*
X141397875Y-118373000D02*
G01*
X141410009Y-118374800D01*
X141421909Y-118377780D01*
X141433458Y-118381913D01*
X141444548Y-118387158D01*
X141455069Y-118393464D01*
X141464922Y-118400772D01*
X141474011Y-118409010D01*
X141650788Y-118585787D01*
X141659026Y-118594876D01*
X141666334Y-118604729D01*
X141672640Y-118615250D01*
X141677885Y-118626340D01*
X141682018Y-118637889D01*
X141684998Y-118649789D01*
X141686798Y-118661923D01*
X141687400Y-118674175D01*
X141686798Y-118686427D01*
X141684998Y-118698561D01*
X141682018Y-118710461D01*
X141677885Y-118722010D01*
X141672640Y-118733100D01*
X141666334Y-118743621D01*
X141659026Y-118753474D01*
X141650788Y-118762563D01*
X140766905Y-119646446D01*
X140757816Y-119654684D01*
X140747963Y-119661992D01*
X140737442Y-119668298D01*
X140726352Y-119673543D01*
X140714803Y-119677676D01*
X140702903Y-119680656D01*
X140690769Y-119682456D01*
X140678517Y-119683058D01*
X140666265Y-119682456D01*
X140654131Y-119680656D01*
X140642231Y-119677676D01*
X140630682Y-119673543D01*
X140619592Y-119668298D01*
X140609071Y-119661992D01*
X140599218Y-119654684D01*
X140590129Y-119646446D01*
X140413352Y-119469669D01*
X140405114Y-119460580D01*
X140397806Y-119450727D01*
X140391500Y-119440206D01*
X140386255Y-119429116D01*
X140382122Y-119417567D01*
X140379142Y-119405667D01*
X140377342Y-119393533D01*
X140376740Y-119381281D01*
X140377342Y-119369029D01*
X140379142Y-119356895D01*
X140382122Y-119344995D01*
X140386255Y-119333446D01*
X140391500Y-119322356D01*
X140397806Y-119311835D01*
X140405114Y-119301982D01*
X140413352Y-119292893D01*
X141297235Y-118409010D01*
X141306324Y-118400772D01*
X141316177Y-118393464D01*
X141326698Y-118387158D01*
X141337788Y-118381913D01*
X141349337Y-118377780D01*
X141361237Y-118374800D01*
X141373371Y-118373000D01*
X141385623Y-118372398D01*
X141397875Y-118373000D01*
G37*
D12*
X113100000Y-115000000D03*
X113100000Y-114050000D03*
X113100000Y-115950000D03*
X110900000Y-115950000D03*
X110900000Y-115000000D03*
X110900000Y-114050000D03*
D13*
X115540000Y-110950000D03*
X115540000Y-109050000D03*
X118160000Y-109050000D03*
X118160000Y-110000000D03*
X118160000Y-110950000D03*
D14*
X160325000Y-122650000D03*
X168275000Y-122650000D03*
X160325000Y-127150000D03*
X168275000Y-127150000D03*
D15*
X112150000Y-138375000D03*
X112150000Y-130425000D03*
X116650000Y-138375000D03*
X116650000Y-130425000D03*
D10*
G36*
X160040191Y-119426053D02*
G01*
X160061426Y-119429203D01*
X160082250Y-119434419D01*
X160102462Y-119441651D01*
X160121868Y-119450830D01*
X160140281Y-119461866D01*
X160157524Y-119474654D01*
X160173430Y-119489070D01*
X160187846Y-119504976D01*
X160200634Y-119522219D01*
X160211670Y-119540632D01*
X160220849Y-119560038D01*
X160228081Y-119580250D01*
X160233297Y-119601074D01*
X160236447Y-119622309D01*
X160237500Y-119643750D01*
X160237500Y-120156250D01*
X160236447Y-120177691D01*
X160233297Y-120198926D01*
X160228081Y-120219750D01*
X160220849Y-120239962D01*
X160211670Y-120259368D01*
X160200634Y-120277781D01*
X160187846Y-120295024D01*
X160173430Y-120310930D01*
X160157524Y-120325346D01*
X160140281Y-120338134D01*
X160121868Y-120349170D01*
X160102462Y-120358349D01*
X160082250Y-120365581D01*
X160061426Y-120370797D01*
X160040191Y-120373947D01*
X160018750Y-120375000D01*
X159581250Y-120375000D01*
X159559809Y-120373947D01*
X159538574Y-120370797D01*
X159517750Y-120365581D01*
X159497538Y-120358349D01*
X159478132Y-120349170D01*
X159459719Y-120338134D01*
X159442476Y-120325346D01*
X159426570Y-120310930D01*
X159412154Y-120295024D01*
X159399366Y-120277781D01*
X159388330Y-120259368D01*
X159379151Y-120239962D01*
X159371919Y-120219750D01*
X159366703Y-120198926D01*
X159363553Y-120177691D01*
X159362500Y-120156250D01*
X159362500Y-119643750D01*
X159363553Y-119622309D01*
X159366703Y-119601074D01*
X159371919Y-119580250D01*
X159379151Y-119560038D01*
X159388330Y-119540632D01*
X159399366Y-119522219D01*
X159412154Y-119504976D01*
X159426570Y-119489070D01*
X159442476Y-119474654D01*
X159459719Y-119461866D01*
X159478132Y-119450830D01*
X159497538Y-119441651D01*
X159517750Y-119434419D01*
X159538574Y-119429203D01*
X159559809Y-119426053D01*
X159581250Y-119425000D01*
X160018750Y-119425000D01*
X160040191Y-119426053D01*
G37*
G36*
X161615191Y-119426053D02*
G01*
X161636426Y-119429203D01*
X161657250Y-119434419D01*
X161677462Y-119441651D01*
X161696868Y-119450830D01*
X161715281Y-119461866D01*
X161732524Y-119474654D01*
X161748430Y-119489070D01*
X161762846Y-119504976D01*
X161775634Y-119522219D01*
X161786670Y-119540632D01*
X161795849Y-119560038D01*
X161803081Y-119580250D01*
X161808297Y-119601074D01*
X161811447Y-119622309D01*
X161812500Y-119643750D01*
X161812500Y-120156250D01*
X161811447Y-120177691D01*
X161808297Y-120198926D01*
X161803081Y-120219750D01*
X161795849Y-120239962D01*
X161786670Y-120259368D01*
X161775634Y-120277781D01*
X161762846Y-120295024D01*
X161748430Y-120310930D01*
X161732524Y-120325346D01*
X161715281Y-120338134D01*
X161696868Y-120349170D01*
X161677462Y-120358349D01*
X161657250Y-120365581D01*
X161636426Y-120370797D01*
X161615191Y-120373947D01*
X161593750Y-120375000D01*
X161156250Y-120375000D01*
X161134809Y-120373947D01*
X161113574Y-120370797D01*
X161092750Y-120365581D01*
X161072538Y-120358349D01*
X161053132Y-120349170D01*
X161034719Y-120338134D01*
X161017476Y-120325346D01*
X161001570Y-120310930D01*
X160987154Y-120295024D01*
X160974366Y-120277781D01*
X160963330Y-120259368D01*
X160954151Y-120239962D01*
X160946919Y-120219750D01*
X160941703Y-120198926D01*
X160938553Y-120177691D01*
X160937500Y-120156250D01*
X160937500Y-119643750D01*
X160938553Y-119622309D01*
X160941703Y-119601074D01*
X160946919Y-119580250D01*
X160954151Y-119560038D01*
X160963330Y-119540632D01*
X160974366Y-119522219D01*
X160987154Y-119504976D01*
X161001570Y-119489070D01*
X161017476Y-119474654D01*
X161034719Y-119461866D01*
X161053132Y-119450830D01*
X161072538Y-119441651D01*
X161092750Y-119434419D01*
X161113574Y-119429203D01*
X161134809Y-119426053D01*
X161156250Y-119425000D01*
X161593750Y-119425000D01*
X161615191Y-119426053D01*
G37*
G36*
X147027691Y-124776053D02*
G01*
X147048926Y-124779203D01*
X147069750Y-124784419D01*
X147089962Y-124791651D01*
X147109368Y-124800830D01*
X147127781Y-124811866D01*
X147145024Y-124824654D01*
X147160930Y-124839070D01*
X147175346Y-124854976D01*
X147188134Y-124872219D01*
X147199170Y-124890632D01*
X147208349Y-124910038D01*
X147215581Y-124930250D01*
X147220797Y-124951074D01*
X147223947Y-124972309D01*
X147225000Y-124993750D01*
X147225000Y-125506250D01*
X147223947Y-125527691D01*
X147220797Y-125548926D01*
X147215581Y-125569750D01*
X147208349Y-125589962D01*
X147199170Y-125609368D01*
X147188134Y-125627781D01*
X147175346Y-125645024D01*
X147160930Y-125660930D01*
X147145024Y-125675346D01*
X147127781Y-125688134D01*
X147109368Y-125699170D01*
X147089962Y-125708349D01*
X147069750Y-125715581D01*
X147048926Y-125720797D01*
X147027691Y-125723947D01*
X147006250Y-125725000D01*
X146568750Y-125725000D01*
X146547309Y-125723947D01*
X146526074Y-125720797D01*
X146505250Y-125715581D01*
X146485038Y-125708349D01*
X146465632Y-125699170D01*
X146447219Y-125688134D01*
X146429976Y-125675346D01*
X146414070Y-125660930D01*
X146399654Y-125645024D01*
X146386866Y-125627781D01*
X146375830Y-125609368D01*
X146366651Y-125589962D01*
X146359419Y-125569750D01*
X146354203Y-125548926D01*
X146351053Y-125527691D01*
X146350000Y-125506250D01*
X146350000Y-124993750D01*
X146351053Y-124972309D01*
X146354203Y-124951074D01*
X146359419Y-124930250D01*
X146366651Y-124910038D01*
X146375830Y-124890632D01*
X146386866Y-124872219D01*
X146399654Y-124854976D01*
X146414070Y-124839070D01*
X146429976Y-124824654D01*
X146447219Y-124811866D01*
X146465632Y-124800830D01*
X146485038Y-124791651D01*
X146505250Y-124784419D01*
X146526074Y-124779203D01*
X146547309Y-124776053D01*
X146568750Y-124775000D01*
X147006250Y-124775000D01*
X147027691Y-124776053D01*
G37*
G36*
X145452691Y-124776053D02*
G01*
X145473926Y-124779203D01*
X145494750Y-124784419D01*
X145514962Y-124791651D01*
X145534368Y-124800830D01*
X145552781Y-124811866D01*
X145570024Y-124824654D01*
X145585930Y-124839070D01*
X145600346Y-124854976D01*
X145613134Y-124872219D01*
X145624170Y-124890632D01*
X145633349Y-124910038D01*
X145640581Y-124930250D01*
X145645797Y-124951074D01*
X145648947Y-124972309D01*
X145650000Y-124993750D01*
X145650000Y-125506250D01*
X145648947Y-125527691D01*
X145645797Y-125548926D01*
X145640581Y-125569750D01*
X145633349Y-125589962D01*
X145624170Y-125609368D01*
X145613134Y-125627781D01*
X145600346Y-125645024D01*
X145585930Y-125660930D01*
X145570024Y-125675346D01*
X145552781Y-125688134D01*
X145534368Y-125699170D01*
X145514962Y-125708349D01*
X145494750Y-125715581D01*
X145473926Y-125720797D01*
X145452691Y-125723947D01*
X145431250Y-125725000D01*
X144993750Y-125725000D01*
X144972309Y-125723947D01*
X144951074Y-125720797D01*
X144930250Y-125715581D01*
X144910038Y-125708349D01*
X144890632Y-125699170D01*
X144872219Y-125688134D01*
X144854976Y-125675346D01*
X144839070Y-125660930D01*
X144824654Y-125645024D01*
X144811866Y-125627781D01*
X144800830Y-125609368D01*
X144791651Y-125589962D01*
X144784419Y-125569750D01*
X144779203Y-125548926D01*
X144776053Y-125527691D01*
X144775000Y-125506250D01*
X144775000Y-124993750D01*
X144776053Y-124972309D01*
X144779203Y-124951074D01*
X144784419Y-124930250D01*
X144791651Y-124910038D01*
X144800830Y-124890632D01*
X144811866Y-124872219D01*
X144824654Y-124854976D01*
X144839070Y-124839070D01*
X144854976Y-124824654D01*
X144872219Y-124811866D01*
X144890632Y-124800830D01*
X144910038Y-124791651D01*
X144930250Y-124784419D01*
X144951074Y-124779203D01*
X144972309Y-124776053D01*
X144993750Y-124775000D01*
X145431250Y-124775000D01*
X145452691Y-124776053D01*
G37*
D16*
X106950000Y-130000000D03*
X103050000Y-130000000D03*
X106950000Y-128730000D03*
X103050000Y-128730000D03*
X106950000Y-127460000D03*
X103050000Y-127460000D03*
X106950000Y-126190000D03*
X103050000Y-126190000D03*
X106950000Y-124920000D03*
X103050000Y-124920000D03*
D17*
X107600000Y-116600000D03*
X107600000Y-115800000D03*
X107600000Y-115000000D03*
X107600000Y-114200000D03*
X107600000Y-113400000D03*
D18*
X107600000Y-119400000D03*
X107600000Y-110600000D03*
X102100000Y-119400000D03*
X102100000Y-110600000D03*
D10*
G36*
X117702691Y-113776053D02*
G01*
X117723926Y-113779203D01*
X117744750Y-113784419D01*
X117764962Y-113791651D01*
X117784368Y-113800830D01*
X117802781Y-113811866D01*
X117820024Y-113824654D01*
X117835930Y-113839070D01*
X117850346Y-113854976D01*
X117863134Y-113872219D01*
X117874170Y-113890632D01*
X117883349Y-113910038D01*
X117890581Y-113930250D01*
X117895797Y-113951074D01*
X117898947Y-113972309D01*
X117900000Y-113993750D01*
X117900000Y-114506250D01*
X117898947Y-114527691D01*
X117895797Y-114548926D01*
X117890581Y-114569750D01*
X117883349Y-114589962D01*
X117874170Y-114609368D01*
X117863134Y-114627781D01*
X117850346Y-114645024D01*
X117835930Y-114660930D01*
X117820024Y-114675346D01*
X117802781Y-114688134D01*
X117784368Y-114699170D01*
X117764962Y-114708349D01*
X117744750Y-114715581D01*
X117723926Y-114720797D01*
X117702691Y-114723947D01*
X117681250Y-114725000D01*
X117243750Y-114725000D01*
X117222309Y-114723947D01*
X117201074Y-114720797D01*
X117180250Y-114715581D01*
X117160038Y-114708349D01*
X117140632Y-114699170D01*
X117122219Y-114688134D01*
X117104976Y-114675346D01*
X117089070Y-114660930D01*
X117074654Y-114645024D01*
X117061866Y-114627781D01*
X117050830Y-114609368D01*
X117041651Y-114589962D01*
X117034419Y-114569750D01*
X117029203Y-114548926D01*
X117026053Y-114527691D01*
X117025000Y-114506250D01*
X117025000Y-113993750D01*
X117026053Y-113972309D01*
X117029203Y-113951074D01*
X117034419Y-113930250D01*
X117041651Y-113910038D01*
X117050830Y-113890632D01*
X117061866Y-113872219D01*
X117074654Y-113854976D01*
X117089070Y-113839070D01*
X117104976Y-113824654D01*
X117122219Y-113811866D01*
X117140632Y-113800830D01*
X117160038Y-113791651D01*
X117180250Y-113784419D01*
X117201074Y-113779203D01*
X117222309Y-113776053D01*
X117243750Y-113775000D01*
X117681250Y-113775000D01*
X117702691Y-113776053D01*
G37*
G36*
X119277691Y-113776053D02*
G01*
X119298926Y-113779203D01*
X119319750Y-113784419D01*
X119339962Y-113791651D01*
X119359368Y-113800830D01*
X119377781Y-113811866D01*
X119395024Y-113824654D01*
X119410930Y-113839070D01*
X119425346Y-113854976D01*
X119438134Y-113872219D01*
X119449170Y-113890632D01*
X119458349Y-113910038D01*
X119465581Y-113930250D01*
X119470797Y-113951074D01*
X119473947Y-113972309D01*
X119475000Y-113993750D01*
X119475000Y-114506250D01*
X119473947Y-114527691D01*
X119470797Y-114548926D01*
X119465581Y-114569750D01*
X119458349Y-114589962D01*
X119449170Y-114609368D01*
X119438134Y-114627781D01*
X119425346Y-114645024D01*
X119410930Y-114660930D01*
X119395024Y-114675346D01*
X119377781Y-114688134D01*
X119359368Y-114699170D01*
X119339962Y-114708349D01*
X119319750Y-114715581D01*
X119298926Y-114720797D01*
X119277691Y-114723947D01*
X119256250Y-114725000D01*
X118818750Y-114725000D01*
X118797309Y-114723947D01*
X118776074Y-114720797D01*
X118755250Y-114715581D01*
X118735038Y-114708349D01*
X118715632Y-114699170D01*
X118697219Y-114688134D01*
X118679976Y-114675346D01*
X118664070Y-114660930D01*
X118649654Y-114645024D01*
X118636866Y-114627781D01*
X118625830Y-114609368D01*
X118616651Y-114589962D01*
X118609419Y-114569750D01*
X118604203Y-114548926D01*
X118601053Y-114527691D01*
X118600000Y-114506250D01*
X118600000Y-113993750D01*
X118601053Y-113972309D01*
X118604203Y-113951074D01*
X118609419Y-113930250D01*
X118616651Y-113910038D01*
X118625830Y-113890632D01*
X118636866Y-113872219D01*
X118649654Y-113854976D01*
X118664070Y-113839070D01*
X118679976Y-113824654D01*
X118697219Y-113811866D01*
X118715632Y-113800830D01*
X118735038Y-113791651D01*
X118755250Y-113784419D01*
X118776074Y-113779203D01*
X118797309Y-113776053D01*
X118818750Y-113775000D01*
X119256250Y-113775000D01*
X119277691Y-113776053D01*
G37*
D19*
X118500000Y-118500000D03*
X122500000Y-118500000D03*
D10*
G36*
X127830142Y-118576174D02*
G01*
X127853803Y-118579684D01*
X127877007Y-118585496D01*
X127899529Y-118593554D01*
X127921153Y-118603782D01*
X127941670Y-118616079D01*
X127960883Y-118630329D01*
X127978607Y-118646393D01*
X127994671Y-118664117D01*
X128008921Y-118683330D01*
X128021218Y-118703847D01*
X128031446Y-118725471D01*
X128039504Y-118747993D01*
X128045316Y-118771197D01*
X128048826Y-118794858D01*
X128050000Y-118818750D01*
X128050000Y-119306250D01*
X128048826Y-119330142D01*
X128045316Y-119353803D01*
X128039504Y-119377007D01*
X128031446Y-119399529D01*
X128021218Y-119421153D01*
X128008921Y-119441670D01*
X127994671Y-119460883D01*
X127978607Y-119478607D01*
X127960883Y-119494671D01*
X127941670Y-119508921D01*
X127921153Y-119521218D01*
X127899529Y-119531446D01*
X127877007Y-119539504D01*
X127853803Y-119545316D01*
X127830142Y-119548826D01*
X127806250Y-119550000D01*
X126893750Y-119550000D01*
X126869858Y-119548826D01*
X126846197Y-119545316D01*
X126822993Y-119539504D01*
X126800471Y-119531446D01*
X126778847Y-119521218D01*
X126758330Y-119508921D01*
X126739117Y-119494671D01*
X126721393Y-119478607D01*
X126705329Y-119460883D01*
X126691079Y-119441670D01*
X126678782Y-119421153D01*
X126668554Y-119399529D01*
X126660496Y-119377007D01*
X126654684Y-119353803D01*
X126651174Y-119330142D01*
X126650000Y-119306250D01*
X126650000Y-118818750D01*
X126651174Y-118794858D01*
X126654684Y-118771197D01*
X126660496Y-118747993D01*
X126668554Y-118725471D01*
X126678782Y-118703847D01*
X126691079Y-118683330D01*
X126705329Y-118664117D01*
X126721393Y-118646393D01*
X126739117Y-118630329D01*
X126758330Y-118616079D01*
X126778847Y-118603782D01*
X126800471Y-118593554D01*
X126822993Y-118585496D01*
X126846197Y-118579684D01*
X126869858Y-118576174D01*
X126893750Y-118575000D01*
X127806250Y-118575000D01*
X127830142Y-118576174D01*
G37*
G36*
X127830142Y-120451174D02*
G01*
X127853803Y-120454684D01*
X127877007Y-120460496D01*
X127899529Y-120468554D01*
X127921153Y-120478782D01*
X127941670Y-120491079D01*
X127960883Y-120505329D01*
X127978607Y-120521393D01*
X127994671Y-120539117D01*
X128008921Y-120558330D01*
X128021218Y-120578847D01*
X128031446Y-120600471D01*
X128039504Y-120622993D01*
X128045316Y-120646197D01*
X128048826Y-120669858D01*
X128050000Y-120693750D01*
X128050000Y-121181250D01*
X128048826Y-121205142D01*
X128045316Y-121228803D01*
X128039504Y-121252007D01*
X128031446Y-121274529D01*
X128021218Y-121296153D01*
X128008921Y-121316670D01*
X127994671Y-121335883D01*
X127978607Y-121353607D01*
X127960883Y-121369671D01*
X127941670Y-121383921D01*
X127921153Y-121396218D01*
X127899529Y-121406446D01*
X127877007Y-121414504D01*
X127853803Y-121420316D01*
X127830142Y-121423826D01*
X127806250Y-121425000D01*
X126893750Y-121425000D01*
X126869858Y-121423826D01*
X126846197Y-121420316D01*
X126822993Y-121414504D01*
X126800471Y-121406446D01*
X126778847Y-121396218D01*
X126758330Y-121383921D01*
X126739117Y-121369671D01*
X126721393Y-121353607D01*
X126705329Y-121335883D01*
X126691079Y-121316670D01*
X126678782Y-121296153D01*
X126668554Y-121274529D01*
X126660496Y-121252007D01*
X126654684Y-121228803D01*
X126651174Y-121205142D01*
X126650000Y-121181250D01*
X126650000Y-120693750D01*
X126651174Y-120669858D01*
X126654684Y-120646197D01*
X126660496Y-120622993D01*
X126668554Y-120600471D01*
X126678782Y-120578847D01*
X126691079Y-120558330D01*
X126705329Y-120539117D01*
X126721393Y-120521393D01*
X126739117Y-120505329D01*
X126758330Y-120491079D01*
X126778847Y-120478782D01*
X126800471Y-120468554D01*
X126822993Y-120460496D01*
X126846197Y-120454684D01*
X126869858Y-120451174D01*
X126893750Y-120450000D01*
X127806250Y-120450000D01*
X127830142Y-120451174D01*
G37*
G36*
X129377691Y-118776053D02*
G01*
X129398926Y-118779203D01*
X129419750Y-118784419D01*
X129439962Y-118791651D01*
X129459368Y-118800830D01*
X129477781Y-118811866D01*
X129495024Y-118824654D01*
X129510930Y-118839070D01*
X129525346Y-118854976D01*
X129538134Y-118872219D01*
X129549170Y-118890632D01*
X129558349Y-118910038D01*
X129565581Y-118930250D01*
X129570797Y-118951074D01*
X129573947Y-118972309D01*
X129575000Y-118993750D01*
X129575000Y-119431250D01*
X129573947Y-119452691D01*
X129570797Y-119473926D01*
X129565581Y-119494750D01*
X129558349Y-119514962D01*
X129549170Y-119534368D01*
X129538134Y-119552781D01*
X129525346Y-119570024D01*
X129510930Y-119585930D01*
X129495024Y-119600346D01*
X129477781Y-119613134D01*
X129459368Y-119624170D01*
X129439962Y-119633349D01*
X129419750Y-119640581D01*
X129398926Y-119645797D01*
X129377691Y-119648947D01*
X129356250Y-119650000D01*
X128843750Y-119650000D01*
X128822309Y-119648947D01*
X128801074Y-119645797D01*
X128780250Y-119640581D01*
X128760038Y-119633349D01*
X128740632Y-119624170D01*
X128722219Y-119613134D01*
X128704976Y-119600346D01*
X128689070Y-119585930D01*
X128674654Y-119570024D01*
X128661866Y-119552781D01*
X128650830Y-119534368D01*
X128641651Y-119514962D01*
X128634419Y-119494750D01*
X128629203Y-119473926D01*
X128626053Y-119452691D01*
X128625000Y-119431250D01*
X128625000Y-118993750D01*
X128626053Y-118972309D01*
X128629203Y-118951074D01*
X128634419Y-118930250D01*
X128641651Y-118910038D01*
X128650830Y-118890632D01*
X128661866Y-118872219D01*
X128674654Y-118854976D01*
X128689070Y-118839070D01*
X128704976Y-118824654D01*
X128722219Y-118811866D01*
X128740632Y-118800830D01*
X128760038Y-118791651D01*
X128780250Y-118784419D01*
X128801074Y-118779203D01*
X128822309Y-118776053D01*
X128843750Y-118775000D01*
X129356250Y-118775000D01*
X129377691Y-118776053D01*
G37*
G36*
X129377691Y-120351053D02*
G01*
X129398926Y-120354203D01*
X129419750Y-120359419D01*
X129439962Y-120366651D01*
X129459368Y-120375830D01*
X129477781Y-120386866D01*
X129495024Y-120399654D01*
X129510930Y-120414070D01*
X129525346Y-120429976D01*
X129538134Y-120447219D01*
X129549170Y-120465632D01*
X129558349Y-120485038D01*
X129565581Y-120505250D01*
X129570797Y-120526074D01*
X129573947Y-120547309D01*
X129575000Y-120568750D01*
X129575000Y-121006250D01*
X129573947Y-121027691D01*
X129570797Y-121048926D01*
X129565581Y-121069750D01*
X129558349Y-121089962D01*
X129549170Y-121109368D01*
X129538134Y-121127781D01*
X129525346Y-121145024D01*
X129510930Y-121160930D01*
X129495024Y-121175346D01*
X129477781Y-121188134D01*
X129459368Y-121199170D01*
X129439962Y-121208349D01*
X129419750Y-121215581D01*
X129398926Y-121220797D01*
X129377691Y-121223947D01*
X129356250Y-121225000D01*
X128843750Y-121225000D01*
X128822309Y-121223947D01*
X128801074Y-121220797D01*
X128780250Y-121215581D01*
X128760038Y-121208349D01*
X128740632Y-121199170D01*
X128722219Y-121188134D01*
X128704976Y-121175346D01*
X128689070Y-121160930D01*
X128674654Y-121145024D01*
X128661866Y-121127781D01*
X128650830Y-121109368D01*
X128641651Y-121089962D01*
X128634419Y-121069750D01*
X128629203Y-121048926D01*
X128626053Y-121027691D01*
X128625000Y-121006250D01*
X128625000Y-120568750D01*
X128626053Y-120547309D01*
X128629203Y-120526074D01*
X128634419Y-120505250D01*
X128641651Y-120485038D01*
X128650830Y-120465632D01*
X128661866Y-120447219D01*
X128674654Y-120429976D01*
X128689070Y-120414070D01*
X128704976Y-120399654D01*
X128722219Y-120386866D01*
X128740632Y-120375830D01*
X128760038Y-120366651D01*
X128780250Y-120359419D01*
X128801074Y-120354203D01*
X128822309Y-120351053D01*
X128843750Y-120350000D01*
X129356250Y-120350000D01*
X129377691Y-120351053D01*
G37*
G36*
X143377691Y-120351053D02*
G01*
X143398926Y-120354203D01*
X143419750Y-120359419D01*
X143439962Y-120366651D01*
X143459368Y-120375830D01*
X143477781Y-120386866D01*
X143495024Y-120399654D01*
X143510930Y-120414070D01*
X143525346Y-120429976D01*
X143538134Y-120447219D01*
X143549170Y-120465632D01*
X143558349Y-120485038D01*
X143565581Y-120505250D01*
X143570797Y-120526074D01*
X143573947Y-120547309D01*
X143575000Y-120568750D01*
X143575000Y-121006250D01*
X143573947Y-121027691D01*
X143570797Y-121048926D01*
X143565581Y-121069750D01*
X143558349Y-121089962D01*
X143549170Y-121109368D01*
X143538134Y-121127781D01*
X143525346Y-121145024D01*
X143510930Y-121160930D01*
X143495024Y-121175346D01*
X143477781Y-121188134D01*
X143459368Y-121199170D01*
X143439962Y-121208349D01*
X143419750Y-121215581D01*
X143398926Y-121220797D01*
X143377691Y-121223947D01*
X143356250Y-121225000D01*
X142843750Y-121225000D01*
X142822309Y-121223947D01*
X142801074Y-121220797D01*
X142780250Y-121215581D01*
X142760038Y-121208349D01*
X142740632Y-121199170D01*
X142722219Y-121188134D01*
X142704976Y-121175346D01*
X142689070Y-121160930D01*
X142674654Y-121145024D01*
X142661866Y-121127781D01*
X142650830Y-121109368D01*
X142641651Y-121089962D01*
X142634419Y-121069750D01*
X142629203Y-121048926D01*
X142626053Y-121027691D01*
X142625000Y-121006250D01*
X142625000Y-120568750D01*
X142626053Y-120547309D01*
X142629203Y-120526074D01*
X142634419Y-120505250D01*
X142641651Y-120485038D01*
X142650830Y-120465632D01*
X142661866Y-120447219D01*
X142674654Y-120429976D01*
X142689070Y-120414070D01*
X142704976Y-120399654D01*
X142722219Y-120386866D01*
X142740632Y-120375830D01*
X142760038Y-120366651D01*
X142780250Y-120359419D01*
X142801074Y-120354203D01*
X142822309Y-120351053D01*
X142843750Y-120350000D01*
X143356250Y-120350000D01*
X143377691Y-120351053D01*
G37*
G36*
X143377691Y-118776053D02*
G01*
X143398926Y-118779203D01*
X143419750Y-118784419D01*
X143439962Y-118791651D01*
X143459368Y-118800830D01*
X143477781Y-118811866D01*
X143495024Y-118824654D01*
X143510930Y-118839070D01*
X143525346Y-118854976D01*
X143538134Y-118872219D01*
X143549170Y-118890632D01*
X143558349Y-118910038D01*
X143565581Y-118930250D01*
X143570797Y-118951074D01*
X143573947Y-118972309D01*
X143575000Y-118993750D01*
X143575000Y-119431250D01*
X143573947Y-119452691D01*
X143570797Y-119473926D01*
X143565581Y-119494750D01*
X143558349Y-119514962D01*
X143549170Y-119534368D01*
X143538134Y-119552781D01*
X143525346Y-119570024D01*
X143510930Y-119585930D01*
X143495024Y-119600346D01*
X143477781Y-119613134D01*
X143459368Y-119624170D01*
X143439962Y-119633349D01*
X143419750Y-119640581D01*
X143398926Y-119645797D01*
X143377691Y-119648947D01*
X143356250Y-119650000D01*
X142843750Y-119650000D01*
X142822309Y-119648947D01*
X142801074Y-119645797D01*
X142780250Y-119640581D01*
X142760038Y-119633349D01*
X142740632Y-119624170D01*
X142722219Y-119613134D01*
X142704976Y-119600346D01*
X142689070Y-119585930D01*
X142674654Y-119570024D01*
X142661866Y-119552781D01*
X142650830Y-119534368D01*
X142641651Y-119514962D01*
X142634419Y-119494750D01*
X142629203Y-119473926D01*
X142626053Y-119452691D01*
X142625000Y-119431250D01*
X142625000Y-118993750D01*
X142626053Y-118972309D01*
X142629203Y-118951074D01*
X142634419Y-118930250D01*
X142641651Y-118910038D01*
X142650830Y-118890632D01*
X142661866Y-118872219D01*
X142674654Y-118854976D01*
X142689070Y-118839070D01*
X142704976Y-118824654D01*
X142722219Y-118811866D01*
X142740632Y-118800830D01*
X142760038Y-118791651D01*
X142780250Y-118784419D01*
X142801074Y-118779203D01*
X142822309Y-118776053D01*
X142843750Y-118775000D01*
X143356250Y-118775000D01*
X143377691Y-118776053D01*
G37*
G36*
X143247806Y-113788275D02*
G01*
X143271467Y-113791785D01*
X143294671Y-113797597D01*
X143317193Y-113805655D01*
X143338817Y-113815883D01*
X143359334Y-113828180D01*
X143378547Y-113842430D01*
X143396271Y-113858494D01*
X144041506Y-114503729D01*
X144057570Y-114521453D01*
X144071820Y-114540666D01*
X144084117Y-114561183D01*
X144094345Y-114582807D01*
X144102403Y-114605329D01*
X144108215Y-114628533D01*
X144111725Y-114652194D01*
X144112899Y-114676086D01*
X144111725Y-114699978D01*
X144108215Y-114723639D01*
X144102403Y-114746843D01*
X144094345Y-114769365D01*
X144084117Y-114790989D01*
X144071820Y-114811506D01*
X144057570Y-114830719D01*
X144041506Y-114848443D01*
X143696791Y-115193158D01*
X143679067Y-115209222D01*
X143659854Y-115223472D01*
X143639337Y-115235769D01*
X143617713Y-115245997D01*
X143595191Y-115254055D01*
X143571987Y-115259867D01*
X143548326Y-115263377D01*
X143524434Y-115264551D01*
X143500542Y-115263377D01*
X143476881Y-115259867D01*
X143453677Y-115254055D01*
X143431155Y-115245997D01*
X143409531Y-115235769D01*
X143389014Y-115223472D01*
X143369801Y-115209222D01*
X143352077Y-115193158D01*
X142706842Y-114547923D01*
X142690778Y-114530199D01*
X142676528Y-114510986D01*
X142664231Y-114490469D01*
X142654003Y-114468845D01*
X142645945Y-114446323D01*
X142640133Y-114423119D01*
X142636623Y-114399458D01*
X142635449Y-114375566D01*
X142636623Y-114351674D01*
X142640133Y-114328013D01*
X142645945Y-114304809D01*
X142654003Y-114282287D01*
X142664231Y-114260663D01*
X142676528Y-114240146D01*
X142690778Y-114220933D01*
X142706842Y-114203209D01*
X143051557Y-113858494D01*
X143069281Y-113842430D01*
X143088494Y-113828180D01*
X143109011Y-113815883D01*
X143130635Y-113805655D01*
X143153157Y-113797597D01*
X143176361Y-113791785D01*
X143200022Y-113788275D01*
X143223914Y-113787101D01*
X143247806Y-113788275D01*
G37*
G36*
X144573632Y-112462449D02*
G01*
X144597293Y-112465959D01*
X144620497Y-112471771D01*
X144643019Y-112479829D01*
X144664643Y-112490057D01*
X144685160Y-112502354D01*
X144704373Y-112516604D01*
X144722097Y-112532668D01*
X145367332Y-113177903D01*
X145383396Y-113195627D01*
X145397646Y-113214840D01*
X145409943Y-113235357D01*
X145420171Y-113256981D01*
X145428229Y-113279503D01*
X145434041Y-113302707D01*
X145437551Y-113326368D01*
X145438725Y-113350260D01*
X145437551Y-113374152D01*
X145434041Y-113397813D01*
X145428229Y-113421017D01*
X145420171Y-113443539D01*
X145409943Y-113465163D01*
X145397646Y-113485680D01*
X145383396Y-113504893D01*
X145367332Y-113522617D01*
X145022617Y-113867332D01*
X145004893Y-113883396D01*
X144985680Y-113897646D01*
X144965163Y-113909943D01*
X144943539Y-113920171D01*
X144921017Y-113928229D01*
X144897813Y-113934041D01*
X144874152Y-113937551D01*
X144850260Y-113938725D01*
X144826368Y-113937551D01*
X144802707Y-113934041D01*
X144779503Y-113928229D01*
X144756981Y-113920171D01*
X144735357Y-113909943D01*
X144714840Y-113897646D01*
X144695627Y-113883396D01*
X144677903Y-113867332D01*
X144032668Y-113222097D01*
X144016604Y-113204373D01*
X144002354Y-113185160D01*
X143990057Y-113164643D01*
X143979829Y-113143019D01*
X143971771Y-113120497D01*
X143965959Y-113097293D01*
X143962449Y-113073632D01*
X143961275Y-113049740D01*
X143962449Y-113025848D01*
X143965959Y-113002187D01*
X143971771Y-112978983D01*
X143979829Y-112956461D01*
X143990057Y-112934837D01*
X144002354Y-112914320D01*
X144016604Y-112895107D01*
X144032668Y-112877383D01*
X144377383Y-112532668D01*
X144395107Y-112516604D01*
X144414320Y-112502354D01*
X144434837Y-112490057D01*
X144456461Y-112479829D01*
X144478983Y-112471771D01*
X144502187Y-112465959D01*
X144525848Y-112462449D01*
X144549740Y-112461275D01*
X144573632Y-112462449D01*
G37*
G36*
X141208618Y-113932733D02*
G01*
X141229853Y-113935883D01*
X141250677Y-113941099D01*
X141270889Y-113948331D01*
X141290295Y-113957510D01*
X141308708Y-113968546D01*
X141325951Y-113981334D01*
X141341857Y-113995750D01*
X141704250Y-114358143D01*
X141718666Y-114374049D01*
X141731454Y-114391292D01*
X141742490Y-114409705D01*
X141751669Y-114429111D01*
X141758901Y-114449323D01*
X141764117Y-114470147D01*
X141767267Y-114491382D01*
X141768320Y-114512823D01*
X141767267Y-114534264D01*
X141764117Y-114555499D01*
X141758901Y-114576323D01*
X141751669Y-114596535D01*
X141742490Y-114615941D01*
X141731454Y-114634354D01*
X141718666Y-114651597D01*
X141704250Y-114667503D01*
X141394891Y-114976862D01*
X141378985Y-114991278D01*
X141361742Y-115004066D01*
X141343329Y-115015102D01*
X141323923Y-115024281D01*
X141303711Y-115031513D01*
X141282887Y-115036729D01*
X141261652Y-115039879D01*
X141240211Y-115040932D01*
X141218770Y-115039879D01*
X141197535Y-115036729D01*
X141176711Y-115031513D01*
X141156499Y-115024281D01*
X141137093Y-115015102D01*
X141118680Y-115004066D01*
X141101437Y-114991278D01*
X141085531Y-114976862D01*
X140723138Y-114614469D01*
X140708722Y-114598563D01*
X140695934Y-114581320D01*
X140684898Y-114562907D01*
X140675719Y-114543501D01*
X140668487Y-114523289D01*
X140663271Y-114502465D01*
X140660121Y-114481230D01*
X140659068Y-114459789D01*
X140660121Y-114438348D01*
X140663271Y-114417113D01*
X140668487Y-114396289D01*
X140675719Y-114376077D01*
X140684898Y-114356671D01*
X140695934Y-114338258D01*
X140708722Y-114321015D01*
X140723138Y-114305109D01*
X141032497Y-113995750D01*
X141048403Y-113981334D01*
X141065646Y-113968546D01*
X141084059Y-113957510D01*
X141103465Y-113948331D01*
X141123677Y-113941099D01*
X141144501Y-113935883D01*
X141165736Y-113932733D01*
X141187177Y-113931680D01*
X141208618Y-113932733D01*
G37*
G36*
X140094924Y-115046427D02*
G01*
X140116159Y-115049577D01*
X140136983Y-115054793D01*
X140157195Y-115062025D01*
X140176601Y-115071204D01*
X140195014Y-115082240D01*
X140212257Y-115095028D01*
X140228163Y-115109444D01*
X140590556Y-115471837D01*
X140604972Y-115487743D01*
X140617760Y-115504986D01*
X140628796Y-115523399D01*
X140637975Y-115542805D01*
X140645207Y-115563017D01*
X140650423Y-115583841D01*
X140653573Y-115605076D01*
X140654626Y-115626517D01*
X140653573Y-115647958D01*
X140650423Y-115669193D01*
X140645207Y-115690017D01*
X140637975Y-115710229D01*
X140628796Y-115729635D01*
X140617760Y-115748048D01*
X140604972Y-115765291D01*
X140590556Y-115781197D01*
X140281197Y-116090556D01*
X140265291Y-116104972D01*
X140248048Y-116117760D01*
X140229635Y-116128796D01*
X140210229Y-116137975D01*
X140190017Y-116145207D01*
X140169193Y-116150423D01*
X140147958Y-116153573D01*
X140126517Y-116154626D01*
X140105076Y-116153573D01*
X140083841Y-116150423D01*
X140063017Y-116145207D01*
X140042805Y-116137975D01*
X140023399Y-116128796D01*
X140004986Y-116117760D01*
X139987743Y-116104972D01*
X139971837Y-116090556D01*
X139609444Y-115728163D01*
X139595028Y-115712257D01*
X139582240Y-115695014D01*
X139571204Y-115676601D01*
X139562025Y-115657195D01*
X139554793Y-115636983D01*
X139549577Y-115616159D01*
X139546427Y-115594924D01*
X139545374Y-115573483D01*
X139546427Y-115552042D01*
X139549577Y-115530807D01*
X139554793Y-115509983D01*
X139562025Y-115489771D01*
X139571204Y-115470365D01*
X139582240Y-115451952D01*
X139595028Y-115434709D01*
X139609444Y-115418803D01*
X139918803Y-115109444D01*
X139934709Y-115095028D01*
X139951952Y-115082240D01*
X139970365Y-115071204D01*
X139989771Y-115062025D01*
X140009983Y-115054793D01*
X140030807Y-115049577D01*
X140052042Y-115046427D01*
X140073483Y-115045374D01*
X140094924Y-115046427D01*
G37*
G36*
X164577691Y-119426053D02*
G01*
X164598926Y-119429203D01*
X164619750Y-119434419D01*
X164639962Y-119441651D01*
X164659368Y-119450830D01*
X164677781Y-119461866D01*
X164695024Y-119474654D01*
X164710930Y-119489070D01*
X164725346Y-119504976D01*
X164738134Y-119522219D01*
X164749170Y-119540632D01*
X164758349Y-119560038D01*
X164765581Y-119580250D01*
X164770797Y-119601074D01*
X164773947Y-119622309D01*
X164775000Y-119643750D01*
X164775000Y-120156250D01*
X164773947Y-120177691D01*
X164770797Y-120198926D01*
X164765581Y-120219750D01*
X164758349Y-120239962D01*
X164749170Y-120259368D01*
X164738134Y-120277781D01*
X164725346Y-120295024D01*
X164710930Y-120310930D01*
X164695024Y-120325346D01*
X164677781Y-120338134D01*
X164659368Y-120349170D01*
X164639962Y-120358349D01*
X164619750Y-120365581D01*
X164598926Y-120370797D01*
X164577691Y-120373947D01*
X164556250Y-120375000D01*
X164118750Y-120375000D01*
X164097309Y-120373947D01*
X164076074Y-120370797D01*
X164055250Y-120365581D01*
X164035038Y-120358349D01*
X164015632Y-120349170D01*
X163997219Y-120338134D01*
X163979976Y-120325346D01*
X163964070Y-120310930D01*
X163949654Y-120295024D01*
X163936866Y-120277781D01*
X163925830Y-120259368D01*
X163916651Y-120239962D01*
X163909419Y-120219750D01*
X163904203Y-120198926D01*
X163901053Y-120177691D01*
X163900000Y-120156250D01*
X163900000Y-119643750D01*
X163901053Y-119622309D01*
X163904203Y-119601074D01*
X163909419Y-119580250D01*
X163916651Y-119560038D01*
X163925830Y-119540632D01*
X163936866Y-119522219D01*
X163949654Y-119504976D01*
X163964070Y-119489070D01*
X163979976Y-119474654D01*
X163997219Y-119461866D01*
X164015632Y-119450830D01*
X164035038Y-119441651D01*
X164055250Y-119434419D01*
X164076074Y-119429203D01*
X164097309Y-119426053D01*
X164118750Y-119425000D01*
X164556250Y-119425000D01*
X164577691Y-119426053D01*
G37*
G36*
X163002691Y-119426053D02*
G01*
X163023926Y-119429203D01*
X163044750Y-119434419D01*
X163064962Y-119441651D01*
X163084368Y-119450830D01*
X163102781Y-119461866D01*
X163120024Y-119474654D01*
X163135930Y-119489070D01*
X163150346Y-119504976D01*
X163163134Y-119522219D01*
X163174170Y-119540632D01*
X163183349Y-119560038D01*
X163190581Y-119580250D01*
X163195797Y-119601074D01*
X163198947Y-119622309D01*
X163200000Y-119643750D01*
X163200000Y-120156250D01*
X163198947Y-120177691D01*
X163195797Y-120198926D01*
X163190581Y-120219750D01*
X163183349Y-120239962D01*
X163174170Y-120259368D01*
X163163134Y-120277781D01*
X163150346Y-120295024D01*
X163135930Y-120310930D01*
X163120024Y-120325346D01*
X163102781Y-120338134D01*
X163084368Y-120349170D01*
X163064962Y-120358349D01*
X163044750Y-120365581D01*
X163023926Y-120370797D01*
X163002691Y-120373947D01*
X162981250Y-120375000D01*
X162543750Y-120375000D01*
X162522309Y-120373947D01*
X162501074Y-120370797D01*
X162480250Y-120365581D01*
X162460038Y-120358349D01*
X162440632Y-120349170D01*
X162422219Y-120338134D01*
X162404976Y-120325346D01*
X162389070Y-120310930D01*
X162374654Y-120295024D01*
X162361866Y-120277781D01*
X162350830Y-120259368D01*
X162341651Y-120239962D01*
X162334419Y-120219750D01*
X162329203Y-120198926D01*
X162326053Y-120177691D01*
X162325000Y-120156250D01*
X162325000Y-119643750D01*
X162326053Y-119622309D01*
X162329203Y-119601074D01*
X162334419Y-119580250D01*
X162341651Y-119560038D01*
X162350830Y-119540632D01*
X162361866Y-119522219D01*
X162374654Y-119504976D01*
X162389070Y-119489070D01*
X162404976Y-119474654D01*
X162422219Y-119461866D01*
X162440632Y-119450830D01*
X162460038Y-119441651D01*
X162480250Y-119434419D01*
X162501074Y-119429203D01*
X162522309Y-119426053D01*
X162543750Y-119425000D01*
X162981250Y-119425000D01*
X163002691Y-119426053D01*
G37*
G36*
X114427691Y-127926053D02*
G01*
X114448926Y-127929203D01*
X114469750Y-127934419D01*
X114489962Y-127941651D01*
X114509368Y-127950830D01*
X114527781Y-127961866D01*
X114545024Y-127974654D01*
X114560930Y-127989070D01*
X114575346Y-128004976D01*
X114588134Y-128022219D01*
X114599170Y-128040632D01*
X114608349Y-128060038D01*
X114615581Y-128080250D01*
X114620797Y-128101074D01*
X114623947Y-128122309D01*
X114625000Y-128143750D01*
X114625000Y-128656250D01*
X114623947Y-128677691D01*
X114620797Y-128698926D01*
X114615581Y-128719750D01*
X114608349Y-128739962D01*
X114599170Y-128759368D01*
X114588134Y-128777781D01*
X114575346Y-128795024D01*
X114560930Y-128810930D01*
X114545024Y-128825346D01*
X114527781Y-128838134D01*
X114509368Y-128849170D01*
X114489962Y-128858349D01*
X114469750Y-128865581D01*
X114448926Y-128870797D01*
X114427691Y-128873947D01*
X114406250Y-128875000D01*
X113968750Y-128875000D01*
X113947309Y-128873947D01*
X113926074Y-128870797D01*
X113905250Y-128865581D01*
X113885038Y-128858349D01*
X113865632Y-128849170D01*
X113847219Y-128838134D01*
X113829976Y-128825346D01*
X113814070Y-128810930D01*
X113799654Y-128795024D01*
X113786866Y-128777781D01*
X113775830Y-128759368D01*
X113766651Y-128739962D01*
X113759419Y-128719750D01*
X113754203Y-128698926D01*
X113751053Y-128677691D01*
X113750000Y-128656250D01*
X113750000Y-128143750D01*
X113751053Y-128122309D01*
X113754203Y-128101074D01*
X113759419Y-128080250D01*
X113766651Y-128060038D01*
X113775830Y-128040632D01*
X113786866Y-128022219D01*
X113799654Y-128004976D01*
X113814070Y-127989070D01*
X113829976Y-127974654D01*
X113847219Y-127961866D01*
X113865632Y-127950830D01*
X113885038Y-127941651D01*
X113905250Y-127934419D01*
X113926074Y-127929203D01*
X113947309Y-127926053D01*
X113968750Y-127925000D01*
X114406250Y-127925000D01*
X114427691Y-127926053D01*
G37*
G36*
X112852691Y-127926053D02*
G01*
X112873926Y-127929203D01*
X112894750Y-127934419D01*
X112914962Y-127941651D01*
X112934368Y-127950830D01*
X112952781Y-127961866D01*
X112970024Y-127974654D01*
X112985930Y-127989070D01*
X113000346Y-128004976D01*
X113013134Y-128022219D01*
X113024170Y-128040632D01*
X113033349Y-128060038D01*
X113040581Y-128080250D01*
X113045797Y-128101074D01*
X113048947Y-128122309D01*
X113050000Y-128143750D01*
X113050000Y-128656250D01*
X113048947Y-128677691D01*
X113045797Y-128698926D01*
X113040581Y-128719750D01*
X113033349Y-128739962D01*
X113024170Y-128759368D01*
X113013134Y-128777781D01*
X113000346Y-128795024D01*
X112985930Y-128810930D01*
X112970024Y-128825346D01*
X112952781Y-128838134D01*
X112934368Y-128849170D01*
X112914962Y-128858349D01*
X112894750Y-128865581D01*
X112873926Y-128870797D01*
X112852691Y-128873947D01*
X112831250Y-128875000D01*
X112393750Y-128875000D01*
X112372309Y-128873947D01*
X112351074Y-128870797D01*
X112330250Y-128865581D01*
X112310038Y-128858349D01*
X112290632Y-128849170D01*
X112272219Y-128838134D01*
X112254976Y-128825346D01*
X112239070Y-128810930D01*
X112224654Y-128795024D01*
X112211866Y-128777781D01*
X112200830Y-128759368D01*
X112191651Y-128739962D01*
X112184419Y-128719750D01*
X112179203Y-128698926D01*
X112176053Y-128677691D01*
X112175000Y-128656250D01*
X112175000Y-128143750D01*
X112176053Y-128122309D01*
X112179203Y-128101074D01*
X112184419Y-128080250D01*
X112191651Y-128060038D01*
X112200830Y-128040632D01*
X112211866Y-128022219D01*
X112224654Y-128004976D01*
X112239070Y-127989070D01*
X112254976Y-127974654D01*
X112272219Y-127961866D01*
X112290632Y-127950830D01*
X112310038Y-127941651D01*
X112330250Y-127934419D01*
X112351074Y-127929203D01*
X112372309Y-127926053D01*
X112393750Y-127925000D01*
X112831250Y-127925000D01*
X112852691Y-127926053D01*
G37*
G36*
X114080142Y-108513674D02*
G01*
X114103803Y-108517184D01*
X114127007Y-108522996D01*
X114149529Y-108531054D01*
X114171153Y-108541282D01*
X114191670Y-108553579D01*
X114210883Y-108567829D01*
X114228607Y-108583893D01*
X114244671Y-108601617D01*
X114258921Y-108620830D01*
X114271218Y-108641347D01*
X114281446Y-108662971D01*
X114289504Y-108685493D01*
X114295316Y-108708697D01*
X114298826Y-108732358D01*
X114300000Y-108756250D01*
X114300000Y-109243750D01*
X114298826Y-109267642D01*
X114295316Y-109291303D01*
X114289504Y-109314507D01*
X114281446Y-109337029D01*
X114271218Y-109358653D01*
X114258921Y-109379170D01*
X114244671Y-109398383D01*
X114228607Y-109416107D01*
X114210883Y-109432171D01*
X114191670Y-109446421D01*
X114171153Y-109458718D01*
X114149529Y-109468946D01*
X114127007Y-109477004D01*
X114103803Y-109482816D01*
X114080142Y-109486326D01*
X114056250Y-109487500D01*
X113143750Y-109487500D01*
X113119858Y-109486326D01*
X113096197Y-109482816D01*
X113072993Y-109477004D01*
X113050471Y-109468946D01*
X113028847Y-109458718D01*
X113008330Y-109446421D01*
X112989117Y-109432171D01*
X112971393Y-109416107D01*
X112955329Y-109398383D01*
X112941079Y-109379170D01*
X112928782Y-109358653D01*
X112918554Y-109337029D01*
X112910496Y-109314507D01*
X112904684Y-109291303D01*
X112901174Y-109267642D01*
X112900000Y-109243750D01*
X112900000Y-108756250D01*
X112901174Y-108732358D01*
X112904684Y-108708697D01*
X112910496Y-108685493D01*
X112918554Y-108662971D01*
X112928782Y-108641347D01*
X112941079Y-108620830D01*
X112955329Y-108601617D01*
X112971393Y-108583893D01*
X112989117Y-108567829D01*
X113008330Y-108553579D01*
X113028847Y-108541282D01*
X113050471Y-108531054D01*
X113072993Y-108522996D01*
X113096197Y-108517184D01*
X113119858Y-108513674D01*
X113143750Y-108512500D01*
X114056250Y-108512500D01*
X114080142Y-108513674D01*
G37*
G36*
X114080142Y-110388674D02*
G01*
X114103803Y-110392184D01*
X114127007Y-110397996D01*
X114149529Y-110406054D01*
X114171153Y-110416282D01*
X114191670Y-110428579D01*
X114210883Y-110442829D01*
X114228607Y-110458893D01*
X114244671Y-110476617D01*
X114258921Y-110495830D01*
X114271218Y-110516347D01*
X114281446Y-110537971D01*
X114289504Y-110560493D01*
X114295316Y-110583697D01*
X114298826Y-110607358D01*
X114300000Y-110631250D01*
X114300000Y-111118750D01*
X114298826Y-111142642D01*
X114295316Y-111166303D01*
X114289504Y-111189507D01*
X114281446Y-111212029D01*
X114271218Y-111233653D01*
X114258921Y-111254170D01*
X114244671Y-111273383D01*
X114228607Y-111291107D01*
X114210883Y-111307171D01*
X114191670Y-111321421D01*
X114171153Y-111333718D01*
X114149529Y-111343946D01*
X114127007Y-111352004D01*
X114103803Y-111357816D01*
X114080142Y-111361326D01*
X114056250Y-111362500D01*
X113143750Y-111362500D01*
X113119858Y-111361326D01*
X113096197Y-111357816D01*
X113072993Y-111352004D01*
X113050471Y-111343946D01*
X113028847Y-111333718D01*
X113008330Y-111321421D01*
X112989117Y-111307171D01*
X112971393Y-111291107D01*
X112955329Y-111273383D01*
X112941079Y-111254170D01*
X112928782Y-111233653D01*
X112918554Y-111212029D01*
X112910496Y-111189507D01*
X112904684Y-111166303D01*
X112901174Y-111142642D01*
X112900000Y-111118750D01*
X112900000Y-110631250D01*
X112901174Y-110607358D01*
X112904684Y-110583697D01*
X112910496Y-110560493D01*
X112918554Y-110537971D01*
X112928782Y-110516347D01*
X112941079Y-110495830D01*
X112955329Y-110476617D01*
X112971393Y-110458893D01*
X112989117Y-110442829D01*
X113008330Y-110428579D01*
X113028847Y-110416282D01*
X113050471Y-110406054D01*
X113072993Y-110397996D01*
X113096197Y-110392184D01*
X113119858Y-110388674D01*
X113143750Y-110387500D01*
X114056250Y-110387500D01*
X114080142Y-110388674D01*
G37*
G36*
X120580142Y-108576174D02*
G01*
X120603803Y-108579684D01*
X120627007Y-108585496D01*
X120649529Y-108593554D01*
X120671153Y-108603782D01*
X120691670Y-108616079D01*
X120710883Y-108630329D01*
X120728607Y-108646393D01*
X120744671Y-108664117D01*
X120758921Y-108683330D01*
X120771218Y-108703847D01*
X120781446Y-108725471D01*
X120789504Y-108747993D01*
X120795316Y-108771197D01*
X120798826Y-108794858D01*
X120800000Y-108818750D01*
X120800000Y-109306250D01*
X120798826Y-109330142D01*
X120795316Y-109353803D01*
X120789504Y-109377007D01*
X120781446Y-109399529D01*
X120771218Y-109421153D01*
X120758921Y-109441670D01*
X120744671Y-109460883D01*
X120728607Y-109478607D01*
X120710883Y-109494671D01*
X120691670Y-109508921D01*
X120671153Y-109521218D01*
X120649529Y-109531446D01*
X120627007Y-109539504D01*
X120603803Y-109545316D01*
X120580142Y-109548826D01*
X120556250Y-109550000D01*
X119643750Y-109550000D01*
X119619858Y-109548826D01*
X119596197Y-109545316D01*
X119572993Y-109539504D01*
X119550471Y-109531446D01*
X119528847Y-109521218D01*
X119508330Y-109508921D01*
X119489117Y-109494671D01*
X119471393Y-109478607D01*
X119455329Y-109460883D01*
X119441079Y-109441670D01*
X119428782Y-109421153D01*
X119418554Y-109399529D01*
X119410496Y-109377007D01*
X119404684Y-109353803D01*
X119401174Y-109330142D01*
X119400000Y-109306250D01*
X119400000Y-108818750D01*
X119401174Y-108794858D01*
X119404684Y-108771197D01*
X119410496Y-108747993D01*
X119418554Y-108725471D01*
X119428782Y-108703847D01*
X119441079Y-108683330D01*
X119455329Y-108664117D01*
X119471393Y-108646393D01*
X119489117Y-108630329D01*
X119508330Y-108616079D01*
X119528847Y-108603782D01*
X119550471Y-108593554D01*
X119572993Y-108585496D01*
X119596197Y-108579684D01*
X119619858Y-108576174D01*
X119643750Y-108575000D01*
X120556250Y-108575000D01*
X120580142Y-108576174D01*
G37*
G36*
X120580142Y-110451174D02*
G01*
X120603803Y-110454684D01*
X120627007Y-110460496D01*
X120649529Y-110468554D01*
X120671153Y-110478782D01*
X120691670Y-110491079D01*
X120710883Y-110505329D01*
X120728607Y-110521393D01*
X120744671Y-110539117D01*
X120758921Y-110558330D01*
X120771218Y-110578847D01*
X120781446Y-110600471D01*
X120789504Y-110622993D01*
X120795316Y-110646197D01*
X120798826Y-110669858D01*
X120800000Y-110693750D01*
X120800000Y-111181250D01*
X120798826Y-111205142D01*
X120795316Y-111228803D01*
X120789504Y-111252007D01*
X120781446Y-111274529D01*
X120771218Y-111296153D01*
X120758921Y-111316670D01*
X120744671Y-111335883D01*
X120728607Y-111353607D01*
X120710883Y-111369671D01*
X120691670Y-111383921D01*
X120671153Y-111396218D01*
X120649529Y-111406446D01*
X120627007Y-111414504D01*
X120603803Y-111420316D01*
X120580142Y-111423826D01*
X120556250Y-111425000D01*
X119643750Y-111425000D01*
X119619858Y-111423826D01*
X119596197Y-111420316D01*
X119572993Y-111414504D01*
X119550471Y-111406446D01*
X119528847Y-111396218D01*
X119508330Y-111383921D01*
X119489117Y-111369671D01*
X119471393Y-111353607D01*
X119455329Y-111335883D01*
X119441079Y-111316670D01*
X119428782Y-111296153D01*
X119418554Y-111274529D01*
X119410496Y-111252007D01*
X119404684Y-111228803D01*
X119401174Y-111205142D01*
X119400000Y-111181250D01*
X119400000Y-110693750D01*
X119401174Y-110669858D01*
X119404684Y-110646197D01*
X119410496Y-110622993D01*
X119418554Y-110600471D01*
X119428782Y-110578847D01*
X119441079Y-110558330D01*
X119455329Y-110539117D01*
X119471393Y-110521393D01*
X119489117Y-110505329D01*
X119508330Y-110491079D01*
X119528847Y-110478782D01*
X119550471Y-110468554D01*
X119572993Y-110460496D01*
X119596197Y-110454684D01*
X119619858Y-110451174D01*
X119643750Y-110450000D01*
X120556250Y-110450000D01*
X120580142Y-110451174D01*
G37*
G36*
X117702691Y-115276053D02*
G01*
X117723926Y-115279203D01*
X117744750Y-115284419D01*
X117764962Y-115291651D01*
X117784368Y-115300830D01*
X117802781Y-115311866D01*
X117820024Y-115324654D01*
X117835930Y-115339070D01*
X117850346Y-115354976D01*
X117863134Y-115372219D01*
X117874170Y-115390632D01*
X117883349Y-115410038D01*
X117890581Y-115430250D01*
X117895797Y-115451074D01*
X117898947Y-115472309D01*
X117900000Y-115493750D01*
X117900000Y-116006250D01*
X117898947Y-116027691D01*
X117895797Y-116048926D01*
X117890581Y-116069750D01*
X117883349Y-116089962D01*
X117874170Y-116109368D01*
X117863134Y-116127781D01*
X117850346Y-116145024D01*
X117835930Y-116160930D01*
X117820024Y-116175346D01*
X117802781Y-116188134D01*
X117784368Y-116199170D01*
X117764962Y-116208349D01*
X117744750Y-116215581D01*
X117723926Y-116220797D01*
X117702691Y-116223947D01*
X117681250Y-116225000D01*
X117243750Y-116225000D01*
X117222309Y-116223947D01*
X117201074Y-116220797D01*
X117180250Y-116215581D01*
X117160038Y-116208349D01*
X117140632Y-116199170D01*
X117122219Y-116188134D01*
X117104976Y-116175346D01*
X117089070Y-116160930D01*
X117074654Y-116145024D01*
X117061866Y-116127781D01*
X117050830Y-116109368D01*
X117041651Y-116089962D01*
X117034419Y-116069750D01*
X117029203Y-116048926D01*
X117026053Y-116027691D01*
X117025000Y-116006250D01*
X117025000Y-115493750D01*
X117026053Y-115472309D01*
X117029203Y-115451074D01*
X117034419Y-115430250D01*
X117041651Y-115410038D01*
X117050830Y-115390632D01*
X117061866Y-115372219D01*
X117074654Y-115354976D01*
X117089070Y-115339070D01*
X117104976Y-115324654D01*
X117122219Y-115311866D01*
X117140632Y-115300830D01*
X117160038Y-115291651D01*
X117180250Y-115284419D01*
X117201074Y-115279203D01*
X117222309Y-115276053D01*
X117243750Y-115275000D01*
X117681250Y-115275000D01*
X117702691Y-115276053D01*
G37*
G36*
X119277691Y-115276053D02*
G01*
X119298926Y-115279203D01*
X119319750Y-115284419D01*
X119339962Y-115291651D01*
X119359368Y-115300830D01*
X119377781Y-115311866D01*
X119395024Y-115324654D01*
X119410930Y-115339070D01*
X119425346Y-115354976D01*
X119438134Y-115372219D01*
X119449170Y-115390632D01*
X119458349Y-115410038D01*
X119465581Y-115430250D01*
X119470797Y-115451074D01*
X119473947Y-115472309D01*
X119475000Y-115493750D01*
X119475000Y-116006250D01*
X119473947Y-116027691D01*
X119470797Y-116048926D01*
X119465581Y-116069750D01*
X119458349Y-116089962D01*
X119449170Y-116109368D01*
X119438134Y-116127781D01*
X119425346Y-116145024D01*
X119410930Y-116160930D01*
X119395024Y-116175346D01*
X119377781Y-116188134D01*
X119359368Y-116199170D01*
X119339962Y-116208349D01*
X119319750Y-116215581D01*
X119298926Y-116220797D01*
X119277691Y-116223947D01*
X119256250Y-116225000D01*
X118818750Y-116225000D01*
X118797309Y-116223947D01*
X118776074Y-116220797D01*
X118755250Y-116215581D01*
X118735038Y-116208349D01*
X118715632Y-116199170D01*
X118697219Y-116188134D01*
X118679976Y-116175346D01*
X118664070Y-116160930D01*
X118649654Y-116145024D01*
X118636866Y-116127781D01*
X118625830Y-116109368D01*
X118616651Y-116089962D01*
X118609419Y-116069750D01*
X118604203Y-116048926D01*
X118601053Y-116027691D01*
X118600000Y-116006250D01*
X118600000Y-115493750D01*
X118601053Y-115472309D01*
X118604203Y-115451074D01*
X118609419Y-115430250D01*
X118616651Y-115410038D01*
X118625830Y-115390632D01*
X118636866Y-115372219D01*
X118649654Y-115354976D01*
X118664070Y-115339070D01*
X118679976Y-115324654D01*
X118697219Y-115311866D01*
X118715632Y-115300830D01*
X118735038Y-115291651D01*
X118755250Y-115284419D01*
X118776074Y-115279203D01*
X118797309Y-115276053D01*
X118818750Y-115275000D01*
X119256250Y-115275000D01*
X119277691Y-115276053D01*
G37*
G36*
X116277691Y-115351053D02*
G01*
X116298926Y-115354203D01*
X116319750Y-115359419D01*
X116339962Y-115366651D01*
X116359368Y-115375830D01*
X116377781Y-115386866D01*
X116395024Y-115399654D01*
X116410930Y-115414070D01*
X116425346Y-115429976D01*
X116438134Y-115447219D01*
X116449170Y-115465632D01*
X116458349Y-115485038D01*
X116465581Y-115505250D01*
X116470797Y-115526074D01*
X116473947Y-115547309D01*
X116475000Y-115568750D01*
X116475000Y-116006250D01*
X116473947Y-116027691D01*
X116470797Y-116048926D01*
X116465581Y-116069750D01*
X116458349Y-116089962D01*
X116449170Y-116109368D01*
X116438134Y-116127781D01*
X116425346Y-116145024D01*
X116410930Y-116160930D01*
X116395024Y-116175346D01*
X116377781Y-116188134D01*
X116359368Y-116199170D01*
X116339962Y-116208349D01*
X116319750Y-116215581D01*
X116298926Y-116220797D01*
X116277691Y-116223947D01*
X116256250Y-116225000D01*
X115743750Y-116225000D01*
X115722309Y-116223947D01*
X115701074Y-116220797D01*
X115680250Y-116215581D01*
X115660038Y-116208349D01*
X115640632Y-116199170D01*
X115622219Y-116188134D01*
X115604976Y-116175346D01*
X115589070Y-116160930D01*
X115574654Y-116145024D01*
X115561866Y-116127781D01*
X115550830Y-116109368D01*
X115541651Y-116089962D01*
X115534419Y-116069750D01*
X115529203Y-116048926D01*
X115526053Y-116027691D01*
X115525000Y-116006250D01*
X115525000Y-115568750D01*
X115526053Y-115547309D01*
X115529203Y-115526074D01*
X115534419Y-115505250D01*
X115541651Y-115485038D01*
X115550830Y-115465632D01*
X115561866Y-115447219D01*
X115574654Y-115429976D01*
X115589070Y-115414070D01*
X115604976Y-115399654D01*
X115622219Y-115386866D01*
X115640632Y-115375830D01*
X115660038Y-115366651D01*
X115680250Y-115359419D01*
X115701074Y-115354203D01*
X115722309Y-115351053D01*
X115743750Y-115350000D01*
X116256250Y-115350000D01*
X116277691Y-115351053D01*
G37*
G36*
X116277691Y-113776053D02*
G01*
X116298926Y-113779203D01*
X116319750Y-113784419D01*
X116339962Y-113791651D01*
X116359368Y-113800830D01*
X116377781Y-113811866D01*
X116395024Y-113824654D01*
X116410930Y-113839070D01*
X116425346Y-113854976D01*
X116438134Y-113872219D01*
X116449170Y-113890632D01*
X116458349Y-113910038D01*
X116465581Y-113930250D01*
X116470797Y-113951074D01*
X116473947Y-113972309D01*
X116475000Y-113993750D01*
X116475000Y-114431250D01*
X116473947Y-114452691D01*
X116470797Y-114473926D01*
X116465581Y-114494750D01*
X116458349Y-114514962D01*
X116449170Y-114534368D01*
X116438134Y-114552781D01*
X116425346Y-114570024D01*
X116410930Y-114585930D01*
X116395024Y-114600346D01*
X116377781Y-114613134D01*
X116359368Y-114624170D01*
X116339962Y-114633349D01*
X116319750Y-114640581D01*
X116298926Y-114645797D01*
X116277691Y-114648947D01*
X116256250Y-114650000D01*
X115743750Y-114650000D01*
X115722309Y-114648947D01*
X115701074Y-114645797D01*
X115680250Y-114640581D01*
X115660038Y-114633349D01*
X115640632Y-114624170D01*
X115622219Y-114613134D01*
X115604976Y-114600346D01*
X115589070Y-114585930D01*
X115574654Y-114570024D01*
X115561866Y-114552781D01*
X115550830Y-114534368D01*
X115541651Y-114514962D01*
X115534419Y-114494750D01*
X115529203Y-114473926D01*
X115526053Y-114452691D01*
X115525000Y-114431250D01*
X115525000Y-113993750D01*
X115526053Y-113972309D01*
X115529203Y-113951074D01*
X115534419Y-113930250D01*
X115541651Y-113910038D01*
X115550830Y-113890632D01*
X115561866Y-113872219D01*
X115574654Y-113854976D01*
X115589070Y-113839070D01*
X115604976Y-113824654D01*
X115622219Y-113811866D01*
X115640632Y-113800830D01*
X115660038Y-113791651D01*
X115680250Y-113784419D01*
X115701074Y-113779203D01*
X115722309Y-113776053D01*
X115743750Y-113775000D01*
X116256250Y-113775000D01*
X116277691Y-113776053D01*
G37*
M02*
