G04 #@! TF.GenerationSoftware,KiCad,Pcbnew,5.1.5*
G04 #@! TF.CreationDate,2020-01-13T20:43:58-05:00*
G04 #@! TF.ProjectId,stm32f0_usb,73746d33-3266-4305-9f75-73622e6b6963,0*
G04 #@! TF.SameCoordinates,Original*
G04 #@! TF.FileFunction,Soldermask,Bot*
G04 #@! TF.FilePolarity,Negative*
%FSLAX46Y46*%
G04 Gerber Fmt 4.6, Leading zero omitted, Abs format (unit mm)*
G04 Created by KiCad (PCBNEW 5.1.5) date 2020-01-13 20:43:58*
%MOMM*%
%LPD*%
G04 APERTURE LIST*
%ADD10C,0.100000*%
G04 APERTURE END LIST*
D10*
G36*
X165634239Y-131811467D02*
G01*
X165948282Y-131873934D01*
X166539926Y-132119001D01*
X167072392Y-132474784D01*
X167525216Y-132927608D01*
X167880999Y-133460074D01*
X168126066Y-134051718D01*
X168251000Y-134679804D01*
X168251000Y-135320196D01*
X168126066Y-135948282D01*
X167880999Y-136539926D01*
X167525216Y-137072392D01*
X167072392Y-137525216D01*
X166539926Y-137880999D01*
X165948282Y-138126066D01*
X165634239Y-138188533D01*
X165320197Y-138251000D01*
X164679803Y-138251000D01*
X164365761Y-138188533D01*
X164051718Y-138126066D01*
X163460074Y-137880999D01*
X162927608Y-137525216D01*
X162474784Y-137072392D01*
X162119001Y-136539926D01*
X161873934Y-135948282D01*
X161749000Y-135320196D01*
X161749000Y-134679804D01*
X161873934Y-134051718D01*
X162119001Y-133460074D01*
X162474784Y-132927608D01*
X162927608Y-132474784D01*
X163460074Y-132119001D01*
X164051718Y-131873934D01*
X164365761Y-131811467D01*
X164679803Y-131749000D01*
X165320197Y-131749000D01*
X165634239Y-131811467D01*
G37*
G36*
X105634239Y-131811467D02*
G01*
X105948282Y-131873934D01*
X106539926Y-132119001D01*
X107072392Y-132474784D01*
X107525216Y-132927608D01*
X107880999Y-133460074D01*
X108126066Y-134051718D01*
X108251000Y-134679804D01*
X108251000Y-135320196D01*
X108126066Y-135948282D01*
X107880999Y-136539926D01*
X107525216Y-137072392D01*
X107072392Y-137525216D01*
X106539926Y-137880999D01*
X105948282Y-138126066D01*
X105634239Y-138188533D01*
X105320197Y-138251000D01*
X104679803Y-138251000D01*
X104365761Y-138188533D01*
X104051718Y-138126066D01*
X103460074Y-137880999D01*
X102927608Y-137525216D01*
X102474784Y-137072392D01*
X102119001Y-136539926D01*
X101873934Y-135948282D01*
X101749000Y-135320196D01*
X101749000Y-134679804D01*
X101873934Y-134051718D01*
X102119001Y-133460074D01*
X102474784Y-132927608D01*
X102927608Y-132474784D01*
X103460074Y-132119001D01*
X104051718Y-131873934D01*
X104365761Y-131811467D01*
X104679803Y-131749000D01*
X105320197Y-131749000D01*
X105634239Y-131811467D01*
G37*
G36*
X145973512Y-134103927D02*
G01*
X146122812Y-134133624D01*
X146286784Y-134201544D01*
X146434354Y-134300147D01*
X146559853Y-134425646D01*
X146658456Y-134573216D01*
X146726376Y-134737188D01*
X146761000Y-134911259D01*
X146761000Y-135088741D01*
X146726376Y-135262812D01*
X146658456Y-135426784D01*
X146559853Y-135574354D01*
X146434354Y-135699853D01*
X146286784Y-135798456D01*
X146122812Y-135866376D01*
X145973512Y-135896073D01*
X145948742Y-135901000D01*
X145771258Y-135901000D01*
X145746488Y-135896073D01*
X145597188Y-135866376D01*
X145433216Y-135798456D01*
X145285646Y-135699853D01*
X145160147Y-135574354D01*
X145061544Y-135426784D01*
X144993624Y-135262812D01*
X144959000Y-135088741D01*
X144959000Y-134911259D01*
X144993624Y-134737188D01*
X145061544Y-134573216D01*
X145160147Y-134425646D01*
X145285646Y-134300147D01*
X145433216Y-134201544D01*
X145597188Y-134133624D01*
X145746488Y-134103927D01*
X145771258Y-134099000D01*
X145948742Y-134099000D01*
X145973512Y-134103927D01*
G37*
G36*
X156133512Y-134103927D02*
G01*
X156282812Y-134133624D01*
X156446784Y-134201544D01*
X156594354Y-134300147D01*
X156719853Y-134425646D01*
X156818456Y-134573216D01*
X156886376Y-134737188D01*
X156921000Y-134911259D01*
X156921000Y-135088741D01*
X156886376Y-135262812D01*
X156818456Y-135426784D01*
X156719853Y-135574354D01*
X156594354Y-135699853D01*
X156446784Y-135798456D01*
X156282812Y-135866376D01*
X156133512Y-135896073D01*
X156108742Y-135901000D01*
X155931258Y-135901000D01*
X155906488Y-135896073D01*
X155757188Y-135866376D01*
X155593216Y-135798456D01*
X155445646Y-135699853D01*
X155320147Y-135574354D01*
X155221544Y-135426784D01*
X155153624Y-135262812D01*
X155119000Y-135088741D01*
X155119000Y-134911259D01*
X155153624Y-134737188D01*
X155221544Y-134573216D01*
X155320147Y-134425646D01*
X155445646Y-134300147D01*
X155593216Y-134201544D01*
X155757188Y-134133624D01*
X155906488Y-134103927D01*
X155931258Y-134099000D01*
X156108742Y-134099000D01*
X156133512Y-134103927D01*
G37*
G36*
X153593512Y-134103927D02*
G01*
X153742812Y-134133624D01*
X153906784Y-134201544D01*
X154054354Y-134300147D01*
X154179853Y-134425646D01*
X154278456Y-134573216D01*
X154346376Y-134737188D01*
X154381000Y-134911259D01*
X154381000Y-135088741D01*
X154346376Y-135262812D01*
X154278456Y-135426784D01*
X154179853Y-135574354D01*
X154054354Y-135699853D01*
X153906784Y-135798456D01*
X153742812Y-135866376D01*
X153593512Y-135896073D01*
X153568742Y-135901000D01*
X153391258Y-135901000D01*
X153366488Y-135896073D01*
X153217188Y-135866376D01*
X153053216Y-135798456D01*
X152905646Y-135699853D01*
X152780147Y-135574354D01*
X152681544Y-135426784D01*
X152613624Y-135262812D01*
X152579000Y-135088741D01*
X152579000Y-134911259D01*
X152613624Y-134737188D01*
X152681544Y-134573216D01*
X152780147Y-134425646D01*
X152905646Y-134300147D01*
X153053216Y-134201544D01*
X153217188Y-134133624D01*
X153366488Y-134103927D01*
X153391258Y-134099000D01*
X153568742Y-134099000D01*
X153593512Y-134103927D01*
G37*
G36*
X151053512Y-134103927D02*
G01*
X151202812Y-134133624D01*
X151366784Y-134201544D01*
X151514354Y-134300147D01*
X151639853Y-134425646D01*
X151738456Y-134573216D01*
X151806376Y-134737188D01*
X151841000Y-134911259D01*
X151841000Y-135088741D01*
X151806376Y-135262812D01*
X151738456Y-135426784D01*
X151639853Y-135574354D01*
X151514354Y-135699853D01*
X151366784Y-135798456D01*
X151202812Y-135866376D01*
X151053512Y-135896073D01*
X151028742Y-135901000D01*
X150851258Y-135901000D01*
X150826488Y-135896073D01*
X150677188Y-135866376D01*
X150513216Y-135798456D01*
X150365646Y-135699853D01*
X150240147Y-135574354D01*
X150141544Y-135426784D01*
X150073624Y-135262812D01*
X150039000Y-135088741D01*
X150039000Y-134911259D01*
X150073624Y-134737188D01*
X150141544Y-134573216D01*
X150240147Y-134425646D01*
X150365646Y-134300147D01*
X150513216Y-134201544D01*
X150677188Y-134133624D01*
X150826488Y-134103927D01*
X150851258Y-134099000D01*
X151028742Y-134099000D01*
X151053512Y-134103927D01*
G37*
G36*
X123901000Y-135901000D02*
G01*
X122099000Y-135901000D01*
X122099000Y-134099000D01*
X123901000Y-134099000D01*
X123901000Y-135901000D01*
G37*
G36*
X125653512Y-134103927D02*
G01*
X125802812Y-134133624D01*
X125966784Y-134201544D01*
X126114354Y-134300147D01*
X126239853Y-134425646D01*
X126338456Y-134573216D01*
X126406376Y-134737188D01*
X126441000Y-134911259D01*
X126441000Y-135088741D01*
X126406376Y-135262812D01*
X126338456Y-135426784D01*
X126239853Y-135574354D01*
X126114354Y-135699853D01*
X125966784Y-135798456D01*
X125802812Y-135866376D01*
X125653512Y-135896073D01*
X125628742Y-135901000D01*
X125451258Y-135901000D01*
X125426488Y-135896073D01*
X125277188Y-135866376D01*
X125113216Y-135798456D01*
X124965646Y-135699853D01*
X124840147Y-135574354D01*
X124741544Y-135426784D01*
X124673624Y-135262812D01*
X124639000Y-135088741D01*
X124639000Y-134911259D01*
X124673624Y-134737188D01*
X124741544Y-134573216D01*
X124840147Y-134425646D01*
X124965646Y-134300147D01*
X125113216Y-134201544D01*
X125277188Y-134133624D01*
X125426488Y-134103927D01*
X125451258Y-134099000D01*
X125628742Y-134099000D01*
X125653512Y-134103927D01*
G37*
G36*
X128193512Y-134103927D02*
G01*
X128342812Y-134133624D01*
X128506784Y-134201544D01*
X128654354Y-134300147D01*
X128779853Y-134425646D01*
X128878456Y-134573216D01*
X128946376Y-134737188D01*
X128981000Y-134911259D01*
X128981000Y-135088741D01*
X128946376Y-135262812D01*
X128878456Y-135426784D01*
X128779853Y-135574354D01*
X128654354Y-135699853D01*
X128506784Y-135798456D01*
X128342812Y-135866376D01*
X128193512Y-135896073D01*
X128168742Y-135901000D01*
X127991258Y-135901000D01*
X127966488Y-135896073D01*
X127817188Y-135866376D01*
X127653216Y-135798456D01*
X127505646Y-135699853D01*
X127380147Y-135574354D01*
X127281544Y-135426784D01*
X127213624Y-135262812D01*
X127179000Y-135088741D01*
X127179000Y-134911259D01*
X127213624Y-134737188D01*
X127281544Y-134573216D01*
X127380147Y-134425646D01*
X127505646Y-134300147D01*
X127653216Y-134201544D01*
X127817188Y-134133624D01*
X127966488Y-134103927D01*
X127991258Y-134099000D01*
X128168742Y-134099000D01*
X128193512Y-134103927D01*
G37*
G36*
X130733512Y-134103927D02*
G01*
X130882812Y-134133624D01*
X131046784Y-134201544D01*
X131194354Y-134300147D01*
X131319853Y-134425646D01*
X131418456Y-134573216D01*
X131486376Y-134737188D01*
X131521000Y-134911259D01*
X131521000Y-135088741D01*
X131486376Y-135262812D01*
X131418456Y-135426784D01*
X131319853Y-135574354D01*
X131194354Y-135699853D01*
X131046784Y-135798456D01*
X130882812Y-135866376D01*
X130733512Y-135896073D01*
X130708742Y-135901000D01*
X130531258Y-135901000D01*
X130506488Y-135896073D01*
X130357188Y-135866376D01*
X130193216Y-135798456D01*
X130045646Y-135699853D01*
X129920147Y-135574354D01*
X129821544Y-135426784D01*
X129753624Y-135262812D01*
X129719000Y-135088741D01*
X129719000Y-134911259D01*
X129753624Y-134737188D01*
X129821544Y-134573216D01*
X129920147Y-134425646D01*
X130045646Y-134300147D01*
X130193216Y-134201544D01*
X130357188Y-134133624D01*
X130506488Y-134103927D01*
X130531258Y-134099000D01*
X130708742Y-134099000D01*
X130733512Y-134103927D01*
G37*
G36*
X133273512Y-134103927D02*
G01*
X133422812Y-134133624D01*
X133586784Y-134201544D01*
X133734354Y-134300147D01*
X133859853Y-134425646D01*
X133958456Y-134573216D01*
X134026376Y-134737188D01*
X134061000Y-134911259D01*
X134061000Y-135088741D01*
X134026376Y-135262812D01*
X133958456Y-135426784D01*
X133859853Y-135574354D01*
X133734354Y-135699853D01*
X133586784Y-135798456D01*
X133422812Y-135866376D01*
X133273512Y-135896073D01*
X133248742Y-135901000D01*
X133071258Y-135901000D01*
X133046488Y-135896073D01*
X132897188Y-135866376D01*
X132733216Y-135798456D01*
X132585646Y-135699853D01*
X132460147Y-135574354D01*
X132361544Y-135426784D01*
X132293624Y-135262812D01*
X132259000Y-135088741D01*
X132259000Y-134911259D01*
X132293624Y-134737188D01*
X132361544Y-134573216D01*
X132460147Y-134425646D01*
X132585646Y-134300147D01*
X132733216Y-134201544D01*
X132897188Y-134133624D01*
X133046488Y-134103927D01*
X133071258Y-134099000D01*
X133248742Y-134099000D01*
X133273512Y-134103927D01*
G37*
G36*
X135813512Y-134103927D02*
G01*
X135962812Y-134133624D01*
X136126784Y-134201544D01*
X136274354Y-134300147D01*
X136399853Y-134425646D01*
X136498456Y-134573216D01*
X136566376Y-134737188D01*
X136601000Y-134911259D01*
X136601000Y-135088741D01*
X136566376Y-135262812D01*
X136498456Y-135426784D01*
X136399853Y-135574354D01*
X136274354Y-135699853D01*
X136126784Y-135798456D01*
X135962812Y-135866376D01*
X135813512Y-135896073D01*
X135788742Y-135901000D01*
X135611258Y-135901000D01*
X135586488Y-135896073D01*
X135437188Y-135866376D01*
X135273216Y-135798456D01*
X135125646Y-135699853D01*
X135000147Y-135574354D01*
X134901544Y-135426784D01*
X134833624Y-135262812D01*
X134799000Y-135088741D01*
X134799000Y-134911259D01*
X134833624Y-134737188D01*
X134901544Y-134573216D01*
X135000147Y-134425646D01*
X135125646Y-134300147D01*
X135273216Y-134201544D01*
X135437188Y-134133624D01*
X135586488Y-134103927D01*
X135611258Y-134099000D01*
X135788742Y-134099000D01*
X135813512Y-134103927D01*
G37*
G36*
X138353512Y-134103927D02*
G01*
X138502812Y-134133624D01*
X138666784Y-134201544D01*
X138814354Y-134300147D01*
X138939853Y-134425646D01*
X139038456Y-134573216D01*
X139106376Y-134737188D01*
X139141000Y-134911259D01*
X139141000Y-135088741D01*
X139106376Y-135262812D01*
X139038456Y-135426784D01*
X138939853Y-135574354D01*
X138814354Y-135699853D01*
X138666784Y-135798456D01*
X138502812Y-135866376D01*
X138353512Y-135896073D01*
X138328742Y-135901000D01*
X138151258Y-135901000D01*
X138126488Y-135896073D01*
X137977188Y-135866376D01*
X137813216Y-135798456D01*
X137665646Y-135699853D01*
X137540147Y-135574354D01*
X137441544Y-135426784D01*
X137373624Y-135262812D01*
X137339000Y-135088741D01*
X137339000Y-134911259D01*
X137373624Y-134737188D01*
X137441544Y-134573216D01*
X137540147Y-134425646D01*
X137665646Y-134300147D01*
X137813216Y-134201544D01*
X137977188Y-134133624D01*
X138126488Y-134103927D01*
X138151258Y-134099000D01*
X138328742Y-134099000D01*
X138353512Y-134103927D01*
G37*
G36*
X140893512Y-134103927D02*
G01*
X141042812Y-134133624D01*
X141206784Y-134201544D01*
X141354354Y-134300147D01*
X141479853Y-134425646D01*
X141578456Y-134573216D01*
X141646376Y-134737188D01*
X141681000Y-134911259D01*
X141681000Y-135088741D01*
X141646376Y-135262812D01*
X141578456Y-135426784D01*
X141479853Y-135574354D01*
X141354354Y-135699853D01*
X141206784Y-135798456D01*
X141042812Y-135866376D01*
X140893512Y-135896073D01*
X140868742Y-135901000D01*
X140691258Y-135901000D01*
X140666488Y-135896073D01*
X140517188Y-135866376D01*
X140353216Y-135798456D01*
X140205646Y-135699853D01*
X140080147Y-135574354D01*
X139981544Y-135426784D01*
X139913624Y-135262812D01*
X139879000Y-135088741D01*
X139879000Y-134911259D01*
X139913624Y-134737188D01*
X139981544Y-134573216D01*
X140080147Y-134425646D01*
X140205646Y-134300147D01*
X140353216Y-134201544D01*
X140517188Y-134133624D01*
X140666488Y-134103927D01*
X140691258Y-134099000D01*
X140868742Y-134099000D01*
X140893512Y-134103927D01*
G37*
G36*
X143433512Y-134103927D02*
G01*
X143582812Y-134133624D01*
X143746784Y-134201544D01*
X143894354Y-134300147D01*
X144019853Y-134425646D01*
X144118456Y-134573216D01*
X144186376Y-134737188D01*
X144221000Y-134911259D01*
X144221000Y-135088741D01*
X144186376Y-135262812D01*
X144118456Y-135426784D01*
X144019853Y-135574354D01*
X143894354Y-135699853D01*
X143746784Y-135798456D01*
X143582812Y-135866376D01*
X143433512Y-135896073D01*
X143408742Y-135901000D01*
X143231258Y-135901000D01*
X143206488Y-135896073D01*
X143057188Y-135866376D01*
X142893216Y-135798456D01*
X142745646Y-135699853D01*
X142620147Y-135574354D01*
X142521544Y-135426784D01*
X142453624Y-135262812D01*
X142419000Y-135088741D01*
X142419000Y-134911259D01*
X142453624Y-134737188D01*
X142521544Y-134573216D01*
X142620147Y-134425646D01*
X142745646Y-134300147D01*
X142893216Y-134201544D01*
X143057188Y-134133624D01*
X143206488Y-134103927D01*
X143231258Y-134099000D01*
X143408742Y-134099000D01*
X143433512Y-134103927D01*
G37*
G36*
X148513512Y-134103927D02*
G01*
X148662812Y-134133624D01*
X148826784Y-134201544D01*
X148974354Y-134300147D01*
X149099853Y-134425646D01*
X149198456Y-134573216D01*
X149266376Y-134737188D01*
X149301000Y-134911259D01*
X149301000Y-135088741D01*
X149266376Y-135262812D01*
X149198456Y-135426784D01*
X149099853Y-135574354D01*
X148974354Y-135699853D01*
X148826784Y-135798456D01*
X148662812Y-135866376D01*
X148513512Y-135896073D01*
X148488742Y-135901000D01*
X148311258Y-135901000D01*
X148286488Y-135896073D01*
X148137188Y-135866376D01*
X147973216Y-135798456D01*
X147825646Y-135699853D01*
X147700147Y-135574354D01*
X147601544Y-135426784D01*
X147533624Y-135262812D01*
X147499000Y-135088741D01*
X147499000Y-134911259D01*
X147533624Y-134737188D01*
X147601544Y-134573216D01*
X147700147Y-134425646D01*
X147825646Y-134300147D01*
X147973216Y-134201544D01*
X148137188Y-134133624D01*
X148286488Y-134103927D01*
X148311258Y-134099000D01*
X148488742Y-134099000D01*
X148513512Y-134103927D01*
G37*
G36*
X105097740Y-116708626D02*
G01*
X105146136Y-116718253D01*
X105183902Y-116733896D01*
X105237311Y-116756019D01*
X105237312Y-116756020D01*
X105319369Y-116810848D01*
X105389152Y-116880631D01*
X105389153Y-116880633D01*
X105443981Y-116962689D01*
X105481747Y-117053865D01*
X105501000Y-117150655D01*
X105501000Y-117249345D01*
X105481747Y-117346135D01*
X105443981Y-117437311D01*
X105443980Y-117437312D01*
X105389152Y-117519369D01*
X105319369Y-117589152D01*
X105278062Y-117616752D01*
X105237311Y-117643981D01*
X105183902Y-117666104D01*
X105146136Y-117681747D01*
X105097740Y-117691373D01*
X105049345Y-117701000D01*
X104950655Y-117701000D01*
X104902260Y-117691373D01*
X104853864Y-117681747D01*
X104816098Y-117666104D01*
X104762689Y-117643981D01*
X104721938Y-117616752D01*
X104680631Y-117589152D01*
X104610848Y-117519369D01*
X104556020Y-117437312D01*
X104556019Y-117437311D01*
X104518253Y-117346135D01*
X104499000Y-117249345D01*
X104499000Y-117150655D01*
X104518253Y-117053865D01*
X104556019Y-116962689D01*
X104610847Y-116880633D01*
X104610848Y-116880631D01*
X104680631Y-116810848D01*
X104762688Y-116756020D01*
X104762689Y-116756019D01*
X104816098Y-116733896D01*
X104853864Y-116718253D01*
X104902260Y-116708626D01*
X104950655Y-116699000D01*
X105049345Y-116699000D01*
X105097740Y-116708626D01*
G37*
G36*
X105097740Y-112308627D02*
G01*
X105146136Y-112318253D01*
X105183902Y-112333896D01*
X105237311Y-112356019D01*
X105237312Y-112356020D01*
X105319369Y-112410848D01*
X105389152Y-112480631D01*
X105389153Y-112480633D01*
X105443981Y-112562689D01*
X105481747Y-112653865D01*
X105501000Y-112750655D01*
X105501000Y-112849345D01*
X105481747Y-112946135D01*
X105443981Y-113037311D01*
X105443980Y-113037312D01*
X105389152Y-113119369D01*
X105319369Y-113189152D01*
X105278062Y-113216752D01*
X105237311Y-113243981D01*
X105183902Y-113266104D01*
X105146136Y-113281747D01*
X105097740Y-113291373D01*
X105049345Y-113301000D01*
X104950655Y-113301000D01*
X104902260Y-113291373D01*
X104853864Y-113281747D01*
X104816098Y-113266104D01*
X104762689Y-113243981D01*
X104721938Y-113216752D01*
X104680631Y-113189152D01*
X104610848Y-113119369D01*
X104556020Y-113037312D01*
X104556019Y-113037311D01*
X104518253Y-112946135D01*
X104499000Y-112849345D01*
X104499000Y-112750655D01*
X104518253Y-112653865D01*
X104556019Y-112562689D01*
X104610847Y-112480633D01*
X104610848Y-112480631D01*
X104680631Y-112410848D01*
X104762688Y-112356020D01*
X104762689Y-112356019D01*
X104816098Y-112333896D01*
X104853864Y-112318253D01*
X104902260Y-112308627D01*
X104950655Y-112299000D01*
X105049345Y-112299000D01*
X105097740Y-112308627D01*
G37*
G36*
X165634239Y-101811467D02*
G01*
X165948282Y-101873934D01*
X166539926Y-102119001D01*
X167072392Y-102474784D01*
X167525216Y-102927608D01*
X167880999Y-103460074D01*
X168126066Y-104051718D01*
X168251000Y-104679804D01*
X168251000Y-105320196D01*
X168126066Y-105948282D01*
X167880999Y-106539926D01*
X167525216Y-107072392D01*
X167072392Y-107525216D01*
X166539926Y-107880999D01*
X165948282Y-108126066D01*
X165634239Y-108188533D01*
X165320197Y-108251000D01*
X164679803Y-108251000D01*
X164365761Y-108188533D01*
X164051718Y-108126066D01*
X163460074Y-107880999D01*
X162927608Y-107525216D01*
X162474784Y-107072392D01*
X162119001Y-106539926D01*
X161873934Y-105948282D01*
X161749000Y-105320196D01*
X161749000Y-104679804D01*
X161873934Y-104051718D01*
X162119001Y-103460074D01*
X162474784Y-102927608D01*
X162927608Y-102474784D01*
X163460074Y-102119001D01*
X164051718Y-101873934D01*
X164365761Y-101811467D01*
X164679803Y-101749000D01*
X165320197Y-101749000D01*
X165634239Y-101811467D01*
G37*
G36*
X105634239Y-101811467D02*
G01*
X105948282Y-101873934D01*
X106539926Y-102119001D01*
X107072392Y-102474784D01*
X107525216Y-102927608D01*
X107880999Y-103460074D01*
X108126066Y-104051718D01*
X108251000Y-104679804D01*
X108251000Y-105320196D01*
X108126066Y-105948282D01*
X107880999Y-106539926D01*
X107525216Y-107072392D01*
X107072392Y-107525216D01*
X106539926Y-107880999D01*
X105948282Y-108126066D01*
X105634239Y-108188533D01*
X105320197Y-108251000D01*
X104679803Y-108251000D01*
X104365761Y-108188533D01*
X104051718Y-108126066D01*
X103460074Y-107880999D01*
X102927608Y-107525216D01*
X102474784Y-107072392D01*
X102119001Y-106539926D01*
X101873934Y-105948282D01*
X101749000Y-105320196D01*
X101749000Y-104679804D01*
X101873934Y-104051718D01*
X102119001Y-103460074D01*
X102474784Y-102927608D01*
X102927608Y-102474784D01*
X103460074Y-102119001D01*
X104051718Y-101873934D01*
X104365761Y-101811467D01*
X104679803Y-101749000D01*
X105320197Y-101749000D01*
X105634239Y-101811467D01*
G37*
G36*
X123901000Y-105901000D02*
G01*
X122099000Y-105901000D01*
X122099000Y-104099000D01*
X123901000Y-104099000D01*
X123901000Y-105901000D01*
G37*
G36*
X156133512Y-104103927D02*
G01*
X156282812Y-104133624D01*
X156446784Y-104201544D01*
X156594354Y-104300147D01*
X156719853Y-104425646D01*
X156818456Y-104573216D01*
X156886376Y-104737188D01*
X156921000Y-104911259D01*
X156921000Y-105088741D01*
X156886376Y-105262812D01*
X156818456Y-105426784D01*
X156719853Y-105574354D01*
X156594354Y-105699853D01*
X156446784Y-105798456D01*
X156282812Y-105866376D01*
X156133512Y-105896073D01*
X156108742Y-105901000D01*
X155931258Y-105901000D01*
X155906488Y-105896073D01*
X155757188Y-105866376D01*
X155593216Y-105798456D01*
X155445646Y-105699853D01*
X155320147Y-105574354D01*
X155221544Y-105426784D01*
X155153624Y-105262812D01*
X155119000Y-105088741D01*
X155119000Y-104911259D01*
X155153624Y-104737188D01*
X155221544Y-104573216D01*
X155320147Y-104425646D01*
X155445646Y-104300147D01*
X155593216Y-104201544D01*
X155757188Y-104133624D01*
X155906488Y-104103927D01*
X155931258Y-104099000D01*
X156108742Y-104099000D01*
X156133512Y-104103927D01*
G37*
G36*
X151053512Y-104103927D02*
G01*
X151202812Y-104133624D01*
X151366784Y-104201544D01*
X151514354Y-104300147D01*
X151639853Y-104425646D01*
X151738456Y-104573216D01*
X151806376Y-104737188D01*
X151841000Y-104911259D01*
X151841000Y-105088741D01*
X151806376Y-105262812D01*
X151738456Y-105426784D01*
X151639853Y-105574354D01*
X151514354Y-105699853D01*
X151366784Y-105798456D01*
X151202812Y-105866376D01*
X151053512Y-105896073D01*
X151028742Y-105901000D01*
X150851258Y-105901000D01*
X150826488Y-105896073D01*
X150677188Y-105866376D01*
X150513216Y-105798456D01*
X150365646Y-105699853D01*
X150240147Y-105574354D01*
X150141544Y-105426784D01*
X150073624Y-105262812D01*
X150039000Y-105088741D01*
X150039000Y-104911259D01*
X150073624Y-104737188D01*
X150141544Y-104573216D01*
X150240147Y-104425646D01*
X150365646Y-104300147D01*
X150513216Y-104201544D01*
X150677188Y-104133624D01*
X150826488Y-104103927D01*
X150851258Y-104099000D01*
X151028742Y-104099000D01*
X151053512Y-104103927D01*
G37*
G36*
X148513512Y-104103927D02*
G01*
X148662812Y-104133624D01*
X148826784Y-104201544D01*
X148974354Y-104300147D01*
X149099853Y-104425646D01*
X149198456Y-104573216D01*
X149266376Y-104737188D01*
X149301000Y-104911259D01*
X149301000Y-105088741D01*
X149266376Y-105262812D01*
X149198456Y-105426784D01*
X149099853Y-105574354D01*
X148974354Y-105699853D01*
X148826784Y-105798456D01*
X148662812Y-105866376D01*
X148513512Y-105896073D01*
X148488742Y-105901000D01*
X148311258Y-105901000D01*
X148286488Y-105896073D01*
X148137188Y-105866376D01*
X147973216Y-105798456D01*
X147825646Y-105699853D01*
X147700147Y-105574354D01*
X147601544Y-105426784D01*
X147533624Y-105262812D01*
X147499000Y-105088741D01*
X147499000Y-104911259D01*
X147533624Y-104737188D01*
X147601544Y-104573216D01*
X147700147Y-104425646D01*
X147825646Y-104300147D01*
X147973216Y-104201544D01*
X148137188Y-104133624D01*
X148286488Y-104103927D01*
X148311258Y-104099000D01*
X148488742Y-104099000D01*
X148513512Y-104103927D01*
G37*
G36*
X145973512Y-104103927D02*
G01*
X146122812Y-104133624D01*
X146286784Y-104201544D01*
X146434354Y-104300147D01*
X146559853Y-104425646D01*
X146658456Y-104573216D01*
X146726376Y-104737188D01*
X146761000Y-104911259D01*
X146761000Y-105088741D01*
X146726376Y-105262812D01*
X146658456Y-105426784D01*
X146559853Y-105574354D01*
X146434354Y-105699853D01*
X146286784Y-105798456D01*
X146122812Y-105866376D01*
X145973512Y-105896073D01*
X145948742Y-105901000D01*
X145771258Y-105901000D01*
X145746488Y-105896073D01*
X145597188Y-105866376D01*
X145433216Y-105798456D01*
X145285646Y-105699853D01*
X145160147Y-105574354D01*
X145061544Y-105426784D01*
X144993624Y-105262812D01*
X144959000Y-105088741D01*
X144959000Y-104911259D01*
X144993624Y-104737188D01*
X145061544Y-104573216D01*
X145160147Y-104425646D01*
X145285646Y-104300147D01*
X145433216Y-104201544D01*
X145597188Y-104133624D01*
X145746488Y-104103927D01*
X145771258Y-104099000D01*
X145948742Y-104099000D01*
X145973512Y-104103927D01*
G37*
G36*
X143433512Y-104103927D02*
G01*
X143582812Y-104133624D01*
X143746784Y-104201544D01*
X143894354Y-104300147D01*
X144019853Y-104425646D01*
X144118456Y-104573216D01*
X144186376Y-104737188D01*
X144221000Y-104911259D01*
X144221000Y-105088741D01*
X144186376Y-105262812D01*
X144118456Y-105426784D01*
X144019853Y-105574354D01*
X143894354Y-105699853D01*
X143746784Y-105798456D01*
X143582812Y-105866376D01*
X143433512Y-105896073D01*
X143408742Y-105901000D01*
X143231258Y-105901000D01*
X143206488Y-105896073D01*
X143057188Y-105866376D01*
X142893216Y-105798456D01*
X142745646Y-105699853D01*
X142620147Y-105574354D01*
X142521544Y-105426784D01*
X142453624Y-105262812D01*
X142419000Y-105088741D01*
X142419000Y-104911259D01*
X142453624Y-104737188D01*
X142521544Y-104573216D01*
X142620147Y-104425646D01*
X142745646Y-104300147D01*
X142893216Y-104201544D01*
X143057188Y-104133624D01*
X143206488Y-104103927D01*
X143231258Y-104099000D01*
X143408742Y-104099000D01*
X143433512Y-104103927D01*
G37*
G36*
X140893512Y-104103927D02*
G01*
X141042812Y-104133624D01*
X141206784Y-104201544D01*
X141354354Y-104300147D01*
X141479853Y-104425646D01*
X141578456Y-104573216D01*
X141646376Y-104737188D01*
X141681000Y-104911259D01*
X141681000Y-105088741D01*
X141646376Y-105262812D01*
X141578456Y-105426784D01*
X141479853Y-105574354D01*
X141354354Y-105699853D01*
X141206784Y-105798456D01*
X141042812Y-105866376D01*
X140893512Y-105896073D01*
X140868742Y-105901000D01*
X140691258Y-105901000D01*
X140666488Y-105896073D01*
X140517188Y-105866376D01*
X140353216Y-105798456D01*
X140205646Y-105699853D01*
X140080147Y-105574354D01*
X139981544Y-105426784D01*
X139913624Y-105262812D01*
X139879000Y-105088741D01*
X139879000Y-104911259D01*
X139913624Y-104737188D01*
X139981544Y-104573216D01*
X140080147Y-104425646D01*
X140205646Y-104300147D01*
X140353216Y-104201544D01*
X140517188Y-104133624D01*
X140666488Y-104103927D01*
X140691258Y-104099000D01*
X140868742Y-104099000D01*
X140893512Y-104103927D01*
G37*
G36*
X138353512Y-104103927D02*
G01*
X138502812Y-104133624D01*
X138666784Y-104201544D01*
X138814354Y-104300147D01*
X138939853Y-104425646D01*
X139038456Y-104573216D01*
X139106376Y-104737188D01*
X139141000Y-104911259D01*
X139141000Y-105088741D01*
X139106376Y-105262812D01*
X139038456Y-105426784D01*
X138939853Y-105574354D01*
X138814354Y-105699853D01*
X138666784Y-105798456D01*
X138502812Y-105866376D01*
X138353512Y-105896073D01*
X138328742Y-105901000D01*
X138151258Y-105901000D01*
X138126488Y-105896073D01*
X137977188Y-105866376D01*
X137813216Y-105798456D01*
X137665646Y-105699853D01*
X137540147Y-105574354D01*
X137441544Y-105426784D01*
X137373624Y-105262812D01*
X137339000Y-105088741D01*
X137339000Y-104911259D01*
X137373624Y-104737188D01*
X137441544Y-104573216D01*
X137540147Y-104425646D01*
X137665646Y-104300147D01*
X137813216Y-104201544D01*
X137977188Y-104133624D01*
X138126488Y-104103927D01*
X138151258Y-104099000D01*
X138328742Y-104099000D01*
X138353512Y-104103927D01*
G37*
G36*
X135813512Y-104103927D02*
G01*
X135962812Y-104133624D01*
X136126784Y-104201544D01*
X136274354Y-104300147D01*
X136399853Y-104425646D01*
X136498456Y-104573216D01*
X136566376Y-104737188D01*
X136601000Y-104911259D01*
X136601000Y-105088741D01*
X136566376Y-105262812D01*
X136498456Y-105426784D01*
X136399853Y-105574354D01*
X136274354Y-105699853D01*
X136126784Y-105798456D01*
X135962812Y-105866376D01*
X135813512Y-105896073D01*
X135788742Y-105901000D01*
X135611258Y-105901000D01*
X135586488Y-105896073D01*
X135437188Y-105866376D01*
X135273216Y-105798456D01*
X135125646Y-105699853D01*
X135000147Y-105574354D01*
X134901544Y-105426784D01*
X134833624Y-105262812D01*
X134799000Y-105088741D01*
X134799000Y-104911259D01*
X134833624Y-104737188D01*
X134901544Y-104573216D01*
X135000147Y-104425646D01*
X135125646Y-104300147D01*
X135273216Y-104201544D01*
X135437188Y-104133624D01*
X135586488Y-104103927D01*
X135611258Y-104099000D01*
X135788742Y-104099000D01*
X135813512Y-104103927D01*
G37*
G36*
X133273512Y-104103927D02*
G01*
X133422812Y-104133624D01*
X133586784Y-104201544D01*
X133734354Y-104300147D01*
X133859853Y-104425646D01*
X133958456Y-104573216D01*
X134026376Y-104737188D01*
X134061000Y-104911259D01*
X134061000Y-105088741D01*
X134026376Y-105262812D01*
X133958456Y-105426784D01*
X133859853Y-105574354D01*
X133734354Y-105699853D01*
X133586784Y-105798456D01*
X133422812Y-105866376D01*
X133273512Y-105896073D01*
X133248742Y-105901000D01*
X133071258Y-105901000D01*
X133046488Y-105896073D01*
X132897188Y-105866376D01*
X132733216Y-105798456D01*
X132585646Y-105699853D01*
X132460147Y-105574354D01*
X132361544Y-105426784D01*
X132293624Y-105262812D01*
X132259000Y-105088741D01*
X132259000Y-104911259D01*
X132293624Y-104737188D01*
X132361544Y-104573216D01*
X132460147Y-104425646D01*
X132585646Y-104300147D01*
X132733216Y-104201544D01*
X132897188Y-104133624D01*
X133046488Y-104103927D01*
X133071258Y-104099000D01*
X133248742Y-104099000D01*
X133273512Y-104103927D01*
G37*
G36*
X130733512Y-104103927D02*
G01*
X130882812Y-104133624D01*
X131046784Y-104201544D01*
X131194354Y-104300147D01*
X131319853Y-104425646D01*
X131418456Y-104573216D01*
X131486376Y-104737188D01*
X131521000Y-104911259D01*
X131521000Y-105088741D01*
X131486376Y-105262812D01*
X131418456Y-105426784D01*
X131319853Y-105574354D01*
X131194354Y-105699853D01*
X131046784Y-105798456D01*
X130882812Y-105866376D01*
X130733512Y-105896073D01*
X130708742Y-105901000D01*
X130531258Y-105901000D01*
X130506488Y-105896073D01*
X130357188Y-105866376D01*
X130193216Y-105798456D01*
X130045646Y-105699853D01*
X129920147Y-105574354D01*
X129821544Y-105426784D01*
X129753624Y-105262812D01*
X129719000Y-105088741D01*
X129719000Y-104911259D01*
X129753624Y-104737188D01*
X129821544Y-104573216D01*
X129920147Y-104425646D01*
X130045646Y-104300147D01*
X130193216Y-104201544D01*
X130357188Y-104133624D01*
X130506488Y-104103927D01*
X130531258Y-104099000D01*
X130708742Y-104099000D01*
X130733512Y-104103927D01*
G37*
G36*
X128193512Y-104103927D02*
G01*
X128342812Y-104133624D01*
X128506784Y-104201544D01*
X128654354Y-104300147D01*
X128779853Y-104425646D01*
X128878456Y-104573216D01*
X128946376Y-104737188D01*
X128981000Y-104911259D01*
X128981000Y-105088741D01*
X128946376Y-105262812D01*
X128878456Y-105426784D01*
X128779853Y-105574354D01*
X128654354Y-105699853D01*
X128506784Y-105798456D01*
X128342812Y-105866376D01*
X128193512Y-105896073D01*
X128168742Y-105901000D01*
X127991258Y-105901000D01*
X127966488Y-105896073D01*
X127817188Y-105866376D01*
X127653216Y-105798456D01*
X127505646Y-105699853D01*
X127380147Y-105574354D01*
X127281544Y-105426784D01*
X127213624Y-105262812D01*
X127179000Y-105088741D01*
X127179000Y-104911259D01*
X127213624Y-104737188D01*
X127281544Y-104573216D01*
X127380147Y-104425646D01*
X127505646Y-104300147D01*
X127653216Y-104201544D01*
X127817188Y-104133624D01*
X127966488Y-104103927D01*
X127991258Y-104099000D01*
X128168742Y-104099000D01*
X128193512Y-104103927D01*
G37*
G36*
X125653512Y-104103927D02*
G01*
X125802812Y-104133624D01*
X125966784Y-104201544D01*
X126114354Y-104300147D01*
X126239853Y-104425646D01*
X126338456Y-104573216D01*
X126406376Y-104737188D01*
X126441000Y-104911259D01*
X126441000Y-105088741D01*
X126406376Y-105262812D01*
X126338456Y-105426784D01*
X126239853Y-105574354D01*
X126114354Y-105699853D01*
X125966784Y-105798456D01*
X125802812Y-105866376D01*
X125653512Y-105896073D01*
X125628742Y-105901000D01*
X125451258Y-105901000D01*
X125426488Y-105896073D01*
X125277188Y-105866376D01*
X125113216Y-105798456D01*
X124965646Y-105699853D01*
X124840147Y-105574354D01*
X124741544Y-105426784D01*
X124673624Y-105262812D01*
X124639000Y-105088741D01*
X124639000Y-104911259D01*
X124673624Y-104737188D01*
X124741544Y-104573216D01*
X124840147Y-104425646D01*
X124965646Y-104300147D01*
X125113216Y-104201544D01*
X125277188Y-104133624D01*
X125426488Y-104103927D01*
X125451258Y-104099000D01*
X125628742Y-104099000D01*
X125653512Y-104103927D01*
G37*
G36*
X153593512Y-104103927D02*
G01*
X153742812Y-104133624D01*
X153906784Y-104201544D01*
X154054354Y-104300147D01*
X154179853Y-104425646D01*
X154278456Y-104573216D01*
X154346376Y-104737188D01*
X154381000Y-104911259D01*
X154381000Y-105088741D01*
X154346376Y-105262812D01*
X154278456Y-105426784D01*
X154179853Y-105574354D01*
X154054354Y-105699853D01*
X153906784Y-105798456D01*
X153742812Y-105866376D01*
X153593512Y-105896073D01*
X153568742Y-105901000D01*
X153391258Y-105901000D01*
X153366488Y-105896073D01*
X153217188Y-105866376D01*
X153053216Y-105798456D01*
X152905646Y-105699853D01*
X152780147Y-105574354D01*
X152681544Y-105426784D01*
X152613624Y-105262812D01*
X152579000Y-105088741D01*
X152579000Y-104911259D01*
X152613624Y-104737188D01*
X152681544Y-104573216D01*
X152780147Y-104425646D01*
X152905646Y-104300147D01*
X153053216Y-104201544D01*
X153217188Y-104133624D01*
X153366488Y-104103927D01*
X153391258Y-104099000D01*
X153568742Y-104099000D01*
X153593512Y-104103927D01*
G37*
G36*
X116253512Y-102703927D02*
G01*
X116402812Y-102733624D01*
X116566784Y-102801544D01*
X116714354Y-102900147D01*
X116839853Y-103025646D01*
X116938456Y-103173216D01*
X117006376Y-103337188D01*
X117041000Y-103511259D01*
X117041000Y-103688741D01*
X117006376Y-103862812D01*
X116938456Y-104026784D01*
X116839853Y-104174354D01*
X116714354Y-104299853D01*
X116566784Y-104398456D01*
X116402812Y-104466376D01*
X116253512Y-104496073D01*
X116228742Y-104501000D01*
X116051258Y-104501000D01*
X116026488Y-104496073D01*
X115877188Y-104466376D01*
X115713216Y-104398456D01*
X115565646Y-104299853D01*
X115440147Y-104174354D01*
X115341544Y-104026784D01*
X115273624Y-103862812D01*
X115239000Y-103688741D01*
X115239000Y-103511259D01*
X115273624Y-103337188D01*
X115341544Y-103173216D01*
X115440147Y-103025646D01*
X115565646Y-102900147D01*
X115713216Y-102801544D01*
X115877188Y-102733624D01*
X116026488Y-102703927D01*
X116051258Y-102699000D01*
X116228742Y-102699000D01*
X116253512Y-102703927D01*
G37*
G36*
X114501000Y-104501000D02*
G01*
X112699000Y-104501000D01*
X112699000Y-102699000D01*
X114501000Y-102699000D01*
X114501000Y-104501000D01*
G37*
M02*
