G04 #@! TF.GenerationSoftware,KiCad,Pcbnew,5.1.5*
G04 #@! TF.CreationDate,2020-01-13T20:43:58-05:00*
G04 #@! TF.ProjectId,stm32f0_usb,73746d33-3266-4305-9f75-73622e6b6963,0*
G04 #@! TF.SameCoordinates,Original*
G04 #@! TF.FileFunction,Legend,Top*
G04 #@! TF.FilePolarity,Positive*
%FSLAX46Y46*%
G04 Gerber Fmt 4.6, Leading zero omitted, Abs format (unit mm)*
G04 Created by KiCad (PCBNEW 5.1.5) date 2020-01-13 20:43:58*
%MOMM*%
%LPD*%
G04 APERTURE LIST*
%ADD10C,0.120000*%
%ADD11C,0.010000*%
%ADD12C,0.150000*%
%ADD13C,0.100000*%
G04 APERTURE END LIST*
D10*
X151760000Y-127662779D02*
X151760000Y-127337221D01*
X150740000Y-127662779D02*
X150740000Y-127337221D01*
X151760000Y-124662779D02*
X151760000Y-124337221D01*
X150740000Y-124662779D02*
X150740000Y-124337221D01*
D11*
G36*
X114755814Y-120068931D02*
G01*
X114839635Y-120513555D01*
X115148920Y-120641053D01*
X115458206Y-120768551D01*
X115829246Y-120516246D01*
X115933157Y-120445996D01*
X116027087Y-120383272D01*
X116106652Y-120330938D01*
X116167470Y-120291857D01*
X116205157Y-120268893D01*
X116215421Y-120263942D01*
X116233910Y-120276676D01*
X116273420Y-120311882D01*
X116329522Y-120365062D01*
X116397787Y-120431718D01*
X116473786Y-120507354D01*
X116553092Y-120587472D01*
X116631275Y-120667574D01*
X116703907Y-120743164D01*
X116766559Y-120809745D01*
X116814803Y-120862818D01*
X116844210Y-120897887D01*
X116851241Y-120909623D01*
X116841123Y-120931260D01*
X116812759Y-120978662D01*
X116769129Y-121047193D01*
X116713218Y-121132215D01*
X116648006Y-121229093D01*
X116610219Y-121284350D01*
X116541343Y-121385248D01*
X116480140Y-121476299D01*
X116429578Y-121552970D01*
X116392628Y-121610728D01*
X116372258Y-121645043D01*
X116369197Y-121652254D01*
X116376136Y-121672748D01*
X116395051Y-121720513D01*
X116423087Y-121788832D01*
X116457391Y-121870989D01*
X116495109Y-121960270D01*
X116533387Y-122049958D01*
X116569370Y-122133338D01*
X116600206Y-122203694D01*
X116623039Y-122254310D01*
X116635017Y-122278471D01*
X116635724Y-122279422D01*
X116654531Y-122284036D01*
X116704618Y-122294328D01*
X116780793Y-122309287D01*
X116877865Y-122327901D01*
X116990643Y-122349159D01*
X117056442Y-122361418D01*
X117176950Y-122384362D01*
X117285797Y-122406195D01*
X117377476Y-122425722D01*
X117446481Y-122441748D01*
X117487304Y-122453079D01*
X117495511Y-122456674D01*
X117503548Y-122481006D01*
X117510033Y-122535959D01*
X117514970Y-122615108D01*
X117518364Y-122712026D01*
X117520218Y-122820287D01*
X117520538Y-122933465D01*
X117519327Y-123045135D01*
X117516590Y-123148868D01*
X117512331Y-123238241D01*
X117506555Y-123306826D01*
X117499267Y-123348197D01*
X117494895Y-123356810D01*
X117468764Y-123367133D01*
X117413393Y-123381892D01*
X117336107Y-123399352D01*
X117244230Y-123417780D01*
X117212158Y-123423741D01*
X117057524Y-123452066D01*
X116935375Y-123474876D01*
X116841673Y-123493080D01*
X116772384Y-123507583D01*
X116723471Y-123519292D01*
X116690897Y-123529115D01*
X116670628Y-123537956D01*
X116658626Y-123546724D01*
X116656947Y-123548457D01*
X116640184Y-123576371D01*
X116614614Y-123630695D01*
X116582788Y-123704777D01*
X116547260Y-123791965D01*
X116510583Y-123885608D01*
X116475311Y-123979052D01*
X116443996Y-124065647D01*
X116419193Y-124138740D01*
X116403454Y-124191678D01*
X116399332Y-124217811D01*
X116399676Y-124218726D01*
X116413641Y-124240086D01*
X116445322Y-124287084D01*
X116491391Y-124354827D01*
X116548518Y-124438423D01*
X116613373Y-124532982D01*
X116631843Y-124559854D01*
X116697699Y-124657275D01*
X116755650Y-124746163D01*
X116802538Y-124821412D01*
X116835207Y-124877920D01*
X116850500Y-124910581D01*
X116851241Y-124914593D01*
X116838392Y-124935684D01*
X116802888Y-124977464D01*
X116749293Y-125035445D01*
X116682171Y-125105135D01*
X116606087Y-125182045D01*
X116525604Y-125261683D01*
X116445287Y-125339561D01*
X116369699Y-125411186D01*
X116303405Y-125472070D01*
X116250969Y-125517721D01*
X116216955Y-125543650D01*
X116207545Y-125547883D01*
X116185643Y-125537912D01*
X116140800Y-125511020D01*
X116080321Y-125471736D01*
X116033789Y-125440117D01*
X115949475Y-125382098D01*
X115849626Y-125313784D01*
X115749473Y-125245579D01*
X115695627Y-125209075D01*
X115513371Y-125085800D01*
X115360381Y-125168520D01*
X115290682Y-125204759D01*
X115231414Y-125232926D01*
X115191311Y-125248991D01*
X115181103Y-125251226D01*
X115168829Y-125234722D01*
X115144613Y-125188082D01*
X115110263Y-125115609D01*
X115067588Y-125021606D01*
X115018394Y-124910374D01*
X114964490Y-124786215D01*
X114907684Y-124653432D01*
X114849782Y-124516327D01*
X114792593Y-124379202D01*
X114737924Y-124246358D01*
X114687584Y-124122098D01*
X114643380Y-124010725D01*
X114607119Y-123916539D01*
X114580609Y-123843844D01*
X114565658Y-123796941D01*
X114563254Y-123780833D01*
X114582311Y-123760286D01*
X114624036Y-123726933D01*
X114679706Y-123687702D01*
X114684378Y-123684599D01*
X114828264Y-123569423D01*
X114944283Y-123435053D01*
X115031430Y-123285784D01*
X115088699Y-123125913D01*
X115115086Y-122959737D01*
X115109585Y-122791552D01*
X115071190Y-122625655D01*
X114998895Y-122466342D01*
X114977626Y-122431487D01*
X114866996Y-122290737D01*
X114736302Y-122177714D01*
X114590064Y-122093003D01*
X114432808Y-122037194D01*
X114269057Y-122010874D01*
X114103333Y-122014630D01*
X113940162Y-122049050D01*
X113784065Y-122114723D01*
X113639567Y-122212235D01*
X113594869Y-122251813D01*
X113481112Y-122375703D01*
X113398218Y-122506124D01*
X113341356Y-122652315D01*
X113309687Y-122797088D01*
X113301869Y-122959860D01*
X113327938Y-123123440D01*
X113385245Y-123282298D01*
X113471144Y-123430906D01*
X113582986Y-123563735D01*
X113718123Y-123675256D01*
X113735883Y-123687011D01*
X113792150Y-123725508D01*
X113834923Y-123758863D01*
X113855372Y-123780160D01*
X113855669Y-123780833D01*
X113851279Y-123803871D01*
X113833876Y-123856157D01*
X113805268Y-123933390D01*
X113767265Y-124031268D01*
X113721674Y-124145491D01*
X113670303Y-124271758D01*
X113614962Y-124405767D01*
X113557458Y-124543218D01*
X113499601Y-124679808D01*
X113443198Y-124811237D01*
X113390058Y-124933205D01*
X113341990Y-125041409D01*
X113300801Y-125131549D01*
X113268301Y-125199323D01*
X113246297Y-125240430D01*
X113237436Y-125251226D01*
X113210360Y-125242819D01*
X113159697Y-125220272D01*
X113094183Y-125187613D01*
X113058159Y-125168520D01*
X112905168Y-125085800D01*
X112722912Y-125209075D01*
X112629875Y-125272228D01*
X112528015Y-125341727D01*
X112432562Y-125407165D01*
X112384750Y-125440117D01*
X112317505Y-125485273D01*
X112260564Y-125521057D01*
X112221354Y-125542938D01*
X112208619Y-125547563D01*
X112190083Y-125535085D01*
X112149059Y-125500252D01*
X112089525Y-125446678D01*
X112015458Y-125377983D01*
X111930835Y-125297781D01*
X111877315Y-125246286D01*
X111783681Y-125154286D01*
X111702759Y-125071999D01*
X111637823Y-125002945D01*
X111592142Y-124950644D01*
X111568989Y-124918616D01*
X111566768Y-124912116D01*
X111577076Y-124887394D01*
X111605561Y-124837405D01*
X111649063Y-124767212D01*
X111704423Y-124681875D01*
X111768480Y-124586456D01*
X111786697Y-124559854D01*
X111853073Y-124463167D01*
X111912622Y-124376117D01*
X111962016Y-124303595D01*
X111997925Y-124250493D01*
X112017019Y-124221703D01*
X112018864Y-124218726D01*
X112016105Y-124195782D01*
X112001462Y-124145336D01*
X111977487Y-124074041D01*
X111946734Y-123988547D01*
X111911756Y-123895507D01*
X111875107Y-123801574D01*
X111839339Y-123713399D01*
X111807006Y-123637634D01*
X111780662Y-123580931D01*
X111762858Y-123549943D01*
X111761593Y-123548457D01*
X111750706Y-123539601D01*
X111732318Y-123530843D01*
X111702394Y-123521277D01*
X111656897Y-123509996D01*
X111591791Y-123496093D01*
X111503039Y-123478663D01*
X111386607Y-123456798D01*
X111238458Y-123429591D01*
X111206382Y-123423741D01*
X111111314Y-123405374D01*
X111028435Y-123387405D01*
X110965070Y-123371569D01*
X110928542Y-123359600D01*
X110923644Y-123356810D01*
X110915573Y-123332072D01*
X110909013Y-123276790D01*
X110903967Y-123197389D01*
X110900441Y-123100296D01*
X110898439Y-122991938D01*
X110897964Y-122878740D01*
X110899023Y-122767128D01*
X110901618Y-122663529D01*
X110905754Y-122574368D01*
X110911437Y-122506072D01*
X110918669Y-122465066D01*
X110923029Y-122456674D01*
X110947302Y-122448208D01*
X111002574Y-122434435D01*
X111083338Y-122416550D01*
X111184088Y-122395748D01*
X111299317Y-122373223D01*
X111362098Y-122361418D01*
X111481213Y-122339151D01*
X111587435Y-122318979D01*
X111675573Y-122301915D01*
X111740434Y-122288969D01*
X111776826Y-122281155D01*
X111782816Y-122279422D01*
X111792939Y-122259890D01*
X111814338Y-122212843D01*
X111844161Y-122145003D01*
X111879555Y-122063091D01*
X111917668Y-121973828D01*
X111955647Y-121883935D01*
X111990640Y-121800135D01*
X112019794Y-121729147D01*
X112040257Y-121677694D01*
X112049177Y-121652497D01*
X112049343Y-121651396D01*
X112039231Y-121631519D01*
X112010883Y-121585777D01*
X111967277Y-121518717D01*
X111911394Y-121434884D01*
X111846213Y-121338826D01*
X111808321Y-121283650D01*
X111739275Y-121182481D01*
X111677950Y-121090630D01*
X111627337Y-121012744D01*
X111590429Y-120953469D01*
X111570218Y-120917451D01*
X111567299Y-120909377D01*
X111579847Y-120890584D01*
X111614537Y-120850457D01*
X111666937Y-120793493D01*
X111732616Y-120724185D01*
X111807144Y-120647031D01*
X111886087Y-120566525D01*
X111965017Y-120487163D01*
X112039500Y-120413440D01*
X112105106Y-120349852D01*
X112157404Y-120300894D01*
X112191961Y-120271061D01*
X112203522Y-120263942D01*
X112222346Y-120273953D01*
X112267369Y-120302078D01*
X112334213Y-120345454D01*
X112418501Y-120401218D01*
X112515856Y-120466506D01*
X112589293Y-120516246D01*
X112960333Y-120768551D01*
X113578905Y-120513555D01*
X113662725Y-120068931D01*
X113746546Y-119624307D01*
X114671994Y-119624307D01*
X114755814Y-120068931D01*
G37*
X114755814Y-120068931D02*
X114839635Y-120513555D01*
X115148920Y-120641053D01*
X115458206Y-120768551D01*
X115829246Y-120516246D01*
X115933157Y-120445996D01*
X116027087Y-120383272D01*
X116106652Y-120330938D01*
X116167470Y-120291857D01*
X116205157Y-120268893D01*
X116215421Y-120263942D01*
X116233910Y-120276676D01*
X116273420Y-120311882D01*
X116329522Y-120365062D01*
X116397787Y-120431718D01*
X116473786Y-120507354D01*
X116553092Y-120587472D01*
X116631275Y-120667574D01*
X116703907Y-120743164D01*
X116766559Y-120809745D01*
X116814803Y-120862818D01*
X116844210Y-120897887D01*
X116851241Y-120909623D01*
X116841123Y-120931260D01*
X116812759Y-120978662D01*
X116769129Y-121047193D01*
X116713218Y-121132215D01*
X116648006Y-121229093D01*
X116610219Y-121284350D01*
X116541343Y-121385248D01*
X116480140Y-121476299D01*
X116429578Y-121552970D01*
X116392628Y-121610728D01*
X116372258Y-121645043D01*
X116369197Y-121652254D01*
X116376136Y-121672748D01*
X116395051Y-121720513D01*
X116423087Y-121788832D01*
X116457391Y-121870989D01*
X116495109Y-121960270D01*
X116533387Y-122049958D01*
X116569370Y-122133338D01*
X116600206Y-122203694D01*
X116623039Y-122254310D01*
X116635017Y-122278471D01*
X116635724Y-122279422D01*
X116654531Y-122284036D01*
X116704618Y-122294328D01*
X116780793Y-122309287D01*
X116877865Y-122327901D01*
X116990643Y-122349159D01*
X117056442Y-122361418D01*
X117176950Y-122384362D01*
X117285797Y-122406195D01*
X117377476Y-122425722D01*
X117446481Y-122441748D01*
X117487304Y-122453079D01*
X117495511Y-122456674D01*
X117503548Y-122481006D01*
X117510033Y-122535959D01*
X117514970Y-122615108D01*
X117518364Y-122712026D01*
X117520218Y-122820287D01*
X117520538Y-122933465D01*
X117519327Y-123045135D01*
X117516590Y-123148868D01*
X117512331Y-123238241D01*
X117506555Y-123306826D01*
X117499267Y-123348197D01*
X117494895Y-123356810D01*
X117468764Y-123367133D01*
X117413393Y-123381892D01*
X117336107Y-123399352D01*
X117244230Y-123417780D01*
X117212158Y-123423741D01*
X117057524Y-123452066D01*
X116935375Y-123474876D01*
X116841673Y-123493080D01*
X116772384Y-123507583D01*
X116723471Y-123519292D01*
X116690897Y-123529115D01*
X116670628Y-123537956D01*
X116658626Y-123546724D01*
X116656947Y-123548457D01*
X116640184Y-123576371D01*
X116614614Y-123630695D01*
X116582788Y-123704777D01*
X116547260Y-123791965D01*
X116510583Y-123885608D01*
X116475311Y-123979052D01*
X116443996Y-124065647D01*
X116419193Y-124138740D01*
X116403454Y-124191678D01*
X116399332Y-124217811D01*
X116399676Y-124218726D01*
X116413641Y-124240086D01*
X116445322Y-124287084D01*
X116491391Y-124354827D01*
X116548518Y-124438423D01*
X116613373Y-124532982D01*
X116631843Y-124559854D01*
X116697699Y-124657275D01*
X116755650Y-124746163D01*
X116802538Y-124821412D01*
X116835207Y-124877920D01*
X116850500Y-124910581D01*
X116851241Y-124914593D01*
X116838392Y-124935684D01*
X116802888Y-124977464D01*
X116749293Y-125035445D01*
X116682171Y-125105135D01*
X116606087Y-125182045D01*
X116525604Y-125261683D01*
X116445287Y-125339561D01*
X116369699Y-125411186D01*
X116303405Y-125472070D01*
X116250969Y-125517721D01*
X116216955Y-125543650D01*
X116207545Y-125547883D01*
X116185643Y-125537912D01*
X116140800Y-125511020D01*
X116080321Y-125471736D01*
X116033789Y-125440117D01*
X115949475Y-125382098D01*
X115849626Y-125313784D01*
X115749473Y-125245579D01*
X115695627Y-125209075D01*
X115513371Y-125085800D01*
X115360381Y-125168520D01*
X115290682Y-125204759D01*
X115231414Y-125232926D01*
X115191311Y-125248991D01*
X115181103Y-125251226D01*
X115168829Y-125234722D01*
X115144613Y-125188082D01*
X115110263Y-125115609D01*
X115067588Y-125021606D01*
X115018394Y-124910374D01*
X114964490Y-124786215D01*
X114907684Y-124653432D01*
X114849782Y-124516327D01*
X114792593Y-124379202D01*
X114737924Y-124246358D01*
X114687584Y-124122098D01*
X114643380Y-124010725D01*
X114607119Y-123916539D01*
X114580609Y-123843844D01*
X114565658Y-123796941D01*
X114563254Y-123780833D01*
X114582311Y-123760286D01*
X114624036Y-123726933D01*
X114679706Y-123687702D01*
X114684378Y-123684599D01*
X114828264Y-123569423D01*
X114944283Y-123435053D01*
X115031430Y-123285784D01*
X115088699Y-123125913D01*
X115115086Y-122959737D01*
X115109585Y-122791552D01*
X115071190Y-122625655D01*
X114998895Y-122466342D01*
X114977626Y-122431487D01*
X114866996Y-122290737D01*
X114736302Y-122177714D01*
X114590064Y-122093003D01*
X114432808Y-122037194D01*
X114269057Y-122010874D01*
X114103333Y-122014630D01*
X113940162Y-122049050D01*
X113784065Y-122114723D01*
X113639567Y-122212235D01*
X113594869Y-122251813D01*
X113481112Y-122375703D01*
X113398218Y-122506124D01*
X113341356Y-122652315D01*
X113309687Y-122797088D01*
X113301869Y-122959860D01*
X113327938Y-123123440D01*
X113385245Y-123282298D01*
X113471144Y-123430906D01*
X113582986Y-123563735D01*
X113718123Y-123675256D01*
X113735883Y-123687011D01*
X113792150Y-123725508D01*
X113834923Y-123758863D01*
X113855372Y-123780160D01*
X113855669Y-123780833D01*
X113851279Y-123803871D01*
X113833876Y-123856157D01*
X113805268Y-123933390D01*
X113767265Y-124031268D01*
X113721674Y-124145491D01*
X113670303Y-124271758D01*
X113614962Y-124405767D01*
X113557458Y-124543218D01*
X113499601Y-124679808D01*
X113443198Y-124811237D01*
X113390058Y-124933205D01*
X113341990Y-125041409D01*
X113300801Y-125131549D01*
X113268301Y-125199323D01*
X113246297Y-125240430D01*
X113237436Y-125251226D01*
X113210360Y-125242819D01*
X113159697Y-125220272D01*
X113094183Y-125187613D01*
X113058159Y-125168520D01*
X112905168Y-125085800D01*
X112722912Y-125209075D01*
X112629875Y-125272228D01*
X112528015Y-125341727D01*
X112432562Y-125407165D01*
X112384750Y-125440117D01*
X112317505Y-125485273D01*
X112260564Y-125521057D01*
X112221354Y-125542938D01*
X112208619Y-125547563D01*
X112190083Y-125535085D01*
X112149059Y-125500252D01*
X112089525Y-125446678D01*
X112015458Y-125377983D01*
X111930835Y-125297781D01*
X111877315Y-125246286D01*
X111783681Y-125154286D01*
X111702759Y-125071999D01*
X111637823Y-125002945D01*
X111592142Y-124950644D01*
X111568989Y-124918616D01*
X111566768Y-124912116D01*
X111577076Y-124887394D01*
X111605561Y-124837405D01*
X111649063Y-124767212D01*
X111704423Y-124681875D01*
X111768480Y-124586456D01*
X111786697Y-124559854D01*
X111853073Y-124463167D01*
X111912622Y-124376117D01*
X111962016Y-124303595D01*
X111997925Y-124250493D01*
X112017019Y-124221703D01*
X112018864Y-124218726D01*
X112016105Y-124195782D01*
X112001462Y-124145336D01*
X111977487Y-124074041D01*
X111946734Y-123988547D01*
X111911756Y-123895507D01*
X111875107Y-123801574D01*
X111839339Y-123713399D01*
X111807006Y-123637634D01*
X111780662Y-123580931D01*
X111762858Y-123549943D01*
X111761593Y-123548457D01*
X111750706Y-123539601D01*
X111732318Y-123530843D01*
X111702394Y-123521277D01*
X111656897Y-123509996D01*
X111591791Y-123496093D01*
X111503039Y-123478663D01*
X111386607Y-123456798D01*
X111238458Y-123429591D01*
X111206382Y-123423741D01*
X111111314Y-123405374D01*
X111028435Y-123387405D01*
X110965070Y-123371569D01*
X110928542Y-123359600D01*
X110923644Y-123356810D01*
X110915573Y-123332072D01*
X110909013Y-123276790D01*
X110903967Y-123197389D01*
X110900441Y-123100296D01*
X110898439Y-122991938D01*
X110897964Y-122878740D01*
X110899023Y-122767128D01*
X110901618Y-122663529D01*
X110905754Y-122574368D01*
X110911437Y-122506072D01*
X110918669Y-122465066D01*
X110923029Y-122456674D01*
X110947302Y-122448208D01*
X111002574Y-122434435D01*
X111083338Y-122416550D01*
X111184088Y-122395748D01*
X111299317Y-122373223D01*
X111362098Y-122361418D01*
X111481213Y-122339151D01*
X111587435Y-122318979D01*
X111675573Y-122301915D01*
X111740434Y-122288969D01*
X111776826Y-122281155D01*
X111782816Y-122279422D01*
X111792939Y-122259890D01*
X111814338Y-122212843D01*
X111844161Y-122145003D01*
X111879555Y-122063091D01*
X111917668Y-121973828D01*
X111955647Y-121883935D01*
X111990640Y-121800135D01*
X112019794Y-121729147D01*
X112040257Y-121677694D01*
X112049177Y-121652497D01*
X112049343Y-121651396D01*
X112039231Y-121631519D01*
X112010883Y-121585777D01*
X111967277Y-121518717D01*
X111911394Y-121434884D01*
X111846213Y-121338826D01*
X111808321Y-121283650D01*
X111739275Y-121182481D01*
X111677950Y-121090630D01*
X111627337Y-121012744D01*
X111590429Y-120953469D01*
X111570218Y-120917451D01*
X111567299Y-120909377D01*
X111579847Y-120890584D01*
X111614537Y-120850457D01*
X111666937Y-120793493D01*
X111732616Y-120724185D01*
X111807144Y-120647031D01*
X111886087Y-120566525D01*
X111965017Y-120487163D01*
X112039500Y-120413440D01*
X112105106Y-120349852D01*
X112157404Y-120300894D01*
X112191961Y-120271061D01*
X112203522Y-120263942D01*
X112222346Y-120273953D01*
X112267369Y-120302078D01*
X112334213Y-120345454D01*
X112418501Y-120401218D01*
X112515856Y-120466506D01*
X112589293Y-120516246D01*
X112960333Y-120768551D01*
X113578905Y-120513555D01*
X113662725Y-120068931D01*
X113746546Y-119624307D01*
X114671994Y-119624307D01*
X114755814Y-120068931D01*
D10*
X166735000Y-112115000D02*
X164250000Y-112115000D01*
X166735000Y-113485000D02*
X166735000Y-112115000D01*
X164250000Y-113485000D02*
X166735000Y-113485000D01*
X166735000Y-113615000D02*
X164250000Y-113615000D01*
X166735000Y-114985000D02*
X166735000Y-113615000D01*
X164250000Y-114985000D02*
X166735000Y-114985000D01*
X165162779Y-110690000D02*
X164837221Y-110690000D01*
X165162779Y-111710000D02*
X164837221Y-111710000D01*
X165162779Y-115390000D02*
X164837221Y-115390000D01*
X165162779Y-116410000D02*
X164837221Y-116410000D01*
X114785000Y-105715000D02*
X112300000Y-105715000D01*
X114785000Y-107085000D02*
X114785000Y-105715000D01*
X112300000Y-107085000D02*
X114785000Y-107085000D01*
X116149721Y-106910000D02*
X116475279Y-106910000D01*
X116149721Y-105890000D02*
X116475279Y-105890000D01*
X154910000Y-116675279D02*
X154910000Y-116349721D01*
X153890000Y-116675279D02*
X153890000Y-116349721D01*
X152640000Y-119740000D02*
X153100000Y-119740000D01*
X152640000Y-116860000D02*
X152640000Y-119740000D01*
X147160000Y-122000000D02*
X147160000Y-121940000D01*
X152640000Y-122000000D02*
X147160000Y-122000000D01*
X152640000Y-121940000D02*
X152640000Y-122000000D01*
X153100000Y-121940000D02*
X152640000Y-121940000D01*
X147160000Y-119740000D02*
X147160000Y-116860000D01*
X152640000Y-114600000D02*
X152640000Y-114660000D01*
X147160000Y-114600000D02*
X152640000Y-114600000D01*
X147160000Y-114660000D02*
X147160000Y-114600000D01*
X140993179Y-119787868D02*
X141923024Y-118858023D01*
X141205311Y-120000000D02*
X140993179Y-119787868D01*
X140993179Y-120212132D02*
X141205311Y-120000000D01*
X136100000Y-125105311D02*
X135887868Y-124893179D01*
X136312132Y-124893179D02*
X136100000Y-125105311D01*
X136100000Y-114894689D02*
X136312132Y-115106821D01*
X135887868Y-115106821D02*
X136100000Y-114894689D01*
X130994689Y-120000000D02*
X131206821Y-120212132D01*
X131206821Y-119787868D02*
X130994689Y-120000000D01*
X112900000Y-113390000D02*
X110450000Y-113390000D01*
X111100000Y-116610000D02*
X112900000Y-116610000D01*
X115970000Y-111510000D02*
X118400000Y-111510000D01*
X117730000Y-108440000D02*
X115970000Y-108440000D01*
X161150000Y-126200000D02*
X161150000Y-123600000D01*
X167450000Y-121450000D02*
X167450000Y-121700000D01*
X161150000Y-121450000D02*
X167450000Y-121450000D01*
X161150000Y-121700000D02*
X161150000Y-121450000D01*
X167450000Y-123600000D02*
X167450000Y-126200000D01*
X161150000Y-128350000D02*
X161150000Y-128100000D01*
X167450000Y-128350000D02*
X161150000Y-128350000D01*
X167450000Y-128100000D02*
X167450000Y-128350000D01*
X115700000Y-137550000D02*
X113100000Y-137550000D01*
X110950000Y-131250000D02*
X111200000Y-131250000D01*
X110950000Y-137550000D02*
X110950000Y-131250000D01*
X111200000Y-137550000D02*
X110950000Y-137550000D01*
X113100000Y-131250000D02*
X115700000Y-131250000D01*
X117850000Y-137550000D02*
X117600000Y-137550000D01*
X117850000Y-131250000D02*
X117850000Y-137550000D01*
X117600000Y-131250000D02*
X117850000Y-131250000D01*
X160750279Y-119390000D02*
X160424721Y-119390000D01*
X160750279Y-120410000D02*
X160424721Y-120410000D01*
X145837221Y-125760000D02*
X146162779Y-125760000D01*
X145837221Y-124740000D02*
X146162779Y-124740000D01*
D11*
G36*
X125817991Y-129172435D02*
G01*
X125851313Y-129175981D01*
X125882767Y-129182825D01*
X125911164Y-129192969D01*
X125932018Y-129204187D01*
X125951718Y-129219298D01*
X125969864Y-129237481D01*
X125984435Y-129256656D01*
X125986824Y-129260567D01*
X125997888Y-129284066D01*
X126006624Y-129311954D01*
X126012748Y-129342768D01*
X126015979Y-129375043D01*
X126016034Y-129407316D01*
X126015827Y-129410918D01*
X126011095Y-129450800D01*
X126002256Y-129486054D01*
X125989238Y-129516762D01*
X125971971Y-129543002D01*
X125950387Y-129564853D01*
X125924414Y-129582396D01*
X125893982Y-129595709D01*
X125859022Y-129604872D01*
X125842408Y-129607580D01*
X125812757Y-129610086D01*
X125781467Y-129610073D01*
X125752177Y-129607543D01*
X125751941Y-129607510D01*
X125715320Y-129599896D01*
X125683161Y-129587986D01*
X125655424Y-129571740D01*
X125632072Y-129551117D01*
X125613066Y-129526080D01*
X125598365Y-129496589D01*
X125587932Y-129462603D01*
X125583166Y-129436256D01*
X125580502Y-129403204D01*
X125581188Y-129369554D01*
X125585017Y-129336609D01*
X125591781Y-129305669D01*
X125601274Y-129278038D01*
X125611579Y-129257725D01*
X125623775Y-129241176D01*
X125639645Y-129224448D01*
X125657099Y-129209642D01*
X125664881Y-129204187D01*
X125689748Y-129191239D01*
X125718679Y-129181590D01*
X125750487Y-129175239D01*
X125783987Y-129172188D01*
X125817991Y-129172435D01*
G37*
X125817991Y-129172435D02*
X125851313Y-129175981D01*
X125882767Y-129182825D01*
X125911164Y-129192969D01*
X125932018Y-129204187D01*
X125951718Y-129219298D01*
X125969864Y-129237481D01*
X125984435Y-129256656D01*
X125986824Y-129260567D01*
X125997888Y-129284066D01*
X126006624Y-129311954D01*
X126012748Y-129342768D01*
X126015979Y-129375043D01*
X126016034Y-129407316D01*
X126015827Y-129410918D01*
X126011095Y-129450800D01*
X126002256Y-129486054D01*
X125989238Y-129516762D01*
X125971971Y-129543002D01*
X125950387Y-129564853D01*
X125924414Y-129582396D01*
X125893982Y-129595709D01*
X125859022Y-129604872D01*
X125842408Y-129607580D01*
X125812757Y-129610086D01*
X125781467Y-129610073D01*
X125752177Y-129607543D01*
X125751941Y-129607510D01*
X125715320Y-129599896D01*
X125683161Y-129587986D01*
X125655424Y-129571740D01*
X125632072Y-129551117D01*
X125613066Y-129526080D01*
X125598365Y-129496589D01*
X125587932Y-129462603D01*
X125583166Y-129436256D01*
X125580502Y-129403204D01*
X125581188Y-129369554D01*
X125585017Y-129336609D01*
X125591781Y-129305669D01*
X125601274Y-129278038D01*
X125611579Y-129257725D01*
X125623775Y-129241176D01*
X125639645Y-129224448D01*
X125657099Y-129209642D01*
X125664881Y-129204187D01*
X125689748Y-129191239D01*
X125718679Y-129181590D01*
X125750487Y-129175239D01*
X125783987Y-129172188D01*
X125817991Y-129172435D01*
G36*
X126163207Y-129707845D02*
G01*
X126181956Y-129720013D01*
X126198919Y-129736639D01*
X126212335Y-129755979D01*
X126212932Y-129757083D01*
X126220129Y-129770568D01*
X126220958Y-130106207D01*
X126221787Y-130441845D01*
X126041845Y-130441845D01*
X126041845Y-131207690D01*
X125555053Y-131207690D01*
X125555053Y-130441845D01*
X125375111Y-130441845D01*
X125375940Y-130106207D01*
X125376770Y-129770568D01*
X125383848Y-129756349D01*
X125395873Y-129738074D01*
X125412150Y-129721674D01*
X125430729Y-129709049D01*
X125434130Y-129707342D01*
X125451184Y-129699255D01*
X126145715Y-129699255D01*
X126163207Y-129707845D01*
G37*
X126163207Y-129707845D02*
X126181956Y-129720013D01*
X126198919Y-129736639D01*
X126212335Y-129755979D01*
X126212932Y-129757083D01*
X126220129Y-129770568D01*
X126220958Y-130106207D01*
X126221787Y-130441845D01*
X126041845Y-130441845D01*
X126041845Y-131207690D01*
X125555053Y-131207690D01*
X125555053Y-130441845D01*
X125375111Y-130441845D01*
X125375940Y-130106207D01*
X125376770Y-129770568D01*
X125383848Y-129756349D01*
X125395873Y-129738074D01*
X125412150Y-129721674D01*
X125430729Y-129709049D01*
X125434130Y-129707342D01*
X125451184Y-129699255D01*
X126145715Y-129699255D01*
X126163207Y-129707845D01*
G36*
X123000643Y-129703497D02*
G01*
X123029858Y-129705824D01*
X123055298Y-129709324D01*
X123056324Y-129709508D01*
X123109122Y-129721727D01*
X123157746Y-129738476D01*
X123202379Y-129759871D01*
X123243204Y-129786029D01*
X123280401Y-129817064D01*
X123314152Y-129853094D01*
X123343411Y-129892384D01*
X123350770Y-129903828D01*
X123356639Y-129913755D01*
X123360235Y-129920793D01*
X123360978Y-129923082D01*
X123359134Y-129925559D01*
X123353176Y-129929939D01*
X123342853Y-129936366D01*
X123327914Y-129944988D01*
X123308107Y-129955950D01*
X123283181Y-129969397D01*
X123260620Y-129981391D01*
X123159851Y-130034699D01*
X123152013Y-130020456D01*
X123132239Y-129989511D01*
X123109633Y-129963820D01*
X123083540Y-129942833D01*
X123053308Y-129925998D01*
X123028076Y-129915954D01*
X123017786Y-129913068D01*
X123006193Y-129911301D01*
X122991595Y-129910475D01*
X122975366Y-129910379D01*
X122940216Y-129912639D01*
X122909284Y-129918982D01*
X122881917Y-129929651D01*
X122857464Y-129944887D01*
X122838940Y-129961151D01*
X122819328Y-129983871D01*
X122803222Y-130009312D01*
X122790470Y-130037973D01*
X122780917Y-130070352D01*
X122774411Y-130106947D01*
X122770798Y-130148257D01*
X122769888Y-130186047D01*
X122771422Y-130232660D01*
X122776163Y-130274362D01*
X122784262Y-130311640D01*
X122795872Y-130344979D01*
X122811144Y-130374867D01*
X122830230Y-130401789D01*
X122841222Y-130414260D01*
X122864329Y-130434391D01*
X122890853Y-130450004D01*
X122919963Y-130461099D01*
X122950828Y-130467678D01*
X122982618Y-130469739D01*
X123014502Y-130467283D01*
X123045649Y-130460310D01*
X123075228Y-130448820D01*
X123102409Y-130432814D01*
X123124470Y-130414211D01*
X123133405Y-130404355D01*
X123143064Y-130392198D01*
X123152632Y-130378960D01*
X123161295Y-130365860D01*
X123168239Y-130354118D01*
X123172648Y-130344953D01*
X123173803Y-130340366D01*
X123175747Y-130336718D01*
X123176924Y-130336425D01*
X123180143Y-130337750D01*
X123188119Y-130341467D01*
X123200065Y-130347185D01*
X123215196Y-130354518D01*
X123232726Y-130363077D01*
X123251867Y-130372473D01*
X123271835Y-130382317D01*
X123291842Y-130392221D01*
X123311102Y-130401797D01*
X123328829Y-130410657D01*
X123344237Y-130418410D01*
X123356540Y-130424670D01*
X123364951Y-130429048D01*
X123368684Y-130431154D01*
X123368761Y-130431217D01*
X123367948Y-130434389D01*
X123364115Y-130441514D01*
X123357941Y-130451564D01*
X123350103Y-130463512D01*
X123341279Y-130476331D01*
X123332146Y-130488995D01*
X123323383Y-130500478D01*
X123321430Y-130502919D01*
X123285771Y-130542199D01*
X123246093Y-130577072D01*
X123202925Y-130607243D01*
X123156798Y-130632417D01*
X123108241Y-130652298D01*
X123057786Y-130666591D01*
X123014123Y-130674087D01*
X122992404Y-130675933D01*
X122966848Y-130676852D01*
X122939751Y-130676841D01*
X122913407Y-130675899D01*
X122891650Y-130674192D01*
X122837457Y-130665608D01*
X122786453Y-130651731D01*
X122738669Y-130632574D01*
X122694138Y-130608153D01*
X122652892Y-130578483D01*
X122620237Y-130548944D01*
X122587715Y-130512443D01*
X122560072Y-130472797D01*
X122537176Y-130429726D01*
X122518899Y-130382950D01*
X122505111Y-130332189D01*
X122496186Y-130281038D01*
X122494152Y-130260490D01*
X122492776Y-130235491D01*
X122492057Y-130207757D01*
X122491996Y-130179001D01*
X122492593Y-130150939D01*
X122493847Y-130125287D01*
X122495759Y-130103759D01*
X122496194Y-130100299D01*
X122506279Y-130045493D01*
X122521467Y-129993922D01*
X122541670Y-129945747D01*
X122566800Y-129901130D01*
X122596767Y-129860229D01*
X122631485Y-129823207D01*
X122663757Y-129795606D01*
X122700181Y-129769774D01*
X122736846Y-129748747D01*
X122775183Y-129731886D01*
X122816618Y-129718547D01*
X122855481Y-129709472D01*
X122878912Y-129705928D01*
X122906787Y-129703559D01*
X122937464Y-129702365D01*
X122969297Y-129702344D01*
X123000643Y-129703497D01*
G37*
X123000643Y-129703497D02*
X123029858Y-129705824D01*
X123055298Y-129709324D01*
X123056324Y-129709508D01*
X123109122Y-129721727D01*
X123157746Y-129738476D01*
X123202379Y-129759871D01*
X123243204Y-129786029D01*
X123280401Y-129817064D01*
X123314152Y-129853094D01*
X123343411Y-129892384D01*
X123350770Y-129903828D01*
X123356639Y-129913755D01*
X123360235Y-129920793D01*
X123360978Y-129923082D01*
X123359134Y-129925559D01*
X123353176Y-129929939D01*
X123342853Y-129936366D01*
X123327914Y-129944988D01*
X123308107Y-129955950D01*
X123283181Y-129969397D01*
X123260620Y-129981391D01*
X123159851Y-130034699D01*
X123152013Y-130020456D01*
X123132239Y-129989511D01*
X123109633Y-129963820D01*
X123083540Y-129942833D01*
X123053308Y-129925998D01*
X123028076Y-129915954D01*
X123017786Y-129913068D01*
X123006193Y-129911301D01*
X122991595Y-129910475D01*
X122975366Y-129910379D01*
X122940216Y-129912639D01*
X122909284Y-129918982D01*
X122881917Y-129929651D01*
X122857464Y-129944887D01*
X122838940Y-129961151D01*
X122819328Y-129983871D01*
X122803222Y-130009312D01*
X122790470Y-130037973D01*
X122780917Y-130070352D01*
X122774411Y-130106947D01*
X122770798Y-130148257D01*
X122769888Y-130186047D01*
X122771422Y-130232660D01*
X122776163Y-130274362D01*
X122784262Y-130311640D01*
X122795872Y-130344979D01*
X122811144Y-130374867D01*
X122830230Y-130401789D01*
X122841222Y-130414260D01*
X122864329Y-130434391D01*
X122890853Y-130450004D01*
X122919963Y-130461099D01*
X122950828Y-130467678D01*
X122982618Y-130469739D01*
X123014502Y-130467283D01*
X123045649Y-130460310D01*
X123075228Y-130448820D01*
X123102409Y-130432814D01*
X123124470Y-130414211D01*
X123133405Y-130404355D01*
X123143064Y-130392198D01*
X123152632Y-130378960D01*
X123161295Y-130365860D01*
X123168239Y-130354118D01*
X123172648Y-130344953D01*
X123173803Y-130340366D01*
X123175747Y-130336718D01*
X123176924Y-130336425D01*
X123180143Y-130337750D01*
X123188119Y-130341467D01*
X123200065Y-130347185D01*
X123215196Y-130354518D01*
X123232726Y-130363077D01*
X123251867Y-130372473D01*
X123271835Y-130382317D01*
X123291842Y-130392221D01*
X123311102Y-130401797D01*
X123328829Y-130410657D01*
X123344237Y-130418410D01*
X123356540Y-130424670D01*
X123364951Y-130429048D01*
X123368684Y-130431154D01*
X123368761Y-130431217D01*
X123367948Y-130434389D01*
X123364115Y-130441514D01*
X123357941Y-130451564D01*
X123350103Y-130463512D01*
X123341279Y-130476331D01*
X123332146Y-130488995D01*
X123323383Y-130500478D01*
X123321430Y-130502919D01*
X123285771Y-130542199D01*
X123246093Y-130577072D01*
X123202925Y-130607243D01*
X123156798Y-130632417D01*
X123108241Y-130652298D01*
X123057786Y-130666591D01*
X123014123Y-130674087D01*
X122992404Y-130675933D01*
X122966848Y-130676852D01*
X122939751Y-130676841D01*
X122913407Y-130675899D01*
X122891650Y-130674192D01*
X122837457Y-130665608D01*
X122786453Y-130651731D01*
X122738669Y-130632574D01*
X122694138Y-130608153D01*
X122652892Y-130578483D01*
X122620237Y-130548944D01*
X122587715Y-130512443D01*
X122560072Y-130472797D01*
X122537176Y-130429726D01*
X122518899Y-130382950D01*
X122505111Y-130332189D01*
X122496186Y-130281038D01*
X122494152Y-130260490D01*
X122492776Y-130235491D01*
X122492057Y-130207757D01*
X122491996Y-130179001D01*
X122492593Y-130150939D01*
X122493847Y-130125287D01*
X122495759Y-130103759D01*
X122496194Y-130100299D01*
X122506279Y-130045493D01*
X122521467Y-129993922D01*
X122541670Y-129945747D01*
X122566800Y-129901130D01*
X122596767Y-129860229D01*
X122631485Y-129823207D01*
X122663757Y-129795606D01*
X122700181Y-129769774D01*
X122736846Y-129748747D01*
X122775183Y-129731886D01*
X122816618Y-129718547D01*
X122855481Y-129709472D01*
X122878912Y-129705928D01*
X122906787Y-129703559D01*
X122937464Y-129702365D01*
X122969297Y-129702344D01*
X123000643Y-129703497D01*
G36*
X122076743Y-129703230D02*
G01*
X122103906Y-129704782D01*
X122128220Y-129707118D01*
X122144472Y-129709518D01*
X122195733Y-129721223D01*
X122242883Y-129737192D01*
X122286519Y-129757657D01*
X122318687Y-129777014D01*
X122351365Y-129801579D01*
X122382851Y-129830668D01*
X122411714Y-129862765D01*
X122436521Y-129896353D01*
X122446339Y-129912166D01*
X122454758Y-129926639D01*
X122404228Y-129953010D01*
X122383453Y-129963843D01*
X122359515Y-129976312D01*
X122334757Y-129989196D01*
X122311522Y-130001276D01*
X122300667Y-130006915D01*
X122247635Y-130034450D01*
X122235554Y-130012644D01*
X122222559Y-129992927D01*
X122205922Y-129973270D01*
X122187213Y-129955233D01*
X122167999Y-129940375D01*
X122155261Y-129932789D01*
X122136019Y-129923449D01*
X122119926Y-129917036D01*
X122104955Y-129913057D01*
X122089085Y-129911019D01*
X122070291Y-129910426D01*
X122063794Y-129910456D01*
X122027098Y-129913392D01*
X121993954Y-129921400D01*
X121964390Y-129934452D01*
X121938431Y-129952518D01*
X121916107Y-129975567D01*
X121897443Y-130003571D01*
X121882468Y-130036500D01*
X121871208Y-130074325D01*
X121863691Y-130117016D01*
X121862421Y-130128239D01*
X121859345Y-130179126D01*
X121860667Y-130227295D01*
X121866307Y-130272384D01*
X121876185Y-130314035D01*
X121890221Y-130351888D01*
X121908335Y-130385583D01*
X121924792Y-130408204D01*
X121940088Y-130423367D01*
X121959711Y-130437820D01*
X121981810Y-130450355D01*
X122003332Y-130459361D01*
X122014357Y-130462909D01*
X122024015Y-130465313D01*
X122034021Y-130466793D01*
X122046089Y-130467568D01*
X122061932Y-130467857D01*
X122069995Y-130467885D01*
X122095840Y-130467291D01*
X122117264Y-130465213D01*
X122135936Y-130461317D01*
X122153529Y-130455270D01*
X122168966Y-130448149D01*
X122196509Y-130430797D01*
X122221224Y-130408243D01*
X122242573Y-130381051D01*
X122256734Y-130356600D01*
X122261577Y-130347048D01*
X122265268Y-130339976D01*
X122266997Y-130336936D01*
X122269864Y-130338019D01*
X122277465Y-130341540D01*
X122289015Y-130347105D01*
X122303731Y-130354319D01*
X122320831Y-130362789D01*
X122339529Y-130372121D01*
X122359044Y-130381919D01*
X122378591Y-130391790D01*
X122397387Y-130401340D01*
X122414649Y-130410173D01*
X122429593Y-130417897D01*
X122441436Y-130424116D01*
X122449395Y-130428436D01*
X122452460Y-130430276D01*
X122454443Y-130432314D01*
X122454810Y-130435171D01*
X122453148Y-130439775D01*
X122449043Y-130447059D01*
X122442083Y-130457953D01*
X122436293Y-130466719D01*
X122411690Y-130501314D01*
X122386675Y-130531194D01*
X122359879Y-130557772D01*
X122329931Y-130582459D01*
X122309751Y-130597039D01*
X122277043Y-130617149D01*
X122240234Y-130635451D01*
X122201348Y-130651108D01*
X122162410Y-130663285D01*
X122133557Y-130669784D01*
X122117646Y-130671982D01*
X122097218Y-130673781D01*
X122073945Y-130675130D01*
X122049501Y-130675977D01*
X122025559Y-130676269D01*
X122003793Y-130675955D01*
X121985877Y-130674982D01*
X121981169Y-130674517D01*
X121927000Y-130665520D01*
X121875885Y-130651391D01*
X121828055Y-130632308D01*
X121783737Y-130608450D01*
X121743163Y-130579995D01*
X121706560Y-130547123D01*
X121674160Y-130510013D01*
X121646190Y-130468843D01*
X121622881Y-130423792D01*
X121606991Y-130382840D01*
X121593066Y-130332423D01*
X121583677Y-130278978D01*
X121578824Y-130223689D01*
X121578507Y-130167738D01*
X121582728Y-130112311D01*
X121591487Y-130058591D01*
X121604784Y-130007761D01*
X121606801Y-130001562D01*
X121624681Y-129955785D01*
X121646719Y-129913912D01*
X121673591Y-129874824D01*
X121705498Y-129837900D01*
X121743427Y-129802420D01*
X121784521Y-129772200D01*
X121828901Y-129747177D01*
X121876688Y-129727285D01*
X121928003Y-129712461D01*
X121950622Y-129707733D01*
X121969559Y-129705152D01*
X121993138Y-129703425D01*
X122019861Y-129702538D01*
X122048228Y-129702478D01*
X122076743Y-129703230D01*
G37*
X122076743Y-129703230D02*
X122103906Y-129704782D01*
X122128220Y-129707118D01*
X122144472Y-129709518D01*
X122195733Y-129721223D01*
X122242883Y-129737192D01*
X122286519Y-129757657D01*
X122318687Y-129777014D01*
X122351365Y-129801579D01*
X122382851Y-129830668D01*
X122411714Y-129862765D01*
X122436521Y-129896353D01*
X122446339Y-129912166D01*
X122454758Y-129926639D01*
X122404228Y-129953010D01*
X122383453Y-129963843D01*
X122359515Y-129976312D01*
X122334757Y-129989196D01*
X122311522Y-130001276D01*
X122300667Y-130006915D01*
X122247635Y-130034450D01*
X122235554Y-130012644D01*
X122222559Y-129992927D01*
X122205922Y-129973270D01*
X122187213Y-129955233D01*
X122167999Y-129940375D01*
X122155261Y-129932789D01*
X122136019Y-129923449D01*
X122119926Y-129917036D01*
X122104955Y-129913057D01*
X122089085Y-129911019D01*
X122070291Y-129910426D01*
X122063794Y-129910456D01*
X122027098Y-129913392D01*
X121993954Y-129921400D01*
X121964390Y-129934452D01*
X121938431Y-129952518D01*
X121916107Y-129975567D01*
X121897443Y-130003571D01*
X121882468Y-130036500D01*
X121871208Y-130074325D01*
X121863691Y-130117016D01*
X121862421Y-130128239D01*
X121859345Y-130179126D01*
X121860667Y-130227295D01*
X121866307Y-130272384D01*
X121876185Y-130314035D01*
X121890221Y-130351888D01*
X121908335Y-130385583D01*
X121924792Y-130408204D01*
X121940088Y-130423367D01*
X121959711Y-130437820D01*
X121981810Y-130450355D01*
X122003332Y-130459361D01*
X122014357Y-130462909D01*
X122024015Y-130465313D01*
X122034021Y-130466793D01*
X122046089Y-130467568D01*
X122061932Y-130467857D01*
X122069995Y-130467885D01*
X122095840Y-130467291D01*
X122117264Y-130465213D01*
X122135936Y-130461317D01*
X122153529Y-130455270D01*
X122168966Y-130448149D01*
X122196509Y-130430797D01*
X122221224Y-130408243D01*
X122242573Y-130381051D01*
X122256734Y-130356600D01*
X122261577Y-130347048D01*
X122265268Y-130339976D01*
X122266997Y-130336936D01*
X122269864Y-130338019D01*
X122277465Y-130341540D01*
X122289015Y-130347105D01*
X122303731Y-130354319D01*
X122320831Y-130362789D01*
X122339529Y-130372121D01*
X122359044Y-130381919D01*
X122378591Y-130391790D01*
X122397387Y-130401340D01*
X122414649Y-130410173D01*
X122429593Y-130417897D01*
X122441436Y-130424116D01*
X122449395Y-130428436D01*
X122452460Y-130430276D01*
X122454443Y-130432314D01*
X122454810Y-130435171D01*
X122453148Y-130439775D01*
X122449043Y-130447059D01*
X122442083Y-130457953D01*
X122436293Y-130466719D01*
X122411690Y-130501314D01*
X122386675Y-130531194D01*
X122359879Y-130557772D01*
X122329931Y-130582459D01*
X122309751Y-130597039D01*
X122277043Y-130617149D01*
X122240234Y-130635451D01*
X122201348Y-130651108D01*
X122162410Y-130663285D01*
X122133557Y-130669784D01*
X122117646Y-130671982D01*
X122097218Y-130673781D01*
X122073945Y-130675130D01*
X122049501Y-130675977D01*
X122025559Y-130676269D01*
X122003793Y-130675955D01*
X121985877Y-130674982D01*
X121981169Y-130674517D01*
X121927000Y-130665520D01*
X121875885Y-130651391D01*
X121828055Y-130632308D01*
X121783737Y-130608450D01*
X121743163Y-130579995D01*
X121706560Y-130547123D01*
X121674160Y-130510013D01*
X121646190Y-130468843D01*
X121622881Y-130423792D01*
X121606991Y-130382840D01*
X121593066Y-130332423D01*
X121583677Y-130278978D01*
X121578824Y-130223689D01*
X121578507Y-130167738D01*
X121582728Y-130112311D01*
X121591487Y-130058591D01*
X121604784Y-130007761D01*
X121606801Y-130001562D01*
X121624681Y-129955785D01*
X121646719Y-129913912D01*
X121673591Y-129874824D01*
X121705498Y-129837900D01*
X121743427Y-129802420D01*
X121784521Y-129772200D01*
X121828901Y-129747177D01*
X121876688Y-129727285D01*
X121928003Y-129712461D01*
X121950622Y-129707733D01*
X121969559Y-129705152D01*
X121993138Y-129703425D01*
X122019861Y-129702538D01*
X122048228Y-129702478D01*
X122076743Y-129703230D01*
G36*
X129173185Y-129373614D02*
G01*
X129246029Y-129379486D01*
X129315929Y-129390691D01*
X129382811Y-129407196D01*
X129446600Y-129428969D01*
X129507222Y-129455979D01*
X129564601Y-129488194D01*
X129618664Y-129525581D01*
X129669334Y-129568110D01*
X129716538Y-129615747D01*
X129745975Y-129650241D01*
X129787787Y-129707133D01*
X129824360Y-129767298D01*
X129855669Y-129830651D01*
X129881685Y-129897104D01*
X129902383Y-129966573D01*
X129917736Y-130038969D01*
X129927719Y-130114208D01*
X129932303Y-130192203D01*
X129932088Y-130255810D01*
X129927221Y-130332183D01*
X129917242Y-130405134D01*
X129902105Y-130474814D01*
X129881764Y-130541378D01*
X129856175Y-130604976D01*
X129825291Y-130665761D01*
X129795265Y-130714697D01*
X129752923Y-130773272D01*
X129707197Y-130826651D01*
X129658106Y-130874823D01*
X129605665Y-130917777D01*
X129549892Y-130955503D01*
X129490804Y-130987990D01*
X129428418Y-131015227D01*
X129362752Y-131037203D01*
X129293822Y-131053909D01*
X129235449Y-131063591D01*
X129217792Y-131065459D01*
X129195709Y-131067043D01*
X129170590Y-131068311D01*
X129143825Y-131069231D01*
X129116806Y-131069772D01*
X129090922Y-131069902D01*
X129067565Y-131069590D01*
X129048125Y-131068804D01*
X129038562Y-131068056D01*
X128971362Y-131058544D01*
X128907488Y-131043885D01*
X128846673Y-131023988D01*
X128788650Y-130998762D01*
X128733154Y-130968114D01*
X128716101Y-130957288D01*
X128663876Y-130919580D01*
X128616554Y-130878101D01*
X128574124Y-130832833D01*
X128536574Y-130783760D01*
X128503893Y-130730864D01*
X128476071Y-130674128D01*
X128453096Y-130613534D01*
X128434957Y-130549065D01*
X128424704Y-130499206D01*
X128422339Y-130485931D01*
X128420216Y-130474320D01*
X128418674Y-130466215D01*
X128418287Y-130464324D01*
X128416776Y-130457348D01*
X128813769Y-130457348D01*
X128813769Y-130471589D01*
X128814800Y-130485732D01*
X128817625Y-130503841D01*
X128821840Y-130524083D01*
X128827043Y-130544627D01*
X128832831Y-130563638D01*
X128835885Y-130572172D01*
X128852270Y-130606599D01*
X128873714Y-130637584D01*
X128899981Y-130664907D01*
X128930832Y-130688349D01*
X128966031Y-130707694D01*
X128996214Y-130719750D01*
X129017255Y-130726493D01*
X129036926Y-130731701D01*
X129056527Y-130735548D01*
X129077362Y-130738209D01*
X129100733Y-130739859D01*
X129127941Y-130740674D01*
X129153283Y-130740840D01*
X129180972Y-130740625D01*
X129203711Y-130739855D01*
X129222744Y-130738294D01*
X129239314Y-130735706D01*
X129254664Y-130731856D01*
X129270038Y-130726509D01*
X129286680Y-130719427D01*
X129300561Y-130712922D01*
X129337335Y-130691873D01*
X129371613Y-130665389D01*
X129403161Y-130633809D01*
X129431742Y-130597474D01*
X129457120Y-130556724D01*
X129479060Y-130511898D01*
X129497325Y-130463337D01*
X129511680Y-130411380D01*
X129512588Y-130407377D01*
X129522889Y-130350736D01*
X129529490Y-130290599D01*
X129532408Y-130228396D01*
X129531658Y-130165559D01*
X129527256Y-130103518D01*
X129519217Y-130043703D01*
X129507960Y-129989160D01*
X129492830Y-129937877D01*
X129474016Y-129891382D01*
X129451574Y-129849740D01*
X129425561Y-129813015D01*
X129396034Y-129781272D01*
X129363050Y-129754577D01*
X129326664Y-129732994D01*
X129286934Y-129716588D01*
X129264678Y-129710049D01*
X129231894Y-129703759D01*
X129195194Y-129700345D01*
X129156119Y-129699735D01*
X129116206Y-129701855D01*
X129076995Y-129706632D01*
X129040026Y-129713993D01*
X129011952Y-129722078D01*
X128971633Y-129738533D01*
X128935946Y-129759089D01*
X128904801Y-129783831D01*
X128878105Y-129812843D01*
X128855766Y-129846209D01*
X128838702Y-129881514D01*
X128832761Y-129897417D01*
X128826979Y-129915264D01*
X128821773Y-129933499D01*
X128817559Y-129950566D01*
X128814753Y-129964909D01*
X128813769Y-129974744D01*
X128813769Y-129982815D01*
X128922323Y-129984509D01*
X128616859Y-130289917D01*
X128463403Y-130136438D01*
X128309947Y-129982958D01*
X128428446Y-129982958D01*
X128432258Y-129958929D01*
X128434444Y-129947057D01*
X128437815Y-129931037D01*
X128441962Y-129912718D01*
X128446477Y-129893943D01*
X128447921Y-129888189D01*
X128467228Y-129823468D01*
X128491340Y-129762390D01*
X128520149Y-129705099D01*
X128553548Y-129651742D01*
X128591430Y-129602464D01*
X128633687Y-129557411D01*
X128680214Y-129516728D01*
X128730902Y-129480561D01*
X128761225Y-129462243D01*
X128813053Y-129435506D01*
X128865739Y-129413792D01*
X128920067Y-129396895D01*
X128976823Y-129384605D01*
X129036792Y-129376716D01*
X129097473Y-129373106D01*
X129173185Y-129373614D01*
G37*
X129173185Y-129373614D02*
X129246029Y-129379486D01*
X129315929Y-129390691D01*
X129382811Y-129407196D01*
X129446600Y-129428969D01*
X129507222Y-129455979D01*
X129564601Y-129488194D01*
X129618664Y-129525581D01*
X129669334Y-129568110D01*
X129716538Y-129615747D01*
X129745975Y-129650241D01*
X129787787Y-129707133D01*
X129824360Y-129767298D01*
X129855669Y-129830651D01*
X129881685Y-129897104D01*
X129902383Y-129966573D01*
X129917736Y-130038969D01*
X129927719Y-130114208D01*
X129932303Y-130192203D01*
X129932088Y-130255810D01*
X129927221Y-130332183D01*
X129917242Y-130405134D01*
X129902105Y-130474814D01*
X129881764Y-130541378D01*
X129856175Y-130604976D01*
X129825291Y-130665761D01*
X129795265Y-130714697D01*
X129752923Y-130773272D01*
X129707197Y-130826651D01*
X129658106Y-130874823D01*
X129605665Y-130917777D01*
X129549892Y-130955503D01*
X129490804Y-130987990D01*
X129428418Y-131015227D01*
X129362752Y-131037203D01*
X129293822Y-131053909D01*
X129235449Y-131063591D01*
X129217792Y-131065459D01*
X129195709Y-131067043D01*
X129170590Y-131068311D01*
X129143825Y-131069231D01*
X129116806Y-131069772D01*
X129090922Y-131069902D01*
X129067565Y-131069590D01*
X129048125Y-131068804D01*
X129038562Y-131068056D01*
X128971362Y-131058544D01*
X128907488Y-131043885D01*
X128846673Y-131023988D01*
X128788650Y-130998762D01*
X128733154Y-130968114D01*
X128716101Y-130957288D01*
X128663876Y-130919580D01*
X128616554Y-130878101D01*
X128574124Y-130832833D01*
X128536574Y-130783760D01*
X128503893Y-130730864D01*
X128476071Y-130674128D01*
X128453096Y-130613534D01*
X128434957Y-130549065D01*
X128424704Y-130499206D01*
X128422339Y-130485931D01*
X128420216Y-130474320D01*
X128418674Y-130466215D01*
X128418287Y-130464324D01*
X128416776Y-130457348D01*
X128813769Y-130457348D01*
X128813769Y-130471589D01*
X128814800Y-130485732D01*
X128817625Y-130503841D01*
X128821840Y-130524083D01*
X128827043Y-130544627D01*
X128832831Y-130563638D01*
X128835885Y-130572172D01*
X128852270Y-130606599D01*
X128873714Y-130637584D01*
X128899981Y-130664907D01*
X128930832Y-130688349D01*
X128966031Y-130707694D01*
X128996214Y-130719750D01*
X129017255Y-130726493D01*
X129036926Y-130731701D01*
X129056527Y-130735548D01*
X129077362Y-130738209D01*
X129100733Y-130739859D01*
X129127941Y-130740674D01*
X129153283Y-130740840D01*
X129180972Y-130740625D01*
X129203711Y-130739855D01*
X129222744Y-130738294D01*
X129239314Y-130735706D01*
X129254664Y-130731856D01*
X129270038Y-130726509D01*
X129286680Y-130719427D01*
X129300561Y-130712922D01*
X129337335Y-130691873D01*
X129371613Y-130665389D01*
X129403161Y-130633809D01*
X129431742Y-130597474D01*
X129457120Y-130556724D01*
X129479060Y-130511898D01*
X129497325Y-130463337D01*
X129511680Y-130411380D01*
X129512588Y-130407377D01*
X129522889Y-130350736D01*
X129529490Y-130290599D01*
X129532408Y-130228396D01*
X129531658Y-130165559D01*
X129527256Y-130103518D01*
X129519217Y-130043703D01*
X129507960Y-129989160D01*
X129492830Y-129937877D01*
X129474016Y-129891382D01*
X129451574Y-129849740D01*
X129425561Y-129813015D01*
X129396034Y-129781272D01*
X129363050Y-129754577D01*
X129326664Y-129732994D01*
X129286934Y-129716588D01*
X129264678Y-129710049D01*
X129231894Y-129703759D01*
X129195194Y-129700345D01*
X129156119Y-129699735D01*
X129116206Y-129701855D01*
X129076995Y-129706632D01*
X129040026Y-129713993D01*
X129011952Y-129722078D01*
X128971633Y-129738533D01*
X128935946Y-129759089D01*
X128904801Y-129783831D01*
X128878105Y-129812843D01*
X128855766Y-129846209D01*
X128838702Y-129881514D01*
X128832761Y-129897417D01*
X128826979Y-129915264D01*
X128821773Y-129933499D01*
X128817559Y-129950566D01*
X128814753Y-129964909D01*
X128813769Y-129974744D01*
X128813769Y-129982815D01*
X128922323Y-129984509D01*
X128616859Y-130289917D01*
X128463403Y-130136438D01*
X128309947Y-129982958D01*
X128428446Y-129982958D01*
X128432258Y-129958929D01*
X128434444Y-129947057D01*
X128437815Y-129931037D01*
X128441962Y-129912718D01*
X128446477Y-129893943D01*
X128447921Y-129888189D01*
X128467228Y-129823468D01*
X128491340Y-129762390D01*
X128520149Y-129705099D01*
X128553548Y-129651742D01*
X128591430Y-129602464D01*
X128633687Y-129557411D01*
X128680214Y-129516728D01*
X128730902Y-129480561D01*
X128761225Y-129462243D01*
X128813053Y-129435506D01*
X128865739Y-129413792D01*
X128920067Y-129396895D01*
X128976823Y-129384605D01*
X129036792Y-129376716D01*
X129097473Y-129373106D01*
X129173185Y-129373614D01*
G36*
X125854328Y-128615573D02*
G01*
X125894403Y-128616835D01*
X125926517Y-128618740D01*
X126027139Y-128629267D01*
X126124856Y-128645264D01*
X126219723Y-128666756D01*
X126311796Y-128693766D01*
X126401131Y-128726317D01*
X126487784Y-128764432D01*
X126571811Y-128808134D01*
X126653268Y-128857448D01*
X126732211Y-128912395D01*
X126808697Y-128973000D01*
X126835595Y-128996167D01*
X126856612Y-129015257D01*
X126880307Y-129037789D01*
X126905599Y-129062661D01*
X126931407Y-129088765D01*
X126956650Y-129114998D01*
X126980247Y-129140253D01*
X127001118Y-129163426D01*
X127015160Y-129179763D01*
X127076018Y-129257106D01*
X127131091Y-129336519D01*
X127180422Y-129418117D01*
X127224059Y-129502010D01*
X127262046Y-129588314D01*
X127294428Y-129677141D01*
X127321252Y-129768604D01*
X127342562Y-129862816D01*
X127358404Y-129959890D01*
X127368823Y-130059939D01*
X127368863Y-130060473D01*
X127370009Y-130080215D01*
X127370891Y-130104853D01*
X127371510Y-130133112D01*
X127371865Y-130163715D01*
X127371956Y-130195387D01*
X127371783Y-130226852D01*
X127371347Y-130256835D01*
X127370648Y-130284060D01*
X127369685Y-130307251D01*
X127368860Y-130320315D01*
X127358441Y-130420474D01*
X127342688Y-130517488D01*
X127321569Y-130611426D01*
X127295053Y-130702359D01*
X127263108Y-130790357D01*
X127225702Y-130875490D01*
X127182805Y-130957828D01*
X127134383Y-131037441D01*
X127080406Y-131114399D01*
X127020842Y-131188773D01*
X126955659Y-131260632D01*
X126934973Y-131281741D01*
X126859669Y-131353282D01*
X126782142Y-131419119D01*
X126702440Y-131479221D01*
X126620610Y-131533557D01*
X126536698Y-131582094D01*
X126450751Y-131624802D01*
X126378637Y-131655511D01*
X126293719Y-131686323D01*
X126208348Y-131711819D01*
X126121951Y-131732093D01*
X126033955Y-131747241D01*
X125943788Y-131757356D01*
X125850877Y-131762535D01*
X125754649Y-131762871D01*
X125733337Y-131762316D01*
X125635955Y-131756275D01*
X125540285Y-131744285D01*
X125446396Y-131726377D01*
X125354361Y-131702583D01*
X125264248Y-131672933D01*
X125176129Y-131637459D01*
X125090074Y-131596191D01*
X125006153Y-131549161D01*
X124924437Y-131496399D01*
X124844995Y-131437937D01*
X124767900Y-131373806D01*
X124693220Y-131304037D01*
X124691421Y-131302258D01*
X124621063Y-131228589D01*
X124556502Y-131152735D01*
X124497713Y-131074646D01*
X124444672Y-130994270D01*
X124397352Y-130911555D01*
X124355728Y-130826451D01*
X124319776Y-130738904D01*
X124289469Y-130648865D01*
X124264783Y-130556281D01*
X124245692Y-130461101D01*
X124232799Y-130368981D01*
X124228657Y-130322596D01*
X124225972Y-130271757D01*
X124224720Y-130217971D01*
X124224746Y-130208894D01*
X124504843Y-130208894D01*
X124508797Y-130293958D01*
X124518192Y-130378387D01*
X124533018Y-130461707D01*
X124553268Y-130543445D01*
X124578932Y-130623129D01*
X124610002Y-130700284D01*
X124613870Y-130708861D01*
X124650796Y-130782720D01*
X124693319Y-130854986D01*
X124740999Y-130925216D01*
X124793396Y-130992968D01*
X124850068Y-131057799D01*
X124910577Y-131119269D01*
X124974482Y-131176934D01*
X125041342Y-131230353D01*
X125110717Y-131279084D01*
X125182168Y-131322684D01*
X125255254Y-131360713D01*
X125269799Y-131367506D01*
X125349155Y-131400466D01*
X125431108Y-131427829D01*
X125515506Y-131449558D01*
X125602197Y-131465614D01*
X125691031Y-131475960D01*
X125710083Y-131477414D01*
X125731967Y-131478474D01*
X125758568Y-131479031D01*
X125788421Y-131479116D01*
X125820063Y-131478757D01*
X125852033Y-131477984D01*
X125882867Y-131476827D01*
X125911102Y-131475313D01*
X125935275Y-131473474D01*
X125942627Y-131472746D01*
X126030404Y-131460456D01*
X126115613Y-131442610D01*
X126198405Y-131419146D01*
X126278927Y-131389999D01*
X126357329Y-131355107D01*
X126433760Y-131314406D01*
X126508368Y-131267834D01*
X126581303Y-131215327D01*
X126617004Y-131186980D01*
X126686915Y-131126339D01*
X126751010Y-131063667D01*
X126809373Y-130998851D01*
X126862085Y-130931777D01*
X126909229Y-130862330D01*
X126950888Y-130790397D01*
X126987144Y-130715863D01*
X127018079Y-130638616D01*
X127022438Y-130626289D01*
X127045428Y-130551604D01*
X127063837Y-130473499D01*
X127077636Y-130392773D01*
X127086793Y-130310220D01*
X127091275Y-130226639D01*
X127091053Y-130142825D01*
X127086093Y-130059575D01*
X127076366Y-129977686D01*
X127061840Y-129897954D01*
X127052686Y-129858826D01*
X127028704Y-129775763D01*
X126999352Y-129695511D01*
X126964554Y-129617940D01*
X126924233Y-129542918D01*
X126878313Y-129470315D01*
X126826718Y-129400000D01*
X126769370Y-129331842D01*
X126706608Y-129266118D01*
X126643119Y-129206862D01*
X126578581Y-129153427D01*
X126512438Y-129105453D01*
X126444132Y-129062577D01*
X126373108Y-129024440D01*
X126298807Y-128990681D01*
X126254235Y-128973055D01*
X126182040Y-128948937D01*
X126106204Y-128929254D01*
X126027478Y-128914067D01*
X125946613Y-128903432D01*
X125864359Y-128897408D01*
X125781469Y-128896055D01*
X125698692Y-128899429D01*
X125616779Y-128907589D01*
X125548852Y-128918248D01*
X125463702Y-128937011D01*
X125381132Y-128961412D01*
X125301112Y-128991463D01*
X125223616Y-129027177D01*
X125148614Y-129068566D01*
X125076079Y-129115640D01*
X125061312Y-129126138D01*
X124995644Y-129176925D01*
X124932405Y-129232568D01*
X124872064Y-129292477D01*
X124815090Y-129356063D01*
X124761951Y-129422736D01*
X124713117Y-129491905D01*
X124669056Y-129562981D01*
X124630238Y-129635375D01*
X124597130Y-129708496D01*
X124595838Y-129711657D01*
X124566972Y-129790599D01*
X124543597Y-129871744D01*
X124525706Y-129954619D01*
X124513288Y-130038751D01*
X124506337Y-130123667D01*
X124504843Y-130208894D01*
X124224746Y-130208894D01*
X124224880Y-130162744D01*
X124226428Y-130107580D01*
X124229340Y-130053985D01*
X124233594Y-130003465D01*
X124239077Y-129958154D01*
X124255980Y-129861216D01*
X124278514Y-129766788D01*
X124306709Y-129674805D01*
X124340596Y-129585199D01*
X124380206Y-129497903D01*
X124425569Y-129412850D01*
X124476717Y-129329973D01*
X124533681Y-129249206D01*
X124596490Y-129170481D01*
X124606969Y-129158203D01*
X124674666Y-129084085D01*
X124745606Y-129015113D01*
X124819652Y-128951362D01*
X124896670Y-128892904D01*
X124976522Y-128839812D01*
X125059073Y-128792160D01*
X125144186Y-128750021D01*
X125231725Y-128713468D01*
X125321554Y-128682574D01*
X125413536Y-128657413D01*
X125507536Y-128638058D01*
X125598462Y-128625128D01*
X125635378Y-128621644D01*
X125676603Y-128618878D01*
X125720622Y-128616858D01*
X125765925Y-128615614D01*
X125810997Y-128615176D01*
X125854328Y-128615573D01*
G37*
X125854328Y-128615573D02*
X125894403Y-128616835D01*
X125926517Y-128618740D01*
X126027139Y-128629267D01*
X126124856Y-128645264D01*
X126219723Y-128666756D01*
X126311796Y-128693766D01*
X126401131Y-128726317D01*
X126487784Y-128764432D01*
X126571811Y-128808134D01*
X126653268Y-128857448D01*
X126732211Y-128912395D01*
X126808697Y-128973000D01*
X126835595Y-128996167D01*
X126856612Y-129015257D01*
X126880307Y-129037789D01*
X126905599Y-129062661D01*
X126931407Y-129088765D01*
X126956650Y-129114998D01*
X126980247Y-129140253D01*
X127001118Y-129163426D01*
X127015160Y-129179763D01*
X127076018Y-129257106D01*
X127131091Y-129336519D01*
X127180422Y-129418117D01*
X127224059Y-129502010D01*
X127262046Y-129588314D01*
X127294428Y-129677141D01*
X127321252Y-129768604D01*
X127342562Y-129862816D01*
X127358404Y-129959890D01*
X127368823Y-130059939D01*
X127368863Y-130060473D01*
X127370009Y-130080215D01*
X127370891Y-130104853D01*
X127371510Y-130133112D01*
X127371865Y-130163715D01*
X127371956Y-130195387D01*
X127371783Y-130226852D01*
X127371347Y-130256835D01*
X127370648Y-130284060D01*
X127369685Y-130307251D01*
X127368860Y-130320315D01*
X127358441Y-130420474D01*
X127342688Y-130517488D01*
X127321569Y-130611426D01*
X127295053Y-130702359D01*
X127263108Y-130790357D01*
X127225702Y-130875490D01*
X127182805Y-130957828D01*
X127134383Y-131037441D01*
X127080406Y-131114399D01*
X127020842Y-131188773D01*
X126955659Y-131260632D01*
X126934973Y-131281741D01*
X126859669Y-131353282D01*
X126782142Y-131419119D01*
X126702440Y-131479221D01*
X126620610Y-131533557D01*
X126536698Y-131582094D01*
X126450751Y-131624802D01*
X126378637Y-131655511D01*
X126293719Y-131686323D01*
X126208348Y-131711819D01*
X126121951Y-131732093D01*
X126033955Y-131747241D01*
X125943788Y-131757356D01*
X125850877Y-131762535D01*
X125754649Y-131762871D01*
X125733337Y-131762316D01*
X125635955Y-131756275D01*
X125540285Y-131744285D01*
X125446396Y-131726377D01*
X125354361Y-131702583D01*
X125264248Y-131672933D01*
X125176129Y-131637459D01*
X125090074Y-131596191D01*
X125006153Y-131549161D01*
X124924437Y-131496399D01*
X124844995Y-131437937D01*
X124767900Y-131373806D01*
X124693220Y-131304037D01*
X124691421Y-131302258D01*
X124621063Y-131228589D01*
X124556502Y-131152735D01*
X124497713Y-131074646D01*
X124444672Y-130994270D01*
X124397352Y-130911555D01*
X124355728Y-130826451D01*
X124319776Y-130738904D01*
X124289469Y-130648865D01*
X124264783Y-130556281D01*
X124245692Y-130461101D01*
X124232799Y-130368981D01*
X124228657Y-130322596D01*
X124225972Y-130271757D01*
X124224720Y-130217971D01*
X124224746Y-130208894D01*
X124504843Y-130208894D01*
X124508797Y-130293958D01*
X124518192Y-130378387D01*
X124533018Y-130461707D01*
X124553268Y-130543445D01*
X124578932Y-130623129D01*
X124610002Y-130700284D01*
X124613870Y-130708861D01*
X124650796Y-130782720D01*
X124693319Y-130854986D01*
X124740999Y-130925216D01*
X124793396Y-130992968D01*
X124850068Y-131057799D01*
X124910577Y-131119269D01*
X124974482Y-131176934D01*
X125041342Y-131230353D01*
X125110717Y-131279084D01*
X125182168Y-131322684D01*
X125255254Y-131360713D01*
X125269799Y-131367506D01*
X125349155Y-131400466D01*
X125431108Y-131427829D01*
X125515506Y-131449558D01*
X125602197Y-131465614D01*
X125691031Y-131475960D01*
X125710083Y-131477414D01*
X125731967Y-131478474D01*
X125758568Y-131479031D01*
X125788421Y-131479116D01*
X125820063Y-131478757D01*
X125852033Y-131477984D01*
X125882867Y-131476827D01*
X125911102Y-131475313D01*
X125935275Y-131473474D01*
X125942627Y-131472746D01*
X126030404Y-131460456D01*
X126115613Y-131442610D01*
X126198405Y-131419146D01*
X126278927Y-131389999D01*
X126357329Y-131355107D01*
X126433760Y-131314406D01*
X126508368Y-131267834D01*
X126581303Y-131215327D01*
X126617004Y-131186980D01*
X126686915Y-131126339D01*
X126751010Y-131063667D01*
X126809373Y-130998851D01*
X126862085Y-130931777D01*
X126909229Y-130862330D01*
X126950888Y-130790397D01*
X126987144Y-130715863D01*
X127018079Y-130638616D01*
X127022438Y-130626289D01*
X127045428Y-130551604D01*
X127063837Y-130473499D01*
X127077636Y-130392773D01*
X127086793Y-130310220D01*
X127091275Y-130226639D01*
X127091053Y-130142825D01*
X127086093Y-130059575D01*
X127076366Y-129977686D01*
X127061840Y-129897954D01*
X127052686Y-129858826D01*
X127028704Y-129775763D01*
X126999352Y-129695511D01*
X126964554Y-129617940D01*
X126924233Y-129542918D01*
X126878313Y-129470315D01*
X126826718Y-129400000D01*
X126769370Y-129331842D01*
X126706608Y-129266118D01*
X126643119Y-129206862D01*
X126578581Y-129153427D01*
X126512438Y-129105453D01*
X126444132Y-129062577D01*
X126373108Y-129024440D01*
X126298807Y-128990681D01*
X126254235Y-128973055D01*
X126182040Y-128948937D01*
X126106204Y-128929254D01*
X126027478Y-128914067D01*
X125946613Y-128903432D01*
X125864359Y-128897408D01*
X125781469Y-128896055D01*
X125698692Y-128899429D01*
X125616779Y-128907589D01*
X125548852Y-128918248D01*
X125463702Y-128937011D01*
X125381132Y-128961412D01*
X125301112Y-128991463D01*
X125223616Y-129027177D01*
X125148614Y-129068566D01*
X125076079Y-129115640D01*
X125061312Y-129126138D01*
X124995644Y-129176925D01*
X124932405Y-129232568D01*
X124872064Y-129292477D01*
X124815090Y-129356063D01*
X124761951Y-129422736D01*
X124713117Y-129491905D01*
X124669056Y-129562981D01*
X124630238Y-129635375D01*
X124597130Y-129708496D01*
X124595838Y-129711657D01*
X124566972Y-129790599D01*
X124543597Y-129871744D01*
X124525706Y-129954619D01*
X124513288Y-130038751D01*
X124506337Y-130123667D01*
X124504843Y-130208894D01*
X124224746Y-130208894D01*
X124224880Y-130162744D01*
X124226428Y-130107580D01*
X124229340Y-130053985D01*
X124233594Y-130003465D01*
X124239077Y-129958154D01*
X124255980Y-129861216D01*
X124278514Y-129766788D01*
X124306709Y-129674805D01*
X124340596Y-129585199D01*
X124380206Y-129497903D01*
X124425569Y-129412850D01*
X124476717Y-129329973D01*
X124533681Y-129249206D01*
X124596490Y-129170481D01*
X124606969Y-129158203D01*
X124674666Y-129084085D01*
X124745606Y-129015113D01*
X124819652Y-128951362D01*
X124896670Y-128892904D01*
X124976522Y-128839812D01*
X125059073Y-128792160D01*
X125144186Y-128750021D01*
X125231725Y-128713468D01*
X125321554Y-128682574D01*
X125413536Y-128657413D01*
X125507536Y-128638058D01*
X125598462Y-128625128D01*
X125635378Y-128621644D01*
X125676603Y-128618878D01*
X125720622Y-128616858D01*
X125765925Y-128615614D01*
X125810997Y-128615176D01*
X125854328Y-128615573D01*
G36*
X122527930Y-128616219D02*
G01*
X122556732Y-128616764D01*
X122581564Y-128617682D01*
X122594526Y-128618451D01*
X122694505Y-128628406D01*
X122791643Y-128643854D01*
X122886041Y-128664828D01*
X122977798Y-128691362D01*
X123067015Y-128723487D01*
X123153791Y-128761239D01*
X123238227Y-128804649D01*
X123320422Y-128853751D01*
X123338134Y-128865268D01*
X123381377Y-128894607D01*
X123421358Y-128923535D01*
X123459301Y-128953058D01*
X123496427Y-128984185D01*
X123533961Y-129017922D01*
X123573125Y-129055275D01*
X123594039Y-129075961D01*
X123629956Y-129112561D01*
X123661861Y-129146659D01*
X123690749Y-129179412D01*
X123717616Y-129211978D01*
X123743456Y-129245514D01*
X123764009Y-129273750D01*
X123817740Y-129354577D01*
X123865991Y-129438269D01*
X123908723Y-129524721D01*
X123945899Y-129613827D01*
X123977483Y-129705484D01*
X124003436Y-129799587D01*
X124023722Y-129896031D01*
X124038303Y-129994711D01*
X124045035Y-130064274D01*
X124046210Y-130084273D01*
X124047109Y-130109047D01*
X124047731Y-130137304D01*
X124048077Y-130167750D01*
X124048147Y-130199092D01*
X124047941Y-130230037D01*
X124047458Y-130259292D01*
X124046698Y-130285563D01*
X124045661Y-130307557D01*
X124045060Y-130316271D01*
X124034213Y-130417396D01*
X124017860Y-130515683D01*
X123995989Y-130611171D01*
X123968589Y-130703897D01*
X123935646Y-130793899D01*
X123897150Y-130881216D01*
X123853089Y-130965885D01*
X123829105Y-131007011D01*
X123784534Y-131075553D01*
X123734308Y-131143321D01*
X123678970Y-131209728D01*
X123619063Y-131274189D01*
X123555130Y-131336117D01*
X123487713Y-131394926D01*
X123421428Y-131447006D01*
X123343029Y-131501703D01*
X123260701Y-131551973D01*
X123175090Y-131597517D01*
X123086844Y-131638039D01*
X122996609Y-131673238D01*
X122905033Y-131702817D01*
X122817811Y-131725342D01*
X122727661Y-131742912D01*
X122636124Y-131755027D01*
X122542649Y-131761735D01*
X122446684Y-131763086D01*
X122411059Y-131762259D01*
X122315380Y-131756121D01*
X122221090Y-131744016D01*
X122128048Y-131725909D01*
X122036107Y-131701763D01*
X121945125Y-131671541D01*
X121854958Y-131635207D01*
X121789392Y-131604716D01*
X121703451Y-131559130D01*
X121620696Y-131508507D01*
X121541341Y-131453102D01*
X121465599Y-131393173D01*
X121393687Y-131328976D01*
X121325816Y-131260766D01*
X121262203Y-131188801D01*
X121203060Y-131113338D01*
X121148602Y-131034631D01*
X121099044Y-130952938D01*
X121054600Y-130868515D01*
X121015483Y-130781618D01*
X120981909Y-130692504D01*
X120955548Y-130606780D01*
X120937717Y-130535958D01*
X120923635Y-130466576D01*
X120913116Y-130397197D01*
X120905972Y-130326385D01*
X120902017Y-130252705D01*
X120901022Y-130187597D01*
X120901958Y-130146003D01*
X121181508Y-130146003D01*
X121181586Y-130233393D01*
X121187785Y-130321147D01*
X121191214Y-130350378D01*
X121205275Y-130435303D01*
X121225336Y-130519199D01*
X121251235Y-130601725D01*
X121282809Y-130682542D01*
X121319896Y-130761310D01*
X121362333Y-130837689D01*
X121409958Y-130911340D01*
X121462609Y-130981923D01*
X121520122Y-131049098D01*
X121530914Y-131060734D01*
X121590727Y-131121121D01*
X121651648Y-131175888D01*
X121714449Y-131225605D01*
X121779902Y-131270843D01*
X121848778Y-131312172D01*
X121921849Y-131350165D01*
X121922241Y-131350355D01*
X122002711Y-131386116D01*
X122083901Y-131415833D01*
X122166169Y-131439589D01*
X122249872Y-131457467D01*
X122335369Y-131469550D01*
X122423017Y-131475920D01*
X122468420Y-131476995D01*
X122490469Y-131476947D01*
X122514195Y-131476531D01*
X122537347Y-131475807D01*
X122557676Y-131474840D01*
X122566088Y-131474283D01*
X122655354Y-131464510D01*
X122743247Y-131448780D01*
X122829510Y-131427236D01*
X122913887Y-131400021D01*
X122996122Y-131367279D01*
X123075957Y-131329152D01*
X123153137Y-131285784D01*
X123227406Y-131237317D01*
X123298505Y-131183895D01*
X123366180Y-131125660D01*
X123430174Y-131062756D01*
X123490229Y-130995326D01*
X123540869Y-130930657D01*
X123584530Y-130866324D01*
X123624127Y-130797707D01*
X123659383Y-130725434D01*
X123690019Y-130650132D01*
X123715758Y-130572429D01*
X123736322Y-130492952D01*
X123738013Y-130485253D01*
X123751123Y-130413963D01*
X123760478Y-130339469D01*
X123766051Y-130263085D01*
X123767816Y-130186123D01*
X123765745Y-130109898D01*
X123759813Y-130035722D01*
X123749991Y-129964909D01*
X123748810Y-129958154D01*
X123730022Y-129869919D01*
X123705598Y-129784238D01*
X123675596Y-129701207D01*
X123640072Y-129620925D01*
X123599086Y-129543486D01*
X123552694Y-129468989D01*
X123500955Y-129397529D01*
X123443925Y-129329204D01*
X123381662Y-129264111D01*
X123314224Y-129202346D01*
X123283874Y-129177017D01*
X123212696Y-129123029D01*
X123139294Y-129074827D01*
X123063631Y-129032395D01*
X122985674Y-128995717D01*
X122905388Y-128964779D01*
X122822738Y-128939563D01*
X122737690Y-128920055D01*
X122700964Y-128913514D01*
X122619851Y-128902946D01*
X122536244Y-128897162D01*
X122451570Y-128896158D01*
X122367258Y-128899931D01*
X122284735Y-128908475D01*
X122242572Y-128914875D01*
X122156835Y-128932432D01*
X122073735Y-128955601D01*
X121993248Y-128984392D01*
X121915352Y-129018816D01*
X121840021Y-129058884D01*
X121767230Y-129104607D01*
X121696957Y-129155996D01*
X121688623Y-129162599D01*
X121635552Y-129207598D01*
X121582805Y-129257312D01*
X121531737Y-129310345D01*
X121483705Y-129365297D01*
X121446292Y-129412451D01*
X121393995Y-129486593D01*
X121347277Y-129563093D01*
X121306197Y-129641728D01*
X121270817Y-129722279D01*
X121241195Y-129804523D01*
X121217394Y-129888238D01*
X121199472Y-129973205D01*
X121187490Y-130059200D01*
X121181508Y-130146003D01*
X120901958Y-130146003D01*
X120902912Y-130103626D01*
X120908661Y-130023353D01*
X120918481Y-129945460D01*
X120932587Y-129868627D01*
X120951193Y-129791535D01*
X120974513Y-129712864D01*
X120981538Y-129691503D01*
X121013257Y-129604940D01*
X121049325Y-129521729D01*
X121090073Y-129441291D01*
X121135829Y-129363048D01*
X121186922Y-129286420D01*
X121243683Y-129210831D01*
X121281721Y-129164404D01*
X121299441Y-129144224D01*
X121320910Y-129121049D01*
X121345124Y-129095869D01*
X121371082Y-129069674D01*
X121397779Y-129043454D01*
X121424215Y-129018199D01*
X121449385Y-128994900D01*
X121472288Y-128974545D01*
X121484333Y-128964317D01*
X121560260Y-128904711D01*
X121637520Y-128851003D01*
X121716418Y-128803064D01*
X121797258Y-128760766D01*
X121880347Y-128723978D01*
X121965989Y-128692573D01*
X122054488Y-128666420D01*
X122146150Y-128645391D01*
X122241279Y-128629357D01*
X122290136Y-128623184D01*
X122310032Y-128621376D01*
X122334996Y-128619801D01*
X122363898Y-128618476D01*
X122395607Y-128617419D01*
X122428995Y-128616647D01*
X122462931Y-128616178D01*
X122496286Y-128616029D01*
X122527930Y-128616219D01*
G37*
X122527930Y-128616219D02*
X122556732Y-128616764D01*
X122581564Y-128617682D01*
X122594526Y-128618451D01*
X122694505Y-128628406D01*
X122791643Y-128643854D01*
X122886041Y-128664828D01*
X122977798Y-128691362D01*
X123067015Y-128723487D01*
X123153791Y-128761239D01*
X123238227Y-128804649D01*
X123320422Y-128853751D01*
X123338134Y-128865268D01*
X123381377Y-128894607D01*
X123421358Y-128923535D01*
X123459301Y-128953058D01*
X123496427Y-128984185D01*
X123533961Y-129017922D01*
X123573125Y-129055275D01*
X123594039Y-129075961D01*
X123629956Y-129112561D01*
X123661861Y-129146659D01*
X123690749Y-129179412D01*
X123717616Y-129211978D01*
X123743456Y-129245514D01*
X123764009Y-129273750D01*
X123817740Y-129354577D01*
X123865991Y-129438269D01*
X123908723Y-129524721D01*
X123945899Y-129613827D01*
X123977483Y-129705484D01*
X124003436Y-129799587D01*
X124023722Y-129896031D01*
X124038303Y-129994711D01*
X124045035Y-130064274D01*
X124046210Y-130084273D01*
X124047109Y-130109047D01*
X124047731Y-130137304D01*
X124048077Y-130167750D01*
X124048147Y-130199092D01*
X124047941Y-130230037D01*
X124047458Y-130259292D01*
X124046698Y-130285563D01*
X124045661Y-130307557D01*
X124045060Y-130316271D01*
X124034213Y-130417396D01*
X124017860Y-130515683D01*
X123995989Y-130611171D01*
X123968589Y-130703897D01*
X123935646Y-130793899D01*
X123897150Y-130881216D01*
X123853089Y-130965885D01*
X123829105Y-131007011D01*
X123784534Y-131075553D01*
X123734308Y-131143321D01*
X123678970Y-131209728D01*
X123619063Y-131274189D01*
X123555130Y-131336117D01*
X123487713Y-131394926D01*
X123421428Y-131447006D01*
X123343029Y-131501703D01*
X123260701Y-131551973D01*
X123175090Y-131597517D01*
X123086844Y-131638039D01*
X122996609Y-131673238D01*
X122905033Y-131702817D01*
X122817811Y-131725342D01*
X122727661Y-131742912D01*
X122636124Y-131755027D01*
X122542649Y-131761735D01*
X122446684Y-131763086D01*
X122411059Y-131762259D01*
X122315380Y-131756121D01*
X122221090Y-131744016D01*
X122128048Y-131725909D01*
X122036107Y-131701763D01*
X121945125Y-131671541D01*
X121854958Y-131635207D01*
X121789392Y-131604716D01*
X121703451Y-131559130D01*
X121620696Y-131508507D01*
X121541341Y-131453102D01*
X121465599Y-131393173D01*
X121393687Y-131328976D01*
X121325816Y-131260766D01*
X121262203Y-131188801D01*
X121203060Y-131113338D01*
X121148602Y-131034631D01*
X121099044Y-130952938D01*
X121054600Y-130868515D01*
X121015483Y-130781618D01*
X120981909Y-130692504D01*
X120955548Y-130606780D01*
X120937717Y-130535958D01*
X120923635Y-130466576D01*
X120913116Y-130397197D01*
X120905972Y-130326385D01*
X120902017Y-130252705D01*
X120901022Y-130187597D01*
X120901958Y-130146003D01*
X121181508Y-130146003D01*
X121181586Y-130233393D01*
X121187785Y-130321147D01*
X121191214Y-130350378D01*
X121205275Y-130435303D01*
X121225336Y-130519199D01*
X121251235Y-130601725D01*
X121282809Y-130682542D01*
X121319896Y-130761310D01*
X121362333Y-130837689D01*
X121409958Y-130911340D01*
X121462609Y-130981923D01*
X121520122Y-131049098D01*
X121530914Y-131060734D01*
X121590727Y-131121121D01*
X121651648Y-131175888D01*
X121714449Y-131225605D01*
X121779902Y-131270843D01*
X121848778Y-131312172D01*
X121921849Y-131350165D01*
X121922241Y-131350355D01*
X122002711Y-131386116D01*
X122083901Y-131415833D01*
X122166169Y-131439589D01*
X122249872Y-131457467D01*
X122335369Y-131469550D01*
X122423017Y-131475920D01*
X122468420Y-131476995D01*
X122490469Y-131476947D01*
X122514195Y-131476531D01*
X122537347Y-131475807D01*
X122557676Y-131474840D01*
X122566088Y-131474283D01*
X122655354Y-131464510D01*
X122743247Y-131448780D01*
X122829510Y-131427236D01*
X122913887Y-131400021D01*
X122996122Y-131367279D01*
X123075957Y-131329152D01*
X123153137Y-131285784D01*
X123227406Y-131237317D01*
X123298505Y-131183895D01*
X123366180Y-131125660D01*
X123430174Y-131062756D01*
X123490229Y-130995326D01*
X123540869Y-130930657D01*
X123584530Y-130866324D01*
X123624127Y-130797707D01*
X123659383Y-130725434D01*
X123690019Y-130650132D01*
X123715758Y-130572429D01*
X123736322Y-130492952D01*
X123738013Y-130485253D01*
X123751123Y-130413963D01*
X123760478Y-130339469D01*
X123766051Y-130263085D01*
X123767816Y-130186123D01*
X123765745Y-130109898D01*
X123759813Y-130035722D01*
X123749991Y-129964909D01*
X123748810Y-129958154D01*
X123730022Y-129869919D01*
X123705598Y-129784238D01*
X123675596Y-129701207D01*
X123640072Y-129620925D01*
X123599086Y-129543486D01*
X123552694Y-129468989D01*
X123500955Y-129397529D01*
X123443925Y-129329204D01*
X123381662Y-129264111D01*
X123314224Y-129202346D01*
X123283874Y-129177017D01*
X123212696Y-129123029D01*
X123139294Y-129074827D01*
X123063631Y-129032395D01*
X122985674Y-128995717D01*
X122905388Y-128964779D01*
X122822738Y-128939563D01*
X122737690Y-128920055D01*
X122700964Y-128913514D01*
X122619851Y-128902946D01*
X122536244Y-128897162D01*
X122451570Y-128896158D01*
X122367258Y-128899931D01*
X122284735Y-128908475D01*
X122242572Y-128914875D01*
X122156835Y-128932432D01*
X122073735Y-128955601D01*
X121993248Y-128984392D01*
X121915352Y-129018816D01*
X121840021Y-129058884D01*
X121767230Y-129104607D01*
X121696957Y-129155996D01*
X121688623Y-129162599D01*
X121635552Y-129207598D01*
X121582805Y-129257312D01*
X121531737Y-129310345D01*
X121483705Y-129365297D01*
X121446292Y-129412451D01*
X121393995Y-129486593D01*
X121347277Y-129563093D01*
X121306197Y-129641728D01*
X121270817Y-129722279D01*
X121241195Y-129804523D01*
X121217394Y-129888238D01*
X121199472Y-129973205D01*
X121187490Y-130059200D01*
X121181508Y-130146003D01*
X120901958Y-130146003D01*
X120902912Y-130103626D01*
X120908661Y-130023353D01*
X120918481Y-129945460D01*
X120932587Y-129868627D01*
X120951193Y-129791535D01*
X120974513Y-129712864D01*
X120981538Y-129691503D01*
X121013257Y-129604940D01*
X121049325Y-129521729D01*
X121090073Y-129441291D01*
X121135829Y-129363048D01*
X121186922Y-129286420D01*
X121243683Y-129210831D01*
X121281721Y-129164404D01*
X121299441Y-129144224D01*
X121320910Y-129121049D01*
X121345124Y-129095869D01*
X121371082Y-129069674D01*
X121397779Y-129043454D01*
X121424215Y-129018199D01*
X121449385Y-128994900D01*
X121472288Y-128974545D01*
X121484333Y-128964317D01*
X121560260Y-128904711D01*
X121637520Y-128851003D01*
X121716418Y-128803064D01*
X121797258Y-128760766D01*
X121880347Y-128723978D01*
X121965989Y-128692573D01*
X122054488Y-128666420D01*
X122146150Y-128645391D01*
X122241279Y-128629357D01*
X122290136Y-128623184D01*
X122310032Y-128621376D01*
X122334996Y-128619801D01*
X122363898Y-128618476D01*
X122395607Y-128617419D01*
X122428995Y-128616647D01*
X122462931Y-128616178D01*
X122496286Y-128616029D01*
X122527930Y-128616219D01*
G36*
X129185437Y-128625529D02*
G01*
X129214187Y-128626089D01*
X129238924Y-128627026D01*
X129251788Y-128627806D01*
X129352170Y-128637932D01*
X129449600Y-128653499D01*
X129544174Y-128674541D01*
X129635983Y-128701098D01*
X129725121Y-128733207D01*
X129811682Y-128770903D01*
X129895760Y-128814226D01*
X129977447Y-128863212D01*
X130056838Y-128917898D01*
X130134026Y-128978321D01*
X130136270Y-128980191D01*
X130205773Y-129041505D01*
X130272152Y-129106695D01*
X130334681Y-129174961D01*
X130392637Y-129245503D01*
X130445295Y-129317520D01*
X130456032Y-129333386D01*
X130506441Y-129414292D01*
X130551182Y-129497394D01*
X130590298Y-129582819D01*
X130623830Y-129670694D01*
X130651822Y-129761145D01*
X130674315Y-129854301D01*
X130691353Y-129950286D01*
X130702977Y-130049229D01*
X130705335Y-130078399D01*
X130706467Y-130099241D01*
X130707239Y-130124846D01*
X130707668Y-130154113D01*
X130707770Y-130185943D01*
X130707560Y-130219235D01*
X130707056Y-130252891D01*
X130706273Y-130285811D01*
X130705229Y-130316895D01*
X130703939Y-130345042D01*
X130702419Y-130369154D01*
X130700748Y-130387585D01*
X130686770Y-130487373D01*
X130667627Y-130583763D01*
X130643265Y-130676869D01*
X130613629Y-130766809D01*
X130578663Y-130853697D01*
X130538312Y-130937651D01*
X130492522Y-131018784D01*
X130441236Y-131097214D01*
X130384400Y-131173057D01*
X130321959Y-131246427D01*
X130261999Y-131309370D01*
X130187101Y-131380070D01*
X130109868Y-131445028D01*
X130030265Y-131504261D01*
X129948256Y-131557787D01*
X129863805Y-131605624D01*
X129776876Y-131647787D01*
X129687435Y-131684296D01*
X129595444Y-131715166D01*
X129500870Y-131740416D01*
X129403676Y-131760063D01*
X129306762Y-131773794D01*
X129288102Y-131775461D01*
X129264328Y-131776896D01*
X129236497Y-131778087D01*
X129205669Y-131779026D01*
X129172900Y-131779702D01*
X129139251Y-131780106D01*
X129105778Y-131780228D01*
X129073542Y-131780059D01*
X129043598Y-131779588D01*
X129017007Y-131778807D01*
X128994827Y-131777705D01*
X128982751Y-131776762D01*
X128885747Y-131764825D01*
X128792090Y-131747807D01*
X128701414Y-131725596D01*
X128613351Y-131698077D01*
X128527532Y-131665135D01*
X128443592Y-131626657D01*
X128364312Y-131584332D01*
X128284886Y-131535620D01*
X128207489Y-131481565D01*
X128132593Y-131422644D01*
X128060670Y-131359335D01*
X127992190Y-131292116D01*
X127927625Y-131221463D01*
X127867448Y-131147855D01*
X127812128Y-131071770D01*
X127762138Y-130993684D01*
X127735751Y-130947626D01*
X127695490Y-130869097D01*
X127660486Y-130789744D01*
X127630523Y-130708875D01*
X127605380Y-130625798D01*
X127584842Y-130539822D01*
X127568689Y-130450254D01*
X127560787Y-130392671D01*
X127558542Y-130370186D01*
X127556592Y-130342697D01*
X127554961Y-130311398D01*
X127553673Y-130277478D01*
X127552750Y-130242131D01*
X127552429Y-130220716D01*
X127833935Y-130220716D01*
X127834259Y-130252086D01*
X127835018Y-130280885D01*
X127836222Y-130305674D01*
X127837007Y-130316271D01*
X127847419Y-130404507D01*
X127863300Y-130490015D01*
X127884704Y-130572910D01*
X127911687Y-130653309D01*
X127944303Y-130731325D01*
X127982606Y-130807073D01*
X128026650Y-130880670D01*
X128076490Y-130952230D01*
X128132181Y-131021867D01*
X128193778Y-131089698D01*
X128212255Y-131108548D01*
X128251453Y-131146840D01*
X128288817Y-131181079D01*
X128325751Y-131212503D01*
X128363662Y-131242346D01*
X128368656Y-131246114D01*
X128441753Y-131297317D01*
X128516941Y-131342689D01*
X128594231Y-131382232D01*
X128673629Y-131415948D01*
X128755143Y-131443840D01*
X128838781Y-131465910D01*
X128924550Y-131482160D01*
X129012460Y-131492592D01*
X129102517Y-131497208D01*
X129194729Y-131496011D01*
X129249401Y-131492638D01*
X129335781Y-131482710D01*
X129420941Y-131466742D01*
X129504647Y-131444817D01*
X129586659Y-131417018D01*
X129666743Y-131383428D01*
X129744660Y-131344130D01*
X129820175Y-131299207D01*
X129841603Y-131285130D01*
X129885001Y-131254952D01*
X129925704Y-131224353D01*
X129964961Y-131192282D01*
X130004023Y-131157689D01*
X130044140Y-131119523D01*
X130072680Y-131090973D01*
X130119414Y-131041552D01*
X130161118Y-130993365D01*
X130198532Y-130945372D01*
X130232397Y-130896535D01*
X130263453Y-130845815D01*
X130292439Y-130792172D01*
X130308015Y-130760527D01*
X130334336Y-130701523D01*
X130356978Y-130642350D01*
X130376246Y-130581920D01*
X130392445Y-130519147D01*
X130405881Y-130452947D01*
X130416858Y-130382232D01*
X130418984Y-130365881D01*
X130420833Y-130346917D01*
X130422334Y-130322908D01*
X130423486Y-130294908D01*
X130424290Y-130263970D01*
X130424746Y-130231146D01*
X130424854Y-130197491D01*
X130424615Y-130164057D01*
X130424028Y-130131898D01*
X130423095Y-130102066D01*
X130421815Y-130075615D01*
X130420188Y-130053598D01*
X130418907Y-130041870D01*
X130408985Y-129974933D01*
X130397217Y-129912654D01*
X130383268Y-129853677D01*
X130366804Y-129796646D01*
X130347490Y-129740206D01*
X130339056Y-129717912D01*
X130330965Y-129698438D01*
X130320389Y-129675021D01*
X130308023Y-129649044D01*
X130294564Y-129621886D01*
X130280708Y-129594929D01*
X130267153Y-129569552D01*
X130254594Y-129547137D01*
X130244018Y-129529523D01*
X130213549Y-129483213D01*
X130182225Y-129439671D01*
X130148976Y-129397556D01*
X130112729Y-129355528D01*
X130072412Y-129312246D01*
X130060205Y-129299675D01*
X130010818Y-129250908D01*
X129962901Y-129207160D01*
X129915517Y-129167736D01*
X129867728Y-129131942D01*
X129818597Y-129099082D01*
X129767186Y-129068462D01*
X129712558Y-129039385D01*
X129702087Y-129034151D01*
X129642786Y-129006451D01*
X129584397Y-128982707D01*
X129525657Y-128962539D01*
X129465304Y-128945569D01*
X129402075Y-128931419D01*
X129334708Y-128919710D01*
X129306762Y-128915686D01*
X129292965Y-128913876D01*
X129280195Y-128912405D01*
X129267593Y-128911240D01*
X129254304Y-128910344D01*
X129239468Y-128909685D01*
X129222228Y-128909227D01*
X129201727Y-128908936D01*
X129177107Y-128908777D01*
X129147510Y-128908717D01*
X129133130Y-128908712D01*
X129101217Y-128908743D01*
X129074641Y-128908854D01*
X129052536Y-128909082D01*
X129034038Y-128909461D01*
X129018281Y-128910028D01*
X129004402Y-128910817D01*
X128991534Y-128911864D01*
X128978815Y-128913204D01*
X128965377Y-128914873D01*
X128957946Y-128915864D01*
X128869833Y-128930487D01*
X128785335Y-128950030D01*
X128704192Y-128974624D01*
X128626140Y-129004400D01*
X128550918Y-129039489D01*
X128478263Y-129080020D01*
X128407913Y-129126125D01*
X128339605Y-129177934D01*
X128273076Y-129235578D01*
X128227758Y-129279136D01*
X128162618Y-129348246D01*
X128103356Y-129419321D01*
X128049967Y-129492377D01*
X128002443Y-129567427D01*
X127960778Y-129644484D01*
X127924965Y-129723562D01*
X127894998Y-129804675D01*
X127870870Y-129887837D01*
X127852574Y-129973062D01*
X127840103Y-130060362D01*
X127838528Y-130075757D01*
X127836812Y-130098360D01*
X127835485Y-130125599D01*
X127834557Y-130156032D01*
X127834037Y-130188218D01*
X127833935Y-130220716D01*
X127552429Y-130220716D01*
X127552216Y-130206549D01*
X127552095Y-130171922D01*
X127552410Y-130139443D01*
X127553183Y-130110305D01*
X127554440Y-130085698D01*
X127554695Y-130082152D01*
X127565061Y-129982969D01*
X127580951Y-129886557D01*
X127602417Y-129792765D01*
X127629513Y-129701446D01*
X127662292Y-129612450D01*
X127700806Y-129525629D01*
X127745107Y-129440833D01*
X127795250Y-129357914D01*
X127829540Y-129307031D01*
X127890004Y-129226009D01*
X127954964Y-129148942D01*
X128024133Y-129076110D01*
X128097222Y-129007795D01*
X128173942Y-128944277D01*
X128254004Y-128885837D01*
X128279585Y-128868712D01*
X128358901Y-128820003D01*
X128439753Y-128776918D01*
X128522505Y-128739329D01*
X128607520Y-128707105D01*
X128695163Y-128680119D01*
X128785799Y-128658241D01*
X128879790Y-128641344D01*
X128947094Y-128632486D01*
X128967109Y-128630667D01*
X128992187Y-128629084D01*
X129021193Y-128627755D01*
X129052992Y-128626697D01*
X129086451Y-128625928D01*
X129120434Y-128625466D01*
X129153808Y-128625327D01*
X129185437Y-128625529D01*
G37*
X129185437Y-128625529D02*
X129214187Y-128626089D01*
X129238924Y-128627026D01*
X129251788Y-128627806D01*
X129352170Y-128637932D01*
X129449600Y-128653499D01*
X129544174Y-128674541D01*
X129635983Y-128701098D01*
X129725121Y-128733207D01*
X129811682Y-128770903D01*
X129895760Y-128814226D01*
X129977447Y-128863212D01*
X130056838Y-128917898D01*
X130134026Y-128978321D01*
X130136270Y-128980191D01*
X130205773Y-129041505D01*
X130272152Y-129106695D01*
X130334681Y-129174961D01*
X130392637Y-129245503D01*
X130445295Y-129317520D01*
X130456032Y-129333386D01*
X130506441Y-129414292D01*
X130551182Y-129497394D01*
X130590298Y-129582819D01*
X130623830Y-129670694D01*
X130651822Y-129761145D01*
X130674315Y-129854301D01*
X130691353Y-129950286D01*
X130702977Y-130049229D01*
X130705335Y-130078399D01*
X130706467Y-130099241D01*
X130707239Y-130124846D01*
X130707668Y-130154113D01*
X130707770Y-130185943D01*
X130707560Y-130219235D01*
X130707056Y-130252891D01*
X130706273Y-130285811D01*
X130705229Y-130316895D01*
X130703939Y-130345042D01*
X130702419Y-130369154D01*
X130700748Y-130387585D01*
X130686770Y-130487373D01*
X130667627Y-130583763D01*
X130643265Y-130676869D01*
X130613629Y-130766809D01*
X130578663Y-130853697D01*
X130538312Y-130937651D01*
X130492522Y-131018784D01*
X130441236Y-131097214D01*
X130384400Y-131173057D01*
X130321959Y-131246427D01*
X130261999Y-131309370D01*
X130187101Y-131380070D01*
X130109868Y-131445028D01*
X130030265Y-131504261D01*
X129948256Y-131557787D01*
X129863805Y-131605624D01*
X129776876Y-131647787D01*
X129687435Y-131684296D01*
X129595444Y-131715166D01*
X129500870Y-131740416D01*
X129403676Y-131760063D01*
X129306762Y-131773794D01*
X129288102Y-131775461D01*
X129264328Y-131776896D01*
X129236497Y-131778087D01*
X129205669Y-131779026D01*
X129172900Y-131779702D01*
X129139251Y-131780106D01*
X129105778Y-131780228D01*
X129073542Y-131780059D01*
X129043598Y-131779588D01*
X129017007Y-131778807D01*
X128994827Y-131777705D01*
X128982751Y-131776762D01*
X128885747Y-131764825D01*
X128792090Y-131747807D01*
X128701414Y-131725596D01*
X128613351Y-131698077D01*
X128527532Y-131665135D01*
X128443592Y-131626657D01*
X128364312Y-131584332D01*
X128284886Y-131535620D01*
X128207489Y-131481565D01*
X128132593Y-131422644D01*
X128060670Y-131359335D01*
X127992190Y-131292116D01*
X127927625Y-131221463D01*
X127867448Y-131147855D01*
X127812128Y-131071770D01*
X127762138Y-130993684D01*
X127735751Y-130947626D01*
X127695490Y-130869097D01*
X127660486Y-130789744D01*
X127630523Y-130708875D01*
X127605380Y-130625798D01*
X127584842Y-130539822D01*
X127568689Y-130450254D01*
X127560787Y-130392671D01*
X127558542Y-130370186D01*
X127556592Y-130342697D01*
X127554961Y-130311398D01*
X127553673Y-130277478D01*
X127552750Y-130242131D01*
X127552429Y-130220716D01*
X127833935Y-130220716D01*
X127834259Y-130252086D01*
X127835018Y-130280885D01*
X127836222Y-130305674D01*
X127837007Y-130316271D01*
X127847419Y-130404507D01*
X127863300Y-130490015D01*
X127884704Y-130572910D01*
X127911687Y-130653309D01*
X127944303Y-130731325D01*
X127982606Y-130807073D01*
X128026650Y-130880670D01*
X128076490Y-130952230D01*
X128132181Y-131021867D01*
X128193778Y-131089698D01*
X128212255Y-131108548D01*
X128251453Y-131146840D01*
X128288817Y-131181079D01*
X128325751Y-131212503D01*
X128363662Y-131242346D01*
X128368656Y-131246114D01*
X128441753Y-131297317D01*
X128516941Y-131342689D01*
X128594231Y-131382232D01*
X128673629Y-131415948D01*
X128755143Y-131443840D01*
X128838781Y-131465910D01*
X128924550Y-131482160D01*
X129012460Y-131492592D01*
X129102517Y-131497208D01*
X129194729Y-131496011D01*
X129249401Y-131492638D01*
X129335781Y-131482710D01*
X129420941Y-131466742D01*
X129504647Y-131444817D01*
X129586659Y-131417018D01*
X129666743Y-131383428D01*
X129744660Y-131344130D01*
X129820175Y-131299207D01*
X129841603Y-131285130D01*
X129885001Y-131254952D01*
X129925704Y-131224353D01*
X129964961Y-131192282D01*
X130004023Y-131157689D01*
X130044140Y-131119523D01*
X130072680Y-131090973D01*
X130119414Y-131041552D01*
X130161118Y-130993365D01*
X130198532Y-130945372D01*
X130232397Y-130896535D01*
X130263453Y-130845815D01*
X130292439Y-130792172D01*
X130308015Y-130760527D01*
X130334336Y-130701523D01*
X130356978Y-130642350D01*
X130376246Y-130581920D01*
X130392445Y-130519147D01*
X130405881Y-130452947D01*
X130416858Y-130382232D01*
X130418984Y-130365881D01*
X130420833Y-130346917D01*
X130422334Y-130322908D01*
X130423486Y-130294908D01*
X130424290Y-130263970D01*
X130424746Y-130231146D01*
X130424854Y-130197491D01*
X130424615Y-130164057D01*
X130424028Y-130131898D01*
X130423095Y-130102066D01*
X130421815Y-130075615D01*
X130420188Y-130053598D01*
X130418907Y-130041870D01*
X130408985Y-129974933D01*
X130397217Y-129912654D01*
X130383268Y-129853677D01*
X130366804Y-129796646D01*
X130347490Y-129740206D01*
X130339056Y-129717912D01*
X130330965Y-129698438D01*
X130320389Y-129675021D01*
X130308023Y-129649044D01*
X130294564Y-129621886D01*
X130280708Y-129594929D01*
X130267153Y-129569552D01*
X130254594Y-129547137D01*
X130244018Y-129529523D01*
X130213549Y-129483213D01*
X130182225Y-129439671D01*
X130148976Y-129397556D01*
X130112729Y-129355528D01*
X130072412Y-129312246D01*
X130060205Y-129299675D01*
X130010818Y-129250908D01*
X129962901Y-129207160D01*
X129915517Y-129167736D01*
X129867728Y-129131942D01*
X129818597Y-129099082D01*
X129767186Y-129068462D01*
X129712558Y-129039385D01*
X129702087Y-129034151D01*
X129642786Y-129006451D01*
X129584397Y-128982707D01*
X129525657Y-128962539D01*
X129465304Y-128945569D01*
X129402075Y-128931419D01*
X129334708Y-128919710D01*
X129306762Y-128915686D01*
X129292965Y-128913876D01*
X129280195Y-128912405D01*
X129267593Y-128911240D01*
X129254304Y-128910344D01*
X129239468Y-128909685D01*
X129222228Y-128909227D01*
X129201727Y-128908936D01*
X129177107Y-128908777D01*
X129147510Y-128908717D01*
X129133130Y-128908712D01*
X129101217Y-128908743D01*
X129074641Y-128908854D01*
X129052536Y-128909082D01*
X129034038Y-128909461D01*
X129018281Y-128910028D01*
X129004402Y-128910817D01*
X128991534Y-128911864D01*
X128978815Y-128913204D01*
X128965377Y-128914873D01*
X128957946Y-128915864D01*
X128869833Y-128930487D01*
X128785335Y-128950030D01*
X128704192Y-128974624D01*
X128626140Y-129004400D01*
X128550918Y-129039489D01*
X128478263Y-129080020D01*
X128407913Y-129126125D01*
X128339605Y-129177934D01*
X128273076Y-129235578D01*
X128227758Y-129279136D01*
X128162618Y-129348246D01*
X128103356Y-129419321D01*
X128049967Y-129492377D01*
X128002443Y-129567427D01*
X127960778Y-129644484D01*
X127924965Y-129723562D01*
X127894998Y-129804675D01*
X127870870Y-129887837D01*
X127852574Y-129973062D01*
X127840103Y-130060362D01*
X127838528Y-130075757D01*
X127836812Y-130098360D01*
X127835485Y-130125599D01*
X127834557Y-130156032D01*
X127834037Y-130188218D01*
X127833935Y-130220716D01*
X127552429Y-130220716D01*
X127552216Y-130206549D01*
X127552095Y-130171922D01*
X127552410Y-130139443D01*
X127553183Y-130110305D01*
X127554440Y-130085698D01*
X127554695Y-130082152D01*
X127565061Y-129982969D01*
X127580951Y-129886557D01*
X127602417Y-129792765D01*
X127629513Y-129701446D01*
X127662292Y-129612450D01*
X127700806Y-129525629D01*
X127745107Y-129440833D01*
X127795250Y-129357914D01*
X127829540Y-129307031D01*
X127890004Y-129226009D01*
X127954964Y-129148942D01*
X128024133Y-129076110D01*
X128097222Y-129007795D01*
X128173942Y-128944277D01*
X128254004Y-128885837D01*
X128279585Y-128868712D01*
X128358901Y-128820003D01*
X128439753Y-128776918D01*
X128522505Y-128739329D01*
X128607520Y-128707105D01*
X128695163Y-128680119D01*
X128785799Y-128658241D01*
X128879790Y-128641344D01*
X128947094Y-128632486D01*
X128967109Y-128630667D01*
X128992187Y-128629084D01*
X129021193Y-128627755D01*
X129052992Y-128626697D01*
X129086451Y-128625928D01*
X129120434Y-128625466D01*
X129153808Y-128625327D01*
X129185437Y-128625529D01*
D10*
X112270000Y-104930000D02*
X112270000Y-103600000D01*
X113600000Y-104930000D02*
X112270000Y-104930000D01*
X114870000Y-104930000D02*
X114870000Y-102270000D01*
X114870000Y-102270000D02*
X117470000Y-102270000D01*
X114870000Y-104930000D02*
X117470000Y-104930000D01*
X117470000Y-104930000D02*
X117470000Y-102270000D01*
X121670000Y-106330000D02*
X121670000Y-105000000D01*
X123000000Y-106330000D02*
X121670000Y-106330000D01*
X124270000Y-106330000D02*
X124270000Y-103670000D01*
X124270000Y-103670000D02*
X157350000Y-103670000D01*
X124270000Y-106330000D02*
X157350000Y-106330000D01*
X157350000Y-106330000D02*
X157350000Y-103670000D01*
X121670000Y-136330000D02*
X121670000Y-135000000D01*
X123000000Y-136330000D02*
X121670000Y-136330000D01*
X124270000Y-136330000D02*
X124270000Y-133670000D01*
X124270000Y-133670000D02*
X157350000Y-133670000D01*
X124270000Y-136330000D02*
X157350000Y-136330000D01*
X157350000Y-136330000D02*
X157350000Y-133670000D01*
X106765000Y-130630000D02*
X106765000Y-130695000D01*
X103235000Y-130630000D02*
X103235000Y-130695000D01*
X106765000Y-124225000D02*
X106765000Y-124290000D01*
X103235000Y-124225000D02*
X103235000Y-124290000D01*
X101910000Y-124290000D02*
X103235000Y-124290000D01*
X103235000Y-130695000D02*
X106765000Y-130695000D01*
X103235000Y-124225000D02*
X106765000Y-124225000D01*
X98990000Y-118960000D02*
X100650000Y-118960000D01*
X98990000Y-111040000D02*
X98990000Y-118960000D01*
X100650000Y-111040000D02*
X98990000Y-111040000D01*
X108460000Y-117050000D02*
X108460000Y-118200000D01*
X109050000Y-112950000D02*
X109050000Y-113650000D01*
X108460000Y-112950000D02*
X109050000Y-112950000D01*
X108460000Y-111800000D02*
X108460000Y-112950000D01*
X106150000Y-118960000D02*
X103550000Y-118960000D01*
X103550000Y-111040000D02*
X106150000Y-111040000D01*
X118412779Y-113740000D02*
X118087221Y-113740000D01*
X118412779Y-114760000D02*
X118087221Y-114760000D01*
X123900000Y-120150000D02*
X118500000Y-120150000D01*
X123900000Y-116850000D02*
X118500000Y-116850000D01*
X123900000Y-120150000D02*
X123900000Y-116850000D01*
X128060000Y-120258578D02*
X128060000Y-119741422D01*
X126640000Y-120258578D02*
X126640000Y-119741422D01*
X129610000Y-120162779D02*
X129610000Y-119837221D01*
X128590000Y-120162779D02*
X128590000Y-119837221D01*
X142590000Y-119837221D02*
X142590000Y-120162779D01*
X143610000Y-119837221D02*
X143610000Y-120162779D01*
X143352199Y-113543709D02*
X143717883Y-113178025D01*
X144356291Y-114547801D02*
X144721975Y-114182117D01*
X140902369Y-115518880D02*
X141132574Y-115288675D01*
X140181120Y-114797631D02*
X140411325Y-114567426D01*
X163387221Y-120410000D02*
X163712779Y-120410000D01*
X163387221Y-119390000D02*
X163712779Y-119390000D01*
X113237221Y-128910000D02*
X113562779Y-128910000D01*
X113237221Y-127890000D02*
X113562779Y-127890000D01*
X114310000Y-110196078D02*
X114310000Y-109678922D01*
X112890000Y-110196078D02*
X112890000Y-109678922D01*
X120810000Y-110258578D02*
X120810000Y-109741422D01*
X119390000Y-110258578D02*
X119390000Y-109741422D01*
X118412779Y-115240000D02*
X118087221Y-115240000D01*
X118412779Y-116260000D02*
X118087221Y-116260000D01*
X115490000Y-114837221D02*
X115490000Y-115162779D01*
X116510000Y-114837221D02*
X116510000Y-115162779D01*
D12*
X150272380Y-127666666D02*
X149796190Y-128000000D01*
X150272380Y-128238095D02*
X149272380Y-128238095D01*
X149272380Y-127857142D01*
X149320000Y-127761904D01*
X149367619Y-127714285D01*
X149462857Y-127666666D01*
X149605714Y-127666666D01*
X149700952Y-127714285D01*
X149748571Y-127761904D01*
X149796190Y-127857142D01*
X149796190Y-128238095D01*
X149272380Y-127333333D02*
X149272380Y-126714285D01*
X149653333Y-127047619D01*
X149653333Y-126904761D01*
X149700952Y-126809523D01*
X149748571Y-126761904D01*
X149843809Y-126714285D01*
X150081904Y-126714285D01*
X150177142Y-126761904D01*
X150224761Y-126809523D01*
X150272380Y-126904761D01*
X150272380Y-127190476D01*
X150224761Y-127285714D01*
X150177142Y-127333333D01*
D13*
X152350714Y-127464285D02*
X152184047Y-127464285D01*
X152184047Y-127726190D02*
X152184047Y-127226190D01*
X152422142Y-127226190D01*
X152850714Y-127726190D02*
X152612619Y-127726190D01*
X152612619Y-127226190D01*
X152993571Y-127583333D02*
X153231666Y-127583333D01*
X152945952Y-127726190D02*
X153112619Y-127226190D01*
X153279285Y-127726190D01*
X153422142Y-127702380D02*
X153493571Y-127726190D01*
X153612619Y-127726190D01*
X153660238Y-127702380D01*
X153684047Y-127678571D01*
X153707857Y-127630952D01*
X153707857Y-127583333D01*
X153684047Y-127535714D01*
X153660238Y-127511904D01*
X153612619Y-127488095D01*
X153517380Y-127464285D01*
X153469761Y-127440476D01*
X153445952Y-127416666D01*
X153422142Y-127369047D01*
X153422142Y-127321428D01*
X153445952Y-127273809D01*
X153469761Y-127250000D01*
X153517380Y-127226190D01*
X153636428Y-127226190D01*
X153707857Y-127250000D01*
X153922142Y-127726190D02*
X153922142Y-127226190D01*
X153922142Y-127464285D02*
X154207857Y-127464285D01*
X154207857Y-127726190D02*
X154207857Y-127226190D01*
X154993571Y-127464285D02*
X155065000Y-127488095D01*
X155088809Y-127511904D01*
X155112619Y-127559523D01*
X155112619Y-127630952D01*
X155088809Y-127678571D01*
X155065000Y-127702380D01*
X155017380Y-127726190D01*
X154826904Y-127726190D01*
X154826904Y-127226190D01*
X154993571Y-127226190D01*
X155041190Y-127250000D01*
X155065000Y-127273809D01*
X155088809Y-127321428D01*
X155088809Y-127369047D01*
X155065000Y-127416666D01*
X155041190Y-127440476D01*
X154993571Y-127464285D01*
X154826904Y-127464285D01*
X155422142Y-127226190D02*
X155517380Y-127226190D01*
X155565000Y-127250000D01*
X155612619Y-127297619D01*
X155636428Y-127392857D01*
X155636428Y-127559523D01*
X155612619Y-127654761D01*
X155565000Y-127702380D01*
X155517380Y-127726190D01*
X155422142Y-127726190D01*
X155374523Y-127702380D01*
X155326904Y-127654761D01*
X155303095Y-127559523D01*
X155303095Y-127392857D01*
X155326904Y-127297619D01*
X155374523Y-127250000D01*
X155422142Y-127226190D01*
X155945952Y-127226190D02*
X156041190Y-127226190D01*
X156088809Y-127250000D01*
X156136428Y-127297619D01*
X156160238Y-127392857D01*
X156160238Y-127559523D01*
X156136428Y-127654761D01*
X156088809Y-127702380D01*
X156041190Y-127726190D01*
X155945952Y-127726190D01*
X155898333Y-127702380D01*
X155850714Y-127654761D01*
X155826904Y-127559523D01*
X155826904Y-127392857D01*
X155850714Y-127297619D01*
X155898333Y-127250000D01*
X155945952Y-127226190D01*
X156303095Y-127226190D02*
X156588809Y-127226190D01*
X156445952Y-127726190D02*
X156445952Y-127226190D01*
D12*
X150272380Y-124666666D02*
X149796190Y-125000000D01*
X150272380Y-125238095D02*
X149272380Y-125238095D01*
X149272380Y-124857142D01*
X149320000Y-124761904D01*
X149367619Y-124714285D01*
X149462857Y-124666666D01*
X149605714Y-124666666D01*
X149700952Y-124714285D01*
X149748571Y-124761904D01*
X149796190Y-124857142D01*
X149796190Y-125238095D01*
X149367619Y-124285714D02*
X149320000Y-124238095D01*
X149272380Y-124142857D01*
X149272380Y-123904761D01*
X149320000Y-123809523D01*
X149367619Y-123761904D01*
X149462857Y-123714285D01*
X149558095Y-123714285D01*
X149700952Y-123761904D01*
X150272380Y-124333333D01*
X150272380Y-123714285D01*
D13*
X152184047Y-123726190D02*
X152184047Y-123226190D01*
X152303095Y-123226190D01*
X152374523Y-123250000D01*
X152422142Y-123297619D01*
X152445952Y-123345238D01*
X152469761Y-123440476D01*
X152469761Y-123511904D01*
X152445952Y-123607142D01*
X152422142Y-123654761D01*
X152374523Y-123702380D01*
X152303095Y-123726190D01*
X152184047Y-123726190D01*
X152684047Y-123726190D02*
X152684047Y-123226190D01*
X152969761Y-123726190D01*
X152969761Y-123226190D01*
X153207857Y-123726190D02*
X153207857Y-123226190D01*
X153398333Y-123226190D01*
X153445952Y-123250000D01*
X153469761Y-123273809D01*
X153493571Y-123321428D01*
X153493571Y-123392857D01*
X153469761Y-123440476D01*
X153445952Y-123464285D01*
X153398333Y-123488095D01*
X153207857Y-123488095D01*
X152469761Y-124726190D02*
X152303095Y-124488095D01*
X152184047Y-124726190D02*
X152184047Y-124226190D01*
X152374523Y-124226190D01*
X152422142Y-124250000D01*
X152445952Y-124273809D01*
X152469761Y-124321428D01*
X152469761Y-124392857D01*
X152445952Y-124440476D01*
X152422142Y-124464285D01*
X152374523Y-124488095D01*
X152184047Y-124488095D01*
X152660238Y-124583333D02*
X152898333Y-124583333D01*
X152612619Y-124726190D02*
X152779285Y-124226190D01*
X152945952Y-124726190D01*
X153112619Y-124726190D02*
X153112619Y-124226190D01*
X153279285Y-124583333D01*
X153445952Y-124226190D01*
X153445952Y-124726190D01*
X154041190Y-124202380D02*
X153612619Y-124845238D01*
X154184047Y-124702380D02*
X154255476Y-124726190D01*
X154374523Y-124726190D01*
X154422142Y-124702380D01*
X154445952Y-124678571D01*
X154469761Y-124630952D01*
X154469761Y-124583333D01*
X154445952Y-124535714D01*
X154422142Y-124511904D01*
X154374523Y-124488095D01*
X154279285Y-124464285D01*
X154231666Y-124440476D01*
X154207857Y-124416666D01*
X154184047Y-124369047D01*
X154184047Y-124321428D01*
X154207857Y-124273809D01*
X154231666Y-124250000D01*
X154279285Y-124226190D01*
X154398333Y-124226190D01*
X154469761Y-124250000D01*
X154779285Y-124488095D02*
X154779285Y-124726190D01*
X154612619Y-124226190D02*
X154779285Y-124488095D01*
X154945952Y-124226190D01*
X155088809Y-124702380D02*
X155160238Y-124726190D01*
X155279285Y-124726190D01*
X155326904Y-124702380D01*
X155350714Y-124678571D01*
X155374523Y-124630952D01*
X155374523Y-124583333D01*
X155350714Y-124535714D01*
X155326904Y-124511904D01*
X155279285Y-124488095D01*
X155184047Y-124464285D01*
X155136428Y-124440476D01*
X155112619Y-124416666D01*
X155088809Y-124369047D01*
X155088809Y-124321428D01*
X155112619Y-124273809D01*
X155136428Y-124250000D01*
X155184047Y-124226190D01*
X155303095Y-124226190D01*
X155374523Y-124250000D01*
X156136428Y-124464285D02*
X156207857Y-124488095D01*
X156231666Y-124511904D01*
X156255476Y-124559523D01*
X156255476Y-124630952D01*
X156231666Y-124678571D01*
X156207857Y-124702380D01*
X156160238Y-124726190D01*
X155969761Y-124726190D01*
X155969761Y-124226190D01*
X156136428Y-124226190D01*
X156184047Y-124250000D01*
X156207857Y-124273809D01*
X156231666Y-124321428D01*
X156231666Y-124369047D01*
X156207857Y-124416666D01*
X156184047Y-124440476D01*
X156136428Y-124464285D01*
X155969761Y-124464285D01*
X156565000Y-124226190D02*
X156660238Y-124226190D01*
X156707857Y-124250000D01*
X156755476Y-124297619D01*
X156779285Y-124392857D01*
X156779285Y-124559523D01*
X156755476Y-124654761D01*
X156707857Y-124702380D01*
X156660238Y-124726190D01*
X156565000Y-124726190D01*
X156517380Y-124702380D01*
X156469761Y-124654761D01*
X156445952Y-124559523D01*
X156445952Y-124392857D01*
X156469761Y-124297619D01*
X156517380Y-124250000D01*
X156565000Y-124226190D01*
X157088809Y-124226190D02*
X157184047Y-124226190D01*
X157231666Y-124250000D01*
X157279285Y-124297619D01*
X157303095Y-124392857D01*
X157303095Y-124559523D01*
X157279285Y-124654761D01*
X157231666Y-124702380D01*
X157184047Y-124726190D01*
X157088809Y-124726190D01*
X157041190Y-124702380D01*
X156993571Y-124654761D01*
X156969761Y-124559523D01*
X156969761Y-124392857D01*
X156993571Y-124297619D01*
X157041190Y-124250000D01*
X157088809Y-124226190D01*
X157445952Y-124226190D02*
X157731666Y-124226190D01*
X157588809Y-124726190D02*
X157588809Y-124226190D01*
D12*
X167261904Y-113252380D02*
X167261904Y-112252380D01*
X167500000Y-112252380D01*
X167642857Y-112300000D01*
X167738095Y-112395238D01*
X167785714Y-112490476D01*
X167833333Y-112680952D01*
X167833333Y-112823809D01*
X167785714Y-113014285D01*
X167738095Y-113109523D01*
X167642857Y-113204761D01*
X167500000Y-113252380D01*
X167261904Y-113252380D01*
X168214285Y-112347619D02*
X168261904Y-112300000D01*
X168357142Y-112252380D01*
X168595238Y-112252380D01*
X168690476Y-112300000D01*
X168738095Y-112347619D01*
X168785714Y-112442857D01*
X168785714Y-112538095D01*
X168738095Y-112680952D01*
X168166666Y-113252380D01*
X168785714Y-113252380D01*
X160333333Y-113252380D02*
X160333333Y-112252380D01*
X160714285Y-112252380D01*
X160809523Y-112300000D01*
X160857142Y-112347619D01*
X160904761Y-112442857D01*
X160904761Y-112585714D01*
X160857142Y-112680952D01*
X160809523Y-112728571D01*
X160714285Y-112776190D01*
X160333333Y-112776190D01*
X161285714Y-112966666D02*
X161761904Y-112966666D01*
X161190476Y-113252380D02*
X161523809Y-112252380D01*
X161857142Y-113252380D01*
X162380952Y-112252380D02*
X162476190Y-112252380D01*
X162571428Y-112300000D01*
X162619047Y-112347619D01*
X162666666Y-112442857D01*
X162714285Y-112633333D01*
X162714285Y-112871428D01*
X162666666Y-113061904D01*
X162619047Y-113157142D01*
X162571428Y-113204761D01*
X162476190Y-113252380D01*
X162380952Y-113252380D01*
X162285714Y-113204761D01*
X162238095Y-113157142D01*
X162190476Y-113061904D01*
X162142857Y-112871428D01*
X162142857Y-112633333D01*
X162190476Y-112442857D01*
X162238095Y-112347619D01*
X162285714Y-112300000D01*
X162380952Y-112252380D01*
X167261904Y-114752380D02*
X167261904Y-113752380D01*
X167500000Y-113752380D01*
X167642857Y-113800000D01*
X167738095Y-113895238D01*
X167785714Y-113990476D01*
X167833333Y-114180952D01*
X167833333Y-114323809D01*
X167785714Y-114514285D01*
X167738095Y-114609523D01*
X167642857Y-114704761D01*
X167500000Y-114752380D01*
X167261904Y-114752380D01*
X168166666Y-113752380D02*
X168785714Y-113752380D01*
X168452380Y-114133333D01*
X168595238Y-114133333D01*
X168690476Y-114180952D01*
X168738095Y-114228571D01*
X168785714Y-114323809D01*
X168785714Y-114561904D01*
X168738095Y-114657142D01*
X168690476Y-114704761D01*
X168595238Y-114752380D01*
X168309523Y-114752380D01*
X168214285Y-114704761D01*
X168166666Y-114657142D01*
X160333333Y-114752380D02*
X160333333Y-113752380D01*
X160714285Y-113752380D01*
X160809523Y-113800000D01*
X160857142Y-113847619D01*
X160904761Y-113942857D01*
X160904761Y-114085714D01*
X160857142Y-114180952D01*
X160809523Y-114228571D01*
X160714285Y-114276190D01*
X160333333Y-114276190D01*
X161285714Y-114466666D02*
X161761904Y-114466666D01*
X161190476Y-114752380D02*
X161523809Y-113752380D01*
X161857142Y-114752380D01*
X162714285Y-114752380D02*
X162142857Y-114752380D01*
X162428571Y-114752380D02*
X162428571Y-113752380D01*
X162333333Y-113895238D01*
X162238095Y-113990476D01*
X162142857Y-114038095D01*
X167833333Y-111652380D02*
X167500000Y-111176190D01*
X167261904Y-111652380D02*
X167261904Y-110652380D01*
X167642857Y-110652380D01*
X167738095Y-110700000D01*
X167785714Y-110747619D01*
X167833333Y-110842857D01*
X167833333Y-110985714D01*
X167785714Y-111080952D01*
X167738095Y-111128571D01*
X167642857Y-111176190D01*
X167261904Y-111176190D01*
X168690476Y-110652380D02*
X168500000Y-110652380D01*
X168404761Y-110700000D01*
X168357142Y-110747619D01*
X168261904Y-110890476D01*
X168214285Y-111080952D01*
X168214285Y-111461904D01*
X168261904Y-111557142D01*
X168309523Y-111604761D01*
X168404761Y-111652380D01*
X168595238Y-111652380D01*
X168690476Y-111604761D01*
X168738095Y-111557142D01*
X168785714Y-111461904D01*
X168785714Y-111223809D01*
X168738095Y-111128571D01*
X168690476Y-111080952D01*
X168595238Y-111033333D01*
X168404761Y-111033333D01*
X168309523Y-111080952D01*
X168261904Y-111128571D01*
X168214285Y-111223809D01*
X167833333Y-116452380D02*
X167500000Y-115976190D01*
X167261904Y-116452380D02*
X167261904Y-115452380D01*
X167642857Y-115452380D01*
X167738095Y-115500000D01*
X167785714Y-115547619D01*
X167833333Y-115642857D01*
X167833333Y-115785714D01*
X167785714Y-115880952D01*
X167738095Y-115928571D01*
X167642857Y-115976190D01*
X167261904Y-115976190D01*
X168166666Y-115452380D02*
X168833333Y-115452380D01*
X168404761Y-116452380D01*
X109661904Y-106852380D02*
X109661904Y-105852380D01*
X109900000Y-105852380D01*
X110042857Y-105900000D01*
X110138095Y-105995238D01*
X110185714Y-106090476D01*
X110233333Y-106280952D01*
X110233333Y-106423809D01*
X110185714Y-106614285D01*
X110138095Y-106709523D01*
X110042857Y-106804761D01*
X109900000Y-106852380D01*
X109661904Y-106852380D01*
X111185714Y-106852380D02*
X110614285Y-106852380D01*
X110900000Y-106852380D02*
X110900000Y-105852380D01*
X110804761Y-105995238D01*
X110709523Y-106090476D01*
X110614285Y-106138095D01*
D10*
X114402380Y-108111904D02*
X114402380Y-107311904D01*
X114707142Y-107311904D01*
X114783333Y-107350000D01*
X114821428Y-107388095D01*
X114859523Y-107464285D01*
X114859523Y-107578571D01*
X114821428Y-107654761D01*
X114783333Y-107692857D01*
X114707142Y-107730952D01*
X114402380Y-107730952D01*
X115354761Y-107311904D02*
X115507142Y-107311904D01*
X115583333Y-107350000D01*
X115659523Y-107426190D01*
X115697619Y-107578571D01*
X115697619Y-107845238D01*
X115659523Y-107997619D01*
X115583333Y-108073809D01*
X115507142Y-108111904D01*
X115354761Y-108111904D01*
X115278571Y-108073809D01*
X115202380Y-107997619D01*
X115164285Y-107845238D01*
X115164285Y-107578571D01*
X115202380Y-107426190D01*
X115278571Y-107350000D01*
X115354761Y-107311904D01*
X115964285Y-107311904D02*
X116154761Y-108111904D01*
X116307142Y-107540476D01*
X116459523Y-108111904D01*
X116650000Y-107311904D01*
X116954761Y-107692857D02*
X117221428Y-107692857D01*
X117335714Y-108111904D02*
X116954761Y-108111904D01*
X116954761Y-107311904D01*
X117335714Y-107311904D01*
X118135714Y-108111904D02*
X117869047Y-107730952D01*
X117678571Y-108111904D02*
X117678571Y-107311904D01*
X117983333Y-107311904D01*
X118059523Y-107350000D01*
X118097619Y-107388095D01*
X118135714Y-107464285D01*
X118135714Y-107578571D01*
X118097619Y-107654761D01*
X118059523Y-107692857D01*
X117983333Y-107730952D01*
X117678571Y-107730952D01*
D12*
X119433333Y-106852380D02*
X119100000Y-106376190D01*
X118861904Y-106852380D02*
X118861904Y-105852380D01*
X119242857Y-105852380D01*
X119338095Y-105900000D01*
X119385714Y-105947619D01*
X119433333Y-106042857D01*
X119433333Y-106185714D01*
X119385714Y-106280952D01*
X119338095Y-106328571D01*
X119242857Y-106376190D01*
X118861904Y-106376190D01*
X120385714Y-106852380D02*
X119814285Y-106852380D01*
X120100000Y-106852380D02*
X120100000Y-105852380D01*
X120004761Y-105995238D01*
X119909523Y-106090476D01*
X119814285Y-106138095D01*
X154757142Y-119366666D02*
X154804761Y-119414285D01*
X154852380Y-119557142D01*
X154852380Y-119652380D01*
X154804761Y-119795238D01*
X154709523Y-119890476D01*
X154614285Y-119938095D01*
X154423809Y-119985714D01*
X154280952Y-119985714D01*
X154090476Y-119938095D01*
X153995238Y-119890476D01*
X153900000Y-119795238D01*
X153852380Y-119652380D01*
X153852380Y-119557142D01*
X153900000Y-119414285D01*
X153947619Y-119366666D01*
X153852380Y-119033333D02*
X153852380Y-118366666D01*
X154852380Y-118795238D01*
X145352380Y-119109523D02*
X146352380Y-118442857D01*
X145352380Y-118442857D02*
X146352380Y-119109523D01*
X146352380Y-117538095D02*
X146352380Y-118109523D01*
X146352380Y-117823809D02*
X145352380Y-117823809D01*
X145495238Y-117919047D01*
X145590476Y-118014285D01*
X145638095Y-118109523D01*
X139331814Y-124309310D02*
X139904234Y-124881730D01*
X140005249Y-124915402D01*
X140072593Y-124915402D01*
X140173608Y-124881730D01*
X140308295Y-124747043D01*
X140341967Y-124646028D01*
X140341967Y-124578684D01*
X140308295Y-124477669D01*
X139735875Y-123905249D01*
X141150089Y-123905249D02*
X140746028Y-124309310D01*
X140948058Y-124107280D02*
X140240952Y-123400173D01*
X140274623Y-123568532D01*
X140274623Y-123703219D01*
X140240952Y-123804234D01*
X111238095Y-111852380D02*
X111238095Y-112661904D01*
X111285714Y-112757142D01*
X111333333Y-112804761D01*
X111428571Y-112852380D01*
X111619047Y-112852380D01*
X111714285Y-112804761D01*
X111761904Y-112757142D01*
X111809523Y-112661904D01*
X111809523Y-111852380D01*
X112190476Y-111852380D02*
X112809523Y-111852380D01*
X112476190Y-112233333D01*
X112619047Y-112233333D01*
X112714285Y-112280952D01*
X112761904Y-112328571D01*
X112809523Y-112423809D01*
X112809523Y-112661904D01*
X112761904Y-112757142D01*
X112714285Y-112804761D01*
X112619047Y-112852380D01*
X112333333Y-112852380D01*
X112238095Y-112804761D01*
X112190476Y-112757142D01*
X116088095Y-111902380D02*
X116088095Y-112711904D01*
X116135714Y-112807142D01*
X116183333Y-112854761D01*
X116278571Y-112902380D01*
X116469047Y-112902380D01*
X116564285Y-112854761D01*
X116611904Y-112807142D01*
X116659523Y-112711904D01*
X116659523Y-111902380D01*
X117088095Y-111997619D02*
X117135714Y-111950000D01*
X117230952Y-111902380D01*
X117469047Y-111902380D01*
X117564285Y-111950000D01*
X117611904Y-111997619D01*
X117659523Y-112092857D01*
X117659523Y-112188095D01*
X117611904Y-112330952D01*
X117040476Y-112902380D01*
X117659523Y-112902380D01*
X166416666Y-120904761D02*
X166559523Y-120952380D01*
X166797619Y-120952380D01*
X166892857Y-120904761D01*
X166940476Y-120857142D01*
X166988095Y-120761904D01*
X166988095Y-120666666D01*
X166940476Y-120571428D01*
X166892857Y-120523809D01*
X166797619Y-120476190D01*
X166607142Y-120428571D01*
X166511904Y-120380952D01*
X166464285Y-120333333D01*
X166416666Y-120238095D01*
X166416666Y-120142857D01*
X166464285Y-120047619D01*
X166511904Y-120000000D01*
X166607142Y-119952380D01*
X166845238Y-119952380D01*
X166988095Y-120000000D01*
X167321428Y-119952380D02*
X167559523Y-120952380D01*
X167750000Y-120238095D01*
X167940476Y-120952380D01*
X168178571Y-119952380D01*
X168511904Y-120047619D02*
X168559523Y-120000000D01*
X168654761Y-119952380D01*
X168892857Y-119952380D01*
X168988095Y-120000000D01*
X169035714Y-120047619D01*
X169083333Y-120142857D01*
X169083333Y-120238095D01*
X169035714Y-120380952D01*
X168464285Y-120952380D01*
X169083333Y-120952380D01*
X159785714Y-128952380D02*
X159785714Y-129761904D01*
X159833333Y-129857142D01*
X159880952Y-129904761D01*
X159976190Y-129952380D01*
X160166666Y-129952380D01*
X160261904Y-129904761D01*
X160309523Y-129857142D01*
X160357142Y-129761904D01*
X160357142Y-128952380D01*
X160785714Y-129904761D02*
X160928571Y-129952380D01*
X161166666Y-129952380D01*
X161261904Y-129904761D01*
X161309523Y-129857142D01*
X161357142Y-129761904D01*
X161357142Y-129666666D01*
X161309523Y-129571428D01*
X161261904Y-129523809D01*
X161166666Y-129476190D01*
X160976190Y-129428571D01*
X160880952Y-129380952D01*
X160833333Y-129333333D01*
X160785714Y-129238095D01*
X160785714Y-129142857D01*
X160833333Y-129047619D01*
X160880952Y-129000000D01*
X160976190Y-128952380D01*
X161214285Y-128952380D01*
X161357142Y-129000000D01*
X161785714Y-129428571D02*
X162119047Y-129428571D01*
X162261904Y-129952380D02*
X161785714Y-129952380D01*
X161785714Y-128952380D01*
X162261904Y-128952380D01*
X163261904Y-129952380D02*
X162928571Y-129476190D01*
X162690476Y-129952380D02*
X162690476Y-128952380D01*
X163071428Y-128952380D01*
X163166666Y-129000000D01*
X163214285Y-129047619D01*
X163261904Y-129142857D01*
X163261904Y-129285714D01*
X163214285Y-129380952D01*
X163166666Y-129428571D01*
X163071428Y-129476190D01*
X162690476Y-129476190D01*
X166333333Y-129952380D02*
X166333333Y-128952380D01*
X166714285Y-128952380D01*
X166809523Y-129000000D01*
X166857142Y-129047619D01*
X166904761Y-129142857D01*
X166904761Y-129285714D01*
X166857142Y-129380952D01*
X166809523Y-129428571D01*
X166714285Y-129476190D01*
X166333333Y-129476190D01*
X167285714Y-129666666D02*
X167761904Y-129666666D01*
X167190476Y-129952380D02*
X167523809Y-128952380D01*
X167857142Y-129952380D01*
X168142857Y-129047619D02*
X168190476Y-129000000D01*
X168285714Y-128952380D01*
X168523809Y-128952380D01*
X168619047Y-129000000D01*
X168666666Y-129047619D01*
X168714285Y-129142857D01*
X168714285Y-129238095D01*
X168666666Y-129380952D01*
X168095238Y-129952380D01*
X168714285Y-129952380D01*
X119404761Y-132133333D02*
X119452380Y-131990476D01*
X119452380Y-131752380D01*
X119404761Y-131657142D01*
X119357142Y-131609523D01*
X119261904Y-131561904D01*
X119166666Y-131561904D01*
X119071428Y-131609523D01*
X119023809Y-131657142D01*
X118976190Y-131752380D01*
X118928571Y-131942857D01*
X118880952Y-132038095D01*
X118833333Y-132085714D01*
X118738095Y-132133333D01*
X118642857Y-132133333D01*
X118547619Y-132085714D01*
X118500000Y-132038095D01*
X118452380Y-131942857D01*
X118452380Y-131704761D01*
X118500000Y-131561904D01*
X118452380Y-131228571D02*
X119452380Y-130990476D01*
X118738095Y-130800000D01*
X119452380Y-130609523D01*
X118452380Y-130371428D01*
X119452380Y-129466666D02*
X119452380Y-130038095D01*
X119452380Y-129752380D02*
X118452380Y-129752380D01*
X118595238Y-129847619D01*
X118690476Y-129942857D01*
X118738095Y-130038095D01*
X119452380Y-138452380D02*
X118976190Y-138785714D01*
X119452380Y-139023809D02*
X118452380Y-139023809D01*
X118452380Y-138642857D01*
X118500000Y-138547619D01*
X118547619Y-138500000D01*
X118642857Y-138452380D01*
X118785714Y-138452380D01*
X118880952Y-138500000D01*
X118928571Y-138547619D01*
X118976190Y-138642857D01*
X118976190Y-139023809D01*
X118928571Y-138023809D02*
X118928571Y-137690476D01*
X119452380Y-137547619D02*
X119452380Y-138023809D01*
X118452380Y-138023809D01*
X118452380Y-137547619D01*
X119404761Y-137166666D02*
X119452380Y-137023809D01*
X119452380Y-136785714D01*
X119404761Y-136690476D01*
X119357142Y-136642857D01*
X119261904Y-136595238D01*
X119166666Y-136595238D01*
X119071428Y-136642857D01*
X119023809Y-136690476D01*
X118976190Y-136785714D01*
X118928571Y-136976190D01*
X118880952Y-137071428D01*
X118833333Y-137119047D01*
X118738095Y-137166666D01*
X118642857Y-137166666D01*
X118547619Y-137119047D01*
X118500000Y-137071428D01*
X118452380Y-136976190D01*
X118452380Y-136738095D01*
X118500000Y-136595238D01*
X118928571Y-136166666D02*
X118928571Y-135833333D01*
X119452380Y-135690476D02*
X119452380Y-136166666D01*
X118452380Y-136166666D01*
X118452380Y-135690476D01*
X118452380Y-135404761D02*
X118452380Y-134833333D01*
X119452380Y-135119047D02*
X118452380Y-135119047D01*
X160433333Y-118852380D02*
X160100000Y-118376190D01*
X159861904Y-118852380D02*
X159861904Y-117852380D01*
X160242857Y-117852380D01*
X160338095Y-117900000D01*
X160385714Y-117947619D01*
X160433333Y-118042857D01*
X160433333Y-118185714D01*
X160385714Y-118280952D01*
X160338095Y-118328571D01*
X160242857Y-118376190D01*
X159861904Y-118376190D01*
X161338095Y-117852380D02*
X160861904Y-117852380D01*
X160814285Y-118328571D01*
X160861904Y-118280952D01*
X160957142Y-118233333D01*
X161195238Y-118233333D01*
X161290476Y-118280952D01*
X161338095Y-118328571D01*
X161385714Y-118423809D01*
X161385714Y-118661904D01*
X161338095Y-118757142D01*
X161290476Y-118804761D01*
X161195238Y-118852380D01*
X160957142Y-118852380D01*
X160861904Y-118804761D01*
X160814285Y-118757142D01*
X145833333Y-124202380D02*
X145500000Y-123726190D01*
X145261904Y-124202380D02*
X145261904Y-123202380D01*
X145642857Y-123202380D01*
X145738095Y-123250000D01*
X145785714Y-123297619D01*
X145833333Y-123392857D01*
X145833333Y-123535714D01*
X145785714Y-123630952D01*
X145738095Y-123678571D01*
X145642857Y-123726190D01*
X145261904Y-123726190D01*
X146690476Y-123535714D02*
X146690476Y-124202380D01*
X146452380Y-123154761D02*
X146214285Y-123869047D01*
X146833333Y-123869047D01*
X110722380Y-104433333D02*
X111436666Y-104433333D01*
X111579523Y-104480952D01*
X111674761Y-104576190D01*
X111722380Y-104719047D01*
X111722380Y-104814285D01*
X111722380Y-103957142D02*
X110722380Y-103957142D01*
X110722380Y-103576190D01*
X110770000Y-103480952D01*
X110817619Y-103433333D01*
X110912857Y-103385714D01*
X111055714Y-103385714D01*
X111150952Y-103433333D01*
X111198571Y-103480952D01*
X111246190Y-103576190D01*
X111246190Y-103957142D01*
X111722380Y-102433333D02*
X111722380Y-103004761D01*
X111722380Y-102719047D02*
X110722380Y-102719047D01*
X110865238Y-102814285D01*
X110960476Y-102909523D01*
X111008095Y-103004761D01*
X111761904Y-100452380D02*
X112380952Y-100452380D01*
X112047619Y-100833333D01*
X112190476Y-100833333D01*
X112285714Y-100880952D01*
X112333333Y-100928571D01*
X112380952Y-101023809D01*
X112380952Y-101261904D01*
X112333333Y-101357142D01*
X112285714Y-101404761D01*
X112190476Y-101452380D01*
X111904761Y-101452380D01*
X111809523Y-101404761D01*
X111761904Y-101357142D01*
X112666666Y-100452380D02*
X113000000Y-101452380D01*
X113333333Y-100452380D01*
X113571428Y-100452380D02*
X114190476Y-100452380D01*
X113857142Y-100833333D01*
X114000000Y-100833333D01*
X114095238Y-100880952D01*
X114142857Y-100928571D01*
X114190476Y-101023809D01*
X114190476Y-101261904D01*
X114142857Y-101357142D01*
X114095238Y-101404761D01*
X114000000Y-101452380D01*
X113714285Y-101452380D01*
X113619047Y-101404761D01*
X113571428Y-101357142D01*
X115166666Y-100452380D02*
X115500000Y-101452380D01*
X115833333Y-100452380D01*
X116166666Y-101452380D02*
X116166666Y-100452380D01*
X116404761Y-100452380D01*
X116547619Y-100500000D01*
X116642857Y-100595238D01*
X116690476Y-100690476D01*
X116738095Y-100880952D01*
X116738095Y-101023809D01*
X116690476Y-101214285D01*
X116642857Y-101309523D01*
X116547619Y-101404761D01*
X116404761Y-101452380D01*
X116166666Y-101452380D01*
X117166666Y-101452380D02*
X117166666Y-100452380D01*
X117404761Y-100452380D01*
X117547619Y-100500000D01*
X117642857Y-100595238D01*
X117690476Y-100690476D01*
X117738095Y-100880952D01*
X117738095Y-101023809D01*
X117690476Y-101214285D01*
X117642857Y-101309523D01*
X117547619Y-101404761D01*
X117404761Y-101452380D01*
X117166666Y-101452380D01*
X120122380Y-105333333D02*
X120836666Y-105333333D01*
X120979523Y-105380952D01*
X121074761Y-105476190D01*
X121122380Y-105619047D01*
X121122380Y-105714285D01*
X120455714Y-104428571D02*
X121122380Y-104428571D01*
X120074761Y-104666666D02*
X120789047Y-104904761D01*
X120789047Y-104285714D01*
D10*
X122751904Y-102855571D02*
X122751904Y-103236523D01*
X123132857Y-103274619D01*
X123094761Y-103236523D01*
X123056666Y-103160333D01*
X123056666Y-102969857D01*
X123094761Y-102893666D01*
X123132857Y-102855571D01*
X123209047Y-102817476D01*
X123399523Y-102817476D01*
X123475714Y-102855571D01*
X123513809Y-102893666D01*
X123551904Y-102969857D01*
X123551904Y-103160333D01*
X123513809Y-103236523D01*
X123475714Y-103274619D01*
X122751904Y-102588904D02*
X123551904Y-102322238D01*
X122751904Y-102055571D01*
X125330000Y-102817476D02*
X125291904Y-102893666D01*
X125291904Y-103007952D01*
X125330000Y-103122238D01*
X125406190Y-103198428D01*
X125482380Y-103236523D01*
X125634761Y-103274619D01*
X125749047Y-103274619D01*
X125901428Y-103236523D01*
X125977619Y-103198428D01*
X126053809Y-103122238D01*
X126091904Y-103007952D01*
X126091904Y-102931761D01*
X126053809Y-102817476D01*
X126015714Y-102779380D01*
X125749047Y-102779380D01*
X125749047Y-102931761D01*
X126091904Y-102436523D02*
X125291904Y-102436523D01*
X126091904Y-101979380D01*
X125291904Y-101979380D01*
X126091904Y-101598428D02*
X125291904Y-101598428D01*
X125291904Y-101407952D01*
X125330000Y-101293666D01*
X125406190Y-101217476D01*
X125482380Y-101179380D01*
X125634761Y-101141285D01*
X125749047Y-101141285D01*
X125901428Y-101179380D01*
X125977619Y-101217476D01*
X126053809Y-101293666D01*
X126091904Y-101407952D01*
X126091904Y-101598428D01*
X128631904Y-103236523D02*
X127831904Y-103236523D01*
X127831904Y-102931761D01*
X127870000Y-102855571D01*
X127908095Y-102817476D01*
X127984285Y-102779380D01*
X128098571Y-102779380D01*
X128174761Y-102817476D01*
X128212857Y-102855571D01*
X128250952Y-102931761D01*
X128250952Y-103236523D01*
X128403333Y-102474619D02*
X128403333Y-102093666D01*
X128631904Y-102550809D02*
X127831904Y-102284142D01*
X128631904Y-102017476D01*
X128174761Y-101636523D02*
X128136666Y-101712714D01*
X128098571Y-101750809D01*
X128022380Y-101788904D01*
X127984285Y-101788904D01*
X127908095Y-101750809D01*
X127870000Y-101712714D01*
X127831904Y-101636523D01*
X127831904Y-101484142D01*
X127870000Y-101407952D01*
X127908095Y-101369857D01*
X127984285Y-101331761D01*
X128022380Y-101331761D01*
X128098571Y-101369857D01*
X128136666Y-101407952D01*
X128174761Y-101484142D01*
X128174761Y-101636523D01*
X128212857Y-101712714D01*
X128250952Y-101750809D01*
X128327142Y-101788904D01*
X128479523Y-101788904D01*
X128555714Y-101750809D01*
X128593809Y-101712714D01*
X128631904Y-101636523D01*
X128631904Y-101484142D01*
X128593809Y-101407952D01*
X128555714Y-101369857D01*
X128479523Y-101331761D01*
X128327142Y-101331761D01*
X128250952Y-101369857D01*
X128212857Y-101407952D01*
X128174761Y-101484142D01*
X131171904Y-103236523D02*
X130371904Y-103236523D01*
X130371904Y-102931761D01*
X130410000Y-102855571D01*
X130448095Y-102817476D01*
X130524285Y-102779380D01*
X130638571Y-102779380D01*
X130714761Y-102817476D01*
X130752857Y-102855571D01*
X130790952Y-102931761D01*
X130790952Y-103236523D01*
X130752857Y-102169857D02*
X130790952Y-102055571D01*
X130829047Y-102017476D01*
X130905238Y-101979380D01*
X131019523Y-101979380D01*
X131095714Y-102017476D01*
X131133809Y-102055571D01*
X131171904Y-102131761D01*
X131171904Y-102436523D01*
X130371904Y-102436523D01*
X130371904Y-102169857D01*
X130410000Y-102093666D01*
X130448095Y-102055571D01*
X130524285Y-102017476D01*
X130600476Y-102017476D01*
X130676666Y-102055571D01*
X130714761Y-102093666D01*
X130752857Y-102169857D01*
X130752857Y-102436523D01*
X131171904Y-101217476D02*
X131171904Y-101674619D01*
X131171904Y-101446047D02*
X130371904Y-101446047D01*
X130486190Y-101522238D01*
X130562380Y-101598428D01*
X130600476Y-101674619D01*
X133711904Y-103236523D02*
X132911904Y-103236523D01*
X132911904Y-102931761D01*
X132950000Y-102855571D01*
X132988095Y-102817476D01*
X133064285Y-102779380D01*
X133178571Y-102779380D01*
X133254761Y-102817476D01*
X133292857Y-102855571D01*
X133330952Y-102931761D01*
X133330952Y-103236523D01*
X133292857Y-102169857D02*
X133330952Y-102055571D01*
X133369047Y-102017476D01*
X133445238Y-101979380D01*
X133559523Y-101979380D01*
X133635714Y-102017476D01*
X133673809Y-102055571D01*
X133711904Y-102131761D01*
X133711904Y-102436523D01*
X132911904Y-102436523D01*
X132911904Y-102169857D01*
X132950000Y-102093666D01*
X132988095Y-102055571D01*
X133064285Y-102017476D01*
X133140476Y-102017476D01*
X133216666Y-102055571D01*
X133254761Y-102093666D01*
X133292857Y-102169857D01*
X133292857Y-102436523D01*
X132911904Y-101484142D02*
X132911904Y-101407952D01*
X132950000Y-101331761D01*
X132988095Y-101293666D01*
X133064285Y-101255571D01*
X133216666Y-101217476D01*
X133407142Y-101217476D01*
X133559523Y-101255571D01*
X133635714Y-101293666D01*
X133673809Y-101331761D01*
X133711904Y-101407952D01*
X133711904Y-101484142D01*
X133673809Y-101560333D01*
X133635714Y-101598428D01*
X133559523Y-101636523D01*
X133407142Y-101674619D01*
X133216666Y-101674619D01*
X133064285Y-101636523D01*
X132988095Y-101598428D01*
X132950000Y-101560333D01*
X132911904Y-101484142D01*
X136251904Y-103236523D02*
X135451904Y-103236523D01*
X135451904Y-102931761D01*
X135490000Y-102855571D01*
X135528095Y-102817476D01*
X135604285Y-102779380D01*
X135718571Y-102779380D01*
X135794761Y-102817476D01*
X135832857Y-102855571D01*
X135870952Y-102931761D01*
X135870952Y-103236523D01*
X136023333Y-102474619D02*
X136023333Y-102093666D01*
X136251904Y-102550809D02*
X135451904Y-102284142D01*
X136251904Y-102017476D01*
X135451904Y-101827000D02*
X135451904Y-101293666D01*
X136251904Y-101636523D01*
X138791904Y-103236523D02*
X137991904Y-103236523D01*
X137991904Y-102931761D01*
X138030000Y-102855571D01*
X138068095Y-102817476D01*
X138144285Y-102779380D01*
X138258571Y-102779380D01*
X138334761Y-102817476D01*
X138372857Y-102855571D01*
X138410952Y-102931761D01*
X138410952Y-103236523D01*
X138563333Y-102474619D02*
X138563333Y-102093666D01*
X138791904Y-102550809D02*
X137991904Y-102284142D01*
X138791904Y-102017476D01*
X137991904Y-101407952D02*
X137991904Y-101560333D01*
X138030000Y-101636523D01*
X138068095Y-101674619D01*
X138182380Y-101750809D01*
X138334761Y-101788904D01*
X138639523Y-101788904D01*
X138715714Y-101750809D01*
X138753809Y-101712714D01*
X138791904Y-101636523D01*
X138791904Y-101484142D01*
X138753809Y-101407952D01*
X138715714Y-101369857D01*
X138639523Y-101331761D01*
X138449047Y-101331761D01*
X138372857Y-101369857D01*
X138334761Y-101407952D01*
X138296666Y-101484142D01*
X138296666Y-101636523D01*
X138334761Y-101712714D01*
X138372857Y-101750809D01*
X138449047Y-101788904D01*
X141331904Y-103236523D02*
X140531904Y-103236523D01*
X140531904Y-102931761D01*
X140570000Y-102855571D01*
X140608095Y-102817476D01*
X140684285Y-102779380D01*
X140798571Y-102779380D01*
X140874761Y-102817476D01*
X140912857Y-102855571D01*
X140950952Y-102931761D01*
X140950952Y-103236523D01*
X141103333Y-102474619D02*
X141103333Y-102093666D01*
X141331904Y-102550809D02*
X140531904Y-102284142D01*
X141331904Y-102017476D01*
X140531904Y-101369857D02*
X140531904Y-101750809D01*
X140912857Y-101788904D01*
X140874761Y-101750809D01*
X140836666Y-101674619D01*
X140836666Y-101484142D01*
X140874761Y-101407952D01*
X140912857Y-101369857D01*
X140989047Y-101331761D01*
X141179523Y-101331761D01*
X141255714Y-101369857D01*
X141293809Y-101407952D01*
X141331904Y-101484142D01*
X141331904Y-101674619D01*
X141293809Y-101750809D01*
X141255714Y-101788904D01*
X143871904Y-103236523D02*
X143071904Y-103236523D01*
X143071904Y-102931761D01*
X143110000Y-102855571D01*
X143148095Y-102817476D01*
X143224285Y-102779380D01*
X143338571Y-102779380D01*
X143414761Y-102817476D01*
X143452857Y-102855571D01*
X143490952Y-102931761D01*
X143490952Y-103236523D01*
X143643333Y-102474619D02*
X143643333Y-102093666D01*
X143871904Y-102550809D02*
X143071904Y-102284142D01*
X143871904Y-102017476D01*
X143338571Y-101407952D02*
X143871904Y-101407952D01*
X143033809Y-101598428D02*
X143605238Y-101788904D01*
X143605238Y-101293666D01*
X146411904Y-103236523D02*
X145611904Y-103236523D01*
X145611904Y-102931761D01*
X145650000Y-102855571D01*
X145688095Y-102817476D01*
X145764285Y-102779380D01*
X145878571Y-102779380D01*
X145954761Y-102817476D01*
X145992857Y-102855571D01*
X146030952Y-102931761D01*
X146030952Y-103236523D01*
X146183333Y-102474619D02*
X146183333Y-102093666D01*
X146411904Y-102550809D02*
X145611904Y-102284142D01*
X146411904Y-102017476D01*
X145611904Y-101827000D02*
X145611904Y-101331761D01*
X145916666Y-101598428D01*
X145916666Y-101484142D01*
X145954761Y-101407952D01*
X145992857Y-101369857D01*
X146069047Y-101331761D01*
X146259523Y-101331761D01*
X146335714Y-101369857D01*
X146373809Y-101407952D01*
X146411904Y-101484142D01*
X146411904Y-101712714D01*
X146373809Y-101788904D01*
X146335714Y-101827000D01*
X148951904Y-103236523D02*
X148151904Y-103236523D01*
X148151904Y-102931761D01*
X148190000Y-102855571D01*
X148228095Y-102817476D01*
X148304285Y-102779380D01*
X148418571Y-102779380D01*
X148494761Y-102817476D01*
X148532857Y-102855571D01*
X148570952Y-102931761D01*
X148570952Y-103236523D01*
X148723333Y-102474619D02*
X148723333Y-102093666D01*
X148951904Y-102550809D02*
X148151904Y-102284142D01*
X148951904Y-102017476D01*
X148228095Y-101788904D02*
X148190000Y-101750809D01*
X148151904Y-101674619D01*
X148151904Y-101484142D01*
X148190000Y-101407952D01*
X148228095Y-101369857D01*
X148304285Y-101331761D01*
X148380476Y-101331761D01*
X148494761Y-101369857D01*
X148951904Y-101827000D01*
X148951904Y-101331761D01*
X151491904Y-103236523D02*
X150691904Y-103236523D01*
X150691904Y-102931761D01*
X150730000Y-102855571D01*
X150768095Y-102817476D01*
X150844285Y-102779380D01*
X150958571Y-102779380D01*
X151034761Y-102817476D01*
X151072857Y-102855571D01*
X151110952Y-102931761D01*
X151110952Y-103236523D01*
X151263333Y-102474619D02*
X151263333Y-102093666D01*
X151491904Y-102550809D02*
X150691904Y-102284142D01*
X151491904Y-102017476D01*
X151491904Y-101331761D02*
X151491904Y-101788904D01*
X151491904Y-101560333D02*
X150691904Y-101560333D01*
X150806190Y-101636523D01*
X150882380Y-101712714D01*
X150920476Y-101788904D01*
X154031904Y-103236523D02*
X153231904Y-103236523D01*
X153231904Y-102931761D01*
X153270000Y-102855571D01*
X153308095Y-102817476D01*
X153384285Y-102779380D01*
X153498571Y-102779380D01*
X153574761Y-102817476D01*
X153612857Y-102855571D01*
X153650952Y-102931761D01*
X153650952Y-103236523D01*
X153803333Y-102474619D02*
X153803333Y-102093666D01*
X154031904Y-102550809D02*
X153231904Y-102284142D01*
X154031904Y-102017476D01*
X153231904Y-101598428D02*
X153231904Y-101522238D01*
X153270000Y-101446047D01*
X153308095Y-101407952D01*
X153384285Y-101369857D01*
X153536666Y-101331761D01*
X153727142Y-101331761D01*
X153879523Y-101369857D01*
X153955714Y-101407952D01*
X153993809Y-101446047D01*
X154031904Y-101522238D01*
X154031904Y-101598428D01*
X153993809Y-101674619D01*
X153955714Y-101712714D01*
X153879523Y-101750809D01*
X153727142Y-101788904D01*
X153536666Y-101788904D01*
X153384285Y-101750809D01*
X153308095Y-101712714D01*
X153270000Y-101674619D01*
X153231904Y-101598428D01*
X155810000Y-102817476D02*
X155771904Y-102893666D01*
X155771904Y-103007952D01*
X155810000Y-103122238D01*
X155886190Y-103198428D01*
X155962380Y-103236523D01*
X156114761Y-103274619D01*
X156229047Y-103274619D01*
X156381428Y-103236523D01*
X156457619Y-103198428D01*
X156533809Y-103122238D01*
X156571904Y-103007952D01*
X156571904Y-102931761D01*
X156533809Y-102817476D01*
X156495714Y-102779380D01*
X156229047Y-102779380D01*
X156229047Y-102931761D01*
X156571904Y-102436523D02*
X155771904Y-102436523D01*
X156571904Y-101979380D01*
X155771904Y-101979380D01*
X156571904Y-101598428D02*
X155771904Y-101598428D01*
X155771904Y-101407952D01*
X155810000Y-101293666D01*
X155886190Y-101217476D01*
X155962380Y-101179380D01*
X156114761Y-101141285D01*
X156229047Y-101141285D01*
X156381428Y-101179380D01*
X156457619Y-101217476D01*
X156533809Y-101293666D01*
X156571904Y-101407952D01*
X156571904Y-101598428D01*
D12*
X120122380Y-135333333D02*
X120836666Y-135333333D01*
X120979523Y-135380952D01*
X121074761Y-135476190D01*
X121122380Y-135619047D01*
X121122380Y-135714285D01*
X120122380Y-134952380D02*
X120122380Y-134333333D01*
X120503333Y-134666666D01*
X120503333Y-134523809D01*
X120550952Y-134428571D01*
X120598571Y-134380952D01*
X120693809Y-134333333D01*
X120931904Y-134333333D01*
X121027142Y-134380952D01*
X121074761Y-134428571D01*
X121122380Y-134523809D01*
X121122380Y-134809523D01*
X121074761Y-134904761D01*
X121027142Y-134952380D01*
D10*
X122561904Y-139545809D02*
X123361904Y-139279142D01*
X122561904Y-139012476D01*
X123361904Y-138745809D02*
X122561904Y-138745809D01*
X122561904Y-138555333D01*
X122600000Y-138441047D01*
X122676190Y-138364857D01*
X122752380Y-138326761D01*
X122904761Y-138288666D01*
X123019047Y-138288666D01*
X123171428Y-138326761D01*
X123247619Y-138364857D01*
X123323809Y-138441047D01*
X123361904Y-138555333D01*
X123361904Y-138745809D01*
X123361904Y-137945809D02*
X122561904Y-137945809D01*
X122561904Y-137755333D01*
X122600000Y-137641047D01*
X122676190Y-137564857D01*
X122752380Y-137526761D01*
X122904761Y-137488666D01*
X123019047Y-137488666D01*
X123171428Y-137526761D01*
X123247619Y-137564857D01*
X123323809Y-137641047D01*
X123361904Y-137755333D01*
X123361904Y-137945809D01*
X125330000Y-139012476D02*
X125291904Y-139088666D01*
X125291904Y-139202952D01*
X125330000Y-139317238D01*
X125406190Y-139393428D01*
X125482380Y-139431523D01*
X125634761Y-139469619D01*
X125749047Y-139469619D01*
X125901428Y-139431523D01*
X125977619Y-139393428D01*
X126053809Y-139317238D01*
X126091904Y-139202952D01*
X126091904Y-139126761D01*
X126053809Y-139012476D01*
X126015714Y-138974380D01*
X125749047Y-138974380D01*
X125749047Y-139126761D01*
X126091904Y-138631523D02*
X125291904Y-138631523D01*
X126091904Y-138174380D01*
X125291904Y-138174380D01*
X126091904Y-137793428D02*
X125291904Y-137793428D01*
X125291904Y-137602952D01*
X125330000Y-137488666D01*
X125406190Y-137412476D01*
X125482380Y-137374380D01*
X125634761Y-137336285D01*
X125749047Y-137336285D01*
X125901428Y-137374380D01*
X125977619Y-137412476D01*
X126053809Y-137488666D01*
X126091904Y-137602952D01*
X126091904Y-137793428D01*
X128631904Y-139431523D02*
X127831904Y-139431523D01*
X127831904Y-139126761D01*
X127870000Y-139050571D01*
X127908095Y-139012476D01*
X127984285Y-138974380D01*
X128098571Y-138974380D01*
X128174761Y-139012476D01*
X128212857Y-139050571D01*
X128250952Y-139126761D01*
X128250952Y-139431523D01*
X128403333Y-138669619D02*
X128403333Y-138288666D01*
X128631904Y-138745809D02*
X127831904Y-138479142D01*
X128631904Y-138212476D01*
X128631904Y-137907714D02*
X128631904Y-137755333D01*
X128593809Y-137679142D01*
X128555714Y-137641047D01*
X128441428Y-137564857D01*
X128289047Y-137526761D01*
X127984285Y-137526761D01*
X127908095Y-137564857D01*
X127870000Y-137602952D01*
X127831904Y-137679142D01*
X127831904Y-137831523D01*
X127870000Y-137907714D01*
X127908095Y-137945809D01*
X127984285Y-137983904D01*
X128174761Y-137983904D01*
X128250952Y-137945809D01*
X128289047Y-137907714D01*
X128327142Y-137831523D01*
X128327142Y-137679142D01*
X128289047Y-137602952D01*
X128250952Y-137564857D01*
X128174761Y-137526761D01*
X131171904Y-139431523D02*
X130371904Y-139431523D01*
X130371904Y-139126761D01*
X130410000Y-139050571D01*
X130448095Y-139012476D01*
X130524285Y-138974380D01*
X130638571Y-138974380D01*
X130714761Y-139012476D01*
X130752857Y-139050571D01*
X130790952Y-139126761D01*
X130790952Y-139431523D01*
X130943333Y-138669619D02*
X130943333Y-138288666D01*
X131171904Y-138745809D02*
X130371904Y-138479142D01*
X131171904Y-138212476D01*
X131171904Y-137526761D02*
X131171904Y-137983904D01*
X131171904Y-137755333D02*
X130371904Y-137755333D01*
X130486190Y-137831523D01*
X130562380Y-137907714D01*
X130600476Y-137983904D01*
X130371904Y-137031523D02*
X130371904Y-136955333D01*
X130410000Y-136879142D01*
X130448095Y-136841047D01*
X130524285Y-136802952D01*
X130676666Y-136764857D01*
X130867142Y-136764857D01*
X131019523Y-136802952D01*
X131095714Y-136841047D01*
X131133809Y-136879142D01*
X131171904Y-136955333D01*
X131171904Y-137031523D01*
X131133809Y-137107714D01*
X131095714Y-137145809D01*
X131019523Y-137183904D01*
X130867142Y-137222000D01*
X130676666Y-137222000D01*
X130524285Y-137183904D01*
X130448095Y-137145809D01*
X130410000Y-137107714D01*
X130371904Y-137031523D01*
X133711904Y-139431523D02*
X132911904Y-139431523D01*
X132911904Y-139126761D01*
X132950000Y-139050571D01*
X132988095Y-139012476D01*
X133064285Y-138974380D01*
X133178571Y-138974380D01*
X133254761Y-139012476D01*
X133292857Y-139050571D01*
X133330952Y-139126761D01*
X133330952Y-139431523D01*
X133483333Y-138669619D02*
X133483333Y-138288666D01*
X133711904Y-138745809D02*
X132911904Y-138479142D01*
X133711904Y-138212476D01*
X133711904Y-137526761D02*
X133711904Y-137983904D01*
X133711904Y-137755333D02*
X132911904Y-137755333D01*
X133026190Y-137831523D01*
X133102380Y-137907714D01*
X133140476Y-137983904D01*
X132911904Y-137260095D02*
X132911904Y-136764857D01*
X133216666Y-137031523D01*
X133216666Y-136917238D01*
X133254761Y-136841047D01*
X133292857Y-136802952D01*
X133369047Y-136764857D01*
X133559523Y-136764857D01*
X133635714Y-136802952D01*
X133673809Y-136841047D01*
X133711904Y-136917238D01*
X133711904Y-137145809D01*
X133673809Y-137222000D01*
X133635714Y-137260095D01*
X136251904Y-139431523D02*
X135451904Y-139431523D01*
X135451904Y-139126761D01*
X135490000Y-139050571D01*
X135528095Y-139012476D01*
X135604285Y-138974380D01*
X135718571Y-138974380D01*
X135794761Y-139012476D01*
X135832857Y-139050571D01*
X135870952Y-139126761D01*
X135870952Y-139431523D01*
X136023333Y-138669619D02*
X136023333Y-138288666D01*
X136251904Y-138745809D02*
X135451904Y-138479142D01*
X136251904Y-138212476D01*
X136251904Y-137526761D02*
X136251904Y-137983904D01*
X136251904Y-137755333D02*
X135451904Y-137755333D01*
X135566190Y-137831523D01*
X135642380Y-137907714D01*
X135680476Y-137983904D01*
X135718571Y-136841047D02*
X136251904Y-136841047D01*
X135413809Y-137031523D02*
X135985238Y-137222000D01*
X135985238Y-136726761D01*
X138791904Y-139431523D02*
X137991904Y-139431523D01*
X137991904Y-139126761D01*
X138030000Y-139050571D01*
X138068095Y-139012476D01*
X138144285Y-138974380D01*
X138258571Y-138974380D01*
X138334761Y-139012476D01*
X138372857Y-139050571D01*
X138410952Y-139126761D01*
X138410952Y-139431523D01*
X138563333Y-138669619D02*
X138563333Y-138288666D01*
X138791904Y-138745809D02*
X137991904Y-138479142D01*
X138791904Y-138212476D01*
X138791904Y-137526761D02*
X138791904Y-137983904D01*
X138791904Y-137755333D02*
X137991904Y-137755333D01*
X138106190Y-137831523D01*
X138182380Y-137907714D01*
X138220476Y-137983904D01*
X137991904Y-136802952D02*
X137991904Y-137183904D01*
X138372857Y-137222000D01*
X138334761Y-137183904D01*
X138296666Y-137107714D01*
X138296666Y-136917238D01*
X138334761Y-136841047D01*
X138372857Y-136802952D01*
X138449047Y-136764857D01*
X138639523Y-136764857D01*
X138715714Y-136802952D01*
X138753809Y-136841047D01*
X138791904Y-136917238D01*
X138791904Y-137107714D01*
X138753809Y-137183904D01*
X138715714Y-137222000D01*
X141331904Y-139431523D02*
X140531904Y-139431523D01*
X140531904Y-139126761D01*
X140570000Y-139050571D01*
X140608095Y-139012476D01*
X140684285Y-138974380D01*
X140798571Y-138974380D01*
X140874761Y-139012476D01*
X140912857Y-139050571D01*
X140950952Y-139126761D01*
X140950952Y-139431523D01*
X140912857Y-138364857D02*
X140950952Y-138250571D01*
X140989047Y-138212476D01*
X141065238Y-138174380D01*
X141179523Y-138174380D01*
X141255714Y-138212476D01*
X141293809Y-138250571D01*
X141331904Y-138326761D01*
X141331904Y-138631523D01*
X140531904Y-138631523D01*
X140531904Y-138364857D01*
X140570000Y-138288666D01*
X140608095Y-138250571D01*
X140684285Y-138212476D01*
X140760476Y-138212476D01*
X140836666Y-138250571D01*
X140874761Y-138288666D01*
X140912857Y-138364857D01*
X140912857Y-138631523D01*
X140531904Y-137907714D02*
X140531904Y-137412476D01*
X140836666Y-137679142D01*
X140836666Y-137564857D01*
X140874761Y-137488666D01*
X140912857Y-137450571D01*
X140989047Y-137412476D01*
X141179523Y-137412476D01*
X141255714Y-137450571D01*
X141293809Y-137488666D01*
X141331904Y-137564857D01*
X141331904Y-137793428D01*
X141293809Y-137869619D01*
X141255714Y-137907714D01*
X143871904Y-139431523D02*
X143071904Y-139431523D01*
X143071904Y-139126761D01*
X143110000Y-139050571D01*
X143148095Y-139012476D01*
X143224285Y-138974380D01*
X143338571Y-138974380D01*
X143414761Y-139012476D01*
X143452857Y-139050571D01*
X143490952Y-139126761D01*
X143490952Y-139431523D01*
X143452857Y-138364857D02*
X143490952Y-138250571D01*
X143529047Y-138212476D01*
X143605238Y-138174380D01*
X143719523Y-138174380D01*
X143795714Y-138212476D01*
X143833809Y-138250571D01*
X143871904Y-138326761D01*
X143871904Y-138631523D01*
X143071904Y-138631523D01*
X143071904Y-138364857D01*
X143110000Y-138288666D01*
X143148095Y-138250571D01*
X143224285Y-138212476D01*
X143300476Y-138212476D01*
X143376666Y-138250571D01*
X143414761Y-138288666D01*
X143452857Y-138364857D01*
X143452857Y-138631523D01*
X143338571Y-137488666D02*
X143871904Y-137488666D01*
X143033809Y-137679142D02*
X143605238Y-137869619D01*
X143605238Y-137374380D01*
X146411904Y-139431523D02*
X145611904Y-139431523D01*
X145611904Y-139126761D01*
X145650000Y-139050571D01*
X145688095Y-139012476D01*
X145764285Y-138974380D01*
X145878571Y-138974380D01*
X145954761Y-139012476D01*
X145992857Y-139050571D01*
X146030952Y-139126761D01*
X146030952Y-139431523D01*
X145992857Y-138364857D02*
X146030952Y-138250571D01*
X146069047Y-138212476D01*
X146145238Y-138174380D01*
X146259523Y-138174380D01*
X146335714Y-138212476D01*
X146373809Y-138250571D01*
X146411904Y-138326761D01*
X146411904Y-138631523D01*
X145611904Y-138631523D01*
X145611904Y-138364857D01*
X145650000Y-138288666D01*
X145688095Y-138250571D01*
X145764285Y-138212476D01*
X145840476Y-138212476D01*
X145916666Y-138250571D01*
X145954761Y-138288666D01*
X145992857Y-138364857D01*
X145992857Y-138631523D01*
X145611904Y-137450571D02*
X145611904Y-137831523D01*
X145992857Y-137869619D01*
X145954761Y-137831523D01*
X145916666Y-137755333D01*
X145916666Y-137564857D01*
X145954761Y-137488666D01*
X145992857Y-137450571D01*
X146069047Y-137412476D01*
X146259523Y-137412476D01*
X146335714Y-137450571D01*
X146373809Y-137488666D01*
X146411904Y-137564857D01*
X146411904Y-137755333D01*
X146373809Y-137831523D01*
X146335714Y-137869619D01*
X148951904Y-139431523D02*
X148151904Y-139431523D01*
X148151904Y-139126761D01*
X148190000Y-139050571D01*
X148228095Y-139012476D01*
X148304285Y-138974380D01*
X148418571Y-138974380D01*
X148494761Y-139012476D01*
X148532857Y-139050571D01*
X148570952Y-139126761D01*
X148570952Y-139431523D01*
X148532857Y-138364857D02*
X148570952Y-138250571D01*
X148609047Y-138212476D01*
X148685238Y-138174380D01*
X148799523Y-138174380D01*
X148875714Y-138212476D01*
X148913809Y-138250571D01*
X148951904Y-138326761D01*
X148951904Y-138631523D01*
X148151904Y-138631523D01*
X148151904Y-138364857D01*
X148190000Y-138288666D01*
X148228095Y-138250571D01*
X148304285Y-138212476D01*
X148380476Y-138212476D01*
X148456666Y-138250571D01*
X148494761Y-138288666D01*
X148532857Y-138364857D01*
X148532857Y-138631523D01*
X148151904Y-137488666D02*
X148151904Y-137641047D01*
X148190000Y-137717238D01*
X148228095Y-137755333D01*
X148342380Y-137831523D01*
X148494761Y-137869619D01*
X148799523Y-137869619D01*
X148875714Y-137831523D01*
X148913809Y-137793428D01*
X148951904Y-137717238D01*
X148951904Y-137564857D01*
X148913809Y-137488666D01*
X148875714Y-137450571D01*
X148799523Y-137412476D01*
X148609047Y-137412476D01*
X148532857Y-137450571D01*
X148494761Y-137488666D01*
X148456666Y-137564857D01*
X148456666Y-137717238D01*
X148494761Y-137793428D01*
X148532857Y-137831523D01*
X148609047Y-137869619D01*
X151491904Y-139431523D02*
X150691904Y-139431523D01*
X150691904Y-139126761D01*
X150730000Y-139050571D01*
X150768095Y-139012476D01*
X150844285Y-138974380D01*
X150958571Y-138974380D01*
X151034761Y-139012476D01*
X151072857Y-139050571D01*
X151110952Y-139126761D01*
X151110952Y-139431523D01*
X151072857Y-138364857D02*
X151110952Y-138250571D01*
X151149047Y-138212476D01*
X151225238Y-138174380D01*
X151339523Y-138174380D01*
X151415714Y-138212476D01*
X151453809Y-138250571D01*
X151491904Y-138326761D01*
X151491904Y-138631523D01*
X150691904Y-138631523D01*
X150691904Y-138364857D01*
X150730000Y-138288666D01*
X150768095Y-138250571D01*
X150844285Y-138212476D01*
X150920476Y-138212476D01*
X150996666Y-138250571D01*
X151034761Y-138288666D01*
X151072857Y-138364857D01*
X151072857Y-138631523D01*
X150691904Y-137907714D02*
X150691904Y-137374380D01*
X151491904Y-137717238D01*
X154031904Y-139431523D02*
X153231904Y-139431523D01*
X153231904Y-139126761D01*
X153270000Y-139050571D01*
X153308095Y-139012476D01*
X153384285Y-138974380D01*
X153498571Y-138974380D01*
X153574761Y-139012476D01*
X153612857Y-139050571D01*
X153650952Y-139126761D01*
X153650952Y-139431523D01*
X153612857Y-138364857D02*
X153612857Y-138631523D01*
X154031904Y-138631523D02*
X153231904Y-138631523D01*
X153231904Y-138250571D01*
X154031904Y-137526761D02*
X154031904Y-137983904D01*
X154031904Y-137755333D02*
X153231904Y-137755333D01*
X153346190Y-137831523D01*
X153422380Y-137907714D01*
X153460476Y-137983904D01*
X155810000Y-139012476D02*
X155771904Y-139088666D01*
X155771904Y-139202952D01*
X155810000Y-139317238D01*
X155886190Y-139393428D01*
X155962380Y-139431523D01*
X156114761Y-139469619D01*
X156229047Y-139469619D01*
X156381428Y-139431523D01*
X156457619Y-139393428D01*
X156533809Y-139317238D01*
X156571904Y-139202952D01*
X156571904Y-139126761D01*
X156533809Y-139012476D01*
X156495714Y-138974380D01*
X156229047Y-138974380D01*
X156229047Y-139126761D01*
X156571904Y-138631523D02*
X155771904Y-138631523D01*
X156571904Y-138174380D01*
X155771904Y-138174380D01*
X156571904Y-137793428D02*
X155771904Y-137793428D01*
X155771904Y-137602952D01*
X155810000Y-137488666D01*
X155886190Y-137412476D01*
X155962380Y-137374380D01*
X156114761Y-137336285D01*
X156229047Y-137336285D01*
X156381428Y-137374380D01*
X156457619Y-137412476D01*
X156533809Y-137488666D01*
X156571904Y-137602952D01*
X156571904Y-137793428D01*
X133673809Y-133119619D02*
X133711904Y-133005333D01*
X133711904Y-132814857D01*
X133673809Y-132738666D01*
X133635714Y-132700571D01*
X133559523Y-132662476D01*
X133483333Y-132662476D01*
X133407142Y-132700571D01*
X133369047Y-132738666D01*
X133330952Y-132814857D01*
X133292857Y-132967238D01*
X133254761Y-133043428D01*
X133216666Y-133081523D01*
X133140476Y-133119619D01*
X133064285Y-133119619D01*
X132988095Y-133081523D01*
X132950000Y-133043428D01*
X132911904Y-132967238D01*
X132911904Y-132776761D01*
X132950000Y-132662476D01*
X132911904Y-132395809D02*
X133711904Y-132205333D01*
X133140476Y-132052952D01*
X133711904Y-131900571D01*
X132911904Y-131710095D01*
X133711904Y-131405333D02*
X132911904Y-131405333D01*
X132911904Y-131214857D01*
X132950000Y-131100571D01*
X133026190Y-131024380D01*
X133102380Y-130986285D01*
X133254761Y-130948190D01*
X133369047Y-130948190D01*
X133521428Y-130986285D01*
X133597619Y-131024380D01*
X133673809Y-131100571D01*
X133711904Y-131214857D01*
X133711904Y-131405333D01*
X133711904Y-130605333D02*
X132911904Y-130605333D01*
X132911904Y-130072000D02*
X132911904Y-129919619D01*
X132950000Y-129843428D01*
X133026190Y-129767238D01*
X133178571Y-129729142D01*
X133445238Y-129729142D01*
X133597619Y-129767238D01*
X133673809Y-129843428D01*
X133711904Y-129919619D01*
X133711904Y-130072000D01*
X133673809Y-130148190D01*
X133597619Y-130224380D01*
X133445238Y-130262476D01*
X133178571Y-130262476D01*
X133026190Y-130224380D01*
X132950000Y-130148190D01*
X132911904Y-130072000D01*
X136213809Y-133119619D02*
X136251904Y-133005333D01*
X136251904Y-132814857D01*
X136213809Y-132738666D01*
X136175714Y-132700571D01*
X136099523Y-132662476D01*
X136023333Y-132662476D01*
X135947142Y-132700571D01*
X135909047Y-132738666D01*
X135870952Y-132814857D01*
X135832857Y-132967238D01*
X135794761Y-133043428D01*
X135756666Y-133081523D01*
X135680476Y-133119619D01*
X135604285Y-133119619D01*
X135528095Y-133081523D01*
X135490000Y-133043428D01*
X135451904Y-132967238D01*
X135451904Y-132776761D01*
X135490000Y-132662476D01*
X135451904Y-132395809D02*
X136251904Y-132205333D01*
X135680476Y-132052952D01*
X136251904Y-131900571D01*
X135451904Y-131710095D01*
X136175714Y-130948190D02*
X136213809Y-130986285D01*
X136251904Y-131100571D01*
X136251904Y-131176761D01*
X136213809Y-131291047D01*
X136137619Y-131367238D01*
X136061428Y-131405333D01*
X135909047Y-131443428D01*
X135794761Y-131443428D01*
X135642380Y-131405333D01*
X135566190Y-131367238D01*
X135490000Y-131291047D01*
X135451904Y-131176761D01*
X135451904Y-131100571D01*
X135490000Y-130986285D01*
X135528095Y-130948190D01*
X136251904Y-130224380D02*
X136251904Y-130605333D01*
X135451904Y-130605333D01*
X136251904Y-129957714D02*
X135451904Y-129957714D01*
X136251904Y-129500571D02*
X135794761Y-129843428D01*
X135451904Y-129500571D02*
X135909047Y-129957714D01*
D12*
X104666666Y-122677380D02*
X104666666Y-123391666D01*
X104619047Y-123534523D01*
X104523809Y-123629761D01*
X104380952Y-123677380D01*
X104285714Y-123677380D01*
X105095238Y-122772619D02*
X105142857Y-122725000D01*
X105238095Y-122677380D01*
X105476190Y-122677380D01*
X105571428Y-122725000D01*
X105619047Y-122772619D01*
X105666666Y-122867857D01*
X105666666Y-122963095D01*
X105619047Y-123105952D01*
X105047619Y-123677380D01*
X105666666Y-123677380D01*
X109702380Y-120333333D02*
X110416666Y-120333333D01*
X110559523Y-120380952D01*
X110654761Y-120476190D01*
X110702380Y-120619047D01*
X110702380Y-120714285D01*
X110702380Y-119333333D02*
X110702380Y-119904761D01*
X110702380Y-119619047D02*
X109702380Y-119619047D01*
X109845238Y-119714285D01*
X109940476Y-119809523D01*
X109988095Y-119904761D01*
X120404166Y-114128571D02*
X120070833Y-114128571D01*
X120070833Y-114652380D02*
X120070833Y-113652380D01*
X120547023Y-113652380D01*
X121261309Y-114128571D02*
X121404166Y-114176190D01*
X121451785Y-114223809D01*
X121499404Y-114319047D01*
X121499404Y-114461904D01*
X121451785Y-114557142D01*
X121404166Y-114604761D01*
X121308928Y-114652380D01*
X120927976Y-114652380D01*
X120927976Y-113652380D01*
X121261309Y-113652380D01*
X121356547Y-113700000D01*
X121404166Y-113747619D01*
X121451785Y-113842857D01*
X121451785Y-113938095D01*
X121404166Y-114033333D01*
X121356547Y-114080952D01*
X121261309Y-114128571D01*
X120927976Y-114128571D01*
X122451785Y-114652380D02*
X121880357Y-114652380D01*
X122166071Y-114652380D02*
X122166071Y-113652380D01*
X122070833Y-113795238D01*
X121975595Y-113890476D01*
X121880357Y-113938095D01*
X119761904Y-121452380D02*
X119761904Y-120452380D01*
X120000000Y-120452380D01*
X120142857Y-120500000D01*
X120238095Y-120595238D01*
X120285714Y-120690476D01*
X120333333Y-120880952D01*
X120333333Y-121023809D01*
X120285714Y-121214285D01*
X120238095Y-121309523D01*
X120142857Y-121404761D01*
X120000000Y-121452380D01*
X119761904Y-121452380D01*
X121190476Y-120785714D02*
X121190476Y-121452380D01*
X120952380Y-120404761D02*
X120714285Y-121119047D01*
X121333333Y-121119047D01*
X127757142Y-123942857D02*
X127804761Y-123990476D01*
X127852380Y-124133333D01*
X127852380Y-124228571D01*
X127804761Y-124371428D01*
X127709523Y-124466666D01*
X127614285Y-124514285D01*
X127423809Y-124561904D01*
X127280952Y-124561904D01*
X127090476Y-124514285D01*
X126995238Y-124466666D01*
X126900000Y-124371428D01*
X126852380Y-124228571D01*
X126852380Y-124133333D01*
X126900000Y-123990476D01*
X126947619Y-123942857D01*
X127852380Y-122990476D02*
X127852380Y-123561904D01*
X127852380Y-123276190D02*
X126852380Y-123276190D01*
X126995238Y-123371428D01*
X127090476Y-123466666D01*
X127138095Y-123561904D01*
X126947619Y-122609523D02*
X126900000Y-122561904D01*
X126852380Y-122466666D01*
X126852380Y-122228571D01*
X126900000Y-122133333D01*
X126947619Y-122085714D01*
X127042857Y-122038095D01*
X127138095Y-122038095D01*
X127280952Y-122085714D01*
X127852380Y-122657142D01*
X127852380Y-122038095D01*
X129457142Y-123942857D02*
X129504761Y-123990476D01*
X129552380Y-124133333D01*
X129552380Y-124228571D01*
X129504761Y-124371428D01*
X129409523Y-124466666D01*
X129314285Y-124514285D01*
X129123809Y-124561904D01*
X128980952Y-124561904D01*
X128790476Y-124514285D01*
X128695238Y-124466666D01*
X128600000Y-124371428D01*
X128552380Y-124228571D01*
X128552380Y-124133333D01*
X128600000Y-123990476D01*
X128647619Y-123942857D01*
X129552380Y-122990476D02*
X129552380Y-123561904D01*
X129552380Y-123276190D02*
X128552380Y-123276190D01*
X128695238Y-123371428D01*
X128790476Y-123466666D01*
X128838095Y-123561904D01*
X129552380Y-122038095D02*
X129552380Y-122609523D01*
X129552380Y-122323809D02*
X128552380Y-122323809D01*
X128695238Y-122419047D01*
X128790476Y-122514285D01*
X128838095Y-122609523D01*
X143557142Y-123642857D02*
X143604761Y-123690476D01*
X143652380Y-123833333D01*
X143652380Y-123928571D01*
X143604761Y-124071428D01*
X143509523Y-124166666D01*
X143414285Y-124214285D01*
X143223809Y-124261904D01*
X143080952Y-124261904D01*
X142890476Y-124214285D01*
X142795238Y-124166666D01*
X142700000Y-124071428D01*
X142652380Y-123928571D01*
X142652380Y-123833333D01*
X142700000Y-123690476D01*
X142747619Y-123642857D01*
X143652380Y-122690476D02*
X143652380Y-123261904D01*
X143652380Y-122976190D02*
X142652380Y-122976190D01*
X142795238Y-123071428D01*
X142890476Y-123166666D01*
X142938095Y-123261904D01*
X142652380Y-122071428D02*
X142652380Y-121976190D01*
X142700000Y-121880952D01*
X142747619Y-121833333D01*
X142842857Y-121785714D01*
X143033333Y-121738095D01*
X143271428Y-121738095D01*
X143461904Y-121785714D01*
X143557142Y-121833333D01*
X143604761Y-121880952D01*
X143652380Y-121976190D01*
X143652380Y-122071428D01*
X143604761Y-122166666D01*
X143557142Y-122214285D01*
X143461904Y-122261904D01*
X143271428Y-122309523D01*
X143033333Y-122309523D01*
X142842857Y-122261904D01*
X142747619Y-122214285D01*
X142700000Y-122166666D01*
X142652380Y-122071428D01*
X143005048Y-113066576D02*
X143005048Y-113133919D01*
X142937704Y-113268606D01*
X142870361Y-113335950D01*
X142735673Y-113403293D01*
X142600986Y-113403293D01*
X142499971Y-113369622D01*
X142331612Y-113268606D01*
X142230597Y-113167591D01*
X142129582Y-112999232D01*
X142095910Y-112898217D01*
X142095910Y-112763530D01*
X142163254Y-112628843D01*
X142230597Y-112561499D01*
X142365284Y-112494156D01*
X142432628Y-112494156D01*
X143409109Y-112797202D02*
X143543796Y-112662515D01*
X143577467Y-112561499D01*
X143577467Y-112494156D01*
X143543796Y-112325797D01*
X143442780Y-112157438D01*
X143173406Y-111888064D01*
X143072391Y-111854393D01*
X143005048Y-111854393D01*
X142904032Y-111888064D01*
X142769345Y-112022751D01*
X142735673Y-112123767D01*
X142735673Y-112191110D01*
X142769345Y-112292125D01*
X142937704Y-112460484D01*
X143038719Y-112494156D01*
X143106063Y-112494156D01*
X143207078Y-112460484D01*
X143341765Y-112325797D01*
X143375437Y-112224782D01*
X143375437Y-112157438D01*
X143341765Y-112056423D01*
X139780371Y-114402379D02*
X139780371Y-114469722D01*
X139713027Y-114604409D01*
X139645684Y-114671753D01*
X139510996Y-114739096D01*
X139376309Y-114739096D01*
X139275294Y-114705425D01*
X139106935Y-114604409D01*
X139005920Y-114503394D01*
X138904905Y-114335035D01*
X138871233Y-114234020D01*
X138871233Y-114099333D01*
X138938577Y-113964646D01*
X139005920Y-113897302D01*
X139140607Y-113829959D01*
X139207951Y-113829959D01*
X139847714Y-113661600D02*
X139746699Y-113695272D01*
X139679355Y-113695272D01*
X139578340Y-113661600D01*
X139544668Y-113627928D01*
X139510996Y-113526913D01*
X139510996Y-113459570D01*
X139544668Y-113358554D01*
X139679355Y-113223867D01*
X139780371Y-113190196D01*
X139847714Y-113190196D01*
X139948729Y-113223867D01*
X139982401Y-113257539D01*
X140016073Y-113358554D01*
X140016073Y-113425898D01*
X139982401Y-113526913D01*
X139847714Y-113661600D01*
X139814042Y-113762615D01*
X139814042Y-113829959D01*
X139847714Y-113930974D01*
X139982401Y-114065661D01*
X140083416Y-114099333D01*
X140150760Y-114099333D01*
X140251775Y-114065661D01*
X140386462Y-113930974D01*
X140420134Y-113829959D01*
X140420134Y-113762615D01*
X140386462Y-113661600D01*
X140251775Y-113526913D01*
X140150760Y-113493241D01*
X140083416Y-113493241D01*
X139982401Y-113526913D01*
X163433333Y-118757142D02*
X163385714Y-118804761D01*
X163242857Y-118852380D01*
X163147619Y-118852380D01*
X163004761Y-118804761D01*
X162909523Y-118709523D01*
X162861904Y-118614285D01*
X162814285Y-118423809D01*
X162814285Y-118280952D01*
X162861904Y-118090476D01*
X162909523Y-117995238D01*
X163004761Y-117900000D01*
X163147619Y-117852380D01*
X163242857Y-117852380D01*
X163385714Y-117900000D01*
X163433333Y-117947619D01*
X164290476Y-117852380D02*
X164100000Y-117852380D01*
X164004761Y-117900000D01*
X163957142Y-117947619D01*
X163861904Y-118090476D01*
X163814285Y-118280952D01*
X163814285Y-118661904D01*
X163861904Y-118757142D01*
X163909523Y-118804761D01*
X164004761Y-118852380D01*
X164195238Y-118852380D01*
X164290476Y-118804761D01*
X164338095Y-118757142D01*
X164385714Y-118661904D01*
X164385714Y-118423809D01*
X164338095Y-118328571D01*
X164290476Y-118280952D01*
X164195238Y-118233333D01*
X164004761Y-118233333D01*
X163909523Y-118280952D01*
X163861904Y-118328571D01*
X163814285Y-118423809D01*
X110633333Y-128757142D02*
X110585714Y-128804761D01*
X110442857Y-128852380D01*
X110347619Y-128852380D01*
X110204761Y-128804761D01*
X110109523Y-128709523D01*
X110061904Y-128614285D01*
X110014285Y-128423809D01*
X110014285Y-128280952D01*
X110061904Y-128090476D01*
X110109523Y-127995238D01*
X110204761Y-127900000D01*
X110347619Y-127852380D01*
X110442857Y-127852380D01*
X110585714Y-127900000D01*
X110633333Y-127947619D01*
X111538095Y-127852380D02*
X111061904Y-127852380D01*
X111014285Y-128328571D01*
X111061904Y-128280952D01*
X111157142Y-128233333D01*
X111395238Y-128233333D01*
X111490476Y-128280952D01*
X111538095Y-128328571D01*
X111585714Y-128423809D01*
X111585714Y-128661904D01*
X111538095Y-128757142D01*
X111490476Y-128804761D01*
X111395238Y-128852380D01*
X111157142Y-128852380D01*
X111061904Y-128804761D01*
X111014285Y-128757142D01*
X112307142Y-110104166D02*
X112354761Y-110151785D01*
X112402380Y-110294642D01*
X112402380Y-110389880D01*
X112354761Y-110532738D01*
X112259523Y-110627976D01*
X112164285Y-110675595D01*
X111973809Y-110723214D01*
X111830952Y-110723214D01*
X111640476Y-110675595D01*
X111545238Y-110627976D01*
X111450000Y-110532738D01*
X111402380Y-110389880D01*
X111402380Y-110294642D01*
X111450000Y-110151785D01*
X111497619Y-110104166D01*
X111735714Y-109247023D02*
X112402380Y-109247023D01*
X111354761Y-109485119D02*
X112069047Y-109723214D01*
X112069047Y-109104166D01*
X122257142Y-110066666D02*
X122304761Y-110114285D01*
X122352380Y-110257142D01*
X122352380Y-110352380D01*
X122304761Y-110495238D01*
X122209523Y-110590476D01*
X122114285Y-110638095D01*
X121923809Y-110685714D01*
X121780952Y-110685714D01*
X121590476Y-110638095D01*
X121495238Y-110590476D01*
X121400000Y-110495238D01*
X121352380Y-110352380D01*
X121352380Y-110257142D01*
X121400000Y-110114285D01*
X121447619Y-110066666D01*
X121352380Y-109733333D02*
X121352380Y-109114285D01*
X121733333Y-109447619D01*
X121733333Y-109304761D01*
X121780952Y-109209523D01*
X121828571Y-109161904D01*
X121923809Y-109114285D01*
X122161904Y-109114285D01*
X122257142Y-109161904D01*
X122304761Y-109209523D01*
X122352380Y-109304761D01*
X122352380Y-109590476D01*
X122304761Y-109685714D01*
X122257142Y-109733333D01*
X120633333Y-116157142D02*
X120585714Y-116204761D01*
X120442857Y-116252380D01*
X120347619Y-116252380D01*
X120204761Y-116204761D01*
X120109523Y-116109523D01*
X120061904Y-116014285D01*
X120014285Y-115823809D01*
X120014285Y-115680952D01*
X120061904Y-115490476D01*
X120109523Y-115395238D01*
X120204761Y-115300000D01*
X120347619Y-115252380D01*
X120442857Y-115252380D01*
X120585714Y-115300000D01*
X120633333Y-115347619D01*
X121014285Y-115347619D02*
X121061904Y-115300000D01*
X121157142Y-115252380D01*
X121395238Y-115252380D01*
X121490476Y-115300000D01*
X121538095Y-115347619D01*
X121585714Y-115442857D01*
X121585714Y-115538095D01*
X121538095Y-115680952D01*
X120966666Y-116252380D01*
X121585714Y-116252380D01*
X116357142Y-117566666D02*
X116404761Y-117614285D01*
X116452380Y-117757142D01*
X116452380Y-117852380D01*
X116404761Y-117995238D01*
X116309523Y-118090476D01*
X116214285Y-118138095D01*
X116023809Y-118185714D01*
X115880952Y-118185714D01*
X115690476Y-118138095D01*
X115595238Y-118090476D01*
X115500000Y-117995238D01*
X115452380Y-117852380D01*
X115452380Y-117757142D01*
X115500000Y-117614285D01*
X115547619Y-117566666D01*
X116452380Y-116614285D02*
X116452380Y-117185714D01*
X116452380Y-116900000D02*
X115452380Y-116900000D01*
X115595238Y-116995238D01*
X115690476Y-117090476D01*
X115738095Y-117185714D01*
M02*
