M48
; DRILL file {KiCad 5.1.5} date Mon 13 Jan 2020 08:44:08 PM EST
; FORMAT={-:-/ absolute / inch / decimal}
; #@! TF.CreationDate,2020-01-13T20:44:08-05:00
; #@! TF.GenerationSoftware,Kicad,Pcbnew,5.1.5
; #@! TF.FileFunction,Plated,1,2,PTH
FMAT,2
INCH
T1C0.0157
T2C0.0394
T3C0.1260
%
G90
G05
T1
X4.0236Y-4.2835
X4.0236Y-4.7795
X4.065Y-5.1673
X4.2362Y-4.2835
X4.2362Y-4.7795
X4.3701Y-5.2559
X4.4094Y-4.6063
X4.4488Y-5.2559
X4.4724Y-4.2441
X4.5276Y-4.5669
X4.5827Y-5.0551
X4.5827Y-5.3701
X4.6535Y-4.189
X4.7283Y-4.248
X5.0138Y-4.6457
X5.0827Y-4.6457
X5.2165Y-4.9606
X5.2165Y-5.0394
X5.315Y-4.9803
X5.3323Y-4.8305
X5.3543Y-4.872
X5.4035Y-4.9803
X5.5866Y-4.4724
X5.6816Y-4.7554
X5.7323Y-4.4252
X5.9016Y-4.5591
X5.9843Y-5.0984
X6.0508Y-4.2618
X6.0827Y-4.2323
X6.1319Y-4.252
X6.1614Y-4.8524
X6.2303Y-4.8524
X6.311Y-4.9469
X6.4646Y-4.3346
X6.4646Y-4.6063
X6.5197Y-4.7244
X6.626Y-4.9469
T2
X4.8425Y-4.1339
X4.9425Y-4.1339
X5.0425Y-4.1339
X5.1425Y-4.1339
X5.2425Y-4.1339
X5.3425Y-4.1339
X5.4425Y-4.1339
X5.5425Y-4.1339
X5.6425Y-4.1339
X5.7425Y-4.1339
X5.8425Y-4.1339
X5.9425Y-4.1339
X6.0425Y-4.1339
X6.1425Y-4.1339
X4.4724Y-4.0787
X4.5724Y-4.0787
X4.8425Y-5.315
X4.9425Y-5.315
X5.0425Y-5.315
X5.1425Y-5.315
X5.2425Y-5.315
X5.3425Y-5.315
X5.4425Y-5.315
X5.5425Y-5.315
X5.6425Y-5.315
X5.7425Y-5.315
X5.8425Y-5.315
X5.9425Y-5.315
X6.0425Y-5.315
X6.1425Y-5.315
T3
X4.1339Y-5.315
X4.1339Y-4.1339
X6.4961Y-5.315
X6.4961Y-4.1339
T0
M30
