M48
; DRILL file {KiCad 5.1.5} date Mon 13 Jan 2020 08:50:15 PM EST
; FORMAT={-:-/ absolute / inch / decimal}
; #@! TF.CreationDate,2020-01-13T20:50:15-05:00
; #@! TF.GenerationSoftware,Kicad,Pcbnew,5.1.5
; #@! TF.FileFunction,Plated,1,2,PTH
FMAT,2
INCH
T1C0.0157
T2C0.0394
T3C0.1260
%
G90
G05
T1
X6.1329Y-5.4528
X6.3962Y-4.4294
X6.4862Y-4.813
X6.9685Y-4.4094
X6.9685Y-4.7638
T2
X6.6929Y-5.1181
X6.6929Y-5.2165
X6.6929Y-5.315
X6.1024Y-5.1181
X6.1024Y-5.2165
X6.1024Y-5.315
X6.3772Y-4.0945
X6.4772Y-4.0945
X6.5772Y-4.0945
X6.6772Y-4.0945
X6.7772Y-4.0945
X6.8772Y-4.0945
X6.9772Y-4.0945
X7.0772Y-4.0945
X7.1772Y-4.0945
X7.2772Y-4.0945
X7.3772Y-4.0945
X7.4772Y-4.0945
X7.5772Y-4.0945
X7.6772Y-4.0945
X6.3772Y-5.7087
X6.4772Y-5.7087
X6.5772Y-5.7087
X6.6772Y-5.7087
X6.7772Y-5.7087
X6.8772Y-5.7087
X6.9772Y-5.7087
X7.0772Y-5.7087
X7.1772Y-5.7087
X7.2772Y-5.7087
X7.3772Y-5.7087
X7.4772Y-5.7087
X7.5772Y-5.7087
X7.6772Y-5.7087
X7.2835Y-5.1181
X7.2835Y-5.2165
X7.2835Y-5.315
T3
X6.1024Y-4.5276
X7.6772Y-4.5276
T0
M30
