G04 #@! TF.GenerationSoftware,KiCad,Pcbnew,5.1.5*
G04 #@! TF.CreationDate,2020-01-13T20:50:12-05:00*
G04 #@! TF.ProjectId,inputs_addon,696e7075-7473-45f6-9164-646f6e2e6b69,0*
G04 #@! TF.SameCoordinates,Original*
G04 #@! TF.FileFunction,Soldermask,Top*
G04 #@! TF.FilePolarity,Negative*
%FSLAX46Y46*%
G04 Gerber Fmt 4.6, Leading zero omitted, Abs format (unit mm)*
G04 Created by KiCad (PCBNEW 5.1.5) date 2020-01-13 20:50:12*
%MOMM*%
%LPD*%
G04 APERTURE LIST*
%ADD10C,0.100000*%
G04 APERTURE END LIST*
D10*
G36*
X162093512Y-144103927D02*
G01*
X162242812Y-144133624D01*
X162406784Y-144201544D01*
X162554354Y-144300147D01*
X162679853Y-144425646D01*
X162778456Y-144573216D01*
X162846376Y-144737188D01*
X162881000Y-144911259D01*
X162881000Y-145088741D01*
X162846376Y-145262812D01*
X162778456Y-145426784D01*
X162679853Y-145574354D01*
X162554354Y-145699853D01*
X162406784Y-145798456D01*
X162242812Y-145866376D01*
X162093512Y-145896073D01*
X162068742Y-145901000D01*
X161891258Y-145901000D01*
X161866488Y-145896073D01*
X161717188Y-145866376D01*
X161553216Y-145798456D01*
X161405646Y-145699853D01*
X161280147Y-145574354D01*
X161181544Y-145426784D01*
X161113624Y-145262812D01*
X161079000Y-145088741D01*
X161079000Y-144911259D01*
X161113624Y-144737188D01*
X161181544Y-144573216D01*
X161280147Y-144425646D01*
X161405646Y-144300147D01*
X161553216Y-144201544D01*
X161717188Y-144133624D01*
X161866488Y-144103927D01*
X161891258Y-144099000D01*
X162068742Y-144099000D01*
X162093512Y-144103927D01*
G37*
G36*
X192573512Y-144103927D02*
G01*
X192722812Y-144133624D01*
X192886784Y-144201544D01*
X193034354Y-144300147D01*
X193159853Y-144425646D01*
X193258456Y-144573216D01*
X193326376Y-144737188D01*
X193361000Y-144911259D01*
X193361000Y-145088741D01*
X193326376Y-145262812D01*
X193258456Y-145426784D01*
X193159853Y-145574354D01*
X193034354Y-145699853D01*
X192886784Y-145798456D01*
X192722812Y-145866376D01*
X192573512Y-145896073D01*
X192548742Y-145901000D01*
X192371258Y-145901000D01*
X192346488Y-145896073D01*
X192197188Y-145866376D01*
X192033216Y-145798456D01*
X191885646Y-145699853D01*
X191760147Y-145574354D01*
X191661544Y-145426784D01*
X191593624Y-145262812D01*
X191559000Y-145088741D01*
X191559000Y-144911259D01*
X191593624Y-144737188D01*
X191661544Y-144573216D01*
X191760147Y-144425646D01*
X191885646Y-144300147D01*
X192033216Y-144201544D01*
X192197188Y-144133624D01*
X192346488Y-144103927D01*
X192371258Y-144099000D01*
X192548742Y-144099000D01*
X192573512Y-144103927D01*
G37*
G36*
X195901000Y-145901000D02*
G01*
X194099000Y-145901000D01*
X194099000Y-144099000D01*
X195901000Y-144099000D01*
X195901000Y-145901000D01*
G37*
G36*
X190033512Y-144103927D02*
G01*
X190182812Y-144133624D01*
X190346784Y-144201544D01*
X190494354Y-144300147D01*
X190619853Y-144425646D01*
X190718456Y-144573216D01*
X190786376Y-144737188D01*
X190821000Y-144911259D01*
X190821000Y-145088741D01*
X190786376Y-145262812D01*
X190718456Y-145426784D01*
X190619853Y-145574354D01*
X190494354Y-145699853D01*
X190346784Y-145798456D01*
X190182812Y-145866376D01*
X190033512Y-145896073D01*
X190008742Y-145901000D01*
X189831258Y-145901000D01*
X189806488Y-145896073D01*
X189657188Y-145866376D01*
X189493216Y-145798456D01*
X189345646Y-145699853D01*
X189220147Y-145574354D01*
X189121544Y-145426784D01*
X189053624Y-145262812D01*
X189019000Y-145088741D01*
X189019000Y-144911259D01*
X189053624Y-144737188D01*
X189121544Y-144573216D01*
X189220147Y-144425646D01*
X189345646Y-144300147D01*
X189493216Y-144201544D01*
X189657188Y-144133624D01*
X189806488Y-144103927D01*
X189831258Y-144099000D01*
X190008742Y-144099000D01*
X190033512Y-144103927D01*
G37*
G36*
X187493512Y-144103927D02*
G01*
X187642812Y-144133624D01*
X187806784Y-144201544D01*
X187954354Y-144300147D01*
X188079853Y-144425646D01*
X188178456Y-144573216D01*
X188246376Y-144737188D01*
X188281000Y-144911259D01*
X188281000Y-145088741D01*
X188246376Y-145262812D01*
X188178456Y-145426784D01*
X188079853Y-145574354D01*
X187954354Y-145699853D01*
X187806784Y-145798456D01*
X187642812Y-145866376D01*
X187493512Y-145896073D01*
X187468742Y-145901000D01*
X187291258Y-145901000D01*
X187266488Y-145896073D01*
X187117188Y-145866376D01*
X186953216Y-145798456D01*
X186805646Y-145699853D01*
X186680147Y-145574354D01*
X186581544Y-145426784D01*
X186513624Y-145262812D01*
X186479000Y-145088741D01*
X186479000Y-144911259D01*
X186513624Y-144737188D01*
X186581544Y-144573216D01*
X186680147Y-144425646D01*
X186805646Y-144300147D01*
X186953216Y-144201544D01*
X187117188Y-144133624D01*
X187266488Y-144103927D01*
X187291258Y-144099000D01*
X187468742Y-144099000D01*
X187493512Y-144103927D01*
G37*
G36*
X184953512Y-144103927D02*
G01*
X185102812Y-144133624D01*
X185266784Y-144201544D01*
X185414354Y-144300147D01*
X185539853Y-144425646D01*
X185638456Y-144573216D01*
X185706376Y-144737188D01*
X185741000Y-144911259D01*
X185741000Y-145088741D01*
X185706376Y-145262812D01*
X185638456Y-145426784D01*
X185539853Y-145574354D01*
X185414354Y-145699853D01*
X185266784Y-145798456D01*
X185102812Y-145866376D01*
X184953512Y-145896073D01*
X184928742Y-145901000D01*
X184751258Y-145901000D01*
X184726488Y-145896073D01*
X184577188Y-145866376D01*
X184413216Y-145798456D01*
X184265646Y-145699853D01*
X184140147Y-145574354D01*
X184041544Y-145426784D01*
X183973624Y-145262812D01*
X183939000Y-145088741D01*
X183939000Y-144911259D01*
X183973624Y-144737188D01*
X184041544Y-144573216D01*
X184140147Y-144425646D01*
X184265646Y-144300147D01*
X184413216Y-144201544D01*
X184577188Y-144133624D01*
X184726488Y-144103927D01*
X184751258Y-144099000D01*
X184928742Y-144099000D01*
X184953512Y-144103927D01*
G37*
G36*
X182413512Y-144103927D02*
G01*
X182562812Y-144133624D01*
X182726784Y-144201544D01*
X182874354Y-144300147D01*
X182999853Y-144425646D01*
X183098456Y-144573216D01*
X183166376Y-144737188D01*
X183201000Y-144911259D01*
X183201000Y-145088741D01*
X183166376Y-145262812D01*
X183098456Y-145426784D01*
X182999853Y-145574354D01*
X182874354Y-145699853D01*
X182726784Y-145798456D01*
X182562812Y-145866376D01*
X182413512Y-145896073D01*
X182388742Y-145901000D01*
X182211258Y-145901000D01*
X182186488Y-145896073D01*
X182037188Y-145866376D01*
X181873216Y-145798456D01*
X181725646Y-145699853D01*
X181600147Y-145574354D01*
X181501544Y-145426784D01*
X181433624Y-145262812D01*
X181399000Y-145088741D01*
X181399000Y-144911259D01*
X181433624Y-144737188D01*
X181501544Y-144573216D01*
X181600147Y-144425646D01*
X181725646Y-144300147D01*
X181873216Y-144201544D01*
X182037188Y-144133624D01*
X182186488Y-144103927D01*
X182211258Y-144099000D01*
X182388742Y-144099000D01*
X182413512Y-144103927D01*
G37*
G36*
X179873512Y-144103927D02*
G01*
X180022812Y-144133624D01*
X180186784Y-144201544D01*
X180334354Y-144300147D01*
X180459853Y-144425646D01*
X180558456Y-144573216D01*
X180626376Y-144737188D01*
X180661000Y-144911259D01*
X180661000Y-145088741D01*
X180626376Y-145262812D01*
X180558456Y-145426784D01*
X180459853Y-145574354D01*
X180334354Y-145699853D01*
X180186784Y-145798456D01*
X180022812Y-145866376D01*
X179873512Y-145896073D01*
X179848742Y-145901000D01*
X179671258Y-145901000D01*
X179646488Y-145896073D01*
X179497188Y-145866376D01*
X179333216Y-145798456D01*
X179185646Y-145699853D01*
X179060147Y-145574354D01*
X178961544Y-145426784D01*
X178893624Y-145262812D01*
X178859000Y-145088741D01*
X178859000Y-144911259D01*
X178893624Y-144737188D01*
X178961544Y-144573216D01*
X179060147Y-144425646D01*
X179185646Y-144300147D01*
X179333216Y-144201544D01*
X179497188Y-144133624D01*
X179646488Y-144103927D01*
X179671258Y-144099000D01*
X179848742Y-144099000D01*
X179873512Y-144103927D01*
G37*
G36*
X177333512Y-144103927D02*
G01*
X177482812Y-144133624D01*
X177646784Y-144201544D01*
X177794354Y-144300147D01*
X177919853Y-144425646D01*
X178018456Y-144573216D01*
X178086376Y-144737188D01*
X178121000Y-144911259D01*
X178121000Y-145088741D01*
X178086376Y-145262812D01*
X178018456Y-145426784D01*
X177919853Y-145574354D01*
X177794354Y-145699853D01*
X177646784Y-145798456D01*
X177482812Y-145866376D01*
X177333512Y-145896073D01*
X177308742Y-145901000D01*
X177131258Y-145901000D01*
X177106488Y-145896073D01*
X176957188Y-145866376D01*
X176793216Y-145798456D01*
X176645646Y-145699853D01*
X176520147Y-145574354D01*
X176421544Y-145426784D01*
X176353624Y-145262812D01*
X176319000Y-145088741D01*
X176319000Y-144911259D01*
X176353624Y-144737188D01*
X176421544Y-144573216D01*
X176520147Y-144425646D01*
X176645646Y-144300147D01*
X176793216Y-144201544D01*
X176957188Y-144133624D01*
X177106488Y-144103927D01*
X177131258Y-144099000D01*
X177308742Y-144099000D01*
X177333512Y-144103927D01*
G37*
G36*
X174793512Y-144103927D02*
G01*
X174942812Y-144133624D01*
X175106784Y-144201544D01*
X175254354Y-144300147D01*
X175379853Y-144425646D01*
X175478456Y-144573216D01*
X175546376Y-144737188D01*
X175581000Y-144911259D01*
X175581000Y-145088741D01*
X175546376Y-145262812D01*
X175478456Y-145426784D01*
X175379853Y-145574354D01*
X175254354Y-145699853D01*
X175106784Y-145798456D01*
X174942812Y-145866376D01*
X174793512Y-145896073D01*
X174768742Y-145901000D01*
X174591258Y-145901000D01*
X174566488Y-145896073D01*
X174417188Y-145866376D01*
X174253216Y-145798456D01*
X174105646Y-145699853D01*
X173980147Y-145574354D01*
X173881544Y-145426784D01*
X173813624Y-145262812D01*
X173779000Y-145088741D01*
X173779000Y-144911259D01*
X173813624Y-144737188D01*
X173881544Y-144573216D01*
X173980147Y-144425646D01*
X174105646Y-144300147D01*
X174253216Y-144201544D01*
X174417188Y-144133624D01*
X174566488Y-144103927D01*
X174591258Y-144099000D01*
X174768742Y-144099000D01*
X174793512Y-144103927D01*
G37*
G36*
X172253512Y-144103927D02*
G01*
X172402812Y-144133624D01*
X172566784Y-144201544D01*
X172714354Y-144300147D01*
X172839853Y-144425646D01*
X172938456Y-144573216D01*
X173006376Y-144737188D01*
X173041000Y-144911259D01*
X173041000Y-145088741D01*
X173006376Y-145262812D01*
X172938456Y-145426784D01*
X172839853Y-145574354D01*
X172714354Y-145699853D01*
X172566784Y-145798456D01*
X172402812Y-145866376D01*
X172253512Y-145896073D01*
X172228742Y-145901000D01*
X172051258Y-145901000D01*
X172026488Y-145896073D01*
X171877188Y-145866376D01*
X171713216Y-145798456D01*
X171565646Y-145699853D01*
X171440147Y-145574354D01*
X171341544Y-145426784D01*
X171273624Y-145262812D01*
X171239000Y-145088741D01*
X171239000Y-144911259D01*
X171273624Y-144737188D01*
X171341544Y-144573216D01*
X171440147Y-144425646D01*
X171565646Y-144300147D01*
X171713216Y-144201544D01*
X171877188Y-144133624D01*
X172026488Y-144103927D01*
X172051258Y-144099000D01*
X172228742Y-144099000D01*
X172253512Y-144103927D01*
G37*
G36*
X169713512Y-144103927D02*
G01*
X169862812Y-144133624D01*
X170026784Y-144201544D01*
X170174354Y-144300147D01*
X170299853Y-144425646D01*
X170398456Y-144573216D01*
X170466376Y-144737188D01*
X170501000Y-144911259D01*
X170501000Y-145088741D01*
X170466376Y-145262812D01*
X170398456Y-145426784D01*
X170299853Y-145574354D01*
X170174354Y-145699853D01*
X170026784Y-145798456D01*
X169862812Y-145866376D01*
X169713512Y-145896073D01*
X169688742Y-145901000D01*
X169511258Y-145901000D01*
X169486488Y-145896073D01*
X169337188Y-145866376D01*
X169173216Y-145798456D01*
X169025646Y-145699853D01*
X168900147Y-145574354D01*
X168801544Y-145426784D01*
X168733624Y-145262812D01*
X168699000Y-145088741D01*
X168699000Y-144911259D01*
X168733624Y-144737188D01*
X168801544Y-144573216D01*
X168900147Y-144425646D01*
X169025646Y-144300147D01*
X169173216Y-144201544D01*
X169337188Y-144133624D01*
X169486488Y-144103927D01*
X169511258Y-144099000D01*
X169688742Y-144099000D01*
X169713512Y-144103927D01*
G37*
G36*
X167173512Y-144103927D02*
G01*
X167322812Y-144133624D01*
X167486784Y-144201544D01*
X167634354Y-144300147D01*
X167759853Y-144425646D01*
X167858456Y-144573216D01*
X167926376Y-144737188D01*
X167961000Y-144911259D01*
X167961000Y-145088741D01*
X167926376Y-145262812D01*
X167858456Y-145426784D01*
X167759853Y-145574354D01*
X167634354Y-145699853D01*
X167486784Y-145798456D01*
X167322812Y-145866376D01*
X167173512Y-145896073D01*
X167148742Y-145901000D01*
X166971258Y-145901000D01*
X166946488Y-145896073D01*
X166797188Y-145866376D01*
X166633216Y-145798456D01*
X166485646Y-145699853D01*
X166360147Y-145574354D01*
X166261544Y-145426784D01*
X166193624Y-145262812D01*
X166159000Y-145088741D01*
X166159000Y-144911259D01*
X166193624Y-144737188D01*
X166261544Y-144573216D01*
X166360147Y-144425646D01*
X166485646Y-144300147D01*
X166633216Y-144201544D01*
X166797188Y-144133624D01*
X166946488Y-144103927D01*
X166971258Y-144099000D01*
X167148742Y-144099000D01*
X167173512Y-144103927D01*
G37*
G36*
X164633512Y-144103927D02*
G01*
X164782812Y-144133624D01*
X164946784Y-144201544D01*
X165094354Y-144300147D01*
X165219853Y-144425646D01*
X165318456Y-144573216D01*
X165386376Y-144737188D01*
X165421000Y-144911259D01*
X165421000Y-145088741D01*
X165386376Y-145262812D01*
X165318456Y-145426784D01*
X165219853Y-145574354D01*
X165094354Y-145699853D01*
X164946784Y-145798456D01*
X164782812Y-145866376D01*
X164633512Y-145896073D01*
X164608742Y-145901000D01*
X164431258Y-145901000D01*
X164406488Y-145896073D01*
X164257188Y-145866376D01*
X164093216Y-145798456D01*
X163945646Y-145699853D01*
X163820147Y-145574354D01*
X163721544Y-145426784D01*
X163653624Y-145262812D01*
X163619000Y-145088741D01*
X163619000Y-144911259D01*
X163653624Y-144737188D01*
X163721544Y-144573216D01*
X163820147Y-144425646D01*
X163945646Y-144300147D01*
X164093216Y-144201544D01*
X164257188Y-144133624D01*
X164406488Y-144103927D01*
X164431258Y-144099000D01*
X164608742Y-144099000D01*
X164633512Y-144103927D01*
G37*
G36*
X187629591Y-139478085D02*
G01*
X187663569Y-139488393D01*
X187694890Y-139505134D01*
X187722339Y-139527661D01*
X187744866Y-139555110D01*
X187761607Y-139586431D01*
X187771915Y-139620409D01*
X187776000Y-139661890D01*
X187776000Y-140338110D01*
X187771915Y-140379591D01*
X187761607Y-140413569D01*
X187744866Y-140444890D01*
X187722339Y-140472339D01*
X187694890Y-140494866D01*
X187663569Y-140511607D01*
X187629591Y-140521915D01*
X187588110Y-140526000D01*
X186986890Y-140526000D01*
X186945409Y-140521915D01*
X186911431Y-140511607D01*
X186880110Y-140494866D01*
X186852661Y-140472339D01*
X186830134Y-140444890D01*
X186813393Y-140413569D01*
X186803085Y-140379591D01*
X186799000Y-140338110D01*
X186799000Y-139661890D01*
X186803085Y-139620409D01*
X186813393Y-139586431D01*
X186830134Y-139555110D01*
X186852661Y-139527661D01*
X186880110Y-139505134D01*
X186911431Y-139488393D01*
X186945409Y-139478085D01*
X186986890Y-139474000D01*
X187588110Y-139474000D01*
X187629591Y-139478085D01*
G37*
G36*
X186054591Y-139478085D02*
G01*
X186088569Y-139488393D01*
X186119890Y-139505134D01*
X186147339Y-139527661D01*
X186169866Y-139555110D01*
X186186607Y-139586431D01*
X186196915Y-139620409D01*
X186201000Y-139661890D01*
X186201000Y-140338110D01*
X186196915Y-140379591D01*
X186186607Y-140413569D01*
X186169866Y-140444890D01*
X186147339Y-140472339D01*
X186119890Y-140494866D01*
X186088569Y-140511607D01*
X186054591Y-140521915D01*
X186013110Y-140526000D01*
X185411890Y-140526000D01*
X185370409Y-140521915D01*
X185336431Y-140511607D01*
X185305110Y-140494866D01*
X185277661Y-140472339D01*
X185255134Y-140444890D01*
X185238393Y-140413569D01*
X185228085Y-140379591D01*
X185224000Y-140338110D01*
X185224000Y-139661890D01*
X185228085Y-139620409D01*
X185238393Y-139586431D01*
X185255134Y-139555110D01*
X185277661Y-139527661D01*
X185305110Y-139505134D01*
X185336431Y-139488393D01*
X185370409Y-139478085D01*
X185411890Y-139474000D01*
X186013110Y-139474000D01*
X186054591Y-139478085D01*
G37*
G36*
X170767091Y-139478085D02*
G01*
X170801069Y-139488393D01*
X170832390Y-139505134D01*
X170859839Y-139527661D01*
X170882366Y-139555110D01*
X170899107Y-139586431D01*
X170909415Y-139620409D01*
X170913500Y-139661890D01*
X170913500Y-140338110D01*
X170909415Y-140379591D01*
X170899107Y-140413569D01*
X170882366Y-140444890D01*
X170859839Y-140472339D01*
X170832390Y-140494866D01*
X170801069Y-140511607D01*
X170767091Y-140521915D01*
X170725610Y-140526000D01*
X170124390Y-140526000D01*
X170082909Y-140521915D01*
X170048931Y-140511607D01*
X170017610Y-140494866D01*
X169990161Y-140472339D01*
X169967634Y-140444890D01*
X169950893Y-140413569D01*
X169940585Y-140379591D01*
X169936500Y-140338110D01*
X169936500Y-139661890D01*
X169940585Y-139620409D01*
X169950893Y-139586431D01*
X169967634Y-139555110D01*
X169990161Y-139527661D01*
X170017610Y-139505134D01*
X170048931Y-139488393D01*
X170082909Y-139478085D01*
X170124390Y-139474000D01*
X170725610Y-139474000D01*
X170767091Y-139478085D01*
G37*
G36*
X155767091Y-139478085D02*
G01*
X155801069Y-139488393D01*
X155832390Y-139505134D01*
X155859839Y-139527661D01*
X155882366Y-139555110D01*
X155899107Y-139586431D01*
X155909415Y-139620409D01*
X155913500Y-139661890D01*
X155913500Y-140338110D01*
X155909415Y-140379591D01*
X155899107Y-140413569D01*
X155882366Y-140444890D01*
X155859839Y-140472339D01*
X155832390Y-140494866D01*
X155801069Y-140511607D01*
X155767091Y-140521915D01*
X155725610Y-140526000D01*
X155124390Y-140526000D01*
X155082909Y-140521915D01*
X155048931Y-140511607D01*
X155017610Y-140494866D01*
X154990161Y-140472339D01*
X154967634Y-140444890D01*
X154950893Y-140413569D01*
X154940585Y-140379591D01*
X154936500Y-140338110D01*
X154936500Y-139661890D01*
X154940585Y-139620409D01*
X154950893Y-139586431D01*
X154967634Y-139555110D01*
X154990161Y-139527661D01*
X155017610Y-139505134D01*
X155048931Y-139488393D01*
X155082909Y-139478085D01*
X155124390Y-139474000D01*
X155725610Y-139474000D01*
X155767091Y-139478085D01*
G37*
G36*
X172342091Y-139478085D02*
G01*
X172376069Y-139488393D01*
X172407390Y-139505134D01*
X172434839Y-139527661D01*
X172457366Y-139555110D01*
X172474107Y-139586431D01*
X172484415Y-139620409D01*
X172488500Y-139661890D01*
X172488500Y-140338110D01*
X172484415Y-140379591D01*
X172474107Y-140413569D01*
X172457366Y-140444890D01*
X172434839Y-140472339D01*
X172407390Y-140494866D01*
X172376069Y-140511607D01*
X172342091Y-140521915D01*
X172300610Y-140526000D01*
X171699390Y-140526000D01*
X171657909Y-140521915D01*
X171623931Y-140511607D01*
X171592610Y-140494866D01*
X171565161Y-140472339D01*
X171542634Y-140444890D01*
X171525893Y-140413569D01*
X171515585Y-140379591D01*
X171511500Y-140338110D01*
X171511500Y-139661890D01*
X171515585Y-139620409D01*
X171525893Y-139586431D01*
X171542634Y-139555110D01*
X171565161Y-139527661D01*
X171592610Y-139505134D01*
X171623931Y-139488393D01*
X171657909Y-139478085D01*
X171699390Y-139474000D01*
X172300610Y-139474000D01*
X172342091Y-139478085D01*
G37*
G36*
X157342091Y-139478085D02*
G01*
X157376069Y-139488393D01*
X157407390Y-139505134D01*
X157434839Y-139527661D01*
X157457366Y-139555110D01*
X157474107Y-139586431D01*
X157484415Y-139620409D01*
X157488500Y-139661890D01*
X157488500Y-140338110D01*
X157484415Y-140379591D01*
X157474107Y-140413569D01*
X157457366Y-140444890D01*
X157434839Y-140472339D01*
X157407390Y-140494866D01*
X157376069Y-140511607D01*
X157342091Y-140521915D01*
X157300610Y-140526000D01*
X156699390Y-140526000D01*
X156657909Y-140521915D01*
X156623931Y-140511607D01*
X156592610Y-140494866D01*
X156565161Y-140472339D01*
X156542634Y-140444890D01*
X156525893Y-140413569D01*
X156515585Y-140379591D01*
X156511500Y-140338110D01*
X156511500Y-139661890D01*
X156515585Y-139620409D01*
X156525893Y-139586431D01*
X156542634Y-139555110D01*
X156565161Y-139527661D01*
X156592610Y-139505134D01*
X156623931Y-139488393D01*
X156657909Y-139478085D01*
X156699390Y-139474000D01*
X157300610Y-139474000D01*
X157342091Y-139478085D01*
G37*
G36*
X192598254Y-134927818D02*
G01*
X192971511Y-135082426D01*
X192971513Y-135082427D01*
X193307436Y-135306884D01*
X193593116Y-135592564D01*
X193808196Y-135914453D01*
X193817574Y-135928489D01*
X193972182Y-136301746D01*
X194051000Y-136697993D01*
X194051000Y-137102007D01*
X193972182Y-137498254D01*
X193817574Y-137871511D01*
X193817573Y-137871513D01*
X193593116Y-138207436D01*
X193307436Y-138493116D01*
X192971513Y-138717573D01*
X192971512Y-138717574D01*
X192971511Y-138717574D01*
X192598254Y-138872182D01*
X192202007Y-138951000D01*
X191797993Y-138951000D01*
X191401746Y-138872182D01*
X191028489Y-138717574D01*
X191028488Y-138717574D01*
X191028487Y-138717573D01*
X190692564Y-138493116D01*
X190406884Y-138207436D01*
X190182427Y-137871513D01*
X190182426Y-137871511D01*
X190027818Y-137498254D01*
X189949000Y-137102007D01*
X189949000Y-136697993D01*
X190027818Y-136301746D01*
X190182426Y-135928489D01*
X190191805Y-135914453D01*
X190406884Y-135592564D01*
X190692564Y-135306884D01*
X191028487Y-135082427D01*
X191028489Y-135082426D01*
X191401746Y-134927818D01*
X191797993Y-134849000D01*
X192202007Y-134849000D01*
X192598254Y-134927818D01*
G37*
G36*
X177598254Y-134927818D02*
G01*
X177971511Y-135082426D01*
X177971513Y-135082427D01*
X178307436Y-135306884D01*
X178593116Y-135592564D01*
X178808196Y-135914453D01*
X178817574Y-135928489D01*
X178972182Y-136301746D01*
X179051000Y-136697993D01*
X179051000Y-137102007D01*
X178972182Y-137498254D01*
X178817574Y-137871511D01*
X178817573Y-137871513D01*
X178593116Y-138207436D01*
X178307436Y-138493116D01*
X177971513Y-138717573D01*
X177971512Y-138717574D01*
X177971511Y-138717574D01*
X177598254Y-138872182D01*
X177202007Y-138951000D01*
X176797993Y-138951000D01*
X176401746Y-138872182D01*
X176028489Y-138717574D01*
X176028488Y-138717574D01*
X176028487Y-138717573D01*
X175692564Y-138493116D01*
X175406884Y-138207436D01*
X175182427Y-137871513D01*
X175182426Y-137871511D01*
X175027818Y-137498254D01*
X174949000Y-137102007D01*
X174949000Y-136697993D01*
X175027818Y-136301746D01*
X175182426Y-135928489D01*
X175191805Y-135914453D01*
X175406884Y-135592564D01*
X175692564Y-135306884D01*
X176028487Y-135082427D01*
X176028489Y-135082426D01*
X176401746Y-134927818D01*
X176797993Y-134849000D01*
X177202007Y-134849000D01*
X177598254Y-134927818D01*
G37*
G36*
X162598254Y-134927818D02*
G01*
X162971511Y-135082426D01*
X162971513Y-135082427D01*
X163307436Y-135306884D01*
X163593116Y-135592564D01*
X163808196Y-135914453D01*
X163817574Y-135928489D01*
X163972182Y-136301746D01*
X164051000Y-136697993D01*
X164051000Y-137102007D01*
X163972182Y-137498254D01*
X163817574Y-137871511D01*
X163817573Y-137871513D01*
X163593116Y-138207436D01*
X163307436Y-138493116D01*
X162971513Y-138717573D01*
X162971512Y-138717574D01*
X162971511Y-138717574D01*
X162598254Y-138872182D01*
X162202007Y-138951000D01*
X161797993Y-138951000D01*
X161401746Y-138872182D01*
X161028489Y-138717574D01*
X161028488Y-138717574D01*
X161028487Y-138717573D01*
X160692564Y-138493116D01*
X160406884Y-138207436D01*
X160182427Y-137871513D01*
X160182426Y-137871511D01*
X160027818Y-137498254D01*
X159949000Y-137102007D01*
X159949000Y-136697993D01*
X160027818Y-136301746D01*
X160182426Y-135928489D01*
X160191805Y-135914453D01*
X160406884Y-135592564D01*
X160692564Y-135306884D01*
X161028487Y-135082427D01*
X161028489Y-135082426D01*
X161401746Y-134927818D01*
X161797993Y-134849000D01*
X162202007Y-134849000D01*
X162598254Y-134927818D01*
G37*
G36*
X155277395Y-134085546D02*
G01*
X155450466Y-134157234D01*
X155450467Y-134157235D01*
X155606227Y-134261310D01*
X155738690Y-134393773D01*
X155738691Y-134393775D01*
X155842766Y-134549534D01*
X155914454Y-134722605D01*
X155951000Y-134906333D01*
X155951000Y-135093667D01*
X155914454Y-135277395D01*
X155842766Y-135450466D01*
X155842765Y-135450467D01*
X155738690Y-135606227D01*
X155606227Y-135738690D01*
X155527818Y-135791081D01*
X155450466Y-135842766D01*
X155277395Y-135914454D01*
X155093667Y-135951000D01*
X154906333Y-135951000D01*
X154722605Y-135914454D01*
X154549534Y-135842766D01*
X154472182Y-135791081D01*
X154393773Y-135738690D01*
X154261310Y-135606227D01*
X154157235Y-135450467D01*
X154157234Y-135450466D01*
X154085546Y-135277395D01*
X154049000Y-135093667D01*
X154049000Y-134906333D01*
X154085546Y-134722605D01*
X154157234Y-134549534D01*
X154261309Y-134393775D01*
X154261310Y-134393773D01*
X154393773Y-134261310D01*
X154549533Y-134157235D01*
X154549534Y-134157234D01*
X154722605Y-134085546D01*
X154906333Y-134049000D01*
X155093667Y-134049000D01*
X155277395Y-134085546D01*
G37*
G36*
X170277395Y-134085546D02*
G01*
X170450466Y-134157234D01*
X170450467Y-134157235D01*
X170606227Y-134261310D01*
X170738690Y-134393773D01*
X170738691Y-134393775D01*
X170842766Y-134549534D01*
X170914454Y-134722605D01*
X170951000Y-134906333D01*
X170951000Y-135093667D01*
X170914454Y-135277395D01*
X170842766Y-135450466D01*
X170842765Y-135450467D01*
X170738690Y-135606227D01*
X170606227Y-135738690D01*
X170527818Y-135791081D01*
X170450466Y-135842766D01*
X170277395Y-135914454D01*
X170093667Y-135951000D01*
X169906333Y-135951000D01*
X169722605Y-135914454D01*
X169549534Y-135842766D01*
X169472182Y-135791081D01*
X169393773Y-135738690D01*
X169261310Y-135606227D01*
X169157235Y-135450467D01*
X169157234Y-135450466D01*
X169085546Y-135277395D01*
X169049000Y-135093667D01*
X169049000Y-134906333D01*
X169085546Y-134722605D01*
X169157234Y-134549534D01*
X169261309Y-134393775D01*
X169261310Y-134393773D01*
X169393773Y-134261310D01*
X169549533Y-134157235D01*
X169549534Y-134157234D01*
X169722605Y-134085546D01*
X169906333Y-134049000D01*
X170093667Y-134049000D01*
X170277395Y-134085546D01*
G37*
G36*
X185277395Y-134085546D02*
G01*
X185450466Y-134157234D01*
X185450467Y-134157235D01*
X185606227Y-134261310D01*
X185738690Y-134393773D01*
X185738691Y-134393775D01*
X185842766Y-134549534D01*
X185914454Y-134722605D01*
X185951000Y-134906333D01*
X185951000Y-135093667D01*
X185914454Y-135277395D01*
X185842766Y-135450466D01*
X185842765Y-135450467D01*
X185738690Y-135606227D01*
X185606227Y-135738690D01*
X185527818Y-135791081D01*
X185450466Y-135842766D01*
X185277395Y-135914454D01*
X185093667Y-135951000D01*
X184906333Y-135951000D01*
X184722605Y-135914454D01*
X184549534Y-135842766D01*
X184472182Y-135791081D01*
X184393773Y-135738690D01*
X184261310Y-135606227D01*
X184157235Y-135450467D01*
X184157234Y-135450466D01*
X184085546Y-135277395D01*
X184049000Y-135093667D01*
X184049000Y-134906333D01*
X184085546Y-134722605D01*
X184157234Y-134549534D01*
X184261309Y-134393775D01*
X184261310Y-134393773D01*
X184393773Y-134261310D01*
X184549533Y-134157235D01*
X184549534Y-134157234D01*
X184722605Y-134085546D01*
X184906333Y-134049000D01*
X185093667Y-134049000D01*
X185277395Y-134085546D01*
G37*
G36*
X170277395Y-131585546D02*
G01*
X170450466Y-131657234D01*
X170450467Y-131657235D01*
X170606227Y-131761310D01*
X170738690Y-131893773D01*
X170738691Y-131893775D01*
X170842766Y-132049534D01*
X170914454Y-132222605D01*
X170951000Y-132406333D01*
X170951000Y-132593667D01*
X170914454Y-132777395D01*
X170842766Y-132950466D01*
X170842765Y-132950467D01*
X170738690Y-133106227D01*
X170606227Y-133238690D01*
X170527818Y-133291081D01*
X170450466Y-133342766D01*
X170277395Y-133414454D01*
X170093667Y-133451000D01*
X169906333Y-133451000D01*
X169722605Y-133414454D01*
X169549534Y-133342766D01*
X169472182Y-133291081D01*
X169393773Y-133238690D01*
X169261310Y-133106227D01*
X169157235Y-132950467D01*
X169157234Y-132950466D01*
X169085546Y-132777395D01*
X169049000Y-132593667D01*
X169049000Y-132406333D01*
X169085546Y-132222605D01*
X169157234Y-132049534D01*
X169261309Y-131893775D01*
X169261310Y-131893773D01*
X169393773Y-131761310D01*
X169549533Y-131657235D01*
X169549534Y-131657234D01*
X169722605Y-131585546D01*
X169906333Y-131549000D01*
X170093667Y-131549000D01*
X170277395Y-131585546D01*
G37*
G36*
X155277395Y-131585546D02*
G01*
X155450466Y-131657234D01*
X155450467Y-131657235D01*
X155606227Y-131761310D01*
X155738690Y-131893773D01*
X155738691Y-131893775D01*
X155842766Y-132049534D01*
X155914454Y-132222605D01*
X155951000Y-132406333D01*
X155951000Y-132593667D01*
X155914454Y-132777395D01*
X155842766Y-132950466D01*
X155842765Y-132950467D01*
X155738690Y-133106227D01*
X155606227Y-133238690D01*
X155527818Y-133291081D01*
X155450466Y-133342766D01*
X155277395Y-133414454D01*
X155093667Y-133451000D01*
X154906333Y-133451000D01*
X154722605Y-133414454D01*
X154549534Y-133342766D01*
X154472182Y-133291081D01*
X154393773Y-133238690D01*
X154261310Y-133106227D01*
X154157235Y-132950467D01*
X154157234Y-132950466D01*
X154085546Y-132777395D01*
X154049000Y-132593667D01*
X154049000Y-132406333D01*
X154085546Y-132222605D01*
X154157234Y-132049534D01*
X154261309Y-131893775D01*
X154261310Y-131893773D01*
X154393773Y-131761310D01*
X154549533Y-131657235D01*
X154549534Y-131657234D01*
X154722605Y-131585546D01*
X154906333Y-131549000D01*
X155093667Y-131549000D01*
X155277395Y-131585546D01*
G37*
G36*
X185277395Y-131585546D02*
G01*
X185450466Y-131657234D01*
X185450467Y-131657235D01*
X185606227Y-131761310D01*
X185738690Y-131893773D01*
X185738691Y-131893775D01*
X185842766Y-132049534D01*
X185914454Y-132222605D01*
X185951000Y-132406333D01*
X185951000Y-132593667D01*
X185914454Y-132777395D01*
X185842766Y-132950466D01*
X185842765Y-132950467D01*
X185738690Y-133106227D01*
X185606227Y-133238690D01*
X185527818Y-133291081D01*
X185450466Y-133342766D01*
X185277395Y-133414454D01*
X185093667Y-133451000D01*
X184906333Y-133451000D01*
X184722605Y-133414454D01*
X184549534Y-133342766D01*
X184472182Y-133291081D01*
X184393773Y-133238690D01*
X184261310Y-133106227D01*
X184157235Y-132950467D01*
X184157234Y-132950466D01*
X184085546Y-132777395D01*
X184049000Y-132593667D01*
X184049000Y-132406333D01*
X184085546Y-132222605D01*
X184157234Y-132049534D01*
X184261309Y-131893775D01*
X184261310Y-131893773D01*
X184393773Y-131761310D01*
X184549533Y-131657235D01*
X184549534Y-131657234D01*
X184722605Y-131585546D01*
X184906333Y-131549000D01*
X185093667Y-131549000D01*
X185277395Y-131585546D01*
G37*
G36*
X155277395Y-129085546D02*
G01*
X155450466Y-129157234D01*
X155450467Y-129157235D01*
X155606227Y-129261310D01*
X155738690Y-129393773D01*
X155738691Y-129393775D01*
X155842766Y-129549534D01*
X155914454Y-129722605D01*
X155951000Y-129906333D01*
X155951000Y-130093667D01*
X155914454Y-130277395D01*
X155842766Y-130450466D01*
X155842765Y-130450467D01*
X155738690Y-130606227D01*
X155606227Y-130738690D01*
X155527818Y-130791081D01*
X155450466Y-130842766D01*
X155277395Y-130914454D01*
X155093667Y-130951000D01*
X154906333Y-130951000D01*
X154722605Y-130914454D01*
X154549534Y-130842766D01*
X154472182Y-130791081D01*
X154393773Y-130738690D01*
X154261310Y-130606227D01*
X154157235Y-130450467D01*
X154157234Y-130450466D01*
X154085546Y-130277395D01*
X154049000Y-130093667D01*
X154049000Y-129906333D01*
X154085546Y-129722605D01*
X154157234Y-129549534D01*
X154261309Y-129393775D01*
X154261310Y-129393773D01*
X154393773Y-129261310D01*
X154549533Y-129157235D01*
X154549534Y-129157234D01*
X154722605Y-129085546D01*
X154906333Y-129049000D01*
X155093667Y-129049000D01*
X155277395Y-129085546D01*
G37*
G36*
X170277395Y-129085546D02*
G01*
X170450466Y-129157234D01*
X170450467Y-129157235D01*
X170606227Y-129261310D01*
X170738690Y-129393773D01*
X170738691Y-129393775D01*
X170842766Y-129549534D01*
X170914454Y-129722605D01*
X170951000Y-129906333D01*
X170951000Y-130093667D01*
X170914454Y-130277395D01*
X170842766Y-130450466D01*
X170842765Y-130450467D01*
X170738690Y-130606227D01*
X170606227Y-130738690D01*
X170527818Y-130791081D01*
X170450466Y-130842766D01*
X170277395Y-130914454D01*
X170093667Y-130951000D01*
X169906333Y-130951000D01*
X169722605Y-130914454D01*
X169549534Y-130842766D01*
X169472182Y-130791081D01*
X169393773Y-130738690D01*
X169261310Y-130606227D01*
X169157235Y-130450467D01*
X169157234Y-130450466D01*
X169085546Y-130277395D01*
X169049000Y-130093667D01*
X169049000Y-129906333D01*
X169085546Y-129722605D01*
X169157234Y-129549534D01*
X169261309Y-129393775D01*
X169261310Y-129393773D01*
X169393773Y-129261310D01*
X169549533Y-129157235D01*
X169549534Y-129157234D01*
X169722605Y-129085546D01*
X169906333Y-129049000D01*
X170093667Y-129049000D01*
X170277395Y-129085546D01*
G37*
G36*
X185277395Y-129085546D02*
G01*
X185450466Y-129157234D01*
X185450467Y-129157235D01*
X185606227Y-129261310D01*
X185738690Y-129393773D01*
X185738691Y-129393775D01*
X185842766Y-129549534D01*
X185914454Y-129722605D01*
X185951000Y-129906333D01*
X185951000Y-130093667D01*
X185914454Y-130277395D01*
X185842766Y-130450466D01*
X185842765Y-130450467D01*
X185738690Y-130606227D01*
X185606227Y-130738690D01*
X185527818Y-130791081D01*
X185450466Y-130842766D01*
X185277395Y-130914454D01*
X185093667Y-130951000D01*
X184906333Y-130951000D01*
X184722605Y-130914454D01*
X184549534Y-130842766D01*
X184472182Y-130791081D01*
X184393773Y-130738690D01*
X184261310Y-130606227D01*
X184157235Y-130450467D01*
X184157234Y-130450466D01*
X184085546Y-130277395D01*
X184049000Y-130093667D01*
X184049000Y-129906333D01*
X184085546Y-129722605D01*
X184157234Y-129549534D01*
X184261309Y-129393775D01*
X184261310Y-129393773D01*
X184393773Y-129261310D01*
X184549533Y-129157235D01*
X184549534Y-129157234D01*
X184722605Y-129085546D01*
X184906333Y-129049000D01*
X185093667Y-129049000D01*
X185277395Y-129085546D01*
G37*
G36*
X192598254Y-126127818D02*
G01*
X192971511Y-126282426D01*
X192971513Y-126282427D01*
X193307436Y-126506884D01*
X193593116Y-126792564D01*
X193817574Y-127128489D01*
X193972182Y-127501746D01*
X194051000Y-127897993D01*
X194051000Y-128302007D01*
X193972182Y-128698254D01*
X193826898Y-129049000D01*
X193817573Y-129071513D01*
X193593116Y-129407436D01*
X193307436Y-129693116D01*
X192971513Y-129917573D01*
X192971512Y-129917574D01*
X192971511Y-129917574D01*
X192598254Y-130072182D01*
X192202007Y-130151000D01*
X191797993Y-130151000D01*
X191401746Y-130072182D01*
X191028489Y-129917574D01*
X191028488Y-129917574D01*
X191028487Y-129917573D01*
X190692564Y-129693116D01*
X190406884Y-129407436D01*
X190182427Y-129071513D01*
X190173102Y-129049000D01*
X190027818Y-128698254D01*
X189949000Y-128302007D01*
X189949000Y-127897993D01*
X190027818Y-127501746D01*
X190182426Y-127128489D01*
X190406884Y-126792564D01*
X190692564Y-126506884D01*
X191028487Y-126282427D01*
X191028489Y-126282426D01*
X191401746Y-126127818D01*
X191797993Y-126049000D01*
X192202007Y-126049000D01*
X192598254Y-126127818D01*
G37*
G36*
X162598254Y-126127818D02*
G01*
X162971511Y-126282426D01*
X162971513Y-126282427D01*
X163307436Y-126506884D01*
X163593116Y-126792564D01*
X163817574Y-127128489D01*
X163972182Y-127501746D01*
X164051000Y-127897993D01*
X164051000Y-128302007D01*
X163972182Y-128698254D01*
X163826898Y-129049000D01*
X163817573Y-129071513D01*
X163593116Y-129407436D01*
X163307436Y-129693116D01*
X162971513Y-129917573D01*
X162971512Y-129917574D01*
X162971511Y-129917574D01*
X162598254Y-130072182D01*
X162202007Y-130151000D01*
X161797993Y-130151000D01*
X161401746Y-130072182D01*
X161028489Y-129917574D01*
X161028488Y-129917574D01*
X161028487Y-129917573D01*
X160692564Y-129693116D01*
X160406884Y-129407436D01*
X160182427Y-129071513D01*
X160173102Y-129049000D01*
X160027818Y-128698254D01*
X159949000Y-128302007D01*
X159949000Y-127897993D01*
X160027818Y-127501746D01*
X160182426Y-127128489D01*
X160406884Y-126792564D01*
X160692564Y-126506884D01*
X161028487Y-126282427D01*
X161028489Y-126282426D01*
X161401746Y-126127818D01*
X161797993Y-126049000D01*
X162202007Y-126049000D01*
X162598254Y-126127818D01*
G37*
G36*
X177598254Y-126127818D02*
G01*
X177971511Y-126282426D01*
X177971513Y-126282427D01*
X178307436Y-126506884D01*
X178593116Y-126792564D01*
X178817574Y-127128489D01*
X178972182Y-127501746D01*
X179051000Y-127897993D01*
X179051000Y-128302007D01*
X178972182Y-128698254D01*
X178826898Y-129049000D01*
X178817573Y-129071513D01*
X178593116Y-129407436D01*
X178307436Y-129693116D01*
X177971513Y-129917573D01*
X177971512Y-129917574D01*
X177971511Y-129917574D01*
X177598254Y-130072182D01*
X177202007Y-130151000D01*
X176797993Y-130151000D01*
X176401746Y-130072182D01*
X176028489Y-129917574D01*
X176028488Y-129917574D01*
X176028487Y-129917573D01*
X175692564Y-129693116D01*
X175406884Y-129407436D01*
X175182427Y-129071513D01*
X175173102Y-129049000D01*
X175027818Y-128698254D01*
X174949000Y-128302007D01*
X174949000Y-127897993D01*
X175027818Y-127501746D01*
X175182426Y-127128489D01*
X175406884Y-126792564D01*
X175692564Y-126506884D01*
X176028487Y-126282427D01*
X176028489Y-126282426D01*
X176401746Y-126127818D01*
X176797993Y-126049000D01*
X177202007Y-126049000D01*
X177598254Y-126127818D01*
G37*
G36*
X165629591Y-120478085D02*
G01*
X165663569Y-120488393D01*
X165694890Y-120505134D01*
X165722339Y-120527661D01*
X165744866Y-120555110D01*
X165761607Y-120586431D01*
X165771915Y-120620409D01*
X165776000Y-120661890D01*
X165776000Y-121338110D01*
X165771915Y-121379591D01*
X165761607Y-121413569D01*
X165744866Y-121444890D01*
X165722339Y-121472339D01*
X165694890Y-121494866D01*
X165663569Y-121511607D01*
X165629591Y-121521915D01*
X165588110Y-121526000D01*
X164986890Y-121526000D01*
X164945409Y-121521915D01*
X164911431Y-121511607D01*
X164880110Y-121494866D01*
X164852661Y-121472339D01*
X164830134Y-121444890D01*
X164813393Y-121413569D01*
X164803085Y-121379591D01*
X164799000Y-121338110D01*
X164799000Y-120661890D01*
X164803085Y-120620409D01*
X164813393Y-120586431D01*
X164830134Y-120555110D01*
X164852661Y-120527661D01*
X164880110Y-120505134D01*
X164911431Y-120488393D01*
X164945409Y-120478085D01*
X164986890Y-120474000D01*
X165588110Y-120474000D01*
X165629591Y-120478085D01*
G37*
G36*
X164054591Y-120478085D02*
G01*
X164088569Y-120488393D01*
X164119890Y-120505134D01*
X164147339Y-120527661D01*
X164169866Y-120555110D01*
X164186607Y-120586431D01*
X164196915Y-120620409D01*
X164201000Y-120661890D01*
X164201000Y-121338110D01*
X164196915Y-121379591D01*
X164186607Y-121413569D01*
X164169866Y-121444890D01*
X164147339Y-121472339D01*
X164119890Y-121494866D01*
X164088569Y-121511607D01*
X164054591Y-121521915D01*
X164013110Y-121526000D01*
X163411890Y-121526000D01*
X163370409Y-121521915D01*
X163336431Y-121511607D01*
X163305110Y-121494866D01*
X163277661Y-121472339D01*
X163255134Y-121444890D01*
X163238393Y-121413569D01*
X163228085Y-121379591D01*
X163224000Y-121338110D01*
X163224000Y-120661890D01*
X163228085Y-120620409D01*
X163238393Y-120586431D01*
X163255134Y-120555110D01*
X163277661Y-120527661D01*
X163305110Y-120505134D01*
X163336431Y-120488393D01*
X163370409Y-120478085D01*
X163411890Y-120474000D01*
X164013110Y-120474000D01*
X164054591Y-120478085D01*
G37*
G36*
X179054591Y-120478085D02*
G01*
X179088569Y-120488393D01*
X179119890Y-120505134D01*
X179147339Y-120527661D01*
X179169866Y-120555110D01*
X179186607Y-120586431D01*
X179196915Y-120620409D01*
X179201000Y-120661890D01*
X179201000Y-121338110D01*
X179196915Y-121379591D01*
X179186607Y-121413569D01*
X179169866Y-121444890D01*
X179147339Y-121472339D01*
X179119890Y-121494866D01*
X179088569Y-121511607D01*
X179054591Y-121521915D01*
X179013110Y-121526000D01*
X178411890Y-121526000D01*
X178370409Y-121521915D01*
X178336431Y-121511607D01*
X178305110Y-121494866D01*
X178277661Y-121472339D01*
X178255134Y-121444890D01*
X178238393Y-121413569D01*
X178228085Y-121379591D01*
X178224000Y-121338110D01*
X178224000Y-120661890D01*
X178228085Y-120620409D01*
X178238393Y-120586431D01*
X178255134Y-120555110D01*
X178277661Y-120527661D01*
X178305110Y-120505134D01*
X178336431Y-120488393D01*
X178370409Y-120478085D01*
X178411890Y-120474000D01*
X179013110Y-120474000D01*
X179054591Y-120478085D01*
G37*
G36*
X180629591Y-120478085D02*
G01*
X180663569Y-120488393D01*
X180694890Y-120505134D01*
X180722339Y-120527661D01*
X180744866Y-120555110D01*
X180761607Y-120586431D01*
X180771915Y-120620409D01*
X180776000Y-120661890D01*
X180776000Y-121338110D01*
X180771915Y-121379591D01*
X180761607Y-121413569D01*
X180744866Y-121444890D01*
X180722339Y-121472339D01*
X180694890Y-121494866D01*
X180663569Y-121511607D01*
X180629591Y-121521915D01*
X180588110Y-121526000D01*
X179986890Y-121526000D01*
X179945409Y-121521915D01*
X179911431Y-121511607D01*
X179880110Y-121494866D01*
X179852661Y-121472339D01*
X179830134Y-121444890D01*
X179813393Y-121413569D01*
X179803085Y-121379591D01*
X179799000Y-121338110D01*
X179799000Y-120661890D01*
X179803085Y-120620409D01*
X179813393Y-120586431D01*
X179830134Y-120555110D01*
X179852661Y-120527661D01*
X179880110Y-120505134D01*
X179911431Y-120488393D01*
X179945409Y-120478085D01*
X179986890Y-120474000D01*
X180588110Y-120474000D01*
X180629591Y-120478085D01*
G37*
G36*
X180629591Y-118978085D02*
G01*
X180663569Y-118988393D01*
X180694890Y-119005134D01*
X180722339Y-119027661D01*
X180744866Y-119055110D01*
X180761607Y-119086431D01*
X180771915Y-119120409D01*
X180776000Y-119161890D01*
X180776000Y-119838110D01*
X180771915Y-119879591D01*
X180761607Y-119913569D01*
X180744866Y-119944890D01*
X180722339Y-119972339D01*
X180694890Y-119994866D01*
X180663569Y-120011607D01*
X180629591Y-120021915D01*
X180588110Y-120026000D01*
X179986890Y-120026000D01*
X179945409Y-120021915D01*
X179911431Y-120011607D01*
X179880110Y-119994866D01*
X179852661Y-119972339D01*
X179830134Y-119944890D01*
X179813393Y-119913569D01*
X179803085Y-119879591D01*
X179799000Y-119838110D01*
X179799000Y-119161890D01*
X179803085Y-119120409D01*
X179813393Y-119086431D01*
X179830134Y-119055110D01*
X179852661Y-119027661D01*
X179880110Y-119005134D01*
X179911431Y-118988393D01*
X179945409Y-118978085D01*
X179986890Y-118974000D01*
X180588110Y-118974000D01*
X180629591Y-118978085D01*
G37*
G36*
X179054591Y-118978085D02*
G01*
X179088569Y-118988393D01*
X179119890Y-119005134D01*
X179147339Y-119027661D01*
X179169866Y-119055110D01*
X179186607Y-119086431D01*
X179196915Y-119120409D01*
X179201000Y-119161890D01*
X179201000Y-119838110D01*
X179196915Y-119879591D01*
X179186607Y-119913569D01*
X179169866Y-119944890D01*
X179147339Y-119972339D01*
X179119890Y-119994866D01*
X179088569Y-120011607D01*
X179054591Y-120021915D01*
X179013110Y-120026000D01*
X178411890Y-120026000D01*
X178370409Y-120021915D01*
X178336431Y-120011607D01*
X178305110Y-119994866D01*
X178277661Y-119972339D01*
X178255134Y-119944890D01*
X178238393Y-119913569D01*
X178228085Y-119879591D01*
X178224000Y-119838110D01*
X178224000Y-119161890D01*
X178228085Y-119120409D01*
X178238393Y-119086431D01*
X178255134Y-119055110D01*
X178277661Y-119027661D01*
X178305110Y-119005134D01*
X178336431Y-118988393D01*
X178370409Y-118978085D01*
X178411890Y-118974000D01*
X179013110Y-118974000D01*
X179054591Y-118978085D01*
G37*
G36*
X164054591Y-118978085D02*
G01*
X164088569Y-118988393D01*
X164119890Y-119005134D01*
X164147339Y-119027661D01*
X164169866Y-119055110D01*
X164186607Y-119086431D01*
X164196915Y-119120409D01*
X164201000Y-119161890D01*
X164201000Y-119838110D01*
X164196915Y-119879591D01*
X164186607Y-119913569D01*
X164169866Y-119944890D01*
X164147339Y-119972339D01*
X164119890Y-119994866D01*
X164088569Y-120011607D01*
X164054591Y-120021915D01*
X164013110Y-120026000D01*
X163411890Y-120026000D01*
X163370409Y-120021915D01*
X163336431Y-120011607D01*
X163305110Y-119994866D01*
X163277661Y-119972339D01*
X163255134Y-119944890D01*
X163238393Y-119913569D01*
X163228085Y-119879591D01*
X163224000Y-119838110D01*
X163224000Y-119161890D01*
X163228085Y-119120409D01*
X163238393Y-119086431D01*
X163255134Y-119055110D01*
X163277661Y-119027661D01*
X163305110Y-119005134D01*
X163336431Y-118988393D01*
X163370409Y-118978085D01*
X163411890Y-118974000D01*
X164013110Y-118974000D01*
X164054591Y-118978085D01*
G37*
G36*
X165629591Y-118978085D02*
G01*
X165663569Y-118988393D01*
X165694890Y-119005134D01*
X165722339Y-119027661D01*
X165744866Y-119055110D01*
X165761607Y-119086431D01*
X165771915Y-119120409D01*
X165776000Y-119161890D01*
X165776000Y-119838110D01*
X165771915Y-119879591D01*
X165761607Y-119913569D01*
X165744866Y-119944890D01*
X165722339Y-119972339D01*
X165694890Y-119994866D01*
X165663569Y-120011607D01*
X165629591Y-120021915D01*
X165588110Y-120026000D01*
X164986890Y-120026000D01*
X164945409Y-120021915D01*
X164911431Y-120011607D01*
X164880110Y-119994866D01*
X164852661Y-119972339D01*
X164830134Y-119944890D01*
X164813393Y-119913569D01*
X164803085Y-119879591D01*
X164799000Y-119838110D01*
X164799000Y-119161890D01*
X164803085Y-119120409D01*
X164813393Y-119086431D01*
X164830134Y-119055110D01*
X164852661Y-119027661D01*
X164880110Y-119005134D01*
X164911431Y-118988393D01*
X164945409Y-118978085D01*
X164986890Y-118974000D01*
X165588110Y-118974000D01*
X165629591Y-118978085D01*
G37*
G36*
X195634239Y-111811467D02*
G01*
X195948282Y-111873934D01*
X196539926Y-112119001D01*
X197072392Y-112474784D01*
X197525216Y-112927608D01*
X197880999Y-113460074D01*
X198126066Y-114051718D01*
X198251000Y-114679804D01*
X198251000Y-115320196D01*
X198126066Y-115948282D01*
X197880999Y-116539926D01*
X197525216Y-117072392D01*
X197072392Y-117525216D01*
X196539926Y-117880999D01*
X195948282Y-118126066D01*
X195634239Y-118188533D01*
X195320197Y-118251000D01*
X194679803Y-118251000D01*
X194365761Y-118188533D01*
X194051718Y-118126066D01*
X193460074Y-117880999D01*
X192927608Y-117525216D01*
X192474784Y-117072392D01*
X192119001Y-116539926D01*
X191873934Y-115948282D01*
X191749000Y-115320196D01*
X191749000Y-114679804D01*
X191873934Y-114051718D01*
X192119001Y-113460074D01*
X192474784Y-112927608D01*
X192927608Y-112474784D01*
X193460074Y-112119001D01*
X194051718Y-111873934D01*
X194365761Y-111811467D01*
X194679803Y-111749000D01*
X195320197Y-111749000D01*
X195634239Y-111811467D01*
G37*
G36*
X155634239Y-111811467D02*
G01*
X155948282Y-111873934D01*
X156539926Y-112119001D01*
X157072392Y-112474784D01*
X157525216Y-112927608D01*
X157880999Y-113460074D01*
X158126066Y-114051718D01*
X158251000Y-114679804D01*
X158251000Y-115320196D01*
X158126066Y-115948282D01*
X157880999Y-116539926D01*
X157525216Y-117072392D01*
X157072392Y-117525216D01*
X156539926Y-117880999D01*
X155948282Y-118126066D01*
X155634239Y-118188533D01*
X155320197Y-118251000D01*
X154679803Y-118251000D01*
X154365761Y-118188533D01*
X154051718Y-118126066D01*
X153460074Y-117880999D01*
X152927608Y-117525216D01*
X152474784Y-117072392D01*
X152119001Y-116539926D01*
X151873934Y-115948282D01*
X151749000Y-115320196D01*
X151749000Y-114679804D01*
X151873934Y-114051718D01*
X152119001Y-113460074D01*
X152474784Y-112927608D01*
X152927608Y-112474784D01*
X153460074Y-112119001D01*
X154051718Y-111873934D01*
X154365761Y-111811467D01*
X154679803Y-111749000D01*
X155320197Y-111749000D01*
X155634239Y-111811467D01*
G37*
G36*
X164851000Y-117951000D02*
G01*
X163199000Y-117951000D01*
X163199000Y-116549000D01*
X164851000Y-116549000D01*
X164851000Y-117951000D01*
G37*
G36*
X172801000Y-117951000D02*
G01*
X171149000Y-117951000D01*
X171149000Y-116549000D01*
X172801000Y-116549000D01*
X172801000Y-117951000D01*
G37*
G36*
X179851000Y-117951000D02*
G01*
X178199000Y-117951000D01*
X178199000Y-116549000D01*
X179851000Y-116549000D01*
X179851000Y-117951000D01*
G37*
G36*
X187801000Y-117951000D02*
G01*
X186149000Y-117951000D01*
X186149000Y-116549000D01*
X187801000Y-116549000D01*
X187801000Y-117951000D01*
G37*
G36*
X162379591Y-114303085D02*
G01*
X162413569Y-114313393D01*
X162444890Y-114330134D01*
X162472339Y-114352661D01*
X162494866Y-114380110D01*
X162511607Y-114411431D01*
X162521915Y-114445409D01*
X162526000Y-114486890D01*
X162526000Y-115088110D01*
X162521915Y-115129591D01*
X162511607Y-115163569D01*
X162494866Y-115194890D01*
X162472339Y-115222339D01*
X162444890Y-115244866D01*
X162413569Y-115261607D01*
X162379591Y-115271915D01*
X162338110Y-115276000D01*
X161661890Y-115276000D01*
X161620409Y-115271915D01*
X161586431Y-115261607D01*
X161555110Y-115244866D01*
X161527661Y-115222339D01*
X161505134Y-115194890D01*
X161488393Y-115163569D01*
X161478085Y-115129591D01*
X161474000Y-115088110D01*
X161474000Y-114486890D01*
X161478085Y-114445409D01*
X161488393Y-114411431D01*
X161505134Y-114380110D01*
X161527661Y-114352661D01*
X161555110Y-114330134D01*
X161586431Y-114313393D01*
X161620409Y-114303085D01*
X161661890Y-114299000D01*
X162338110Y-114299000D01*
X162379591Y-114303085D01*
G37*
G36*
X177379591Y-114303085D02*
G01*
X177413569Y-114313393D01*
X177444890Y-114330134D01*
X177472339Y-114352661D01*
X177494866Y-114380110D01*
X177511607Y-114411431D01*
X177521915Y-114445409D01*
X177526000Y-114486890D01*
X177526000Y-115088110D01*
X177521915Y-115129591D01*
X177511607Y-115163569D01*
X177494866Y-115194890D01*
X177472339Y-115222339D01*
X177444890Y-115244866D01*
X177413569Y-115261607D01*
X177379591Y-115271915D01*
X177338110Y-115276000D01*
X176661890Y-115276000D01*
X176620409Y-115271915D01*
X176586431Y-115261607D01*
X176555110Y-115244866D01*
X176527661Y-115222339D01*
X176505134Y-115194890D01*
X176488393Y-115163569D01*
X176478085Y-115129591D01*
X176474000Y-115088110D01*
X176474000Y-114486890D01*
X176478085Y-114445409D01*
X176488393Y-114411431D01*
X176505134Y-114380110D01*
X176527661Y-114352661D01*
X176555110Y-114330134D01*
X176586431Y-114313393D01*
X176620409Y-114303085D01*
X176661890Y-114299000D01*
X177338110Y-114299000D01*
X177379591Y-114303085D01*
G37*
G36*
X177379591Y-112728085D02*
G01*
X177413569Y-112738393D01*
X177444890Y-112755134D01*
X177472339Y-112777661D01*
X177494866Y-112805110D01*
X177511607Y-112836431D01*
X177521915Y-112870409D01*
X177526000Y-112911890D01*
X177526000Y-113513110D01*
X177521915Y-113554591D01*
X177511607Y-113588569D01*
X177494866Y-113619890D01*
X177472339Y-113647339D01*
X177444890Y-113669866D01*
X177413569Y-113686607D01*
X177379591Y-113696915D01*
X177338110Y-113701000D01*
X176661890Y-113701000D01*
X176620409Y-113696915D01*
X176586431Y-113686607D01*
X176555110Y-113669866D01*
X176527661Y-113647339D01*
X176505134Y-113619890D01*
X176488393Y-113588569D01*
X176478085Y-113554591D01*
X176474000Y-113513110D01*
X176474000Y-112911890D01*
X176478085Y-112870409D01*
X176488393Y-112836431D01*
X176505134Y-112805110D01*
X176527661Y-112777661D01*
X176555110Y-112755134D01*
X176586431Y-112738393D01*
X176620409Y-112728085D01*
X176661890Y-112724000D01*
X177338110Y-112724000D01*
X177379591Y-112728085D01*
G37*
G36*
X162379591Y-112728085D02*
G01*
X162413569Y-112738393D01*
X162444890Y-112755134D01*
X162472339Y-112777661D01*
X162494866Y-112805110D01*
X162511607Y-112836431D01*
X162521915Y-112870409D01*
X162526000Y-112911890D01*
X162526000Y-113513110D01*
X162521915Y-113554591D01*
X162511607Y-113588569D01*
X162494866Y-113619890D01*
X162472339Y-113647339D01*
X162444890Y-113669866D01*
X162413569Y-113686607D01*
X162379591Y-113696915D01*
X162338110Y-113701000D01*
X161661890Y-113701000D01*
X161620409Y-113696915D01*
X161586431Y-113686607D01*
X161555110Y-113669866D01*
X161527661Y-113647339D01*
X161505134Y-113619890D01*
X161488393Y-113588569D01*
X161478085Y-113554591D01*
X161474000Y-113513110D01*
X161474000Y-112911890D01*
X161478085Y-112870409D01*
X161488393Y-112836431D01*
X161505134Y-112805110D01*
X161527661Y-112777661D01*
X161555110Y-112755134D01*
X161586431Y-112738393D01*
X161620409Y-112728085D01*
X161661890Y-112724000D01*
X162338110Y-112724000D01*
X162379591Y-112728085D01*
G37*
G36*
X187801000Y-113451000D02*
G01*
X186149000Y-113451000D01*
X186149000Y-112049000D01*
X187801000Y-112049000D01*
X187801000Y-113451000D01*
G37*
G36*
X172801000Y-113451000D02*
G01*
X171149000Y-113451000D01*
X171149000Y-112049000D01*
X172801000Y-112049000D01*
X172801000Y-113451000D01*
G37*
G36*
X179851000Y-113451000D02*
G01*
X178199000Y-113451000D01*
X178199000Y-112049000D01*
X179851000Y-112049000D01*
X179851000Y-113451000D01*
G37*
G36*
X164851000Y-113451000D02*
G01*
X163199000Y-113451000D01*
X163199000Y-112049000D01*
X164851000Y-112049000D01*
X164851000Y-113451000D01*
G37*
G36*
X172253512Y-103103927D02*
G01*
X172402812Y-103133624D01*
X172566784Y-103201544D01*
X172714354Y-103300147D01*
X172839853Y-103425646D01*
X172938456Y-103573216D01*
X173006376Y-103737188D01*
X173041000Y-103911259D01*
X173041000Y-104088741D01*
X173006376Y-104262812D01*
X172938456Y-104426784D01*
X172839853Y-104574354D01*
X172714354Y-104699853D01*
X172566784Y-104798456D01*
X172402812Y-104866376D01*
X172253512Y-104896073D01*
X172228742Y-104901000D01*
X172051258Y-104901000D01*
X172026488Y-104896073D01*
X171877188Y-104866376D01*
X171713216Y-104798456D01*
X171565646Y-104699853D01*
X171440147Y-104574354D01*
X171341544Y-104426784D01*
X171273624Y-104262812D01*
X171239000Y-104088741D01*
X171239000Y-103911259D01*
X171273624Y-103737188D01*
X171341544Y-103573216D01*
X171440147Y-103425646D01*
X171565646Y-103300147D01*
X171713216Y-103201544D01*
X171877188Y-103133624D01*
X172026488Y-103103927D01*
X172051258Y-103099000D01*
X172228742Y-103099000D01*
X172253512Y-103103927D01*
G37*
G36*
X195901000Y-104901000D02*
G01*
X194099000Y-104901000D01*
X194099000Y-103099000D01*
X195901000Y-103099000D01*
X195901000Y-104901000D01*
G37*
G36*
X192573512Y-103103927D02*
G01*
X192722812Y-103133624D01*
X192886784Y-103201544D01*
X193034354Y-103300147D01*
X193159853Y-103425646D01*
X193258456Y-103573216D01*
X193326376Y-103737188D01*
X193361000Y-103911259D01*
X193361000Y-104088741D01*
X193326376Y-104262812D01*
X193258456Y-104426784D01*
X193159853Y-104574354D01*
X193034354Y-104699853D01*
X192886784Y-104798456D01*
X192722812Y-104866376D01*
X192573512Y-104896073D01*
X192548742Y-104901000D01*
X192371258Y-104901000D01*
X192346488Y-104896073D01*
X192197188Y-104866376D01*
X192033216Y-104798456D01*
X191885646Y-104699853D01*
X191760147Y-104574354D01*
X191661544Y-104426784D01*
X191593624Y-104262812D01*
X191559000Y-104088741D01*
X191559000Y-103911259D01*
X191593624Y-103737188D01*
X191661544Y-103573216D01*
X191760147Y-103425646D01*
X191885646Y-103300147D01*
X192033216Y-103201544D01*
X192197188Y-103133624D01*
X192346488Y-103103927D01*
X192371258Y-103099000D01*
X192548742Y-103099000D01*
X192573512Y-103103927D01*
G37*
G36*
X190033512Y-103103927D02*
G01*
X190182812Y-103133624D01*
X190346784Y-103201544D01*
X190494354Y-103300147D01*
X190619853Y-103425646D01*
X190718456Y-103573216D01*
X190786376Y-103737188D01*
X190821000Y-103911259D01*
X190821000Y-104088741D01*
X190786376Y-104262812D01*
X190718456Y-104426784D01*
X190619853Y-104574354D01*
X190494354Y-104699853D01*
X190346784Y-104798456D01*
X190182812Y-104866376D01*
X190033512Y-104896073D01*
X190008742Y-104901000D01*
X189831258Y-104901000D01*
X189806488Y-104896073D01*
X189657188Y-104866376D01*
X189493216Y-104798456D01*
X189345646Y-104699853D01*
X189220147Y-104574354D01*
X189121544Y-104426784D01*
X189053624Y-104262812D01*
X189019000Y-104088741D01*
X189019000Y-103911259D01*
X189053624Y-103737188D01*
X189121544Y-103573216D01*
X189220147Y-103425646D01*
X189345646Y-103300147D01*
X189493216Y-103201544D01*
X189657188Y-103133624D01*
X189806488Y-103103927D01*
X189831258Y-103099000D01*
X190008742Y-103099000D01*
X190033512Y-103103927D01*
G37*
G36*
X187493512Y-103103927D02*
G01*
X187642812Y-103133624D01*
X187806784Y-103201544D01*
X187954354Y-103300147D01*
X188079853Y-103425646D01*
X188178456Y-103573216D01*
X188246376Y-103737188D01*
X188281000Y-103911259D01*
X188281000Y-104088741D01*
X188246376Y-104262812D01*
X188178456Y-104426784D01*
X188079853Y-104574354D01*
X187954354Y-104699853D01*
X187806784Y-104798456D01*
X187642812Y-104866376D01*
X187493512Y-104896073D01*
X187468742Y-104901000D01*
X187291258Y-104901000D01*
X187266488Y-104896073D01*
X187117188Y-104866376D01*
X186953216Y-104798456D01*
X186805646Y-104699853D01*
X186680147Y-104574354D01*
X186581544Y-104426784D01*
X186513624Y-104262812D01*
X186479000Y-104088741D01*
X186479000Y-103911259D01*
X186513624Y-103737188D01*
X186581544Y-103573216D01*
X186680147Y-103425646D01*
X186805646Y-103300147D01*
X186953216Y-103201544D01*
X187117188Y-103133624D01*
X187266488Y-103103927D01*
X187291258Y-103099000D01*
X187468742Y-103099000D01*
X187493512Y-103103927D01*
G37*
G36*
X164633512Y-103103927D02*
G01*
X164782812Y-103133624D01*
X164946784Y-103201544D01*
X165094354Y-103300147D01*
X165219853Y-103425646D01*
X165318456Y-103573216D01*
X165386376Y-103737188D01*
X165421000Y-103911259D01*
X165421000Y-104088741D01*
X165386376Y-104262812D01*
X165318456Y-104426784D01*
X165219853Y-104574354D01*
X165094354Y-104699853D01*
X164946784Y-104798456D01*
X164782812Y-104866376D01*
X164633512Y-104896073D01*
X164608742Y-104901000D01*
X164431258Y-104901000D01*
X164406488Y-104896073D01*
X164257188Y-104866376D01*
X164093216Y-104798456D01*
X163945646Y-104699853D01*
X163820147Y-104574354D01*
X163721544Y-104426784D01*
X163653624Y-104262812D01*
X163619000Y-104088741D01*
X163619000Y-103911259D01*
X163653624Y-103737188D01*
X163721544Y-103573216D01*
X163820147Y-103425646D01*
X163945646Y-103300147D01*
X164093216Y-103201544D01*
X164257188Y-103133624D01*
X164406488Y-103103927D01*
X164431258Y-103099000D01*
X164608742Y-103099000D01*
X164633512Y-103103927D01*
G37*
G36*
X184953512Y-103103927D02*
G01*
X185102812Y-103133624D01*
X185266784Y-103201544D01*
X185414354Y-103300147D01*
X185539853Y-103425646D01*
X185638456Y-103573216D01*
X185706376Y-103737188D01*
X185741000Y-103911259D01*
X185741000Y-104088741D01*
X185706376Y-104262812D01*
X185638456Y-104426784D01*
X185539853Y-104574354D01*
X185414354Y-104699853D01*
X185266784Y-104798456D01*
X185102812Y-104866376D01*
X184953512Y-104896073D01*
X184928742Y-104901000D01*
X184751258Y-104901000D01*
X184726488Y-104896073D01*
X184577188Y-104866376D01*
X184413216Y-104798456D01*
X184265646Y-104699853D01*
X184140147Y-104574354D01*
X184041544Y-104426784D01*
X183973624Y-104262812D01*
X183939000Y-104088741D01*
X183939000Y-103911259D01*
X183973624Y-103737188D01*
X184041544Y-103573216D01*
X184140147Y-103425646D01*
X184265646Y-103300147D01*
X184413216Y-103201544D01*
X184577188Y-103133624D01*
X184726488Y-103103927D01*
X184751258Y-103099000D01*
X184928742Y-103099000D01*
X184953512Y-103103927D01*
G37*
G36*
X182413512Y-103103927D02*
G01*
X182562812Y-103133624D01*
X182726784Y-103201544D01*
X182874354Y-103300147D01*
X182999853Y-103425646D01*
X183098456Y-103573216D01*
X183166376Y-103737188D01*
X183201000Y-103911259D01*
X183201000Y-104088741D01*
X183166376Y-104262812D01*
X183098456Y-104426784D01*
X182999853Y-104574354D01*
X182874354Y-104699853D01*
X182726784Y-104798456D01*
X182562812Y-104866376D01*
X182413512Y-104896073D01*
X182388742Y-104901000D01*
X182211258Y-104901000D01*
X182186488Y-104896073D01*
X182037188Y-104866376D01*
X181873216Y-104798456D01*
X181725646Y-104699853D01*
X181600147Y-104574354D01*
X181501544Y-104426784D01*
X181433624Y-104262812D01*
X181399000Y-104088741D01*
X181399000Y-103911259D01*
X181433624Y-103737188D01*
X181501544Y-103573216D01*
X181600147Y-103425646D01*
X181725646Y-103300147D01*
X181873216Y-103201544D01*
X182037188Y-103133624D01*
X182186488Y-103103927D01*
X182211258Y-103099000D01*
X182388742Y-103099000D01*
X182413512Y-103103927D01*
G37*
G36*
X179873512Y-103103927D02*
G01*
X180022812Y-103133624D01*
X180186784Y-103201544D01*
X180334354Y-103300147D01*
X180459853Y-103425646D01*
X180558456Y-103573216D01*
X180626376Y-103737188D01*
X180661000Y-103911259D01*
X180661000Y-104088741D01*
X180626376Y-104262812D01*
X180558456Y-104426784D01*
X180459853Y-104574354D01*
X180334354Y-104699853D01*
X180186784Y-104798456D01*
X180022812Y-104866376D01*
X179873512Y-104896073D01*
X179848742Y-104901000D01*
X179671258Y-104901000D01*
X179646488Y-104896073D01*
X179497188Y-104866376D01*
X179333216Y-104798456D01*
X179185646Y-104699853D01*
X179060147Y-104574354D01*
X178961544Y-104426784D01*
X178893624Y-104262812D01*
X178859000Y-104088741D01*
X178859000Y-103911259D01*
X178893624Y-103737188D01*
X178961544Y-103573216D01*
X179060147Y-103425646D01*
X179185646Y-103300147D01*
X179333216Y-103201544D01*
X179497188Y-103133624D01*
X179646488Y-103103927D01*
X179671258Y-103099000D01*
X179848742Y-103099000D01*
X179873512Y-103103927D01*
G37*
G36*
X177333512Y-103103927D02*
G01*
X177482812Y-103133624D01*
X177646784Y-103201544D01*
X177794354Y-103300147D01*
X177919853Y-103425646D01*
X178018456Y-103573216D01*
X178086376Y-103737188D01*
X178121000Y-103911259D01*
X178121000Y-104088741D01*
X178086376Y-104262812D01*
X178018456Y-104426784D01*
X177919853Y-104574354D01*
X177794354Y-104699853D01*
X177646784Y-104798456D01*
X177482812Y-104866376D01*
X177333512Y-104896073D01*
X177308742Y-104901000D01*
X177131258Y-104901000D01*
X177106488Y-104896073D01*
X176957188Y-104866376D01*
X176793216Y-104798456D01*
X176645646Y-104699853D01*
X176520147Y-104574354D01*
X176421544Y-104426784D01*
X176353624Y-104262812D01*
X176319000Y-104088741D01*
X176319000Y-103911259D01*
X176353624Y-103737188D01*
X176421544Y-103573216D01*
X176520147Y-103425646D01*
X176645646Y-103300147D01*
X176793216Y-103201544D01*
X176957188Y-103133624D01*
X177106488Y-103103927D01*
X177131258Y-103099000D01*
X177308742Y-103099000D01*
X177333512Y-103103927D01*
G37*
G36*
X174793512Y-103103927D02*
G01*
X174942812Y-103133624D01*
X175106784Y-103201544D01*
X175254354Y-103300147D01*
X175379853Y-103425646D01*
X175478456Y-103573216D01*
X175546376Y-103737188D01*
X175581000Y-103911259D01*
X175581000Y-104088741D01*
X175546376Y-104262812D01*
X175478456Y-104426784D01*
X175379853Y-104574354D01*
X175254354Y-104699853D01*
X175106784Y-104798456D01*
X174942812Y-104866376D01*
X174793512Y-104896073D01*
X174768742Y-104901000D01*
X174591258Y-104901000D01*
X174566488Y-104896073D01*
X174417188Y-104866376D01*
X174253216Y-104798456D01*
X174105646Y-104699853D01*
X173980147Y-104574354D01*
X173881544Y-104426784D01*
X173813624Y-104262812D01*
X173779000Y-104088741D01*
X173779000Y-103911259D01*
X173813624Y-103737188D01*
X173881544Y-103573216D01*
X173980147Y-103425646D01*
X174105646Y-103300147D01*
X174253216Y-103201544D01*
X174417188Y-103133624D01*
X174566488Y-103103927D01*
X174591258Y-103099000D01*
X174768742Y-103099000D01*
X174793512Y-103103927D01*
G37*
G36*
X169713512Y-103103927D02*
G01*
X169862812Y-103133624D01*
X170026784Y-103201544D01*
X170174354Y-103300147D01*
X170299853Y-103425646D01*
X170398456Y-103573216D01*
X170466376Y-103737188D01*
X170501000Y-103911259D01*
X170501000Y-104088741D01*
X170466376Y-104262812D01*
X170398456Y-104426784D01*
X170299853Y-104574354D01*
X170174354Y-104699853D01*
X170026784Y-104798456D01*
X169862812Y-104866376D01*
X169713512Y-104896073D01*
X169688742Y-104901000D01*
X169511258Y-104901000D01*
X169486488Y-104896073D01*
X169337188Y-104866376D01*
X169173216Y-104798456D01*
X169025646Y-104699853D01*
X168900147Y-104574354D01*
X168801544Y-104426784D01*
X168733624Y-104262812D01*
X168699000Y-104088741D01*
X168699000Y-103911259D01*
X168733624Y-103737188D01*
X168801544Y-103573216D01*
X168900147Y-103425646D01*
X169025646Y-103300147D01*
X169173216Y-103201544D01*
X169337188Y-103133624D01*
X169486488Y-103103927D01*
X169511258Y-103099000D01*
X169688742Y-103099000D01*
X169713512Y-103103927D01*
G37*
G36*
X167173512Y-103103927D02*
G01*
X167322812Y-103133624D01*
X167486784Y-103201544D01*
X167634354Y-103300147D01*
X167759853Y-103425646D01*
X167858456Y-103573216D01*
X167926376Y-103737188D01*
X167961000Y-103911259D01*
X167961000Y-104088741D01*
X167926376Y-104262812D01*
X167858456Y-104426784D01*
X167759853Y-104574354D01*
X167634354Y-104699853D01*
X167486784Y-104798456D01*
X167322812Y-104866376D01*
X167173512Y-104896073D01*
X167148742Y-104901000D01*
X166971258Y-104901000D01*
X166946488Y-104896073D01*
X166797188Y-104866376D01*
X166633216Y-104798456D01*
X166485646Y-104699853D01*
X166360147Y-104574354D01*
X166261544Y-104426784D01*
X166193624Y-104262812D01*
X166159000Y-104088741D01*
X166159000Y-103911259D01*
X166193624Y-103737188D01*
X166261544Y-103573216D01*
X166360147Y-103425646D01*
X166485646Y-103300147D01*
X166633216Y-103201544D01*
X166797188Y-103133624D01*
X166946488Y-103103927D01*
X166971258Y-103099000D01*
X167148742Y-103099000D01*
X167173512Y-103103927D01*
G37*
G36*
X162093512Y-103103927D02*
G01*
X162242812Y-103133624D01*
X162406784Y-103201544D01*
X162554354Y-103300147D01*
X162679853Y-103425646D01*
X162778456Y-103573216D01*
X162846376Y-103737188D01*
X162881000Y-103911259D01*
X162881000Y-104088741D01*
X162846376Y-104262812D01*
X162778456Y-104426784D01*
X162679853Y-104574354D01*
X162554354Y-104699853D01*
X162406784Y-104798456D01*
X162242812Y-104866376D01*
X162093512Y-104896073D01*
X162068742Y-104901000D01*
X161891258Y-104901000D01*
X161866488Y-104896073D01*
X161717188Y-104866376D01*
X161553216Y-104798456D01*
X161405646Y-104699853D01*
X161280147Y-104574354D01*
X161181544Y-104426784D01*
X161113624Y-104262812D01*
X161079000Y-104088741D01*
X161079000Y-103911259D01*
X161113624Y-103737188D01*
X161181544Y-103573216D01*
X161280147Y-103425646D01*
X161405646Y-103300147D01*
X161553216Y-103201544D01*
X161717188Y-103133624D01*
X161866488Y-103103927D01*
X161891258Y-103099000D01*
X162068742Y-103099000D01*
X162093512Y-103103927D01*
G37*
M02*
