G04 #@! TF.GenerationSoftware,KiCad,Pcbnew,5.1.5*
G04 #@! TF.CreationDate,2020-01-13T20:50:12-05:00*
G04 #@! TF.ProjectId,inputs_addon,696e7075-7473-45f6-9164-646f6e2e6b69,0*
G04 #@! TF.SameCoordinates,Original*
G04 #@! TF.FileFunction,Legend,Top*
G04 #@! TF.FilePolarity,Positive*
%FSLAX46Y46*%
G04 Gerber Fmt 4.6, Leading zero omitted, Abs format (unit mm)*
G04 Created by KiCad (PCBNEW 5.1.5) date 2020-01-13 20:50:12*
%MOMM*%
%LPD*%
G04 APERTURE LIST*
%ADD10C,0.120000*%
%ADD11C,0.150000*%
G04 APERTURE END LIST*
D10*
X196330000Y-102670000D02*
X196330000Y-104000000D01*
X195000000Y-102670000D02*
X196330000Y-102670000D01*
X193730000Y-102670000D02*
X193730000Y-105330000D01*
X193730000Y-105330000D02*
X160650000Y-105330000D01*
X193730000Y-102670000D02*
X160650000Y-102670000D01*
X160650000Y-102670000D02*
X160650000Y-105330000D01*
X186150000Y-113700000D02*
X186150000Y-116300000D01*
X179850000Y-118450000D02*
X179850000Y-118200000D01*
X186150000Y-118450000D02*
X179850000Y-118450000D01*
X186150000Y-118200000D02*
X186150000Y-118450000D01*
X179850000Y-116300000D02*
X179850000Y-113700000D01*
X186150000Y-111550000D02*
X186150000Y-111800000D01*
X179850000Y-111550000D02*
X186150000Y-111550000D01*
X179850000Y-111800000D02*
X179850000Y-111550000D01*
X171150000Y-113700000D02*
X171150000Y-116300000D01*
X164850000Y-118450000D02*
X164850000Y-118200000D01*
X171150000Y-118450000D02*
X164850000Y-118450000D01*
X171150000Y-118200000D02*
X171150000Y-118450000D01*
X164850000Y-116300000D02*
X164850000Y-113700000D01*
X171150000Y-111550000D02*
X171150000Y-111800000D01*
X164850000Y-111550000D02*
X171150000Y-111550000D01*
X164850000Y-111800000D02*
X164850000Y-111550000D01*
X198120000Y-127530000D02*
X198120000Y-137470000D01*
X185880000Y-135870000D02*
X185880000Y-137470000D01*
X185880000Y-133371000D02*
X185880000Y-134130000D01*
X185880000Y-130871000D02*
X185880000Y-131630000D01*
X185880000Y-127530000D02*
X185880000Y-129129000D01*
X194255000Y-137470000D02*
X198120000Y-137470000D01*
X185880000Y-137470000D02*
X189745000Y-137470000D01*
X194255000Y-127530000D02*
X198120000Y-127530000D01*
X185880000Y-127530000D02*
X189745000Y-127530000D01*
X183120000Y-127530000D02*
X183120000Y-137470000D01*
X170880000Y-135870000D02*
X170880000Y-137470000D01*
X170880000Y-133371000D02*
X170880000Y-134130000D01*
X170880000Y-130871000D02*
X170880000Y-131630000D01*
X170880000Y-127530000D02*
X170880000Y-129129000D01*
X179255000Y-137470000D02*
X183120000Y-137470000D01*
X170880000Y-137470000D02*
X174745000Y-137470000D01*
X179255000Y-127530000D02*
X183120000Y-127530000D01*
X170880000Y-127530000D02*
X174745000Y-127530000D01*
X168120000Y-127530000D02*
X168120000Y-137470000D01*
X155880000Y-135870000D02*
X155880000Y-137470000D01*
X155880000Y-133371000D02*
X155880000Y-134130000D01*
X155880000Y-130871000D02*
X155880000Y-131630000D01*
X155880000Y-127530000D02*
X155880000Y-129129000D01*
X164255000Y-137470000D02*
X168120000Y-137470000D01*
X155880000Y-137470000D02*
X159745000Y-137470000D01*
X164255000Y-127530000D02*
X168120000Y-127530000D01*
X155880000Y-127530000D02*
X159745000Y-127530000D01*
X179662779Y-120490000D02*
X179337221Y-120490000D01*
X179662779Y-121510000D02*
X179337221Y-121510000D01*
X179337221Y-120010000D02*
X179662779Y-120010000D01*
X179337221Y-118990000D02*
X179662779Y-118990000D01*
X164337221Y-121510000D02*
X164662779Y-121510000D01*
X164337221Y-120490000D02*
X164662779Y-120490000D01*
X164662779Y-118990000D02*
X164337221Y-118990000D01*
X164662779Y-120010000D02*
X164337221Y-120010000D01*
X186662779Y-139490000D02*
X186337221Y-139490000D01*
X186662779Y-140510000D02*
X186337221Y-140510000D01*
X171375279Y-139490000D02*
X171049721Y-139490000D01*
X171375279Y-140510000D02*
X171049721Y-140510000D01*
X156375279Y-139490000D02*
X156049721Y-139490000D01*
X156375279Y-140510000D02*
X156049721Y-140510000D01*
X177510000Y-114162779D02*
X177510000Y-113837221D01*
X176490000Y-114162779D02*
X176490000Y-113837221D01*
X162510000Y-114162779D02*
X162510000Y-113837221D01*
X161490000Y-114162779D02*
X161490000Y-113837221D01*
D11*
X196782380Y-104333333D02*
X197496666Y-104333333D01*
X197639523Y-104380952D01*
X197734761Y-104476190D01*
X197782380Y-104619047D01*
X197782380Y-104714285D01*
X196877619Y-103904761D02*
X196830000Y-103857142D01*
X196782380Y-103761904D01*
X196782380Y-103523809D01*
X196830000Y-103428571D01*
X196877619Y-103380952D01*
X196972857Y-103333333D01*
X197068095Y-103333333D01*
X197210952Y-103380952D01*
X197782380Y-103952380D01*
X197782380Y-103333333D01*
X185166666Y-119904761D02*
X185309523Y-119952380D01*
X185547619Y-119952380D01*
X185642857Y-119904761D01*
X185690476Y-119857142D01*
X185738095Y-119761904D01*
X185738095Y-119666666D01*
X185690476Y-119571428D01*
X185642857Y-119523809D01*
X185547619Y-119476190D01*
X185357142Y-119428571D01*
X185261904Y-119380952D01*
X185214285Y-119333333D01*
X185166666Y-119238095D01*
X185166666Y-119142857D01*
X185214285Y-119047619D01*
X185261904Y-119000000D01*
X185357142Y-118952380D01*
X185595238Y-118952380D01*
X185738095Y-119000000D01*
X186071428Y-118952380D02*
X186309523Y-119952380D01*
X186500000Y-119238095D01*
X186690476Y-119952380D01*
X186928571Y-118952380D01*
X187261904Y-119047619D02*
X187309523Y-119000000D01*
X187404761Y-118952380D01*
X187642857Y-118952380D01*
X187738095Y-119000000D01*
X187785714Y-119047619D01*
X187833333Y-119142857D01*
X187833333Y-119238095D01*
X187785714Y-119380952D01*
X187214285Y-119952380D01*
X187833333Y-119952380D01*
X181833333Y-110952380D02*
X181833333Y-109952380D01*
X182214285Y-109952380D01*
X182309523Y-110000000D01*
X182357142Y-110047619D01*
X182404761Y-110142857D01*
X182404761Y-110285714D01*
X182357142Y-110380952D01*
X182309523Y-110428571D01*
X182214285Y-110476190D01*
X181833333Y-110476190D01*
X182785714Y-110666666D02*
X183261904Y-110666666D01*
X182690476Y-110952380D02*
X183023809Y-109952380D01*
X183357142Y-110952380D01*
X183595238Y-109952380D02*
X184261904Y-109952380D01*
X183833333Y-110952380D01*
X170166666Y-119904761D02*
X170309523Y-119952380D01*
X170547619Y-119952380D01*
X170642857Y-119904761D01*
X170690476Y-119857142D01*
X170738095Y-119761904D01*
X170738095Y-119666666D01*
X170690476Y-119571428D01*
X170642857Y-119523809D01*
X170547619Y-119476190D01*
X170357142Y-119428571D01*
X170261904Y-119380952D01*
X170214285Y-119333333D01*
X170166666Y-119238095D01*
X170166666Y-119142857D01*
X170214285Y-119047619D01*
X170261904Y-119000000D01*
X170357142Y-118952380D01*
X170595238Y-118952380D01*
X170738095Y-119000000D01*
X171071428Y-118952380D02*
X171309523Y-119952380D01*
X171500000Y-119238095D01*
X171690476Y-119952380D01*
X171928571Y-118952380D01*
X172833333Y-119952380D02*
X172261904Y-119952380D01*
X172547619Y-119952380D02*
X172547619Y-118952380D01*
X172452380Y-119095238D01*
X172357142Y-119190476D01*
X172261904Y-119238095D01*
X166833333Y-110952380D02*
X166833333Y-109952380D01*
X167214285Y-109952380D01*
X167309523Y-110000000D01*
X167357142Y-110047619D01*
X167404761Y-110142857D01*
X167404761Y-110285714D01*
X167357142Y-110380952D01*
X167309523Y-110428571D01*
X167214285Y-110476190D01*
X166833333Y-110476190D01*
X167785714Y-110666666D02*
X168261904Y-110666666D01*
X167690476Y-110952380D02*
X168023809Y-109952380D01*
X168357142Y-110952380D01*
X169119047Y-109952380D02*
X168928571Y-109952380D01*
X168833333Y-110000000D01*
X168785714Y-110047619D01*
X168690476Y-110190476D01*
X168642857Y-110380952D01*
X168642857Y-110761904D01*
X168690476Y-110857142D01*
X168738095Y-110904761D01*
X168833333Y-110952380D01*
X169023809Y-110952380D01*
X169119047Y-110904761D01*
X169166666Y-110857142D01*
X169214285Y-110761904D01*
X169214285Y-110523809D01*
X169166666Y-110428571D01*
X169119047Y-110380952D01*
X169023809Y-110333333D01*
X168833333Y-110333333D01*
X168738095Y-110380952D01*
X168690476Y-110428571D01*
X168642857Y-110523809D01*
X196404761Y-140452380D02*
X196071428Y-139976190D01*
X195833333Y-140452380D02*
X195833333Y-139452380D01*
X196214285Y-139452380D01*
X196309523Y-139500000D01*
X196357142Y-139547619D01*
X196404761Y-139642857D01*
X196404761Y-139785714D01*
X196357142Y-139880952D01*
X196309523Y-139928571D01*
X196214285Y-139976190D01*
X195833333Y-139976190D01*
X196690476Y-139452380D02*
X197023809Y-140452380D01*
X197357142Y-139452380D01*
X197595238Y-139452380D02*
X198214285Y-139452380D01*
X197880952Y-139833333D01*
X198023809Y-139833333D01*
X198119047Y-139880952D01*
X198166666Y-139928571D01*
X198214285Y-140023809D01*
X198214285Y-140261904D01*
X198166666Y-140357142D01*
X198119047Y-140404761D01*
X198023809Y-140452380D01*
X197738095Y-140452380D01*
X197642857Y-140404761D01*
X197595238Y-140357142D01*
X186500000Y-125452380D02*
X186500000Y-124452380D01*
X186880952Y-124452380D01*
X186976190Y-124500000D01*
X187023809Y-124547619D01*
X187071428Y-124642857D01*
X187071428Y-124785714D01*
X187023809Y-124880952D01*
X186976190Y-124928571D01*
X186880952Y-124976190D01*
X186500000Y-124976190D01*
X187452380Y-125166666D02*
X187928571Y-125166666D01*
X187357142Y-125452380D02*
X187690476Y-124452380D01*
X188023809Y-125452380D01*
X188833333Y-124452380D02*
X188357142Y-124452380D01*
X188309523Y-124928571D01*
X188357142Y-124880952D01*
X188452380Y-124833333D01*
X188690476Y-124833333D01*
X188785714Y-124880952D01*
X188833333Y-124928571D01*
X188880952Y-125023809D01*
X188880952Y-125261904D01*
X188833333Y-125357142D01*
X188785714Y-125404761D01*
X188690476Y-125452380D01*
X188452380Y-125452380D01*
X188357142Y-125404761D01*
X188309523Y-125357142D01*
X190785714Y-124404761D02*
X189928571Y-125690476D01*
X191833333Y-125166666D02*
X192309523Y-125166666D01*
X191738095Y-125452380D02*
X192071428Y-124452380D01*
X192404761Y-125452380D01*
X192738095Y-125452380D02*
X192738095Y-124452380D01*
X192976190Y-124452380D01*
X193119047Y-124500000D01*
X193214285Y-124595238D01*
X193261904Y-124690476D01*
X193309523Y-124880952D01*
X193309523Y-125023809D01*
X193261904Y-125214285D01*
X193214285Y-125309523D01*
X193119047Y-125404761D01*
X192976190Y-125452380D01*
X192738095Y-125452380D01*
X194309523Y-125357142D02*
X194261904Y-125404761D01*
X194119047Y-125452380D01*
X194023809Y-125452380D01*
X193880952Y-125404761D01*
X193785714Y-125309523D01*
X193738095Y-125214285D01*
X193690476Y-125023809D01*
X193690476Y-124880952D01*
X193738095Y-124690476D01*
X193785714Y-124595238D01*
X193880952Y-124500000D01*
X194023809Y-124452380D01*
X194119047Y-124452380D01*
X194261904Y-124500000D01*
X194309523Y-124547619D01*
X194500000Y-125547619D02*
X195261904Y-125547619D01*
X195500000Y-125452380D02*
X195500000Y-124452380D01*
X195976190Y-125452380D02*
X195976190Y-124452380D01*
X196547619Y-125452380D01*
X196547619Y-124452380D01*
X197500000Y-124452380D02*
X197023809Y-124452380D01*
X196976190Y-124928571D01*
X197023809Y-124880952D01*
X197119047Y-124833333D01*
X197357142Y-124833333D01*
X197452380Y-124880952D01*
X197500000Y-124928571D01*
X197547619Y-125023809D01*
X197547619Y-125261904D01*
X197500000Y-125357142D01*
X197452380Y-125404761D01*
X197357142Y-125452380D01*
X197119047Y-125452380D01*
X197023809Y-125404761D01*
X196976190Y-125357142D01*
X181404761Y-140452380D02*
X181071428Y-139976190D01*
X180833333Y-140452380D02*
X180833333Y-139452380D01*
X181214285Y-139452380D01*
X181309523Y-139500000D01*
X181357142Y-139547619D01*
X181404761Y-139642857D01*
X181404761Y-139785714D01*
X181357142Y-139880952D01*
X181309523Y-139928571D01*
X181214285Y-139976190D01*
X180833333Y-139976190D01*
X181690476Y-139452380D02*
X182023809Y-140452380D01*
X182357142Y-139452380D01*
X182642857Y-139547619D02*
X182690476Y-139500000D01*
X182785714Y-139452380D01*
X183023809Y-139452380D01*
X183119047Y-139500000D01*
X183166666Y-139547619D01*
X183214285Y-139642857D01*
X183214285Y-139738095D01*
X183166666Y-139880952D01*
X182595238Y-140452380D01*
X183214285Y-140452380D01*
X171500000Y-125452380D02*
X171500000Y-124452380D01*
X171880952Y-124452380D01*
X171976190Y-124500000D01*
X172023809Y-124547619D01*
X172071428Y-124642857D01*
X172071428Y-124785714D01*
X172023809Y-124880952D01*
X171976190Y-124928571D01*
X171880952Y-124976190D01*
X171500000Y-124976190D01*
X172452380Y-125166666D02*
X172928571Y-125166666D01*
X172357142Y-125452380D02*
X172690476Y-124452380D01*
X173023809Y-125452380D01*
X173785714Y-124785714D02*
X173785714Y-125452380D01*
X173547619Y-124404761D02*
X173309523Y-125119047D01*
X173928571Y-125119047D01*
X175785714Y-124404761D02*
X174928571Y-125690476D01*
X176833333Y-125166666D02*
X177309523Y-125166666D01*
X176738095Y-125452380D02*
X177071428Y-124452380D01*
X177404761Y-125452380D01*
X177738095Y-125452380D02*
X177738095Y-124452380D01*
X177976190Y-124452380D01*
X178119047Y-124500000D01*
X178214285Y-124595238D01*
X178261904Y-124690476D01*
X178309523Y-124880952D01*
X178309523Y-125023809D01*
X178261904Y-125214285D01*
X178214285Y-125309523D01*
X178119047Y-125404761D01*
X177976190Y-125452380D01*
X177738095Y-125452380D01*
X179309523Y-125357142D02*
X179261904Y-125404761D01*
X179119047Y-125452380D01*
X179023809Y-125452380D01*
X178880952Y-125404761D01*
X178785714Y-125309523D01*
X178738095Y-125214285D01*
X178690476Y-125023809D01*
X178690476Y-124880952D01*
X178738095Y-124690476D01*
X178785714Y-124595238D01*
X178880952Y-124500000D01*
X179023809Y-124452380D01*
X179119047Y-124452380D01*
X179261904Y-124500000D01*
X179309523Y-124547619D01*
X179500000Y-125547619D02*
X180261904Y-125547619D01*
X180500000Y-125452380D02*
X180500000Y-124452380D01*
X180976190Y-125452380D02*
X180976190Y-124452380D01*
X181547619Y-125452380D01*
X181547619Y-124452380D01*
X182452380Y-124785714D02*
X182452380Y-125452380D01*
X182214285Y-124404761D02*
X181976190Y-125119047D01*
X182595238Y-125119047D01*
X166404761Y-140452380D02*
X166071428Y-139976190D01*
X165833333Y-140452380D02*
X165833333Y-139452380D01*
X166214285Y-139452380D01*
X166309523Y-139500000D01*
X166357142Y-139547619D01*
X166404761Y-139642857D01*
X166404761Y-139785714D01*
X166357142Y-139880952D01*
X166309523Y-139928571D01*
X166214285Y-139976190D01*
X165833333Y-139976190D01*
X166690476Y-139452380D02*
X167023809Y-140452380D01*
X167357142Y-139452380D01*
X168214285Y-140452380D02*
X167642857Y-140452380D01*
X167928571Y-140452380D02*
X167928571Y-139452380D01*
X167833333Y-139595238D01*
X167738095Y-139690476D01*
X167642857Y-139738095D01*
X156500000Y-125452380D02*
X156500000Y-124452380D01*
X156880952Y-124452380D01*
X156976190Y-124500000D01*
X157023809Y-124547619D01*
X157071428Y-124642857D01*
X157071428Y-124785714D01*
X157023809Y-124880952D01*
X156976190Y-124928571D01*
X156880952Y-124976190D01*
X156500000Y-124976190D01*
X157452380Y-125166666D02*
X157928571Y-125166666D01*
X157357142Y-125452380D02*
X157690476Y-124452380D01*
X158023809Y-125452380D01*
X158261904Y-124452380D02*
X158880952Y-124452380D01*
X158547619Y-124833333D01*
X158690476Y-124833333D01*
X158785714Y-124880952D01*
X158833333Y-124928571D01*
X158880952Y-125023809D01*
X158880952Y-125261904D01*
X158833333Y-125357142D01*
X158785714Y-125404761D01*
X158690476Y-125452380D01*
X158404761Y-125452380D01*
X158309523Y-125404761D01*
X158261904Y-125357142D01*
X160785714Y-124404761D02*
X159928571Y-125690476D01*
X161833333Y-125166666D02*
X162309523Y-125166666D01*
X161738095Y-125452380D02*
X162071428Y-124452380D01*
X162404761Y-125452380D01*
X162738095Y-125452380D02*
X162738095Y-124452380D01*
X162976190Y-124452380D01*
X163119047Y-124500000D01*
X163214285Y-124595238D01*
X163261904Y-124690476D01*
X163309523Y-124880952D01*
X163309523Y-125023809D01*
X163261904Y-125214285D01*
X163214285Y-125309523D01*
X163119047Y-125404761D01*
X162976190Y-125452380D01*
X162738095Y-125452380D01*
X164309523Y-125357142D02*
X164261904Y-125404761D01*
X164119047Y-125452380D01*
X164023809Y-125452380D01*
X163880952Y-125404761D01*
X163785714Y-125309523D01*
X163738095Y-125214285D01*
X163690476Y-125023809D01*
X163690476Y-124880952D01*
X163738095Y-124690476D01*
X163785714Y-124595238D01*
X163880952Y-124500000D01*
X164023809Y-124452380D01*
X164119047Y-124452380D01*
X164261904Y-124500000D01*
X164309523Y-124547619D01*
X164500000Y-125547619D02*
X165261904Y-125547619D01*
X165500000Y-125452380D02*
X165500000Y-124452380D01*
X165976190Y-125452380D02*
X165976190Y-124452380D01*
X166547619Y-125452380D01*
X166547619Y-124452380D01*
X166928571Y-124452380D02*
X167547619Y-124452380D01*
X167214285Y-124833333D01*
X167357142Y-124833333D01*
X167452380Y-124880952D01*
X167500000Y-124928571D01*
X167547619Y-125023809D01*
X167547619Y-125261904D01*
X167500000Y-125357142D01*
X167452380Y-125404761D01*
X167357142Y-125452380D01*
X167071428Y-125452380D01*
X166976190Y-125404761D01*
X166928571Y-125357142D01*
X181833333Y-121452380D02*
X181500000Y-120976190D01*
X181261904Y-121452380D02*
X181261904Y-120452380D01*
X181642857Y-120452380D01*
X181738095Y-120500000D01*
X181785714Y-120547619D01*
X181833333Y-120642857D01*
X181833333Y-120785714D01*
X181785714Y-120880952D01*
X181738095Y-120928571D01*
X181642857Y-120976190D01*
X181261904Y-120976190D01*
X182166666Y-120452380D02*
X182833333Y-120452380D01*
X182404761Y-121452380D01*
X181833333Y-119952380D02*
X181500000Y-119476190D01*
X181261904Y-119952380D02*
X181261904Y-118952380D01*
X181642857Y-118952380D01*
X181738095Y-119000000D01*
X181785714Y-119047619D01*
X181833333Y-119142857D01*
X181833333Y-119285714D01*
X181785714Y-119380952D01*
X181738095Y-119428571D01*
X181642857Y-119476190D01*
X181261904Y-119476190D01*
X182690476Y-118952380D02*
X182500000Y-118952380D01*
X182404761Y-119000000D01*
X182357142Y-119047619D01*
X182261904Y-119190476D01*
X182214285Y-119380952D01*
X182214285Y-119761904D01*
X182261904Y-119857142D01*
X182309523Y-119904761D01*
X182404761Y-119952380D01*
X182595238Y-119952380D01*
X182690476Y-119904761D01*
X182738095Y-119857142D01*
X182785714Y-119761904D01*
X182785714Y-119523809D01*
X182738095Y-119428571D01*
X182690476Y-119380952D01*
X182595238Y-119333333D01*
X182404761Y-119333333D01*
X182309523Y-119380952D01*
X182261904Y-119428571D01*
X182214285Y-119523809D01*
X161833333Y-121452380D02*
X161500000Y-120976190D01*
X161261904Y-121452380D02*
X161261904Y-120452380D01*
X161642857Y-120452380D01*
X161738095Y-120500000D01*
X161785714Y-120547619D01*
X161833333Y-120642857D01*
X161833333Y-120785714D01*
X161785714Y-120880952D01*
X161738095Y-120928571D01*
X161642857Y-120976190D01*
X161261904Y-120976190D01*
X162738095Y-120452380D02*
X162261904Y-120452380D01*
X162214285Y-120928571D01*
X162261904Y-120880952D01*
X162357142Y-120833333D01*
X162595238Y-120833333D01*
X162690476Y-120880952D01*
X162738095Y-120928571D01*
X162785714Y-121023809D01*
X162785714Y-121261904D01*
X162738095Y-121357142D01*
X162690476Y-121404761D01*
X162595238Y-121452380D01*
X162357142Y-121452380D01*
X162261904Y-121404761D01*
X162214285Y-121357142D01*
X166833333Y-119952380D02*
X166500000Y-119476190D01*
X166261904Y-119952380D02*
X166261904Y-118952380D01*
X166642857Y-118952380D01*
X166738095Y-119000000D01*
X166785714Y-119047619D01*
X166833333Y-119142857D01*
X166833333Y-119285714D01*
X166785714Y-119380952D01*
X166738095Y-119428571D01*
X166642857Y-119476190D01*
X166261904Y-119476190D01*
X167690476Y-119285714D02*
X167690476Y-119952380D01*
X167452380Y-118904761D02*
X167214285Y-119619047D01*
X167833333Y-119619047D01*
X186333333Y-141882380D02*
X186000000Y-141406190D01*
X185761904Y-141882380D02*
X185761904Y-140882380D01*
X186142857Y-140882380D01*
X186238095Y-140930000D01*
X186285714Y-140977619D01*
X186333333Y-141072857D01*
X186333333Y-141215714D01*
X186285714Y-141310952D01*
X186238095Y-141358571D01*
X186142857Y-141406190D01*
X185761904Y-141406190D01*
X186666666Y-140882380D02*
X187285714Y-140882380D01*
X186952380Y-141263333D01*
X187095238Y-141263333D01*
X187190476Y-141310952D01*
X187238095Y-141358571D01*
X187285714Y-141453809D01*
X187285714Y-141691904D01*
X187238095Y-141787142D01*
X187190476Y-141834761D01*
X187095238Y-141882380D01*
X186809523Y-141882380D01*
X186714285Y-141834761D01*
X186666666Y-141787142D01*
X171045833Y-141882380D02*
X170712500Y-141406190D01*
X170474404Y-141882380D02*
X170474404Y-140882380D01*
X170855357Y-140882380D01*
X170950595Y-140930000D01*
X170998214Y-140977619D01*
X171045833Y-141072857D01*
X171045833Y-141215714D01*
X170998214Y-141310952D01*
X170950595Y-141358571D01*
X170855357Y-141406190D01*
X170474404Y-141406190D01*
X171426785Y-140977619D02*
X171474404Y-140930000D01*
X171569642Y-140882380D01*
X171807738Y-140882380D01*
X171902976Y-140930000D01*
X171950595Y-140977619D01*
X171998214Y-141072857D01*
X171998214Y-141168095D01*
X171950595Y-141310952D01*
X171379166Y-141882380D01*
X171998214Y-141882380D01*
X156045833Y-141882380D02*
X155712500Y-141406190D01*
X155474404Y-141882380D02*
X155474404Y-140882380D01*
X155855357Y-140882380D01*
X155950595Y-140930000D01*
X155998214Y-140977619D01*
X156045833Y-141072857D01*
X156045833Y-141215714D01*
X155998214Y-141310952D01*
X155950595Y-141358571D01*
X155855357Y-141406190D01*
X155474404Y-141406190D01*
X156998214Y-141882380D02*
X156426785Y-141882380D01*
X156712500Y-141882380D02*
X156712500Y-140882380D01*
X156617261Y-141025238D01*
X156522023Y-141120476D01*
X156426785Y-141168095D01*
X177357142Y-116666666D02*
X177404761Y-116714285D01*
X177452380Y-116857142D01*
X177452380Y-116952380D01*
X177404761Y-117095238D01*
X177309523Y-117190476D01*
X177214285Y-117238095D01*
X177023809Y-117285714D01*
X176880952Y-117285714D01*
X176690476Y-117238095D01*
X176595238Y-117190476D01*
X176500000Y-117095238D01*
X176452380Y-116952380D01*
X176452380Y-116857142D01*
X176500000Y-116714285D01*
X176547619Y-116666666D01*
X176547619Y-116285714D02*
X176500000Y-116238095D01*
X176452380Y-116142857D01*
X176452380Y-115904761D01*
X176500000Y-115809523D01*
X176547619Y-115761904D01*
X176642857Y-115714285D01*
X176738095Y-115714285D01*
X176880952Y-115761904D01*
X177452380Y-116333333D01*
X177452380Y-115714285D01*
X162357142Y-116666666D02*
X162404761Y-116714285D01*
X162452380Y-116857142D01*
X162452380Y-116952380D01*
X162404761Y-117095238D01*
X162309523Y-117190476D01*
X162214285Y-117238095D01*
X162023809Y-117285714D01*
X161880952Y-117285714D01*
X161690476Y-117238095D01*
X161595238Y-117190476D01*
X161500000Y-117095238D01*
X161452380Y-116952380D01*
X161452380Y-116857142D01*
X161500000Y-116714285D01*
X161547619Y-116666666D01*
X162452380Y-115714285D02*
X162452380Y-116285714D01*
X162452380Y-116000000D02*
X161452380Y-116000000D01*
X161595238Y-116095238D01*
X161690476Y-116190476D01*
X161738095Y-116285714D01*
M02*
