G04 #@! TF.GenerationSoftware,KiCad,Pcbnew,5.1.5*
G04 #@! TF.CreationDate,2020-01-13T20:50:12-05:00*
G04 #@! TF.ProjectId,inputs_addon,696e7075-7473-45f6-9164-646f6e2e6b69,0*
G04 #@! TF.SameCoordinates,Original*
G04 #@! TF.FileFunction,Copper,L2,Bot*
G04 #@! TF.FilePolarity,Positive*
%FSLAX46Y46*%
G04 Gerber Fmt 4.6, Leading zero omitted, Abs format (unit mm)*
G04 Created by KiCad (PCBNEW 5.1.5) date 2020-01-13 20:50:12*
%MOMM*%
%LPD*%
G04 APERTURE LIST*
%ADD10C,6.400000*%
%ADD11O,1.700000X1.700000*%
%ADD12R,1.700000X1.700000*%
%ADD13C,4.000000*%
%ADD14C,1.800000*%
%ADD15C,0.800000*%
%ADD16C,0.250000*%
%ADD17C,0.254000*%
G04 APERTURE END LIST*
D10*
X195000000Y-115000000D03*
X155000000Y-115000000D03*
D11*
X161980000Y-104000000D03*
X164520000Y-104000000D03*
X167060000Y-104000000D03*
X169600000Y-104000000D03*
X172140000Y-104000000D03*
X174680000Y-104000000D03*
X177220000Y-104000000D03*
X179760000Y-104000000D03*
X182300000Y-104000000D03*
X184840000Y-104000000D03*
X187380000Y-104000000D03*
X189920000Y-104000000D03*
X192460000Y-104000000D03*
D12*
X195000000Y-104000000D03*
D11*
X161980000Y-145000000D03*
X164520000Y-145000000D03*
X167060000Y-145000000D03*
X169600000Y-145000000D03*
X172140000Y-145000000D03*
X174680000Y-145000000D03*
X177220000Y-145000000D03*
X179760000Y-145000000D03*
X182300000Y-145000000D03*
X184840000Y-145000000D03*
X187380000Y-145000000D03*
X189920000Y-145000000D03*
X192460000Y-145000000D03*
D12*
X195000000Y-145000000D03*
D13*
X192000000Y-136900000D03*
X192000000Y-128100000D03*
D14*
X185000000Y-135000000D03*
X185000000Y-132500000D03*
X185000000Y-130000000D03*
D13*
X177000000Y-136900000D03*
X177000000Y-128100000D03*
D14*
X170000000Y-135000000D03*
X170000000Y-132500000D03*
X170000000Y-130000000D03*
D13*
X162000000Y-136900000D03*
X162000000Y-128100000D03*
D14*
X155000000Y-135000000D03*
X155000000Y-132500000D03*
X155000000Y-130000000D03*
D15*
X164750000Y-122250000D03*
X162464163Y-112508008D03*
X177000000Y-121000000D03*
X177000000Y-112000000D03*
X155774990Y-138500000D03*
D16*
X155000000Y-137725010D02*
X155774990Y-138500000D01*
X155000000Y-135000000D02*
X155000000Y-137725010D01*
D17*
G36*
X153865717Y-100675088D02*
G01*
X153966353Y-100685000D01*
X196033647Y-100685000D01*
X196127957Y-100675711D01*
X196648126Y-100726714D01*
X197271572Y-100914943D01*
X197846579Y-101220681D01*
X198351247Y-101632279D01*
X198766362Y-102134067D01*
X199076105Y-102706924D01*
X199268682Y-103329039D01*
X199325044Y-103865284D01*
X199324912Y-103865718D01*
X199315000Y-103966354D01*
X199315001Y-146033647D01*
X199324289Y-146127952D01*
X199273286Y-146648126D01*
X199085057Y-147271570D01*
X198779323Y-147846573D01*
X198367721Y-148351248D01*
X197865933Y-148766362D01*
X197293077Y-149076104D01*
X196670961Y-149268682D01*
X196134717Y-149325044D01*
X196134283Y-149324912D01*
X196033647Y-149315000D01*
X153966353Y-149315000D01*
X153872043Y-149324289D01*
X153351874Y-149273286D01*
X152728430Y-149085057D01*
X152153427Y-148779323D01*
X151648752Y-148367721D01*
X151233638Y-147865933D01*
X150923896Y-147293077D01*
X150731318Y-146670961D01*
X150674956Y-146134717D01*
X150675088Y-146134283D01*
X150685000Y-146033647D01*
X150685000Y-145356891D01*
X160538519Y-145356891D01*
X160635843Y-145631252D01*
X160784822Y-145881355D01*
X160979731Y-146097588D01*
X161213080Y-146271641D01*
X161475901Y-146396825D01*
X161623110Y-146441476D01*
X161853000Y-146320155D01*
X161853000Y-145127000D01*
X160659186Y-145127000D01*
X160538519Y-145356891D01*
X150685000Y-145356891D01*
X150685000Y-144643109D01*
X160538519Y-144643109D01*
X160659186Y-144873000D01*
X161853000Y-144873000D01*
X161853000Y-143679845D01*
X162107000Y-143679845D01*
X162107000Y-144873000D01*
X162127000Y-144873000D01*
X162127000Y-145127000D01*
X162107000Y-145127000D01*
X162107000Y-146320155D01*
X162336890Y-146441476D01*
X162484099Y-146396825D01*
X162746920Y-146271641D01*
X162980269Y-146097588D01*
X163175178Y-145881355D01*
X163244805Y-145764466D01*
X163366525Y-145946632D01*
X163573368Y-146153475D01*
X163816589Y-146315990D01*
X164086842Y-146427932D01*
X164373740Y-146485000D01*
X164666260Y-146485000D01*
X164953158Y-146427932D01*
X165223411Y-146315990D01*
X165466632Y-146153475D01*
X165673475Y-145946632D01*
X165790000Y-145772240D01*
X165906525Y-145946632D01*
X166113368Y-146153475D01*
X166356589Y-146315990D01*
X166626842Y-146427932D01*
X166913740Y-146485000D01*
X167206260Y-146485000D01*
X167493158Y-146427932D01*
X167763411Y-146315990D01*
X168006632Y-146153475D01*
X168213475Y-145946632D01*
X168330000Y-145772240D01*
X168446525Y-145946632D01*
X168653368Y-146153475D01*
X168896589Y-146315990D01*
X169166842Y-146427932D01*
X169453740Y-146485000D01*
X169746260Y-146485000D01*
X170033158Y-146427932D01*
X170303411Y-146315990D01*
X170546632Y-146153475D01*
X170753475Y-145946632D01*
X170870000Y-145772240D01*
X170986525Y-145946632D01*
X171193368Y-146153475D01*
X171436589Y-146315990D01*
X171706842Y-146427932D01*
X171993740Y-146485000D01*
X172286260Y-146485000D01*
X172573158Y-146427932D01*
X172843411Y-146315990D01*
X173086632Y-146153475D01*
X173293475Y-145946632D01*
X173410000Y-145772240D01*
X173526525Y-145946632D01*
X173733368Y-146153475D01*
X173976589Y-146315990D01*
X174246842Y-146427932D01*
X174533740Y-146485000D01*
X174826260Y-146485000D01*
X175113158Y-146427932D01*
X175383411Y-146315990D01*
X175626632Y-146153475D01*
X175833475Y-145946632D01*
X175950000Y-145772240D01*
X176066525Y-145946632D01*
X176273368Y-146153475D01*
X176516589Y-146315990D01*
X176786842Y-146427932D01*
X177073740Y-146485000D01*
X177366260Y-146485000D01*
X177653158Y-146427932D01*
X177923411Y-146315990D01*
X178166632Y-146153475D01*
X178373475Y-145946632D01*
X178490000Y-145772240D01*
X178606525Y-145946632D01*
X178813368Y-146153475D01*
X179056589Y-146315990D01*
X179326842Y-146427932D01*
X179613740Y-146485000D01*
X179906260Y-146485000D01*
X180193158Y-146427932D01*
X180463411Y-146315990D01*
X180706632Y-146153475D01*
X180913475Y-145946632D01*
X181030000Y-145772240D01*
X181146525Y-145946632D01*
X181353368Y-146153475D01*
X181596589Y-146315990D01*
X181866842Y-146427932D01*
X182153740Y-146485000D01*
X182446260Y-146485000D01*
X182733158Y-146427932D01*
X183003411Y-146315990D01*
X183246632Y-146153475D01*
X183453475Y-145946632D01*
X183570000Y-145772240D01*
X183686525Y-145946632D01*
X183893368Y-146153475D01*
X184136589Y-146315990D01*
X184406842Y-146427932D01*
X184693740Y-146485000D01*
X184986260Y-146485000D01*
X185273158Y-146427932D01*
X185543411Y-146315990D01*
X185786632Y-146153475D01*
X185993475Y-145946632D01*
X186110000Y-145772240D01*
X186226525Y-145946632D01*
X186433368Y-146153475D01*
X186676589Y-146315990D01*
X186946842Y-146427932D01*
X187233740Y-146485000D01*
X187526260Y-146485000D01*
X187813158Y-146427932D01*
X188083411Y-146315990D01*
X188326632Y-146153475D01*
X188533475Y-145946632D01*
X188650000Y-145772240D01*
X188766525Y-145946632D01*
X188973368Y-146153475D01*
X189216589Y-146315990D01*
X189486842Y-146427932D01*
X189773740Y-146485000D01*
X190066260Y-146485000D01*
X190353158Y-146427932D01*
X190623411Y-146315990D01*
X190866632Y-146153475D01*
X191073475Y-145946632D01*
X191195195Y-145764466D01*
X191264822Y-145881355D01*
X191459731Y-146097588D01*
X191693080Y-146271641D01*
X191955901Y-146396825D01*
X192103110Y-146441476D01*
X192333000Y-146320155D01*
X192333000Y-145127000D01*
X192313000Y-145127000D01*
X192313000Y-144873000D01*
X192333000Y-144873000D01*
X192333000Y-143679845D01*
X192587000Y-143679845D01*
X192587000Y-144873000D01*
X192607000Y-144873000D01*
X192607000Y-145127000D01*
X192587000Y-145127000D01*
X192587000Y-146320155D01*
X192816890Y-146441476D01*
X192964099Y-146396825D01*
X193226920Y-146271641D01*
X193460269Y-146097588D01*
X193536034Y-146013534D01*
X193560498Y-146094180D01*
X193619463Y-146204494D01*
X193698815Y-146301185D01*
X193795506Y-146380537D01*
X193905820Y-146439502D01*
X194025518Y-146475812D01*
X194150000Y-146488072D01*
X195850000Y-146488072D01*
X195974482Y-146475812D01*
X196094180Y-146439502D01*
X196204494Y-146380537D01*
X196301185Y-146301185D01*
X196380537Y-146204494D01*
X196439502Y-146094180D01*
X196475812Y-145974482D01*
X196488072Y-145850000D01*
X196488072Y-144150000D01*
X196475812Y-144025518D01*
X196439502Y-143905820D01*
X196380537Y-143795506D01*
X196301185Y-143698815D01*
X196204494Y-143619463D01*
X196094180Y-143560498D01*
X195974482Y-143524188D01*
X195850000Y-143511928D01*
X194150000Y-143511928D01*
X194025518Y-143524188D01*
X193905820Y-143560498D01*
X193795506Y-143619463D01*
X193698815Y-143698815D01*
X193619463Y-143795506D01*
X193560498Y-143905820D01*
X193536034Y-143986466D01*
X193460269Y-143902412D01*
X193226920Y-143728359D01*
X192964099Y-143603175D01*
X192816890Y-143558524D01*
X192587000Y-143679845D01*
X192333000Y-143679845D01*
X192103110Y-143558524D01*
X191955901Y-143603175D01*
X191693080Y-143728359D01*
X191459731Y-143902412D01*
X191264822Y-144118645D01*
X191195195Y-144235534D01*
X191073475Y-144053368D01*
X190866632Y-143846525D01*
X190623411Y-143684010D01*
X190353158Y-143572068D01*
X190066260Y-143515000D01*
X189773740Y-143515000D01*
X189486842Y-143572068D01*
X189216589Y-143684010D01*
X188973368Y-143846525D01*
X188766525Y-144053368D01*
X188650000Y-144227760D01*
X188533475Y-144053368D01*
X188326632Y-143846525D01*
X188083411Y-143684010D01*
X187813158Y-143572068D01*
X187526260Y-143515000D01*
X187233740Y-143515000D01*
X186946842Y-143572068D01*
X186676589Y-143684010D01*
X186433368Y-143846525D01*
X186226525Y-144053368D01*
X186110000Y-144227760D01*
X185993475Y-144053368D01*
X185786632Y-143846525D01*
X185543411Y-143684010D01*
X185273158Y-143572068D01*
X184986260Y-143515000D01*
X184693740Y-143515000D01*
X184406842Y-143572068D01*
X184136589Y-143684010D01*
X183893368Y-143846525D01*
X183686525Y-144053368D01*
X183570000Y-144227760D01*
X183453475Y-144053368D01*
X183246632Y-143846525D01*
X183003411Y-143684010D01*
X182733158Y-143572068D01*
X182446260Y-143515000D01*
X182153740Y-143515000D01*
X181866842Y-143572068D01*
X181596589Y-143684010D01*
X181353368Y-143846525D01*
X181146525Y-144053368D01*
X181030000Y-144227760D01*
X180913475Y-144053368D01*
X180706632Y-143846525D01*
X180463411Y-143684010D01*
X180193158Y-143572068D01*
X179906260Y-143515000D01*
X179613740Y-143515000D01*
X179326842Y-143572068D01*
X179056589Y-143684010D01*
X178813368Y-143846525D01*
X178606525Y-144053368D01*
X178490000Y-144227760D01*
X178373475Y-144053368D01*
X178166632Y-143846525D01*
X177923411Y-143684010D01*
X177653158Y-143572068D01*
X177366260Y-143515000D01*
X177073740Y-143515000D01*
X176786842Y-143572068D01*
X176516589Y-143684010D01*
X176273368Y-143846525D01*
X176066525Y-144053368D01*
X175950000Y-144227760D01*
X175833475Y-144053368D01*
X175626632Y-143846525D01*
X175383411Y-143684010D01*
X175113158Y-143572068D01*
X174826260Y-143515000D01*
X174533740Y-143515000D01*
X174246842Y-143572068D01*
X173976589Y-143684010D01*
X173733368Y-143846525D01*
X173526525Y-144053368D01*
X173410000Y-144227760D01*
X173293475Y-144053368D01*
X173086632Y-143846525D01*
X172843411Y-143684010D01*
X172573158Y-143572068D01*
X172286260Y-143515000D01*
X171993740Y-143515000D01*
X171706842Y-143572068D01*
X171436589Y-143684010D01*
X171193368Y-143846525D01*
X170986525Y-144053368D01*
X170870000Y-144227760D01*
X170753475Y-144053368D01*
X170546632Y-143846525D01*
X170303411Y-143684010D01*
X170033158Y-143572068D01*
X169746260Y-143515000D01*
X169453740Y-143515000D01*
X169166842Y-143572068D01*
X168896589Y-143684010D01*
X168653368Y-143846525D01*
X168446525Y-144053368D01*
X168330000Y-144227760D01*
X168213475Y-144053368D01*
X168006632Y-143846525D01*
X167763411Y-143684010D01*
X167493158Y-143572068D01*
X167206260Y-143515000D01*
X166913740Y-143515000D01*
X166626842Y-143572068D01*
X166356589Y-143684010D01*
X166113368Y-143846525D01*
X165906525Y-144053368D01*
X165790000Y-144227760D01*
X165673475Y-144053368D01*
X165466632Y-143846525D01*
X165223411Y-143684010D01*
X164953158Y-143572068D01*
X164666260Y-143515000D01*
X164373740Y-143515000D01*
X164086842Y-143572068D01*
X163816589Y-143684010D01*
X163573368Y-143846525D01*
X163366525Y-144053368D01*
X163244805Y-144235534D01*
X163175178Y-144118645D01*
X162980269Y-143902412D01*
X162746920Y-143728359D01*
X162484099Y-143603175D01*
X162336890Y-143558524D01*
X162107000Y-143679845D01*
X161853000Y-143679845D01*
X161623110Y-143558524D01*
X161475901Y-143603175D01*
X161213080Y-143728359D01*
X160979731Y-143902412D01*
X160784822Y-144118645D01*
X160635843Y-144368748D01*
X160538519Y-144643109D01*
X150685000Y-144643109D01*
X150685000Y-132348816D01*
X153465000Y-132348816D01*
X153465000Y-132651184D01*
X153523989Y-132947743D01*
X153639701Y-133227095D01*
X153807688Y-133478505D01*
X154021495Y-133692312D01*
X154107831Y-133750000D01*
X154021495Y-133807688D01*
X153807688Y-134021495D01*
X153639701Y-134272905D01*
X153523989Y-134552257D01*
X153465000Y-134848816D01*
X153465000Y-135151184D01*
X153523989Y-135447743D01*
X153639701Y-135727095D01*
X153807688Y-135978505D01*
X154021495Y-136192312D01*
X154240000Y-136338313D01*
X154240001Y-137687678D01*
X154236324Y-137725010D01*
X154250998Y-137873995D01*
X154294454Y-138017256D01*
X154365026Y-138149286D01*
X154436201Y-138236012D01*
X154460000Y-138265011D01*
X154488998Y-138288809D01*
X154739990Y-138539801D01*
X154739990Y-138601939D01*
X154779764Y-138801898D01*
X154857785Y-138990256D01*
X154971053Y-139159774D01*
X155115216Y-139303937D01*
X155284734Y-139417205D01*
X155473092Y-139495226D01*
X155673051Y-139535000D01*
X155876929Y-139535000D01*
X156076888Y-139495226D01*
X156265246Y-139417205D01*
X156434764Y-139303937D01*
X156578927Y-139159774D01*
X156692195Y-138990256D01*
X156770216Y-138801898D01*
X156809990Y-138601939D01*
X156809990Y-138398061D01*
X156770216Y-138198102D01*
X156692195Y-138009744D01*
X156578927Y-137840226D01*
X156434764Y-137696063D01*
X156265246Y-137582795D01*
X156076888Y-137504774D01*
X155876929Y-137465000D01*
X155814791Y-137465000D01*
X155760000Y-137410209D01*
X155760000Y-136640475D01*
X159365000Y-136640475D01*
X159365000Y-137159525D01*
X159466261Y-137668601D01*
X159664893Y-138148141D01*
X159953262Y-138579715D01*
X160320285Y-138946738D01*
X160751859Y-139235107D01*
X161231399Y-139433739D01*
X161740475Y-139535000D01*
X162259525Y-139535000D01*
X162768601Y-139433739D01*
X163248141Y-139235107D01*
X163679715Y-138946738D01*
X164046738Y-138579715D01*
X164335107Y-138148141D01*
X164533739Y-137668601D01*
X164635000Y-137159525D01*
X164635000Y-136640475D01*
X174365000Y-136640475D01*
X174365000Y-137159525D01*
X174466261Y-137668601D01*
X174664893Y-138148141D01*
X174953262Y-138579715D01*
X175320285Y-138946738D01*
X175751859Y-139235107D01*
X176231399Y-139433739D01*
X176740475Y-139535000D01*
X177259525Y-139535000D01*
X177768601Y-139433739D01*
X178248141Y-139235107D01*
X178679715Y-138946738D01*
X179046738Y-138579715D01*
X179335107Y-138148141D01*
X179533739Y-137668601D01*
X179635000Y-137159525D01*
X179635000Y-136640475D01*
X189365000Y-136640475D01*
X189365000Y-137159525D01*
X189466261Y-137668601D01*
X189664893Y-138148141D01*
X189953262Y-138579715D01*
X190320285Y-138946738D01*
X190751859Y-139235107D01*
X191231399Y-139433739D01*
X191740475Y-139535000D01*
X192259525Y-139535000D01*
X192768601Y-139433739D01*
X193248141Y-139235107D01*
X193679715Y-138946738D01*
X194046738Y-138579715D01*
X194335107Y-138148141D01*
X194533739Y-137668601D01*
X194635000Y-137159525D01*
X194635000Y-136640475D01*
X194533739Y-136131399D01*
X194335107Y-135651859D01*
X194046738Y-135220285D01*
X193679715Y-134853262D01*
X193248141Y-134564893D01*
X192768601Y-134366261D01*
X192259525Y-134265000D01*
X191740475Y-134265000D01*
X191231399Y-134366261D01*
X190751859Y-134564893D01*
X190320285Y-134853262D01*
X189953262Y-135220285D01*
X189664893Y-135651859D01*
X189466261Y-136131399D01*
X189365000Y-136640475D01*
X179635000Y-136640475D01*
X179533739Y-136131399D01*
X179335107Y-135651859D01*
X179046738Y-135220285D01*
X178679715Y-134853262D01*
X178248141Y-134564893D01*
X177768601Y-134366261D01*
X177259525Y-134265000D01*
X176740475Y-134265000D01*
X176231399Y-134366261D01*
X175751859Y-134564893D01*
X175320285Y-134853262D01*
X174953262Y-135220285D01*
X174664893Y-135651859D01*
X174466261Y-136131399D01*
X174365000Y-136640475D01*
X164635000Y-136640475D01*
X164533739Y-136131399D01*
X164335107Y-135651859D01*
X164046738Y-135220285D01*
X163679715Y-134853262D01*
X163248141Y-134564893D01*
X162768601Y-134366261D01*
X162259525Y-134265000D01*
X161740475Y-134265000D01*
X161231399Y-134366261D01*
X160751859Y-134564893D01*
X160320285Y-134853262D01*
X159953262Y-135220285D01*
X159664893Y-135651859D01*
X159466261Y-136131399D01*
X159365000Y-136640475D01*
X155760000Y-136640475D01*
X155760000Y-136338313D01*
X155978505Y-136192312D01*
X156192312Y-135978505D01*
X156360299Y-135727095D01*
X156476011Y-135447743D01*
X156535000Y-135151184D01*
X156535000Y-134848816D01*
X156476011Y-134552257D01*
X156360299Y-134272905D01*
X156192312Y-134021495D01*
X155978505Y-133807688D01*
X155892169Y-133750000D01*
X155978505Y-133692312D01*
X156192312Y-133478505D01*
X156360299Y-133227095D01*
X156476011Y-132947743D01*
X156535000Y-132651184D01*
X156535000Y-132348816D01*
X168465000Y-132348816D01*
X168465000Y-132651184D01*
X168523989Y-132947743D01*
X168639701Y-133227095D01*
X168807688Y-133478505D01*
X169021495Y-133692312D01*
X169107831Y-133750000D01*
X169021495Y-133807688D01*
X168807688Y-134021495D01*
X168639701Y-134272905D01*
X168523989Y-134552257D01*
X168465000Y-134848816D01*
X168465000Y-135151184D01*
X168523989Y-135447743D01*
X168639701Y-135727095D01*
X168807688Y-135978505D01*
X169021495Y-136192312D01*
X169272905Y-136360299D01*
X169552257Y-136476011D01*
X169848816Y-136535000D01*
X170151184Y-136535000D01*
X170447743Y-136476011D01*
X170727095Y-136360299D01*
X170978505Y-136192312D01*
X171192312Y-135978505D01*
X171360299Y-135727095D01*
X171476011Y-135447743D01*
X171535000Y-135151184D01*
X171535000Y-134848816D01*
X171476011Y-134552257D01*
X171360299Y-134272905D01*
X171192312Y-134021495D01*
X170978505Y-133807688D01*
X170892169Y-133750000D01*
X170978505Y-133692312D01*
X171192312Y-133478505D01*
X171360299Y-133227095D01*
X171476011Y-132947743D01*
X171535000Y-132651184D01*
X171535000Y-132348816D01*
X183465000Y-132348816D01*
X183465000Y-132651184D01*
X183523989Y-132947743D01*
X183639701Y-133227095D01*
X183807688Y-133478505D01*
X184021495Y-133692312D01*
X184107831Y-133750000D01*
X184021495Y-133807688D01*
X183807688Y-134021495D01*
X183639701Y-134272905D01*
X183523989Y-134552257D01*
X183465000Y-134848816D01*
X183465000Y-135151184D01*
X183523989Y-135447743D01*
X183639701Y-135727095D01*
X183807688Y-135978505D01*
X184021495Y-136192312D01*
X184272905Y-136360299D01*
X184552257Y-136476011D01*
X184848816Y-136535000D01*
X185151184Y-136535000D01*
X185447743Y-136476011D01*
X185727095Y-136360299D01*
X185978505Y-136192312D01*
X186192312Y-135978505D01*
X186360299Y-135727095D01*
X186476011Y-135447743D01*
X186535000Y-135151184D01*
X186535000Y-134848816D01*
X186476011Y-134552257D01*
X186360299Y-134272905D01*
X186192312Y-134021495D01*
X185978505Y-133807688D01*
X185892169Y-133750000D01*
X185978505Y-133692312D01*
X186192312Y-133478505D01*
X186360299Y-133227095D01*
X186476011Y-132947743D01*
X186535000Y-132651184D01*
X186535000Y-132348816D01*
X186476011Y-132052257D01*
X186360299Y-131772905D01*
X186192312Y-131521495D01*
X185978505Y-131307688D01*
X185835690Y-131212262D01*
X185884475Y-131064080D01*
X185000000Y-130179605D01*
X184115525Y-131064080D01*
X184164310Y-131212262D01*
X184021495Y-131307688D01*
X183807688Y-131521495D01*
X183639701Y-131772905D01*
X183523989Y-132052257D01*
X183465000Y-132348816D01*
X171535000Y-132348816D01*
X171476011Y-132052257D01*
X171360299Y-131772905D01*
X171192312Y-131521495D01*
X170978505Y-131307688D01*
X170835690Y-131212262D01*
X170884475Y-131064080D01*
X170000000Y-130179605D01*
X169115525Y-131064080D01*
X169164310Y-131212262D01*
X169021495Y-131307688D01*
X168807688Y-131521495D01*
X168639701Y-131772905D01*
X168523989Y-132052257D01*
X168465000Y-132348816D01*
X156535000Y-132348816D01*
X156476011Y-132052257D01*
X156360299Y-131772905D01*
X156192312Y-131521495D01*
X155978505Y-131307688D01*
X155835690Y-131212262D01*
X155884475Y-131064080D01*
X155000000Y-130179605D01*
X154115525Y-131064080D01*
X154164310Y-131212262D01*
X154021495Y-131307688D01*
X153807688Y-131521495D01*
X153639701Y-131772905D01*
X153523989Y-132052257D01*
X153465000Y-132348816D01*
X150685000Y-132348816D01*
X150685000Y-130066553D01*
X153459009Y-130066553D01*
X153501603Y-130365907D01*
X153601778Y-130651199D01*
X153681739Y-130800792D01*
X153935920Y-130884475D01*
X154820395Y-130000000D01*
X155179605Y-130000000D01*
X156064080Y-130884475D01*
X156318261Y-130800792D01*
X156449158Y-130528225D01*
X156524365Y-130235358D01*
X156540991Y-129933447D01*
X156498397Y-129634093D01*
X156398222Y-129348801D01*
X156318261Y-129199208D01*
X156064080Y-129115525D01*
X155179605Y-130000000D01*
X154820395Y-130000000D01*
X153935920Y-129115525D01*
X153681739Y-129199208D01*
X153550842Y-129471775D01*
X153475635Y-129764642D01*
X153459009Y-130066553D01*
X150685000Y-130066553D01*
X150685000Y-128935920D01*
X154115525Y-128935920D01*
X155000000Y-129820395D01*
X155884475Y-128935920D01*
X155800792Y-128681739D01*
X155528225Y-128550842D01*
X155235358Y-128475635D01*
X154933447Y-128459009D01*
X154634093Y-128501603D01*
X154348801Y-128601778D01*
X154199208Y-128681739D01*
X154115525Y-128935920D01*
X150685000Y-128935920D01*
X150685000Y-127840475D01*
X159365000Y-127840475D01*
X159365000Y-128359525D01*
X159466261Y-128868601D01*
X159664893Y-129348141D01*
X159953262Y-129779715D01*
X160320285Y-130146738D01*
X160751859Y-130435107D01*
X161231399Y-130633739D01*
X161740475Y-130735000D01*
X162259525Y-130735000D01*
X162768601Y-130633739D01*
X163248141Y-130435107D01*
X163679715Y-130146738D01*
X163759900Y-130066553D01*
X168459009Y-130066553D01*
X168501603Y-130365907D01*
X168601778Y-130651199D01*
X168681739Y-130800792D01*
X168935920Y-130884475D01*
X169820395Y-130000000D01*
X170179605Y-130000000D01*
X171064080Y-130884475D01*
X171318261Y-130800792D01*
X171449158Y-130528225D01*
X171524365Y-130235358D01*
X171540991Y-129933447D01*
X171498397Y-129634093D01*
X171398222Y-129348801D01*
X171318261Y-129199208D01*
X171064080Y-129115525D01*
X170179605Y-130000000D01*
X169820395Y-130000000D01*
X168935920Y-129115525D01*
X168681739Y-129199208D01*
X168550842Y-129471775D01*
X168475635Y-129764642D01*
X168459009Y-130066553D01*
X163759900Y-130066553D01*
X164046738Y-129779715D01*
X164335107Y-129348141D01*
X164505854Y-128935920D01*
X169115525Y-128935920D01*
X170000000Y-129820395D01*
X170884475Y-128935920D01*
X170800792Y-128681739D01*
X170528225Y-128550842D01*
X170235358Y-128475635D01*
X169933447Y-128459009D01*
X169634093Y-128501603D01*
X169348801Y-128601778D01*
X169199208Y-128681739D01*
X169115525Y-128935920D01*
X164505854Y-128935920D01*
X164533739Y-128868601D01*
X164635000Y-128359525D01*
X164635000Y-127840475D01*
X174365000Y-127840475D01*
X174365000Y-128359525D01*
X174466261Y-128868601D01*
X174664893Y-129348141D01*
X174953262Y-129779715D01*
X175320285Y-130146738D01*
X175751859Y-130435107D01*
X176231399Y-130633739D01*
X176740475Y-130735000D01*
X177259525Y-130735000D01*
X177768601Y-130633739D01*
X178248141Y-130435107D01*
X178679715Y-130146738D01*
X178759900Y-130066553D01*
X183459009Y-130066553D01*
X183501603Y-130365907D01*
X183601778Y-130651199D01*
X183681739Y-130800792D01*
X183935920Y-130884475D01*
X184820395Y-130000000D01*
X185179605Y-130000000D01*
X186064080Y-130884475D01*
X186318261Y-130800792D01*
X186449158Y-130528225D01*
X186524365Y-130235358D01*
X186540991Y-129933447D01*
X186498397Y-129634093D01*
X186398222Y-129348801D01*
X186318261Y-129199208D01*
X186064080Y-129115525D01*
X185179605Y-130000000D01*
X184820395Y-130000000D01*
X183935920Y-129115525D01*
X183681739Y-129199208D01*
X183550842Y-129471775D01*
X183475635Y-129764642D01*
X183459009Y-130066553D01*
X178759900Y-130066553D01*
X179046738Y-129779715D01*
X179335107Y-129348141D01*
X179505854Y-128935920D01*
X184115525Y-128935920D01*
X185000000Y-129820395D01*
X185884475Y-128935920D01*
X185800792Y-128681739D01*
X185528225Y-128550842D01*
X185235358Y-128475635D01*
X184933447Y-128459009D01*
X184634093Y-128501603D01*
X184348801Y-128601778D01*
X184199208Y-128681739D01*
X184115525Y-128935920D01*
X179505854Y-128935920D01*
X179533739Y-128868601D01*
X179635000Y-128359525D01*
X179635000Y-127840475D01*
X189365000Y-127840475D01*
X189365000Y-128359525D01*
X189466261Y-128868601D01*
X189664893Y-129348141D01*
X189953262Y-129779715D01*
X190320285Y-130146738D01*
X190751859Y-130435107D01*
X191231399Y-130633739D01*
X191740475Y-130735000D01*
X192259525Y-130735000D01*
X192768601Y-130633739D01*
X193248141Y-130435107D01*
X193679715Y-130146738D01*
X194046738Y-129779715D01*
X194335107Y-129348141D01*
X194533739Y-128868601D01*
X194635000Y-128359525D01*
X194635000Y-127840475D01*
X194533739Y-127331399D01*
X194335107Y-126851859D01*
X194046738Y-126420285D01*
X193679715Y-126053262D01*
X193248141Y-125764893D01*
X192768601Y-125566261D01*
X192259525Y-125465000D01*
X191740475Y-125465000D01*
X191231399Y-125566261D01*
X190751859Y-125764893D01*
X190320285Y-126053262D01*
X189953262Y-126420285D01*
X189664893Y-126851859D01*
X189466261Y-127331399D01*
X189365000Y-127840475D01*
X179635000Y-127840475D01*
X179533739Y-127331399D01*
X179335107Y-126851859D01*
X179046738Y-126420285D01*
X178679715Y-126053262D01*
X178248141Y-125764893D01*
X177768601Y-125566261D01*
X177259525Y-125465000D01*
X176740475Y-125465000D01*
X176231399Y-125566261D01*
X175751859Y-125764893D01*
X175320285Y-126053262D01*
X174953262Y-126420285D01*
X174664893Y-126851859D01*
X174466261Y-127331399D01*
X174365000Y-127840475D01*
X164635000Y-127840475D01*
X164533739Y-127331399D01*
X164335107Y-126851859D01*
X164046738Y-126420285D01*
X163679715Y-126053262D01*
X163248141Y-125764893D01*
X162768601Y-125566261D01*
X162259525Y-125465000D01*
X161740475Y-125465000D01*
X161231399Y-125566261D01*
X160751859Y-125764893D01*
X160320285Y-126053262D01*
X159953262Y-126420285D01*
X159664893Y-126851859D01*
X159466261Y-127331399D01*
X159365000Y-127840475D01*
X150685000Y-127840475D01*
X150685000Y-117700881D01*
X152478724Y-117700881D01*
X152838912Y-118190548D01*
X153502882Y-118550849D01*
X154224385Y-118774694D01*
X154975695Y-118853480D01*
X155727938Y-118784178D01*
X156452208Y-118569452D01*
X157120670Y-118217555D01*
X157161088Y-118190548D01*
X157521276Y-117700881D01*
X192478724Y-117700881D01*
X192838912Y-118190548D01*
X193502882Y-118550849D01*
X194224385Y-118774694D01*
X194975695Y-118853480D01*
X195727938Y-118784178D01*
X196452208Y-118569452D01*
X197120670Y-118217555D01*
X197161088Y-118190548D01*
X197521276Y-117700881D01*
X195000000Y-115179605D01*
X192478724Y-117700881D01*
X157521276Y-117700881D01*
X155000000Y-115179605D01*
X152478724Y-117700881D01*
X150685000Y-117700881D01*
X150685000Y-114975695D01*
X151146520Y-114975695D01*
X151215822Y-115727938D01*
X151430548Y-116452208D01*
X151782445Y-117120670D01*
X151809452Y-117161088D01*
X152299119Y-117521276D01*
X154820395Y-115000000D01*
X155179605Y-115000000D01*
X157700881Y-117521276D01*
X158190548Y-117161088D01*
X158550849Y-116497118D01*
X158774694Y-115775615D01*
X158853480Y-115024305D01*
X158849002Y-114975695D01*
X191146520Y-114975695D01*
X191215822Y-115727938D01*
X191430548Y-116452208D01*
X191782445Y-117120670D01*
X191809452Y-117161088D01*
X192299119Y-117521276D01*
X194820395Y-115000000D01*
X195179605Y-115000000D01*
X197700881Y-117521276D01*
X198190548Y-117161088D01*
X198550849Y-116497118D01*
X198774694Y-115775615D01*
X198853480Y-115024305D01*
X198784178Y-114272062D01*
X198569452Y-113547792D01*
X198217555Y-112879330D01*
X198190548Y-112838912D01*
X197700881Y-112478724D01*
X195179605Y-115000000D01*
X194820395Y-115000000D01*
X192299119Y-112478724D01*
X191809452Y-112838912D01*
X191449151Y-113502882D01*
X191225306Y-114224385D01*
X191146520Y-114975695D01*
X158849002Y-114975695D01*
X158784178Y-114272062D01*
X158569452Y-113547792D01*
X158217555Y-112879330D01*
X158190548Y-112838912D01*
X157700881Y-112478724D01*
X155179605Y-115000000D01*
X154820395Y-115000000D01*
X152299119Y-112478724D01*
X151809452Y-112838912D01*
X151449151Y-113502882D01*
X151225306Y-114224385D01*
X151146520Y-114975695D01*
X150685000Y-114975695D01*
X150685000Y-112299119D01*
X152478724Y-112299119D01*
X155000000Y-114820395D01*
X157521276Y-112299119D01*
X192478724Y-112299119D01*
X195000000Y-114820395D01*
X197521276Y-112299119D01*
X197161088Y-111809452D01*
X196497118Y-111449151D01*
X195775615Y-111225306D01*
X195024305Y-111146520D01*
X194272062Y-111215822D01*
X193547792Y-111430548D01*
X192879330Y-111782445D01*
X192838912Y-111809452D01*
X192478724Y-112299119D01*
X157521276Y-112299119D01*
X157161088Y-111809452D01*
X156497118Y-111449151D01*
X155775615Y-111225306D01*
X155024305Y-111146520D01*
X154272062Y-111215822D01*
X153547792Y-111430548D01*
X152879330Y-111782445D01*
X152838912Y-111809452D01*
X152478724Y-112299119D01*
X150685000Y-112299119D01*
X150685000Y-104356891D01*
X160538519Y-104356891D01*
X160635843Y-104631252D01*
X160784822Y-104881355D01*
X160979731Y-105097588D01*
X161213080Y-105271641D01*
X161475901Y-105396825D01*
X161623110Y-105441476D01*
X161853000Y-105320155D01*
X161853000Y-104127000D01*
X160659186Y-104127000D01*
X160538519Y-104356891D01*
X150685000Y-104356891D01*
X150685000Y-103966353D01*
X150675711Y-103872043D01*
X150698158Y-103643109D01*
X160538519Y-103643109D01*
X160659186Y-103873000D01*
X161853000Y-103873000D01*
X161853000Y-102679845D01*
X162107000Y-102679845D01*
X162107000Y-103873000D01*
X162127000Y-103873000D01*
X162127000Y-104127000D01*
X162107000Y-104127000D01*
X162107000Y-105320155D01*
X162336890Y-105441476D01*
X162484099Y-105396825D01*
X162746920Y-105271641D01*
X162980269Y-105097588D01*
X163175178Y-104881355D01*
X163244805Y-104764466D01*
X163366525Y-104946632D01*
X163573368Y-105153475D01*
X163816589Y-105315990D01*
X164086842Y-105427932D01*
X164373740Y-105485000D01*
X164666260Y-105485000D01*
X164953158Y-105427932D01*
X165223411Y-105315990D01*
X165466632Y-105153475D01*
X165673475Y-104946632D01*
X165790000Y-104772240D01*
X165906525Y-104946632D01*
X166113368Y-105153475D01*
X166356589Y-105315990D01*
X166626842Y-105427932D01*
X166913740Y-105485000D01*
X167206260Y-105485000D01*
X167493158Y-105427932D01*
X167763411Y-105315990D01*
X168006632Y-105153475D01*
X168213475Y-104946632D01*
X168330000Y-104772240D01*
X168446525Y-104946632D01*
X168653368Y-105153475D01*
X168896589Y-105315990D01*
X169166842Y-105427932D01*
X169453740Y-105485000D01*
X169746260Y-105485000D01*
X170033158Y-105427932D01*
X170303411Y-105315990D01*
X170546632Y-105153475D01*
X170753475Y-104946632D01*
X170870000Y-104772240D01*
X170986525Y-104946632D01*
X171193368Y-105153475D01*
X171436589Y-105315990D01*
X171706842Y-105427932D01*
X171993740Y-105485000D01*
X172286260Y-105485000D01*
X172573158Y-105427932D01*
X172843411Y-105315990D01*
X173086632Y-105153475D01*
X173293475Y-104946632D01*
X173410000Y-104772240D01*
X173526525Y-104946632D01*
X173733368Y-105153475D01*
X173976589Y-105315990D01*
X174246842Y-105427932D01*
X174533740Y-105485000D01*
X174826260Y-105485000D01*
X175113158Y-105427932D01*
X175383411Y-105315990D01*
X175626632Y-105153475D01*
X175833475Y-104946632D01*
X175950000Y-104772240D01*
X176066525Y-104946632D01*
X176273368Y-105153475D01*
X176516589Y-105315990D01*
X176786842Y-105427932D01*
X177073740Y-105485000D01*
X177366260Y-105485000D01*
X177653158Y-105427932D01*
X177923411Y-105315990D01*
X178166632Y-105153475D01*
X178373475Y-104946632D01*
X178490000Y-104772240D01*
X178606525Y-104946632D01*
X178813368Y-105153475D01*
X179056589Y-105315990D01*
X179326842Y-105427932D01*
X179613740Y-105485000D01*
X179906260Y-105485000D01*
X180193158Y-105427932D01*
X180463411Y-105315990D01*
X180706632Y-105153475D01*
X180913475Y-104946632D01*
X181030000Y-104772240D01*
X181146525Y-104946632D01*
X181353368Y-105153475D01*
X181596589Y-105315990D01*
X181866842Y-105427932D01*
X182153740Y-105485000D01*
X182446260Y-105485000D01*
X182733158Y-105427932D01*
X183003411Y-105315990D01*
X183246632Y-105153475D01*
X183453475Y-104946632D01*
X183570000Y-104772240D01*
X183686525Y-104946632D01*
X183893368Y-105153475D01*
X184136589Y-105315990D01*
X184406842Y-105427932D01*
X184693740Y-105485000D01*
X184986260Y-105485000D01*
X185273158Y-105427932D01*
X185543411Y-105315990D01*
X185786632Y-105153475D01*
X185993475Y-104946632D01*
X186110000Y-104772240D01*
X186226525Y-104946632D01*
X186433368Y-105153475D01*
X186676589Y-105315990D01*
X186946842Y-105427932D01*
X187233740Y-105485000D01*
X187526260Y-105485000D01*
X187813158Y-105427932D01*
X188083411Y-105315990D01*
X188326632Y-105153475D01*
X188533475Y-104946632D01*
X188650000Y-104772240D01*
X188766525Y-104946632D01*
X188973368Y-105153475D01*
X189216589Y-105315990D01*
X189486842Y-105427932D01*
X189773740Y-105485000D01*
X190066260Y-105485000D01*
X190353158Y-105427932D01*
X190623411Y-105315990D01*
X190866632Y-105153475D01*
X191073475Y-104946632D01*
X191195195Y-104764466D01*
X191264822Y-104881355D01*
X191459731Y-105097588D01*
X191693080Y-105271641D01*
X191955901Y-105396825D01*
X192103110Y-105441476D01*
X192333000Y-105320155D01*
X192333000Y-104127000D01*
X192313000Y-104127000D01*
X192313000Y-103873000D01*
X192333000Y-103873000D01*
X192333000Y-102679845D01*
X192587000Y-102679845D01*
X192587000Y-103873000D01*
X192607000Y-103873000D01*
X192607000Y-104127000D01*
X192587000Y-104127000D01*
X192587000Y-105320155D01*
X192816890Y-105441476D01*
X192964099Y-105396825D01*
X193226920Y-105271641D01*
X193460269Y-105097588D01*
X193536034Y-105013534D01*
X193560498Y-105094180D01*
X193619463Y-105204494D01*
X193698815Y-105301185D01*
X193795506Y-105380537D01*
X193905820Y-105439502D01*
X194025518Y-105475812D01*
X194150000Y-105488072D01*
X195850000Y-105488072D01*
X195974482Y-105475812D01*
X196094180Y-105439502D01*
X196204494Y-105380537D01*
X196301185Y-105301185D01*
X196380537Y-105204494D01*
X196439502Y-105094180D01*
X196475812Y-104974482D01*
X196488072Y-104850000D01*
X196488072Y-103150000D01*
X196475812Y-103025518D01*
X196439502Y-102905820D01*
X196380537Y-102795506D01*
X196301185Y-102698815D01*
X196204494Y-102619463D01*
X196094180Y-102560498D01*
X195974482Y-102524188D01*
X195850000Y-102511928D01*
X194150000Y-102511928D01*
X194025518Y-102524188D01*
X193905820Y-102560498D01*
X193795506Y-102619463D01*
X193698815Y-102698815D01*
X193619463Y-102795506D01*
X193560498Y-102905820D01*
X193536034Y-102986466D01*
X193460269Y-102902412D01*
X193226920Y-102728359D01*
X192964099Y-102603175D01*
X192816890Y-102558524D01*
X192587000Y-102679845D01*
X192333000Y-102679845D01*
X192103110Y-102558524D01*
X191955901Y-102603175D01*
X191693080Y-102728359D01*
X191459731Y-102902412D01*
X191264822Y-103118645D01*
X191195195Y-103235534D01*
X191073475Y-103053368D01*
X190866632Y-102846525D01*
X190623411Y-102684010D01*
X190353158Y-102572068D01*
X190066260Y-102515000D01*
X189773740Y-102515000D01*
X189486842Y-102572068D01*
X189216589Y-102684010D01*
X188973368Y-102846525D01*
X188766525Y-103053368D01*
X188650000Y-103227760D01*
X188533475Y-103053368D01*
X188326632Y-102846525D01*
X188083411Y-102684010D01*
X187813158Y-102572068D01*
X187526260Y-102515000D01*
X187233740Y-102515000D01*
X186946842Y-102572068D01*
X186676589Y-102684010D01*
X186433368Y-102846525D01*
X186226525Y-103053368D01*
X186110000Y-103227760D01*
X185993475Y-103053368D01*
X185786632Y-102846525D01*
X185543411Y-102684010D01*
X185273158Y-102572068D01*
X184986260Y-102515000D01*
X184693740Y-102515000D01*
X184406842Y-102572068D01*
X184136589Y-102684010D01*
X183893368Y-102846525D01*
X183686525Y-103053368D01*
X183570000Y-103227760D01*
X183453475Y-103053368D01*
X183246632Y-102846525D01*
X183003411Y-102684010D01*
X182733158Y-102572068D01*
X182446260Y-102515000D01*
X182153740Y-102515000D01*
X181866842Y-102572068D01*
X181596589Y-102684010D01*
X181353368Y-102846525D01*
X181146525Y-103053368D01*
X181030000Y-103227760D01*
X180913475Y-103053368D01*
X180706632Y-102846525D01*
X180463411Y-102684010D01*
X180193158Y-102572068D01*
X179906260Y-102515000D01*
X179613740Y-102515000D01*
X179326842Y-102572068D01*
X179056589Y-102684010D01*
X178813368Y-102846525D01*
X178606525Y-103053368D01*
X178490000Y-103227760D01*
X178373475Y-103053368D01*
X178166632Y-102846525D01*
X177923411Y-102684010D01*
X177653158Y-102572068D01*
X177366260Y-102515000D01*
X177073740Y-102515000D01*
X176786842Y-102572068D01*
X176516589Y-102684010D01*
X176273368Y-102846525D01*
X176066525Y-103053368D01*
X175950000Y-103227760D01*
X175833475Y-103053368D01*
X175626632Y-102846525D01*
X175383411Y-102684010D01*
X175113158Y-102572068D01*
X174826260Y-102515000D01*
X174533740Y-102515000D01*
X174246842Y-102572068D01*
X173976589Y-102684010D01*
X173733368Y-102846525D01*
X173526525Y-103053368D01*
X173410000Y-103227760D01*
X173293475Y-103053368D01*
X173086632Y-102846525D01*
X172843411Y-102684010D01*
X172573158Y-102572068D01*
X172286260Y-102515000D01*
X171993740Y-102515000D01*
X171706842Y-102572068D01*
X171436589Y-102684010D01*
X171193368Y-102846525D01*
X170986525Y-103053368D01*
X170870000Y-103227760D01*
X170753475Y-103053368D01*
X170546632Y-102846525D01*
X170303411Y-102684010D01*
X170033158Y-102572068D01*
X169746260Y-102515000D01*
X169453740Y-102515000D01*
X169166842Y-102572068D01*
X168896589Y-102684010D01*
X168653368Y-102846525D01*
X168446525Y-103053368D01*
X168330000Y-103227760D01*
X168213475Y-103053368D01*
X168006632Y-102846525D01*
X167763411Y-102684010D01*
X167493158Y-102572068D01*
X167206260Y-102515000D01*
X166913740Y-102515000D01*
X166626842Y-102572068D01*
X166356589Y-102684010D01*
X166113368Y-102846525D01*
X165906525Y-103053368D01*
X165790000Y-103227760D01*
X165673475Y-103053368D01*
X165466632Y-102846525D01*
X165223411Y-102684010D01*
X164953158Y-102572068D01*
X164666260Y-102515000D01*
X164373740Y-102515000D01*
X164086842Y-102572068D01*
X163816589Y-102684010D01*
X163573368Y-102846525D01*
X163366525Y-103053368D01*
X163244805Y-103235534D01*
X163175178Y-103118645D01*
X162980269Y-102902412D01*
X162746920Y-102728359D01*
X162484099Y-102603175D01*
X162336890Y-102558524D01*
X162107000Y-102679845D01*
X161853000Y-102679845D01*
X161623110Y-102558524D01*
X161475901Y-102603175D01*
X161213080Y-102728359D01*
X160979731Y-102902412D01*
X160784822Y-103118645D01*
X160635843Y-103368748D01*
X160538519Y-103643109D01*
X150698158Y-103643109D01*
X150726714Y-103351874D01*
X150914943Y-102728428D01*
X151220681Y-102153421D01*
X151632279Y-101648753D01*
X152134067Y-101233638D01*
X152706924Y-100923895D01*
X153329039Y-100731318D01*
X153865283Y-100674956D01*
X153865717Y-100675088D01*
G37*
X153865717Y-100675088D02*
X153966353Y-100685000D01*
X196033647Y-100685000D01*
X196127957Y-100675711D01*
X196648126Y-100726714D01*
X197271572Y-100914943D01*
X197846579Y-101220681D01*
X198351247Y-101632279D01*
X198766362Y-102134067D01*
X199076105Y-102706924D01*
X199268682Y-103329039D01*
X199325044Y-103865284D01*
X199324912Y-103865718D01*
X199315000Y-103966354D01*
X199315001Y-146033647D01*
X199324289Y-146127952D01*
X199273286Y-146648126D01*
X199085057Y-147271570D01*
X198779323Y-147846573D01*
X198367721Y-148351248D01*
X197865933Y-148766362D01*
X197293077Y-149076104D01*
X196670961Y-149268682D01*
X196134717Y-149325044D01*
X196134283Y-149324912D01*
X196033647Y-149315000D01*
X153966353Y-149315000D01*
X153872043Y-149324289D01*
X153351874Y-149273286D01*
X152728430Y-149085057D01*
X152153427Y-148779323D01*
X151648752Y-148367721D01*
X151233638Y-147865933D01*
X150923896Y-147293077D01*
X150731318Y-146670961D01*
X150674956Y-146134717D01*
X150675088Y-146134283D01*
X150685000Y-146033647D01*
X150685000Y-145356891D01*
X160538519Y-145356891D01*
X160635843Y-145631252D01*
X160784822Y-145881355D01*
X160979731Y-146097588D01*
X161213080Y-146271641D01*
X161475901Y-146396825D01*
X161623110Y-146441476D01*
X161853000Y-146320155D01*
X161853000Y-145127000D01*
X160659186Y-145127000D01*
X160538519Y-145356891D01*
X150685000Y-145356891D01*
X150685000Y-144643109D01*
X160538519Y-144643109D01*
X160659186Y-144873000D01*
X161853000Y-144873000D01*
X161853000Y-143679845D01*
X162107000Y-143679845D01*
X162107000Y-144873000D01*
X162127000Y-144873000D01*
X162127000Y-145127000D01*
X162107000Y-145127000D01*
X162107000Y-146320155D01*
X162336890Y-146441476D01*
X162484099Y-146396825D01*
X162746920Y-146271641D01*
X162980269Y-146097588D01*
X163175178Y-145881355D01*
X163244805Y-145764466D01*
X163366525Y-145946632D01*
X163573368Y-146153475D01*
X163816589Y-146315990D01*
X164086842Y-146427932D01*
X164373740Y-146485000D01*
X164666260Y-146485000D01*
X164953158Y-146427932D01*
X165223411Y-146315990D01*
X165466632Y-146153475D01*
X165673475Y-145946632D01*
X165790000Y-145772240D01*
X165906525Y-145946632D01*
X166113368Y-146153475D01*
X166356589Y-146315990D01*
X166626842Y-146427932D01*
X166913740Y-146485000D01*
X167206260Y-146485000D01*
X167493158Y-146427932D01*
X167763411Y-146315990D01*
X168006632Y-146153475D01*
X168213475Y-145946632D01*
X168330000Y-145772240D01*
X168446525Y-145946632D01*
X168653368Y-146153475D01*
X168896589Y-146315990D01*
X169166842Y-146427932D01*
X169453740Y-146485000D01*
X169746260Y-146485000D01*
X170033158Y-146427932D01*
X170303411Y-146315990D01*
X170546632Y-146153475D01*
X170753475Y-145946632D01*
X170870000Y-145772240D01*
X170986525Y-145946632D01*
X171193368Y-146153475D01*
X171436589Y-146315990D01*
X171706842Y-146427932D01*
X171993740Y-146485000D01*
X172286260Y-146485000D01*
X172573158Y-146427932D01*
X172843411Y-146315990D01*
X173086632Y-146153475D01*
X173293475Y-145946632D01*
X173410000Y-145772240D01*
X173526525Y-145946632D01*
X173733368Y-146153475D01*
X173976589Y-146315990D01*
X174246842Y-146427932D01*
X174533740Y-146485000D01*
X174826260Y-146485000D01*
X175113158Y-146427932D01*
X175383411Y-146315990D01*
X175626632Y-146153475D01*
X175833475Y-145946632D01*
X175950000Y-145772240D01*
X176066525Y-145946632D01*
X176273368Y-146153475D01*
X176516589Y-146315990D01*
X176786842Y-146427932D01*
X177073740Y-146485000D01*
X177366260Y-146485000D01*
X177653158Y-146427932D01*
X177923411Y-146315990D01*
X178166632Y-146153475D01*
X178373475Y-145946632D01*
X178490000Y-145772240D01*
X178606525Y-145946632D01*
X178813368Y-146153475D01*
X179056589Y-146315990D01*
X179326842Y-146427932D01*
X179613740Y-146485000D01*
X179906260Y-146485000D01*
X180193158Y-146427932D01*
X180463411Y-146315990D01*
X180706632Y-146153475D01*
X180913475Y-145946632D01*
X181030000Y-145772240D01*
X181146525Y-145946632D01*
X181353368Y-146153475D01*
X181596589Y-146315990D01*
X181866842Y-146427932D01*
X182153740Y-146485000D01*
X182446260Y-146485000D01*
X182733158Y-146427932D01*
X183003411Y-146315990D01*
X183246632Y-146153475D01*
X183453475Y-145946632D01*
X183570000Y-145772240D01*
X183686525Y-145946632D01*
X183893368Y-146153475D01*
X184136589Y-146315990D01*
X184406842Y-146427932D01*
X184693740Y-146485000D01*
X184986260Y-146485000D01*
X185273158Y-146427932D01*
X185543411Y-146315990D01*
X185786632Y-146153475D01*
X185993475Y-145946632D01*
X186110000Y-145772240D01*
X186226525Y-145946632D01*
X186433368Y-146153475D01*
X186676589Y-146315990D01*
X186946842Y-146427932D01*
X187233740Y-146485000D01*
X187526260Y-146485000D01*
X187813158Y-146427932D01*
X188083411Y-146315990D01*
X188326632Y-146153475D01*
X188533475Y-145946632D01*
X188650000Y-145772240D01*
X188766525Y-145946632D01*
X188973368Y-146153475D01*
X189216589Y-146315990D01*
X189486842Y-146427932D01*
X189773740Y-146485000D01*
X190066260Y-146485000D01*
X190353158Y-146427932D01*
X190623411Y-146315990D01*
X190866632Y-146153475D01*
X191073475Y-145946632D01*
X191195195Y-145764466D01*
X191264822Y-145881355D01*
X191459731Y-146097588D01*
X191693080Y-146271641D01*
X191955901Y-146396825D01*
X192103110Y-146441476D01*
X192333000Y-146320155D01*
X192333000Y-145127000D01*
X192313000Y-145127000D01*
X192313000Y-144873000D01*
X192333000Y-144873000D01*
X192333000Y-143679845D01*
X192587000Y-143679845D01*
X192587000Y-144873000D01*
X192607000Y-144873000D01*
X192607000Y-145127000D01*
X192587000Y-145127000D01*
X192587000Y-146320155D01*
X192816890Y-146441476D01*
X192964099Y-146396825D01*
X193226920Y-146271641D01*
X193460269Y-146097588D01*
X193536034Y-146013534D01*
X193560498Y-146094180D01*
X193619463Y-146204494D01*
X193698815Y-146301185D01*
X193795506Y-146380537D01*
X193905820Y-146439502D01*
X194025518Y-146475812D01*
X194150000Y-146488072D01*
X195850000Y-146488072D01*
X195974482Y-146475812D01*
X196094180Y-146439502D01*
X196204494Y-146380537D01*
X196301185Y-146301185D01*
X196380537Y-146204494D01*
X196439502Y-146094180D01*
X196475812Y-145974482D01*
X196488072Y-145850000D01*
X196488072Y-144150000D01*
X196475812Y-144025518D01*
X196439502Y-143905820D01*
X196380537Y-143795506D01*
X196301185Y-143698815D01*
X196204494Y-143619463D01*
X196094180Y-143560498D01*
X195974482Y-143524188D01*
X195850000Y-143511928D01*
X194150000Y-143511928D01*
X194025518Y-143524188D01*
X193905820Y-143560498D01*
X193795506Y-143619463D01*
X193698815Y-143698815D01*
X193619463Y-143795506D01*
X193560498Y-143905820D01*
X193536034Y-143986466D01*
X193460269Y-143902412D01*
X193226920Y-143728359D01*
X192964099Y-143603175D01*
X192816890Y-143558524D01*
X192587000Y-143679845D01*
X192333000Y-143679845D01*
X192103110Y-143558524D01*
X191955901Y-143603175D01*
X191693080Y-143728359D01*
X191459731Y-143902412D01*
X191264822Y-144118645D01*
X191195195Y-144235534D01*
X191073475Y-144053368D01*
X190866632Y-143846525D01*
X190623411Y-143684010D01*
X190353158Y-143572068D01*
X190066260Y-143515000D01*
X189773740Y-143515000D01*
X189486842Y-143572068D01*
X189216589Y-143684010D01*
X188973368Y-143846525D01*
X188766525Y-144053368D01*
X188650000Y-144227760D01*
X188533475Y-144053368D01*
X188326632Y-143846525D01*
X188083411Y-143684010D01*
X187813158Y-143572068D01*
X187526260Y-143515000D01*
X187233740Y-143515000D01*
X186946842Y-143572068D01*
X186676589Y-143684010D01*
X186433368Y-143846525D01*
X186226525Y-144053368D01*
X186110000Y-144227760D01*
X185993475Y-144053368D01*
X185786632Y-143846525D01*
X185543411Y-143684010D01*
X185273158Y-143572068D01*
X184986260Y-143515000D01*
X184693740Y-143515000D01*
X184406842Y-143572068D01*
X184136589Y-143684010D01*
X183893368Y-143846525D01*
X183686525Y-144053368D01*
X183570000Y-144227760D01*
X183453475Y-144053368D01*
X183246632Y-143846525D01*
X183003411Y-143684010D01*
X182733158Y-143572068D01*
X182446260Y-143515000D01*
X182153740Y-143515000D01*
X181866842Y-143572068D01*
X181596589Y-143684010D01*
X181353368Y-143846525D01*
X181146525Y-144053368D01*
X181030000Y-144227760D01*
X180913475Y-144053368D01*
X180706632Y-143846525D01*
X180463411Y-143684010D01*
X180193158Y-143572068D01*
X179906260Y-143515000D01*
X179613740Y-143515000D01*
X179326842Y-143572068D01*
X179056589Y-143684010D01*
X178813368Y-143846525D01*
X178606525Y-144053368D01*
X178490000Y-144227760D01*
X178373475Y-144053368D01*
X178166632Y-143846525D01*
X177923411Y-143684010D01*
X177653158Y-143572068D01*
X177366260Y-143515000D01*
X177073740Y-143515000D01*
X176786842Y-143572068D01*
X176516589Y-143684010D01*
X176273368Y-143846525D01*
X176066525Y-144053368D01*
X175950000Y-144227760D01*
X175833475Y-144053368D01*
X175626632Y-143846525D01*
X175383411Y-143684010D01*
X175113158Y-143572068D01*
X174826260Y-143515000D01*
X174533740Y-143515000D01*
X174246842Y-143572068D01*
X173976589Y-143684010D01*
X173733368Y-143846525D01*
X173526525Y-144053368D01*
X173410000Y-144227760D01*
X173293475Y-144053368D01*
X173086632Y-143846525D01*
X172843411Y-143684010D01*
X172573158Y-143572068D01*
X172286260Y-143515000D01*
X171993740Y-143515000D01*
X171706842Y-143572068D01*
X171436589Y-143684010D01*
X171193368Y-143846525D01*
X170986525Y-144053368D01*
X170870000Y-144227760D01*
X170753475Y-144053368D01*
X170546632Y-143846525D01*
X170303411Y-143684010D01*
X170033158Y-143572068D01*
X169746260Y-143515000D01*
X169453740Y-143515000D01*
X169166842Y-143572068D01*
X168896589Y-143684010D01*
X168653368Y-143846525D01*
X168446525Y-144053368D01*
X168330000Y-144227760D01*
X168213475Y-144053368D01*
X168006632Y-143846525D01*
X167763411Y-143684010D01*
X167493158Y-143572068D01*
X167206260Y-143515000D01*
X166913740Y-143515000D01*
X166626842Y-143572068D01*
X166356589Y-143684010D01*
X166113368Y-143846525D01*
X165906525Y-144053368D01*
X165790000Y-144227760D01*
X165673475Y-144053368D01*
X165466632Y-143846525D01*
X165223411Y-143684010D01*
X164953158Y-143572068D01*
X164666260Y-143515000D01*
X164373740Y-143515000D01*
X164086842Y-143572068D01*
X163816589Y-143684010D01*
X163573368Y-143846525D01*
X163366525Y-144053368D01*
X163244805Y-144235534D01*
X163175178Y-144118645D01*
X162980269Y-143902412D01*
X162746920Y-143728359D01*
X162484099Y-143603175D01*
X162336890Y-143558524D01*
X162107000Y-143679845D01*
X161853000Y-143679845D01*
X161623110Y-143558524D01*
X161475901Y-143603175D01*
X161213080Y-143728359D01*
X160979731Y-143902412D01*
X160784822Y-144118645D01*
X160635843Y-144368748D01*
X160538519Y-144643109D01*
X150685000Y-144643109D01*
X150685000Y-132348816D01*
X153465000Y-132348816D01*
X153465000Y-132651184D01*
X153523989Y-132947743D01*
X153639701Y-133227095D01*
X153807688Y-133478505D01*
X154021495Y-133692312D01*
X154107831Y-133750000D01*
X154021495Y-133807688D01*
X153807688Y-134021495D01*
X153639701Y-134272905D01*
X153523989Y-134552257D01*
X153465000Y-134848816D01*
X153465000Y-135151184D01*
X153523989Y-135447743D01*
X153639701Y-135727095D01*
X153807688Y-135978505D01*
X154021495Y-136192312D01*
X154240000Y-136338313D01*
X154240001Y-137687678D01*
X154236324Y-137725010D01*
X154250998Y-137873995D01*
X154294454Y-138017256D01*
X154365026Y-138149286D01*
X154436201Y-138236012D01*
X154460000Y-138265011D01*
X154488998Y-138288809D01*
X154739990Y-138539801D01*
X154739990Y-138601939D01*
X154779764Y-138801898D01*
X154857785Y-138990256D01*
X154971053Y-139159774D01*
X155115216Y-139303937D01*
X155284734Y-139417205D01*
X155473092Y-139495226D01*
X155673051Y-139535000D01*
X155876929Y-139535000D01*
X156076888Y-139495226D01*
X156265246Y-139417205D01*
X156434764Y-139303937D01*
X156578927Y-139159774D01*
X156692195Y-138990256D01*
X156770216Y-138801898D01*
X156809990Y-138601939D01*
X156809990Y-138398061D01*
X156770216Y-138198102D01*
X156692195Y-138009744D01*
X156578927Y-137840226D01*
X156434764Y-137696063D01*
X156265246Y-137582795D01*
X156076888Y-137504774D01*
X155876929Y-137465000D01*
X155814791Y-137465000D01*
X155760000Y-137410209D01*
X155760000Y-136640475D01*
X159365000Y-136640475D01*
X159365000Y-137159525D01*
X159466261Y-137668601D01*
X159664893Y-138148141D01*
X159953262Y-138579715D01*
X160320285Y-138946738D01*
X160751859Y-139235107D01*
X161231399Y-139433739D01*
X161740475Y-139535000D01*
X162259525Y-139535000D01*
X162768601Y-139433739D01*
X163248141Y-139235107D01*
X163679715Y-138946738D01*
X164046738Y-138579715D01*
X164335107Y-138148141D01*
X164533739Y-137668601D01*
X164635000Y-137159525D01*
X164635000Y-136640475D01*
X174365000Y-136640475D01*
X174365000Y-137159525D01*
X174466261Y-137668601D01*
X174664893Y-138148141D01*
X174953262Y-138579715D01*
X175320285Y-138946738D01*
X175751859Y-139235107D01*
X176231399Y-139433739D01*
X176740475Y-139535000D01*
X177259525Y-139535000D01*
X177768601Y-139433739D01*
X178248141Y-139235107D01*
X178679715Y-138946738D01*
X179046738Y-138579715D01*
X179335107Y-138148141D01*
X179533739Y-137668601D01*
X179635000Y-137159525D01*
X179635000Y-136640475D01*
X189365000Y-136640475D01*
X189365000Y-137159525D01*
X189466261Y-137668601D01*
X189664893Y-138148141D01*
X189953262Y-138579715D01*
X190320285Y-138946738D01*
X190751859Y-139235107D01*
X191231399Y-139433739D01*
X191740475Y-139535000D01*
X192259525Y-139535000D01*
X192768601Y-139433739D01*
X193248141Y-139235107D01*
X193679715Y-138946738D01*
X194046738Y-138579715D01*
X194335107Y-138148141D01*
X194533739Y-137668601D01*
X194635000Y-137159525D01*
X194635000Y-136640475D01*
X194533739Y-136131399D01*
X194335107Y-135651859D01*
X194046738Y-135220285D01*
X193679715Y-134853262D01*
X193248141Y-134564893D01*
X192768601Y-134366261D01*
X192259525Y-134265000D01*
X191740475Y-134265000D01*
X191231399Y-134366261D01*
X190751859Y-134564893D01*
X190320285Y-134853262D01*
X189953262Y-135220285D01*
X189664893Y-135651859D01*
X189466261Y-136131399D01*
X189365000Y-136640475D01*
X179635000Y-136640475D01*
X179533739Y-136131399D01*
X179335107Y-135651859D01*
X179046738Y-135220285D01*
X178679715Y-134853262D01*
X178248141Y-134564893D01*
X177768601Y-134366261D01*
X177259525Y-134265000D01*
X176740475Y-134265000D01*
X176231399Y-134366261D01*
X175751859Y-134564893D01*
X175320285Y-134853262D01*
X174953262Y-135220285D01*
X174664893Y-135651859D01*
X174466261Y-136131399D01*
X174365000Y-136640475D01*
X164635000Y-136640475D01*
X164533739Y-136131399D01*
X164335107Y-135651859D01*
X164046738Y-135220285D01*
X163679715Y-134853262D01*
X163248141Y-134564893D01*
X162768601Y-134366261D01*
X162259525Y-134265000D01*
X161740475Y-134265000D01*
X161231399Y-134366261D01*
X160751859Y-134564893D01*
X160320285Y-134853262D01*
X159953262Y-135220285D01*
X159664893Y-135651859D01*
X159466261Y-136131399D01*
X159365000Y-136640475D01*
X155760000Y-136640475D01*
X155760000Y-136338313D01*
X155978505Y-136192312D01*
X156192312Y-135978505D01*
X156360299Y-135727095D01*
X156476011Y-135447743D01*
X156535000Y-135151184D01*
X156535000Y-134848816D01*
X156476011Y-134552257D01*
X156360299Y-134272905D01*
X156192312Y-134021495D01*
X155978505Y-133807688D01*
X155892169Y-133750000D01*
X155978505Y-133692312D01*
X156192312Y-133478505D01*
X156360299Y-133227095D01*
X156476011Y-132947743D01*
X156535000Y-132651184D01*
X156535000Y-132348816D01*
X168465000Y-132348816D01*
X168465000Y-132651184D01*
X168523989Y-132947743D01*
X168639701Y-133227095D01*
X168807688Y-133478505D01*
X169021495Y-133692312D01*
X169107831Y-133750000D01*
X169021495Y-133807688D01*
X168807688Y-134021495D01*
X168639701Y-134272905D01*
X168523989Y-134552257D01*
X168465000Y-134848816D01*
X168465000Y-135151184D01*
X168523989Y-135447743D01*
X168639701Y-135727095D01*
X168807688Y-135978505D01*
X169021495Y-136192312D01*
X169272905Y-136360299D01*
X169552257Y-136476011D01*
X169848816Y-136535000D01*
X170151184Y-136535000D01*
X170447743Y-136476011D01*
X170727095Y-136360299D01*
X170978505Y-136192312D01*
X171192312Y-135978505D01*
X171360299Y-135727095D01*
X171476011Y-135447743D01*
X171535000Y-135151184D01*
X171535000Y-134848816D01*
X171476011Y-134552257D01*
X171360299Y-134272905D01*
X171192312Y-134021495D01*
X170978505Y-133807688D01*
X170892169Y-133750000D01*
X170978505Y-133692312D01*
X171192312Y-133478505D01*
X171360299Y-133227095D01*
X171476011Y-132947743D01*
X171535000Y-132651184D01*
X171535000Y-132348816D01*
X183465000Y-132348816D01*
X183465000Y-132651184D01*
X183523989Y-132947743D01*
X183639701Y-133227095D01*
X183807688Y-133478505D01*
X184021495Y-133692312D01*
X184107831Y-133750000D01*
X184021495Y-133807688D01*
X183807688Y-134021495D01*
X183639701Y-134272905D01*
X183523989Y-134552257D01*
X183465000Y-134848816D01*
X183465000Y-135151184D01*
X183523989Y-135447743D01*
X183639701Y-135727095D01*
X183807688Y-135978505D01*
X184021495Y-136192312D01*
X184272905Y-136360299D01*
X184552257Y-136476011D01*
X184848816Y-136535000D01*
X185151184Y-136535000D01*
X185447743Y-136476011D01*
X185727095Y-136360299D01*
X185978505Y-136192312D01*
X186192312Y-135978505D01*
X186360299Y-135727095D01*
X186476011Y-135447743D01*
X186535000Y-135151184D01*
X186535000Y-134848816D01*
X186476011Y-134552257D01*
X186360299Y-134272905D01*
X186192312Y-134021495D01*
X185978505Y-133807688D01*
X185892169Y-133750000D01*
X185978505Y-133692312D01*
X186192312Y-133478505D01*
X186360299Y-133227095D01*
X186476011Y-132947743D01*
X186535000Y-132651184D01*
X186535000Y-132348816D01*
X186476011Y-132052257D01*
X186360299Y-131772905D01*
X186192312Y-131521495D01*
X185978505Y-131307688D01*
X185835690Y-131212262D01*
X185884475Y-131064080D01*
X185000000Y-130179605D01*
X184115525Y-131064080D01*
X184164310Y-131212262D01*
X184021495Y-131307688D01*
X183807688Y-131521495D01*
X183639701Y-131772905D01*
X183523989Y-132052257D01*
X183465000Y-132348816D01*
X171535000Y-132348816D01*
X171476011Y-132052257D01*
X171360299Y-131772905D01*
X171192312Y-131521495D01*
X170978505Y-131307688D01*
X170835690Y-131212262D01*
X170884475Y-131064080D01*
X170000000Y-130179605D01*
X169115525Y-131064080D01*
X169164310Y-131212262D01*
X169021495Y-131307688D01*
X168807688Y-131521495D01*
X168639701Y-131772905D01*
X168523989Y-132052257D01*
X168465000Y-132348816D01*
X156535000Y-132348816D01*
X156476011Y-132052257D01*
X156360299Y-131772905D01*
X156192312Y-131521495D01*
X155978505Y-131307688D01*
X155835690Y-131212262D01*
X155884475Y-131064080D01*
X155000000Y-130179605D01*
X154115525Y-131064080D01*
X154164310Y-131212262D01*
X154021495Y-131307688D01*
X153807688Y-131521495D01*
X153639701Y-131772905D01*
X153523989Y-132052257D01*
X153465000Y-132348816D01*
X150685000Y-132348816D01*
X150685000Y-130066553D01*
X153459009Y-130066553D01*
X153501603Y-130365907D01*
X153601778Y-130651199D01*
X153681739Y-130800792D01*
X153935920Y-130884475D01*
X154820395Y-130000000D01*
X155179605Y-130000000D01*
X156064080Y-130884475D01*
X156318261Y-130800792D01*
X156449158Y-130528225D01*
X156524365Y-130235358D01*
X156540991Y-129933447D01*
X156498397Y-129634093D01*
X156398222Y-129348801D01*
X156318261Y-129199208D01*
X156064080Y-129115525D01*
X155179605Y-130000000D01*
X154820395Y-130000000D01*
X153935920Y-129115525D01*
X153681739Y-129199208D01*
X153550842Y-129471775D01*
X153475635Y-129764642D01*
X153459009Y-130066553D01*
X150685000Y-130066553D01*
X150685000Y-128935920D01*
X154115525Y-128935920D01*
X155000000Y-129820395D01*
X155884475Y-128935920D01*
X155800792Y-128681739D01*
X155528225Y-128550842D01*
X155235358Y-128475635D01*
X154933447Y-128459009D01*
X154634093Y-128501603D01*
X154348801Y-128601778D01*
X154199208Y-128681739D01*
X154115525Y-128935920D01*
X150685000Y-128935920D01*
X150685000Y-127840475D01*
X159365000Y-127840475D01*
X159365000Y-128359525D01*
X159466261Y-128868601D01*
X159664893Y-129348141D01*
X159953262Y-129779715D01*
X160320285Y-130146738D01*
X160751859Y-130435107D01*
X161231399Y-130633739D01*
X161740475Y-130735000D01*
X162259525Y-130735000D01*
X162768601Y-130633739D01*
X163248141Y-130435107D01*
X163679715Y-130146738D01*
X163759900Y-130066553D01*
X168459009Y-130066553D01*
X168501603Y-130365907D01*
X168601778Y-130651199D01*
X168681739Y-130800792D01*
X168935920Y-130884475D01*
X169820395Y-130000000D01*
X170179605Y-130000000D01*
X171064080Y-130884475D01*
X171318261Y-130800792D01*
X171449158Y-130528225D01*
X171524365Y-130235358D01*
X171540991Y-129933447D01*
X171498397Y-129634093D01*
X171398222Y-129348801D01*
X171318261Y-129199208D01*
X171064080Y-129115525D01*
X170179605Y-130000000D01*
X169820395Y-130000000D01*
X168935920Y-129115525D01*
X168681739Y-129199208D01*
X168550842Y-129471775D01*
X168475635Y-129764642D01*
X168459009Y-130066553D01*
X163759900Y-130066553D01*
X164046738Y-129779715D01*
X164335107Y-129348141D01*
X164505854Y-128935920D01*
X169115525Y-128935920D01*
X170000000Y-129820395D01*
X170884475Y-128935920D01*
X170800792Y-128681739D01*
X170528225Y-128550842D01*
X170235358Y-128475635D01*
X169933447Y-128459009D01*
X169634093Y-128501603D01*
X169348801Y-128601778D01*
X169199208Y-128681739D01*
X169115525Y-128935920D01*
X164505854Y-128935920D01*
X164533739Y-128868601D01*
X164635000Y-128359525D01*
X164635000Y-127840475D01*
X174365000Y-127840475D01*
X174365000Y-128359525D01*
X174466261Y-128868601D01*
X174664893Y-129348141D01*
X174953262Y-129779715D01*
X175320285Y-130146738D01*
X175751859Y-130435107D01*
X176231399Y-130633739D01*
X176740475Y-130735000D01*
X177259525Y-130735000D01*
X177768601Y-130633739D01*
X178248141Y-130435107D01*
X178679715Y-130146738D01*
X178759900Y-130066553D01*
X183459009Y-130066553D01*
X183501603Y-130365907D01*
X183601778Y-130651199D01*
X183681739Y-130800792D01*
X183935920Y-130884475D01*
X184820395Y-130000000D01*
X185179605Y-130000000D01*
X186064080Y-130884475D01*
X186318261Y-130800792D01*
X186449158Y-130528225D01*
X186524365Y-130235358D01*
X186540991Y-129933447D01*
X186498397Y-129634093D01*
X186398222Y-129348801D01*
X186318261Y-129199208D01*
X186064080Y-129115525D01*
X185179605Y-130000000D01*
X184820395Y-130000000D01*
X183935920Y-129115525D01*
X183681739Y-129199208D01*
X183550842Y-129471775D01*
X183475635Y-129764642D01*
X183459009Y-130066553D01*
X178759900Y-130066553D01*
X179046738Y-129779715D01*
X179335107Y-129348141D01*
X179505854Y-128935920D01*
X184115525Y-128935920D01*
X185000000Y-129820395D01*
X185884475Y-128935920D01*
X185800792Y-128681739D01*
X185528225Y-128550842D01*
X185235358Y-128475635D01*
X184933447Y-128459009D01*
X184634093Y-128501603D01*
X184348801Y-128601778D01*
X184199208Y-128681739D01*
X184115525Y-128935920D01*
X179505854Y-128935920D01*
X179533739Y-128868601D01*
X179635000Y-128359525D01*
X179635000Y-127840475D01*
X189365000Y-127840475D01*
X189365000Y-128359525D01*
X189466261Y-128868601D01*
X189664893Y-129348141D01*
X189953262Y-129779715D01*
X190320285Y-130146738D01*
X190751859Y-130435107D01*
X191231399Y-130633739D01*
X191740475Y-130735000D01*
X192259525Y-130735000D01*
X192768601Y-130633739D01*
X193248141Y-130435107D01*
X193679715Y-130146738D01*
X194046738Y-129779715D01*
X194335107Y-129348141D01*
X194533739Y-128868601D01*
X194635000Y-128359525D01*
X194635000Y-127840475D01*
X194533739Y-127331399D01*
X194335107Y-126851859D01*
X194046738Y-126420285D01*
X193679715Y-126053262D01*
X193248141Y-125764893D01*
X192768601Y-125566261D01*
X192259525Y-125465000D01*
X191740475Y-125465000D01*
X191231399Y-125566261D01*
X190751859Y-125764893D01*
X190320285Y-126053262D01*
X189953262Y-126420285D01*
X189664893Y-126851859D01*
X189466261Y-127331399D01*
X189365000Y-127840475D01*
X179635000Y-127840475D01*
X179533739Y-127331399D01*
X179335107Y-126851859D01*
X179046738Y-126420285D01*
X178679715Y-126053262D01*
X178248141Y-125764893D01*
X177768601Y-125566261D01*
X177259525Y-125465000D01*
X176740475Y-125465000D01*
X176231399Y-125566261D01*
X175751859Y-125764893D01*
X175320285Y-126053262D01*
X174953262Y-126420285D01*
X174664893Y-126851859D01*
X174466261Y-127331399D01*
X174365000Y-127840475D01*
X164635000Y-127840475D01*
X164533739Y-127331399D01*
X164335107Y-126851859D01*
X164046738Y-126420285D01*
X163679715Y-126053262D01*
X163248141Y-125764893D01*
X162768601Y-125566261D01*
X162259525Y-125465000D01*
X161740475Y-125465000D01*
X161231399Y-125566261D01*
X160751859Y-125764893D01*
X160320285Y-126053262D01*
X159953262Y-126420285D01*
X159664893Y-126851859D01*
X159466261Y-127331399D01*
X159365000Y-127840475D01*
X150685000Y-127840475D01*
X150685000Y-117700881D01*
X152478724Y-117700881D01*
X152838912Y-118190548D01*
X153502882Y-118550849D01*
X154224385Y-118774694D01*
X154975695Y-118853480D01*
X155727938Y-118784178D01*
X156452208Y-118569452D01*
X157120670Y-118217555D01*
X157161088Y-118190548D01*
X157521276Y-117700881D01*
X192478724Y-117700881D01*
X192838912Y-118190548D01*
X193502882Y-118550849D01*
X194224385Y-118774694D01*
X194975695Y-118853480D01*
X195727938Y-118784178D01*
X196452208Y-118569452D01*
X197120670Y-118217555D01*
X197161088Y-118190548D01*
X197521276Y-117700881D01*
X195000000Y-115179605D01*
X192478724Y-117700881D01*
X157521276Y-117700881D01*
X155000000Y-115179605D01*
X152478724Y-117700881D01*
X150685000Y-117700881D01*
X150685000Y-114975695D01*
X151146520Y-114975695D01*
X151215822Y-115727938D01*
X151430548Y-116452208D01*
X151782445Y-117120670D01*
X151809452Y-117161088D01*
X152299119Y-117521276D01*
X154820395Y-115000000D01*
X155179605Y-115000000D01*
X157700881Y-117521276D01*
X158190548Y-117161088D01*
X158550849Y-116497118D01*
X158774694Y-115775615D01*
X158853480Y-115024305D01*
X158849002Y-114975695D01*
X191146520Y-114975695D01*
X191215822Y-115727938D01*
X191430548Y-116452208D01*
X191782445Y-117120670D01*
X191809452Y-117161088D01*
X192299119Y-117521276D01*
X194820395Y-115000000D01*
X195179605Y-115000000D01*
X197700881Y-117521276D01*
X198190548Y-117161088D01*
X198550849Y-116497118D01*
X198774694Y-115775615D01*
X198853480Y-115024305D01*
X198784178Y-114272062D01*
X198569452Y-113547792D01*
X198217555Y-112879330D01*
X198190548Y-112838912D01*
X197700881Y-112478724D01*
X195179605Y-115000000D01*
X194820395Y-115000000D01*
X192299119Y-112478724D01*
X191809452Y-112838912D01*
X191449151Y-113502882D01*
X191225306Y-114224385D01*
X191146520Y-114975695D01*
X158849002Y-114975695D01*
X158784178Y-114272062D01*
X158569452Y-113547792D01*
X158217555Y-112879330D01*
X158190548Y-112838912D01*
X157700881Y-112478724D01*
X155179605Y-115000000D01*
X154820395Y-115000000D01*
X152299119Y-112478724D01*
X151809452Y-112838912D01*
X151449151Y-113502882D01*
X151225306Y-114224385D01*
X151146520Y-114975695D01*
X150685000Y-114975695D01*
X150685000Y-112299119D01*
X152478724Y-112299119D01*
X155000000Y-114820395D01*
X157521276Y-112299119D01*
X192478724Y-112299119D01*
X195000000Y-114820395D01*
X197521276Y-112299119D01*
X197161088Y-111809452D01*
X196497118Y-111449151D01*
X195775615Y-111225306D01*
X195024305Y-111146520D01*
X194272062Y-111215822D01*
X193547792Y-111430548D01*
X192879330Y-111782445D01*
X192838912Y-111809452D01*
X192478724Y-112299119D01*
X157521276Y-112299119D01*
X157161088Y-111809452D01*
X156497118Y-111449151D01*
X155775615Y-111225306D01*
X155024305Y-111146520D01*
X154272062Y-111215822D01*
X153547792Y-111430548D01*
X152879330Y-111782445D01*
X152838912Y-111809452D01*
X152478724Y-112299119D01*
X150685000Y-112299119D01*
X150685000Y-104356891D01*
X160538519Y-104356891D01*
X160635843Y-104631252D01*
X160784822Y-104881355D01*
X160979731Y-105097588D01*
X161213080Y-105271641D01*
X161475901Y-105396825D01*
X161623110Y-105441476D01*
X161853000Y-105320155D01*
X161853000Y-104127000D01*
X160659186Y-104127000D01*
X160538519Y-104356891D01*
X150685000Y-104356891D01*
X150685000Y-103966353D01*
X150675711Y-103872043D01*
X150698158Y-103643109D01*
X160538519Y-103643109D01*
X160659186Y-103873000D01*
X161853000Y-103873000D01*
X161853000Y-102679845D01*
X162107000Y-102679845D01*
X162107000Y-103873000D01*
X162127000Y-103873000D01*
X162127000Y-104127000D01*
X162107000Y-104127000D01*
X162107000Y-105320155D01*
X162336890Y-105441476D01*
X162484099Y-105396825D01*
X162746920Y-105271641D01*
X162980269Y-105097588D01*
X163175178Y-104881355D01*
X163244805Y-104764466D01*
X163366525Y-104946632D01*
X163573368Y-105153475D01*
X163816589Y-105315990D01*
X164086842Y-105427932D01*
X164373740Y-105485000D01*
X164666260Y-105485000D01*
X164953158Y-105427932D01*
X165223411Y-105315990D01*
X165466632Y-105153475D01*
X165673475Y-104946632D01*
X165790000Y-104772240D01*
X165906525Y-104946632D01*
X166113368Y-105153475D01*
X166356589Y-105315990D01*
X166626842Y-105427932D01*
X166913740Y-105485000D01*
X167206260Y-105485000D01*
X167493158Y-105427932D01*
X167763411Y-105315990D01*
X168006632Y-105153475D01*
X168213475Y-104946632D01*
X168330000Y-104772240D01*
X168446525Y-104946632D01*
X168653368Y-105153475D01*
X168896589Y-105315990D01*
X169166842Y-105427932D01*
X169453740Y-105485000D01*
X169746260Y-105485000D01*
X170033158Y-105427932D01*
X170303411Y-105315990D01*
X170546632Y-105153475D01*
X170753475Y-104946632D01*
X170870000Y-104772240D01*
X170986525Y-104946632D01*
X171193368Y-105153475D01*
X171436589Y-105315990D01*
X171706842Y-105427932D01*
X171993740Y-105485000D01*
X172286260Y-105485000D01*
X172573158Y-105427932D01*
X172843411Y-105315990D01*
X173086632Y-105153475D01*
X173293475Y-104946632D01*
X173410000Y-104772240D01*
X173526525Y-104946632D01*
X173733368Y-105153475D01*
X173976589Y-105315990D01*
X174246842Y-105427932D01*
X174533740Y-105485000D01*
X174826260Y-105485000D01*
X175113158Y-105427932D01*
X175383411Y-105315990D01*
X175626632Y-105153475D01*
X175833475Y-104946632D01*
X175950000Y-104772240D01*
X176066525Y-104946632D01*
X176273368Y-105153475D01*
X176516589Y-105315990D01*
X176786842Y-105427932D01*
X177073740Y-105485000D01*
X177366260Y-105485000D01*
X177653158Y-105427932D01*
X177923411Y-105315990D01*
X178166632Y-105153475D01*
X178373475Y-104946632D01*
X178490000Y-104772240D01*
X178606525Y-104946632D01*
X178813368Y-105153475D01*
X179056589Y-105315990D01*
X179326842Y-105427932D01*
X179613740Y-105485000D01*
X179906260Y-105485000D01*
X180193158Y-105427932D01*
X180463411Y-105315990D01*
X180706632Y-105153475D01*
X180913475Y-104946632D01*
X181030000Y-104772240D01*
X181146525Y-104946632D01*
X181353368Y-105153475D01*
X181596589Y-105315990D01*
X181866842Y-105427932D01*
X182153740Y-105485000D01*
X182446260Y-105485000D01*
X182733158Y-105427932D01*
X183003411Y-105315990D01*
X183246632Y-105153475D01*
X183453475Y-104946632D01*
X183570000Y-104772240D01*
X183686525Y-104946632D01*
X183893368Y-105153475D01*
X184136589Y-105315990D01*
X184406842Y-105427932D01*
X184693740Y-105485000D01*
X184986260Y-105485000D01*
X185273158Y-105427932D01*
X185543411Y-105315990D01*
X185786632Y-105153475D01*
X185993475Y-104946632D01*
X186110000Y-104772240D01*
X186226525Y-104946632D01*
X186433368Y-105153475D01*
X186676589Y-105315990D01*
X186946842Y-105427932D01*
X187233740Y-105485000D01*
X187526260Y-105485000D01*
X187813158Y-105427932D01*
X188083411Y-105315990D01*
X188326632Y-105153475D01*
X188533475Y-104946632D01*
X188650000Y-104772240D01*
X188766525Y-104946632D01*
X188973368Y-105153475D01*
X189216589Y-105315990D01*
X189486842Y-105427932D01*
X189773740Y-105485000D01*
X190066260Y-105485000D01*
X190353158Y-105427932D01*
X190623411Y-105315990D01*
X190866632Y-105153475D01*
X191073475Y-104946632D01*
X191195195Y-104764466D01*
X191264822Y-104881355D01*
X191459731Y-105097588D01*
X191693080Y-105271641D01*
X191955901Y-105396825D01*
X192103110Y-105441476D01*
X192333000Y-105320155D01*
X192333000Y-104127000D01*
X192313000Y-104127000D01*
X192313000Y-103873000D01*
X192333000Y-103873000D01*
X192333000Y-102679845D01*
X192587000Y-102679845D01*
X192587000Y-103873000D01*
X192607000Y-103873000D01*
X192607000Y-104127000D01*
X192587000Y-104127000D01*
X192587000Y-105320155D01*
X192816890Y-105441476D01*
X192964099Y-105396825D01*
X193226920Y-105271641D01*
X193460269Y-105097588D01*
X193536034Y-105013534D01*
X193560498Y-105094180D01*
X193619463Y-105204494D01*
X193698815Y-105301185D01*
X193795506Y-105380537D01*
X193905820Y-105439502D01*
X194025518Y-105475812D01*
X194150000Y-105488072D01*
X195850000Y-105488072D01*
X195974482Y-105475812D01*
X196094180Y-105439502D01*
X196204494Y-105380537D01*
X196301185Y-105301185D01*
X196380537Y-105204494D01*
X196439502Y-105094180D01*
X196475812Y-104974482D01*
X196488072Y-104850000D01*
X196488072Y-103150000D01*
X196475812Y-103025518D01*
X196439502Y-102905820D01*
X196380537Y-102795506D01*
X196301185Y-102698815D01*
X196204494Y-102619463D01*
X196094180Y-102560498D01*
X195974482Y-102524188D01*
X195850000Y-102511928D01*
X194150000Y-102511928D01*
X194025518Y-102524188D01*
X193905820Y-102560498D01*
X193795506Y-102619463D01*
X193698815Y-102698815D01*
X193619463Y-102795506D01*
X193560498Y-102905820D01*
X193536034Y-102986466D01*
X193460269Y-102902412D01*
X193226920Y-102728359D01*
X192964099Y-102603175D01*
X192816890Y-102558524D01*
X192587000Y-102679845D01*
X192333000Y-102679845D01*
X192103110Y-102558524D01*
X191955901Y-102603175D01*
X191693080Y-102728359D01*
X191459731Y-102902412D01*
X191264822Y-103118645D01*
X191195195Y-103235534D01*
X191073475Y-103053368D01*
X190866632Y-102846525D01*
X190623411Y-102684010D01*
X190353158Y-102572068D01*
X190066260Y-102515000D01*
X189773740Y-102515000D01*
X189486842Y-102572068D01*
X189216589Y-102684010D01*
X188973368Y-102846525D01*
X188766525Y-103053368D01*
X188650000Y-103227760D01*
X188533475Y-103053368D01*
X188326632Y-102846525D01*
X188083411Y-102684010D01*
X187813158Y-102572068D01*
X187526260Y-102515000D01*
X187233740Y-102515000D01*
X186946842Y-102572068D01*
X186676589Y-102684010D01*
X186433368Y-102846525D01*
X186226525Y-103053368D01*
X186110000Y-103227760D01*
X185993475Y-103053368D01*
X185786632Y-102846525D01*
X185543411Y-102684010D01*
X185273158Y-102572068D01*
X184986260Y-102515000D01*
X184693740Y-102515000D01*
X184406842Y-102572068D01*
X184136589Y-102684010D01*
X183893368Y-102846525D01*
X183686525Y-103053368D01*
X183570000Y-103227760D01*
X183453475Y-103053368D01*
X183246632Y-102846525D01*
X183003411Y-102684010D01*
X182733158Y-102572068D01*
X182446260Y-102515000D01*
X182153740Y-102515000D01*
X181866842Y-102572068D01*
X181596589Y-102684010D01*
X181353368Y-102846525D01*
X181146525Y-103053368D01*
X181030000Y-103227760D01*
X180913475Y-103053368D01*
X180706632Y-102846525D01*
X180463411Y-102684010D01*
X180193158Y-102572068D01*
X179906260Y-102515000D01*
X179613740Y-102515000D01*
X179326842Y-102572068D01*
X179056589Y-102684010D01*
X178813368Y-102846525D01*
X178606525Y-103053368D01*
X178490000Y-103227760D01*
X178373475Y-103053368D01*
X178166632Y-102846525D01*
X177923411Y-102684010D01*
X177653158Y-102572068D01*
X177366260Y-102515000D01*
X177073740Y-102515000D01*
X176786842Y-102572068D01*
X176516589Y-102684010D01*
X176273368Y-102846525D01*
X176066525Y-103053368D01*
X175950000Y-103227760D01*
X175833475Y-103053368D01*
X175626632Y-102846525D01*
X175383411Y-102684010D01*
X175113158Y-102572068D01*
X174826260Y-102515000D01*
X174533740Y-102515000D01*
X174246842Y-102572068D01*
X173976589Y-102684010D01*
X173733368Y-102846525D01*
X173526525Y-103053368D01*
X173410000Y-103227760D01*
X173293475Y-103053368D01*
X173086632Y-102846525D01*
X172843411Y-102684010D01*
X172573158Y-102572068D01*
X172286260Y-102515000D01*
X171993740Y-102515000D01*
X171706842Y-102572068D01*
X171436589Y-102684010D01*
X171193368Y-102846525D01*
X170986525Y-103053368D01*
X170870000Y-103227760D01*
X170753475Y-103053368D01*
X170546632Y-102846525D01*
X170303411Y-102684010D01*
X170033158Y-102572068D01*
X169746260Y-102515000D01*
X169453740Y-102515000D01*
X169166842Y-102572068D01*
X168896589Y-102684010D01*
X168653368Y-102846525D01*
X168446525Y-103053368D01*
X168330000Y-103227760D01*
X168213475Y-103053368D01*
X168006632Y-102846525D01*
X167763411Y-102684010D01*
X167493158Y-102572068D01*
X167206260Y-102515000D01*
X166913740Y-102515000D01*
X166626842Y-102572068D01*
X166356589Y-102684010D01*
X166113368Y-102846525D01*
X165906525Y-103053368D01*
X165790000Y-103227760D01*
X165673475Y-103053368D01*
X165466632Y-102846525D01*
X165223411Y-102684010D01*
X164953158Y-102572068D01*
X164666260Y-102515000D01*
X164373740Y-102515000D01*
X164086842Y-102572068D01*
X163816589Y-102684010D01*
X163573368Y-102846525D01*
X163366525Y-103053368D01*
X163244805Y-103235534D01*
X163175178Y-103118645D01*
X162980269Y-102902412D01*
X162746920Y-102728359D01*
X162484099Y-102603175D01*
X162336890Y-102558524D01*
X162107000Y-102679845D01*
X161853000Y-102679845D01*
X161623110Y-102558524D01*
X161475901Y-102603175D01*
X161213080Y-102728359D01*
X160979731Y-102902412D01*
X160784822Y-103118645D01*
X160635843Y-103368748D01*
X160538519Y-103643109D01*
X150698158Y-103643109D01*
X150726714Y-103351874D01*
X150914943Y-102728428D01*
X151220681Y-102153421D01*
X151632279Y-101648753D01*
X152134067Y-101233638D01*
X152706924Y-100923895D01*
X153329039Y-100731318D01*
X153865283Y-100674956D01*
X153865717Y-100675088D01*
M02*
