G04 #@! TF.GenerationSoftware,KiCad,Pcbnew,5.1.5*
G04 #@! TF.CreationDate,2020-01-13T20:50:12-05:00*
G04 #@! TF.ProjectId,inputs_addon,696e7075-7473-45f6-9164-646f6e2e6b69,0*
G04 #@! TF.SameCoordinates,Original*
G04 #@! TF.FileFunction,Paste,Top*
G04 #@! TF.FilePolarity,Positive*
%FSLAX46Y46*%
G04 Gerber Fmt 4.6, Leading zero omitted, Abs format (unit mm)*
G04 Created by KiCad (PCBNEW 5.1.5) date 2020-01-13 20:50:12*
%MOMM*%
%LPD*%
G04 APERTURE LIST*
%ADD10R,1.550000X1.300000*%
%ADD11C,0.100000*%
G04 APERTURE END LIST*
D10*
X186975000Y-117250000D03*
X179025000Y-117250000D03*
X186975000Y-112750000D03*
X179025000Y-112750000D03*
X171975000Y-117250000D03*
X164025000Y-117250000D03*
X171975000Y-112750000D03*
X164025000Y-112750000D03*
D11*
G36*
X178952691Y-120526053D02*
G01*
X178973926Y-120529203D01*
X178994750Y-120534419D01*
X179014962Y-120541651D01*
X179034368Y-120550830D01*
X179052781Y-120561866D01*
X179070024Y-120574654D01*
X179085930Y-120589070D01*
X179100346Y-120604976D01*
X179113134Y-120622219D01*
X179124170Y-120640632D01*
X179133349Y-120660038D01*
X179140581Y-120680250D01*
X179145797Y-120701074D01*
X179148947Y-120722309D01*
X179150000Y-120743750D01*
X179150000Y-121256250D01*
X179148947Y-121277691D01*
X179145797Y-121298926D01*
X179140581Y-121319750D01*
X179133349Y-121339962D01*
X179124170Y-121359368D01*
X179113134Y-121377781D01*
X179100346Y-121395024D01*
X179085930Y-121410930D01*
X179070024Y-121425346D01*
X179052781Y-121438134D01*
X179034368Y-121449170D01*
X179014962Y-121458349D01*
X178994750Y-121465581D01*
X178973926Y-121470797D01*
X178952691Y-121473947D01*
X178931250Y-121475000D01*
X178493750Y-121475000D01*
X178472309Y-121473947D01*
X178451074Y-121470797D01*
X178430250Y-121465581D01*
X178410038Y-121458349D01*
X178390632Y-121449170D01*
X178372219Y-121438134D01*
X178354976Y-121425346D01*
X178339070Y-121410930D01*
X178324654Y-121395024D01*
X178311866Y-121377781D01*
X178300830Y-121359368D01*
X178291651Y-121339962D01*
X178284419Y-121319750D01*
X178279203Y-121298926D01*
X178276053Y-121277691D01*
X178275000Y-121256250D01*
X178275000Y-120743750D01*
X178276053Y-120722309D01*
X178279203Y-120701074D01*
X178284419Y-120680250D01*
X178291651Y-120660038D01*
X178300830Y-120640632D01*
X178311866Y-120622219D01*
X178324654Y-120604976D01*
X178339070Y-120589070D01*
X178354976Y-120574654D01*
X178372219Y-120561866D01*
X178390632Y-120550830D01*
X178410038Y-120541651D01*
X178430250Y-120534419D01*
X178451074Y-120529203D01*
X178472309Y-120526053D01*
X178493750Y-120525000D01*
X178931250Y-120525000D01*
X178952691Y-120526053D01*
G37*
G36*
X180527691Y-120526053D02*
G01*
X180548926Y-120529203D01*
X180569750Y-120534419D01*
X180589962Y-120541651D01*
X180609368Y-120550830D01*
X180627781Y-120561866D01*
X180645024Y-120574654D01*
X180660930Y-120589070D01*
X180675346Y-120604976D01*
X180688134Y-120622219D01*
X180699170Y-120640632D01*
X180708349Y-120660038D01*
X180715581Y-120680250D01*
X180720797Y-120701074D01*
X180723947Y-120722309D01*
X180725000Y-120743750D01*
X180725000Y-121256250D01*
X180723947Y-121277691D01*
X180720797Y-121298926D01*
X180715581Y-121319750D01*
X180708349Y-121339962D01*
X180699170Y-121359368D01*
X180688134Y-121377781D01*
X180675346Y-121395024D01*
X180660930Y-121410930D01*
X180645024Y-121425346D01*
X180627781Y-121438134D01*
X180609368Y-121449170D01*
X180589962Y-121458349D01*
X180569750Y-121465581D01*
X180548926Y-121470797D01*
X180527691Y-121473947D01*
X180506250Y-121475000D01*
X180068750Y-121475000D01*
X180047309Y-121473947D01*
X180026074Y-121470797D01*
X180005250Y-121465581D01*
X179985038Y-121458349D01*
X179965632Y-121449170D01*
X179947219Y-121438134D01*
X179929976Y-121425346D01*
X179914070Y-121410930D01*
X179899654Y-121395024D01*
X179886866Y-121377781D01*
X179875830Y-121359368D01*
X179866651Y-121339962D01*
X179859419Y-121319750D01*
X179854203Y-121298926D01*
X179851053Y-121277691D01*
X179850000Y-121256250D01*
X179850000Y-120743750D01*
X179851053Y-120722309D01*
X179854203Y-120701074D01*
X179859419Y-120680250D01*
X179866651Y-120660038D01*
X179875830Y-120640632D01*
X179886866Y-120622219D01*
X179899654Y-120604976D01*
X179914070Y-120589070D01*
X179929976Y-120574654D01*
X179947219Y-120561866D01*
X179965632Y-120550830D01*
X179985038Y-120541651D01*
X180005250Y-120534419D01*
X180026074Y-120529203D01*
X180047309Y-120526053D01*
X180068750Y-120525000D01*
X180506250Y-120525000D01*
X180527691Y-120526053D01*
G37*
G36*
X180527691Y-119026053D02*
G01*
X180548926Y-119029203D01*
X180569750Y-119034419D01*
X180589962Y-119041651D01*
X180609368Y-119050830D01*
X180627781Y-119061866D01*
X180645024Y-119074654D01*
X180660930Y-119089070D01*
X180675346Y-119104976D01*
X180688134Y-119122219D01*
X180699170Y-119140632D01*
X180708349Y-119160038D01*
X180715581Y-119180250D01*
X180720797Y-119201074D01*
X180723947Y-119222309D01*
X180725000Y-119243750D01*
X180725000Y-119756250D01*
X180723947Y-119777691D01*
X180720797Y-119798926D01*
X180715581Y-119819750D01*
X180708349Y-119839962D01*
X180699170Y-119859368D01*
X180688134Y-119877781D01*
X180675346Y-119895024D01*
X180660930Y-119910930D01*
X180645024Y-119925346D01*
X180627781Y-119938134D01*
X180609368Y-119949170D01*
X180589962Y-119958349D01*
X180569750Y-119965581D01*
X180548926Y-119970797D01*
X180527691Y-119973947D01*
X180506250Y-119975000D01*
X180068750Y-119975000D01*
X180047309Y-119973947D01*
X180026074Y-119970797D01*
X180005250Y-119965581D01*
X179985038Y-119958349D01*
X179965632Y-119949170D01*
X179947219Y-119938134D01*
X179929976Y-119925346D01*
X179914070Y-119910930D01*
X179899654Y-119895024D01*
X179886866Y-119877781D01*
X179875830Y-119859368D01*
X179866651Y-119839962D01*
X179859419Y-119819750D01*
X179854203Y-119798926D01*
X179851053Y-119777691D01*
X179850000Y-119756250D01*
X179850000Y-119243750D01*
X179851053Y-119222309D01*
X179854203Y-119201074D01*
X179859419Y-119180250D01*
X179866651Y-119160038D01*
X179875830Y-119140632D01*
X179886866Y-119122219D01*
X179899654Y-119104976D01*
X179914070Y-119089070D01*
X179929976Y-119074654D01*
X179947219Y-119061866D01*
X179965632Y-119050830D01*
X179985038Y-119041651D01*
X180005250Y-119034419D01*
X180026074Y-119029203D01*
X180047309Y-119026053D01*
X180068750Y-119025000D01*
X180506250Y-119025000D01*
X180527691Y-119026053D01*
G37*
G36*
X178952691Y-119026053D02*
G01*
X178973926Y-119029203D01*
X178994750Y-119034419D01*
X179014962Y-119041651D01*
X179034368Y-119050830D01*
X179052781Y-119061866D01*
X179070024Y-119074654D01*
X179085930Y-119089070D01*
X179100346Y-119104976D01*
X179113134Y-119122219D01*
X179124170Y-119140632D01*
X179133349Y-119160038D01*
X179140581Y-119180250D01*
X179145797Y-119201074D01*
X179148947Y-119222309D01*
X179150000Y-119243750D01*
X179150000Y-119756250D01*
X179148947Y-119777691D01*
X179145797Y-119798926D01*
X179140581Y-119819750D01*
X179133349Y-119839962D01*
X179124170Y-119859368D01*
X179113134Y-119877781D01*
X179100346Y-119895024D01*
X179085930Y-119910930D01*
X179070024Y-119925346D01*
X179052781Y-119938134D01*
X179034368Y-119949170D01*
X179014962Y-119958349D01*
X178994750Y-119965581D01*
X178973926Y-119970797D01*
X178952691Y-119973947D01*
X178931250Y-119975000D01*
X178493750Y-119975000D01*
X178472309Y-119973947D01*
X178451074Y-119970797D01*
X178430250Y-119965581D01*
X178410038Y-119958349D01*
X178390632Y-119949170D01*
X178372219Y-119938134D01*
X178354976Y-119925346D01*
X178339070Y-119910930D01*
X178324654Y-119895024D01*
X178311866Y-119877781D01*
X178300830Y-119859368D01*
X178291651Y-119839962D01*
X178284419Y-119819750D01*
X178279203Y-119798926D01*
X178276053Y-119777691D01*
X178275000Y-119756250D01*
X178275000Y-119243750D01*
X178276053Y-119222309D01*
X178279203Y-119201074D01*
X178284419Y-119180250D01*
X178291651Y-119160038D01*
X178300830Y-119140632D01*
X178311866Y-119122219D01*
X178324654Y-119104976D01*
X178339070Y-119089070D01*
X178354976Y-119074654D01*
X178372219Y-119061866D01*
X178390632Y-119050830D01*
X178410038Y-119041651D01*
X178430250Y-119034419D01*
X178451074Y-119029203D01*
X178472309Y-119026053D01*
X178493750Y-119025000D01*
X178931250Y-119025000D01*
X178952691Y-119026053D01*
G37*
G36*
X165527691Y-120526053D02*
G01*
X165548926Y-120529203D01*
X165569750Y-120534419D01*
X165589962Y-120541651D01*
X165609368Y-120550830D01*
X165627781Y-120561866D01*
X165645024Y-120574654D01*
X165660930Y-120589070D01*
X165675346Y-120604976D01*
X165688134Y-120622219D01*
X165699170Y-120640632D01*
X165708349Y-120660038D01*
X165715581Y-120680250D01*
X165720797Y-120701074D01*
X165723947Y-120722309D01*
X165725000Y-120743750D01*
X165725000Y-121256250D01*
X165723947Y-121277691D01*
X165720797Y-121298926D01*
X165715581Y-121319750D01*
X165708349Y-121339962D01*
X165699170Y-121359368D01*
X165688134Y-121377781D01*
X165675346Y-121395024D01*
X165660930Y-121410930D01*
X165645024Y-121425346D01*
X165627781Y-121438134D01*
X165609368Y-121449170D01*
X165589962Y-121458349D01*
X165569750Y-121465581D01*
X165548926Y-121470797D01*
X165527691Y-121473947D01*
X165506250Y-121475000D01*
X165068750Y-121475000D01*
X165047309Y-121473947D01*
X165026074Y-121470797D01*
X165005250Y-121465581D01*
X164985038Y-121458349D01*
X164965632Y-121449170D01*
X164947219Y-121438134D01*
X164929976Y-121425346D01*
X164914070Y-121410930D01*
X164899654Y-121395024D01*
X164886866Y-121377781D01*
X164875830Y-121359368D01*
X164866651Y-121339962D01*
X164859419Y-121319750D01*
X164854203Y-121298926D01*
X164851053Y-121277691D01*
X164850000Y-121256250D01*
X164850000Y-120743750D01*
X164851053Y-120722309D01*
X164854203Y-120701074D01*
X164859419Y-120680250D01*
X164866651Y-120660038D01*
X164875830Y-120640632D01*
X164886866Y-120622219D01*
X164899654Y-120604976D01*
X164914070Y-120589070D01*
X164929976Y-120574654D01*
X164947219Y-120561866D01*
X164965632Y-120550830D01*
X164985038Y-120541651D01*
X165005250Y-120534419D01*
X165026074Y-120529203D01*
X165047309Y-120526053D01*
X165068750Y-120525000D01*
X165506250Y-120525000D01*
X165527691Y-120526053D01*
G37*
G36*
X163952691Y-120526053D02*
G01*
X163973926Y-120529203D01*
X163994750Y-120534419D01*
X164014962Y-120541651D01*
X164034368Y-120550830D01*
X164052781Y-120561866D01*
X164070024Y-120574654D01*
X164085930Y-120589070D01*
X164100346Y-120604976D01*
X164113134Y-120622219D01*
X164124170Y-120640632D01*
X164133349Y-120660038D01*
X164140581Y-120680250D01*
X164145797Y-120701074D01*
X164148947Y-120722309D01*
X164150000Y-120743750D01*
X164150000Y-121256250D01*
X164148947Y-121277691D01*
X164145797Y-121298926D01*
X164140581Y-121319750D01*
X164133349Y-121339962D01*
X164124170Y-121359368D01*
X164113134Y-121377781D01*
X164100346Y-121395024D01*
X164085930Y-121410930D01*
X164070024Y-121425346D01*
X164052781Y-121438134D01*
X164034368Y-121449170D01*
X164014962Y-121458349D01*
X163994750Y-121465581D01*
X163973926Y-121470797D01*
X163952691Y-121473947D01*
X163931250Y-121475000D01*
X163493750Y-121475000D01*
X163472309Y-121473947D01*
X163451074Y-121470797D01*
X163430250Y-121465581D01*
X163410038Y-121458349D01*
X163390632Y-121449170D01*
X163372219Y-121438134D01*
X163354976Y-121425346D01*
X163339070Y-121410930D01*
X163324654Y-121395024D01*
X163311866Y-121377781D01*
X163300830Y-121359368D01*
X163291651Y-121339962D01*
X163284419Y-121319750D01*
X163279203Y-121298926D01*
X163276053Y-121277691D01*
X163275000Y-121256250D01*
X163275000Y-120743750D01*
X163276053Y-120722309D01*
X163279203Y-120701074D01*
X163284419Y-120680250D01*
X163291651Y-120660038D01*
X163300830Y-120640632D01*
X163311866Y-120622219D01*
X163324654Y-120604976D01*
X163339070Y-120589070D01*
X163354976Y-120574654D01*
X163372219Y-120561866D01*
X163390632Y-120550830D01*
X163410038Y-120541651D01*
X163430250Y-120534419D01*
X163451074Y-120529203D01*
X163472309Y-120526053D01*
X163493750Y-120525000D01*
X163931250Y-120525000D01*
X163952691Y-120526053D01*
G37*
G36*
X163952691Y-119026053D02*
G01*
X163973926Y-119029203D01*
X163994750Y-119034419D01*
X164014962Y-119041651D01*
X164034368Y-119050830D01*
X164052781Y-119061866D01*
X164070024Y-119074654D01*
X164085930Y-119089070D01*
X164100346Y-119104976D01*
X164113134Y-119122219D01*
X164124170Y-119140632D01*
X164133349Y-119160038D01*
X164140581Y-119180250D01*
X164145797Y-119201074D01*
X164148947Y-119222309D01*
X164150000Y-119243750D01*
X164150000Y-119756250D01*
X164148947Y-119777691D01*
X164145797Y-119798926D01*
X164140581Y-119819750D01*
X164133349Y-119839962D01*
X164124170Y-119859368D01*
X164113134Y-119877781D01*
X164100346Y-119895024D01*
X164085930Y-119910930D01*
X164070024Y-119925346D01*
X164052781Y-119938134D01*
X164034368Y-119949170D01*
X164014962Y-119958349D01*
X163994750Y-119965581D01*
X163973926Y-119970797D01*
X163952691Y-119973947D01*
X163931250Y-119975000D01*
X163493750Y-119975000D01*
X163472309Y-119973947D01*
X163451074Y-119970797D01*
X163430250Y-119965581D01*
X163410038Y-119958349D01*
X163390632Y-119949170D01*
X163372219Y-119938134D01*
X163354976Y-119925346D01*
X163339070Y-119910930D01*
X163324654Y-119895024D01*
X163311866Y-119877781D01*
X163300830Y-119859368D01*
X163291651Y-119839962D01*
X163284419Y-119819750D01*
X163279203Y-119798926D01*
X163276053Y-119777691D01*
X163275000Y-119756250D01*
X163275000Y-119243750D01*
X163276053Y-119222309D01*
X163279203Y-119201074D01*
X163284419Y-119180250D01*
X163291651Y-119160038D01*
X163300830Y-119140632D01*
X163311866Y-119122219D01*
X163324654Y-119104976D01*
X163339070Y-119089070D01*
X163354976Y-119074654D01*
X163372219Y-119061866D01*
X163390632Y-119050830D01*
X163410038Y-119041651D01*
X163430250Y-119034419D01*
X163451074Y-119029203D01*
X163472309Y-119026053D01*
X163493750Y-119025000D01*
X163931250Y-119025000D01*
X163952691Y-119026053D01*
G37*
G36*
X165527691Y-119026053D02*
G01*
X165548926Y-119029203D01*
X165569750Y-119034419D01*
X165589962Y-119041651D01*
X165609368Y-119050830D01*
X165627781Y-119061866D01*
X165645024Y-119074654D01*
X165660930Y-119089070D01*
X165675346Y-119104976D01*
X165688134Y-119122219D01*
X165699170Y-119140632D01*
X165708349Y-119160038D01*
X165715581Y-119180250D01*
X165720797Y-119201074D01*
X165723947Y-119222309D01*
X165725000Y-119243750D01*
X165725000Y-119756250D01*
X165723947Y-119777691D01*
X165720797Y-119798926D01*
X165715581Y-119819750D01*
X165708349Y-119839962D01*
X165699170Y-119859368D01*
X165688134Y-119877781D01*
X165675346Y-119895024D01*
X165660930Y-119910930D01*
X165645024Y-119925346D01*
X165627781Y-119938134D01*
X165609368Y-119949170D01*
X165589962Y-119958349D01*
X165569750Y-119965581D01*
X165548926Y-119970797D01*
X165527691Y-119973947D01*
X165506250Y-119975000D01*
X165068750Y-119975000D01*
X165047309Y-119973947D01*
X165026074Y-119970797D01*
X165005250Y-119965581D01*
X164985038Y-119958349D01*
X164965632Y-119949170D01*
X164947219Y-119938134D01*
X164929976Y-119925346D01*
X164914070Y-119910930D01*
X164899654Y-119895024D01*
X164886866Y-119877781D01*
X164875830Y-119859368D01*
X164866651Y-119839962D01*
X164859419Y-119819750D01*
X164854203Y-119798926D01*
X164851053Y-119777691D01*
X164850000Y-119756250D01*
X164850000Y-119243750D01*
X164851053Y-119222309D01*
X164854203Y-119201074D01*
X164859419Y-119180250D01*
X164866651Y-119160038D01*
X164875830Y-119140632D01*
X164886866Y-119122219D01*
X164899654Y-119104976D01*
X164914070Y-119089070D01*
X164929976Y-119074654D01*
X164947219Y-119061866D01*
X164965632Y-119050830D01*
X164985038Y-119041651D01*
X165005250Y-119034419D01*
X165026074Y-119029203D01*
X165047309Y-119026053D01*
X165068750Y-119025000D01*
X165506250Y-119025000D01*
X165527691Y-119026053D01*
G37*
G36*
X185952691Y-139526053D02*
G01*
X185973926Y-139529203D01*
X185994750Y-139534419D01*
X186014962Y-139541651D01*
X186034368Y-139550830D01*
X186052781Y-139561866D01*
X186070024Y-139574654D01*
X186085930Y-139589070D01*
X186100346Y-139604976D01*
X186113134Y-139622219D01*
X186124170Y-139640632D01*
X186133349Y-139660038D01*
X186140581Y-139680250D01*
X186145797Y-139701074D01*
X186148947Y-139722309D01*
X186150000Y-139743750D01*
X186150000Y-140256250D01*
X186148947Y-140277691D01*
X186145797Y-140298926D01*
X186140581Y-140319750D01*
X186133349Y-140339962D01*
X186124170Y-140359368D01*
X186113134Y-140377781D01*
X186100346Y-140395024D01*
X186085930Y-140410930D01*
X186070024Y-140425346D01*
X186052781Y-140438134D01*
X186034368Y-140449170D01*
X186014962Y-140458349D01*
X185994750Y-140465581D01*
X185973926Y-140470797D01*
X185952691Y-140473947D01*
X185931250Y-140475000D01*
X185493750Y-140475000D01*
X185472309Y-140473947D01*
X185451074Y-140470797D01*
X185430250Y-140465581D01*
X185410038Y-140458349D01*
X185390632Y-140449170D01*
X185372219Y-140438134D01*
X185354976Y-140425346D01*
X185339070Y-140410930D01*
X185324654Y-140395024D01*
X185311866Y-140377781D01*
X185300830Y-140359368D01*
X185291651Y-140339962D01*
X185284419Y-140319750D01*
X185279203Y-140298926D01*
X185276053Y-140277691D01*
X185275000Y-140256250D01*
X185275000Y-139743750D01*
X185276053Y-139722309D01*
X185279203Y-139701074D01*
X185284419Y-139680250D01*
X185291651Y-139660038D01*
X185300830Y-139640632D01*
X185311866Y-139622219D01*
X185324654Y-139604976D01*
X185339070Y-139589070D01*
X185354976Y-139574654D01*
X185372219Y-139561866D01*
X185390632Y-139550830D01*
X185410038Y-139541651D01*
X185430250Y-139534419D01*
X185451074Y-139529203D01*
X185472309Y-139526053D01*
X185493750Y-139525000D01*
X185931250Y-139525000D01*
X185952691Y-139526053D01*
G37*
G36*
X187527691Y-139526053D02*
G01*
X187548926Y-139529203D01*
X187569750Y-139534419D01*
X187589962Y-139541651D01*
X187609368Y-139550830D01*
X187627781Y-139561866D01*
X187645024Y-139574654D01*
X187660930Y-139589070D01*
X187675346Y-139604976D01*
X187688134Y-139622219D01*
X187699170Y-139640632D01*
X187708349Y-139660038D01*
X187715581Y-139680250D01*
X187720797Y-139701074D01*
X187723947Y-139722309D01*
X187725000Y-139743750D01*
X187725000Y-140256250D01*
X187723947Y-140277691D01*
X187720797Y-140298926D01*
X187715581Y-140319750D01*
X187708349Y-140339962D01*
X187699170Y-140359368D01*
X187688134Y-140377781D01*
X187675346Y-140395024D01*
X187660930Y-140410930D01*
X187645024Y-140425346D01*
X187627781Y-140438134D01*
X187609368Y-140449170D01*
X187589962Y-140458349D01*
X187569750Y-140465581D01*
X187548926Y-140470797D01*
X187527691Y-140473947D01*
X187506250Y-140475000D01*
X187068750Y-140475000D01*
X187047309Y-140473947D01*
X187026074Y-140470797D01*
X187005250Y-140465581D01*
X186985038Y-140458349D01*
X186965632Y-140449170D01*
X186947219Y-140438134D01*
X186929976Y-140425346D01*
X186914070Y-140410930D01*
X186899654Y-140395024D01*
X186886866Y-140377781D01*
X186875830Y-140359368D01*
X186866651Y-140339962D01*
X186859419Y-140319750D01*
X186854203Y-140298926D01*
X186851053Y-140277691D01*
X186850000Y-140256250D01*
X186850000Y-139743750D01*
X186851053Y-139722309D01*
X186854203Y-139701074D01*
X186859419Y-139680250D01*
X186866651Y-139660038D01*
X186875830Y-139640632D01*
X186886866Y-139622219D01*
X186899654Y-139604976D01*
X186914070Y-139589070D01*
X186929976Y-139574654D01*
X186947219Y-139561866D01*
X186965632Y-139550830D01*
X186985038Y-139541651D01*
X187005250Y-139534419D01*
X187026074Y-139529203D01*
X187047309Y-139526053D01*
X187068750Y-139525000D01*
X187506250Y-139525000D01*
X187527691Y-139526053D01*
G37*
G36*
X170665191Y-139526053D02*
G01*
X170686426Y-139529203D01*
X170707250Y-139534419D01*
X170727462Y-139541651D01*
X170746868Y-139550830D01*
X170765281Y-139561866D01*
X170782524Y-139574654D01*
X170798430Y-139589070D01*
X170812846Y-139604976D01*
X170825634Y-139622219D01*
X170836670Y-139640632D01*
X170845849Y-139660038D01*
X170853081Y-139680250D01*
X170858297Y-139701074D01*
X170861447Y-139722309D01*
X170862500Y-139743750D01*
X170862500Y-140256250D01*
X170861447Y-140277691D01*
X170858297Y-140298926D01*
X170853081Y-140319750D01*
X170845849Y-140339962D01*
X170836670Y-140359368D01*
X170825634Y-140377781D01*
X170812846Y-140395024D01*
X170798430Y-140410930D01*
X170782524Y-140425346D01*
X170765281Y-140438134D01*
X170746868Y-140449170D01*
X170727462Y-140458349D01*
X170707250Y-140465581D01*
X170686426Y-140470797D01*
X170665191Y-140473947D01*
X170643750Y-140475000D01*
X170206250Y-140475000D01*
X170184809Y-140473947D01*
X170163574Y-140470797D01*
X170142750Y-140465581D01*
X170122538Y-140458349D01*
X170103132Y-140449170D01*
X170084719Y-140438134D01*
X170067476Y-140425346D01*
X170051570Y-140410930D01*
X170037154Y-140395024D01*
X170024366Y-140377781D01*
X170013330Y-140359368D01*
X170004151Y-140339962D01*
X169996919Y-140319750D01*
X169991703Y-140298926D01*
X169988553Y-140277691D01*
X169987500Y-140256250D01*
X169987500Y-139743750D01*
X169988553Y-139722309D01*
X169991703Y-139701074D01*
X169996919Y-139680250D01*
X170004151Y-139660038D01*
X170013330Y-139640632D01*
X170024366Y-139622219D01*
X170037154Y-139604976D01*
X170051570Y-139589070D01*
X170067476Y-139574654D01*
X170084719Y-139561866D01*
X170103132Y-139550830D01*
X170122538Y-139541651D01*
X170142750Y-139534419D01*
X170163574Y-139529203D01*
X170184809Y-139526053D01*
X170206250Y-139525000D01*
X170643750Y-139525000D01*
X170665191Y-139526053D01*
G37*
G36*
X172240191Y-139526053D02*
G01*
X172261426Y-139529203D01*
X172282250Y-139534419D01*
X172302462Y-139541651D01*
X172321868Y-139550830D01*
X172340281Y-139561866D01*
X172357524Y-139574654D01*
X172373430Y-139589070D01*
X172387846Y-139604976D01*
X172400634Y-139622219D01*
X172411670Y-139640632D01*
X172420849Y-139660038D01*
X172428081Y-139680250D01*
X172433297Y-139701074D01*
X172436447Y-139722309D01*
X172437500Y-139743750D01*
X172437500Y-140256250D01*
X172436447Y-140277691D01*
X172433297Y-140298926D01*
X172428081Y-140319750D01*
X172420849Y-140339962D01*
X172411670Y-140359368D01*
X172400634Y-140377781D01*
X172387846Y-140395024D01*
X172373430Y-140410930D01*
X172357524Y-140425346D01*
X172340281Y-140438134D01*
X172321868Y-140449170D01*
X172302462Y-140458349D01*
X172282250Y-140465581D01*
X172261426Y-140470797D01*
X172240191Y-140473947D01*
X172218750Y-140475000D01*
X171781250Y-140475000D01*
X171759809Y-140473947D01*
X171738574Y-140470797D01*
X171717750Y-140465581D01*
X171697538Y-140458349D01*
X171678132Y-140449170D01*
X171659719Y-140438134D01*
X171642476Y-140425346D01*
X171626570Y-140410930D01*
X171612154Y-140395024D01*
X171599366Y-140377781D01*
X171588330Y-140359368D01*
X171579151Y-140339962D01*
X171571919Y-140319750D01*
X171566703Y-140298926D01*
X171563553Y-140277691D01*
X171562500Y-140256250D01*
X171562500Y-139743750D01*
X171563553Y-139722309D01*
X171566703Y-139701074D01*
X171571919Y-139680250D01*
X171579151Y-139660038D01*
X171588330Y-139640632D01*
X171599366Y-139622219D01*
X171612154Y-139604976D01*
X171626570Y-139589070D01*
X171642476Y-139574654D01*
X171659719Y-139561866D01*
X171678132Y-139550830D01*
X171697538Y-139541651D01*
X171717750Y-139534419D01*
X171738574Y-139529203D01*
X171759809Y-139526053D01*
X171781250Y-139525000D01*
X172218750Y-139525000D01*
X172240191Y-139526053D01*
G37*
G36*
X155665191Y-139526053D02*
G01*
X155686426Y-139529203D01*
X155707250Y-139534419D01*
X155727462Y-139541651D01*
X155746868Y-139550830D01*
X155765281Y-139561866D01*
X155782524Y-139574654D01*
X155798430Y-139589070D01*
X155812846Y-139604976D01*
X155825634Y-139622219D01*
X155836670Y-139640632D01*
X155845849Y-139660038D01*
X155853081Y-139680250D01*
X155858297Y-139701074D01*
X155861447Y-139722309D01*
X155862500Y-139743750D01*
X155862500Y-140256250D01*
X155861447Y-140277691D01*
X155858297Y-140298926D01*
X155853081Y-140319750D01*
X155845849Y-140339962D01*
X155836670Y-140359368D01*
X155825634Y-140377781D01*
X155812846Y-140395024D01*
X155798430Y-140410930D01*
X155782524Y-140425346D01*
X155765281Y-140438134D01*
X155746868Y-140449170D01*
X155727462Y-140458349D01*
X155707250Y-140465581D01*
X155686426Y-140470797D01*
X155665191Y-140473947D01*
X155643750Y-140475000D01*
X155206250Y-140475000D01*
X155184809Y-140473947D01*
X155163574Y-140470797D01*
X155142750Y-140465581D01*
X155122538Y-140458349D01*
X155103132Y-140449170D01*
X155084719Y-140438134D01*
X155067476Y-140425346D01*
X155051570Y-140410930D01*
X155037154Y-140395024D01*
X155024366Y-140377781D01*
X155013330Y-140359368D01*
X155004151Y-140339962D01*
X154996919Y-140319750D01*
X154991703Y-140298926D01*
X154988553Y-140277691D01*
X154987500Y-140256250D01*
X154987500Y-139743750D01*
X154988553Y-139722309D01*
X154991703Y-139701074D01*
X154996919Y-139680250D01*
X155004151Y-139660038D01*
X155013330Y-139640632D01*
X155024366Y-139622219D01*
X155037154Y-139604976D01*
X155051570Y-139589070D01*
X155067476Y-139574654D01*
X155084719Y-139561866D01*
X155103132Y-139550830D01*
X155122538Y-139541651D01*
X155142750Y-139534419D01*
X155163574Y-139529203D01*
X155184809Y-139526053D01*
X155206250Y-139525000D01*
X155643750Y-139525000D01*
X155665191Y-139526053D01*
G37*
G36*
X157240191Y-139526053D02*
G01*
X157261426Y-139529203D01*
X157282250Y-139534419D01*
X157302462Y-139541651D01*
X157321868Y-139550830D01*
X157340281Y-139561866D01*
X157357524Y-139574654D01*
X157373430Y-139589070D01*
X157387846Y-139604976D01*
X157400634Y-139622219D01*
X157411670Y-139640632D01*
X157420849Y-139660038D01*
X157428081Y-139680250D01*
X157433297Y-139701074D01*
X157436447Y-139722309D01*
X157437500Y-139743750D01*
X157437500Y-140256250D01*
X157436447Y-140277691D01*
X157433297Y-140298926D01*
X157428081Y-140319750D01*
X157420849Y-140339962D01*
X157411670Y-140359368D01*
X157400634Y-140377781D01*
X157387846Y-140395024D01*
X157373430Y-140410930D01*
X157357524Y-140425346D01*
X157340281Y-140438134D01*
X157321868Y-140449170D01*
X157302462Y-140458349D01*
X157282250Y-140465581D01*
X157261426Y-140470797D01*
X157240191Y-140473947D01*
X157218750Y-140475000D01*
X156781250Y-140475000D01*
X156759809Y-140473947D01*
X156738574Y-140470797D01*
X156717750Y-140465581D01*
X156697538Y-140458349D01*
X156678132Y-140449170D01*
X156659719Y-140438134D01*
X156642476Y-140425346D01*
X156626570Y-140410930D01*
X156612154Y-140395024D01*
X156599366Y-140377781D01*
X156588330Y-140359368D01*
X156579151Y-140339962D01*
X156571919Y-140319750D01*
X156566703Y-140298926D01*
X156563553Y-140277691D01*
X156562500Y-140256250D01*
X156562500Y-139743750D01*
X156563553Y-139722309D01*
X156566703Y-139701074D01*
X156571919Y-139680250D01*
X156579151Y-139660038D01*
X156588330Y-139640632D01*
X156599366Y-139622219D01*
X156612154Y-139604976D01*
X156626570Y-139589070D01*
X156642476Y-139574654D01*
X156659719Y-139561866D01*
X156678132Y-139550830D01*
X156697538Y-139541651D01*
X156717750Y-139534419D01*
X156738574Y-139529203D01*
X156759809Y-139526053D01*
X156781250Y-139525000D01*
X157218750Y-139525000D01*
X157240191Y-139526053D01*
G37*
G36*
X177277691Y-112776053D02*
G01*
X177298926Y-112779203D01*
X177319750Y-112784419D01*
X177339962Y-112791651D01*
X177359368Y-112800830D01*
X177377781Y-112811866D01*
X177395024Y-112824654D01*
X177410930Y-112839070D01*
X177425346Y-112854976D01*
X177438134Y-112872219D01*
X177449170Y-112890632D01*
X177458349Y-112910038D01*
X177465581Y-112930250D01*
X177470797Y-112951074D01*
X177473947Y-112972309D01*
X177475000Y-112993750D01*
X177475000Y-113431250D01*
X177473947Y-113452691D01*
X177470797Y-113473926D01*
X177465581Y-113494750D01*
X177458349Y-113514962D01*
X177449170Y-113534368D01*
X177438134Y-113552781D01*
X177425346Y-113570024D01*
X177410930Y-113585930D01*
X177395024Y-113600346D01*
X177377781Y-113613134D01*
X177359368Y-113624170D01*
X177339962Y-113633349D01*
X177319750Y-113640581D01*
X177298926Y-113645797D01*
X177277691Y-113648947D01*
X177256250Y-113650000D01*
X176743750Y-113650000D01*
X176722309Y-113648947D01*
X176701074Y-113645797D01*
X176680250Y-113640581D01*
X176660038Y-113633349D01*
X176640632Y-113624170D01*
X176622219Y-113613134D01*
X176604976Y-113600346D01*
X176589070Y-113585930D01*
X176574654Y-113570024D01*
X176561866Y-113552781D01*
X176550830Y-113534368D01*
X176541651Y-113514962D01*
X176534419Y-113494750D01*
X176529203Y-113473926D01*
X176526053Y-113452691D01*
X176525000Y-113431250D01*
X176525000Y-112993750D01*
X176526053Y-112972309D01*
X176529203Y-112951074D01*
X176534419Y-112930250D01*
X176541651Y-112910038D01*
X176550830Y-112890632D01*
X176561866Y-112872219D01*
X176574654Y-112854976D01*
X176589070Y-112839070D01*
X176604976Y-112824654D01*
X176622219Y-112811866D01*
X176640632Y-112800830D01*
X176660038Y-112791651D01*
X176680250Y-112784419D01*
X176701074Y-112779203D01*
X176722309Y-112776053D01*
X176743750Y-112775000D01*
X177256250Y-112775000D01*
X177277691Y-112776053D01*
G37*
G36*
X177277691Y-114351053D02*
G01*
X177298926Y-114354203D01*
X177319750Y-114359419D01*
X177339962Y-114366651D01*
X177359368Y-114375830D01*
X177377781Y-114386866D01*
X177395024Y-114399654D01*
X177410930Y-114414070D01*
X177425346Y-114429976D01*
X177438134Y-114447219D01*
X177449170Y-114465632D01*
X177458349Y-114485038D01*
X177465581Y-114505250D01*
X177470797Y-114526074D01*
X177473947Y-114547309D01*
X177475000Y-114568750D01*
X177475000Y-115006250D01*
X177473947Y-115027691D01*
X177470797Y-115048926D01*
X177465581Y-115069750D01*
X177458349Y-115089962D01*
X177449170Y-115109368D01*
X177438134Y-115127781D01*
X177425346Y-115145024D01*
X177410930Y-115160930D01*
X177395024Y-115175346D01*
X177377781Y-115188134D01*
X177359368Y-115199170D01*
X177339962Y-115208349D01*
X177319750Y-115215581D01*
X177298926Y-115220797D01*
X177277691Y-115223947D01*
X177256250Y-115225000D01*
X176743750Y-115225000D01*
X176722309Y-115223947D01*
X176701074Y-115220797D01*
X176680250Y-115215581D01*
X176660038Y-115208349D01*
X176640632Y-115199170D01*
X176622219Y-115188134D01*
X176604976Y-115175346D01*
X176589070Y-115160930D01*
X176574654Y-115145024D01*
X176561866Y-115127781D01*
X176550830Y-115109368D01*
X176541651Y-115089962D01*
X176534419Y-115069750D01*
X176529203Y-115048926D01*
X176526053Y-115027691D01*
X176525000Y-115006250D01*
X176525000Y-114568750D01*
X176526053Y-114547309D01*
X176529203Y-114526074D01*
X176534419Y-114505250D01*
X176541651Y-114485038D01*
X176550830Y-114465632D01*
X176561866Y-114447219D01*
X176574654Y-114429976D01*
X176589070Y-114414070D01*
X176604976Y-114399654D01*
X176622219Y-114386866D01*
X176640632Y-114375830D01*
X176660038Y-114366651D01*
X176680250Y-114359419D01*
X176701074Y-114354203D01*
X176722309Y-114351053D01*
X176743750Y-114350000D01*
X177256250Y-114350000D01*
X177277691Y-114351053D01*
G37*
G36*
X162277691Y-112776053D02*
G01*
X162298926Y-112779203D01*
X162319750Y-112784419D01*
X162339962Y-112791651D01*
X162359368Y-112800830D01*
X162377781Y-112811866D01*
X162395024Y-112824654D01*
X162410930Y-112839070D01*
X162425346Y-112854976D01*
X162438134Y-112872219D01*
X162449170Y-112890632D01*
X162458349Y-112910038D01*
X162465581Y-112930250D01*
X162470797Y-112951074D01*
X162473947Y-112972309D01*
X162475000Y-112993750D01*
X162475000Y-113431250D01*
X162473947Y-113452691D01*
X162470797Y-113473926D01*
X162465581Y-113494750D01*
X162458349Y-113514962D01*
X162449170Y-113534368D01*
X162438134Y-113552781D01*
X162425346Y-113570024D01*
X162410930Y-113585930D01*
X162395024Y-113600346D01*
X162377781Y-113613134D01*
X162359368Y-113624170D01*
X162339962Y-113633349D01*
X162319750Y-113640581D01*
X162298926Y-113645797D01*
X162277691Y-113648947D01*
X162256250Y-113650000D01*
X161743750Y-113650000D01*
X161722309Y-113648947D01*
X161701074Y-113645797D01*
X161680250Y-113640581D01*
X161660038Y-113633349D01*
X161640632Y-113624170D01*
X161622219Y-113613134D01*
X161604976Y-113600346D01*
X161589070Y-113585930D01*
X161574654Y-113570024D01*
X161561866Y-113552781D01*
X161550830Y-113534368D01*
X161541651Y-113514962D01*
X161534419Y-113494750D01*
X161529203Y-113473926D01*
X161526053Y-113452691D01*
X161525000Y-113431250D01*
X161525000Y-112993750D01*
X161526053Y-112972309D01*
X161529203Y-112951074D01*
X161534419Y-112930250D01*
X161541651Y-112910038D01*
X161550830Y-112890632D01*
X161561866Y-112872219D01*
X161574654Y-112854976D01*
X161589070Y-112839070D01*
X161604976Y-112824654D01*
X161622219Y-112811866D01*
X161640632Y-112800830D01*
X161660038Y-112791651D01*
X161680250Y-112784419D01*
X161701074Y-112779203D01*
X161722309Y-112776053D01*
X161743750Y-112775000D01*
X162256250Y-112775000D01*
X162277691Y-112776053D01*
G37*
G36*
X162277691Y-114351053D02*
G01*
X162298926Y-114354203D01*
X162319750Y-114359419D01*
X162339962Y-114366651D01*
X162359368Y-114375830D01*
X162377781Y-114386866D01*
X162395024Y-114399654D01*
X162410930Y-114414070D01*
X162425346Y-114429976D01*
X162438134Y-114447219D01*
X162449170Y-114465632D01*
X162458349Y-114485038D01*
X162465581Y-114505250D01*
X162470797Y-114526074D01*
X162473947Y-114547309D01*
X162475000Y-114568750D01*
X162475000Y-115006250D01*
X162473947Y-115027691D01*
X162470797Y-115048926D01*
X162465581Y-115069750D01*
X162458349Y-115089962D01*
X162449170Y-115109368D01*
X162438134Y-115127781D01*
X162425346Y-115145024D01*
X162410930Y-115160930D01*
X162395024Y-115175346D01*
X162377781Y-115188134D01*
X162359368Y-115199170D01*
X162339962Y-115208349D01*
X162319750Y-115215581D01*
X162298926Y-115220797D01*
X162277691Y-115223947D01*
X162256250Y-115225000D01*
X161743750Y-115225000D01*
X161722309Y-115223947D01*
X161701074Y-115220797D01*
X161680250Y-115215581D01*
X161660038Y-115208349D01*
X161640632Y-115199170D01*
X161622219Y-115188134D01*
X161604976Y-115175346D01*
X161589070Y-115160930D01*
X161574654Y-115145024D01*
X161561866Y-115127781D01*
X161550830Y-115109368D01*
X161541651Y-115089962D01*
X161534419Y-115069750D01*
X161529203Y-115048926D01*
X161526053Y-115027691D01*
X161525000Y-115006250D01*
X161525000Y-114568750D01*
X161526053Y-114547309D01*
X161529203Y-114526074D01*
X161534419Y-114505250D01*
X161541651Y-114485038D01*
X161550830Y-114465632D01*
X161561866Y-114447219D01*
X161574654Y-114429976D01*
X161589070Y-114414070D01*
X161604976Y-114399654D01*
X161622219Y-114386866D01*
X161640632Y-114375830D01*
X161660038Y-114366651D01*
X161680250Y-114359419D01*
X161701074Y-114354203D01*
X161722309Y-114351053D01*
X161743750Y-114350000D01*
X162256250Y-114350000D01*
X162277691Y-114351053D01*
G37*
M02*
