G04 #@! TF.GenerationSoftware,KiCad,Pcbnew,5.1.5*
G04 #@! TF.CreationDate,2020-01-13T20:50:12-05:00*
G04 #@! TF.ProjectId,inputs_addon,696e7075-7473-45f6-9164-646f6e2e6b69,0*
G04 #@! TF.SameCoordinates,Original*
G04 #@! TF.FileFunction,Copper,L1,Top*
G04 #@! TF.FilePolarity,Positive*
%FSLAX46Y46*%
G04 Gerber Fmt 4.6, Leading zero omitted, Abs format (unit mm)*
G04 Created by KiCad (PCBNEW 5.1.5) date 2020-01-13 20:50:12*
%MOMM*%
%LPD*%
G04 APERTURE LIST*
%ADD10C,6.400000*%
%ADD11O,1.700000X1.700000*%
%ADD12R,1.700000X1.700000*%
%ADD13R,1.550000X1.300000*%
%ADD14C,4.000000*%
%ADD15C,1.800000*%
%ADD16C,0.100000*%
%ADD17C,0.800000*%
%ADD18C,0.250000*%
%ADD19C,0.500000*%
G04 APERTURE END LIST*
D10*
X195000000Y-115000000D03*
X155000000Y-115000000D03*
D11*
X161980000Y-104000000D03*
X164520000Y-104000000D03*
X167060000Y-104000000D03*
X169600000Y-104000000D03*
X172140000Y-104000000D03*
X174680000Y-104000000D03*
X177220000Y-104000000D03*
X179760000Y-104000000D03*
X182300000Y-104000000D03*
X184840000Y-104000000D03*
X187380000Y-104000000D03*
X189920000Y-104000000D03*
X192460000Y-104000000D03*
D12*
X195000000Y-104000000D03*
D11*
X161980000Y-145000000D03*
X164520000Y-145000000D03*
X167060000Y-145000000D03*
X169600000Y-145000000D03*
X172140000Y-145000000D03*
X174680000Y-145000000D03*
X177220000Y-145000000D03*
X179760000Y-145000000D03*
X182300000Y-145000000D03*
X184840000Y-145000000D03*
X187380000Y-145000000D03*
X189920000Y-145000000D03*
X192460000Y-145000000D03*
D12*
X195000000Y-145000000D03*
D13*
X186975000Y-117250000D03*
X179025000Y-117250000D03*
X186975000Y-112750000D03*
X179025000Y-112750000D03*
X171975000Y-117250000D03*
X164025000Y-117250000D03*
X171975000Y-112750000D03*
X164025000Y-112750000D03*
D14*
X192000000Y-136900000D03*
X192000000Y-128100000D03*
D15*
X185000000Y-135000000D03*
X185000000Y-132500000D03*
X185000000Y-130000000D03*
D14*
X177000000Y-136900000D03*
X177000000Y-128100000D03*
D15*
X170000000Y-135000000D03*
X170000000Y-132500000D03*
X170000000Y-130000000D03*
D14*
X162000000Y-136900000D03*
X162000000Y-128100000D03*
D15*
X155000000Y-135000000D03*
X155000000Y-132500000D03*
X155000000Y-130000000D03*
G04 #@! TA.AperFunction,SMDPad,CuDef*
D16*
G36*
X178952691Y-120526053D02*
G01*
X178973926Y-120529203D01*
X178994750Y-120534419D01*
X179014962Y-120541651D01*
X179034368Y-120550830D01*
X179052781Y-120561866D01*
X179070024Y-120574654D01*
X179085930Y-120589070D01*
X179100346Y-120604976D01*
X179113134Y-120622219D01*
X179124170Y-120640632D01*
X179133349Y-120660038D01*
X179140581Y-120680250D01*
X179145797Y-120701074D01*
X179148947Y-120722309D01*
X179150000Y-120743750D01*
X179150000Y-121256250D01*
X179148947Y-121277691D01*
X179145797Y-121298926D01*
X179140581Y-121319750D01*
X179133349Y-121339962D01*
X179124170Y-121359368D01*
X179113134Y-121377781D01*
X179100346Y-121395024D01*
X179085930Y-121410930D01*
X179070024Y-121425346D01*
X179052781Y-121438134D01*
X179034368Y-121449170D01*
X179014962Y-121458349D01*
X178994750Y-121465581D01*
X178973926Y-121470797D01*
X178952691Y-121473947D01*
X178931250Y-121475000D01*
X178493750Y-121475000D01*
X178472309Y-121473947D01*
X178451074Y-121470797D01*
X178430250Y-121465581D01*
X178410038Y-121458349D01*
X178390632Y-121449170D01*
X178372219Y-121438134D01*
X178354976Y-121425346D01*
X178339070Y-121410930D01*
X178324654Y-121395024D01*
X178311866Y-121377781D01*
X178300830Y-121359368D01*
X178291651Y-121339962D01*
X178284419Y-121319750D01*
X178279203Y-121298926D01*
X178276053Y-121277691D01*
X178275000Y-121256250D01*
X178275000Y-120743750D01*
X178276053Y-120722309D01*
X178279203Y-120701074D01*
X178284419Y-120680250D01*
X178291651Y-120660038D01*
X178300830Y-120640632D01*
X178311866Y-120622219D01*
X178324654Y-120604976D01*
X178339070Y-120589070D01*
X178354976Y-120574654D01*
X178372219Y-120561866D01*
X178390632Y-120550830D01*
X178410038Y-120541651D01*
X178430250Y-120534419D01*
X178451074Y-120529203D01*
X178472309Y-120526053D01*
X178493750Y-120525000D01*
X178931250Y-120525000D01*
X178952691Y-120526053D01*
G37*
G04 #@! TD.AperFunction*
G04 #@! TA.AperFunction,SMDPad,CuDef*
G36*
X180527691Y-120526053D02*
G01*
X180548926Y-120529203D01*
X180569750Y-120534419D01*
X180589962Y-120541651D01*
X180609368Y-120550830D01*
X180627781Y-120561866D01*
X180645024Y-120574654D01*
X180660930Y-120589070D01*
X180675346Y-120604976D01*
X180688134Y-120622219D01*
X180699170Y-120640632D01*
X180708349Y-120660038D01*
X180715581Y-120680250D01*
X180720797Y-120701074D01*
X180723947Y-120722309D01*
X180725000Y-120743750D01*
X180725000Y-121256250D01*
X180723947Y-121277691D01*
X180720797Y-121298926D01*
X180715581Y-121319750D01*
X180708349Y-121339962D01*
X180699170Y-121359368D01*
X180688134Y-121377781D01*
X180675346Y-121395024D01*
X180660930Y-121410930D01*
X180645024Y-121425346D01*
X180627781Y-121438134D01*
X180609368Y-121449170D01*
X180589962Y-121458349D01*
X180569750Y-121465581D01*
X180548926Y-121470797D01*
X180527691Y-121473947D01*
X180506250Y-121475000D01*
X180068750Y-121475000D01*
X180047309Y-121473947D01*
X180026074Y-121470797D01*
X180005250Y-121465581D01*
X179985038Y-121458349D01*
X179965632Y-121449170D01*
X179947219Y-121438134D01*
X179929976Y-121425346D01*
X179914070Y-121410930D01*
X179899654Y-121395024D01*
X179886866Y-121377781D01*
X179875830Y-121359368D01*
X179866651Y-121339962D01*
X179859419Y-121319750D01*
X179854203Y-121298926D01*
X179851053Y-121277691D01*
X179850000Y-121256250D01*
X179850000Y-120743750D01*
X179851053Y-120722309D01*
X179854203Y-120701074D01*
X179859419Y-120680250D01*
X179866651Y-120660038D01*
X179875830Y-120640632D01*
X179886866Y-120622219D01*
X179899654Y-120604976D01*
X179914070Y-120589070D01*
X179929976Y-120574654D01*
X179947219Y-120561866D01*
X179965632Y-120550830D01*
X179985038Y-120541651D01*
X180005250Y-120534419D01*
X180026074Y-120529203D01*
X180047309Y-120526053D01*
X180068750Y-120525000D01*
X180506250Y-120525000D01*
X180527691Y-120526053D01*
G37*
G04 #@! TD.AperFunction*
G04 #@! TA.AperFunction,SMDPad,CuDef*
G36*
X180527691Y-119026053D02*
G01*
X180548926Y-119029203D01*
X180569750Y-119034419D01*
X180589962Y-119041651D01*
X180609368Y-119050830D01*
X180627781Y-119061866D01*
X180645024Y-119074654D01*
X180660930Y-119089070D01*
X180675346Y-119104976D01*
X180688134Y-119122219D01*
X180699170Y-119140632D01*
X180708349Y-119160038D01*
X180715581Y-119180250D01*
X180720797Y-119201074D01*
X180723947Y-119222309D01*
X180725000Y-119243750D01*
X180725000Y-119756250D01*
X180723947Y-119777691D01*
X180720797Y-119798926D01*
X180715581Y-119819750D01*
X180708349Y-119839962D01*
X180699170Y-119859368D01*
X180688134Y-119877781D01*
X180675346Y-119895024D01*
X180660930Y-119910930D01*
X180645024Y-119925346D01*
X180627781Y-119938134D01*
X180609368Y-119949170D01*
X180589962Y-119958349D01*
X180569750Y-119965581D01*
X180548926Y-119970797D01*
X180527691Y-119973947D01*
X180506250Y-119975000D01*
X180068750Y-119975000D01*
X180047309Y-119973947D01*
X180026074Y-119970797D01*
X180005250Y-119965581D01*
X179985038Y-119958349D01*
X179965632Y-119949170D01*
X179947219Y-119938134D01*
X179929976Y-119925346D01*
X179914070Y-119910930D01*
X179899654Y-119895024D01*
X179886866Y-119877781D01*
X179875830Y-119859368D01*
X179866651Y-119839962D01*
X179859419Y-119819750D01*
X179854203Y-119798926D01*
X179851053Y-119777691D01*
X179850000Y-119756250D01*
X179850000Y-119243750D01*
X179851053Y-119222309D01*
X179854203Y-119201074D01*
X179859419Y-119180250D01*
X179866651Y-119160038D01*
X179875830Y-119140632D01*
X179886866Y-119122219D01*
X179899654Y-119104976D01*
X179914070Y-119089070D01*
X179929976Y-119074654D01*
X179947219Y-119061866D01*
X179965632Y-119050830D01*
X179985038Y-119041651D01*
X180005250Y-119034419D01*
X180026074Y-119029203D01*
X180047309Y-119026053D01*
X180068750Y-119025000D01*
X180506250Y-119025000D01*
X180527691Y-119026053D01*
G37*
G04 #@! TD.AperFunction*
G04 #@! TA.AperFunction,SMDPad,CuDef*
G36*
X178952691Y-119026053D02*
G01*
X178973926Y-119029203D01*
X178994750Y-119034419D01*
X179014962Y-119041651D01*
X179034368Y-119050830D01*
X179052781Y-119061866D01*
X179070024Y-119074654D01*
X179085930Y-119089070D01*
X179100346Y-119104976D01*
X179113134Y-119122219D01*
X179124170Y-119140632D01*
X179133349Y-119160038D01*
X179140581Y-119180250D01*
X179145797Y-119201074D01*
X179148947Y-119222309D01*
X179150000Y-119243750D01*
X179150000Y-119756250D01*
X179148947Y-119777691D01*
X179145797Y-119798926D01*
X179140581Y-119819750D01*
X179133349Y-119839962D01*
X179124170Y-119859368D01*
X179113134Y-119877781D01*
X179100346Y-119895024D01*
X179085930Y-119910930D01*
X179070024Y-119925346D01*
X179052781Y-119938134D01*
X179034368Y-119949170D01*
X179014962Y-119958349D01*
X178994750Y-119965581D01*
X178973926Y-119970797D01*
X178952691Y-119973947D01*
X178931250Y-119975000D01*
X178493750Y-119975000D01*
X178472309Y-119973947D01*
X178451074Y-119970797D01*
X178430250Y-119965581D01*
X178410038Y-119958349D01*
X178390632Y-119949170D01*
X178372219Y-119938134D01*
X178354976Y-119925346D01*
X178339070Y-119910930D01*
X178324654Y-119895024D01*
X178311866Y-119877781D01*
X178300830Y-119859368D01*
X178291651Y-119839962D01*
X178284419Y-119819750D01*
X178279203Y-119798926D01*
X178276053Y-119777691D01*
X178275000Y-119756250D01*
X178275000Y-119243750D01*
X178276053Y-119222309D01*
X178279203Y-119201074D01*
X178284419Y-119180250D01*
X178291651Y-119160038D01*
X178300830Y-119140632D01*
X178311866Y-119122219D01*
X178324654Y-119104976D01*
X178339070Y-119089070D01*
X178354976Y-119074654D01*
X178372219Y-119061866D01*
X178390632Y-119050830D01*
X178410038Y-119041651D01*
X178430250Y-119034419D01*
X178451074Y-119029203D01*
X178472309Y-119026053D01*
X178493750Y-119025000D01*
X178931250Y-119025000D01*
X178952691Y-119026053D01*
G37*
G04 #@! TD.AperFunction*
G04 #@! TA.AperFunction,SMDPad,CuDef*
G36*
X165527691Y-120526053D02*
G01*
X165548926Y-120529203D01*
X165569750Y-120534419D01*
X165589962Y-120541651D01*
X165609368Y-120550830D01*
X165627781Y-120561866D01*
X165645024Y-120574654D01*
X165660930Y-120589070D01*
X165675346Y-120604976D01*
X165688134Y-120622219D01*
X165699170Y-120640632D01*
X165708349Y-120660038D01*
X165715581Y-120680250D01*
X165720797Y-120701074D01*
X165723947Y-120722309D01*
X165725000Y-120743750D01*
X165725000Y-121256250D01*
X165723947Y-121277691D01*
X165720797Y-121298926D01*
X165715581Y-121319750D01*
X165708349Y-121339962D01*
X165699170Y-121359368D01*
X165688134Y-121377781D01*
X165675346Y-121395024D01*
X165660930Y-121410930D01*
X165645024Y-121425346D01*
X165627781Y-121438134D01*
X165609368Y-121449170D01*
X165589962Y-121458349D01*
X165569750Y-121465581D01*
X165548926Y-121470797D01*
X165527691Y-121473947D01*
X165506250Y-121475000D01*
X165068750Y-121475000D01*
X165047309Y-121473947D01*
X165026074Y-121470797D01*
X165005250Y-121465581D01*
X164985038Y-121458349D01*
X164965632Y-121449170D01*
X164947219Y-121438134D01*
X164929976Y-121425346D01*
X164914070Y-121410930D01*
X164899654Y-121395024D01*
X164886866Y-121377781D01*
X164875830Y-121359368D01*
X164866651Y-121339962D01*
X164859419Y-121319750D01*
X164854203Y-121298926D01*
X164851053Y-121277691D01*
X164850000Y-121256250D01*
X164850000Y-120743750D01*
X164851053Y-120722309D01*
X164854203Y-120701074D01*
X164859419Y-120680250D01*
X164866651Y-120660038D01*
X164875830Y-120640632D01*
X164886866Y-120622219D01*
X164899654Y-120604976D01*
X164914070Y-120589070D01*
X164929976Y-120574654D01*
X164947219Y-120561866D01*
X164965632Y-120550830D01*
X164985038Y-120541651D01*
X165005250Y-120534419D01*
X165026074Y-120529203D01*
X165047309Y-120526053D01*
X165068750Y-120525000D01*
X165506250Y-120525000D01*
X165527691Y-120526053D01*
G37*
G04 #@! TD.AperFunction*
G04 #@! TA.AperFunction,SMDPad,CuDef*
G36*
X163952691Y-120526053D02*
G01*
X163973926Y-120529203D01*
X163994750Y-120534419D01*
X164014962Y-120541651D01*
X164034368Y-120550830D01*
X164052781Y-120561866D01*
X164070024Y-120574654D01*
X164085930Y-120589070D01*
X164100346Y-120604976D01*
X164113134Y-120622219D01*
X164124170Y-120640632D01*
X164133349Y-120660038D01*
X164140581Y-120680250D01*
X164145797Y-120701074D01*
X164148947Y-120722309D01*
X164150000Y-120743750D01*
X164150000Y-121256250D01*
X164148947Y-121277691D01*
X164145797Y-121298926D01*
X164140581Y-121319750D01*
X164133349Y-121339962D01*
X164124170Y-121359368D01*
X164113134Y-121377781D01*
X164100346Y-121395024D01*
X164085930Y-121410930D01*
X164070024Y-121425346D01*
X164052781Y-121438134D01*
X164034368Y-121449170D01*
X164014962Y-121458349D01*
X163994750Y-121465581D01*
X163973926Y-121470797D01*
X163952691Y-121473947D01*
X163931250Y-121475000D01*
X163493750Y-121475000D01*
X163472309Y-121473947D01*
X163451074Y-121470797D01*
X163430250Y-121465581D01*
X163410038Y-121458349D01*
X163390632Y-121449170D01*
X163372219Y-121438134D01*
X163354976Y-121425346D01*
X163339070Y-121410930D01*
X163324654Y-121395024D01*
X163311866Y-121377781D01*
X163300830Y-121359368D01*
X163291651Y-121339962D01*
X163284419Y-121319750D01*
X163279203Y-121298926D01*
X163276053Y-121277691D01*
X163275000Y-121256250D01*
X163275000Y-120743750D01*
X163276053Y-120722309D01*
X163279203Y-120701074D01*
X163284419Y-120680250D01*
X163291651Y-120660038D01*
X163300830Y-120640632D01*
X163311866Y-120622219D01*
X163324654Y-120604976D01*
X163339070Y-120589070D01*
X163354976Y-120574654D01*
X163372219Y-120561866D01*
X163390632Y-120550830D01*
X163410038Y-120541651D01*
X163430250Y-120534419D01*
X163451074Y-120529203D01*
X163472309Y-120526053D01*
X163493750Y-120525000D01*
X163931250Y-120525000D01*
X163952691Y-120526053D01*
G37*
G04 #@! TD.AperFunction*
G04 #@! TA.AperFunction,SMDPad,CuDef*
G36*
X163952691Y-119026053D02*
G01*
X163973926Y-119029203D01*
X163994750Y-119034419D01*
X164014962Y-119041651D01*
X164034368Y-119050830D01*
X164052781Y-119061866D01*
X164070024Y-119074654D01*
X164085930Y-119089070D01*
X164100346Y-119104976D01*
X164113134Y-119122219D01*
X164124170Y-119140632D01*
X164133349Y-119160038D01*
X164140581Y-119180250D01*
X164145797Y-119201074D01*
X164148947Y-119222309D01*
X164150000Y-119243750D01*
X164150000Y-119756250D01*
X164148947Y-119777691D01*
X164145797Y-119798926D01*
X164140581Y-119819750D01*
X164133349Y-119839962D01*
X164124170Y-119859368D01*
X164113134Y-119877781D01*
X164100346Y-119895024D01*
X164085930Y-119910930D01*
X164070024Y-119925346D01*
X164052781Y-119938134D01*
X164034368Y-119949170D01*
X164014962Y-119958349D01*
X163994750Y-119965581D01*
X163973926Y-119970797D01*
X163952691Y-119973947D01*
X163931250Y-119975000D01*
X163493750Y-119975000D01*
X163472309Y-119973947D01*
X163451074Y-119970797D01*
X163430250Y-119965581D01*
X163410038Y-119958349D01*
X163390632Y-119949170D01*
X163372219Y-119938134D01*
X163354976Y-119925346D01*
X163339070Y-119910930D01*
X163324654Y-119895024D01*
X163311866Y-119877781D01*
X163300830Y-119859368D01*
X163291651Y-119839962D01*
X163284419Y-119819750D01*
X163279203Y-119798926D01*
X163276053Y-119777691D01*
X163275000Y-119756250D01*
X163275000Y-119243750D01*
X163276053Y-119222309D01*
X163279203Y-119201074D01*
X163284419Y-119180250D01*
X163291651Y-119160038D01*
X163300830Y-119140632D01*
X163311866Y-119122219D01*
X163324654Y-119104976D01*
X163339070Y-119089070D01*
X163354976Y-119074654D01*
X163372219Y-119061866D01*
X163390632Y-119050830D01*
X163410038Y-119041651D01*
X163430250Y-119034419D01*
X163451074Y-119029203D01*
X163472309Y-119026053D01*
X163493750Y-119025000D01*
X163931250Y-119025000D01*
X163952691Y-119026053D01*
G37*
G04 #@! TD.AperFunction*
G04 #@! TA.AperFunction,SMDPad,CuDef*
G36*
X165527691Y-119026053D02*
G01*
X165548926Y-119029203D01*
X165569750Y-119034419D01*
X165589962Y-119041651D01*
X165609368Y-119050830D01*
X165627781Y-119061866D01*
X165645024Y-119074654D01*
X165660930Y-119089070D01*
X165675346Y-119104976D01*
X165688134Y-119122219D01*
X165699170Y-119140632D01*
X165708349Y-119160038D01*
X165715581Y-119180250D01*
X165720797Y-119201074D01*
X165723947Y-119222309D01*
X165725000Y-119243750D01*
X165725000Y-119756250D01*
X165723947Y-119777691D01*
X165720797Y-119798926D01*
X165715581Y-119819750D01*
X165708349Y-119839962D01*
X165699170Y-119859368D01*
X165688134Y-119877781D01*
X165675346Y-119895024D01*
X165660930Y-119910930D01*
X165645024Y-119925346D01*
X165627781Y-119938134D01*
X165609368Y-119949170D01*
X165589962Y-119958349D01*
X165569750Y-119965581D01*
X165548926Y-119970797D01*
X165527691Y-119973947D01*
X165506250Y-119975000D01*
X165068750Y-119975000D01*
X165047309Y-119973947D01*
X165026074Y-119970797D01*
X165005250Y-119965581D01*
X164985038Y-119958349D01*
X164965632Y-119949170D01*
X164947219Y-119938134D01*
X164929976Y-119925346D01*
X164914070Y-119910930D01*
X164899654Y-119895024D01*
X164886866Y-119877781D01*
X164875830Y-119859368D01*
X164866651Y-119839962D01*
X164859419Y-119819750D01*
X164854203Y-119798926D01*
X164851053Y-119777691D01*
X164850000Y-119756250D01*
X164850000Y-119243750D01*
X164851053Y-119222309D01*
X164854203Y-119201074D01*
X164859419Y-119180250D01*
X164866651Y-119160038D01*
X164875830Y-119140632D01*
X164886866Y-119122219D01*
X164899654Y-119104976D01*
X164914070Y-119089070D01*
X164929976Y-119074654D01*
X164947219Y-119061866D01*
X164965632Y-119050830D01*
X164985038Y-119041651D01*
X165005250Y-119034419D01*
X165026074Y-119029203D01*
X165047309Y-119026053D01*
X165068750Y-119025000D01*
X165506250Y-119025000D01*
X165527691Y-119026053D01*
G37*
G04 #@! TD.AperFunction*
G04 #@! TA.AperFunction,SMDPad,CuDef*
G36*
X185952691Y-139526053D02*
G01*
X185973926Y-139529203D01*
X185994750Y-139534419D01*
X186014962Y-139541651D01*
X186034368Y-139550830D01*
X186052781Y-139561866D01*
X186070024Y-139574654D01*
X186085930Y-139589070D01*
X186100346Y-139604976D01*
X186113134Y-139622219D01*
X186124170Y-139640632D01*
X186133349Y-139660038D01*
X186140581Y-139680250D01*
X186145797Y-139701074D01*
X186148947Y-139722309D01*
X186150000Y-139743750D01*
X186150000Y-140256250D01*
X186148947Y-140277691D01*
X186145797Y-140298926D01*
X186140581Y-140319750D01*
X186133349Y-140339962D01*
X186124170Y-140359368D01*
X186113134Y-140377781D01*
X186100346Y-140395024D01*
X186085930Y-140410930D01*
X186070024Y-140425346D01*
X186052781Y-140438134D01*
X186034368Y-140449170D01*
X186014962Y-140458349D01*
X185994750Y-140465581D01*
X185973926Y-140470797D01*
X185952691Y-140473947D01*
X185931250Y-140475000D01*
X185493750Y-140475000D01*
X185472309Y-140473947D01*
X185451074Y-140470797D01*
X185430250Y-140465581D01*
X185410038Y-140458349D01*
X185390632Y-140449170D01*
X185372219Y-140438134D01*
X185354976Y-140425346D01*
X185339070Y-140410930D01*
X185324654Y-140395024D01*
X185311866Y-140377781D01*
X185300830Y-140359368D01*
X185291651Y-140339962D01*
X185284419Y-140319750D01*
X185279203Y-140298926D01*
X185276053Y-140277691D01*
X185275000Y-140256250D01*
X185275000Y-139743750D01*
X185276053Y-139722309D01*
X185279203Y-139701074D01*
X185284419Y-139680250D01*
X185291651Y-139660038D01*
X185300830Y-139640632D01*
X185311866Y-139622219D01*
X185324654Y-139604976D01*
X185339070Y-139589070D01*
X185354976Y-139574654D01*
X185372219Y-139561866D01*
X185390632Y-139550830D01*
X185410038Y-139541651D01*
X185430250Y-139534419D01*
X185451074Y-139529203D01*
X185472309Y-139526053D01*
X185493750Y-139525000D01*
X185931250Y-139525000D01*
X185952691Y-139526053D01*
G37*
G04 #@! TD.AperFunction*
G04 #@! TA.AperFunction,SMDPad,CuDef*
G36*
X187527691Y-139526053D02*
G01*
X187548926Y-139529203D01*
X187569750Y-139534419D01*
X187589962Y-139541651D01*
X187609368Y-139550830D01*
X187627781Y-139561866D01*
X187645024Y-139574654D01*
X187660930Y-139589070D01*
X187675346Y-139604976D01*
X187688134Y-139622219D01*
X187699170Y-139640632D01*
X187708349Y-139660038D01*
X187715581Y-139680250D01*
X187720797Y-139701074D01*
X187723947Y-139722309D01*
X187725000Y-139743750D01*
X187725000Y-140256250D01*
X187723947Y-140277691D01*
X187720797Y-140298926D01*
X187715581Y-140319750D01*
X187708349Y-140339962D01*
X187699170Y-140359368D01*
X187688134Y-140377781D01*
X187675346Y-140395024D01*
X187660930Y-140410930D01*
X187645024Y-140425346D01*
X187627781Y-140438134D01*
X187609368Y-140449170D01*
X187589962Y-140458349D01*
X187569750Y-140465581D01*
X187548926Y-140470797D01*
X187527691Y-140473947D01*
X187506250Y-140475000D01*
X187068750Y-140475000D01*
X187047309Y-140473947D01*
X187026074Y-140470797D01*
X187005250Y-140465581D01*
X186985038Y-140458349D01*
X186965632Y-140449170D01*
X186947219Y-140438134D01*
X186929976Y-140425346D01*
X186914070Y-140410930D01*
X186899654Y-140395024D01*
X186886866Y-140377781D01*
X186875830Y-140359368D01*
X186866651Y-140339962D01*
X186859419Y-140319750D01*
X186854203Y-140298926D01*
X186851053Y-140277691D01*
X186850000Y-140256250D01*
X186850000Y-139743750D01*
X186851053Y-139722309D01*
X186854203Y-139701074D01*
X186859419Y-139680250D01*
X186866651Y-139660038D01*
X186875830Y-139640632D01*
X186886866Y-139622219D01*
X186899654Y-139604976D01*
X186914070Y-139589070D01*
X186929976Y-139574654D01*
X186947219Y-139561866D01*
X186965632Y-139550830D01*
X186985038Y-139541651D01*
X187005250Y-139534419D01*
X187026074Y-139529203D01*
X187047309Y-139526053D01*
X187068750Y-139525000D01*
X187506250Y-139525000D01*
X187527691Y-139526053D01*
G37*
G04 #@! TD.AperFunction*
G04 #@! TA.AperFunction,SMDPad,CuDef*
G36*
X170665191Y-139526053D02*
G01*
X170686426Y-139529203D01*
X170707250Y-139534419D01*
X170727462Y-139541651D01*
X170746868Y-139550830D01*
X170765281Y-139561866D01*
X170782524Y-139574654D01*
X170798430Y-139589070D01*
X170812846Y-139604976D01*
X170825634Y-139622219D01*
X170836670Y-139640632D01*
X170845849Y-139660038D01*
X170853081Y-139680250D01*
X170858297Y-139701074D01*
X170861447Y-139722309D01*
X170862500Y-139743750D01*
X170862500Y-140256250D01*
X170861447Y-140277691D01*
X170858297Y-140298926D01*
X170853081Y-140319750D01*
X170845849Y-140339962D01*
X170836670Y-140359368D01*
X170825634Y-140377781D01*
X170812846Y-140395024D01*
X170798430Y-140410930D01*
X170782524Y-140425346D01*
X170765281Y-140438134D01*
X170746868Y-140449170D01*
X170727462Y-140458349D01*
X170707250Y-140465581D01*
X170686426Y-140470797D01*
X170665191Y-140473947D01*
X170643750Y-140475000D01*
X170206250Y-140475000D01*
X170184809Y-140473947D01*
X170163574Y-140470797D01*
X170142750Y-140465581D01*
X170122538Y-140458349D01*
X170103132Y-140449170D01*
X170084719Y-140438134D01*
X170067476Y-140425346D01*
X170051570Y-140410930D01*
X170037154Y-140395024D01*
X170024366Y-140377781D01*
X170013330Y-140359368D01*
X170004151Y-140339962D01*
X169996919Y-140319750D01*
X169991703Y-140298926D01*
X169988553Y-140277691D01*
X169987500Y-140256250D01*
X169987500Y-139743750D01*
X169988553Y-139722309D01*
X169991703Y-139701074D01*
X169996919Y-139680250D01*
X170004151Y-139660038D01*
X170013330Y-139640632D01*
X170024366Y-139622219D01*
X170037154Y-139604976D01*
X170051570Y-139589070D01*
X170067476Y-139574654D01*
X170084719Y-139561866D01*
X170103132Y-139550830D01*
X170122538Y-139541651D01*
X170142750Y-139534419D01*
X170163574Y-139529203D01*
X170184809Y-139526053D01*
X170206250Y-139525000D01*
X170643750Y-139525000D01*
X170665191Y-139526053D01*
G37*
G04 #@! TD.AperFunction*
G04 #@! TA.AperFunction,SMDPad,CuDef*
G36*
X172240191Y-139526053D02*
G01*
X172261426Y-139529203D01*
X172282250Y-139534419D01*
X172302462Y-139541651D01*
X172321868Y-139550830D01*
X172340281Y-139561866D01*
X172357524Y-139574654D01*
X172373430Y-139589070D01*
X172387846Y-139604976D01*
X172400634Y-139622219D01*
X172411670Y-139640632D01*
X172420849Y-139660038D01*
X172428081Y-139680250D01*
X172433297Y-139701074D01*
X172436447Y-139722309D01*
X172437500Y-139743750D01*
X172437500Y-140256250D01*
X172436447Y-140277691D01*
X172433297Y-140298926D01*
X172428081Y-140319750D01*
X172420849Y-140339962D01*
X172411670Y-140359368D01*
X172400634Y-140377781D01*
X172387846Y-140395024D01*
X172373430Y-140410930D01*
X172357524Y-140425346D01*
X172340281Y-140438134D01*
X172321868Y-140449170D01*
X172302462Y-140458349D01*
X172282250Y-140465581D01*
X172261426Y-140470797D01*
X172240191Y-140473947D01*
X172218750Y-140475000D01*
X171781250Y-140475000D01*
X171759809Y-140473947D01*
X171738574Y-140470797D01*
X171717750Y-140465581D01*
X171697538Y-140458349D01*
X171678132Y-140449170D01*
X171659719Y-140438134D01*
X171642476Y-140425346D01*
X171626570Y-140410930D01*
X171612154Y-140395024D01*
X171599366Y-140377781D01*
X171588330Y-140359368D01*
X171579151Y-140339962D01*
X171571919Y-140319750D01*
X171566703Y-140298926D01*
X171563553Y-140277691D01*
X171562500Y-140256250D01*
X171562500Y-139743750D01*
X171563553Y-139722309D01*
X171566703Y-139701074D01*
X171571919Y-139680250D01*
X171579151Y-139660038D01*
X171588330Y-139640632D01*
X171599366Y-139622219D01*
X171612154Y-139604976D01*
X171626570Y-139589070D01*
X171642476Y-139574654D01*
X171659719Y-139561866D01*
X171678132Y-139550830D01*
X171697538Y-139541651D01*
X171717750Y-139534419D01*
X171738574Y-139529203D01*
X171759809Y-139526053D01*
X171781250Y-139525000D01*
X172218750Y-139525000D01*
X172240191Y-139526053D01*
G37*
G04 #@! TD.AperFunction*
G04 #@! TA.AperFunction,SMDPad,CuDef*
G36*
X155665191Y-139526053D02*
G01*
X155686426Y-139529203D01*
X155707250Y-139534419D01*
X155727462Y-139541651D01*
X155746868Y-139550830D01*
X155765281Y-139561866D01*
X155782524Y-139574654D01*
X155798430Y-139589070D01*
X155812846Y-139604976D01*
X155825634Y-139622219D01*
X155836670Y-139640632D01*
X155845849Y-139660038D01*
X155853081Y-139680250D01*
X155858297Y-139701074D01*
X155861447Y-139722309D01*
X155862500Y-139743750D01*
X155862500Y-140256250D01*
X155861447Y-140277691D01*
X155858297Y-140298926D01*
X155853081Y-140319750D01*
X155845849Y-140339962D01*
X155836670Y-140359368D01*
X155825634Y-140377781D01*
X155812846Y-140395024D01*
X155798430Y-140410930D01*
X155782524Y-140425346D01*
X155765281Y-140438134D01*
X155746868Y-140449170D01*
X155727462Y-140458349D01*
X155707250Y-140465581D01*
X155686426Y-140470797D01*
X155665191Y-140473947D01*
X155643750Y-140475000D01*
X155206250Y-140475000D01*
X155184809Y-140473947D01*
X155163574Y-140470797D01*
X155142750Y-140465581D01*
X155122538Y-140458349D01*
X155103132Y-140449170D01*
X155084719Y-140438134D01*
X155067476Y-140425346D01*
X155051570Y-140410930D01*
X155037154Y-140395024D01*
X155024366Y-140377781D01*
X155013330Y-140359368D01*
X155004151Y-140339962D01*
X154996919Y-140319750D01*
X154991703Y-140298926D01*
X154988553Y-140277691D01*
X154987500Y-140256250D01*
X154987500Y-139743750D01*
X154988553Y-139722309D01*
X154991703Y-139701074D01*
X154996919Y-139680250D01*
X155004151Y-139660038D01*
X155013330Y-139640632D01*
X155024366Y-139622219D01*
X155037154Y-139604976D01*
X155051570Y-139589070D01*
X155067476Y-139574654D01*
X155084719Y-139561866D01*
X155103132Y-139550830D01*
X155122538Y-139541651D01*
X155142750Y-139534419D01*
X155163574Y-139529203D01*
X155184809Y-139526053D01*
X155206250Y-139525000D01*
X155643750Y-139525000D01*
X155665191Y-139526053D01*
G37*
G04 #@! TD.AperFunction*
G04 #@! TA.AperFunction,SMDPad,CuDef*
G36*
X157240191Y-139526053D02*
G01*
X157261426Y-139529203D01*
X157282250Y-139534419D01*
X157302462Y-139541651D01*
X157321868Y-139550830D01*
X157340281Y-139561866D01*
X157357524Y-139574654D01*
X157373430Y-139589070D01*
X157387846Y-139604976D01*
X157400634Y-139622219D01*
X157411670Y-139640632D01*
X157420849Y-139660038D01*
X157428081Y-139680250D01*
X157433297Y-139701074D01*
X157436447Y-139722309D01*
X157437500Y-139743750D01*
X157437500Y-140256250D01*
X157436447Y-140277691D01*
X157433297Y-140298926D01*
X157428081Y-140319750D01*
X157420849Y-140339962D01*
X157411670Y-140359368D01*
X157400634Y-140377781D01*
X157387846Y-140395024D01*
X157373430Y-140410930D01*
X157357524Y-140425346D01*
X157340281Y-140438134D01*
X157321868Y-140449170D01*
X157302462Y-140458349D01*
X157282250Y-140465581D01*
X157261426Y-140470797D01*
X157240191Y-140473947D01*
X157218750Y-140475000D01*
X156781250Y-140475000D01*
X156759809Y-140473947D01*
X156738574Y-140470797D01*
X156717750Y-140465581D01*
X156697538Y-140458349D01*
X156678132Y-140449170D01*
X156659719Y-140438134D01*
X156642476Y-140425346D01*
X156626570Y-140410930D01*
X156612154Y-140395024D01*
X156599366Y-140377781D01*
X156588330Y-140359368D01*
X156579151Y-140339962D01*
X156571919Y-140319750D01*
X156566703Y-140298926D01*
X156563553Y-140277691D01*
X156562500Y-140256250D01*
X156562500Y-139743750D01*
X156563553Y-139722309D01*
X156566703Y-139701074D01*
X156571919Y-139680250D01*
X156579151Y-139660038D01*
X156588330Y-139640632D01*
X156599366Y-139622219D01*
X156612154Y-139604976D01*
X156626570Y-139589070D01*
X156642476Y-139574654D01*
X156659719Y-139561866D01*
X156678132Y-139550830D01*
X156697538Y-139541651D01*
X156717750Y-139534419D01*
X156738574Y-139529203D01*
X156759809Y-139526053D01*
X156781250Y-139525000D01*
X157218750Y-139525000D01*
X157240191Y-139526053D01*
G37*
G04 #@! TD.AperFunction*
G04 #@! TA.AperFunction,SMDPad,CuDef*
G36*
X177277691Y-112776053D02*
G01*
X177298926Y-112779203D01*
X177319750Y-112784419D01*
X177339962Y-112791651D01*
X177359368Y-112800830D01*
X177377781Y-112811866D01*
X177395024Y-112824654D01*
X177410930Y-112839070D01*
X177425346Y-112854976D01*
X177438134Y-112872219D01*
X177449170Y-112890632D01*
X177458349Y-112910038D01*
X177465581Y-112930250D01*
X177470797Y-112951074D01*
X177473947Y-112972309D01*
X177475000Y-112993750D01*
X177475000Y-113431250D01*
X177473947Y-113452691D01*
X177470797Y-113473926D01*
X177465581Y-113494750D01*
X177458349Y-113514962D01*
X177449170Y-113534368D01*
X177438134Y-113552781D01*
X177425346Y-113570024D01*
X177410930Y-113585930D01*
X177395024Y-113600346D01*
X177377781Y-113613134D01*
X177359368Y-113624170D01*
X177339962Y-113633349D01*
X177319750Y-113640581D01*
X177298926Y-113645797D01*
X177277691Y-113648947D01*
X177256250Y-113650000D01*
X176743750Y-113650000D01*
X176722309Y-113648947D01*
X176701074Y-113645797D01*
X176680250Y-113640581D01*
X176660038Y-113633349D01*
X176640632Y-113624170D01*
X176622219Y-113613134D01*
X176604976Y-113600346D01*
X176589070Y-113585930D01*
X176574654Y-113570024D01*
X176561866Y-113552781D01*
X176550830Y-113534368D01*
X176541651Y-113514962D01*
X176534419Y-113494750D01*
X176529203Y-113473926D01*
X176526053Y-113452691D01*
X176525000Y-113431250D01*
X176525000Y-112993750D01*
X176526053Y-112972309D01*
X176529203Y-112951074D01*
X176534419Y-112930250D01*
X176541651Y-112910038D01*
X176550830Y-112890632D01*
X176561866Y-112872219D01*
X176574654Y-112854976D01*
X176589070Y-112839070D01*
X176604976Y-112824654D01*
X176622219Y-112811866D01*
X176640632Y-112800830D01*
X176660038Y-112791651D01*
X176680250Y-112784419D01*
X176701074Y-112779203D01*
X176722309Y-112776053D01*
X176743750Y-112775000D01*
X177256250Y-112775000D01*
X177277691Y-112776053D01*
G37*
G04 #@! TD.AperFunction*
G04 #@! TA.AperFunction,SMDPad,CuDef*
G36*
X177277691Y-114351053D02*
G01*
X177298926Y-114354203D01*
X177319750Y-114359419D01*
X177339962Y-114366651D01*
X177359368Y-114375830D01*
X177377781Y-114386866D01*
X177395024Y-114399654D01*
X177410930Y-114414070D01*
X177425346Y-114429976D01*
X177438134Y-114447219D01*
X177449170Y-114465632D01*
X177458349Y-114485038D01*
X177465581Y-114505250D01*
X177470797Y-114526074D01*
X177473947Y-114547309D01*
X177475000Y-114568750D01*
X177475000Y-115006250D01*
X177473947Y-115027691D01*
X177470797Y-115048926D01*
X177465581Y-115069750D01*
X177458349Y-115089962D01*
X177449170Y-115109368D01*
X177438134Y-115127781D01*
X177425346Y-115145024D01*
X177410930Y-115160930D01*
X177395024Y-115175346D01*
X177377781Y-115188134D01*
X177359368Y-115199170D01*
X177339962Y-115208349D01*
X177319750Y-115215581D01*
X177298926Y-115220797D01*
X177277691Y-115223947D01*
X177256250Y-115225000D01*
X176743750Y-115225000D01*
X176722309Y-115223947D01*
X176701074Y-115220797D01*
X176680250Y-115215581D01*
X176660038Y-115208349D01*
X176640632Y-115199170D01*
X176622219Y-115188134D01*
X176604976Y-115175346D01*
X176589070Y-115160930D01*
X176574654Y-115145024D01*
X176561866Y-115127781D01*
X176550830Y-115109368D01*
X176541651Y-115089962D01*
X176534419Y-115069750D01*
X176529203Y-115048926D01*
X176526053Y-115027691D01*
X176525000Y-115006250D01*
X176525000Y-114568750D01*
X176526053Y-114547309D01*
X176529203Y-114526074D01*
X176534419Y-114505250D01*
X176541651Y-114485038D01*
X176550830Y-114465632D01*
X176561866Y-114447219D01*
X176574654Y-114429976D01*
X176589070Y-114414070D01*
X176604976Y-114399654D01*
X176622219Y-114386866D01*
X176640632Y-114375830D01*
X176660038Y-114366651D01*
X176680250Y-114359419D01*
X176701074Y-114354203D01*
X176722309Y-114351053D01*
X176743750Y-114350000D01*
X177256250Y-114350000D01*
X177277691Y-114351053D01*
G37*
G04 #@! TD.AperFunction*
G04 #@! TA.AperFunction,SMDPad,CuDef*
G36*
X162277691Y-112776053D02*
G01*
X162298926Y-112779203D01*
X162319750Y-112784419D01*
X162339962Y-112791651D01*
X162359368Y-112800830D01*
X162377781Y-112811866D01*
X162395024Y-112824654D01*
X162410930Y-112839070D01*
X162425346Y-112854976D01*
X162438134Y-112872219D01*
X162449170Y-112890632D01*
X162458349Y-112910038D01*
X162465581Y-112930250D01*
X162470797Y-112951074D01*
X162473947Y-112972309D01*
X162475000Y-112993750D01*
X162475000Y-113431250D01*
X162473947Y-113452691D01*
X162470797Y-113473926D01*
X162465581Y-113494750D01*
X162458349Y-113514962D01*
X162449170Y-113534368D01*
X162438134Y-113552781D01*
X162425346Y-113570024D01*
X162410930Y-113585930D01*
X162395024Y-113600346D01*
X162377781Y-113613134D01*
X162359368Y-113624170D01*
X162339962Y-113633349D01*
X162319750Y-113640581D01*
X162298926Y-113645797D01*
X162277691Y-113648947D01*
X162256250Y-113650000D01*
X161743750Y-113650000D01*
X161722309Y-113648947D01*
X161701074Y-113645797D01*
X161680250Y-113640581D01*
X161660038Y-113633349D01*
X161640632Y-113624170D01*
X161622219Y-113613134D01*
X161604976Y-113600346D01*
X161589070Y-113585930D01*
X161574654Y-113570024D01*
X161561866Y-113552781D01*
X161550830Y-113534368D01*
X161541651Y-113514962D01*
X161534419Y-113494750D01*
X161529203Y-113473926D01*
X161526053Y-113452691D01*
X161525000Y-113431250D01*
X161525000Y-112993750D01*
X161526053Y-112972309D01*
X161529203Y-112951074D01*
X161534419Y-112930250D01*
X161541651Y-112910038D01*
X161550830Y-112890632D01*
X161561866Y-112872219D01*
X161574654Y-112854976D01*
X161589070Y-112839070D01*
X161604976Y-112824654D01*
X161622219Y-112811866D01*
X161640632Y-112800830D01*
X161660038Y-112791651D01*
X161680250Y-112784419D01*
X161701074Y-112779203D01*
X161722309Y-112776053D01*
X161743750Y-112775000D01*
X162256250Y-112775000D01*
X162277691Y-112776053D01*
G37*
G04 #@! TD.AperFunction*
G04 #@! TA.AperFunction,SMDPad,CuDef*
G36*
X162277691Y-114351053D02*
G01*
X162298926Y-114354203D01*
X162319750Y-114359419D01*
X162339962Y-114366651D01*
X162359368Y-114375830D01*
X162377781Y-114386866D01*
X162395024Y-114399654D01*
X162410930Y-114414070D01*
X162425346Y-114429976D01*
X162438134Y-114447219D01*
X162449170Y-114465632D01*
X162458349Y-114485038D01*
X162465581Y-114505250D01*
X162470797Y-114526074D01*
X162473947Y-114547309D01*
X162475000Y-114568750D01*
X162475000Y-115006250D01*
X162473947Y-115027691D01*
X162470797Y-115048926D01*
X162465581Y-115069750D01*
X162458349Y-115089962D01*
X162449170Y-115109368D01*
X162438134Y-115127781D01*
X162425346Y-115145024D01*
X162410930Y-115160930D01*
X162395024Y-115175346D01*
X162377781Y-115188134D01*
X162359368Y-115199170D01*
X162339962Y-115208349D01*
X162319750Y-115215581D01*
X162298926Y-115220797D01*
X162277691Y-115223947D01*
X162256250Y-115225000D01*
X161743750Y-115225000D01*
X161722309Y-115223947D01*
X161701074Y-115220797D01*
X161680250Y-115215581D01*
X161660038Y-115208349D01*
X161640632Y-115199170D01*
X161622219Y-115188134D01*
X161604976Y-115175346D01*
X161589070Y-115160930D01*
X161574654Y-115145024D01*
X161561866Y-115127781D01*
X161550830Y-115109368D01*
X161541651Y-115089962D01*
X161534419Y-115069750D01*
X161529203Y-115048926D01*
X161526053Y-115027691D01*
X161525000Y-115006250D01*
X161525000Y-114568750D01*
X161526053Y-114547309D01*
X161529203Y-114526074D01*
X161534419Y-114505250D01*
X161541651Y-114485038D01*
X161550830Y-114465632D01*
X161561866Y-114447219D01*
X161574654Y-114429976D01*
X161589070Y-114414070D01*
X161604976Y-114399654D01*
X161622219Y-114386866D01*
X161640632Y-114375830D01*
X161660038Y-114366651D01*
X161680250Y-114359419D01*
X161701074Y-114354203D01*
X161722309Y-114351053D01*
X161743750Y-114350000D01*
X162256250Y-114350000D01*
X162277691Y-114351053D01*
G37*
G04 #@! TD.AperFunction*
D17*
X164750000Y-122250000D03*
X162464163Y-112508008D03*
X177000000Y-121000000D03*
X177000000Y-112000000D03*
X155774990Y-138500000D03*
D18*
X179025000Y-112750000D02*
X186975000Y-112750000D01*
X163562500Y-113212500D02*
X164025000Y-112750000D01*
X162000000Y-113212500D02*
X163562500Y-113212500D01*
X164025000Y-112750000D02*
X171975000Y-112750000D01*
X165287500Y-121000000D02*
X165287500Y-121712500D01*
X165287500Y-121712500D02*
X164750000Y-122250000D01*
X162000000Y-113212500D02*
X162000000Y-112775000D01*
X162000000Y-112775000D02*
X162266992Y-112508008D01*
X162266992Y-112508008D02*
X162464163Y-112508008D01*
X178712500Y-121000000D02*
X177000000Y-121000000D01*
X178562500Y-113212500D02*
X179025000Y-112750000D01*
X177000000Y-113212500D02*
X178562500Y-113212500D01*
X177000000Y-113212500D02*
X177000000Y-112000000D01*
X171975000Y-117250000D02*
X164025000Y-117250000D01*
X164025000Y-116350000D02*
X164025000Y-117250000D01*
X164025000Y-116337500D02*
X164025000Y-116350000D01*
X162475000Y-114787500D02*
X164025000Y-116337500D01*
X162000000Y-114787500D02*
X162475000Y-114787500D01*
X164025000Y-119187500D02*
X163712500Y-119500000D01*
X164025000Y-117250000D02*
X164025000Y-119187500D01*
X163712500Y-119500000D02*
X163712500Y-121000000D01*
X179025000Y-117250000D02*
X186975000Y-117250000D01*
X179025000Y-118237500D02*
X180287500Y-119500000D01*
X179025000Y-117250000D02*
X179025000Y-118237500D01*
X179025000Y-116350000D02*
X179025000Y-117250000D01*
X179025000Y-116337500D02*
X179025000Y-116350000D01*
X177475000Y-114787500D02*
X179025000Y-116337500D01*
X177000000Y-114787500D02*
X177475000Y-114787500D01*
X180287500Y-119500000D02*
X180287500Y-121000000D01*
X163670001Y-144150001D02*
X164520000Y-145000000D01*
X163270053Y-143750053D02*
X163670001Y-144150001D01*
X153750048Y-143750053D02*
X163270053Y-143750053D01*
X150750000Y-140750005D02*
X153750048Y-143750053D01*
X155727178Y-107000000D02*
X150750000Y-111977178D01*
X161520000Y-107000000D02*
X155727178Y-107000000D01*
X150750000Y-111977178D02*
X150750000Y-140750005D01*
X164520000Y-104000000D02*
X161520000Y-107000000D01*
X165510011Y-105549989D02*
X166210001Y-104849999D01*
X164528216Y-105549989D02*
X165510011Y-105549989D01*
X162628194Y-107450011D02*
X164528216Y-105549989D01*
X155913578Y-107450011D02*
X162628194Y-107450011D01*
X165360042Y-143300042D02*
X153936448Y-143300042D01*
X167060000Y-145000000D02*
X165360042Y-143300042D01*
X153936448Y-143300042D02*
X151200011Y-140563605D01*
X166210001Y-104849999D02*
X167060000Y-104000000D01*
X151200011Y-112163578D02*
X155913578Y-107450011D01*
X151200011Y-140563605D02*
X151200011Y-112163578D01*
X159000000Y-111840767D02*
X159000000Y-123250000D01*
X167450031Y-142850031D02*
X168750001Y-144150001D01*
X159000000Y-123250000D02*
X152649967Y-129600033D01*
X168750001Y-144150001D02*
X169600000Y-145000000D01*
X154122848Y-142850031D02*
X167450031Y-142850031D01*
X169600000Y-104000000D02*
X167600000Y-106000000D01*
X164840767Y-106000000D02*
X159000000Y-111840767D01*
X152649967Y-129600033D02*
X152649967Y-141377150D01*
X152649967Y-141377150D02*
X154122848Y-142850031D01*
X167600000Y-106000000D02*
X164840767Y-106000000D01*
X153099978Y-141190750D02*
X154309248Y-142400020D01*
X153099978Y-134400022D02*
X153099978Y-141190750D01*
X169540020Y-142400020D02*
X171290001Y-144150001D01*
X154309248Y-142400020D02*
X169540020Y-142400020D01*
X155000000Y-132500000D02*
X153099978Y-134400022D01*
X171290001Y-144150001D02*
X172140000Y-145000000D01*
X159500000Y-111977178D02*
X159500000Y-128000000D01*
X159500000Y-128000000D02*
X155899999Y-131600001D01*
X155899999Y-131600001D02*
X155000000Y-132500000D01*
X164877200Y-106599978D02*
X159500000Y-111977178D01*
X172140000Y-104000000D02*
X169540022Y-106599978D01*
X169540022Y-106599978D02*
X164877200Y-106599978D01*
X168727208Y-132500000D02*
X170000000Y-132500000D01*
X153549989Y-141004350D02*
X153549989Y-138813600D01*
X171630009Y-141950009D02*
X154495648Y-141950009D01*
X174680000Y-145000000D02*
X171630009Y-141950009D01*
X154495648Y-141950009D02*
X153549989Y-141004350D01*
X159863589Y-132500000D02*
X168727208Y-132500000D01*
X153549989Y-138813600D02*
X159863589Y-132500000D01*
X173830001Y-104849999D02*
X174680000Y-104000000D01*
X170000000Y-132500000D02*
X159950011Y-122450011D01*
X159950011Y-122450011D02*
X159950011Y-112163578D01*
X168593633Y-110086367D02*
X173830001Y-104849999D01*
X162027222Y-110086367D02*
X168593633Y-110086367D01*
X159950011Y-112163578D02*
X162027222Y-110086367D01*
X184100001Y-133399999D02*
X185000000Y-132500000D01*
X183725001Y-133774999D02*
X184100001Y-133399999D01*
X159225001Y-133774999D02*
X183725001Y-133774999D01*
X154682048Y-141499998D02*
X154000000Y-140817950D01*
X173719998Y-141499998D02*
X154682048Y-141499998D01*
X177220000Y-145000000D02*
X173719998Y-141499998D01*
X154000000Y-140817950D02*
X154000000Y-139000000D01*
X154000000Y-139000000D02*
X159225001Y-133774999D01*
X160400022Y-121900022D02*
X162500000Y-124000000D01*
X160400022Y-112349978D02*
X160400022Y-121900022D01*
X162213622Y-110536378D02*
X160400022Y-112349978D01*
X170683622Y-110536378D02*
X162213622Y-110536378D01*
X176500000Y-124000000D02*
X184100001Y-131600001D01*
X162500000Y-124000000D02*
X176500000Y-124000000D01*
X177220000Y-104000000D02*
X170683622Y-110536378D01*
X184100001Y-131600001D02*
X185000000Y-132500000D01*
X174500000Y-109260000D02*
X179760000Y-104000000D01*
X174500000Y-117250000D02*
X174500000Y-109260000D01*
X165287500Y-119500000D02*
X172250000Y-119500000D01*
X172250000Y-119500000D02*
X174500000Y-117250000D01*
X196399968Y-148600033D02*
X183360033Y-148600033D01*
X199250000Y-102954356D02*
X199250000Y-145750001D01*
X183360033Y-148600033D02*
X180609999Y-145849999D01*
X199250000Y-145750001D02*
X196399968Y-148600033D01*
X180609999Y-145849999D02*
X179760000Y-145000000D01*
X179760000Y-104000000D02*
X183060044Y-100699956D01*
X196995600Y-100699956D02*
X199250000Y-102954356D01*
X183060044Y-100699956D02*
X196995600Y-100699956D01*
X176750000Y-119500000D02*
X178712500Y-119500000D01*
X175000000Y-117750000D02*
X176750000Y-119500000D01*
X182300000Y-104000000D02*
X175000000Y-111300000D01*
X175000000Y-111300000D02*
X175000000Y-117750000D01*
X198799989Y-103140756D02*
X196809200Y-101149967D01*
X196213568Y-148150022D02*
X198799989Y-145563601D01*
X185150033Y-101149967D02*
X183149999Y-103150001D01*
X185450022Y-148150022D02*
X196213568Y-148150022D01*
X198799989Y-145563601D02*
X198799989Y-103140756D01*
X183149999Y-103150001D02*
X182300000Y-104000000D01*
X196809200Y-101149967D02*
X185150033Y-101149967D01*
X182300000Y-145000000D02*
X185450022Y-148150022D01*
X185689999Y-145849999D02*
X184840000Y-145000000D01*
X195857813Y-147700011D02*
X187540011Y-147700011D01*
X191000000Y-112522820D02*
X191000000Y-117250000D01*
X197650022Y-145907802D02*
X195857813Y-147700011D01*
X197650022Y-123900022D02*
X197650022Y-145907802D01*
X191000000Y-117250000D02*
X197650022Y-123900022D01*
X187540011Y-147700011D02*
X185689999Y-145849999D01*
X187240022Y-101599978D02*
X196622800Y-101599978D01*
X196622800Y-101599978D02*
X197900022Y-102877200D01*
X184840000Y-104000000D02*
X187240022Y-101599978D01*
X197900022Y-105622800D02*
X191000000Y-112522820D01*
X197900022Y-102877200D02*
X197900022Y-105622800D01*
X196436400Y-102049989D02*
X189330011Y-102049989D01*
X189630000Y-147250000D02*
X195671413Y-147250000D01*
X197200011Y-145721402D02*
X197200011Y-124086422D01*
X197450011Y-103063600D02*
X196436400Y-102049989D01*
X190549989Y-117436400D02*
X190549989Y-112336421D01*
X188229999Y-103150001D02*
X187380000Y-104000000D01*
X187380000Y-145000000D02*
X189630000Y-147250000D01*
X190549989Y-112336421D02*
X197450011Y-105436400D01*
X189330011Y-102049989D02*
X188229999Y-103150001D01*
X197200011Y-124086422D02*
X190549989Y-117436400D01*
X197450011Y-105436400D02*
X197450011Y-103063600D01*
X195671413Y-147250000D02*
X197200011Y-145721402D01*
X190769999Y-145849999D02*
X189920000Y-145000000D01*
X191095001Y-146175001D02*
X190769999Y-145849999D01*
X196110001Y-146175001D02*
X191095001Y-146175001D01*
X190099978Y-117622800D02*
X196750000Y-124272822D01*
X196250000Y-102500000D02*
X197000000Y-103250000D01*
X189920000Y-104000000D02*
X191420000Y-102500000D01*
X196750000Y-124272822D02*
X196750000Y-145535002D01*
X191420000Y-102500000D02*
X196250000Y-102500000D01*
X190099978Y-112150022D02*
X190099978Y-117622800D01*
X197000000Y-105250000D02*
X190099978Y-112150022D01*
X197000000Y-103250000D02*
X197000000Y-105250000D01*
X196750000Y-145535002D02*
X196110001Y-146175001D01*
X157000000Y-140000000D02*
X167500000Y-140000000D01*
X172000000Y-140475000D02*
X172000000Y-140000000D01*
X171674990Y-140800010D02*
X172000000Y-140475000D01*
X168300010Y-140800010D02*
X171674990Y-140800010D01*
X167500000Y-140000000D02*
X168300010Y-140800010D01*
X172000000Y-140000000D02*
X181500000Y-140000000D01*
X181500000Y-140000000D02*
X183000000Y-141500000D01*
X187287500Y-140475000D02*
X187287500Y-140000000D01*
X186262500Y-141500000D02*
X187287500Y-140475000D01*
X183000000Y-141500000D02*
X186262500Y-141500000D01*
X195000000Y-143900000D02*
X195000000Y-145000000D01*
X191100000Y-140000000D02*
X195000000Y-143900000D01*
X187287500Y-140000000D02*
X191100000Y-140000000D01*
D19*
X195000000Y-105350000D02*
X195000000Y-104000000D01*
X188750000Y-111600000D02*
X195000000Y-105350000D01*
X195000000Y-143900000D02*
X188750000Y-137650000D01*
X188750000Y-137650000D02*
X188750000Y-111600000D01*
D18*
X155425000Y-140000000D02*
X155425000Y-138849990D01*
X155425000Y-138849990D02*
X155774990Y-138500000D01*
X170425000Y-135425000D02*
X170000000Y-135000000D01*
X170425000Y-140000000D02*
X170425000Y-135425000D01*
X185275000Y-140000000D02*
X185712500Y-140000000D01*
X185000000Y-139725000D02*
X185275000Y-140000000D01*
X185000000Y-135000000D02*
X185000000Y-139725000D01*
M02*
